<svg width="1220" height="390" fill="none" xmlns="http://www.w3.org/2000/svg"><path fill-rule="evenodd" clip-rule="evenodd" d="M.023 196.54c-1.288 59.649 51.064 112.003 110.715 110.715 24.029 0 48.06-12.012 54.496-26.174v22.743h55.789V196.54c1.287-59.645-50.638-112.003-110.285-110.716C51.088 84.537-1.265 136.895.023 196.54Zm1162.907 79.179c0 15.518 12.59 28.105 28.11 28.105s28.1-12.587 28.1-28.105c0-15.52-12.58-28.104-28.1-28.104-15.52 0-28.11 12.584-28.11 28.104ZM441.17 85.824c46.2-.999 88.024 30.188 103.939 72.019l-49.443 46.461c.289-2.523.432-5.113.432-7.764 0-15.875-5.151-29.18-15.449-39.909-10.299-10.726-23.174-16.306-39.052-16.306-15.875 0-28.748 5.58-39.479 16.306-10.729 10.729-15.879 24.034-15.879 39.909 0 15.879 5.15 29.609 15.879 40.34 10.731 10.729 23.604 15.879 39.479 15.879 6.204 0 11.952-.786 17.262-2.382a48.51 48.51 0 0 0 13.228-6.254c3.032-2.044 5.886-4.455 8.562-7.243l3.745-4.324 64.897-60.988 55.448-52.109 7.562-7.106a114.885 114.885 0 0 1 10.244-7.836c17.857-12.134 39.174-19.173 61.516-18.693 59.645-1.287 111.572 51.071 110.284 110.716v193.108h-56.214v-98.697c-15.022 10.728-33.046 16.304-54.07 16.304-46.224.998-88.07-30.218-103.964-72.078l49.508-46.752a67.28 67.28 0 0 0-.475 8.115c0 15.879 5.148 29.609 15.448 40.34 10.299 10.729 23.172 15.879 39.052 15.879 15.88 0 28.753-5.15 39.479-15.879 10.729-10.731 15.878-24.461 15.878-40.34 0-15.875-5.149-29.18-15.878-39.909-10.726-10.726-23.599-16.306-39.479-16.306-9.235 0-17.451 1.886-24.739 5.576-3.826 1.942-7.4 4.374-10.725 7.294l-3.588 3.436-68.657 64.789-58.916 55.637a115.987 115.987 0 0 1-10.138 8.524c-18.666 13.95-41.586 22.196-65.697 21.674-59.649 1.288-112.001-51.066-110.715-110.715-1.286-59.645 51.066-112.003 110.715-110.716ZM165.665 196.54c0 15.879-5.15 29.609-15.448 40.34-10.3 10.729-23.174 15.879-39.052 15.879-15.875 0-28.75-5.15-39.48-15.879-10.728-10.731-15.88-24.461-15.88-40.34 0-15.875 5.152-29.18 15.88-39.909 10.73-10.726 23.605-16.306 39.48-16.306 15.878 0 28.752 5.58 39.052 16.306 10.298 10.729 15.448 24.034 15.448 39.909ZM306.851 3.432h-55.788v300.392h55.788V3.432Zm513.242 29.61c0 18.88 14.592 33.471 33.472 33.471 18.454 0 33.041-14.592 33.041-33.472C886.606 14.588 872.019 0 853.565 0c-18.88 0-33.472 14.588-33.472 33.041Zm5.58 270.782h55.784V89.256h-55.784v214.568ZM910.21 196.54c-1.288 59.649 51.064 112.003 110.71 110.715 24.04 0 48.06-12.012 54.5-26.174v22.743h55.79V196.54c1.29-59.645-50.64-112.003-110.29-110.716-59.646-1.287-111.998 51.071-110.71 110.716Zm165.64 0c0 15.879-5.15 29.609-15.45 40.34-10.3 10.729-23.17 15.879-39.05 15.879-15.87 0-28.748-5.15-39.479-15.879-10.729-10.731-15.878-24.461-15.878-40.34 0-15.875 5.149-29.18 15.878-39.909 10.731-10.726 23.609-16.306 39.479-16.306 15.88 0 28.75 5.58 39.05 16.306 10.3 10.729 15.45 24.034 15.45 39.909Z" fill="#7F00FF"/></svg>