<svg xmlns="http://www.w3.org/2000/svg" width="42.976" height="30.899" viewBox="0 0 11.371 8.175"><path style="display:inline;fill:#b5e4e1;fill-opacity:1;stroke-width:.0147635" d="m92.477 122.912 4.808 8.176h1.636c.13-.001.235-.02.312-.058a.326.326 0 0 0 .164-.17c.058-.14.018-.328-.089-.524l-.52-.876-.728.421-.276-.48.723-.417-.493-.83-.714.412-.276-.48.707-.408-.492-.83-.698.402-.277-.479.693-.4-.493-.83-.682.393-.277-.479.677-.39-.493-.831-.667.385-.277-.48.661-.38-.501-.847z" transform="translate(-88.053 -122.912)"/><path style="display:inline;fill:#2597ac;fill-opacity:1;stroke-width:.0147635" d="m90.622 126.074-2.453 4.26c-.108.197-.148.386-.09.526.03.07.083.13.164.17a.73.73 0 0 0 .315.058h1.626l2.854-5.014z" transform="translate(-88.053 -122.912)"/><path d="m91.387 128.974-1.204 2.114h7.102l-1.243-2.114z" style="display:inline;fill:#49d1cd;fill-opacity:1;stroke:none;stroke-width:2.73669;stroke-linecap:round;stroke-linejoin:round;stroke-miterlimit:4;stroke-dasharray:none;stroke-dashoffset:0;stroke-opacity:1;paint-order:normal" transform="translate(-88.053 -122.912)"/></svg>