<svg version="1.1"
    xmlns="http://www.w3.org/2000/svg"
    xmlns:xlink="http://www.w3.org/1999/xlink" x="0px" y="0px" width="125" height="59.9" viewBox="0 0 125 59.9" preserveAspectRatio="xMinYMin meet" xml:space="preserve">
    <path class="AMCSLogo" d="M54.5,38.1c3,0,5.5-2.4,5.5-5.5V5.5c0-3-2.4-5.5-5.5-5.5H38.1c-3,0-5.5,2.4-5.5,5.5V21c0,0.5-0.4,0.9-0.9,0.9h-3.7                        c-0.5,0-0.9-0.4-0.9-0.9V5.5c0-3-2.4-5.5-5.4-5.5H5.5C2.4,0,0,2.4,0,5.5v16.3c0,3,2.4,5.5,5.5,5.5h10.8v-5.5H6.2                        c-0.5,0-0.9-0.4-0.9-0.9V6.2c0-0.5,0.4-0.9,0.9-0.9h14.7c0.5,0,0.9,0.4,0.9,0.9v15.5c0,3,2.4,5.5,5.5,5.5h5.4c3,0,5.5-2.4,5.5-5.5                        V6.2c0-0.5,0.4-0.9,0.9-0.9h3.8c0.5,0,0.9,0.4,0.9,0.9v21H49V5.4h4.6c0.5,0,0.9,0.4,0.9,0.9v25.6c0,0.5-0.4,0.9-0.9,0.9H38.2                        c-3,0-5.5,2.4-5.5,5.5v5.4c0,3,2.4,5.5,5.5,5.5h15.5c0.5,0,0.9,0.4,0.9,0.9v3.8c0,0.5-0.4,0.9-0.9,0.9H6.3c-0.5,0-0.9-0.4-0.9-0.9                        V39c0-0.5,0.4-0.9,0.9-0.9h21v-5.5H5.5c-3,0-5.5,2.4-5.5,5.4v16.3c0,3,2.4,5.5,5.5,5.5h49c3,0,5.5-2.4,5.5-5.5V49                        c0-3-2.4-5.5-5.5-5.5H38.9c-0.5,0-0.9-0.4-0.9-0.9v-3.8c0-0.5,0.4-0.9,0.9-0.9L54.5,38.1z" fill="#52AE32"></path>
    <g>
        <path class="AMCSLogoLetters" d="M70,16.6c0-0.2,0.1-0.3,0.3-0.3H73c0.2,0,0.3,0.1,0.3,0.3L78,37.8c0,0.2,0,0.3-0.2,0.3h-2.7c-0.2,0-0.3-0.1-0.3-0.3                        l-0.9-4.4h-4.4l-0.9,4.4c0,0.2-0.1,0.3-0.3,0.3h-2.7c-0.2,0-0.3-0.1-0.2-0.3L70,16.6z M73.3,30.5l-1.5-8.1h-0.1L70,30.5H73.3z" fill="#004457"></path>
        <path class="AMCSLogoLetters" d="M81.6,16.6c0-0.2,0.1-0.3,0.3-0.3h2.8c0.3,0,0.4,0.1,0.5,0.3l3.6,12.3H89l3.5-12.3c0-0.2,0.2-0.3,0.5-0.3h2.8                        c0.2,0,0.3,0.1,0.3,0.3v21.2c0,0.2-0.1,0.3-0.3,0.3h-2.5c-0.2,0-0.3-0.1-0.3-0.3V24h-0.2L90,33.9c0,0.2-0.2,0.3-0.4,0.3h-1.4                        c-0.2,0-0.3-0.1-0.4-0.3L84.9,24h-0.2v13.8c0,0.2-0.1,0.3-0.3,0.3h-2.5c-0.2,0-0.3-0.1-0.3-0.3L81.6,16.6L81.6,16.6z" fill="#004457"></path>
        <path class="AMCSLogoLetters" d="M100.5,27.2c0-6.1,0.1-7,0.4-7.9c0.7-2.1,2.3-3.4,4.9-3.4c3.1,0,5.1,1.6,5.3,5.2c0,0.2,0,0.3-0.2,0.4l-2.6,0.4                        c-0.2,0-0.3,0-0.3-0.3c-0.1-1.9-0.7-2.7-2-2.7c-1,0-1.5,0.4-1.7,1.2c-0.1,0.5-0.2,1-0.2,6.9s0,6.4,0.2,6.9c0.2,0.8,0.8,1.2,1.7,1.2                        c1.2,0,1.9-0.8,2-2.7c0-0.2,0.1-0.3,0.3-0.3l2.6,0.4c0.2,0,0.2,0.2,0.2,0.4c-0.2,3.6-2.2,5.2-5.3,5.2c-2.7,0-4.3-1.2-4.9-3.4                        C100.6,34.2,100.5,33.3,100.5,27.2z" fill="#004457"></path>
        <path class="AMCSLogoLetters" d="M119.5,38.5c-3.5,0-5.4-1.9-5.5-5.7c0-0.2,0-0.3,0.2-0.3L117,32c0.2,0,0.3,0.1,0.3,0.3c0.1,2.3,0.8,3.2,2.3,3.2                        c1.4,0,2.1-0.7,2.1-3.1c0-2.3-0.4-3.1-2.2-3.8l-1.3-0.5c-3-1.2-3.9-2.8-3.9-6.2c0-3.8,1.7-5.8,5.3-5.8c3.6,0,5.2,1.9,5.4,5.3                        c0,0.2-0.1,0.3-0.3,0.3l-2.6,0.4c-0.2,0-0.3,0-0.3-0.2c0-1.8-0.6-2.8-2.1-2.8c-1.3,0-2,0.8-2,2.6c0,2,0.4,2.6,2.1,3.3l1.3,0.5                        c2.9,1.1,4,2.7,4,6.4C125.1,36.2,123.7,38.5,119.5,38.5z" fill="#004457"></path>
    </g>
</svg>