<?xml version="1.0" encoding="UTF-8"?>
<svg id="Layer_1" data-name="Layer 1" xmlns="http://www.w3.org/2000/svg" viewBox="0 0 1348.69 192.68">
  <defs>
    <style>
      .cls-1 {
        stroke-width: 0px;
      }
    </style>
  </defs>
  <g>
    <path class="cls-1" d="M924.71.08v192.57h100v-40.4h156.04v.05h67.76l32.24-32.24V33.1L1247.73.08h-323.02,0ZM1180.75,96.25h-156.04v-40.22h156.04v40.22Z"/>
    <polygon class="cls-1" points="104.88 192.68 0 192.68 115.26 0 291.72 0 406.98 192.68 302.09 192.68 283.39 161.42 166.89 161.42 196.8 111.42 253.48 111.42 217.56 51.37 189.41 51.37 104.88 192.68"/>
    <polygon class="cls-1" points="864.71 0 864.71 192.58 764.71 192.58 764.71 76.58 695.26 192.68 609.67 192.68 539.98 76.18 539.98 192.58 439.98 192.58 439.98 0 539.98 0 539.98 .07 540.1 0 564.32 0 652.47 147.34 740.61 0 864.71 0"/>
  </g>
  <path class="cls-1" d="M1307.94,0h16.73v3.84h-6.1v14.56h-4.57V3.84h-6.06V0ZM1326.35,0h6.87l3.65,11.05c.24.72.48,1.54.72,2.5.29-.96.53-1.78.77-2.5l3.65-11.05h6.68v18.41h-4.37V6.49c0-.77,0-1.73.19-2.98l-4.86,14.9h-4.28l-4.81-14.9c.14,1.25.14,2.26.14,2.98v11.92h-4.37V0h.02Z"/>
</svg>