<svg id="Layer_1" data-name="Layer 1" xmlns="http://www.w3.org/2000/svg" width="1348.69" height="192.68"><defs><style>.cls-1{stroke-width:0}</style></defs><path class="cls-1" d="M924.71.08v192.57h100v-40.4h156.04v.05h67.76l32.24-32.24V33.1L1247.73.08H924.71Zm256.04 96.17h-156.04V56.03h156.04v40.22ZM104.88 192.68H0L115.26 0h176.46l115.26 192.68H302.09l-18.7-31.26h-116.5l29.91-50h56.68l-35.92-60.05h-28.15l-84.53 141.31zM864.71 0v192.58h-100v-116l-69.45 116.1h-85.59l-69.69-116.5v116.4h-100V0h100v.07l.12-.07h24.22l88.15 147.34L740.61 0h124.1zM1307.94 0h16.73v3.84h-6.1V18.4H1314V3.84h-6.06V0Zm18.41 0h6.87l3.65 11.05c.24.72.48 1.54.72 2.5.29-.96.53-1.78.77-2.5L1342.01 0h6.68v18.41h-4.37V6.49c0-.77 0-1.73.19-2.98l-4.86 14.9h-4.28l-4.81-14.9c.14 1.25.14 2.26.14 2.98v11.92h-4.37V0h.02Z"/></svg>