<?xml version="1.0" encoding="UTF-8"?>
<svg id="Layer_1" data-name="Layer 1" xmlns="http://www.w3.org/2000/svg" xmlns:xlink="http://www.w3.org/1999/xlink" viewBox="0 0 135 24.62">
  <defs>
    <style>
      .cls-1 {
        fill: url(#linear-gradient);
      }

      .cls-1, .cls-2, .cls-3, .cls-4, .cls-5 {
        stroke-width: 0px;
      }

      .cls-3 {
        fill: none;
      }

      .cls-4 {
        fill: url(#linear-gradient-2);
      }

      .cls-5 {
        fill: url(#linear-gradient-3);
      }

      .cls-6 {
        clip-path: url(#clippath);
      }
    </style>
    <clipPath id="clippath">
      <rect class="cls-3" width="135" height="24.62"/>
    </clipPath>
    <linearGradient id="linear-gradient" x1="19.16" y1="2.2" x2="10.01" y2="24.99" gradientTransform="translate(0 25.89) scale(1 -1)" gradientUnits="userSpaceOnUse">
      <stop offset=".1" stop-color="#ff86dd"/>
      <stop offset="1" stop-color="#00ffd1"/>
    </linearGradient>
    <linearGradient id="linear-gradient-2" x1="0" y1="5" x2="20.06" y2="5" gradientTransform="translate(0 25.89) scale(1 -1)" gradientUnits="userSpaceOnUse">
      <stop offset=".1" stop-color="#9d62ff"/>
      <stop offset=".5" stop-color="#bc70f3"/>
      <stop offset=".9" stop-color="#ff86dd"/>
    </linearGradient>
    <linearGradient id="linear-gradient-3" x1=".9" y1="2.2" x2="10.05" y2="24.99" gradientTransform="translate(0 25.89) scale(1 -1)" gradientUnits="userSpaceOnUse">
      <stop offset=".1" stop-color="#9d62ff"/>
      <stop offset="1" stop-color="#00ffd1"/>
    </linearGradient>
  </defs>
  <g class="cls-6">
    <g>
      <path class="cls-2" d="M59.33,24.61c-.09,0-.17-.01-.26-.05-.36-.14-.53-.55-.39-.9L67.94.5c.11-.26.36-.44.64-.44s.54.17.65.44l9.26,23.16c.09.21.06.46-.07.65-.13.19-.35.31-.58.31h-13.89c-.38,0-.7-.31-.7-.7s.31-.7.7-.7h12.87l-8.24-20.59-8.62,21.54c-.11.27-.37.44-.65.44Z"/>
      <path class="cls-2" d="M23.27,24.61c-.38,0-.7-.31-.7-.7v-10.42c0-.38.31-.7.7-.7h7.53c3.13,0,5.67-2.54,5.67-5.67s-2.54-5.67-5.67-5.67h-7.53c-.38,0-.7-.31-.7-.7s.31-.7.7-.7h7.53c3.89,0,7.06,3.17,7.06,7.06s-3.17,7.06-7.06,7.06h-6.83v9.73c0,.38-.31.7-.7.7h0Z"/>
      <path class="cls-2" d="M55.19,24.61h-13.89c-.38,0-.7-.31-.7-.7V.76c0-.38.31-.7.7-.7s.7.31.7.7v22.46h13.2c.38,0,.7.31.7.7s-.31.7-.7.7h0Z"/>
      <path class="cls-2" d="M116.28,24.61h-13.89c-.38,0-.7-.31-.7-.7V.76c0-.38.31-.7.7-.7h13.89c.38,0,.7.31.7.7s-.31.7-.7.7h-13.2v21.76h13.2c.38,0,.7.31.7.7s-.31.7-.7.7h0Z"/>
      <path class="cls-2" d="M113.96,13.03h-8.68c-.38,0-.7-.31-.7-.7s.31-.7.7-.7h8.68c.38,0,.7.31.7.7s-.31.7-.7.7Z"/>
      <path class="cls-2" d="M134.3,1.45h-13.89c-.38,0-.7-.31-.7-.7s.31-.7.7-.7h13.89c.38,0,.7.31.7.7s-.31.7-.7.7Z"/>
      <path class="cls-2" d="M127.36,24.61c-.38,0-.7-.31-.7-.7V.76c0-.38.31-.7.7-.7s.7.31.7.7v23.16c0,.38-.31.7-.7.7h0Z"/>
      <path class="cls-2" d="M98.25,24.61c-.22,0-.44-.11-.57-.3l-14.89-21.4v21c0,.38-.31.7-.7.7s-.7-.31-.7-.7V.7c0-.3.2-.57.49-.66.29-.09.61.02.78.27l14.89,21.4V.7c0-.38.31-.7.7-.7s.7.31.7.7v23.22c0,.3-.2.57-.49.66-.07.02-.14.03-.21.03h0Z"/>
      <path class="cls-1" d="M9.12.91C9.12.41,9.53,0,10.03,0c.41,0,.76.28.87.65l9.08,22.7h0s0,.02,0,.02c.04.1.07.22.07.34,0,.5-.41.91-.91.91-.38,0-.71-.24-.85-.57L9.19,1.27h0c-.05-.11-.08-.23-.08-.36h0Z"/>
      <path class="cls-4" d="M19.15,24.62c-.32,0-.64-.17-.8-.48l-.18-.32c-1.65-3.03-4.69-4.84-8.14-4.84s-6.49,1.81-8.14,4.84l-.18.32c-.24.44-.8.61-1.24.37-.44-.24-.61-.8-.37-1.24l.18-.32c1.97-3.63,5.61-5.79,9.74-5.79s7.77,2.17,9.74,5.79l.18.32c.24.44.07,1-.37,1.24-.14.08-.29.11-.43.11Z"/>
      <path class="cls-5" d="M10.94.92c0-.5-.41-.92-.91-.92-.41,0-.76.28-.87.65L.07,23.35H.07s0,.02,0,.02c-.04.1-.07.22-.07.34,0,.5.41.91.91.91.38,0,.71-.24.85-.57L10.87,1.27h0c.05-.11.07-.23.07-.36Z"/>
    </g>
  </g>
</svg>