<svg width="145" height="32" fill="none" xmlns="http://www.w3.org/2000/svg"><path d="M145 2.433H0V0h145v2.433ZM7.768 11.222 0 31.64h4.201l1.46-4.123h8.113l1.473 4.123h4.464l-7.8-20.418H7.768Zm-.906 12.983 2.878-8.043 2.878 8.056-5.756-.013Zm26.645-.555 4.142 7.99h4.573l-4.627-8.829c2.588-1.07 3.766-3.045 3.766-5.38 0-4.283-2.62-6.214-9.49-6.214h-6.848V31.64h4.115v-7.99h4.369Zm-4.37-9.264h3.173c2.792 0 4.804.706 4.804 3.072 0 2.002-1.409 3.072-4.6 3.072h-3.376v-6.144ZM65.85 24.951h-3.911c-.662 2.76-2.72 3.857-5.176 3.857-3.023 0-5.439-2.587-5.439-7.461 0-4.732 2.416-7.267 5.58-7.267 2.302 0 4.255.928 5.035 3.773h3.91c-.674-4.252-3.987-6.987-8.896-6.987-6.069 0-9.866 4.03-9.866 10.48S50.652 32 56.834 32c5.027.022 8.485-2.934 9.033-7.05h-.018Zm23.658-13.73h-4.11v8.35h-9.35v-8.35h-4.111v20.42h4.11v-8.803h9.35v8.802h4.111V11.222Zm11.331 20.42V11.22h-4.115v20.42h4.115Zm9.608-20.42h-4.455l7.252 20.42h4.196l7.193-20.42h-4.374l-4.835 15.395-4.977-15.394Zm19.357 0v20.42h15.188v-3.254h-11.068v-5.549h10.47v-3.267h-10.47v-5.07h11.072v-3.28h-15.192Z" fill="#242424"/></svg>