<svg xmlns="http://www.w3.org/2000/svg" viewBox="0 0 135 30" width="135" height="30" fill="none" aria-hidden="true"><g clip-path="url(#a)" fill="Currentcolor"><path d="M4.46 24.38c.51.51.76 1.12.76 1.83s-.25 1.33-.76 1.85-1.12.78-1.83.78-1.36-.25-1.87-.76S0 26.96 0 26.25s.25-1.33.76-1.85 1.13-.78 1.87-.78c.74 0 1.32.25 1.83.76ZM47.79.76c.51.51.76 1.12.76 1.83s-.25 1.33-.76 1.85-1.12.78-1.83.78-1.36-.25-1.87-.76-.76-1.12-.76-1.83.25-1.33.76-1.85S45.22 0 45.96 0c.74 0 1.32.25 1.83.76ZM9.83 13.5l.17-2.67c.9-.74 1.87-1.34 2.9-1.81 1.03-.47 2.28-.7 3.76-.7.99 0 1.97.14 2.94.41.97.27 1.83.76 2.57 1.44.55.52.97 1.13 1.25 1.83.29.7.43 1.62.43 2.78 0 .25-.09 10.71.06 11.31.15.6.58.91 1.29.91.36 0 .51-.04.89-.15l.18 1.1c-.6.3-1.12.53-1.56.68-.44.15-.9.23-1.4.23-.71 0-1.36-.23-1.93-.68-.58-.45-.97-1.12-1.19-1.99-.85.88-1.74 1.58-2.67 2.1-.93.52-2.11.78-3.54.78-1.01 0-1.89-.17-2.61-.51-.73-.34-1.32-.79-1.77-1.34-.45-.55-.78-1.14-.99-1.77-.2-.63-.31-1.25-.31-1.85 0-1.04.19-1.91.56-2.59.37-.68.87-1.23 1.5-1.65.63-.41 1.3-.73 2.01-.95.71-.22 1.63-.45 2.76-.7l3.58-.78c.58-.14.97-.36 1.19-.66.22-.3.33-.74.33-1.32 0-1.37-.43-2.46-1.27-3.27-.85-.81-1.96-1.21-3.33-1.21-.8 0-1.47.1-2.04.31-.56.21-1.01.47-1.36.8-.34.33-.61.65-.8.97-.19.32-.36.62-.49.92v.04H9.83v-.01Zm10.32 4.77c-1.7.25-3.08.54-4.13.88-1.06.34-1.85.72-2.38 1.13-.54.41-.89.85-1.07 1.32-.18.47-.27 1.01-.27 1.65 0 1.21.36 2.08 1.09 2.63.72.55 1.53.82 2.4.82 1.1 0 2.1-.38 3-1.13.9-.75 1.36-1.68 1.36-2.77V18.27ZM40.22 12.39c-.33-.19-.64-.33-.95-.41-.3-.08-.7-.12-1.19-.12-1.04 0-1.9.25-2.57.76-.67.51-1.16 1.04-1.46 1.58-.14.33-.19.44-.28.76v14.09h-4.4V8.31h4.4l.02 3.91c.22-.52.05-.13.37-.64s.74-1.01 1.28-1.52c.53-.51 1.18-.93 1.95-1.25.77-.33 1.66-.49 2.67-.49.08 0 .66.04.74.04-.25.93-.34 3.39-.29 3.82l-.29.21ZM43.84 8.32h4.15l.04 20.73h-4.15l-.04-20.73ZM52.6 13.5l.16-2.67c.9-.74 1.87-1.34 2.9-1.81 1.03-.47 2.28-.7 3.76-.7.99 0 1.97.14 2.94.41.97.27 1.83.76 2.57 1.44.55.52.97 1.13 1.25 1.83.29.7.43 1.62.43 2.78 0 .25-.09 10.71.06 11.31.15.6.58.91 1.3.91.35 0 .7-.07 1.03-.21l.04 1.15c-.6.3-1.12.53-1.56.68-.44.15-.9.23-1.4.23-.71 0-1.36-.23-1.93-.68-.58-.45-.97-1.12-1.19-1.99-.85.88-1.74 1.58-2.67 2.1-.93.52-2.11.78-3.54.78-1.01 0-1.89-.17-2.61-.51-.73-.34-1.32-.79-1.77-1.34-.45-.55-.78-1.14-.99-1.77-.21-.63-.31-1.25-.31-1.85 0-1.04.19-1.91.56-2.59.37-.68.87-1.23 1.5-1.65.63-.41 1.3-.73 2.01-.95.71-.22 1.63-.45 2.76-.7l3.58-.78c.58-.14.97-.36 1.19-.66.22-.3.33-.74.33-1.32 0-1.37-.43-2.46-1.28-3.27-.85-.81-1.96-1.21-3.33-1.21-.79 0-1.47.1-2.04.31-.56.21-1.01.47-1.36.8-.34.33-.61.65-.8.97-.19.32-.36.62-.49.92v.04h-1.11.01Zm10.32 4.77c-1.7.25-3.08.54-4.13.88-1.06.34-1.85.72-2.38 1.13-.53.41-.89.85-1.07 1.32-.18.47-.27 1.01-.27 1.65 0 1.21.36 2.08 1.09 2.63.73.55 1.53.82 2.4.82 1.1 0 2.1-.38 3-1.13.9-.75 1.36-1.68 1.36-2.77V18.27ZM72.13 8.32h4.32s.03 3.05 0 3.59c.74-1.04 1.26-1.6 2.46-2.38 1.21-.78 2.7-1.17 4.48-1.17 1.56 0 2.84.24 3.82.72.99.48 1.71 1.1 2.16 1.85.45.76.75 1.51.88 2.26.14.76.21 1.53.21 2.32 0 .03-.07 12.9-.04 13.53h-4.28c.08-1.4.15-2.42.21-3.58.05-1.15.1-2.19.12-3.12.03-1.18.04-2.33.04-3.46 0-1.29-.04-2.36-.12-3.23-.08-.86-.28-1.67-.6-2.41-.32-.74-.79-1.32-1.44-1.75-.64-.42-1.51-.64-2.61-.64-2.25 0-3.88.95-4.89 2.84-.17.33-.3.83-.41 1.5v13.84h-4.36l.04-20.72.01.01ZM97.67 18.56c0 .96.07 1.89.21 2.8.14.9.44 1.77.9 2.59.44.71.92 1.3 1.46 1.75.53.45 1.06.78 1.58.99.52.21 1 .34 1.44.39.44.06.86.08 1.28.08.93 0 1.77-.12 2.53-.37.75-.25 1.39-.55 1.91-.9.52-.36.94-.71 1.27-1.05.33-.34.6-.68.82-1.01l.49.12c-.14.66-.23 1.37-.29 2.14v.33c-1.87 1.78-4.41 2.67-7.65 2.67s-5.59-.92-7.38-2.76c-1.8-1.84-2.69-4.35-2.69-7.53 0-1.45.2-2.81.6-4.07.4-1.26 1.01-2.37 1.83-3.33.82-.96 1.87-1.71 3.12-2.24 1.26-.53 2.7-.8 4.32-.8 1.97 0 3.58.34 4.83 1.03s2.16 1.56 2.75 2.63c.59 1.07.97 2.14 1.15 3.23.18 1.08.27 2.19.27 3.31H97.66h.01Zm10.65-1.73c0-.63-.04-1.28-.1-1.95-.07-.67-.26-1.38-.57-2.14-.32-.75-.82-1.4-1.5-1.93-.69-.54-1.6-.8-2.76-.8-1.73 0-3.06.6-3.99 1.81-.93 1.21-1.5 2.88-1.68 5.02h10.61l-.01-.01ZM119.63 18.56c0 .96.07 1.89.21 2.8.14.9.44 1.77.91 2.59.44.71.92 1.3 1.46 1.75.53.45 1.06.78 1.58.99.52.21 1 .34 1.44.39.44.06.86.08 1.28.08.93 0 1.77-.12 2.53-.37.75-.25 1.39-.55 1.91-.9.52-.36.94-.71 1.27-1.05.33-.34.6-.68.82-1.01l.49.12c-.14.66-.23 1.37-.29 2.14v.33c-1.87 1.78-4.41 2.67-7.65 2.67s-5.59-.92-7.38-2.76c-1.8-1.84-2.69-4.35-2.69-7.53 0-1.45.2-2.81.6-4.07.4-1.26 1.01-2.37 1.83-3.33.82-.96 1.86-1.71 3.12-2.24 1.26-.53 2.7-.8 4.32-.8 1.97 0 3.58.34 4.83 1.03s2.16 1.56 2.75 2.63c.59 1.07.97 2.14 1.15 3.23.18 1.08.27 2.19.27 3.31h-14.76Zm10.65-1.73c0-.63-.04-1.28-.1-1.95-.07-.67-.26-1.38-.57-2.14-.32-.75-.82-1.4-1.5-1.93-.69-.54-1.6-.8-2.76-.8-1.73 0-3.06.6-3.99 1.81-.93 1.21-1.5 2.88-1.68 5.02h10.61l-.01-.01Z"/></g><defs><clipPath id="a"><path fill="Currentcolor" d="M0 0h134.39v29.09H0z"/></clipPath></defs></svg>