<svg xmlns="http://www.w3.org/2000/svg" viewBox="0 0 88 17" width="88" height="17"><path d="M4.962 0h2.307c.259 0 .486.173.55.421l4.356 15.182a.574.574 0 0 1-.549.733h-1.532a.566.566 0 0 1-.55-.431l-.905-3.462a.579.579 0 0 0-.561-.431H4.11a.564.564 0 0 0-.55.431l-.906 3.462a.576.576 0 0 1-.55.431H.573a.575.575 0 0 1-.55-.733L4.412.421a.566.566 0 0 1 .55-.41m2.275 9.941a.57.57 0 0 0 .55-.722L6.525 4.432a21.782 21.782 0 0 1-.388-2.071h-.065a24.205 24.205 0 0 1-.388 2.071L4.423 9.23a.575.575 0 0 0 .55.722ZM15.281.571c0-.312.259-.571.571-.571h4.572c3.677 0 5.079 1.93 5.079 4.766 0 1.898-.744 3.386-2.21 4.141a.595.595 0 0 0-.302.754l2.544 5.866a.574.574 0 0 1-.528.798h-1.693a.573.573 0 0 1-.528-.356l-2.534-6.027a.573.573 0 0 0-.528-.356h-1.208a.576.576 0 0 0-.572.571v5.586a.575.575 0 0 1-.571.571h-1.542a.576.576 0 0 1-.572-.571V.561Zm4.852 7.128c1.79 0 2.502-1.122 2.502-2.944 0-1.822-.69-2.782-2.534-2.782h-1.564a.576.576 0 0 0-.571.572v4.582c0 .313.259.572.571.572h1.585ZM29.128.571c0-.312.258-.571.571-.571h4.572c3.677 0 5.078 1.93 5.078 4.766 0 1.898-.744 3.386-2.21 4.141a.596.596 0 0 0-.302.754l2.545 5.866a.574.574 0 0 1-.529.798h-1.692a.574.574 0 0 1-.529-.356l-2.534-6.027a.573.573 0 0 0-.528-.356h-1.208a.575.575 0 0 0-.571.571v5.586a.576.576 0 0 1-.572.571h-1.542a.575.575 0 0 1-.571-.571V.561Zm4.852 7.128c1.79 0 2.501-1.122 2.501-2.944 0-1.822-.69-2.782-2.534-2.782h-1.563a.576.576 0 0 0-.572.572v4.582c0 .313.259.572.572.572h1.585ZM65.442 0h1.628c.27 0 .497.183.561.442l2.61 10.988c.226.949.345 1.606.431 2.275h.097c.086-.669.205-1.337.431-2.275L73.788.442A.577.577 0 0 1 74.349 0h1.65a.57.57 0 0 1 .55.722L72.44 15.905a.566.566 0 0 1-.55.42h-2.339a.566.566 0 0 1-.55-.42L64.892.722a.57.57 0 0 1 .55-.722ZM87.989 14.762v.992a.575.575 0 0 1-.571.571h-7.753a.576.576 0 0 1-.572-.571V.571c0-.312.259-.571.572-.571h7.591c.313 0 .572.259.572.571v.993a.576.576 0 0 1-.572.571h-4.895a.576.576 0 0 0-.572.571v3.591c0 .313.259.572.572.572h4.528c.313 0 .572.258.572.571v.992a.576.576 0 0 1-.572.572h-4.528a.575.575 0 0 0-.572.571v4.022c0 .313.259.571.572.571h5.067c.313 0 .572.259.572.572M58.445 3.968l-.917.819a.341.341 0 0 0-.021.485l3.051 3.397a.332.332 0 0 1 0 .453l-3.051 3.396a.343.343 0 0 0 .021.486l.917.819c.14.129.355.119.485-.021l4.205-4.68a.332.332 0 0 0 0-.453l-4.205-4.68a.341.341 0 0 0-.485-.021ZM46.821 4l-4.206 4.68a.334.334 0 0 0 0 .453l4.206 4.669c.129.14.345.15.485.021l.916-.819a.344.344 0 0 0 .022-.486l-3.052-3.396a.334.334 0 0 1 0-.453l3.052-3.397a.342.342 0 0 0-.022-.485l-.916-.819a.341.341 0 0 0-.485.021"/><path d="M44.179 7.828h16.692c.313 0 .571.259.571.572v.992a.574.574 0 0 1-.571.571H44.179"/></svg>