<svg width="591.1" height="193" viewBox="77.3 42.3 591.1 193" xmlns="http://www.w3.org/2000/svg" data-type="shape"><path d="M77.3 135.1c0-13.9 10.9-20.5 27.8-22.4l27.8-3.2v-2.8c0-14-7.8-20.5-21.9-20.5-13.7 0-23.6 6.5-24.1 16.7h-8.7C78.7 87.9 92 78 111.4 78c19.5 0 30.4 9.6 30.4 30.1v46.4h-8.4l-.6-16.1c-4.6 10.5-17.1 17.6-31 17.6-14.1-.1-24.5-8-24.5-20.9zm55.5-14.7v-3.5l-26.3 3.2c-15.1 1.9-19.8 7.4-19.8 14.6 0 8.3 6.5 13.1 17 13.1 19.2 0 29.1-16.5 29.1-27.4zM184.8 133.2V87.4h-19.6v-8h19.6V52.6h9v26.9h22.9v8h-22.9v46.2c0 11.1 5.8 14 15.2 14 2.5 0 4.4-.1 6.2-.3v7.1c-3.1.6-7.4.9-10 .9-20.4 0-20.4-15.6-20.4-22.2zM354 104.9v49.6h-9v-49.6c0-13-6.9-18.6-17.4-18.6-14.3 0-21.4 10-21.4 26.3v41.9h-8.9v-46.8c0-14.6-6.3-21.4-17.6-21.4-13.7 0-21.1 9.7-21.1 24.7v43.6h-9v-75h7.8l.9 11.4c4.1-8 12.4-12.8 22.6-12.8 11.4 0 20.1 5.8 22.9 16.1 3.1-9.7 12.7-16.1 25-16.1 16-.2 25.2 9.5 25.2 26.7zM390.8 135.1c0-13.9 10.9-20.5 27.8-22.4l27.8-3.2v-2.8c0-14-7.8-20.5-21.9-20.5-13.7 0-23.6 6.5-24.1 16.7h-8.7c.6-14.9 13.9-24.8 33.2-24.8 19.5 0 30.4 9.6 30.4 30.1v46.4h-8.4l-.6-16.1c-4.6 10.5-17.1 17.6-31 17.6-14.1-.2-24.5-8.1-24.5-21zm55.5-14.7v-3.5l-26.3 3.2c-15.1 1.9-19.8 7.4-19.8 14.6 0 8.3 6.5 13.1 17 13.1 19.2 0 29.1-16.5 29.1-27.4zM492.4 147.8c0-4.1 3.2-7.4 7.7-7.4 4.3 0 7.7 3.2 7.7 7.4 0 4.1-3.4 7.5-7.7 7.5-4.5.1-7.7-3.3-7.7-7.5zM541.4 49.5c0-4.1 3.5-7.2 8-7.2 4.1 0 7.7 3.1 7.7 7.2 0 4.3-3.5 7.4-7.7 7.4-4.4 0-8-3.1-8-7.4zm3.4 30h9v75h-9v-75zM628.7 78c22.4 0 39.7 15.7 39.7 39 0 23.5-17.3 39-39.7 39-22.6 0-39.7-15.5-39.7-39 0-23.4 17.2-39 39.7-39zm.2 69.7c18 0 30.1-12.3 30.1-30.7 0-18.3-12.1-30.7-30.3-30.7-18 0-30.3 12.3-30.3 30.7.1 18.4 12.2 30.7 30.5 30.7zM100.7 216c0 6.7-4.3 11.1-10.7 11.1-3.7 0-6.8-1.4-8.2-3.7l-.3 3.3h-3.6v-30.9H82v13c1.5-2.3 4.6-3.7 8.2-3.7 6.3-.1 10.5 4.3 10.5 10.9zm-4.1 0c0-4.5-2.7-7.5-7.2-7.5-4.2 0-7.4 2.7-7.4 7.3v.5c0 4.7 3.1 7.2 7.4 7.2 4.3.1 7.2-2.7 7.2-7.5zM124.7 205.4v21.3c0 5.3-3.9 8.6-9.8 8.6-5.7 0-9.1-2.8-9.4-7.3h4c.3 2.6 2.3 4 5.4 4 3.7 0 5.8-2.1 5.8-5.2v-5.4c-1.5 2.5-4.1 3.6-7.1 3.6-5.1 0-7.9-3.3-7.9-8.3v-11.3h4.1v10.8c0 3.8 2.1 5.4 4.9 5.4 4 0 5.9-2.9 5.9-6.1v-10.1h4.1zM159.3 219.7h-13.9l-2.6 6.9h-4.7l11.6-29.9h5.1l11.8 29.9h-4.8l-2.5-6.9zm-1.3-3.4-5.7-15.3-5.7 15.3H158zM188.2 205.4l-8.4 21.3h-4.7l-8.4-21.3h4.4l6.3 17.5 6.3-17.5h4.5zM211.4 220.4c-1.2 4.3-5.2 6.7-10.2 6.7-6.8 0-11.2-4.4-11.2-11s4.4-11 10.9-11c6.1 0 10.2 3.9 10.2 9.6 0 .6-.1 1.1-.2 1.8h-16.7v.5c0 4.4 2.8 6.9 7 6.9 3 0 5.2-1.3 6.1-3.3h4.1zm-17.1-7h12.6c0-3-2.6-5.1-6.1-5.1-3.4 0-5.9 2.1-6.5 5.1zM228 205.2v3.8c-.2 0-.8-.1-1.3-.1-4.2 0-5.9 3.2-5.9 7v10.8h-4.1v-21.3h3.5l.5 3.5c1-2.6 3.2-3.9 5.9-3.9.5.1 1.1.2 1.4.2zM251.1 205.4v21.3c0 5.3-3.9 8.6-9.8 8.6-5.7 0-9.1-2.8-9.4-7.3h4c.3 2.6 2.3 4 5.4 4 3.7 0 5.8-2.1 5.8-5.2v-5.4c-1.5 2.5-4.1 3.6-7.1 3.6-5.1 0-7.9-3.3-7.9-8.3v-11.3h4.1v10.8c0 3.8 2.1 5.4 4.9 5.4 4 0 5.9-2.9 5.9-6.1v-10.1h4.1zM267.3 196.8h10.5c9.9 0 15.3 6 15.3 14.9 0 9.6-6 15-15.3 15h-10.5v-29.9zm10.9 26c6.6 0 10.4-4.5 10.4-11.1 0-7-4.2-11.1-10.4-11.1h-6.7v22.2h6.7zM318.6 220.4c-1.2 4.3-5.2 6.7-10.2 6.7-6.8 0-11.2-4.4-11.2-11s4.4-11 10.9-11c6.1 0 10.2 3.9 10.2 9.6 0 .6-.1 1.1-.2 1.8h-16.7v.5c0 4.4 2.8 6.9 7 6.9 3 0 5.2-1.3 6.1-3.3h4.1zm-17-7h12.6c0-3-2.6-5.1-6.1-5.1-3.4 0-5.9 2.1-6.5 5.1zM323.9 205.4h3.6l.5 3.5c1.3-2.5 4-3.9 7.2-3.9 5.1 0 7.9 3.1 7.9 8.3v13.3H339v-12.9c0-3.6-2-5.3-4.9-5.3-3.6 0-6.1 2.6-6.1 6.8v11.4h-4.1v-21.2zM349.7 205.4h3.6l.5 3.5c1.3-2.5 4-3.9 7.2-3.9 5.1 0 7.9 3.1 7.9 8.3v13.3h-4.1v-12.9c0-3.6-2-5.3-4.9-5.3-3.6 0-6.1 2.6-6.1 6.8v11.4h-4.1v-21.2zM374.4 197.8c0-1.5 1.2-2.6 3-2.6s3 1.2 3 2.6c0 1.5-1.2 2.7-3 2.7s-3-1.2-3-2.7zm1 7.6h4.1v21.3h-4.1v-21.3zM385 220.3h3.9c.2 2.3 2.2 3.6 5.1 3.6 3 0 4.6-1.3 4.6-3.2 0-1.7-1.2-2.6-3-2.9l-4-.7c-2.9-.5-6.3-1.8-6.3-5.8 0-3.9 3.3-6.4 8.3-6.4 4.9 0 8.4 2.4 8.5 6.5h-3.8c-.1-2.1-2-3.4-4.7-3.4-2.6 0-4.3 1.2-4.3 3 0 1.9 1.9 2.4 3.2 2.6l4.4.7c4 .7 5.7 3 5.7 5.9 0 4-3.5 6.7-8.6 6.7-5.3.2-8.8-2.5-9-6.6zM418.4 205c6.6 0 11.5 4.4 11.5 11s-4.9 11-11.5 11c-6.7 0-11.5-4.4-11.5-11s4.8-11 11.5-11zm0 18.5c4.4 0 7.3-3 7.3-7.5s-2.9-7.5-7.2-7.5c-4.4 0-7.3 3-7.3 7.5-.1 4.6 2.8 7.5 7.2 7.5zM435.2 205.4h3.6l.5 3.5c1.3-2.5 4-3.9 7.2-3.9 5.1 0 7.9 3.1 7.9 8.3v13.3h-4.1v-12.9c0-3.6-2-5.3-4.9-5.3-3.6 0-6.1 2.6-6.1 6.8v11.4h-4.1v-21.2z"/></svg>