<svg xmlns="http://www.w3.org/2000/svg" width="472.25" height="117.81" viewBox="0 0 472.25 117.81"><defs><linearGradient id="a" x1="382.21" y1="27.77" x2="444.49" y2="90.05" gradientUnits="userSpaceOnUse"><stop offset="0" stop-color="#f99d1c"/><stop offset="1" stop-color="#f26522"/></linearGradient><linearGradient id="b" x1="541.66" y1="275.39" x2="603.92" y2="337.65" gradientUnits="userSpaceOnUse"><stop offset="0" stop-color="#df7f1b"/><stop offset="1" stop-color="#d14e1d"/></linearGradient><linearGradient id="d" x1="532.09" y1="263.94" x2="615.4" y2="347.24" gradientUnits="userSpaceOnUse"><stop offset="0" stop-color="#dcddde"/><stop offset=".2" stop-color="#d8d9da"/><stop offset=".39" stop-color="#cdcecf"/><stop offset=".57" stop-color="#babbbd"/><stop offset=".75" stop-color="#a0a1a3"/><stop offset=".92" stop-color="#7e7f82"/><stop offset="1" stop-color="#6d6e71"/></linearGradient><radialGradient id="c" cx="531.88" cy="266.59" r="114.13" gradientUnits="userSpaceOnUse"><stop offset="0" stop-color="#fff"/><stop offset=".35" stop-color="#fbfbfc"/><stop offset=".67" stop-color="#f0f1f1"/><stop offset=".98" stop-color="#dddedf"/><stop offset="1" stop-color="#dcddde"/></radialGradient><style>.a{fill:#000}</style></defs><circle class="a" cx="413.35" cy="58.91" r="58.12"/><circle cx="413.35" cy="58.91" r="44.04" style="fill:url(#a)"/><path d="M532.93 303.52h-3.17a44.05 44.05 0 0 1 28.44-39.14l-.59 3.26a44 44 0 0 0-24.68 35.88Zm42.5-34-1.44-8h-.49l-7.59 42h3.36Zm-27 49.07.3-1.68h-17.55a44 44 0 0 0 13.57 21.81l.2-1.09a44 44 0 0 1-10.71-19h14.15Zm35.9 0-.3-1.68H563.5l-5.4 29.84c1 .39 2.1.74 3.17 1.06l5.28-29.22h17.75Zm5-54.22 13.44 74.35c.81-.71 1.59-1.46 2.35-2.23l-12.8-70.85q-1.51-.64-3.03-1.26Z" transform="translate(-160.4 -246.68)" style="fill:url(#b)"/><path d="M573.74 248.35A57.24 57.24 0 1 0 631 305.59a57.24 57.24 0 0 0-57.26-57.24Zm-.24 13.2h.5l7.58 42h-15.66Zm-28.75 77.17a44 44 0 0 1-13.57-21.81h17.52Zm-15-35.21a44.05 44.05 0 0 1 28.44-39.14l-7.08 39.14h-21.35Zm44 46.11a43.9 43.9 0 0 1-15.64-2.87l5.4-29.84H584l5.39 29.84a43.9 43.9 0 0 1-15.65 2.88Zm29-10.9-13.44-74.35a44 44 0 0 1 13.42 74.35Z" transform="translate(-160.4 -246.68)" style="fill:url(#c)"/><path d="M573.74 246.68a58.91 58.91 0 1 0 58.91 58.91 58.91 58.91 0 0 0-58.91-58.91Zm0 116.14A57.24 57.24 0 1 1 631 305.59a57.23 57.23 0 0 1-57.26 57.24Z" transform="translate(-160.4 -246.68)" style="fill:url(#d)"/><path class="a" d="M370.78 70.24h-.8a44.82 44.82 0 0 0 14.22 22.71l.16-.89a44 44 0 0 1-13.58-21.82ZM413.34 102.95a43.94 43.94 0 0 1-15.64-2.86l-.14.78a45 45 0 0 0 31.57 0l-.14-.78a44 44 0 0 1-15.65 2.86ZM458.16 58.91a44.84 44.84 0 0 0-29.43-42.1l.16.89a44 44 0 0 1 13.44 74.36l.16.89a44.71 44.71 0 0 0 15.67-34.04ZM405.39 57.58h15.92l-.14-.75h-15.65l-.13.75zM397.8 17.7l.16-.89a44.84 44.84 0 0 0-29.38 40v.74h22l.14-.74h-21.36A44.06 44.06 0 0 1 397.8 17.7ZM460.6 101.7h.32a1.07 1.07 0 0 0 1.24 1 1 1 0 0 0 1.08-.9c0-.59-.28-.79-1.12-.92s-1.35-.44-1.35-1.1a1.16 1.16 0 0 1 1.32-1.1 1.2 1.2 0 0 1 1.35 1.05h-.3a.92.92 0 0 0-1-.78.84.84 0 0 0-1 .8c0 .46.23.7 1.1.83s1.39.4 1.39 1.19a1.26 1.26 0 0 1-1.4 1.19 1.38 1.38 0 0 1-1.63-1.26ZM464.6 98.71h.47l1.53 3.61 1.48-3.6h.46v4.19h-.32v-3.79l-1.62 3.78h-.1l-1.58-3.78v3.78h-.32v-4.19ZM24.84 35.17l17.87 52.36h-9.48l-3.36-10.74H12.34L8.9 87.53H0l17.79-52.36h7Zm-3.7 14.15-6.21 19.39h12.33l-6-19.39h-.17ZM54.6 46.67v25.26c0 3.36.34 5.12 1.34 6.38s2.94 1.93 5.45 1.93 4.36-.59 5.45-1.93 1.34-3 1.34-6.38V46.67h8.56v26.52c0 9.82-5.54 14.85-15.36 14.85s-15.36-5-15.36-14.85V46.67h8.58ZM96.79 37.02v9.65h8.65v6.71h-8.65v19.14c0 3.19.34 4.87 1.43 6.12.93 1.18 2.6 1.68 5.12 1.68a12.4 12.4 0 0 0 1.93-.08v7.64a21.59 21.59 0 0 1-3.27.17c-4.87 0-8.31-1.34-10.41-3.78-2.43-2.69-3.36-6-3.36-11.75V53.38h-6.29v-6.71h6.29v-9.65h8.56ZM110.48 61.1c0-9.9 5.54-14.94 15.36-14.94s15.36 5 15.36 14.94v12.09c0 9.82-5.54 14.85-15.36 14.85s-15.36-5-15.36-14.85V61.1Zm8.56 10.83c0 3.36.34 5.12 1.34 6.38s2.94 1.93 5.45 1.93 4.36-.59 5.46-1.93 1.34-3 1.34-6.38v-9.61c0-3.27-.34-5.12-1.34-6.38s-2.94-1.93-5.46-1.93-4.36.59-5.45 1.93-1.34 3.11-1.34 6.38v9.65ZM160.24 37.02v9.65h8.65v6.71h-8.65v19.14c0 3.19.34 4.87 1.43 6.12.92 1.18 2.6 1.68 5.12 1.68a12.43 12.43 0 0 0 1.93-.08v7.64a21.61 21.61 0 0 1-3.27.17c-4.87 0-8.31-1.34-10.41-3.78-2.43-2.69-3.36-6-3.36-11.75V53.38h-6.29v-6.71h6.29v-9.65h8.56ZM184.24 46.67l.17 4.7a10.68 10.68 0 0 1 9.57-5.2 26.12 26.12 0 0 1 3 .17v8.14a17.3 17.3 0 0 0-2.18-.08c-3.44 0-6.12.76-7.8 2.43-1.51 1.6-2.18 3.7-2.18 7.22v23.5h-8.56V46.67h8ZM232.41 46.67v40.87h-7.47l-.17-4.22a11.49 11.49 0 0 1-9.74 4.7 13.61 13.61 0 0 1-9.73-3.52c-2.35-2.35-3.61-5.62-3.61-11.16v-12.5c0-5.54 1.26-8.81 3.61-11.16a13.6 13.6 0 0 1 9.73-3.52c4.11 0 7.55 1.51 9.57 4.28l.25-3.78h7.55Zm-22.16 25c0 3.69.33 5.29 1.6 6.71a6.26 6.26 0 0 0 4.78 1.76 7.47 7.47 0 0 0 5-1.76c1.68-1.6 2.18-3.78 2.18-7.22v-8.22c0-3.36-.5-5.71-2.18-7.3a7 7 0 0 0-5-1.68c-2.27 0-3.69.5-4.78 1.68-1.26 1.34-1.6 3.1-1.6 6.8v9.23ZM271.35 31.48v56.06h-7.47l-.34-3.94c-1.76 2.77-5.12 4.45-9.4 4.45-3.86 0-7.55-1.18-9.9-3.52s-3.64-5.64-3.64-11.21v-12.5c0-5.54 1.26-8.81 3.61-11.16s6.12-3.52 10-3.52a12.22 12.22 0 0 1 8.56 3.19V31.48h8.56Zm-22.16 40.2c0 3.69.34 5.29 1.6 6.71a6.26 6.26 0 0 0 4.79 1.76 7.47 7.47 0 0 0 5-1.76c1.68-1.6 2.18-3.78 2.18-7.22v-8.22c0-3.36-.5-5.71-2.18-7.3a7 7 0 0 0-5-1.68c-2.27 0-3.7.5-4.79 1.68-1.26 1.34-1.6 3.1-1.6 6.8v9.23ZM279.6 61.1c0-9.9 5.29-14.94 15.11-14.94s15.1 5 15.1 14.94v6.88a2.05 2.05 0 0 1-2.35 2.26h-19.3v1.93c0 4.87.67 8.22 6.55 8.22 4.53 0 6.46-2.18 6.46-6.21h8.43v.14c0 9-5.62 13.68-14.94 13.68-9.82 0-15.11-5-15.11-14.85V61.1Zm8.56 2.35h13.09v-1.34c0-5-.75-8.31-6.55-8.31-5.37 0-6.55 2.85-6.55 8.31v1.34ZM325.97 46.67l.17 4.7a10.68 10.68 0 0 1 9.57-5.2 26.19 26.19 0 0 1 3 .17v8.14a17.35 17.35 0 0 0-2.18-.08c-3.44 0-6.12.76-7.8 2.43-1.51 1.6-2.18 3.7-2.18 7.22v23.5H318V46.67h8Z"/></svg>