<svg viewBox="0 0 171 20" width="171" height="20" fill="none" xmlns="http://www.w3.org/2000/svg"><path d="M50.806 0c-2.88 0-5.22 1.442-7.318 3-1.115.827-4.794 3.434-5.107 3.656L34.3 9.574c-1.958 1.415-3.65 2.67-4.553 3.43-2.052 1.725-2.893 1.905-4.323 1.905-1.726 0-3.772-1.19-3.064-4.322.784-3.467 5.511-7.361 8.718-4.55l4.092-2.921C33.983 1.709 32.06 0 28.797 0c-5.065 0-9.968 4.135-11.162 9.413C16.328 15.193 19.987 20 25.425 20c2.816 0 4.674-.764 7.364-3.027.898-.755 2.84-2.18 4.995-3.73l4.083-2.913c.03-.02 3.175-2.245 4.43-3.176 1.716-1.274 3.068-2.063 4.51-2.063 1.725 0 3.772 1.19 3.063 4.322-.673 2.98-3.62 5.496-6.435 5.496-1.025 0-1.631-.235-2.386-1.022l-4.059 2.897C42.346 18.41 44.19 20 47.435 20c5.065 0 9.968-4.135 11.162-9.413C59.905 4.807 56.245 0 50.807 0h-.001Zm27.707.553-7.151 13.01-2.86-13.01h-5.16l-3.167 18.792h4.367l1.89-11.323 2.145 11.323h3.525l5.926-11.27-1.916 11.27h4.368L83.647.553h-5.134Zm-67.275 0h-8.07L0 19.345h8.352c3.78 0 6.309-2.008 6.82-5.113.357-2.141-.69-4.069-2.682-4.523 1.84-.536 3.371-2.008 3.754-4.283.511-2.972-1.353-4.872-5.005-4.872Zm-.408 13.063c-.23 1.366-1.15 2.088-2.631 2.088H4.98l.715-4.23h3.167c1.456 0 2.222.804 1.967 2.142Zm.843-7.415c-.204 1.285-1.124 1.98-2.58 1.98H6.258l.664-4.014h2.86c1.43 0 2.095.723 1.89 2.034Zm134.116 5.996L140.451.553h-4.367l-3.167 18.791h4.367l1.967-11.59 5.338 11.59h4.367L152.124.553h-4.368l-1.967 11.644ZM122.572.553l-9.654 18.791h4.571l1.635-3.32h6.691l.511 3.32h4.623L127.629.553h-5.057Zm-1.736 11.992 3.422-6.96 1.047 6.96h-4.469Zm-7.305-6.076c.562-3.266-1.201-5.916-5.594-5.916h-7.33l-3.168 18.791h4.368l1.2-7.093h1.047l2.529 7.093h4.929l-2.886-7.441c2.912-.857 4.521-3.079 4.904-5.434h.001Zm-4.47.187c-.255 1.473-1.175 2.356-2.81 2.356h-2.707l.792-4.712h2.707c1.634 0 2.273.937 2.018 2.356Zm51.85 5.434h5.517c-.996 2.115-2.708 3.346-4.904 3.346-3.141 0-4.674-2.034-4.087-5.514.537-3.266 2.733-5.353 5.569-5.353 1.609 0 2.733.669 3.192 1.927H171c-.255-3.854-3.014-6.157-7.305-6.157-5.363 0-9.757 3.962-10.701 9.584-.946 5.62 2.145 9.556 7.509 9.556 4.725 0 8.25-3.24 9.731-6.478l.715-4.256h-9.501l-.537 3.346v-.001ZM97.159 4.167l.613-3.614H86.79l-3.168 18.791h10.983l.613-3.614h-6.615l.715-4.202h5.85l.587-3.453h-5.849l.638-3.908h6.615Zm-65 3.04 4.087-2.919-.155-.17-4.087 2.92.154.168Zm-.273-.296 4.089-2.918-.172-.188-4.088 2.921.17.185Zm-.273-.296 4.091-2.918-.188-.206-4.09 2.922.187.202Zm.818.887 4.087-2.918-.14-.151-4.085 2.919.138.15Zm.273.295 4.085-2.917-.123-.134-4.084 2.919.121.132h.001Zm1.09 1.182 4.08-2.915-.056-.062-4.08 2.915.057.062Zm-.272-.295 4.081-2.917-.072-.08-4.082 2.917.074.08Zm.546.59 4.078-2.914-.04-.044-4.079 2.915.042.044h-.001Zm-1.09-1.181 4.083-2.917-.106-.116-4.084 2.918.106.114Zm.272.295 4.082-2.916-.09-.098-4.082 2.917.09.097ZM31.34 6.32l4.093-2.92-.205-.223-4.09 2.923.202.22Zm13.156 6.966-4.048 2.903.19.205 4.045-2.905-.187-.204ZM43.41 12.1l-4.052 2.908.124.134 4.052-2.907-.125-.135h.001Zm-1.359-1.482-4.055 2.914.042.046 4.06-2.91-.046-.05Zm1.63 1.778-4.05 2.907.14.151 4.05-2.906-.14-.152Zm.544.593-4.05 2.904.173.187 4.047-2.905-.17-.186Zm.543.593-4.048 2.902.205.222 4.044-2.904-.202-.22Zm-.815-.89-4.05 2.906.156.17 4.05-2.906-.156-.17Zm-1.359-1.48-4.054 2.91.075.082 4.057-2.908-.078-.084Zm-.271-.297-4.055 2.913.058.063 4.059-2.909-.061-.067h-.001Zm.543.593-4.053 2.91.091.099 4.055-2.908-.093-.101Zm.272.296-4.053 2.909.108.116 4.053-2.907-.108-.118Z" fill="#000"/></svg>