<svg id="Layer_2" xmlns="http://www.w3.org/2000/svg" viewBox="0 0 2357.49 556.26" width="236" height="56"><defs><style>.cls-1{fill:#003e42}</style></defs><g id="Capa_1"><path class="cls-1" d="M559.59 302.39c-14.46-8.35-32.96-3.39-41.31 11.07L493.72 356l-6.39 11.07c-21.64 37.46-69.71 50.34-107.18 28.71l-27.3-15.76-24.73-14.28h-.01l-1.55-.9c-14.47-8.35-32.96-3.39-41.31 11.07-8.35 14.47-3.4 32.96 11.07 41.32l40 23.09 56.75 32.76c14 8.08 29.3 11.92 44.41 11.92 30.82 0 60.85-15.99 77.34-44.55l24.89-43.12s.01-.02.02-.03l28.31-49.03 1.73-3 .9-1.57c8.35-14.47 3.4-32.96-11.07-41.31Z"/><path class="cls-1" d="m434.31 97.38 30.04 52.04c21.63 37.47 8.75 85.54-28.71 107.18l-15.69 9.06-37.92 21.89c-14.47 8.35-19.42 26.85-11.07 41.31 5.6 9.7 15.77 15.13 26.22 15.13 5.13 0 10.33-1.31 15.09-4.06l1.54-.89s.02 0 .02-.01l48.4-27.95 3.63-2.1L509 284.07c20.62-11.9 35.37-31.12 41.53-54.12s3-47.01-8.9-67.63l-54.96-95.19s0-.01-.01-.02l-.89-1.55c-8.35-14.47-26.85-19.42-41.31-11.07-14.47 8.35-19.42 26.85-11.07 41.31l.9 1.56Z"/><path class="cls-1" d="M202.5 60.49h61.9c43.26 0 78.46 35.2 78.46 78.46v61.9c0 16.7 13.54 30.24 30.25 30.24s30.24-13.54 30.24-30.25V89.12C403.34 39.98 363.36 0 314.22 0H202.5c-16.7 0-30.24 13.54-30.24 30.24s13.54 30.24 30.24 30.24Z"/><path class="cls-1" d="m56.44 242.8 30.95-53.6c21.63-37.47 69.71-50.35 107.18-28.72l53.6 30.95c14.47 8.35 32.96 3.4 41.31-11.07 8.35-14.47 3.4-32.96-11.07-41.31l-53.6-30.95h-.01l-43.14-24.9c-42.56-24.57-97.18-9.94-121.75 32.62L35 158.96v.01l-8.06 13.96-21.98 38.08v.02l-.9 1.55c-8.35 14.47-3.4 32.96 11.07 41.31 4.76 2.75 9.96 4.06 15.09 4.06 10.45 0 20.62-5.42 26.22-15.13Z"/><path class="cls-1" d="M110.36 406.84c-21.63-37.47-8.75-85.55 28.72-107.18l53.6-30.95c14.47-8.35 19.42-26.85 11.07-41.31s-26.85-19.42-41.31-11.07l-1.56.9-95.18 54.96c-20.62 11.9-35.37 31.12-41.53 54.12-6.16 23-3 47.01 8.9 67.63l54.96 95.19s0 .01.01.02l.89 1.54c5.6 9.7 15.77 15.13 26.22 15.13 5.13 0 10.33-1.31 15.09-4.06 14.47-8.35 19.42-26.85 11.07-41.31l-30.95-53.6Z"/><path class="cls-1" d="M372.22 495.78h-61.9c-43.26 0-78.46-35.2-78.46-78.46v-61.89c0-16.7-13.54-30.25-30.25-30.24-16.7 0-30.24 13.54-30.24 30.24v111.72c0 49.15 39.98 89.13 89.13 89.13h111.72c16.7 0 30.24-13.54 30.24-30.24s-13.54-30.24-30.24-30.24ZM697.91 364.13V139.11c0-25.1 13.41-38.95 38.51-38.95h71.83c64.91 0 91.74 33.32 91.74 74.43 0 30.29-17.74 53.66-44.14 62.75 35.05 11.25 57.12 38.51 57.12 76.16 0 48.9-31.59 89.58-103.42 89.58h-73.13c-25.1 0-38.51-13.85-38.51-38.95Zm100.4-140.64c25.97 0 40.24-14.28 40.24-38.51s-13.85-36.78-42.84-36.78h-32.46v75.3h35.05Zm-5.19 131.12c36.35 0 51.93-14.71 51.93-45.44 0-28.56-15.58-42.84-48.47-42.84h-33.32v88.28h29.86ZM1373.43 274.55c0-72.27 32.89-126.79 96.5-126.79 58.85 0 88.28 41.98 88.28 101.26 0 29.43-9.52 38.51-35.05 38.51h-88.28c3.46 45.44 20.77 69.67 50.2 69.67 27.26 0 34.62-19.04 52.36-19.04 12.12 0 19.91 8.22 19.91 20.77 0 26.4-32.46 49.33-75.73 49.33-67.51 0-108.18-53.66-108.18-133.72Zm131.55-22.5c0-37.22-10.39-55.82-33.75-55.82-25.53 0-35.92 21.21-37.22 55.82h70.97ZM1583.31 369.32V187.14c0-23.8 10.82-36.78 30.29-36.78s29.86 12.98 29.86 36.78v20.34c8.65-42.41 28.13-58.42 50.63-58.42 20.77 0 33.32 12.55 33.32 33.32 0 16.01-9.09 29.43-24.67 29.43-7.79 0-14.71-2.6-22.94-2.6-20.34 0-35.48 19.04-35.48 62.31v97.8c0 23.8-10.82 36.78-30.73 36.78s-30.29-12.98-30.29-36.78ZM1722.66 279.31c0-77.89 29.43-131.55 80.06-131.55 28.99 0 46.73 18.18 58.42 48.9v-9.52c0-23.8 10.82-36.78 30.73-36.78s30.73 12.98 30.73 36.78v182.18c0 23.8-10.82 36.78-30.73 36.78s-30.73-12.98-30.73-36.78v-16.44c-11.25 33.32-29.86 55.39-62.31 55.39-48.9 0-76.16-52.36-76.16-128.96Zm99.53 75.73c26.4 0 39.81-25.53 39.81-77.89s-12.55-74.86-38.95-74.86-38.51 24.67-38.51 76.16 12.55 76.59 37.65 76.59ZM1949.42 369.32V187.14c0-23.8 10.82-36.78 30.73-36.78s30.29 12.98 30.29 36.78v11.68c11.25-36.78 32.46-51.06 60.58-51.06 38.95 0 62.75 31.16 62.75 86.12v135.45c0 23.8-10.82 36.78-30.73 36.78s-30.73-12.98-30.73-36.78V243.4c0-28.99-9.09-41.97-29.43-41.97-18.18 0-32.46 12.98-32.46 48.9v119c0 23.8-10.39 36.78-30.29 36.78s-30.73-12.98-30.73-36.78ZM2166.22 444.62c0-13.42 7.79-23.37 22.07-23.37 17.74 0 25.53 17.74 55.39 17.74 33.75 0 52.79-19.48 52.79-68.37v-31.59c-12.55 38.51-29.86 55.39-59.29 55.39-50.63 0-80.06-48.46-80.06-122.03s30.73-124.63 80.92-124.63c32.46 0 47.17 16.45 58.42 52.36v-12.98c0-23.8 10.82-36.78 30.72-36.78s30.29 12.98 30.29 36.78v191.7c0 70.1-39.38 111.65-106.45 111.65-52.36 0-84.82-21.2-84.82-45.87Zm91.31-99.53c24.67 0 39.38-26.83 39.38-74s-13.85-70.54-38.51-70.54-38.51 24.24-38.51 71.84 12.55 72.7 37.65 72.7ZM1289.04 147.76c-28.99 0-49.76 16.88-59.29 51.5-7.79-33.32-26.83-51.5-55.39-51.5s-45.44 15.58-55.82 49.33v-9.95c0-23.8-10.82-36.78-30.29-36.78s-30.73 12.98-30.73 36.78v118.57c0 36.35-13.85 48.9-32.46 48.9-20.34 0-29.43-12.98-29.43-41.97V187.15c0-23.8-10.82-36.78-30.73-36.78s-30.73 12.98-30.73 36.78v135.01c0 54.96 23.8 86.12 62.75 86.12 28.13 0 49.33-13.85 60.58-50.63v11.68c0 23.8 10.82 36.78 30.73 36.78s30.29-12.98 30.29-36.78V250.76c0-32.89 10.38-50.63 30.29-50.63 18.17 0 25.96 12.98 25.96 40.24v128.95c0 23.8 10.39 36.78 29.43 36.78s28.99-12.98 28.99-36.78V245.56c.43-28.99 10.82-45.44 29.43-45.44s26.4 12.12 26.4 37.22v131.98c0 23.8 10.82 36.78 30.73 36.78s30.29-12.98 30.29-36.78V229.11c0-50.2-22.07-81.36-61.02-81.36Z"/></g></svg>