<svg width="133" height="36" fill="none" xmlns="http://www.w3.org/2000/svg"><g clip-path="url(#a)" fill="#5A31F4"><path class="svg-letter-1" d="M4.638 13.766c.496-.393.953-.809 1.46-1.147 3.438-2.296 8.02-1.626 10.821 1.585 2.186 2.511 2.846 5.5 2.546 8.732-.224 2.485-1.099 4.712-2.87 6.517-3.063 3.116-7.738 3.452-11.233.822-.235-.176-.468-.359-.75-.575l-.156.615a2.204 2.204 0 0 1-.806 1.271 2.184 2.184 0 0 1-1.429.453c-1.156-.033-1.977-.753-2.154-1.89a5.38 5.38 0 0 1-.064-.821V2.68C.003 1.203.578.355 1.75.071a2.18 2.18 0 0 1 2.366.877c.17.248.288.528.346.824.066.343.096.692.09 1.042.007 3.404 0 6.806.009 10.21-.002.238-.073.49.076.742Zm-.272 7.944a6.374 6.374 0 0 0 .491 2.71c.89 2.082 2.408 3.365 4.712 3.452 2.267.087 3.928-1 4.905-3.024 1.048-2.176 1.04-4.42-.054-6.57-1.607-3.162-5.732-3.875-8.212-1.46-1.344 1.315-1.88 2.964-1.84 4.892h-.002Z"/><path class="svg-letter-2" d="M77.705 17.444V6.183c0-.992.548-1.774 1.415-2.084.924-.33 1.994-.05 2.575.687.348.463.525 1.034.499 1.614v26.797c0 1.355-.803 2.287-1.99 2.389-1.371.119-2.214-.547-2.524-2.005-.065.018-.15.015-.192.055-4.13 4.021-10.715 2.688-13.488-2.426-2.284-4.216-1.543-10.361 1.704-13.539 3.097-3.034 7.85-3.301 11.421-.646.152.116.309.223.58.419Zm.162 8.084c-.023-1.126-.235-2.296-.84-3.365-.984-1.737-2.439-2.747-4.46-2.801-2.054-.055-3.622.86-4.622 2.63-1.312 2.321-1.336 4.746-.098 7.089.364.701.883 1.31 1.517 1.78a5.145 5.145 0 0 0 4.468.81 5.148 5.148 0 0 0 2.04-1.134c1.44-1.304 1.966-3.02 1.995-5.009Z"/><path class="svg-letter-3" d="M123.556 31.908c-4.862 0-8.687-3.386-9.616-8.486-.545-2.983-.161-5.792 1.625-8.28 3.533-4.93 10.505-5.126 14.633-.452a9.77 9.77 0 0 1 1.971 3.412c.527 1.583-.057 2.71-1.666 3.161-3.085.875-6.176 1.731-9.266 2.595-.599.168-1.198.348-1.797.488-.461.108-.533.273-.279.697 1.227 2.04 3.766 3.088 6.141 2.507 1.537-.377 2.899-1.044 3.931-2.293.239-.29.535-.528.871-.696.838-.421 1.711-.316 2.345.302.59.57.717 1.439.317 2.283a5.543 5.543 0 0 1-1.267 1.656 11.616 11.616 0 0 1-7.943 3.106Zm-.3-16.479c-3.13.015-5.315 2.025-5.411 4.73-.017.475-.012.746.626.559 2.739-.802 5.49-1.563 8.237-2.312.468-.127.533-.301.312-.708-.876-1.594-2.328-2.145-3.764-2.269Z"/><path class="svg-letter-4" d="M104.268 27.165c-1.894 0-3.789.03-5.691-.015-.728-.018-.749.225-.547.81a5.74 5.74 0 0 0 2.027 2.762 5.692 5.692 0 0 0 3.232 1.106c1.59.037 3.065-.263 4.386-1.19a2.72 2.72 0 0 1 1.11-.425 1.918 1.918 0 0 1 1.992.893c.434.72.366 1.43-.087 2.115a3.524 3.524 0 0 1-.898.887c-3.816 2.788-9.921 2.458-13.387-.744-2.017-1.864-2.94-4.248-3.05-6.946-.13-3.258.717-6.207 3.097-8.545 4.171-4.095 10.746-3.375 14.103 1.505a10.244 10.244 0 0 1 1.811 5.242c.104 1.551-.795 2.539-2.342 2.546-1.917.006-3.842-.001-5.756-.001ZM102.77 23.4h3.959c.898 0 .949-.062.702-.914-.555-1.913-2.649-3.247-4.917-3.131-2.396.123-4.17 1.526-4.566 3.59-.076.396.066.464.415.461 1.469-.006 2.938.002 4.407.002V23.4Z"/><path class="svg-letter-5" d="M47.234 14.388c1.456-1.61 3.036-2.778 5.118-3.065a8.134 8.134 0 0 1 4.113.451c2.062.797 2.796 2.585 3.274 4.532.21.85.317 1.722.322 2.598.012 3.505.024 7.01.009 10.513a2.179 2.179 0 0 1-.529 1.49 2.158 2.158 0 0 1-1.393.735 2.2 2.2 0 0 1-1.54-.32 2.22 2.22 0 0 1-.937-1.268 3.077 3.077 0 0 1-.08-.815v-9.162c0-.93-.085-1.849-.449-2.72-.373-.904-.994-1.556-1.975-1.777-3.908-.878-6.082 1.636-5.982 4.504.108 3.076.031 6.158.02 9.236 0 1.093-.564 1.891-1.479 2.204a2.251 2.251 0 0 1-2.56-.72 2.393 2.393 0 0 1-.471-1.544c0-5.082 0-10.163.007-15.244 0-1.426.915-2.383 2.221-2.409 1.306-.025 2.215.93 2.286 2.35.009.112.013.21.025.43Z"/><path class="svg-letter-6" d="M22.057 23.158c0-1.7-.008-3.402 0-5.103.009-1.52.852-2.447 2.215-2.457 1.408-.01 2.287.918 2.293 2.464.009 3.153.009 6.305 0 9.458-.004.525.055 1.05.176 1.56.342 1.413 1.175 2.337 2.64 2.63a5.6 5.6 0 0 0 2.804-.108c1.426-.451 2.097-1.535 2.3-2.949.088-.643.133-1.292.133-1.942.013-2.928 0-5.856 0-8.783 0-1.337.817-2.268 2.017-2.329 1.348-.067 2.425.737 2.441 2.069.044 3.627.243 7.267-.066 10.878-.408 4.783-3.368 7.367-8.181 7.452-1.506.028-2.996-.14-4.381-.772-2.934-1.34-4.174-3.813-4.355-6.89-.1-1.72-.018-3.45-.018-5.178h-.018Z"/><path class="svg-letter-7" d="M90.572 15.893v13.213c0 1.282-.551 2.116-1.586 2.44-1.396.436-2.708-.398-2.9-1.854a8.11 8.11 0 0 1-.066-1.045V3.055c0-.376.025-.75.074-1.122.073-.51.319-.98.696-1.33a2.233 2.233 0 0 1 3.675 1.044c.088.365.125.74.108 1.115l-.001 13.131Z"/></g><defs><clipPath id="a"><path fill="#fff" d="M0 0h133v36H0z"/></clipPath></defs></svg>