<svg xmlns="http://www.w3.org/2000/svg" width="181.499" height="35.734"><g data-name="Raggruppa 28"><path data-name="Tracciato 32" d="M23.493 29.038h5.7c.571 1.255 1.56 1.749 3.385 1.749 2.51 0 3.613-1.179 3.613-4.031v-1.863a5.368 5.368 0 0 1-4.679 2.511c-3.955 0-8.177-2.664-8.177-9.548V8.424h5.7v9.432c0 2.967 1.445 4.222 3.575 4.222 2.054 0 3.575-1.331 3.575-4.222V8.424h5.705v18.142c0 6.543-4.184 9.168-9.319 9.168-4.438-.001-8.127-2.055-9.078-6.696Z"/><path data-name="Tracciato 33" d="M45.481 17.823c0-5.706 4.184-9.889 10.118-9.889a9.556 9.556 0 0 1 10 9.889v1.6H51.411a3.9 3.9 0 0 0 4.184 3.2c1.635 0 2.853-.342 3.575-1.37h5.894c-1.216 3.88-4.791 6.466-9.47 6.466-5.929-.011-10.113-4.196-10.113-9.896Zm14.262-2.017a3.966 3.966 0 0 0-4.145-2.775 3.866 3.866 0 0 0-4.07 2.775Z"/><path data-name="Tracciato 34" d="M101.502 18.047c0-6.048 4.184-10.117 10.155-10.117 5.9 0 10 3.918 10 10.078v9.205h-5.249v-3.119a5.978 5.978 0 0 1-5.82 3.613c-4.181.001-9.086-3.119-9.086-9.66Zm14.453-.228a4.342 4.342 0 1 0-4.336 4.564 4.237 4.237 0 0 0 4.336-4.56Z"/><path data-name="Tracciato 35" d="M124.631 21.509h5.628c.039.988.762 1.483 2.321 1.483 1.749 0 2.319-.608 2.319-1.407 0-1.255-1.368-1.37-3.119-1.635-2.586-.382-6.846-1.027-6.846-5.554 0-3.8 3.005-6.465 7.683-6.465s7.57 2.7 7.683 6.085h-5.553c-.152-.875-.912-1.368-2.054-1.368-1.407 0-1.978.722-1.978 1.483 0 1.14 1.37 1.292 3.119 1.559 2.7.38 6.846 1.1 6.846 5.553 0 3.88-3.2 6.466-8.025 6.466s-7.948-2.586-8.024-6.2Z"/><path data-name="Tracciato 36" d="M143.651 19.796V1.768h5.706v6.656h8.9v5.133h-8.9v6.237c0 1.978.913 2.587 2.168 2.587s2.167-.609 2.167-2.587v-.57h5.709v.57c0 5.363-3.2 7.912-7.873 7.912s-7.877-2.549-7.877-7.91Z"/><path data-name="Tracciato 37" d="M161.378 17.823c0-5.706 4.184-9.889 10.117-9.889a9.557 9.557 0 0 1 10 9.889v1.6h-14.184a3.9 3.9 0 0 0 4.184 3.2c1.635 0 2.853-.342 3.576-1.37h5.9c-1.218 3.88-4.792 6.466-9.471 6.466-5.938-.011-10.122-4.196-10.122-9.896Zm14.262-2.017a3.968 3.968 0 0 0-4.146-2.775 3.866 3.866 0 0 0-4.07 2.775Z"/><g data-name="Raggruppa 13"><g data-name="Raggruppa 12"><path data-name="Tracciato 38" d="M69.073 18.28V7.258h5.947V18.28c0 2.619 1.269 3.529 3.053 3.529 1.745 0 3.014-.911 3.014-3.529V7.258h5.947V18.28c0 2.619 1.269 3.529 3.014 3.529 1.784 0 3.053-.911 3.053-3.529v-2.423h5.947v2.423c0 6.306-3.648 9.081-8.406 9.081a7.708 7.708 0 0 1-6.578-3.131 7.754 7.754 0 0 1-6.582 3.131c-4.761 0-8.409-2.774-8.409-9.081Z"/></g></g><g data-name="Raggruppa 14"><path data-name="Tracciato 39" d="M19.974 18.221a10.893 10.893 0 0 1-.786 4.2 9.939 9.939 0 0 1-2.136 3.258 9.539 9.539 0 0 1-3.166 2.108 10.13 10.13 0 0 1-3.9.749 9.858 9.858 0 0 1-7.055-2.9 9.989 9.989 0 0 1-2.144-3.258 10.69 10.69 0 0 1-.786-4.151V5.004h4.9l.1 4.968a4.486 4.486 0 0 1 .975-.913 5.775 5.775 0 0 1 1.241-.657 8.109 8.109 0 0 1 1.378-.392 7.247 7.247 0 0 1 1.388-.138 9.823 9.823 0 0 1 3.9.776 9.719 9.719 0 0 1 3.166 2.164 10.29 10.29 0 0 1 2.136 3.276 10.686 10.686 0 0 1 .789 4.133Zm-14.932 0a5.645 5.645 0 0 0 .384 2.1A5.156 5.156 0 0 0 6.485 22a4.981 4.981 0 0 0 1.578 1.122 4.712 4.712 0 0 0 3.852 0A4.986 4.986 0 0 0 13.493 22a5.3 5.3 0 0 0 1.069-1.679 5.535 5.535 0 0 0 .392-2.1"/></g><path data-name="Tracciato 40" d="m0 5.004 5.649-5h5.033v5H4.908Z" fill="#26d07c"/><path data-name="Tracciato 41" d="M93.101 17.756v-5.279h5.947v5.279" fill="#26d07c"/></g></svg>