<svg width="506" height="186" xmlns="http://www.w3.org/2000/svg"><g fill="#007CC2" fill-rule="evenodd"><path d="M57.3 136.7c-2.2-4.5-7.3-13.3-20-13.3-17.2 0-23.3 14.4-23.3 25.1 0 12.3 7.8 25.3 23.1 25.3 10 0 16.8-5.8 20.1-13.1H72C66.6 176.5 52.8 186 37 186 13.7 186 .6 166.9.6 148.6c0-19.2 14.1-37.3 36.6-37.3 20.1 0 32.2 15 34.9 25.5H57.3v-.1Z"/><path d="M138.5 184.1v-11h-.3c-5.1 8.7-14.5 12.8-24.1 12.8-24 0-37.7-18.3-37.7-37.1 0-17.3 12.2-37.7 37.7-37.7 9.9 0 19 4.1 24.1 11.9h.3v-10h13.3v71h-13.3v.1Zm-24.4-60.8c-16.4 0-24.4 14.2-24.4 25.4 0 12.8 10.1 25 24.2 25 14 0 24.8-11.4 24.8-25 .1-15.1-10.8-25.4-24.6-25.4ZM315.3 184.1v-11h-.3c-5.1 8.7-14.5 12.8-24.1 12.8-24 0-37.7-18.3-37.7-37.1 0-17.3 12.2-37.7 37.7-37.7 9.9 0 19 4.1 24.1 11.9h.3v-10h13.3v71h-13.3v.1Zm-24.4-60.8c-16.4 0-24.4 14.2-24.4 25.4 0 12.8 10.1 25 24.2 25 14 0 24.8-11.4 24.8-25 0-15.1-10.9-25.4-24.6-25.4Z" fill-rule="nonzero"/><path d="M350.5 184.1h-13.3V89.2h13.3z"/><path d="M370 154.3c3.3 13.7 14.4 19.4 23.3 19.4 9.9 0 17.1-5.8 20.3-11.9h13.3c-6.8 18.3-23.1 24.1-34.1 24.1-20.1 0-36.2-17.3-36.2-37.4 0-21.3 16.4-37.3 36.4-37.3 19.2 0 36 15.6 36.2 36.4 0 2.3-.3 5.9-.4 6.8H370v-.1Zm45.9-10.2c-.6-10.4-10.1-20.8-23-20.8-12.8 0-22.3 10.4-23 20.8h46Z" fill-rule="nonzero"/><path d="M447.4 131.2c.1-2.9 2.5-8.7 11.2-8.7 8.6 0 11.5 7.3 11.8 9.7h13c0-5.5-5.7-21.2-24.7-21.2s-23.4 13.4-23.7 19.6c-1 23.1 37.2 19 36.5 34-.1 2.8-2.8 9.5-13.8 9.5-10.8 0-14.2-8.9-14.5-12.5h-12.8c.7 7 5.7 24.1 27.4 24.1 21.6 0 25.8-15.3 26.1-21 1.2-23.9-37-22.5-36.5-33.5ZM212.7 131.2c.1-2.9 2.5-8.7 11.2-8.7 8.6 0 11.5 7.3 11.9 9.7h13c0-5.5-5.7-21.2-24.7-21.2s-23.4 13.4-23.7 19.6c-1 23.1 37.2 19 36.5 34-.1 2.8-2.8 9.5-13.8 9.5-10.8 0-14.2-8.9-14.5-12.5h-12.8c.7 7 5.7 24.1 27.4 24.1 21.6 0 25.8-15.3 26.1-21 1-23.9-37.1-22.5-36.6-33.5ZM192.6 111.1c-13.2 0-17.8 6.7-20.4 9.6h-.2V113h-12.4v71H173v-38.8c0-5.3 0-21.3 17.6-21.3 1.5 0 2.9.3 4.4.9l5.9-12.1c-2.7-1-5.6-1.6-8.3-1.6ZM505.6 96.4C460.2 58.5 392.3 52.1 376 51 363.7 40.8 311.9.8 241 .8 157.5.8 99.5 54.1 84.9 68.7L4.2 61.2 1.3 80.3l91.3 8.8 3.3-3.6c.6-.6 59-65.1 145-65.1 72.2 0 124.1 47 124.7 47.5l2.7 2.4 3.6.1c.8 0 75.2 3.3 120.9 40.7l12.8-14.7Z"/></g></svg>