<svg version="1.1" id="logo"
    xmlns="http://www.w3.org/2000/svg"
    xmlns:xlink="http://www.w3.org/1999/xlink" x="0px" y="0px" viewBox="0 0 114 38" style="enable-background: new 0 0 114 38" xml:space="preserve">
    <style type="text/css">
                        .st0 {
                            fill: #ffffff;
                        }
    </style>
    <g id="Group_2" transform="translate(47.585 9.774)">
        <path id="Path_9" class="st0" d="M6.2,6.7c1,0,2,0.2,2.9,0.7l0.4-1c-1-0.5-2.1-0.8-3.2-0.8C2.9,5.5,0.1,8.1,0,11.5
        c0,0.2,0,0.4,0,0.5c0,3.6,2.3,6.1,5.8,6.1c1.2,0,2.4-0.2,3.5-0.8l-0.3-0.9c-1,0.4-2,0.7-3,0.7c-2.8,0-4.8-2.1-4.8-5.2
        C1.2,9.1,2.9,6.7,6.2,6.7z"></path>
        <rect id="Rectangle_3" x="12.3" y="5.9" class="st0" width="1.2" height="12"></rect>
        <path id="Path_10" class="st0" d="M12.9,1.4c-0.6,0-1,0.5-1,1.1c0,0.5,0.4,1,0.9,1c0,0,0,0,0,0c0.5,0,1-0.4,1-1c0,0,0,0,0-0.1
        C13.9,1.9,13.5,1.5,12.9,1.4C12.9,1.4,12.9,1.4,12.9,1.4z"></path>
        <path id="Path_11" class="st0" d="M18.7,8.3L18.7,8.3l-0.1-2.4h-1.1c0.1,1.2,0.1,2.4,0.1,3.6v8.4h1.2v-6.6c0-0.4,0-0.8,0.1-1.2
        c0.3-1.9,1.5-3.4,3.2-3.4c0.2,0,0.4,0,0.6,0V5.7c-0.2,0-0.3,0-0.5,0C20.6,5.7,19.2,6.8,18.7,8.3z"></path>
        <path id="Path_12" class="st0" d="M29.9,6.7c1,0,2,0.2,2.9,0.7l0.4-1c-1-0.5-2.1-0.8-3.2-0.8c-3.4-0.1-6.2,2.5-6.3,5.9
        c0,0.2,0,0.4,0,0.5c0,3.6,2.3,6.1,5.8,6.1c1.2,0,2.4-0.2,3.5-0.8l-0.3-0.9c-1,0.4-2,0.7-3,0.7C27,17.1,25,15.1,25,12
        C25,9.1,26.7,6.7,29.9,6.7z"></path>
        <path id="Path_13" class="st0" d="M45.4,5.9h-1.2v7.5c0,0.5-0.1,0.9-0.3,1.3c-0.6,1.4-2,2.4-3.6,2.4c-2.4,0-3.2-1.9-3.2-4.5V5.9H36
        v7c0,4.6,2.6,5.3,4.1,5.3c1.7,0,3.3-0.9,4.2-2.4h0.1l0.1,2.1h1.1c-0.1-0.9-0.1-1.9-0.1-2.9L45.4,5.9z"></path>
        <rect id="Rectangle_4" x="49.5" y="0.1" class="st0" width="1.2" height="17.8"></rect>
        <path id="Path_14" class="st0" d="M62.8,8.6L62.8,8.6c1.8-0.7,2.9-2.4,3-4.3C65.7,2.2,64,0,60.5,0c-3.2,0-5.6,1.9-5.6,4.8
        c0.1,1.8,1.2,3.4,2.9,4l0,0.1c-2.2,0.9-3.6,2.5-3.6,4.8c0,2.6,2.3,4.8,6.1,4.8c3.4,0,6.1-2.1,6.1-5.2C66.4,11.1,65,9.5,62.8,8.6z
         M57.2,4.6c0-1.6,1.3-2.9,2.8-2.9c0.1,0,0.2,0,0.3,0c1.5-0.1,2.9,1,3,2.5c0,0.1,0,0.3,0,0.4c-0.1,1.6-1.2,2.9-2.7,3.2
        C58.6,7.3,57.2,6.4,57.2,4.6z M60.3,16.7c-1.8,0.2-3.4-1.2-3.6-3c0-0.1,0-0.3,0-0.4c0-1.7,1.1-3.1,3.2-3.7c2.4,0.7,4,1.7,4,3.9
        C63.9,15.3,62.5,16.7,60.3,16.7L60.3,16.7z"></path>
    </g>
    <g id="Group_3">
        <path id="Path_15" class="st0" d="M19.8,18.2c2.2,0.1,4.4-0.1,6.6-0.5c2.1-0.4,4.2-1,6.1-2c1.8-0.9,3.4-2.1,4.7-3.6
        c-2-5.1-6.1-9.1-11.3-11c-1,0.7-1.9,1.5-2.7,2.5c-2.5,3.1-4.3,6.8-5.2,10.7c-0.1,0.4-0.2,0.7-0.3,1.1c0,0.3-0.1,0.7-0.3,1
        c-0.2,0.3-0.6,0.4-0.9,0.2c-0.1-0.1-0.2-0.2-0.3-0.4c0-0.6,0-1.2,0.2-1.8c0.1-0.8,0.2-1.6,0.4-2.3c0.5-2.7,1.3-5.4,2.5-7.9
        c0.7-1.4,1.5-2.8,2.6-4C20.9,0.1,20.1,0,19.2,0C8.7-0.1,0.1,8.4,0,19c0,0,0,0,0,0c0,0.9,0.1,1.8,0.2,2.7c2-1.5,4.4-2.5,6.8-3
        C11.2,17.8,15.5,18.1,19.8,18.2z"></path>
        <path id="Path_16" class="st0" d="M36,17.7c-2.5,1.2-5.2,1.9-7.9,2.1c-2.4,0.2-4.8,0.2-7.2,0.1c-1.8-0.1-3.7-0.2-5.5-0.1
        c-3.9,0.2-7.8,1.4-11.2,3.4c-1.1,0.7-2.1,1.7-2.9,2.7c2,5.1,6.1,9.1,11.2,11c1.7-1.1,3.1-2.6,4.1-4.3c1.1-1.7,2.1-3.6,2.8-5.5
        c0.5-1.2,0.9-2.5,1.2-3.8c0.1-0.4,0.2-0.7,0.3-1.1c0.1-0.3,0.1-0.6,0.4-0.7c0.5-0.3,1,0.2,1,0.7c-0.1,1.5-0.3,2.9-0.7,4.4
        c-0.3,1.4-0.6,2.7-1.1,4.1c-0.8,2.6-2.1,5.1-3.8,7.3l0,0c0.8,0.1,1.7,0.2,2.5,0.2c10.5,0.1,19.1-8.4,19.2-19c0,0,0,0,0,0
        c0-0.9-0.1-1.8-0.2-2.7C37.5,16.8,36.8,17.3,36,17.7z"></path>
    </g>
</svg>