<svg width="192" height="56" viewBox="0 0 192 56" fill="none" xmlns="http://www.w3.org/2000/svg">
<g clip-path="url(#clip0_295_2329)">
<path d="M27.8396 55.9999C25.9551 56.0004 24.0755 55.8097 22.229 55.431C20.4378 55.0619 18.6874 54.5154 17.0033 53.7995C15.3478 53.0944 13.764 52.2298 12.2742 51.2178C10.7957 50.2126 9.41605 49.0678 8.15401 47.7987C6.89222 46.5294 5.75382 45.1419 4.75439 43.655C3.74809 42.1567 2.88843 40.5639 2.1875 38.899C1.47563 37.2051 0.932086 35.4446 0.565128 33.6431C0.188586 31.7858 -0.000672537 29.8951 1.79562e-06 27.9996C-0.00044137 26.1042 0.189012 24.2136 0.565739 22.3564C0.932621 20.5548 1.47617 18.7941 2.18811 17.1002C2.8891 15.4352 3.74875 13.8423 4.755 12.3439C5.75446 10.8569 6.89287 9.46943 8.15462 8.20018C9.41682 6.93128 10.7965 5.78646 12.2748 4.7811C13.7646 3.76906 15.3484 2.90445 17.0039 2.19939C18.688 1.48346 20.4385 0.936927 22.2296 0.56781C24.0759 0.189257 25.9554 -0.00124575 27.8396 -0.000731383C29.7242 -0.00118448 31.6038 0.189417 33.4503 0.568117C35.2413 0.937253 36.9917 1.48378 38.6757 2.1997C40.3313 2.90463 41.9152 3.76925 43.405 4.78141C44.8834 5.78677 46.2631 6.93158 47.5253 8.20049C48.787 9.46972 49.9253 10.8572 50.9246 12.3442C51.9308 13.8426 52.7905 15.4355 53.4915 17.1005C54.2034 18.7944 54.747 20.5551 55.1139 22.3567C55.4905 24.2138 55.6798 26.1043 55.6793 27.9996C55.6797 29.8949 55.4903 31.7854 55.1135 33.6424C54.7466 35.444 54.203 37.2045 53.4912 38.8983C52.7902 40.5633 51.9306 42.156 50.9243 43.6542C49.925 45.1412 48.7867 46.5289 47.525 47.7981C46.2629 49.0671 44.8833 50.212 43.4047 51.2171C41.9149 52.2293 40.331 53.0939 38.6754 53.7989C36.9914 54.5148 35.241 55.0613 33.45 55.4304C31.6036 55.8093 29.7241 56.0001 27.8396 55.9999ZM27.8396 17.3475C26.4234 17.3448 25.0212 17.6296 23.717 18.1848C22.4585 18.7193 21.3149 19.4945 20.3503 20.4675C19.383 21.4379 18.6122 22.5877 18.0807 23.8536C17.5287 25.1654 17.2456 26.5758 17.2483 28.0002C17.2455 29.4245 17.5287 30.8348 18.0807 32.1465C18.6124 33.4123 19.3831 34.5621 20.3503 35.5326C21.3151 36.5054 22.4586 37.2808 23.717 37.8155C25.0212 38.3707 26.4234 38.6553 27.8396 38.6525C29.256 38.6553 30.6583 38.3707 31.9626 37.8155C33.221 37.2807 34.3645 36.5053 35.3292 35.5326C36.2968 34.5623 37.0677 33.4124 37.5992 32.1465C38.1512 30.8348 38.4344 29.4245 38.4316 28.0002C38.4343 26.5758 38.1512 25.1654 37.5992 23.8536C37.0678 22.5876 36.2969 21.4377 35.3292 20.4675C34.3647 19.4945 33.2211 18.7193 31.9626 18.1848C30.6583 17.6294 29.256 17.3444 27.8396 17.3469V17.3475Z" fill="url(#paint0_linear_295_2329)"/>
<path d="M72.7465 35.2112C70.8947 33.4745 69.9688 31.2597 69.9688 28.5666C69.9688 25.8736 70.8947 23.6776 72.7465 21.9787C74.5628 20.2932 76.9572 19.38 79.428 19.4303C80.8542 19.4193 82.2649 19.7289 83.557 20.3364C84.796 20.9106 85.878 21.7786 86.7101 22.8659L83.069 25.6219C82.2182 24.4641 81.0045 23.8852 79.428 23.8852C78.1546 23.8652 76.9209 24.3305 75.9746 25.1877C75.4969 25.6066 75.1177 26.1271 74.8645 26.7114C74.6113 27.2958 74.4905 27.9295 74.5107 28.5666C74.4951 29.2142 74.6178 29.8576 74.8703 30.4535C75.1228 31.0493 75.4994 31.5839 75.9746 32.021C76.9005 32.9197 78.1414 33.4149 79.428 33.399C81.0045 33.399 82.2182 32.8076 83.069 31.6246L86.7476 34.3429C85.9201 35.4517 84.8297 36.3343 83.5758 36.9101C82.2767 37.5165 80.8601 37.8259 79.428 37.8162C76.9472 37.8637 74.5473 36.928 72.7465 35.2112ZM95.5312 19.8079V37.4386H90.9892V19.8079H95.5312ZM91.1769 14.9755C90.9011 14.7219 90.6815 14.4126 90.5328 14.0677C90.384 13.7229 90.3093 13.3504 90.3136 12.9745C90.3078 12.6022 90.3838 12.2331 90.5363 11.8937C90.6888 11.5543 90.914 11.253 91.1957 11.0114C91.7645 10.4901 92.5096 10.2066 93.279 10.2186C94.038 10.2023 94.7728 10.4871 95.3247 11.0114C95.597 11.2587 95.8134 11.562 95.9591 11.9007C96.1048 12.2394 96.1765 12.6056 96.1693 12.9745C96.1753 13.3461 96.1032 13.7148 95.9577 14.0564C95.8121 14.3979 95.5964 14.7047 95.3247 14.9566C95.0541 15.2213 94.7339 15.4293 94.3827 15.5686C94.0316 15.708 93.6564 15.7758 93.279 15.7683C92.5028 15.7871 91.7495 15.503 91.1769 14.9755ZM105.666 31.2093V37.4386H101.087V19.8079H105.666V23.9607C106.091 22.4506 106.755 21.318 107.655 20.5629C108.476 19.8384 109.529 19.4361 110.621 19.4303C111.622 19.4018 112.615 19.6223 113.511 20.0721L112.723 24.225C111.879 23.875 110.971 23.7077 110.058 23.7342C107.13 23.7342 105.666 26.2259 105.666 31.2093ZM118.166 35.2112C116.314 33.4745 115.388 31.2597 115.388 28.5666C115.388 25.8736 116.314 23.6776 118.166 21.9787C119.982 20.2932 122.376 19.38 124.847 19.4303C126.274 19.4193 127.684 19.7289 128.976 20.3364C130.215 20.9106 131.297 21.7786 132.129 22.8659L128.488 25.6219C127.637 24.4641 126.424 23.8852 124.847 23.8852C123.574 23.8652 122.34 24.3305 121.394 25.1877C120.916 25.6066 120.537 26.1271 120.284 26.7114C120.031 27.2958 119.91 27.9295 119.93 28.5666C119.914 29.2142 120.037 29.8576 120.29 30.4535C120.542 31.0493 120.919 31.5839 121.394 32.021C122.32 32.9197 123.561 33.4149 124.847 33.399C126.424 33.399 127.637 32.8076 128.488 31.6246L132.167 34.3429C131.339 35.4517 130.249 36.3343 128.995 36.9101C127.696 37.5165 126.279 37.8259 124.847 37.8162C122.366 37.8637 119.967 36.928 118.166 35.2112ZM147.932 29.2084V19.8079H152.512V37.4386H147.932V34.9469C147.464 35.8456 146.738 36.5821 145.849 37.0611C145.008 37.5448 144.059 37.8047 143.09 37.8162C140.963 37.8162 139.28 37.1618 138.041 35.853C136.803 34.5442 136.183 32.6691 136.183 30.2278V19.8079H140.8V29.3972C140.8 30.7311 141.126 31.719 141.776 32.3608C142.086 32.6733 142.455 32.9196 142.861 33.0851C143.267 33.2505 143.703 33.3316 144.141 33.3235C145.137 33.3536 146.105 32.9951 146.844 32.3231C147.569 31.6561 147.932 30.6179 147.932 29.2084ZM158.067 37.4386V10.2186H162.647V37.4386H158.067ZM184.455 19.8079L173.607 46.0464H168.765L172.781 36.0795L165.95 19.8079H170.83L175.184 30.7941L179.576 19.8079H184.455ZM186.933 36.9856C186.654 36.7261 186.433 36.4103 186.285 36.059C186.136 35.7077 186.062 35.3287 186.069 34.9469C186.062 34.5651 186.136 34.1861 186.285 33.8348C186.433 33.4835 186.654 33.1677 186.933 32.9082C187.205 32.6392 187.528 32.4272 187.882 32.2847C188.237 32.1421 188.616 32.0717 188.997 32.0777C189.782 32.0619 190.542 32.3529 191.118 32.8894C191.405 33.1475 191.632 33.4652 191.784 33.8205C191.937 34.1758 192.01 34.5601 192 34.9469C192.01 35.3337 191.937 35.7181 191.784 36.0734C191.632 36.4287 191.405 36.7464 191.118 37.0045C190.542 37.5409 189.782 37.8319 188.997 37.8162C188.616 37.8221 188.237 37.7518 187.882 37.6092C187.528 37.4666 187.205 37.2546 186.933 36.9856Z" fill="black"/>
</g>
<defs>
<linearGradient id="paint0_linear_295_2329" x1="19.0423" y1="49.7278" x2="44.485" y2="5.27721" gradientUnits="userSpaceOnUse">
<stop stop-color="#9FEF53"/>
<stop offset="1" stop-color="#54F4B2"/>
</linearGradient>
<clipPath id="clip0_295_2329">
<rect width="192" height="56" fill="white"/>
</clipPath>
</defs>
</svg>