<svg xmlns="http://www.w3.org/2000/svg" viewBox="0 0 130 130" width="130" height="130"><path d="M64.02 0C35.19-.54 7.84 21.1 1.68 49.3-2.25 66.08.8 84.48 10.37 98.87c-.39-3.72 5.84-6.14 1.25-9.53-11.78-23.36-5-54.23 15.55-70.45C46.92 2.4 77.75 1.44 98.35 16.95c20.08 14.38 29.07 42.23 20.9 65.6-7.74 23.44-31.51 40.6-56.3 39.6a58.13 58.13 0 0 1-24.62-5.95c-2.55 2.17-5.6 5.49-.23 6.34 24.74 11.38 56.32 4.46 74.03-16.27 17.39-19.44 21.04-49.82 8.27-72.67C109.45 13.35 87.16-.37 64.02 0Z"/><path d="M39.76 78.44c7-.2 15.4-3.63 17.55-10.89-3.25-2.7-6.49-3.46-8.64.89-8.14 6.82-22.9 2.1-24.3-8.84-1.93-8.4 4.07-18.1 13.04-18.53 5.94-1.54 11.62 3.6 14.87 6.16 4.2-1.67 6.88-4.26 1.92-7.44-10.53-10.02-30.47-6.06-35.53 7.88-5.05 11.95 2.16 27.9 15.39 30.2 1.87.41 3.78.6 5.7.57z"/><path d="M65.93 93.58h7.44L81.69 65l8.27 28.58h7.44l11.06-39.16h-6.76l-8.21 30.6c-2.95-10.2-5.9-20.4-8.83-30.6-7.54-2.5-7.35 6.03-9.12 10.98l-5.7 19.62-8.21-30.6h-6.76l11.06 39.16zM14.7 96.04c-4.3 3.68 1.81 10.4 2.23 15.32l4.82 14.92c5.27 3.39 8.6-7 12.75-9.51 2.06-4.33 12.73-9.27 8.06-13.81-9.28-2.3-18.54-4.76-27.86-6.92Z"/></svg>