<?xml version="1.0" encoding="UTF-8"?>
<svg id="logo" xmlns="http://www.w3.org/2000/svg" viewBox="0 0 113.99 38.2">
  <defs>
    <style>
      .cls-1 {
        stroke-width: 0px;
      }
    </style>
  </defs>
  <g id="Group_2" data-name="Group 2">
    <path id="Path_9" data-name="Path 9" class="cls-1" d="M53.78,16.47c1,0,2,.2,2.9.7l.4-1c-1-.5-2.1-.8-3.2-.8-3.4-.1-6.2,2.5-6.3,5.9v.5c0,3.6,2.3,6.1,5.8,6.1,1.2,0,2.4-.2,3.5-.8l-.3-.9c-1,.4-2,.7-3,.7-2.8,0-4.8-2.1-4.8-5.2,0-2.8,1.7-5.2,5-5.2Z"/>
    <rect id="Rectangle_3" data-name="Rectangle 3" class="cls-1" x="59.88" y="15.67" width="1.2" height="12"/>
    <path id="Path_10" data-name="Path 10" class="cls-1" d="M60.48,11.17c-.6,0-1,.5-1,1.1,0,.5.4,1,.9,1h0c.5,0,1-.4,1-1v-.1c.1-.5-.3-.9-.9-1h0Z"/>
    <path id="Path_11" data-name="Path 11" class="cls-1" d="M66.28,18.07h0l-.1-2.4h-1.1c.1,1.2.1,2.4.1,3.6v8.4h1.2v-6.6c0-.4,0-.8.1-1.2.3-1.9,1.5-3.4,3.2-3.4h.6v-1h-.5c-1.6,0-3,1.1-3.5,2.6Z"/>
    <path id="Path_12" data-name="Path 12" class="cls-1" d="M77.48,16.47c1,0,2,.2,2.9.7l.4-1c-1-.5-2.1-.8-3.2-.8-3.4-.1-6.2,2.5-6.3,5.9v.5c0,3.6,2.3,6.1,5.8,6.1,1.2,0,2.4-.2,3.5-.8l-.3-.9c-1,.4-2,.7-3,.7-2.7,0-4.7-2-4.7-5.1,0-2.9,1.7-5.3,4.9-5.3Z"/>
    <path id="Path_13" data-name="Path 13" class="cls-1" d="M92.99,15.67h-1.2v7.5c0,.5-.1.9-.3,1.3-.6,1.4-2,2.4-3.6,2.4-2.4,0-3.2-1.9-3.2-4.5v-6.7h-1.1v7c0,4.6,2.6,5.3,4.1,5.3,1.7,0,3.3-.9,4.2-2.4h.1l.1,2.1h1.1c-.1-.9-.1-1.9-.1-2.9l-.1-9.1Z"/>
    <rect id="Rectangle_4" data-name="Rectangle 4" class="cls-1" x="97.08" y="9.87" width="1.2" height="17.8"/>
    <path id="Path_14" data-name="Path 14" class="cls-1" d="M110.38,18.37h0c1.8-.7,2.9-2.4,3-4.3-.1-2.1-1.8-4.3-5.3-4.3-3.2,0-5.6,1.9-5.6,4.8.1,1.8,1.2,3.4,2.9,4v.1c-2.2.9-3.6,2.5-3.6,4.8,0,2.6,2.3,4.8,6.1,4.8,3.4,0,6.1-2.1,6.1-5.2,0-2.2-1.4-3.8-3.6-4.7ZM104.78,14.37c0-1.6,1.3-2.9,2.8-2.9h.3c1.5-.1,2.9,1,3,2.5v.4c-.1,1.6-1.2,2.9-2.7,3.2-2-.5-3.4-1.4-3.4-3.2ZM107.88,26.47c-1.8.2-3.4-1.2-3.6-3v-.4c0-1.7,1.1-3.1,3.2-3.7,2.4.7,4,1.7,4,3.9,0,1.8-1.4,3.2-3.6,3.2h0Z"/>
  </g>
  <g id="Group_3" data-name="Group 3">
    <path id="Path_15" data-name="Path 15" class="cls-1" d="M19.8,18.2c2.2.1,4.4-.1,6.6-.5,2.1-.4,4.2-1,6.1-2,1.8-.9,3.4-2.1,4.7-3.6-2-5.1-6.1-9.1-11.3-11-1,.7-1.9,1.5-2.7,2.5-2.5,3.1-4.3,6.8-5.2,10.7-.1.4-.2.7-.3,1.1,0,.3-.1.7-.3,1-.2.3-.6.4-.9.2-.1-.1-.2-.2-.3-.4,0-.6,0-1.2.2-1.8.1-.8.2-1.6.4-2.3.5-2.7,1.3-5.4,2.5-7.9.7-1.4,1.5-2.8,2.6-4C20.9.1,20.1,0,19.2,0,8.7-.1.1,8.4,0,19h0c0,.9.1,1.8.2,2.7,2-1.5,4.4-2.5,6.8-3,4.2-.9,8.5-.6,12.8-.5Z"/>
    <path id="Path_16" data-name="Path 16" class="cls-1" d="M36,17.7c-2.5,1.2-5.2,1.9-7.9,2.1-2.4.2-4.8.2-7.2.1-1.8-.1-3.7-.2-5.5-.1-3.9.2-7.8,1.4-11.2,3.4-1.1.7-2.1,1.7-2.9,2.7,2,5.1,6.1,9.1,11.2,11,1.7-1.1,3.1-2.6,4.1-4.3,1.1-1.7,2.1-3.6,2.8-5.5.5-1.2.9-2.5,1.2-3.8.1-.4.2-.7.3-1.1.1-.3.1-.6.4-.7.5-.3,1,.2,1,.7-.1,1.5-.3,2.9-.7,4.4-.3,1.4-.6,2.7-1.1,4.1-.8,2.6-2.1,5.1-3.8,7.3h0c.8.1,1.7.2,2.5.2,10.5.1,19.1-8.4,19.2-19h0c0-.9-.1-1.8-.2-2.7-.7.3-1.4.8-2.2,1.2Z"/>
  </g>
</svg>