<svg xmlns="http://www.w3.org/2000/svg" viewBox="0 0 162 40" width="162" height="40">
    <g clip-path="url(#clip0_707_32286)">
        <g clip-path="url(#clip1_707_32286)">
            <path d="M39.9989 22.1507V17.8485C39.9989 16.2707 38.7189 14.9907 37.1412 14.9907H32.8391C31.2613 14.9907 29.9814 16.2707 29.9814 17.8485V22.1507C29.9814 23.7285 31.2613 25.0085 32.8391 25.0085H37.1412C38.7189 25.0085 39.9989 23.7285 39.9989 22.1507Z" fill="currentColor"/>
            <path d="M11.7108 10.2933L11.7286 10.2844C12.1063 10.1111 12.5197 10.0178 12.9374 10.0178H27.0881C28.6881 10.0178 29.9858 8.72 29.9858 7.12V2.89778C29.9858 1.29778 28.6881 0 27.0881 0H12.9152C11.3152 0 10.0175 1.29778 10.0175 2.89778V7.10222C10.0175 7.52 9.92862 7.93333 9.75084 8.31111L9.74195 8.32889C9.45307 8.95555 8.95086 9.46222 8.31977 9.75111C7.942 9.92444 7.52868 10.0178 7.11092 10.0178H2.8977C1.29774 10.0178 0 11.3156 0 12.9156V27.0889C0 28.6889 1.29774 29.9867 2.8977 29.9867H7.09758C7.51535 29.9867 7.92867 30.0756 8.30644 30.2533H8.31977C8.94642 30.5467 9.45307 31.0533 9.74195 31.68L9.75084 31.6978C9.92417 32.0756 10.0175 32.4889 10.0175 32.9067V37.1067C10.0175 38.7067 11.3152 40.0044 12.9152 40.0044H27.0881C28.6881 40.0044 29.9858 38.7067 29.9858 37.1067V32.88C29.9858 31.28 28.6881 29.9822 27.0881 29.9822H12.933C12.5152 29.9822 12.1019 29.8933 11.7241 29.7156H11.7108C11.0841 29.4222 10.5775 28.9156 10.2886 28.2889V28.28C10.1108 27.9022 10.0175 27.4889 10.0175 27.0711V12.9333C10.0175 12.5156 10.1064 12.1022 10.2842 11.7244V11.7156C10.5775 11.0889 11.0797 10.5822 11.7108 10.2933Z" fill="currentColor"/>
        </g>
        <path d="M49.9275 19.9818C49.9275 12.2885 55.4029 6.67518 62.8205 6.67518C68.3314 6.67518 72.3491 9.79518 73.7002 13.4663L69.4736 15.4396C68.4692 12.8396 66.0782 10.9685 62.8205 10.9685C57.9673 10.9685 54.6429 14.6085 54.6429 19.9774C54.6429 25.3463 57.9717 29.0218 62.8205 29.0218C66.0782 29.0218 68.4692 27.1507 69.4736 24.5507L73.7002 26.5241C72.3491 30.1996 68.327 33.3152 62.8205 33.3152C55.4385 33.3152 49.9275 27.6663 49.9275 19.973V19.9818Z" fill="black"/>
        <path d="M76.6779 7.08857H81.2155V11.9419H76.6779V7.08857ZM76.6779 14.053H81.2155V32.9063H76.6779V14.0575V14.053Z" fill="black"/>
        <path d="M84.9577 14.0578H89.2198V16.7245C90.1886 14.5778 91.993 13.8489 94.313 13.8489H95.4241V17.8667H93.7974C91.2331 17.8667 89.4998 19.5289 89.4998 22.4045V32.9067H84.9621V14.0578H84.9577Z" fill="black"/>
        <path d="M97.464 14.0576H101.726V16.2753C103.077 14.6131 105.193 13.6398 107.788 13.6398C113.161 13.6398 117.281 17.9376 117.281 23.4798C117.281 29.022 113.228 33.3198 107.753 33.3198C105.464 33.3198 103.388 32.5598 102.002 31.102V39.8353H97.464V14.0576ZM112.575 23.4842C112.575 20.2265 110.321 17.7998 107.237 17.7998C104.153 17.7998 102.006 20.1909 102.006 23.4842C102.006 26.7776 104.224 29.1687 107.237 29.1687C110.25 29.1687 112.575 26.7776 112.575 23.4842Z" fill="black"/>
        <path d="M119.846 6.67518H124.383V32.9107H119.846V6.67518Z" fill="black"/>
        <path d="M127.748 25.5958V14.058H132.285V25.218C132.285 27.6091 133.845 29.1691 136.098 29.1691C138.352 29.1691 139.912 27.6091 139.912 25.1158V14.0625H144.449V32.9158H140.152V30.6625C139.112 32.4314 137.205 33.3291 134.85 33.3291C130.414 33.3291 127.748 30.2091 127.748 25.6003V25.5958Z" fill="black"/>
        <path d="M146.174 27.9865L149.569 26.3553C150.574 28.4709 152.378 29.7509 154.489 29.7509C156.12 29.7509 157.191 28.9865 157.191 27.742C157.191 26.6665 156.222 26.1153 155.009 25.7687L151.925 24.902C148.738 23.9998 147.071 22.0265 147.071 19.4265C147.071 15.9598 149.947 13.6398 154.036 13.6398C157.569 13.6398 160.48 15.4753 161.658 18.5242L158.191 20.1509C157.569 18.4531 155.902 17.342 154 17.342C152.476 17.342 151.538 18.1065 151.538 19.2131C151.538 20.3198 152.44 20.8087 153.756 21.1865L156.769 22.0887C159.889 22.9909 161.622 24.9287 161.622 27.5642C161.622 30.9953 158.747 33.3153 154.485 33.3153C150.467 33.3153 147.276 31.2354 146.169 27.9776L146.174 27.9865Z" fill="black"/>
    </g>
    <defs>
        <clipPath id="clip0_707_32286">
            <rect width="161.667" height="40" fill="white"/>
        </clipPath>
        <clipPath id="clip1_707_32286">
            <rect width="39.9989" height="40.0044" fill="white"/>
        </clipPath>
    </defs>
</svg>