<svg xmlns="http://www.w3.org/2000/svg" viewBox="0 0 488.31 92.52" width="488" height="92"><defs><style>.cls-3{fill:#0f215b}</style></defs><g style="isolation:isolate"><g id="Layer_2" data-name="Layer 2"><g id="Content"><path class="cls-3" d="M158.06 14.24a1.33 1.33 0 0 0-2.05 1.12v55.57c0 .75.61 1.36 1.36 1.36h7.79c.75 0 1.36-.61 1.36-1.36V20.37c0-.46-.23-.88-.62-1.12l-7.85-5ZM210.94 44.12c-.85-2.52-2.11-4.7-3.77-6.54-1.66-1.84-3.72-3.29-6.18-4.33-2.46-1.04-5.27-1.57-8.43-1.57s-5.74.56-8.23 1.69a20.496 20.496 0 0 0-6.46 4.54c-1.82 1.9-3.24 4.12-4.26 6.67-1.02 2.54-1.53 5.23-1.53 8.07 0 3.05.52 5.85 1.57 8.39 1.04 2.54 2.5 4.75 4.37 6.62s4.08 3.33 6.62 4.37 5.31 1.57 8.31 1.57c3.44 0 6.45-.61 9.07-1.79.77-.35 1.51-.73 2.21-1.18 1.8-1.16 3.38-2.54 4.74-4.13.47-.54.41-1.36-.09-1.87l-4.93-4.93c-.59-.59-1.56-.54-2.07.12-.71.91-1.74 2.11-2.79 2.82-1.59 1.09-3.57 1.65-5.98 1.65-1.23 0-2.44-.17-3.61-.52a9.621 9.621 0 0 1-3.25-1.69c-.99-.77-1.82-1.74-2.49-2.89-.67-1.15-1.11-2.53-1.32-4.13h28.37c.78 0 1.41-.64 1.39-1.42-.11-3.04-.53-7.35-1.26-9.5ZM183 47.57c.69-2.3 1.9-4.09 3.61-5.38 1.71-1.28 3.69-1.93 5.94-1.93 1.6 0 2.98.24 4.13.72s2.11 1.1 2.89 1.85c.77.75 1.36 1.55 1.77 2.41.4.86.63 1.63.68 2.33h-19.03ZM434.17 14.24a1.33 1.33 0 0 0-2.05 1.12v55.57c0 .75.61 1.36 1.36 1.36h7.79c.75 0 1.36-.61 1.36-1.36V20.37c0-.46-.23-.88-.62-1.12l-7.85-5ZM234.39 31.68c-6.67 0-12.04 2.24-16.12 6.71-.55.6-.4 1.56.27 2.02l5.39 3.69c.56.38 1.3.27 1.78-.22 2.36-2.46 5.17-3.68 8.44-3.68 2.46 0 4.52.68 6.18 2.05 1.66 1.36 2.49 3.09 2.49 5.18v1.2c-1.07-.43-2.44-.84-4.09-1.24-1.66-.4-3.77-.6-6.34-.6-2.3 0-4.43.31-6.38.92-1.95.62-3.65 1.51-5.1 2.69a12.378 12.378 0 0 0-3.37 4.22c-.8 1.63-1.2 3.47-1.2 5.5s.37 3.8 1.12 5.46c.75 1.66 1.79 3.08 3.13 4.25 1.34 1.18 2.9 2.1 4.7 2.77 1.79.67 3.71 1 5.74 1 2.73 0 4.96-.53 6.7-1.61 1.74-1.07 3.22-2.35 4.46-3.85h.64l6.62 3.98c.22.13.46.2.71.2h1.66c.75 0 1.36-.61 1.36-1.36V48.72c0-5.62-1.61-9.86-4.82-12.72-3.21-2.86-7.87-4.3-13.97-4.3Zm7.75 28.06c-.46 1.1-1.1 2.06-1.93 2.89-.83.83-1.83 1.5-3.01 2.01-1.18.51-2.46.76-3.85.76-1.71 0-3.23-.48-4.54-1.45-1.31-.96-1.97-2.25-1.97-3.85s.68-2.96 2.05-4.05c1.37-1.1 3.3-1.65 5.82-1.65 1.55 0 2.98.17 4.3.52 1.31.35 2.58.82 3.81 1.41 0 1.18-.23 2.32-.68 3.41ZM285.92 32.69c-.45-.22-.95-.4-1.49-.56-.99-.3-2.18-.45-3.57-.45-1.12 0-2.26.18-3.41.55-1.15.37-2.22.85-3.21 1.44-.99.6-1.89 1.3-2.69 2.1s-1.45 1.69-1.93 2.65h-.64v-4.1c0-.75-.61-1.36-1.36-1.36h-7.15c-.75 0-1.36.61-1.36 1.36v36.61c0 .75.61 1.36 1.36 1.36h7.79c.75 0 1.36-.61 1.36-1.36V52.92c0-1.61.23-3.11.68-4.48.45-1.37 1.1-2.57 1.93-3.59a8.601 8.601 0 0 1 3.01-2.38c1.18-.56 2.49-.85 3.93-.85 1.12 0 2.07.09 2.85.28.41.1.79.22 1.17.35.5.17.98.13 1.18-.33l2.28-7.61c.19-.65-.11-1.35-.73-1.64ZM419.99 34.81c-3.11-2.09-6.93-3.13-11.48-3.13-3.05 0-5.85.52-8.39 1.57-2.54 1.05-4.73 2.49-6.58 4.33-1.85 1.85-3.29 4.06-4.34 6.62-1.04 2.57-1.57 5.38-1.57 8.43s.52 5.85 1.57 8.39c1.04 2.54 2.49 4.75 4.34 6.62 1.85 1.87 4.04 3.33 6.58 4.37s5.34 1.57 8.39 1.57 5.85-.53 8.27-1.49c1.15-.46 2.26-1 3.25-1.68 1.61-1.11 3.01-2.4 4.24-3.84.46-.54.4-1.35-.1-1.86l-5.36-5.36c-.61-.61-1.62-.51-2.12.2-.91 1.31-1.93 2.29-2.76 2.83-1.53.99-3.39 1.49-5.58 1.49-1.39 0-2.7-.27-3.93-.8a9.985 9.985 0 0 1-3.25-2.25c-.94-.96-1.67-2.14-2.21-3.53-.54-1.39-.8-2.94-.8-4.66s.27-3.26.8-4.66c.53-1.39 1.27-2.57 2.21-3.53a10.3 10.3 0 0 1 3.25-2.25c1.23-.53 2.54-.8 3.93-.8 2.14 0 3.92.47 5.34 1.41 1.14.75 2.11 1.78 2.92 3.09.35.58 1.05.84 1.67.58l7.21-3c.72-.3 1.07-1.16.71-1.85-1.44-2.73-3.51-5-6.2-6.81ZM487.05 44.12c-.85-2.52-2.11-4.7-3.77-6.54-1.66-1.84-3.72-3.29-6.18-4.33-2.46-1.04-5.27-1.57-8.43-1.57s-5.74.56-8.23 1.69a20.496 20.496 0 0 0-6.46 4.54c-1.82 1.9-3.24 4.12-4.26 6.67-1.02 2.54-1.53 5.23-1.53 8.07 0 3.05.52 5.85 1.57 8.39 1.04 2.54 2.5 4.75 4.37 6.62s4.08 3.33 6.62 4.37 5.31 1.57 8.31 1.57c3.44 0 6.45-.61 9.07-1.79.77-.35 1.51-.73 2.21-1.18 1.8-1.16 3.38-2.54 4.74-4.13.47-.54.41-1.36-.09-1.87l-4.93-4.93c-.59-.59-1.56-.54-2.07.12-.71.91-1.74 2.11-2.79 2.82-1.59 1.09-3.57 1.65-5.98 1.65-1.23 0-2.44-.17-3.61-.52a9.621 9.621 0 0 1-3.25-1.69c-.99-.77-1.82-1.74-2.49-2.89-.67-1.15-1.11-2.53-1.32-4.13h28.37c.78 0 1.41-.64 1.39-1.42-.11-3.04-.53-7.35-1.26-9.5Zm-27.94 3.45c.69-2.3 1.9-4.09 3.61-5.38 1.71-1.28 3.69-1.93 5.94-1.93 1.6 0 2.98.24 4.13.72s2.11 1.1 2.89 1.85c.77.75 1.36 1.55 1.77 2.41.4.86.63 1.63.68 2.33H459.1ZM149.72 62.29l-6.93-4.16c-.53-.32-1.2-.23-1.66.19a20.31 20.31 0 0 1-4.24 3.03c-.1.05-.2.08-.3.13-2.42 1.21-5.17 1.84-8.25 1.84-2.68 0-5.19-.47-7.55-1.41-2.35-.94-4.4-2.26-6.14-3.97-1.74-1.71-3.12-3.79-4.14-6.22-1.02-2.43-1.53-5.15-1.53-8.15s.51-5.71 1.53-8.15c1.02-2.44 2.4-4.51 4.14-6.22 1.74-1.71 3.79-3.04 6.14-3.97 2.35-.94 4.87-1.4 7.55-1.4 3.05 0 5.69.59 7.91 1.77 1.82.96 3.46 2.19 4.94 3.7.55.55 1.42.6 1.98.06l5.62-5.45c.55-.53.58-1.42.05-1.96-2.5-2.56-5.3-4.55-8.41-5.98-3.51-1.6-7.56-2.41-12.16-2.41-4.28 0-8.26.78-11.92 2.33-3.67 1.55-6.84 3.67-9.51 6.34-2.68 2.68-4.79 5.85-6.34 9.51-1.55 3.67-2.33 7.62-2.33 11.84s.77 8.18 2.33 11.84c1.55 3.67 3.67 6.84 6.34 9.51 2.68 2.68 5.85 4.79 9.51 6.34 3.67 1.55 7.64 2.33 11.92 2.33s8.23-.77 11.79-2.24c.38-.15.77-.28 1.13-.45 3.34-1.55 6.29-3.72 8.86-6.5.59-.64.42-1.66-.33-2.11ZM342.79 62.29l-6.93-4.16c-.53-.32-1.2-.23-1.66.19a20.31 20.31 0 0 1-4.24 3.03c-.1.05-.2.08-.3.13-2.42 1.21-5.17 1.84-8.25 1.84-2.68 0-5.19-.47-7.55-1.41-2.35-.94-4.4-2.26-6.14-3.97-1.74-1.71-3.12-3.79-4.14-6.22-1.02-2.43-1.53-5.15-1.53-8.15s.51-5.71 1.53-8.15c1.02-2.44 2.4-4.51 4.14-6.22 1.74-1.71 3.79-3.04 6.14-3.97 2.35-.94 4.87-1.4 7.55-1.4 3.05 0 5.69.59 7.91 1.77 1.82.96 3.46 2.19 4.94 3.7.54.55 1.42.6 1.98.06l5.62-5.45c.55-.53.58-1.42.05-1.96-2.5-2.56-5.3-4.55-8.41-5.98-3.51-1.6-7.56-2.41-12.16-2.41-4.28 0-8.26.78-11.92 2.33-3.67 1.55-6.84 3.67-9.51 6.34-2.68 2.68-4.79 5.85-6.34 9.51-1.55 3.67-2.33 7.62-2.33 11.84s.77 8.18 2.33 11.84c1.55 3.67 3.67 6.84 6.34 9.51 2.68 2.68 5.85 4.79 9.51 6.34 3.67 1.55 7.64 2.33 11.92 2.33s8.23-.77 11.79-2.24c.37-.15.77-.28 1.13-.45 3.34-1.55 6.29-3.72 8.87-6.5.59-.64.41-1.66-.33-2.11ZM385.39 32.96h-8.72c-.56 0-1.06.34-1.27.86l-9.21 22.99h-.56l-9.61-23.01c-.21-.51-.71-.84-1.26-.84h-8.96c-.99 0-1.65 1.01-1.25 1.92l15.69 35.5-7.38 16.29c-.29.64-.06 1.4.55 1.76l6.48 3.89c.72.43 1.65.13 1.98-.63l24.76-56.82c.39-.9-.27-1.91-1.25-1.91Z"/><path d="m40.66 70.31-3.29 8.79c.73.04 1.47.06 2.22.06.36 0 .72-.03 1.07-.05V70.3Z" style="fill:#0fce8e;mix-blend-mode:multiply"/><path d="M39.97 0C18.16-.2.14 17.52 0 39.32-.14 60.56 16.45 77.95 37.37 79.1l3.29-8.79v13.43c0 1.35 1.63 2.02 2.58 1.07l6.92-6.92 6.38-6.38c.59-.59.59-1.55 0-2.14l-8.97-8.97-4.33-4.33c-.95-.95-2.58-.28-2.58 1.07v4.62c-.36.02-.71.05-1.07.05-12.61 0-22.8-10.55-22.2-23.29.53-11.38 9.76-20.61 21.14-21.14 12.15-.57 22.31 8.67 23.22 20.47.08.98.89 1.73 1.87 1.73h13.62c1.08 0 1.93-.91 1.88-2C78.08 16.78 60.98.2 39.97 0Z" style="fill:#00e99f"/></g></g></g></svg>