<svg version="1.1" id="Layer_1" xmlns="http://www.w3.org/2000/svg" x="0" y="0" viewBox="0 0 340.16 175.75" width="340.16" height="175.75" style="enable-background:new 0 0 340.16 175.75" xml:space="preserve"><style>.st0{fill:#010202}</style><path class="st0" d="M149.18 32.79v14.6c0 .06.08.09.25.09h15.47c.17 0 .25-.03.25-.09v-14.3c0-.1.01-.2.01-.3h-15.98z"/><path d="M208.09 96.01h-11.54V85.03c0-.28.01-.54.01-.81h-15.98v11.79h-10.96c-.28 0-.54-.01-.81-.01v15.98h11.78v11.53c0 .17.08.25.25.25h15.47c.17 0 .25-.08.25-.25v-11.53h11.54c.17 0 .25-.08.25-.25V96.26c-.01-.16-.1-.25-.26-.25z" style="fill:#f2904e"/><path class="st0" d="M92.95 33.88h15.34c.17.04.25.13.25.25v57.12c0 5.01.86 8.52 2.57 10.52 2.76 4.09 6.99 6.14 12.71 6.14h15.97c.17 0 .25.08.25.25v15.34c0 .17-.08.25-.25.25h-18.41c-6.85 0-13.4-2.8-19.67-8.39-6.01-6.35-9.02-13.15-9.02-20.42V34.13c.05-.16.13-.25.26-.25zM149.43 52.53h15.47c.17.04.25.13.25.25v70.73c0 .17-.08.25-.25.25h-15.47c-.17 0-.25-.08-.25-.25V52.78c.04-.17.13-.25.25-.25zM42.62 120.28c-4.64-2.46-8.18-6.04-10.62-10.75-2.43-4.71-3.65-10.4-3.65-17.08v-9.54c0-6.58 1.22-12.21 3.65-16.87 2.43-4.67 5.97-8.22 10.62-10.65 4.64-2.43 10.23-3.65 16.77-3.65 3.74 0 7.27.44 10.58 1.32 3.31.88 6.29 2.15 8.93 3.82 2.64 1.67 4.84 3.7 6.59 6.09L74.54 73.24a18.884 18.884 0 0 0-6.49-4.46 19.907 19.907 0 0 0-7.78-1.56c-5 0-8.88 1.36-11.63 4.09-2.75 2.73-4.13 6.59-4.13 11.6v9.54c0 5.14 1.36 9.1 4.09 11.87 2.73 2.77 6.62 4.16 11.67 4.16 2.75 0 5.36-.56 7.85-1.69 2.48-1.13 4.62-2.73 6.43-4.8l10.96 10.96c-1.8 2.34-4.02 4.34-6.66 5.99-2.64 1.65-5.61 2.9-8.93 3.75-3.31.86-6.82 1.28-10.52 1.28-6.55 0-12.14-1.23-16.78-3.69zM295.65 52.75v1.87c-1.45-.61-2.98-1.14-4.59-1.57-3.31-.88-6.84-1.32-10.58-1.32-6.54 0-12.13 1.22-16.77 3.65-4.64 2.43-8.18 5.99-10.62 10.65-2.43 4.67-3.65 10.29-3.65 16.87v9.54c0 6.67 1.22 12.37 3.65 17.08 2.43 4.71 5.97 8.3 10.62 10.75 4.64 2.46 10.23 3.69 16.77 3.69 3.7 0 7.2-.43 10.52-1.28 1.64-.42 3.19-.94 4.66-1.56v1.42c0 4.55-1.33 8.08-3.99 10.58s-6.29 3.75-10.89 3.75c-2.57 0-5.04-.56-7.41-1.69s-4.39-2.75-6.05-4.87l-10.89 9.94c2.39 3.56 5.72 6.32 10.01 8.28 4.28 1.96 9.13 2.94 14.54 2.94 6.49 0 12.05-1.2 16.67-3.58 4.62-2.39 8.14-5.88 10.55-10.48 2.41-4.6 3.62-10.12 3.62-16.57V52.75h-16.17zm-.03 49.24c-1.8 2.07-3.95 3.68-6.43 4.8-2.48 1.13-5.1 1.69-7.85 1.69-5.05 0-8.94-1.39-11.67-4.16-2.73-2.77-4.09-6.73-4.09-11.87v-9.54c0-5 1.37-8.87 4.13-11.6 2.75-2.73 6.63-4.09 11.63-4.09 2.71 0 5.3.52 7.78 1.56 2.48 1.04 4.64 2.53 6.49 4.46l.03-.02v28.79l-.02-.02zM233.12 61.86c-6.47-6.55-13.59-9.83-21.36-9.83h-2.13c-4.45 0-8.81 1.18-13.09 3.53v-2.1c0-.22.01-.42.01-.63h-15.98V84.22h15.99c.07-4.07.62-6.96 1.68-8.65 3.13-4.97 7.06-7.45 11.77-7.45h.5l.25-.13c0 .08.04.13.13.13h.63c1.67 0 3.55.48 5.64 1.44 5.14 3.09 7.7 7.18 7.7 12.28v41.67c0 .17.08.25.25.25h15.6c.17 0 .25-.08.25-.25V81.84c-.01-7.27-2.62-13.92-7.84-19.98z"/></svg>