<svg xmlns="http://www.w3.org/2000/svg" data-name="Layer 1" viewBox="0 0 249.73 56.72" width="249.73" height="56.72"><path d="M248.52 37.42c.56-.49 1.06-1.73 1.21-2.98v-1.28c-.05-.38-.14-.74-.29-1.05-.16-.32-.97-1.69-2.15-3.67l-1.06-1.71c-2.41 2.59-5.84 4.23-9.66 4.23-7.29 0-13.19-5.91-13.19-13.19 0-6.01 4.02-11.07 9.51-12.66l-2.33-3.78c-.61-.69-1.55-1.17-2.58-1.31h-1.22c-.51.08-1.02.24-1.5.52-1.93 1.13-21.6 16.91-23.31 18.36a5.03 5.03 0 0 0-1.72 3.22v1.06c.05.42.16.82.34 1.18.81 1.6 17.91 29.99 19.19 31.43.54.6 1.32.88 2.16.95h.84c.91-.08 1.82-.37 2.46-.8 1.44-.97 22.36-17.69 23.29-18.51" fill="#231f20"/><path d="M235.07 8.73c-4.3.72-7.59 4.46-7.59 8.97a9.09 9.09 0 0 0 16.43 5.36" fill="#2467b2"/><path d="M231.45 14.59c-.29.32-.5.67-.64 1.05-.13.38-.18.78-.15 1.2.04.42.18.84.43 1.26.32.54.69.9 1.11 1.07.42.17.86.24 1.32.22.46-.03.94-.1 1.42-.23.49-.13.95-.22 1.39-.28.44-.06.85-.03 1.23.06.38.1.69.36.95.8.35.6.43 1.16.24 1.7-.19.53-.58.97-1.15 1.3-.54.31-1.05.46-1.54.46s-1-.14-1.56-.42l-.35.89c.66.37 1.32.54 1.98.51.66-.03 1.31-.23 1.95-.6.41-.24.76-.53 1.04-.87.28-.34.49-.71.61-1.1.12-.39.16-.8.11-1.23s-.2-.85-.45-1.28c-.33-.55-.7-.92-1.13-1.1-.43-.18-.88-.27-1.35-.27-.47 0-.96.07-1.45.2s-.95.22-1.39.28-.84.05-1.21-.02c-.36-.07-.66-.31-.89-.7-.18-.3-.28-.59-.3-.86-.02-.28.02-.54.12-.79.1-.25.26-.48.46-.69.2-.21.44-.4.71-.56.41-.24.82-.36 1.22-.37.4 0 .82.04 1.27.13l.15-.92c-.51-.16-1.05-.22-1.6-.16-.56.05-1.07.22-1.53.49-.4.23-.75.51-1.03.83" fill="#fff"/><path d="M231.45 14.56c-.29.32-.5.67-.64 1.05-.13.38-.18.78-.15 1.2.04.42.18.84.43 1.26.32.54.69.9 1.11 1.07.42.17.86.24 1.32.22.46-.03.94-.1 1.42-.23.49-.13.95-.22 1.39-.28.44-.06.85-.04 1.23.06s.69.36.95.8c.35.6.43 1.16.24 1.7-.19.53-.58.97-1.15 1.3-.54.31-1.05.47-1.54.46-.49 0-1-.14-1.56-.42l-.35.9c.66.37 1.32.54 1.98.51.66-.03 1.31-.23 1.95-.6.41-.24.76-.53 1.04-.87.28-.34.49-.71.61-1.1.12-.39.16-.8.11-1.23s-.2-.85-.45-1.28c-.33-.55-.7-.92-1.13-1.1-.43-.18-.88-.27-1.35-.27-.47 0-.96.07-1.45.2s-.95.22-1.39.28-.84.05-1.21-.02c-.36-.07-.66-.3-.89-.7-.18-.3-.28-.59-.3-.86-.02-.28.02-.54.12-.79.1-.25.26-.48.46-.69.2-.21.44-.4.71-.56.41-.24.82-.36 1.22-.37.4 0 .82.04 1.27.13l.15-.92c-.51-.16-1.05-.22-1.6-.16-.56.05-1.07.22-1.53.48-.4.23-.75.51-1.03.83" fill="#fff"/><path d="M10.33 36.86C4.32 36.86 0 32.39 0 26.69c0-2.79 1.11-5.39 3.1-7.3 1.91-1.88 4.44-2.87 7.23-2.87s5.01.76 7.12 2.29l-2.64 3.75c-1.42-1.03-2.72-1.57-4.29-1.57-3.37 0-5.55 2.33-5.55 5.7s2.37 5.58 5.59 5.58c1.42 0 2.72-.54 4.29-1.53l2.6 3.67c-2.14 1.64-4.48 2.45-7.12 2.45M21.66 19.42c1.95-1.87 4.55-2.91 7.42-2.91s5.51 1.07 7.5 2.94c1.99 1.91 3.06 4.4 3.06 7.23s-1.07 5.35-3.06 7.27c-1.95 1.87-4.67 2.91-7.5 2.91s-5.43-.99-7.42-2.91c-1.99-1.95-3.1-4.47-3.1-7.27s1.07-5.32 3.1-7.27m7.42 13c3.02 0 5.59-2.56 5.59-5.74s-2.41-5.7-5.59-5.7-5.55 2.33-5.55 5.7 2.41 5.74 5.55 5.74M42.28 16.97l4.48-.3v2.83c1.53-2.07 3.33-3.02 5.63-3.02s4.17 1.15 5.01 3.17c1.65-2.14 3.44-3.17 5.78-3.17 3.64 0 5.62 2.45 5.62 7.23v12.74l-4.86.31V24.29c0-2.33-.73-3.48-2.53-3.48-2.3 0-3.48 1.61-3.48 4.74v10.9l-4.78.31V24.29c0-2.33-.69-3.48-2.49-3.48-2.3 0-3.52 1.61-3.52 4.74v10.9l-4.86.31V16.97ZM72.32 16.97l4.52-.3v2.83c1.64-1.91 3.87-2.91 6.66-2.91 5.47 0 9.68 4.36 9.68 10.1 0 2.91-1.07 5.51-3.1 7.46-1.87 1.8-4.02 2.68-6.58 2.68s-4.74-.84-6.28-2.48v8.53l-4.9.3V16.97Zm10.41 15.45c3.02 0 5.51-2.56 5.51-5.74 0-3.37-2.26-5.7-5.51-5.7s-5.51 2.33-5.51 5.7 2.41 5.74 5.51 5.74M98 19.42c1.95-1.87 4.55-2.91 7.42-2.91s5.51 1.07 7.5 2.94c1.99 1.91 3.06 4.4 3.06 7.23s-1.07 5.35-3.06 7.27c-1.95 1.87-4.67 2.91-7.5 2.91s-5.43-.99-7.42-2.91c-1.99-1.95-3.1-4.47-3.1-7.27s1.07-5.32 3.1-7.27m7.42 13c3.02 0 5.59-2.56 5.59-5.74s-2.41-5.7-5.59-5.7-5.55 2.33-5.55 5.7 2.41 5.74 5.55 5.74M118.66 16.97l4.48-.3v2.83c1.49-2.03 3.33-3.02 5.59-3.02 3.79 0 5.97 2.52 5.97 7.23v12.74l-4.9.31V25.17c0-2.91-.54-4.32-2.68-4.32-2.33 0-3.6 1.57-3.6 4.7v10.9l-4.86.31V16.97ZM147.82 36.86c-2.91 0-5.43-.99-7.43-2.91-2.03-1.95-3.1-4.47-3.1-7.27s1.03-5.28 3.1-7.27c2.03-1.99 4.44-2.91 7.43-2.91 4.06 0 7.39 2.03 9.49 5.85l-13.59 8.41c1.18 1.11 2.64 1.64 4.32 1.64 1.87 0 3.83-.8 6.12-2.26l1.95 4.09c-2.68 1.76-5.4 2.6-8.3 2.6m3.14-14.92c-.77-.84-1.84-1.3-3.21-1.3-3.18 0-5.66 2.41-5.66 5.85 0 .3 0 .57.04.88l8.84-5.43ZM159.15 16.97l4.48-.3v2.83c1.49-2.03 3.33-3.02 5.59-3.02 3.79 0 5.97 2.52 5.97 7.23v12.74l-4.9.31V25.17c0-2.91-.54-4.32-2.68-4.32-2.33 0-3.6 1.57-3.6 4.7v10.9l-4.86.31V16.97ZM187.12 36.94c-5.24 0-7.42-2.64-7.42-8.3v-7.42h-3.1l1.19-4.25h1.91V13.8l4.86-2.37v5.54h4.52v4.25h-4.52v7.46c0 2.83.69 3.86 3.56 3.86.42 0 1.07 0 1.91-.04l-1.23 4.36c-.69.04-1.26.08-1.68.08" fill="#2467b2"/><path d="M123.22 53.09c1.1 1.25 2.45 1.9 3.95 1.9 1.93 0 3.22-1.19 3.22-2.84s-1.04-2.33-3-2.82c-3.09-.77-4.96-1.65-4.96-4.41 0-2.3 1.96-4.31 5.02-4.31 1.68 0 3.25.55 4.56 1.71l-1.07 1.41c-1.16-1.01-2.39-1.53-3.52-1.53-1.99 0-3.18 1.13-3.18 2.66 0 2.14 2.05 2.23 4.13 2.81 2.57.73 3.89 2.14 3.89 4.25 0 2.72-2.17 4.77-5.2 4.77-2.14 0-3.86-.83-5.11-2.39l1.29-1.22ZM142.1 56.61c-4.68 0-8.08-3.49-8.08-7.98s3.49-7.96 8.08-7.96c2.91 0 5.14 1.29 6.37 3.67l-11.97 7.07c1.13 2.2 3.18 3.43 5.6 3.43 2.11 0 3.92-.92 6.06-2.6v2.2c-1.96 1.44-3.89 2.17-6.06 2.17m3.86-12.67c-.86-1.04-2.17-1.59-3.86-1.59-3.43 0-6.28 2.66-6.28 6.24 0 .28 0 .73.06 1.35l10.07-6ZM150.46 41l1.71-.21v2.6c1.29-1.87 2.94-2.78 4.99-2.78 3.28 0 5.33 2.05 5.33 5.87v9.76l-1.68.22v-9.12c0-3.52-1.35-5.29-4.07-5.29-2.36 0-4.56 1.99-4.56 4.68v9.51l-1.71.22V41.01ZM165.71 53.09c1.1 1.25 2.45 1.9 3.95 1.9 1.93 0 3.21-1.19 3.21-2.84s-1.04-2.33-3-2.82c-3.09-.77-4.96-1.65-4.96-4.41 0-2.3 1.96-4.31 5.02-4.31 1.68 0 3.24.55 4.56 1.71l-1.07 1.41c-1.16-1.01-2.39-1.53-3.52-1.53-1.99 0-3.18 1.13-3.18 2.66 0 2.14 2.05 2.23 4.13 2.81 2.57.73 3.89 2.14 3.89 4.25 0 2.72-2.17 4.77-5.2 4.77-2.14 0-3.86-.83-5.11-2.39l1.29-1.22ZM184.59 56.61c-4.68 0-8.08-3.49-8.08-7.98s3.49-7.96 8.08-7.96c2.91 0 5.14 1.29 6.37 3.67l-11.97 7.07c1.13 2.2 3.18 3.43 5.6 3.43 2.11 0 3.92-.92 6.06-2.6v2.2c-1.96 1.44-3.89 2.17-6.06 2.17m3.86-12.67c-.86-1.04-2.17-1.59-3.86-1.59-3.43 0-6.28 2.66-6.28 6.24 0 .28 0 .73.06 1.35l10.07-6Z" fill="#010101"/></svg>