<svg width="200" height="112.8" viewBox="0 0 200 112.8" xmlns="http://www.w3.org/2000/svg"><path d="m142.8 2.4-14 14 41.8 41.7-53.9 54h28.4l53.7-53.7z" fill="#a4c61f"/><path d="M29.5 54.3 83.3.5H54.9L1 54.3l56.3 56.3 14.3-14.3z" fill="#cb1421"/><path d="M96.2 13.3 83.3.5 69.1 14.7l12.8 12.9z" fill="#b62723"/><path d="M112.7.6 58.8 54.1l27.5 27.6 14.3-14.3-13.2-13.2L141 .6z" fill="#ee7d02"/><path d="m87.7 112.1 53.6-53.5-27.4-27.3-14.2 14.2 12.9 13-53.4 53.6z" fill="#3cb6e9"/><path d="M131 97.8 118.1 85l-14.2 14.3 12.8 12.8z" fill="#78932a"/></svg>