<svg width="103" height="44" viewBox="0 0 103 44" fill="none" xmlns="http://www.w3.org/2000/svg">
<g clip-path="url(#clip0_653_239)">
<path d="M40.2933 33.3948L38.8861 35.8316L38.4056 36.6553C38.3027 36.7583 38.1997 36.8956 38.0967 36.9985L38.3027 36.6553L38.7832 35.8316L40.1903 33.3948H40.2933Z" fill="#E30C2D"/>
<path d="M40.1903 33.3947L38.7832 35.8315L38.3027 36.6552L38.0967 36.9984C36.415 38.8175 34.39 40.3276 32.1934 41.4945C32.1591 41.4945 32.1248 41.5289 32.0905 41.5289C29.0702 43.1076 25.6381 43.9657 22 43.9657C9.85023 44 0 34.1154 0 21.9657C0 9.85023 9.88455 0 22.0343 0C29.3791 0 35.9002 3.63807 39.8814 9.19813H31.8159C29.1045 7.10452 25.7067 5.83463 22.0343 5.83463C13.1108 5.83463 5.86895 13.0764 5.83463 21.9657C5.83463 30.8892 13.0764 38.131 21.9657 38.1654C24.5398 38.1654 26.9766 37.5819 29.1388 36.4836C29.1732 36.4836 29.2075 36.4493 29.2418 36.4493C30.8206 35.6599 32.2278 34.6303 33.4633 33.3947H33.7722H38.9204H39.7442H40.0874H40.1903Z" fill="#E30C2D"/>
<path d="M95.3105 25.844L102.827 25.8783L101.351 30.8206H88.4119L92.5648 12.0125H98.3994L95.3105 25.844Z" fill="#E30C2D"/>
<path d="M90.8487 12.0126L81.8222 20.7302L87.0047 30.8207L80.3463 30.7864L77.429 23.9908L75.9532 25.5695L74.7863 30.7864H68.986L73.1388 11.9783H78.9392L77.4633 18.6366L83.6069 11.9783L90.8487 12.0126Z" fill="#E30C2D"/>
<path d="M61.8814 19.9065H58.415L59.0671 16.9549H62.4649C63.3572 16.9549 64.0437 17.504 64.0437 18.2934C64.0093 19.3574 63.117 19.9065 61.8814 19.9065ZM69.9126 17.6756C69.9126 14.2092 67.0296 11.9783 63.5975 11.9783H54.468L50.3151 30.7864H56.0125L57.3167 24.8488H59.5819L60.8861 30.7864H67.1326L65.2792 24.4369C67.716 23.5789 69.9126 21.0048 69.9126 17.6756Z" fill="#E30C2D"/>
<path d="M41.6318 32.6738L40.1903 35.1106L39.7442 35.9344L39.5382 36.3119L35.1794 43.7596L33.532 40.8423L33.4977 40.808L33.4634 40.7394L33.429 40.6707L33.3947 40.6364V40.6021L30.7863 36.106V36.0716L30.752 36.0373L30.7177 36.003V35.9687L30.6147 35.7971L30.5804 35.7284L28.7957 32.6738H34.1498H35.2137H40.3963H41.1857H41.5289H41.6318Z" fill="#E30C2D"/>
<path d="M42.181 30.855L42.1466 30.9923H42.1123C42.1466 30.9579 42.181 30.8893 42.181 30.855Z" fill="#E30C2D"/>
<path d="M53.0952 11.841L43.6911 23.167L43.4852 24.0937L42.8674 26.8394L42.1466 30.0999L42.0437 30.4775C42.0094 30.5118 42.0094 30.5804 41.975 30.6148H36.1747L36.2777 30.0999L37.5476 24.4026L37.8221 23.1327L37.5133 22.3776L37.4789 22.309L36.1747 19.0141L35.5226 17.3667L35.4883 17.2637L34.0468 13.6257V13.5914L33.3604 11.9096L33.326 11.8066H40.0874H40.1903L40.2933 12.0812L41.9407 17.2637L46.1622 11.8066L53.0952 11.841Z" fill="#E30C2D"/>
</g>
<defs>
<clipPath id="clip0_653_239">
<rect width="102.827" height="44" fill="white"/>
</clipPath>
</defs>
</svg>