<?xml version="1.0" encoding="UTF-8"?>
<svg id="Layer_1" data-name="Layer 1" xmlns="http://www.w3.org/2000/svg" viewBox="0 0 1749.2 939.24">
  <defs>
    <style>
      .cls-1 {
        stroke-width: 0px;
      }
    </style>
  </defs>
  <path class="cls-1" d="M909.84,622.84c-47.54-23-84.01-55.37-109.43-97.15-25.41-41.76-38.14-89.89-38.14-144.35,0-72.03,16.49-136.95,49.48-194.76,32.99-57.78,79.44-103.34,139.37-136.64C1011.06,16.66,1079.74,0,1157.22,0c56.89,0,107.13,9.69,150.72,29.06,43.58,19.39,76.57,47.21,98.97,83.52l-106.23,87.17c-33.91-49.63-85.06-74.46-153.43-74.46-46.63,0-87.78,10.9-123.5,32.69-35.7,21.79-63.4,51.45-83.06,88.97-19.67,37.54-29.5,79.3-29.5,125.29,0,49.03,15.57,87.93,46.75,116.68,31.16,28.74,74.9,43.12,131.19,43.12,67.19,0,123.5-24.51,168.87-73.54l87.18,88.98c-62.97,73.24-152.53,109.87-268.77,109.87-63.54,0-119.08-11.5-166.57-34.52Z"/>
  <path class="cls-1" d="M1749.2,10.91l-127.13,635.53h-147.08l103.51-517.51h-127.1l23.6-118.03h274.2Z"/>
  <path class="cls-1" d="M679.22,135.29c-25.13-39.95-61.13-70.66-108.04-92.16-46.91-21.48-102.74-32.22-167.5-32.22H137.66l-24.17,120.74h273.87c58.69,0,103.48,13.47,134.34,40.4,30.88,26.94,46.32,64.32,46.32,112.14s-9.68,87.32-29.07,123.93c-19.38,36.63-47.35,65.37-83.97,86.25-36.64,20.89-79.76,31.32-129.38,31.32h-143.45l33.14-165.3H67.78L10.56,646.45h310.52c78.08,0,146.93-15.27,206.55-45.85,59.61-30.55,106.07-73.84,139.37-129.83,33.27-55.97,49.94-120.89,49.94-194.74-.02-53.87-12.6-100.79-37.71-140.73Z"/>
  <path class="cls-1" d="M45.67,810.15c-9.24,0-17.31-1.67-24.23-5.02-6.91-3.34-12.2-8.05-15.9-14.13-3.7-6.07-5.54-13.06-5.54-20.98,0-10.47,2.4-19.91,7.19-28.31,4.8-8.4,11.56-15.02,20.27-19.85,8.71-4.84,18.69-7.27,29.96-7.27,8.28,0,15.58,1.41,21.92,4.23,6.33,2.81,11.13,6.85,14.4,12.13l-15.46,12.69c-4.92-7.22-12.35-10.83-22.29-10.83-6.78,0-12.77,1.58-17.96,4.75-5.2,3.17-9.22,7.48-12.08,12.94-2.86,5.46-4.29,11.54-4.29,18.23,0,7.13,2.26,12.78,6.79,16.96,4.54,4.18,10.9,6.27,19.08,6.27,9.76,0,17.95-3.57,24.56-10.71l12.67,12.94c-9.16,10.66-22.18,15.98-39.08,15.98Z"/>
  <path class="cls-1" d="M197.06,716.17l-18.48,92.4h-21.38l7.52-37.63h-41.83l-7.52,37.63h-21.52l18.48-92.4h21.52l-7.27,36.29h41.85l7.25-36.29h21.38Z"/>
  <path class="cls-1" d="M266.22,788.77h-43.02l-12.02,19.79h-22.83l59.79-92.4h21.13l22.71,92.4h-21.4l-4.35-19.79ZM262.66,772.52l-7.79-35.63-21.77,35.63h29.56Z"/>
  <path class="cls-1" d="M404.8,716.17l-18.48,92.4h-17.54l-34.46-57.81-11.6,57.81h-21.13l18.48-92.4h17.69l34.46,57.94,11.48-57.94h21.1Z"/>
  <path class="cls-1" d="M480.3,760.92h19.54l-7.67,38c-4.66,3.61-10.06,6.39-16.23,8.33-6.16,1.93-12.54,2.9-19.15,2.9-9.24,0-17.29-1.67-24.15-5.02-6.86-3.34-12.17-8.05-15.92-14.13-3.74-6.07-5.6-13.06-5.6-20.98,0-10.47,2.42-19.93,7.25-28.38,4.84-8.46,11.67-15.08,20.46-19.88,8.8-4.79,18.93-7.19,30.38-7.19,8.8,0,16.44,1.37,22.9,4.1,6.47,2.72,11.69,6.72,15.65,12l-15.31,12.4c-3.08-3.59-6.56-6.21-10.44-7.83-3.86-1.64-8.43-2.46-13.71-2.46-7.04,0-13.25,1.56-18.63,4.69-5.36,3.13-9.52,7.42-12.48,12.88-2.95,5.46-4.42,11.58-4.42,18.35,0,7.13,2.31,12.78,6.94,16.96,4.63,4.18,11.24,6.27,19.85,6.27,5.46,0,10.56-1.1,15.31-3.31l5.42-27.71Z"/>
  <path class="cls-1" d="M528.48,716.17h21.52l-18.48,92.4h-21.52l18.48-92.4Z"/>
  <path class="cls-1" d="M656.5,716.17l-18.48,92.4h-17.54l-34.46-57.81-11.6,57.81h-21.13l18.48-92.4h17.69l34.46,57.94,11.48-57.94h21.1Z"/>
  <path class="cls-1" d="M732,760.92h19.54l-7.67,38c-4.66,3.61-10.06,6.39-16.23,8.33-6.16,1.93-12.54,2.9-19.15,2.9-9.24,0-17.29-1.67-24.15-5.02-6.86-3.34-12.17-8.05-15.92-14.13-3.74-6.07-5.6-13.06-5.6-20.98,0-10.47,2.42-19.93,7.25-28.38,4.84-8.46,11.67-15.08,20.46-19.88,8.8-4.79,18.93-7.19,30.38-7.19,8.8,0,16.44,1.37,22.9,4.1,6.47,2.72,11.69,6.72,15.65,12l-15.31,12.4c-3.08-3.59-6.56-6.21-10.44-7.83-3.86-1.64-8.43-2.46-13.71-2.46-7.04,0-13.25,1.56-18.63,4.69-5.36,3.13-9.52,7.42-12.48,12.88-2.95,5.46-4.42,11.58-4.42,18.35,0,7.13,2.31,12.78,6.94,16.96,4.63,4.18,11.24,6.27,19.85,6.27,5.46,0,10.56-1.1,15.31-3.31l5.42-27.71Z"/>
  <path class="cls-1" d="M833.09,733.58h-29.56l3.56-17.42h80.52l-3.56,17.42h-29.44l-15.04,74.98h-21.4l14.92-74.98Z"/>
  <path class="cls-1" d="M983.82,716.17l-18.48,92.4h-21.38l7.52-37.63h-41.83l-7.52,37.63h-21.52l18.48-92.4h21.52l-7.27,36.29h41.85l7.25-36.29h21.38Z"/>
  <path class="cls-1" d="M1023.55,733.31l-3.96,20.08h42.9l-3.29,16.63h-43.04l-4.21,21.38h50.42l-3.56,17.17h-71.54l18.48-92.4h69.83l-3.58,17.15h-48.44Z"/>
  <path class="cls-1" d="M1169,716.17c11.53,0,20.44,2.53,26.73,7.58,6.29,5.06,9.44,12.12,9.44,21.19,0,7.75-1.83,14.51-5.48,20.27-3.66,5.77-8.85,10.19-15.58,13.27-6.72,3.07-14.66,4.6-23.81,4.6h-20.6l-5,25.48h-21.52l18.48-92.4h37.35ZM1161.21,765.67c7.13,0,12.63-1.63,16.5-4.88,3.88-3.26,5.81-7.93,5.81-14,0-4.4-1.48-7.7-4.44-9.9-2.95-2.21-7.19-3.31-12.73-3.31h-16.77l-6.46,32.08h18.08Z"/>
  <path class="cls-1" d="M1228.26,716.17h21.52l-15.06,74.98h46.33l-3.56,17.42h-67.71l18.48-92.4Z"/>
  <path class="cls-1" d="M1355.23,788.77h-43.02l-12.02,19.79h-22.83l59.79-92.4h21.13l22.71,92.4h-21.4l-4.35-19.79ZM1351.67,772.52l-7.79-35.63-21.77,35.63h29.56Z"/>
  <path class="cls-1" d="M1493.81,716.17l-18.48,92.4h-17.54l-34.46-57.81-11.6,57.81h-21.13l18.48-92.4h17.69l34.46,57.94,11.48-57.94h21.1Z"/>
  <path class="cls-1" d="M1533.54,733.31l-3.96,20.08h42.9l-3.29,16.63h-43.04l-4.21,21.38h50.42l-3.56,17.17h-71.54l18.48-92.4h69.83l-3.58,17.15h-48.44Z"/>
  <path class="cls-1" d="M1619.85,733.58h-29.56l3.56-17.42h80.52l-3.56,17.42h-29.44l-15.04,74.98h-21.4l14.92-74.98Z"/>
  <path class="cls-1" d="M484.33,891.59c3.96,1.58,7.01,3.94,9.17,7.06,2.17,3.13,3.25,6.93,3.25,11.42,0,9.58-3.79,16.84-11.35,21.77-7.57,4.93-17.65,7.4-30.23,7.4h-48.44l18.48-92.4h44.6c9.94,0,17.59,1.83,22.96,5.48,5.38,3.66,8.06,8.87,8.06,15.65,0,5.63-1.47,10.45-4.42,14.46-2.95,4-6.97,7.06-12.08,9.17ZM443.14,862.94l-4.35,21.77h21.79c5.63,0,10-1.11,13.13-3.35,3.13-2.25,4.69-5.48,4.69-9.71,0-5.8-4.53-8.71-13.58-8.71h-21.67ZM456.48,923.13c5.98,0,10.65-1.14,14-3.42,3.34-2.29,5.02-5.59,5.02-9.92,0-6.33-4.62-9.5-13.85-9.5h-25.88l-4.5,22.83h25.21Z"/>
  <path class="cls-1" d="M526.17,846.84h21.52l-18.48,92.4h-21.52l18.48-92.4Z"/>
  <path class="cls-1" d="M585.03,864.26h-29.56l3.56-17.42h80.52l-3.56,17.42h-29.44l-15.04,74.98h-21.4l14.92-74.98Z"/>
  <path class="cls-1" d="M747.51,891.59c3.96,1.58,7.01,3.94,9.17,7.06,2.17,3.13,3.25,6.93,3.25,11.42,0,9.58-3.79,16.84-11.35,21.77-7.57,4.93-17.65,7.4-30.23,7.4h-48.44l18.48-92.4h44.6c9.94,0,17.59,1.83,22.96,5.48,5.38,3.66,8.06,8.87,8.06,15.65,0,5.63-1.47,10.45-4.42,14.46-2.95,4-6.97,7.06-12.08,9.17ZM706.32,862.94l-4.35,21.77h21.79c5.63,0,10-1.11,13.13-3.35,3.13-2.25,4.69-5.48,4.69-9.71,0-5.8-4.53-8.71-13.58-8.71h-21.67ZM719.65,923.13c5.98,0,10.65-1.14,14-3.42,3.34-2.29,5.02-5.59,5.02-9.92,0-6.33-4.62-9.5-13.85-9.5h-25.88l-4.5,22.83h25.21Z"/>
  <path class="cls-1" d="M821.56,907.15l-6.33,32.08h-21.4l6.48-33-23.77-59.4h21.4l16.5,41.19,33.13-41.19h22.04l-48.04,60.31Z"/>
  <path class="cls-1" d="M975.05,891.59c3.96,1.58,7.01,3.94,9.17,7.06,2.17,3.13,3.25,6.93,3.25,11.42,0,9.58-3.79,16.84-11.35,21.77-7.57,4.93-17.65,7.4-30.23,7.4h-48.44l18.48-92.4h44.6c9.94,0,17.59,1.83,22.96,5.48,5.38,3.66,8.06,8.87,8.06,15.65,0,5.63-1.47,10.45-4.42,14.46-2.95,4-6.97,7.06-12.08,9.17ZM933.86,862.94l-4.35,21.77h21.79c5.63,0,10-1.11,13.13-3.35,3.13-2.25,4.69-5.48,4.69-9.71,0-5.8-4.53-8.71-13.58-8.71h-21.67ZM947.2,923.13c5.98,0,10.65-1.14,14-3.42,3.34-2.29,5.02-5.59,5.02-9.92,0-6.33-4.62-9.5-13.85-9.5h-25.88l-4.5,22.83h25.21Z"/>
  <path class="cls-1" d="M1049.1,907.15l-6.33,32.08h-21.4l6.48-33-23.77-59.4h21.4l16.5,41.19,33.13-41.19h22.04l-48.04,60.31Z"/>
  <path class="cls-1" d="M1121.68,864.26h-29.56l3.56-17.42h80.52l-3.56,17.42h-29.44l-15.04,74.98h-21.4l14.92-74.98Z"/>
  <path class="cls-1" d="M1205.5,863.99l-3.96,20.08h42.9l-3.29,16.63h-43.04l-4.21,21.38h50.42l-3.56,17.17h-71.54l18.48-92.4h69.83l-3.58,17.15h-48.44Z"/>
  <path class="cls-1" d="M1311.78,854.01h-12.6l-5.9,29.56h-10.08l5.9-29.56h-12.6l1.52-7.52h35.29l-1.52,7.52ZM1363.6,846.49l-7.25,37.08h-9.38l4.1-20.81-14.29,16.98h-4.54l-8.13-17.17-4.21,21h-9.38l7.42-37.08h8.04l10.44,22.44,18.67-22.44h8.5Z"/>
</svg>