<svg xmlns="http://www.w3.org/2000/svg" xmlns:xlink="http://www.w3.org/1999/xlink" width="1920" zoomAndPan="magnify" viewBox="0 0 1440 809.999993" height="1080" preserveAspectRatio="xMidYMid meet" version="1.0"><defs><g/></defs><path fill="#ffffff" d="M 741.59375 524.878906 C 705.9375 507.628906 678.585938 483.351562 659.523438 452.015625 C 640.464844 420.695312 630.921875 384.601562 630.921875 343.753906 C 630.921875 289.734375 643.289062 241.042969 668.035156 197.683594 C 692.78125 154.347656 727.617188 120.179688 772.5625 95.207031 C 817.503906 70.246094 869.015625 57.75 927.128906 57.75 C 969.792969 57.75 1007.476562 65.019531 1040.171875 79.542969 C 1072.855469 94.082031 1097.601562 114.949219 1114.398438 142.183594 L 1034.726562 207.5625 C 1009.292969 170.339844 970.929688 151.71875 919.652344 151.71875 C 884.679688 151.71875 853.816406 159.894531 827.027344 176.238281 C 800.25 192.578125 779.476562 214.824219 764.730469 242.96875 C 749.976562 271.121094 742.605469 302.445312 742.605469 336.9375 C 742.605469 373.707031 754.285156 402.886719 777.667969 424.445312 C 801.039062 446 833.84375 456.785156 876.0625 456.785156 C 926.457031 456.785156 968.6875 438.40625 1002.714844 401.628906 L 1068.097656 468.363281 C 1020.871094 523.292969 953.699219 550.765625 866.523438 550.765625 C 818.867188 550.765625 777.214844 542.140625 741.59375 524.878906 Z M 741.59375 524.878906 " fill-opacity="1" fill-rule="nonzero"/><path fill="#ffffff" d="M 1371.109375 65.929688 L 1275.761719 542.578125 L 1165.453125 542.578125 L 1243.085938 154.445312 L 1147.761719 154.445312 L 1165.460938 65.925781 L 1371.109375 65.925781 Z M 1371.109375 65.929688 " fill-opacity="1" fill-rule="nonzero"/><path fill="#ffffff" d="M 568.628906 159.21875 C 549.78125 129.257812 522.78125 106.226562 487.597656 90.101562 C 452.417969 73.992188 410.542969 65.9375 361.972656 65.9375 L 162.457031 65.9375 L 144.328125 156.492188 L 349.730469 156.492188 C 393.746094 156.492188 427.34375 166.597656 450.488281 186.792969 C 473.648438 206.996094 485.226562 235.035156 485.226562 270.894531 C 485.226562 305.390625 477.964844 336.382812 463.425781 363.84375 C 448.894531 391.316406 427.914062 412.871094 400.449219 428.53125 C 372.96875 444.195312 340.632812 452.023438 303.414062 452.023438 L 195.828125 452.023438 L 220.679688 328.046875 L 110.046875 328.046875 L 67.128906 542.585938 L 300.015625 542.585938 C 358.574219 542.585938 410.210938 531.132812 454.925781 508.195312 C 499.632812 485.28125 534.480469 452.816406 559.453125 410.820312 C 584.40625 368.839844 596.910156 320.15625 596.910156 264.765625 C 596.898438 224.363281 587.460938 189.175781 568.628906 159.21875 Z M 568.628906 159.21875 " fill-opacity="1" fill-rule="nonzero"/><g fill="#ffffff" fill-opacity="1"><g transform="translate(54.165568, 664.172389)"><g><path d="M 39.296875 1.1875 C 32.367188 1.1875 26.3125 -0.0664062 21.125 -2.578125 C 15.945312 -5.085938 11.972656 -8.617188 9.203125 -13.171875 C 6.429688 -17.722656 5.046875 -22.96875 5.046875 -28.90625 C 5.046875 -36.757812 6.84375 -43.835938 10.4375 -50.140625 C 14.039062 -56.441406 19.109375 -61.40625 25.640625 -65.03125 C 32.171875 -68.664062 39.660156 -70.484375 48.109375 -70.484375 C 54.316406 -70.484375 59.796875 -69.425781 64.546875 -67.3125 C 69.296875 -65.207031 72.894531 -62.175781 75.34375 -58.21875 L 63.75 -48.703125 C 60.0625 -54.117188 54.488281 -56.828125 47.03125 -56.828125 C 41.945312 -56.828125 37.457031 -55.640625 33.5625 -53.265625 C 29.664062 -50.890625 26.644531 -47.65625 24.5 -43.5625 C 22.351562 -39.46875 21.28125 -34.910156 21.28125 -29.890625 C 21.28125 -24.546875 22.976562 -20.304688 26.375 -17.171875 C 29.78125 -14.035156 34.550781 -12.46875 40.6875 -12.46875 C 48.007812 -12.46875 54.148438 -15.144531 59.109375 -20.5 L 68.609375 -10.796875 C 61.742188 -2.804688 51.972656 1.1875 39.296875 1.1875 Z M 39.296875 1.1875 "/></g></g></g><g fill="#ffffff" fill-opacity="1"><g transform="translate(126.724377, 664.172389)"><g><path d="M 80.28125 -69.296875 L 66.421875 0 L 50.390625 0 L 56.03125 -28.21875 L 24.65625 -28.21875 L 19.015625 0 L 2.875 0 L 16.734375 -69.296875 L 32.875 -69.296875 L 27.421875 -42.078125 L 58.8125 -42.078125 L 64.25 -69.296875 Z M 80.28125 -69.296875 "/></g></g></g><g fill="#ffffff" fill-opacity="1"><g transform="translate(206.707356, 664.172389)"><g><path d="M 52.171875 -14.84375 L 19.90625 -14.84375 L 10.890625 0 L -6.234375 0 L 38.609375 -69.296875 L 54.453125 -69.296875 L 71.484375 0 L 55.4375 0 Z M 49.5 -27.03125 L 43.65625 -53.75 L 27.328125 -27.03125 Z M 49.5 -27.03125 "/></g></g></g><g fill="#ffffff" fill-opacity="1"><g transform="translate(282.532803, 664.172389)"><g><path d="M 80.28125 -69.296875 L 66.421875 0 L 53.265625 0 L 27.421875 -43.359375 L 18.71875 0 L 2.875 0 L 16.734375 -69.296875 L 30 -69.296875 L 55.84375 -25.84375 L 64.453125 -69.296875 Z M 80.28125 -69.296875 "/></g></g></g><g fill="#ffffff" fill-opacity="1"><g transform="translate(362.515797, 664.172389)"><g><path d="M 56.921875 -35.734375 L 71.578125 -35.734375 L 65.828125 -7.234375 C 62.335938 -4.523438 58.28125 -2.441406 53.65625 -0.984375 C 49.039062 0.460938 44.253906 1.1875 39.296875 1.1875 C 32.367188 1.1875 26.332031 -0.0664062 21.1875 -2.578125 C 16.039062 -5.085938 12.0625 -8.617188 9.25 -13.171875 C 6.445312 -17.722656 5.046875 -22.96875 5.046875 -28.90625 C 5.046875 -36.757812 6.859375 -43.851562 10.484375 -50.1875 C 14.117188 -56.53125 19.234375 -61.5 25.828125 -65.09375 C 32.429688 -68.6875 40.023438 -70.484375 48.609375 -70.484375 C 55.210938 -70.484375 60.9375 -69.457031 65.78125 -67.40625 C 70.632812 -65.363281 74.546875 -62.363281 77.515625 -58.40625 L 66.03125 -49.109375 C 63.71875 -51.804688 61.109375 -53.765625 58.203125 -54.984375 C 55.304688 -56.210938 51.878906 -56.828125 47.921875 -56.828125 C 42.640625 -56.828125 37.984375 -55.65625 33.953125 -53.3125 C 29.929688 -50.96875 26.8125 -47.75 24.59375 -43.65625 C 22.382812 -39.5625 21.28125 -34.972656 21.28125 -29.890625 C 21.28125 -24.546875 23.015625 -20.304688 26.484375 -17.171875 C 29.953125 -14.035156 34.914062 -12.46875 41.375 -12.46875 C 45.46875 -12.46875 49.296875 -13.296875 52.859375 -14.953125 Z M 56.921875 -35.734375 "/></g></g></g><g fill="#ffffff" fill-opacity="1"><g transform="translate(438.83617, 664.172389)"><g><path d="M 16.734375 -69.296875 L 32.875 -69.296875 L 19.015625 0 L 2.875 0 Z M 16.734375 -69.296875 "/></g></g></g><g fill="#ffffff" fill-opacity="1"><g transform="translate(471.304516, 664.172389)"><g><path d="M 80.28125 -69.296875 L 66.421875 0 L 53.265625 0 L 27.421875 -43.359375 L 18.71875 0 L 2.875 0 L 16.734375 -69.296875 L 30 -69.296875 L 55.84375 -25.84375 L 64.453125 -69.296875 Z M 80.28125 -69.296875 "/></g></g></g><g fill="#ffffff" fill-opacity="1"><g transform="translate(551.287495, 664.172389)"><g><path d="M 56.921875 -35.734375 L 71.578125 -35.734375 L 65.828125 -7.234375 C 62.335938 -4.523438 58.28125 -2.441406 53.65625 -0.984375 C 49.039062 0.460938 44.253906 1.1875 39.296875 1.1875 C 32.367188 1.1875 26.332031 -0.0664062 21.1875 -2.578125 C 16.039062 -5.085938 12.0625 -8.617188 9.25 -13.171875 C 6.445312 -17.722656 5.046875 -22.96875 5.046875 -28.90625 C 5.046875 -36.757812 6.859375 -43.851562 10.484375 -50.1875 C 14.117188 -56.53125 19.234375 -61.5 25.828125 -65.09375 C 32.429688 -68.6875 40.023438 -70.484375 48.609375 -70.484375 C 55.210938 -70.484375 60.9375 -69.457031 65.78125 -67.40625 C 70.632812 -65.363281 74.546875 -62.363281 77.515625 -58.40625 L 66.03125 -49.109375 C 63.71875 -51.804688 61.109375 -53.765625 58.203125 -54.984375 C 55.304688 -56.210938 51.878906 -56.828125 47.921875 -56.828125 C 42.640625 -56.828125 37.984375 -55.65625 33.953125 -53.3125 C 29.929688 -50.96875 26.8125 -47.75 24.59375 -43.65625 C 22.382812 -39.5625 21.28125 -34.972656 21.28125 -29.890625 C 21.28125 -24.546875 23.015625 -20.304688 26.484375 -17.171875 C 29.953125 -14.035156 34.914062 -12.46875 41.375 -12.46875 C 45.46875 -12.46875 49.296875 -13.296875 52.859375 -14.953125 Z M 56.921875 -35.734375 "/></g></g></g><g fill="#ffffff" fill-opacity="1"><g transform="translate(627.607898, 664.172389)"><g/></g></g><g fill="#ffffff" fill-opacity="1"><g transform="translate(655.621703, 664.172389)"><g><path d="M 28.40625 -56.234375 L 6.234375 -56.234375 L 8.90625 -69.296875 L 69.296875 -69.296875 L 66.625 -56.234375 L 44.546875 -56.234375 L 33.265625 0 L 17.21875 0 Z M 28.40625 -56.234375 "/></g></g></g><g fill="#ffffff" fill-opacity="1"><g transform="translate(716.796817, 664.172389)"><g><path d="M 80.28125 -69.296875 L 66.421875 0 L 50.390625 0 L 56.03125 -28.21875 L 24.65625 -28.21875 L 19.015625 0 L 2.875 0 L 16.734375 -69.296875 L 32.875 -69.296875 L 27.421875 -42.078125 L 58.8125 -42.078125 L 64.25 -69.296875 Z M 80.28125 -69.296875 "/></g></g></g><g fill="#ffffff" fill-opacity="1"><g transform="translate(796.779765, 664.172389)"><g><path d="M 30.09375 -56.4375 L 27.125 -41.375 L 59.296875 -41.375 L 56.828125 -28.90625 L 24.546875 -28.90625 L 21.390625 -12.875 L 59.203125 -12.875 L 56.53125 0 L 2.875 0 L 16.734375 -69.296875 L 69.109375 -69.296875 L 66.421875 -56.4375 Z M 30.09375 -56.4375 "/></g></g></g><g fill="#ffffff" fill-opacity="1"><g transform="translate(863.201265, 664.172389)"><g/></g></g><g fill="#ffffff" fill-opacity="1"><g transform="translate(891.21507, 664.172389)"><g><path d="M 44.75 -69.296875 C 53.394531 -69.296875 60.078125 -67.398438 64.796875 -63.609375 C 69.515625 -59.816406 71.875 -54.519531 71.875 -47.71875 C 71.875 -41.90625 70.503906 -36.835938 67.765625 -32.515625 C 65.023438 -28.191406 61.128906 -24.875 56.078125 -22.5625 C 51.035156 -20.257812 45.082031 -19.109375 38.21875 -19.109375 L 22.765625 -19.109375 L 19.015625 0 L 2.875 0 L 16.734375 -69.296875 Z M 38.90625 -32.171875 C 44.25 -32.171875 48.375 -33.390625 51.28125 -35.828125 C 54.1875 -38.273438 55.640625 -41.773438 55.640625 -46.328125 C 55.640625 -49.628906 54.53125 -52.101562 52.3125 -53.75 C 50.101562 -55.40625 46.921875 -56.234375 42.765625 -56.234375 L 30.1875 -56.234375 L 25.34375 -32.171875 Z M 38.90625 -32.171875 "/></g></g></g><g fill="#ffffff" fill-opacity="1"><g transform="translate(963.674921, 664.172389)"><g><path d="M 16.734375 -69.296875 L 32.875 -69.296875 L 21.578125 -13.0625 L 56.328125 -13.0625 L 53.65625 0 L 2.875 0 Z M 16.734375 -69.296875 "/></g></g></g><g fill="#ffffff" fill-opacity="1"><g transform="translate(1023.464171, 664.172389)"><g><path d="M 52.171875 -14.84375 L 19.90625 -14.84375 L 10.890625 0 L -6.234375 0 L 38.609375 -69.296875 L 54.453125 -69.296875 L 71.484375 0 L 55.4375 0 Z M 49.5 -27.03125 L 43.65625 -53.75 L 27.328125 -27.03125 Z M 49.5 -27.03125 "/></g></g></g><g fill="#ffffff" fill-opacity="1"><g transform="translate(1099.289649, 664.172389)"><g><path d="M 80.28125 -69.296875 L 66.421875 0 L 53.265625 0 L 27.421875 -43.359375 L 18.71875 0 L 2.875 0 L 16.734375 -69.296875 L 30 -69.296875 L 55.84375 -25.84375 L 64.453125 -69.296875 Z M 80.28125 -69.296875 "/></g></g></g><g fill="#ffffff" fill-opacity="1"><g transform="translate(1179.272658, 664.172389)"><g><path d="M 30.09375 -56.4375 L 27.125 -41.375 L 59.296875 -41.375 L 56.828125 -28.90625 L 24.546875 -28.90625 L 21.390625 -12.875 L 59.203125 -12.875 L 56.53125 0 L 2.875 0 L 16.734375 -69.296875 L 69.109375 -69.296875 L 66.421875 -56.4375 Z M 30.09375 -56.4375 "/></g></g></g><g fill="#ffffff" fill-opacity="1"><g transform="translate(1245.694158, 664.172389)"><g><path d="M 28.40625 -56.234375 L 6.234375 -56.234375 L 8.90625 -69.296875 L 69.296875 -69.296875 L 66.625 -56.234375 L 44.546875 -56.234375 L 33.265625 0 L 17.21875 0 Z M 28.40625 -56.234375 "/></g></g></g><g fill="#ffffff" fill-opacity="1"><g transform="translate(361.382207, 762.176698)"><g><path d="M 61.078125 -35.734375 C 64.046875 -34.546875 66.335938 -32.78125 67.953125 -30.4375 C 69.578125 -28.09375 70.390625 -25.238281 70.390625 -21.875 C 70.390625 -14.6875 67.550781 -9.242188 61.875 -5.546875 C 56.195312 -1.847656 48.640625 0 39.203125 0 L 2.875 0 L 16.734375 -69.296875 L 50.1875 -69.296875 C 57.644531 -69.296875 63.382812 -67.925781 67.40625 -65.1875 C 71.4375 -62.445312 73.453125 -58.535156 73.453125 -53.453125 C 73.453125 -49.234375 72.347656 -45.617188 70.140625 -42.609375 C 67.929688 -39.609375 64.910156 -37.316406 61.078125 -35.734375 Z M 30.1875 -57.21875 L 26.921875 -40.890625 L 43.265625 -40.890625 C 47.484375 -40.890625 50.765625 -41.726562 53.109375 -43.40625 C 55.453125 -45.09375 56.625 -47.519531 56.625 -50.6875 C 56.625 -55.039062 53.226562 -57.21875 46.4375 -57.21875 Z M 40.1875 -12.078125 C 44.675781 -12.078125 48.175781 -12.929688 50.6875 -14.640625 C 53.195312 -16.359375 54.453125 -18.835938 54.453125 -22.078125 C 54.453125 -26.828125 50.988281 -29.203125 44.0625 -29.203125 L 24.65625 -29.203125 L 21.28125 -12.078125 Z M 40.1875 -12.078125 "/></g></g></g><g fill="#ffffff" fill-opacity="1"><g transform="translate(437.108666, 762.176698)"><g><path d="M 16.734375 -69.296875 L 32.875 -69.296875 L 19.015625 0 L 2.875 0 Z M 16.734375 -69.296875 "/></g></g></g><g fill="#ffffff" fill-opacity="1"><g transform="translate(469.576997, 762.176698)"><g><path d="M 28.40625 -56.234375 L 6.234375 -56.234375 L 8.90625 -69.296875 L 69.296875 -69.296875 L 66.625 -56.234375 L 44.546875 -56.234375 L 33.265625 0 L 17.21875 0 Z M 28.40625 -56.234375 "/></g></g></g><g fill="#ffffff" fill-opacity="1"><g transform="translate(530.752096, 762.176698)"><g/></g></g><g fill="#ffffff" fill-opacity="1"><g transform="translate(558.765932, 762.176698)"><g><path d="M 61.078125 -35.734375 C 64.046875 -34.546875 66.335938 -32.78125 67.953125 -30.4375 C 69.578125 -28.09375 70.390625 -25.238281 70.390625 -21.875 C 70.390625 -14.6875 67.550781 -9.242188 61.875 -5.546875 C 56.195312 -1.847656 48.640625 0 39.203125 0 L 2.875 0 L 16.734375 -69.296875 L 50.1875 -69.296875 C 57.644531 -69.296875 63.382812 -67.925781 67.40625 -65.1875 C 71.4375 -62.445312 73.453125 -58.535156 73.453125 -53.453125 C 73.453125 -49.234375 72.347656 -45.617188 70.140625 -42.609375 C 67.929688 -39.609375 64.910156 -37.316406 61.078125 -35.734375 Z M 30.1875 -57.21875 L 26.921875 -40.890625 L 43.265625 -40.890625 C 47.484375 -40.890625 50.765625 -41.726562 53.109375 -43.40625 C 55.453125 -45.09375 56.625 -47.519531 56.625 -50.6875 C 56.625 -55.039062 53.226562 -57.21875 46.4375 -57.21875 Z M 40.1875 -12.078125 C 44.675781 -12.078125 48.175781 -12.929688 50.6875 -14.640625 C 53.195312 -16.359375 54.453125 -18.835938 54.453125 -22.078125 C 54.453125 -26.828125 50.988281 -29.203125 44.0625 -29.203125 L 24.65625 -29.203125 L 21.28125 -12.078125 Z M 40.1875 -12.078125 "/></g></g></g><g fill="#ffffff" fill-opacity="1"><g transform="translate(634.492391, 762.176698)"><g><path d="M 40.890625 -24.0625 L 36.140625 0 L 20.09375 0 L 24.953125 -24.75 L 7.125 -69.296875 L 23.171875 -69.296875 L 35.546875 -38.40625 L 60.390625 -69.296875 L 76.921875 -69.296875 Z M 40.890625 -24.0625 "/></g></g></g><g fill="#ffffff" fill-opacity="1"><g transform="translate(701.408847, 762.176698)"><g/></g></g><g fill="#ffffff" fill-opacity="1"><g transform="translate(729.422682, 762.176698)"><g><path d="M 61.078125 -35.734375 C 64.046875 -34.546875 66.335938 -32.78125 67.953125 -30.4375 C 69.578125 -28.09375 70.390625 -25.238281 70.390625 -21.875 C 70.390625 -14.6875 67.550781 -9.242188 61.875 -5.546875 C 56.195312 -1.847656 48.640625 0 39.203125 0 L 2.875 0 L 16.734375 -69.296875 L 50.1875 -69.296875 C 57.644531 -69.296875 63.382812 -67.925781 67.40625 -65.1875 C 71.4375 -62.445312 73.453125 -58.535156 73.453125 -53.453125 C 73.453125 -49.234375 72.347656 -45.617188 70.140625 -42.609375 C 67.929688 -39.609375 64.910156 -37.316406 61.078125 -35.734375 Z M 30.1875 -57.21875 L 26.921875 -40.890625 L 43.265625 -40.890625 C 47.484375 -40.890625 50.765625 -41.726562 53.109375 -43.40625 C 55.453125 -45.09375 56.625 -47.519531 56.625 -50.6875 C 56.625 -55.039062 53.226562 -57.21875 46.4375 -57.21875 Z M 40.1875 -12.078125 C 44.675781 -12.078125 48.175781 -12.929688 50.6875 -14.640625 C 53.195312 -16.359375 54.453125 -18.835938 54.453125 -22.078125 C 54.453125 -26.828125 50.988281 -29.203125 44.0625 -29.203125 L 24.65625 -29.203125 L 21.28125 -12.078125 Z M 40.1875 -12.078125 "/></g></g></g><g fill="#ffffff" fill-opacity="1"><g transform="translate(805.149157, 762.176698)"><g><path d="M 40.890625 -24.0625 L 36.140625 0 L 20.09375 0 L 24.953125 -24.75 L 7.125 -69.296875 L 23.171875 -69.296875 L 35.546875 -38.40625 L 60.390625 -69.296875 L 76.921875 -69.296875 Z M 40.890625 -24.0625 "/></g></g></g><g fill="#ffffff" fill-opacity="1"><g transform="translate(872.065613, 762.176698)"><g><path d="M 28.40625 -56.234375 L 6.234375 -56.234375 L 8.90625 -69.296875 L 69.296875 -69.296875 L 66.625 -56.234375 L 44.546875 -56.234375 L 33.265625 0 L 17.21875 0 Z M 28.40625 -56.234375 "/></g></g></g><g fill="#ffffff" fill-opacity="1"><g transform="translate(933.240727, 762.176698)"><g><path d="M 30.09375 -56.4375 L 27.125 -41.375 L 59.296875 -41.375 L 56.828125 -28.90625 L 24.546875 -28.90625 L 21.390625 -12.875 L 59.203125 -12.875 L 56.53125 0 L 2.875 0 L 16.734375 -69.296875 L 69.109375 -69.296875 L 66.421875 -56.4375 Z M 30.09375 -56.4375 "/></g></g></g><g fill="#ffffff" fill-opacity="1"><g transform="translate(1011.690771, 739.52564)"><g><path d="M 31.359375 -41.265625 L 21.90625 -41.265625 L 17.484375 -19.09375 L 9.921875 -19.09375 L 14.34375 -41.265625 L 4.890625 -41.265625 L 6.03125 -46.90625 L 32.5 -46.90625 Z M 70.21875 -46.90625 L 64.78125 -19.09375 L 57.75 -19.09375 L 60.828125 -34.703125 L 50.109375 -21.96875 L 46.703125 -21.96875 L 40.609375 -34.84375 L 37.453125 -19.09375 L 30.421875 -19.09375 L 35.984375 -46.90625 L 42.015625 -46.90625 L 49.84375 -30.078125 L 63.84375 -46.90625 Z M 70.21875 -46.90625 "/></g></g></g></svg>