<?xml version="1.0" encoding="UTF-8"?>
<svg id="Livello_1" data-name="Livello 1" xmlns="http://www.w3.org/2000/svg" viewBox="0 0 21 33.98">
  <defs>
    <style>
      .cls-1 {
        stroke-width: 0px;
      }
    </style>
  </defs>
  <path class="cls-1" d="M0,8.5v8.52h5.21v16.96h3.58c3.88-.02,4.44-.03,5.11-.13,1.76-.24,3.15-.79,4.27-1.68,1.11-.89,1.92-2.12,2.37-3.64.19-.62.29-1.13.35-1.65.1-.91.11-1.66.11-6.04v-3.88h-5.2v-2.24c0-2.76-.03-5.9-.06-6.48-.05-1.09-.13-1.65-.31-2.39-.39-1.54-1.02-2.69-2.03-3.67-1.16-1.13-2.65-1.79-4.61-2.04-.8-.1-1.7-.12-5.62-.14H.01v8.51h-.01ZM6.31,5.04c1.45.04,1.86.08,2.25.2.61.17,1.1.57,1.39,1.12.2.38.38.95.42,1.38.04.44.05,1.63.06,5.36v3.84h-5.16V5.01h.06s.47.02.97.03h.01ZM15.73,19.04c-.03,5.36-.05,6.76-.09,7.26-.03.41-.13.77-.35,1.2-.29.6-.67.95-1.33,1.21-.35.14-.76.18-2.16.21-.3,0-.73.01-.94.02h-.39v-11.93h5.26v2.02h0Z"/>
</svg>