<svg xmlns="http://www.w3.org/2000/svg" width="21" height="33.98" viewBox="0 0 21 33.98"><path d="M0 8.5v8.52h5.21v16.96h3.58c3.88-.02 4.44-.03 5.11-.13 1.76-.24 3.15-.79 4.27-1.68 1.11-.89 1.92-2.12 2.37-3.64.19-.62.29-1.13.35-1.65.1-.91.11-1.66.11-6.04v-3.88h-5.2v-2.24c0-2.76-.03-5.9-.06-6.48-.05-1.09-.13-1.65-.31-2.39-.39-1.54-1.02-2.69-2.03-3.67C12.24 1.05 10.75.39 8.79.14 7.99.04 7.09.02 3.17 0H.01v8.51H0Zm6.31-3.46c1.45.04 1.86.08 2.25.2.61.17 1.1.57 1.39 1.12.2.38.38.95.42 1.38.04.44.05 1.63.06 5.36v3.84H5.27V5.01h.06s.47.02.97.03h.01Zm9.42 14c-.03 5.36-.05 6.76-.09 7.26-.03.41-.13.77-.35 1.2-.29.6-.67.95-1.33 1.21-.35.14-.76.18-2.16.21-.3 0-.73.01-.94.02h-.39V17.01h5.26v2.02Z" style="stroke-width:0"/></svg>