<svg xmlns="http://www.w3.org/2000/svg" id="Livello_1" data-name="Livello 1" viewBox="0 0 34 34"><defs><style>      .cls-1 {        fill: #fff;        stroke-width: 0px;      }    </style></defs><path class="cls-1" d="m6.5,8.52v8.52h5.21v16.96h3.58c3.88-.02,4.44-.03,5.11-.13,1.76-.24,3.15-.79,4.27-1.68,1.11-.89,1.92-2.12,2.37-3.64.19-.62.29-1.13.35-1.65.1-.91.11-1.66.11-6.04v-3.88s-2.6,0-2.6,0h-2.6v-2.24c0-2.76-.03-5.9-.06-6.48-.05-1.09-.13-1.65-.31-2.39-.39-1.54-1.02-2.69-2.03-3.67-1.16-1.13-2.65-1.79-4.61-2.04-.8-.1-1.7-.12-5.62-.14h-3.16s0,8.51,0,8.51Zm6.31-3.46c1.45.04,1.86.08,2.25.2.61.17,1.1.57,1.39,1.12.2.38.38.95.42,1.38.04.44.05,1.63.06,5.36v3.84h-5.16v-5.96c0-3.28,0-5.97,0-5.97,0,0,.03,0,.06,0,.03,0,.47.02.97.03Zm9.42,14c-.03,5.36-.05,6.76-.09,7.26-.03.41-.13.77-.35,1.2-.29.6-.67.95-1.33,1.21-.35.14-.76.18-2.16.21-.3,0-.73.01-.94.02h-.39s0-5.96,0-5.96v-5.97h5.26v2.02Z"/></svg>