<svg width="85" height="51" viewBox="0 0 500 275" fill="none" xmlns="http://www.w3.org/2000/svg"><path d="M115.195 23.309v69.587c-10.448-11.731-25.45-17.33-43.131-17.33C31.344 75.566 0 104.36 0 149.419c0 45.059 31.344 73.854 72.064 73.854 19.289 0 34.559-6.132 45.006-18.663v16.53h39.917V23.309h-41.792ZM79.297 189.146c-20.896 0-36.97-14.931-36.97-39.727 0-24.795 16.074-39.726 36.97-39.726 20.628 0 36.702 14.931 36.702 39.726 0 24.796-16.074 39.727-36.702 39.727ZM264.248 223.273c45.81 0 79.029-30.661 79.029-73.854 0-43.192-33.219-73.853-79.029-73.853-45.81 0-79.297 30.661-79.297 73.853 0 43.193 33.487 73.854 79.297 73.854Zm0-34.127c-20.896 0-36.97-14.931-36.97-39.727 0-24.795 16.074-39.726 36.97-39.726 20.896 0 36.702 14.931 36.702 39.726 0 24.796-15.806 39.727-36.702 39.727ZM360.496 274.997c34.826 0 54.382-21.063 54.382-54.124V77.699h-41.791V221.14c0 14.131-6.698 20.796-17.146 20.796-6.965 0-13.126-1.866-17.681-5.066l-11.251 30.128c8.037 5.599 20.628 7.999 33.487 7.999ZM453.359 221.14h41.792V77.699h-41.792V221.14Z" fill="#0C0C0C"/><path d="M395.235 50.988c-14.027 0-25.506-11.413-25.506-25.493 0-14.08 11.479-25.493 25.506-25.493 14.028 0 25.507 11.414 25.507 25.493 0 14.08-11.479 25.493-25.507 25.493ZM448.986 25.564c0-14.08 11.48-25.494 25.507-25.494C488.52.07 500 11.484 500 25.564c0 14.079-11.48 25.493-25.507 25.493-14.027 0-25.507-11.414-25.507-25.494Z" fill="#11A856"/></svg>