<?xml version="1.0" encoding="UTF-8" standalone="no"?>
<svg xmlns:dc="http://purl.org/dc/elements/1.1/" xmlns:cc="http://creativecommons.org/ns#" xmlns:rdf="http://www.w3.org/1999/02/22-rdf-syntax-ns#" xmlns:svg="http://www.w3.org/2000/svg" xmlns="http://www.w3.org/2000/svg" width="105.96719mm" height="37.333771mm" viewBox="0 0 105.96719 37.333771" version="1.1" id="svg8">
  <defs id="defs2"/>
  <metadata id="metadata5">
    <rdf:RDF>
      <cc:Work rdf:about="">
        <dc:format>image/svg+xml</dc:format>
        <dc:type rdf:resource="http://purl.org/dc/dcmitype/StillImage"/>
        <dc:title/>
      </cc:Work>
    </rdf:RDF>
  </metadata>
  <g id="layer1" transform="translate(-1.5296448,-1.3229181)">
    <g id="g20" transform="matrix(0.03527778,0,0,-0.03527778,-35.107194,261.33086)">
      <path d="m 2145.0787,6521.5669 c 60.51,0 107.26,45.1 107.26,104.51 0,57.76 -46.75,102.31 -107.26,102.31 h -57.76 v -206.82 z m 0,290.44 c 117.17,0 201.88,-76.46 201.88,-185.93 0,-111.12 -84.71,-188.13 -201.88,-188.13 h -150.72 v 374.06 h 150.72" style="fill:#4b78c5;fill-opacity:1;fill-rule:nonzero;stroke:none" id="path24"/>
      <path d="m 2451.4887,6529.2669 c 3.85,-23.11 23.1,-33.56 51.15,-33.56 23.65,0 37.96,7.15 37.96,18.7 0,8.81 -8.26,15.95 -25.86,18.71 l -53.9,9.35 c -46.21,7.7 -78.11,33.55 -78.11,80.31 0,56.11 47.85,89.11 118.81,89.11 56.66,0 121.02,-22 124.87,-92.41 h -79.21 c -1.65,20.35 -20.35,29.7 -45.11,29.7 -23.1,0 -33.55,-8.8 -33.55,-19.25 0,-8.8 6.6,-17.05 27.5,-20.9 l 50.06,-8.25 c 50.06,-9.36 83.06,-33.56 83.06,-80.86 0,-61.62 -55.56,-90.22 -124.87,-90.22 -69.86,0 -126.52,29.16 -132.02,100.12 l 79.22,-0.55" style="fill:#4b78c5;fill-opacity:1;fill-rule:nonzero;stroke:none" id="path26"/>
      <path d="m 2877.7987,6571.6169 c 0,36.86 -26.4,66.56 -62.71,66.56 -19.8,0 -39.05,-6.05 -55.56,-25.3 v -82.52 c 16.51,-19.25 35.76,-24.75 55.56,-24.75 36.31,0 62.71,29.16 62.71,66.01 z m 87.46,0 c 0,-79.21 -60.5,-139.17 -132.56,-139.17 -29.16,0 -53.36,7.7 -73.17,20.36 v -138.63 h -89.11 v 390.56 h 89.11 v -14.3 c 19.81,12.65 44.01,20.35 73.17,20.35 72.06,0 132.56,-59.4 132.56,-139.17" style="fill:#4b78c5;fill-opacity:1;fill-rule:nonzero;stroke:none" id="path28"/>
      <path d="m 3203.9987,6571.0669 c 0,34.66 -24.21,62.71 -59.96,62.71 -36.31,0 -60.51,-28.05 -60.51,-62.71 0,-35.75 24.2,-64.36 60.51,-64.36 35.75,0 59.96,28.61 59.96,64.36 z m 84.16,0.55 c 0,-81.41 -60.51,-141.92 -144.67,-141.92 -84.16,0 -144.67,60.51 -144.67,141.92 0,80.31 60.51,139.17 144.67,139.17 84.16,0 144.67,-58.86 144.67,-139.17" style="fill:#4b78c5;fill-opacity:1;fill-rule:nonzero;stroke:none" id="path30"/>
      <path d="m 3393.7687,6529.2669 c 3.85,-23.11 23.1,-33.56 51.16,-33.56 23.65,0 37.96,7.15 37.96,18.7 0,8.81 -8.26,15.95 -25.86,18.71 l -53.91,9.35 c -46.21,7.7 -78.11,33.55 -78.11,80.31 0,56.11 47.86,89.11 118.81,89.11 56.66,0 121.03,-22 124.88,-92.41 h -79.21 c -1.65,20.35 -20.36,29.7 -45.11,29.7 -23.1,0 -33.55,-8.8 -33.55,-19.25 0,-8.8 6.6,-17.05 27.5,-20.9 l 50.05,-8.25 c 50.06,-9.36 83.06,-33.56 83.06,-80.86 0,-61.62 -55.56,-90.22 -124.86,-90.22 -69.87,0 -126.52,29.16 -132.02,100.12 l 79.21,-0.55" style="fill:#4b78c5;fill-opacity:1;fill-rule:nonzero;stroke:none" id="path32"/>
      <path d="m 3806.3387,6530.3569 v 82.52 c -16.5,19.25 -35.76,25.3 -55.56,25.3 -36.3,0 -62.71,-29.7 -62.71,-66.56 0,-36.85 26.41,-66.01 62.71,-66.01 19.8,0 39.06,5.5 55.56,24.75 z m 89.12,-92.41 h -89.12 v 14.86 c -19.8,-12.66 -44.01,-20.36 -73.16,-20.36 -72.06,0 -132.57,59.96 -132.57,139.17 0,79.77 60.51,139.17 132.57,139.17 29.15,0 53.36,-7.7 73.16,-20.35 v 14.3 h 89.12 v -266.79" style="fill:#4b78c5;fill-opacity:1;fill-rule:nonzero;stroke:none" id="path34"/>
      <path d="m 4042.3187,6437.9469 h -89.11 v 390.56 h 89.11 v -390.56" style="fill:#4b78c5;fill-opacity:1;fill-rule:nonzero;stroke:none" id="path36"/>
      <path d="m 1407.6645,7370.3034 h -369.14 v -879.41 h 281.15 v 41.11 c 0,68.38 -29.29,132.9 -82.48,181.66 -57,52.25 -88.38,122.9 -88.38,198.94 0,150.88 126.51,273.66 282.01,273.66 155.5,0 282.02,-122.78 282.02,-273.66 0,-76.04 -31.4,-146.71 -88.4,-198.94 -53.18,-48.76 -82.47,-113.28 -82.47,-181.66 v -25.51 c 203.54,49 340.32,210.26 340.32,426.69 0,257.37 -199.17,437.12 -474.63,437.12" style="fill:#4b78c5;fill-opacity:1;fill-rule:nonzero;stroke:none" id="path38"/>
      <path d="m 1437.6145,6883.5434 c -31.27,-36.62 -23.28,-92.32 14.48,-122.22 6.75,-5.32 13.82,-9.31 21.12,-12.13 -5.18,76.71 66.48,144.34 67.13,143.88 0.24,-0.15 -27.51,-38.38 -37.39,-77.93 -10.23,-41 -8.14,-58.5 -10.14,-70.63 28.22,-2.95 57.74,9.35 81.54,30.77 77.09,69.4 -5.44,167.58 52.69,201.17 0,0 -131.8,-25.43 -189.43,-92.91" style="fill:#70c72d;fill-opacity:1;fill-rule:nonzero;stroke:none" id="path40"/>
      <path d="m 1375.8945,6822.4334 c 23.12,-16.64 26.35,-49.75 8.86,-72.23 -3.13,-4 -6.63,-7.3 -10.43,-9.94 -7.8,44.77 -58.46,73.59 -58.77,73.22 -0.12,-0.13 21.2,-18.18 32.42,-39.51 11.63,-22.12 12.9,-32.47 15.74,-39.14 -15.79,-5.66 -34.47,-2.75 -51.15,6.22 -54.03,29.04 -20.4,97.02 -58.5,108.14 0,0 79.26,3.92 121.83,-26.76" style="fill:#70c72d;fill-opacity:1;fill-rule:nonzero;stroke:none" id="path42"/>
      <path d="m 1460.8845,6535.7134 c -1.19,-31.37 -0.46,-62.92 0.87,-94.28 h -22.02 c 2.08,70.22 9.36,140.02 23.07,208.93 6.35,31.91 13.11,63.69 20.57,95.33 -5.03,-31.28 -9.41,-62.64 -13.35,-94.06 -4.81,-38.5 -7.67,-77.14 -9.14,-115.92" style="fill:#70c72d;fill-opacity:1;fill-rule:nonzero;stroke:none" id="path44"/>
      <path d="m 1428.9645,6440.4034 c -3.85,69.74 -8.25,139.88 -23.84,208.14 -3.92,17.09 -9.15,33.89 -15.77,50.1 -4.56,11.1 -9.58,22.3 -16,32.47 7.84,-10.58 14.15,-22.5 19.84,-34.29 8.21,-16.91 14.72,-34.47 20.03,-52.47 11.03,-37.53 18.79,-75.91 25.31,-114.42 4.93,-29.05 8.61,-58.36 12.37,-87.6 l -21.94,-1.93" style="fill:#70c72d;fill-opacity:1;fill-rule:nonzero;stroke:none" id="path46"/>
      <path d="m 1559.1145,6424.0134 h -237.12 v 38.44 h 237.12 v -38.44" style="fill:#70c72d;fill-opacity:1;fill-rule:nonzero;stroke:none" id="path48"/>
      <path d="m 1500.0945,6312.0234 h -119.08 l -29.51,38.44 h 178.09 l -29.5,-38.44" style="fill:#70c72d;fill-opacity:1;fill-rule:nonzero;stroke:none" id="path50"/>
      <path d="m 1532.9745,6368.0134 h -184.86 l -26.12,38.44 h 237.12 l -26.14,-38.44" style="fill:#70c72d;fill-opacity:1;fill-rule:nonzero;stroke:none" id="path52"/>
    </g>
  </g>
</svg>