<svg id="Layer_1" data-name="Layer 1"
    xmlns="http://www.w3.org/2000/svg" viewBox="0 0 464.12 144">
    <defs>
        <style>.cls-1{fill:#54b948}.cls-2{fill:#4fb3cf}.cls-3{fill:#006990}.cls-4{fill:#231f20}</style>
    </defs>
    <path class="cls-1" d="M21.2,55.62c1.5-1.36,2.27-2,3.91-3.33A9.17,9.17,0,0,0,28.59,46c.11-1,.18-1.44.32-2.38.48-3.21-.64-2.41-1.7-1.14a39,39,0,0,0-2.9,3.87,44.92,44.92,0,0,0-3.56,6.33c-.39.81-.56,1.22-.9,2-1.18,2.87.09,2.11,1.35.94" transform="translate(0 0)"></path>
    <path class="cls-1" d="M34.29,46.11c1.92-1.1,2.91-1.61,4.94-2.6a5.33,5.33,0,0,0,3.14-6c-.15-1-.22-1.52-.35-2.53-.46-3.42-2.22-3.12-3.64-2.23a40.2,40.2,0,0,0-4,2.79,8.44,8.44,0,0,0-3.18,6.17c-.09,1-.12,1.45-.18,2.42-.21,3.37,1.64,3,3.27,2" transform="translate(0 0)"></path>
    <path class="cls-1" d="M45.35,36.18c.68,3.51,3,3.5,4.88,2.88,2.22-.73,3.36-1.06,5.65-1.64,2-.5,4-1.72,2.71-5.05-.37-1-.56-1.46-.93-2.4-1.28-3.23-3.54-3.47-5.24-3.08a40.59,40.59,0,0,0-4.86,1.4c-1.62.57-3.32,1.95-2.69,5.37.18,1,.28,1.5.48,2.52" transform="translate(0 0)"></path>
    <path class="cls-1" d="M61.93,31.85a5.42,5.42,0,0,0,6,3.46c2.32-.23,3.46-.31,5.73-.37,1.94,0,3.77-.65,1.87-3.41-.56-.8-.84-1.19-1.39-2a8.45,8.45,0,0,0-6-3.62A40.71,40.71,0,0,0,63,25.67c-1.75,0-3.52.7-2.11,3.85.41.92.62,1.38,1,2.33" transform="translate(0 0)"></path>
    <path class="cls-2" d="M78.63,31.88a9.21,9.21,0,0,0,6.28,3.62,52,52,0,0,1,5.14.85c1.71.35,3.2.37.76-1.45-.71-.52-1.07-.77-1.8-1.27a47.48,47.48,0,0,0-6.32-3.58,38.5,38.5,0,0,0-4.56-1.85c-1.6-.55-3-.66-1,1.83.6.73.9,1.09,1.48,1.85" transform="translate(0 0)"></path>
    <path class="cls-1" d="M19.81,68.82c1.89-1,2.87-1.56,4.89-2.57A6.1,6.1,0,0,0,28.17,60c-.05-1.06-.08-1.58-.1-2.63-.08-3.58-1.79-3.08-3.28-2-1.74,1.24-2.58,1.87-4.17,3.16A9.88,9.88,0,0,0,17,64.62c-.15.91-.21,1.37-.32,2.29-.36,3.15,1.48,2.79,3.1,1.91" transform="translate(0 0)"></path>
    <path class="cls-1" d="M39.63,46.84c-2.12,1-3.16,1.48-5.16,2.56A6.21,6.21,0,0,0,31,55.75c.06,1.07.11,1.61.19,2.69.32,3.72,2.66,3.55,4.6,2.75,2.27-.94,3.44-1.41,5.81-2.3,2-.77,4.23-2.47,3.41-6.38-.24-1.14-.35-1.71-.57-2.83-.76-3.85-3-3.67-4.84-2.84" transform="translate(0 0)"></path>
    <path class="cls-1" d="M62.87,44.07c-1.3-3.72-3.92-3.88-5.95-3.36-2.36.61-3.52.95-5.82,1.68-2,.65-4.06,2.16-3.17,6,.24,1.13.38,1.7.64,2.84.92,3.92,3.6,4,5.75,3.29,2.52-.78,3.78-1.15,6.33-1.85,2.19-.61,4.47-2.08,3.17-5.87-.38-1.11-.57-1.65-1-2.74" transform="translate(0 0)"></path>
    <path class="cls-2" d="M67.56,46c1.37,3.72,4.17,4,6.33,3.56,2.52-.5,3.78-.72,6.24-1.12,2.1-.34,4.19-1.4,2.55-4.67-.47-1-.71-1.43-1.2-2.36a6.29,6.29,0,0,0-6.3-3.59c-2.32.14-3.5.25-5.88.55-2,.24-4.12,1.3-2.75,5,.41,1.06.61,1.59,1,2.68" transform="translate(0 0)"></path>
    <path class="cls-2" d="M86.73,37.88c-1.83-.14-3.6.32-1.84,3.37.5.89.75,1.33,1.24,2.25a7.42,7.42,0,0,0,1,1.38c0-.85.7-1.73,2-2.51l5.43-3.22A10.55,10.55,0,0,0,92,38.47c-2-.31-3.11-.42-5.26-.59" transform="translate(0 0)"></path>
    <path class="cls-1" d="M21.67,82.57c2.12-.67,3.21-1,5.46-1.7,1.91-.59,3.94-2,3.11-5.77-.24-1.09-.35-1.64-.56-2.75-.73-3.81-2.9-3.63-4.68-2.82-2.09.94-3.11,1.42-5.06,2.38a5.28,5.28,0,0,0-3.21,5.71c.11,1,.18,1.43.34,2.36.54,3.21,2.79,3.16,4.6,2.59" transform="translate(0 0)"></path>
    <path class="cls-2" d="M42.38,62.53c-2.42.88-3.62,1.32-6,2.22-2,.77-4.16,2.44-3.37,6.34.23,1.14.36,1.7.62,2.82.89,3.86,3.52,3.88,5.62,3.25l6.29-1.89C47.76,74.6,50.07,73,49,68.89c-.33-1.21-.48-1.8-.8-3-1.07-4.14-3.68-4.1-5.77-3.35" transform="translate(0 0)"></path>
    <path class="cls-2" d="M61.77,56.32c-2.59.72-3.88,1.11-6.43,1.9-2.19.67-4.51,2.28-3.37,6.45.32,1.2.49,1.8.83,3,1.16,4.15,4,4.21,6.27,3.53l6.62-2c2.26-.68,4.63-2.28,3.36-6.39-.38-1.18-.57-1.78-.94-3-1.29-4.08-4.12-4.19-6.34-3.56" transform="translate(0 0)"></path>
    <path class="cls-2" d="M81.46,51.72c-2.49.46-3.75.71-6.3,1.27C73,53.46,70.7,54.83,72,58.86l1,2.92c1.28,4,4.09,4.15,6.29,3.54,2.57-.73,3.84-1.08,6.33-1.77,2.12-.58,4.32-2,3-5.69-.37-1.07-.57-1.6-1-2.65a5,5,0,0,0-6.19-3.49" transform="translate(0 0)"></path>
    <path class="cls-3" d="M91.2,54.49c.4,1,.59,1.53,1,2.55,1.27,3.55,3.75,3.69,5.69,3.18l5.53-1.47c1.84-.48,3.75-1.66,2.54-4.55-.35-.84-.54-1.25-.93-2.07h0l-9.33-2.57-1.9.23C91.82,50,89.85,51,91.2,54.49" transform="translate(0 0)"></path>
    <path class="cls-2" d="M26.54,95.15c2.17-.21,3.28-.35,5.57-.64,2-.25,3.93-1.23,2.58-4.72-.4-1-.6-1.54-1-2.57-1.26-3.54-3.75-3.68-5.68-3.16l-5.53,1.48C20.7,86,18.77,87.21,20,90.11c.35.84.53,1.26.92,2.07a5.19,5.19,0,0,0,5.65,3" transform="translate(0 0)"></path>
    <path class="cls-2" d="M38.23,89.06c1.35,3.63,4.08,3.88,6.2,3.49,2.48-.47,3.74-.74,6.3-1.29,2.19-.48,4.46-1.84,3.15-5.87-.38-1.17-.56-1.76-.94-2.94-1.27-4-4.09-4.14-6.29-3.53-2.56.74-3.83,1.09-6.32,1.78-2.12.59-4.33,2-3,5.7.36,1.07.56,1.61.95,2.66" transform="translate(0 0)"></path>
    <path class="cls-2" d="M64.12,87.92c2.59-.73,3.88-1.11,6.44-1.9,2.19-.68,4.51-2.28,3.38-6.46-.33-1.21-.5-1.81-.84-3-1.16-4.14-4-4.2-6.29-3.52-2.64.8-4,1.2-6.61,2-2.27.67-4.62,2.28-3.34,6.38.36,1.19.55,1.78.93,3,1.28,4.09,4.11,4.19,6.33,3.57" transform="translate(0 0)"></path>
    <path class="cls-3" d="M86.6,67.09,80.32,69c-2.19.66-4.49,2.25-3.37,6.38.32,1.19.49,1.79.8,3,1.08,4.16,3.69,4.11,5.78,3.37,2.43-.87,3.62-1.31,6-2.22,2-.77,4.17-2.43,3.37-6.34-.23-1.14-.36-1.7-.62-2.81-.9-3.86-3.53-3.88-5.64-3.25" transform="translate(0 0)"></path>
    <path class="cls-3" d="M100.94,74.72c2.09-.94,3.11-1.41,5.07-2.36a5.24,5.24,0,0,0,3.2-5.7c-.12-1-.19-1.43-.35-2.35-.55-3.2-2.81-3.16-4.62-2.59L98.78,63.4c-1.92.59-3.94,2-3.1,5.75.24,1.1.35,1.63.56,2.75.73,3.81,2.91,3.63,4.7,2.82" transform="translate(0 0)"></path>
    <path class="cls-2" d="M41,103.05c-.51-.88-.76-1.33-1.25-2.25a6,6,0,0,0-6.21-3.43c-2.27.19-3.38.26-5.53.37-1.85.09-3.63.71-1.74,3.13.55.7.83,1,1.41,1.72a9.73,9.73,0,0,0,6.19,3.29c2.06.3,3.11.41,5.26.56,1.84.13,3.62-.33,1.87-3.39" transform="translate(0 0)"></path>
    <path class="cls-2" d="M44.38,102.89a6.26,6.26,0,0,0,6.31,3.59c2.32-.14,3.5-.25,5.88-.55,2-.26,4.14-1.31,2.76-5-.41-1-.6-1.59-1-2.68-1.36-3.73-4.17-4-6.34-3.57-2.53.5-3.79.74-6.24,1.14-2.1.34-4.21,1.41-2.57,4.69.47,1,.72,1.43,1.2,2.36" transform="translate(0 0)"></path>
    <path class="cls-3" d="M63,100.18c1.3,3.73,3.93,3.9,6,3.37,2.36-.6,3.53-.94,5.83-1.69,2-.63,4.07-2.16,3.19-6-.25-1.12-.38-1.68-.66-2.82-.92-3.94-3.6-4-5.76-3.31-2.52.78-3.8,1.16-6.35,1.87-2.18.6-4.45,2.07-3.16,5.88.38,1.1.57,1.65,1,2.73" transform="translate(0 0)"></path>
    <path class="cls-3" d="M86.29,97.42c2.13-1,3.18-1.49,5.18-2.54a6.24,6.24,0,0,0,3.45-6.37c-.07-1.07-.11-1.61-.2-2.69-.33-3.72-2.66-3.57-4.61-2.77-2.28.94-3.44,1.4-5.83,2.3-2,.77-4.22,2.48-3.4,6.39.23,1.13.35,1.7.57,2.82.76,3.86,3,3.69,4.84,2.86" transform="translate(0 0)"></path>
    <path class="cls-3" d="M106.15,75.46c-1.89,1-2.88,1.54-4.91,2.55a6.05,6.05,0,0,0-3.46,6.26c.06,1.06.08,1.58.1,2.63.1,3.58,1.82,3.09,3.31,2,1.75-1.23,2.58-1.85,4.18-3.15A9.64,9.64,0,0,0,109,79.66c.15-.91.21-1.37.31-2.28.36-3.17-1.5-2.81-3.11-1.92" transform="translate(0 0)"></path>
    <path class="cls-3" d="M47.33,112.61A9.19,9.19,0,0,0,41.05,109a51.76,51.76,0,0,1-5.13-.86c-1.71-.35-3.2-.38-.76,1.45.71.53,1.06.78,1.8,1.28a47.36,47.36,0,0,0,6.32,3.58,41.4,41.4,0,0,0,4.56,1.85c1.59.54,3,.65,1-1.83-.6-.73-.9-1.1-1.49-1.85" transform="translate(0 0)"></path>
    <path class="cls-3" d="M64,112.63a5.43,5.43,0,0,0-6-3.46c-2.32.23-3.46.31-5.72.37-1.93,0-3.77.66-1.88,3.41.56.79.84,1.19,1.4,2a8.49,8.49,0,0,0,6,3.62,38.74,38.74,0,0,0,5.08.28c1.76,0,3.52-.69,2.11-3.85-.41-.92-.61-1.38-1-2.33" transform="translate(0 0)"></path>
    <path class="cls-3" d="M80.62,108.29c-.67-3.51-3-3.49-4.9-2.87-2.22.73-3.34,1-5.63,1.64-2,.49-4,1.72-2.71,5.06.37,1,.56,1.44.93,2.38,1.28,3.24,3.54,3.48,5.24,3.09a38.7,38.7,0,0,0,4.85-1.41c1.62-.56,3.32-1.94,2.69-5.37-.18-1-.27-1.5-.47-2.52" transform="translate(0 0)"></path>
    <path class="cls-3" d="M91.67,98.37c-1.91,1.09-2.91,1.62-4.94,2.61a5.32,5.32,0,0,0-3.14,6c.15,1,.23,1.52.36,2.52.45,3.42,2.22,3.12,3.65,2.24a39.43,39.43,0,0,0,4-2.79,8.44,8.44,0,0,0,3.18-6.18c.09-.94.12-1.44.18-2.41.21-3.37-1.64-3-3.27-2" transform="translate(0 0)"></path>
    <path class="cls-3" d="M104.75,88.85c-1.48,1.37-2.27,2-3.9,3.33a9.16,9.16,0,0,0-3.48,6.35c-.12,1-.18,1.44-.32,2.37-.49,3.23.65,2.41,1.7,1.14a37.88,37.88,0,0,0,2.9-3.87,45.73,45.73,0,0,0,3.56-6.32c.38-.82.56-1.22.91-2.06,1.17-2.87-.09-2.11-1.37-.94" transform="translate(0 0)"></path>
    <path class="cls-1" d="M116.53,65.93a54.41,54.41,0,0,1-47.41,60.61A54.38,54.38,0,0,1,8.16,71,54.7,54.7,0,0,1,55.92,18.53a55.56,55.56,0,0,1,8.17-.37,54.25,54.25,0,0,1,40.65,20.15l.29.14-.12,0-1.32.56-1.8.76-1.85.78-2.4,1L91.83,44l9.48,2.45,3.5.91,2.6.68,2.48.64,1.73.44,18.29,4.75,1.57.41-.06-1.22-1.14-23.39-.43-9-.45-9.24-6.34,9.76a72,72,0,1,0,16.33,76.09Z" transform="translate(0 0)"></path>
    <path class="cls-1" d="M152.37,106.18h4c4,0,8.69-.14,8.69,5a4.23,4.23,0,0,1-3.8,4.29v.05c1,.07,1.58,1.08,2,1.9l3,7.22h-4.13l-2.22-5.77c-.53-1.37-1-1.9-2.56-1.9h-1.19v7.67h-3.71Zm3.71,7.87h1.21c1.83,0,3.91-.26,3.91-2.56s-2.06-2.41-3.91-2.41h-1.21Z" transform="translate(0 0)"></path>
    <path class="cls-1" d="M179.44,123.86a9.36,9.36,0,0,1-4.68,1.08c-4.49,0-7.11-2.59-7.11-7.06,0-3.93,2.09-7.18,6.32-7.18,5.05,0,6.47,3.46,6.47,8.22H171a3.56,3.56,0,0,0,3.89,3.43,9.17,9.17,0,0,0,4.52-1.37Zm-2.38-7.38c-.1-1.71-.9-3.2-2.88-3.2s-3,1.38-3.15,3.2Z" transform="translate(0 0)"></path>
    <path class="cls-1" d="M192.05,114a5.24,5.24,0,0,0-2.41-.51c-2.19,0-3.59,1.75-3.59,4.31s1.19,4.44,3.67,4.44a7.52,7.52,0,0,0,2.72-.63l.16,2.93a11.42,11.42,0,0,1-3.54.45c-4.47,0-6.71-3-6.71-7.19,0-3.94,2.32-7,6.58-7a11.6,11.6,0,0,1,3.44.44Z" transform="translate(0 0)"></path>
    <path class="cls-1" d="M200.61,121h0l3.28-9.94h3.6l-5.11,13.51c-1.13,3-2,6-5.65,6a9.28,9.28,0,0,1-2.51-.36l.23-2.62a5.48,5.48,0,0,0,1.83.24,2.22,2.22,0,0,0,2.3-2.44L193.42,111h3.91Z" transform="translate(0 0)"></path>
    <path class="cls-1" d="M218.48,114a5.24,5.24,0,0,0-2.41-.51c-2.19,0-3.59,1.75-3.59,4.31s1.19,4.44,3.67,4.44a7.52,7.52,0,0,0,2.72-.63l.16,2.93a11.46,11.46,0,0,1-3.54.45c-4.47,0-6.71-3-6.71-7.19,0-3.94,2.32-7,6.58-7a11.6,11.6,0,0,1,3.44.44Z" transform="translate(0 0)"></path>
    <rect class="cls-1" x="221.46" y="104.8" width="3.54" height="19.83"></rect>
    <path class="cls-1" d="M239.65,123.86a9.42,9.42,0,0,1-4.68,1.08c-4.5,0-7.11-2.59-7.11-7.06,0-3.93,2.08-7.18,6.31-7.18,5.05,0,6.48,3.46,6.48,8.22h-9.41a3.56,3.56,0,0,0,3.89,3.43,9.2,9.2,0,0,0,4.52-1.37Zm-2.38-7.38c-.11-1.71-.9-3.2-2.88-3.2s-3,1.38-3.15,3.2Z" transform="translate(0 0)"></path>
    <rect class="cls-1" x="243.43" y="120.93" width="3.7" height="3.7"></rect>
    <path class="cls-2" d="M258.12,106.18h4c4,0,8.7-.14,8.7,5a4.23,4.23,0,0,1-3.81,4.29v.05c1,.07,1.59,1.08,2,1.9l3,7.22H267.8l-2.22-5.77c-.53-1.37-1-1.9-2.57-1.9h-1.19v7.67h-3.7Zm3.7,7.87H263c1.82,0,3.91-.26,3.91-2.56s-2.06-2.41-3.91-2.41h-1.22Z" transform="translate(0 0)"></path>
    <path class="cls-2" d="M285.19,123.86a9.42,9.42,0,0,1-4.68,1.08c-4.5,0-7.11-2.59-7.11-7.06,0-3.93,2.08-7.18,6.31-7.18,5.05,0,6.48,3.46,6.48,8.22h-9.41a3.56,3.56,0,0,0,3.89,3.43,9.23,9.23,0,0,0,4.52-1.37Zm-2.38-7.38c-.11-1.71-.9-3.2-2.88-3.2s-3,1.38-3.15,3.2Z" transform="translate(0 0)"></path>
    <path class="cls-2" d="M297.79,114a5.19,5.19,0,0,0-2.4-.51c-2.2,0-3.6,1.75-3.6,4.31s1.19,4.44,3.68,4.44a7.62,7.62,0,0,0,2.72-.63l.16,2.93a11.46,11.46,0,0,1-3.54.45c-4.47,0-6.72-3-6.72-7.19,0-3.94,2.33-7,6.58-7a11.6,11.6,0,0,1,3.44.44Z" transform="translate(0 0)"></path>
    <path class="cls-2" d="M306.94,110.7a6.81,6.81,0,0,1,7.13,7.21,7.12,7.12,0,0,1-14.24,0,6.81,6.81,0,0,1,7.11-7.21m0,11.49c2.72,0,3.43-2.43,3.43-4.7,0-2.09-1.11-4-3.43-4s-3.41,2-3.41,4c0,2.25.71,4.7,3.41,4.7" transform="translate(0 0)"></path>
    <polygon class="cls-2" points="315.34 111.01 319.14 111.01 322.53 120.92 322.58 120.92 325.86 111.01 329.4 111.01 324.38 124.63 320.39 124.63 315.34 111.01"></polygon>
    <path class="cls-2" d="M342.46,123.86a9.42,9.42,0,0,1-4.68,1.08c-4.49,0-7.11-2.59-7.11-7.06,0-3.93,2.09-7.18,6.32-7.18,5.05,0,6.47,3.46,6.47,8.22h-9.41a3.56,3.56,0,0,0,3.89,3.43,9.17,9.17,0,0,0,4.52-1.37Zm-2.38-7.38c-.1-1.71-.9-3.2-2.88-3.2s-3,1.38-3.15,3.2Z" transform="translate(0 0)"></path>
    <path class="cls-2" d="M346.32,111h3.14v3.1h.06a4.17,4.17,0,0,1,3.72-3.42,3.64,3.64,0,0,1,1.08.11v3.57a3.5,3.5,0,0,0-1.58-.29c-2.88,0-2.88,3.59-2.88,5.55v5h-3.54Z" transform="translate(0 0)"></path>
    <rect class="cls-2" x="354.09" y="120.93" width="3.7" height="3.7"></rect>
    <path class="cls-3" d="M368.79,106.18h4.68c4,0,7.69,1.16,7.69,5.57s-3.15,5.87-7.11,5.87h-1.56v7h-3.7Zm3.7,8.53h1.29c1.85,0,3.52-.6,3.52-2.75s-1.61-2.88-3.52-2.88h-1.29Z" transform="translate(0 0)"></path>
    <path class="cls-3" d="M383.56,111h3.15v3.1h.05c.16-1.27,1.61-3.42,3.73-3.42a3.71,3.71,0,0,1,1.08.11v3.57a3.55,3.55,0,0,0-1.59-.29c-2.88,0-2.88,3.59-2.88,5.55v5h-3.54Z" transform="translate(0 0)"></path>
    <path class="cls-3" d="M399.53,110.7a6.82,6.82,0,0,1,7.14,7.21,7.13,7.13,0,0,1-14.25,0,6.81,6.81,0,0,1,7.11-7.21m0,11.49c2.72,0,3.44-2.43,3.44-4.7,0-2.09-1.11-4-3.44-4s-3.41,2-3.41,4c0,2.25.71,4.7,3.41,4.7" transform="translate(0 0)"></path>
    <path class="cls-3" d="M410.6,113.6H408V111h2.61v-2.72l3.54-1.14V111h3.15v2.59h-3.15V120c0,1.16.32,2.24,1.67,2.24a3.12,3.12,0,0,0,1.61-.37l.11,2.81a9.41,9.41,0,0,1-2.62.31c-2.77,0-4.31-1.72-4.31-4.41Z" transform="translate(0 0)"></path>
    <path class="cls-3" d="M430.64,123.86a9.42,9.42,0,0,1-4.68,1.08c-4.5,0-7.11-2.59-7.11-7.06,0-3.93,2.09-7.18,6.32-7.18,5,0,6.47,3.46,6.47,8.22h-9.41a3.56,3.56,0,0,0,3.89,3.43,9.17,9.17,0,0,0,4.52-1.37Zm-2.38-7.38c-.11-1.71-.9-3.2-2.88-3.2s-3,1.38-3.15,3.2Z" transform="translate(0 0)"></path>
    <path class="cls-3" d="M443.25,114a5.27,5.27,0,0,0-2.41-.51c-2.19,0-3.6,1.75-3.6,4.31s1.2,4.44,3.68,4.44a7.57,7.57,0,0,0,2.72-.63l.16,2.93a11.46,11.46,0,0,1-3.54.45c-4.47,0-6.72-3-6.72-7.19,0-3.94,2.33-7,6.59-7a11.58,11.58,0,0,1,3.43.44Z" transform="translate(0 0)"></path>
    <path class="cls-3" d="M447.31,113.6H444.7V111h2.61v-2.72l3.54-1.14V111H454v2.59h-3.15V120c0,1.16.32,2.24,1.67,2.24a3.18,3.18,0,0,0,1.62-.37l.1,2.81a9.41,9.41,0,0,1-2.62.31c-2.77,0-4.31-1.72-4.31-4.41Z" transform="translate(0 0)"></path>
    <rect class="cls-3" x="456.43" y="120.93" width="3.7" height="3.7"></rect>
    <path class="cls-4" d="M193.84,58.09a9.32,9.32,0,0,1-.29,1.86c-.13.33-.32.48-.57.48H159.44a11.17,11.17,0,0,0,1.82,4.69,14.31,14.31,0,0,0,3.49,3.58A17.07,17.07,0,0,0,169.38,71a16.89,16.89,0,0,0,5.35.86,51.51,51.51,0,0,0,5.64-.29c.44,0,.67.13.67.38l1.24,8.12a.67.67,0,0,1-.48.67,22.54,22.54,0,0,1-4.16.58c-1.43.06-2.88.09-4.34.09a31.66,31.66,0,0,1-10.8-1.72,22.86,22.86,0,0,1-8.07-4.82,20.35,20.35,0,0,1-5-7.5,26.48,26.48,0,0,1-1.72-9.75,28.71,28.71,0,0,1,1.53-9.22,24.43,24.43,0,0,1,4.59-8.12,22.19,22.19,0,0,1,7.64-5.73,24.86,24.86,0,0,1,10.7-2.15,21.64,21.64,0,0,1,10.61,2.34,20.16,20.16,0,0,1,6.68,5.78A21.53,21.53,0,0,1,192.93,48a30.55,30.55,0,0,1,1,7.36c0,1,0,1.93-.1,2.72M166.37,42a11.47,11.47,0,0,0-3.58,2.53,11,11,0,0,0-2.2,3.4,16.5,16.5,0,0,0-1.05,3.58h22.74a18.18,18.18,0,0,0-.57-3.06A10.89,10.89,0,0,0,180,45a9.72,9.72,0,0,0-3.24-2.81A10.8,10.8,0,0,0,171.48,41a12,12,0,0,0-5.11,1" transform="translate(0 0)"></path>
    <path class="cls-4" d="M271.05,15.86A31.49,31.49,0,0,1,277.6,18a.46.46,0,0,1,.29.67l-2.58,8.7c-.13.44-.39.54-.77.28a33.45,33.45,0,0,0-6.26-1.95,37.5,37.5,0,0,0-8.07-.82,31,31,0,0,0-10.37,1.63,22.67,22.67,0,0,0-7.93,4.63,20,20,0,0,0-5.06,7.4,26.18,26.18,0,0,0-1.77,9.85,24.52,24.52,0,0,0,1.63,9,20.47,20.47,0,0,0,4.72,7.21,21.53,21.53,0,0,0,7.74,4.77,30.44,30.44,0,0,0,10.66,1.72,45,45,0,0,0,8.07-.71,29.46,29.46,0,0,0,6.74-2c.38-.19.63-.06.76.38l2.1,8.6c.13.13,0,.29-.29.48a33.49,33.49,0,0,1-7.4,2.39A53.69,53.69,0,0,1,258,81.45a44.88,44.88,0,0,1-14.81-2.29,32.07,32.07,0,0,1-11.27-6.59,29.18,29.18,0,0,1-7.22-10.32,34.44,34.44,0,0,1-2.53-13.47,33.85,33.85,0,0,1,2.68-13.57,31.29,31.29,0,0,1,7.59-10.75,35.89,35.89,0,0,1,11.85-7.12,44.16,44.16,0,0,1,15.43-2.58,49.2,49.2,0,0,1,11.32,1.1" transform="translate(0 0)"></path>
    <path class="cls-4" d="M316.07,65.78q-2.67,6.5-5,11.42t-4.49,8.55a51.56,51.56,0,0,1-4.16,6.12,25.3,25.3,0,0,1-11,8,24.92,24.92,0,0,1-5.77,1.39.67.67,0,0,1-.67-.48l-2.2-9.27c-.13-.32,0-.54.48-.67a20.15,20.15,0,0,0,3.15-1A26.24,26.24,0,0,0,290,88.05a21.12,21.12,0,0,0,7.17-7.93,5.85,5.85,0,0,0,.67-1.73,5.59,5.59,0,0,0-.1-.9,5.12,5.12,0,0,0-.48-1.29L278.81,34.25c-.12-.51,0-.76.48-.76h12.33a.62.62,0,0,1,.57.38L301.93,59c.51,1.4,1,2.71,1.34,3.92s.83,2.45,1.34,3.72c.13-.31.24-.63.34-1l.33-1.15c.32-1,.6-1.92.86-2.91s.54-1.93.86-2.82l8.69-24.94a.62.62,0,0,1,.58-.38H328.4c.51,0,.7.25.57.76Z" transform="translate(0 0)"></path>
    <path class="cls-4" d="M365.47,33.16a24.88,24.88,0,0,1,5.68,1.76c.32.19.45.39.38.58l-2.1,8.31c-.13.38-.42.48-.86.28a22.54,22.54,0,0,0-10-2,18.46,18.46,0,0,0-6.54,1.1A13.29,13.29,0,0,0,344,51a15.77,15.77,0,0,0-1,5.82,15.37,15.37,0,0,0,1.19,6.26,13.49,13.49,0,0,0,3.3,4.63,14.32,14.32,0,0,0,4.92,2.92,17.88,17.88,0,0,0,6.06,1,22.94,22.94,0,0,0,6.12-.72,40.09,40.09,0,0,0,4.49-1.48c.38-.12.63,0,.76.48L371.44,78c.12.25,0,.44-.29.57a30.35,30.35,0,0,1-5.83,1.91,39,39,0,0,1-9.08,1,30.5,30.5,0,0,1-10.65-1.76,23.93,23.93,0,0,1-8.07-4.92,21.61,21.61,0,0,1-5.16-7.55,25.31,25.31,0,0,1-1.81-9.75,26,26,0,0,1,1.86-9.84,22.75,22.75,0,0,1,5.4-8,24.69,24.69,0,0,1,8.69-5.3,33.47,33.47,0,0,1,11.66-1.91,36.18,36.18,0,0,1,7.31.72" transform="translate(0 0)"></path>
    <path class="cls-4" d="M403.82,80.69c0,.32-.19.48-.58.48a31.22,31.22,0,0,1-8.79-1.34,23,23,0,0,1-4.24-1.77,13.71,13.71,0,0,1-3.59-2.72,18.16,18.16,0,0,1-4.68-8.41,47.62,47.62,0,0,1-1.34-12V12.47a.51.51,0,0,1,.58-.57h11.18a.5.5,0,0,1,.57.57V51.16q0,4,.19,6.84a45.08,45.08,0,0,0,.53,4.73,12,12,0,0,0,.9,3.1A7.31,7.31,0,0,0,396,67.89a9.51,9.51,0,0,0,3.82,2.29,19.07,19.07,0,0,0,4.58.95c.39,0,.58.23.58.67Z" transform="translate(0 0)"></path>
    <path class="cls-4" d="M454.45,58.09a9.32,9.32,0,0,1-.29,1.86c-.12.33-.32.48-.57.48H420.05a11.17,11.17,0,0,0,1.82,4.69,14.44,14.44,0,0,0,3.48,3.58A17.28,17.28,0,0,0,430,71a16.89,16.89,0,0,0,5.35.86,51.51,51.51,0,0,0,5.64-.29c.44,0,.67.13.67.38l1.24,8.12a.67.67,0,0,1-.48.67,22.54,22.54,0,0,1-4.16.58c-1.43.06-2.88.09-4.34.09a31.7,31.7,0,0,1-10.8-1.72A22.69,22.69,0,0,1,415,74.91a20.35,20.35,0,0,1-5-7.5,26.68,26.68,0,0,1-1.72-9.75,28.71,28.71,0,0,1,1.53-9.22,24.43,24.43,0,0,1,4.59-8.12,22.19,22.19,0,0,1,7.64-5.73,24.86,24.86,0,0,1,10.7-2.15,21.57,21.57,0,0,1,10.6,2.34,20.2,20.2,0,0,1,6.69,5.78A21.53,21.53,0,0,1,453.54,48a30.51,30.51,0,0,1,1,7.36c0,1,0,1.93-.09,2.72M427,42a11.47,11.47,0,0,0-3.58,2.53,11,11,0,0,0-2.2,3.4,16.5,16.5,0,0,0-1.05,3.58h22.74a19.25,19.25,0,0,0-.57-3.06A10.69,10.69,0,0,0,440.64,45a9.66,9.66,0,0,0-3.25-2.81,10.73,10.73,0,0,0-5.3-1.15A12,12,0,0,0,427,42" transform="translate(0 0)"></path>
    <path class="cls-4" d="M216,61.17h0a3.48,3.48,0,0,0,.12-1.25s0-.51,0-1.41c0-3.3-.1-8.43-.1-8.43a1.31,1.31,0,0,0-1.28-1.28l-14.28.1a1.33,1.33,0,0,0-1.28,1.3s-.11,5-.11,8.3v1.38a1.25,1.25,0,0,0,1.27,1.23s9.76-.27,15.6.06" transform="translate(0 0)"></path>
    <polygon class="cls-4" points="451.84 18.52 449.58 18.52 449.58 17.61 455.13 17.61 455.13 18.52 452.88 18.52 452.88 24.86 451.84 24.86 451.84 18.52"></polygon>
    <polygon class="cls-4" points="456.18 17.61 457.9 17.61 460.17 23.63 462.41 17.61 464.12 17.61 464.12 24.86 463.08 24.86 463.08 18.58 463.06 18.58 460.66 24.86 459.64 24.86 457.24 18.58 457.22 18.58 457.22 24.86 456.18 24.86 456.18 17.61"></polygon>
</svg>