<svg xmlns="http://www.w3.org/2000/svg" width="226.066" height="31.132"><defs><clipPath id="a"><path data-name="Rectangle 4473" fill="none" d="M0 0h226.066v31.132H0z"/></clipPath></defs><g data-name="Group 10562"><g data-name="Group 10561" clip-path="url(#a)"><path data-name="Path 9" d="m34.881 4.567-.576.542 3.6 3.363.576-.54a11.884 11.884 0 0 1 8.17-3.171 13.166 13.166 0 0 1 8.176 3.174C56.306 9.1 59.842 12.7 59.842 15.6s-2.827 5.615-5.011 7.661a12.14 12.14 0 0 1-16.352 0L26.169 11.7l-3.6 3.367 12.317 11.561c6.49 6.082 17.338 5.966 23.828-.116 3.141-2.948 6.46-6.825 6.46-11.129 0-4.14-3.514-8.314-6.575-10.983A18.148 18.148 0 0 0 46.654 0a17.132 17.132 0 0 0-11.773 4.567" fill="#56ca19"/><path data-name="Path 10" d="m30.292 26.564.576-.542-3.6-3.363-.576.54a11.884 11.884 0 0 1-8.17 3.171 13.166 13.166 0 0 1-8.178-3.17c-1.476-1.168-5.013-4.768-5.013-7.663s2.827-5.615 5.011-7.661a12.14 12.14 0 0 1 16.352 0L39 19.434l3.6-3.367L30.288 4.5C23.8-1.578 12.95-1.462 6.46 4.62 3.319 7.567 0 11.445 0 15.748c0 4.14 3.514 8.314 6.575 10.983a18.148 18.148 0 0 0 11.945 4.4 17.132 17.132 0 0 0 11.772-4.567" fill="#56ca19"/><path data-name="Path 11" d="M95.93 24.724v4.083H79.71V2.999h15.845v4.083H84.243v6.967h9.889v4.158h-9.889v6.518Z" fill="#072b49"/><path data-name="Path 12" d="M98.108 20.042c0-5.544 4.456-9.1 9.515-9.1a8.817 8.817 0 0 1 7.116 3.371l-3.108 2.434a5.177 5.177 0 0 0-3.932-1.761 5.059 5.059 0 1 0 0 10.113 5.171 5.171 0 0 0 3.932-1.761l3.109 2.436a8.924 8.924 0 0 1-7.116 3.371c-5.058 0-9.515-3.558-9.515-9.1" fill="#072b49"/><path data-name="Path 13" d="M137.979 20.042c0-5.544 4.456-9.1 9.515-9.1a8.817 8.817 0 0 1 7.116 3.371l-3.109 2.436a5.177 5.177 0 0 0-3.932-1.761 5.059 5.059 0 1 0 0 10.113 5.171 5.171 0 0 0 3.932-1.761l3.109 2.436a8.924 8.924 0 0 1-7.116 3.371c-5.058 0-9.515-3.558-9.515-9.1" fill="#072b49"/><path data-name="Path 14" d="M116.281 20.008c0-5.543 4.307-9.064 9.289-9.064s9.328 3.521 9.328 9.064a9.309 9.309 0 0 1-18.617 0m14.233 0a4.927 4.927 0 1 0-9.852 0 4.93 4.93 0 1 0 9.852 0" fill="#072b49"/><path data-name="Path 15" d="M174.174 18.994v9.815h-4.345v-9.4c0-2.772-1.686-4.2-3.633-4.2a4.177 4.177 0 0 0-4.458 4.458v9.141h-4.345V1.949h4.345v12.025c.86-2.1 3.671-3.034 5.432-3.034 4.494 0 7 2.959 7 8.052" fill="#072b49"/><path data-name="Path 16" d="M196.089 11.315v17.493h-4.345v-2.36a6.952 6.952 0 0 1-5.806 2.734c-4.607 0-8.616-3.558-8.616-9.14 0-5.619 3.971-9.1 8.578-9.1 2.21 0 4.645.86 5.844 2.7v-2.327Zm-4.42 8.689a5.022 5.022 0 0 0-5.057-5.019 4.879 4.879 0 0 0-4.903 5.023 4.944 4.944 0 0 0 4.908 5.095 5 5 0 0 0 5.057-5.095" fill="#072b49"/><path data-name="Path 17" d="M199.846 5.134a2.737 2.737 0 0 1 2.847-2.659 2.663 2.663 0 1 1 0 5.319 2.762 2.762 0 0 1-2.847-2.66m.675 6.181h4.345v17.493h-4.345Z" fill="#072b49"/><path data-name="Path 18" d="M226.067 18.992v9.816h-4.345v-9.4c0-2.772-1.686-4.2-3.634-4.2a4.176 4.176 0 0 0-4.456 4.458v9.142h-4.345V11.315h4.345v2.772c.9-2.173 3.633-3.146 5.432-3.146 4.494 0 7 2.959 7 8.052" fill="#072b49"/></g></g></svg>