<svg version="1.1" id="Layer_1" xmlns="http://www.w3.org/2000/svg" x="0" y="0" viewBox="0 0 194 48" width="194" height="48" style="enable-background:new 0 0 194 48" xml:space="preserve"><style>.st0{fill:#000}</style><path class="st0" d="M7 48c-2.6 0-4-4.7-4.6-6.8C.9 35.4.1 29.4 0 23.4c0-1.1 0-2.2.2-3.3 1.4-8 9.1-10.8 16.4-10.7 3 0 7 .2 9.5 1.9 1.5 1.1 2 2.6 1.9 4.4-.6 8-8.3 19.7-13.4 25.9-1.5 1.8-5.4 6.3-7.6 6.4m0-.7c1.5-.1 3.9-2.6 5-3.7 5.9-6.2 12.9-16.5 15.3-24.7.4-1.6.8-3.2.5-4.8-.1-.5-.3-1-.6-1.5-1.7-2.5-6.1-2.8-8.9-2.9-4.8-.1-10 .4-13.8 3.6C2 15.4.6 18.5.5 21.8c-.1 1.6 0 3.3.1 4.9.2 3.2.6 6.5 1.3 9.7.4 2.1.9 4.2 1.7 6.3.4 1 .8 2 1.3 2.9.4.7 1.1 1.7 2.1 1.7"/><path class="st0" d="M7 44.7c-2.6 0-3.9-5.3-4.4-7.4C1.5 32.5.9 27.6.8 22.6.7 16 4.9 12.1 11.1 11c2.4-.4 4.8-.4 7.2-.2 2.8.3 6.8.9 7.2 4.3.2 2.2-.6 4.7-1.4 6.7-1.4 3.6-3.3 7-5.3 10.2-1.6 2.4-3.2 4.8-5.1 7-1.3 1.6-4.7 5.7-6.7 5.7m0-.7c1.3-.1 3.4-2.3 4.3-3.2 5.2-5.6 11.3-14.4 13.5-21.7.4-1.5.8-3.4.3-4.9-1.1-2.8-5.6-3-8.2-3.1-4-.1-8.3.3-11.6 2.7-2.5 1.8-3.8 4.5-4.1 7.5-.1.6-.1 1.2 0 1.8.1 3.8.5 7.6 1.3 11.4.5 2.3 1 4.7 2 6.8.4.9 1.3 2.7 2.5 2.7"/><path class="st0" d="M6.9 41.4c-2 0-3.1-3.6-3.5-5.2-1.2-4.4-1.7-9-1.8-13.6-.1-3.2.9-6.1 3.5-8.1 3-2.2 6.8-2.7 10.5-2.5 1.7.1 3.3.2 4.9.9 1.4.6 2.5 1.5 2.5 3.1.1 6-6.5 16-10.2 20.5-1.2 1.4-4.1 4.9-5.9 4.9m.1-.7c.3 0 .7-.2 1-.4 1-.6 1.9-1.5 2.7-2.4 4.5-4.8 9.8-12.4 11.7-18.7.3-1.3.7-3 .2-4.2-1.1-2.7-5.8-2.7-8.3-2.7-5.4 0-11.1 1.9-12.1 7.9v.3c-.1.2-.2.5-.2.7v1.2c.1 3.4.4 6.8 1.1 10.1.4 2 .9 4 1.7 5.9.4.8 1.2 2.3 2.2 2.3"/><path class="st0" d="M6.9 38.1c-1.7 0-2.6-3-3-4.4-.7-2.4-1-4.8-1.3-7.2-.2-1.7-.3-3.5-.2-5.3 0-.2 0-.5.1-.8v-.3c.5-3 2.6-5.1 5.4-6.1 2.2-.8 4.5-.9 6.8-.7 1.7.1 4.3.4 5.3 1.9.2.3.4.7.4 1.1v.9c-.4 5.2-5.3 12.9-8.6 16.8-.9 1.1-3.4 4.1-4.9 4.1m0-.6c1.5-.2 4.8-4.1 5.8-5.5 2.7-3.5 7.7-11 7.5-15.4-.2-2.4-3.1-2.8-5.1-2.9-2.4-.1-4.9-.1-7.2.8-1.9.7-3.7 2-4.5 3.9-.5 1-.7 2.1-.7 3.2 0 1.6.1 3.3.3 4.9.4 3.1.9 6.2 2.1 9 .4.7 1 2 1.8 2"/><path class="st0" d="M6.9 34.9c-1.3 0-1.9-1.8-2.3-2.8-.7-2.2-1.1-4.4-1.3-6.7-.1-1.4-.2-2.8-.2-4.3.1-1.5.6-2.9 1.6-4 2-2.2 5.2-2.6 8-2.5 1.8.1 4.8.3 5.1 2.5.1.4 0 .8 0 1.2-.6 4.1-4.3 9.8-6.9 13.1-.8 1-2.8 3.4-4 3.5m0-.7c1.2-.2 3.8-3.3 4.7-4.4 2.3-3 5.8-8.2 6.1-12 0-.4 0-.8-.1-1.1-.7-1.6-3.3-1.8-4.8-1.8-2.4-.1-5 .2-7 1.7-1.3 1-2 2.5-2.2 4v.8c0 2.4.3 4.8.8 7.1l.6 2.4c.2.8.5 1.6 1 2.3.1.5.4 1 .9 1"/><path class="st0" d="M6.8 31.6c-.8 0-1.3-.9-1.6-1.5-.7-1.9-1-3.8-1.2-5.8-.1-.9-.1-1.7-.1-2.6 0-.9.1-1.8.5-2.6 1-2.1 3.4-2.9 5.6-3 .9 0 1.8 0 2.6.1 1 .2 2.4.5 2.6 1.7.4 2.7-2.9 7.9-4.5 10-.6.9-2.7 3.6-3.9 3.7m0-.7c.9-.2 2.9-2.5 3.5-3.4 1.1-1.4 2-2.8 2.9-4.3.7-1.2 1.3-2.5 1.7-3.8.2-.7.3-1.5-.1-2.1-.7-1-2.4-1-3.5-1.1-1.9 0-3.9.2-5.4 1.4-1.2 1-1.6 2.4-1.6 3.9 0 1.7.3 3.4.6 5.1.2.8.4 1.7.7 2.5.2.6.7 1.8 1.2 1.8"/><path class="st0" d="M6.8 28.3c-.8 0-1.1-1-1.3-1.6-.4-1.2-.6-2.4-.7-3.6-.1-.6-.1-1.2-.1-1.8 0-.6.1-1.3.4-1.9.9-1.8 3.1-2.2 4.9-2.1.9.1 2.6.2 2.8 1.3.3 1.9-2 5.5-3.1 7.1-.6.6-2 2.6-2.9 2.6m0-.6c.2 0 .4-.2.6-.4.7-.6 1.3-1.3 1.8-2 .7-.9 1.4-1.9 2-3 .5-.8.9-1.6 1.1-2.5.1-.5.3-1.2 0-1.7-.5-.7-1.7-.7-2.5-.7-1.4 0-3.1.2-4.1 1.3-.6.6-.8 1.5-.8 2.4 0 1.2.2 2.4.4 3.6.4.7.5 1.3.7 1.8.2.3.5 1.1.8 1.2"/><path class="st0" d="M6.8 25c-1.1 0-1.3-3.3-1.3-4.1 0-1.5 1.2-2.3 2.6-2.3.6 0 1.7 0 2 .5.3.4 0 1.1-.2 1.6-.3.7-.6 1.3-.9 1.9-.4.6-.7 1.2-1.2 1.7-.2.2-.6.7-1 .7m0-.6c.5-.4.9-.8 1.3-1.3.6-.8 1.3-1.6 1.7-2.6.2-.4.5-1 .2-1.4-.3-.4-1-.4-1.4-.4-.9 0-2.1.2-2.5 1.1-.1.2-.1.5-.1.7-.1.9.2 3.4.8 3.9M62.6 0c2.6 0 4 4.7 4.6 6.8 1.6 5.8 2.3 11.8 2.4 17.8 0 1.1 0 2.2-.2 3.3-1.4 8-9.1 10.8-16.4 10.7-3 0-7-.2-9.5-1.9-1.5-1.1-2-2.5-1.9-4.3.6-8 8.3-19.7 13.4-25.9C56.5 4.6 60.3.1 62.6 0m0 .7c-1.5.1-3.9 2.6-5 3.7-5.9 6.2-12.9 16.5-15.3 24.7-.4 1.6-.8 3.2-.5 4.8.1.5.3 1 .6 1.5 1.7 2.5 6.1 2.8 8.9 2.9 4.8.1 10-.4 13.8-3.6 2.5-2.1 3.9-5.2 4-8.5.1-1.6 0-3.3-.1-4.9-.2-3.2-.6-6.5-1.3-9.7-.4-2.1-.9-4.2-1.7-6.3-.4-1-.8-2-1.3-2.9-.5-.7-1.2-1.7-2.1-1.7"/><path class="st0" d="M62.6 3.4c3.1 0 4.5 7.7 5 10.2.7 4.1 1.2 8.3 1.2 12.6 0 .3 0 .7-.1 1.1 0 .2-.1.5-.1.7-.9 5.3-5.1 8.2-10.2 9.1-1.4.3-2.9.4-4.3.3-1.4 0-2.9-.1-4.3-.3-2.5-.4-5.6-1.3-5.7-4.3-.2-6.9 7.4-18.5 11.8-23.8 1.3-1.5 4.7-5.6 6.7-5.6m0 .7c-1.3.1-3.4 2.3-4.3 3.2C53 12.8 46.9 21.7 44.8 29c-.4 1.5-.8 3.4-.3 4.9.9 2.1 3.3 2.6 5.3 2.9 1.9.2 3.8.3 5.7.2 6-.3 11.8-2.9 12.7-9.5.1-.7.1-1.4.1-2.1 0-1.1-.1-2.1-.1-3.2-.2-3.3-.7-6.7-1.4-9.9-.4-1.8-.9-3.7-1.7-5.4-.5-1-1.4-2.8-2.5-2.8"/><path class="st0" d="M62.6 6.8c1.7 0 2.7 2.6 3.2 4 1.5 4.9 2.1 10 2.2 15.1 0 .5 0 1.1-.1 1.6-.6 4.9-4.2 7.6-8.9 8.5-1.8.3-3.7.3-5.6.2-2.6-.2-6.8-.7-6.8-4.1 0-5.9 6.4-15.7 10.2-20.3 1.1-1.5 4-5 5.8-5m0 .6c-.3 0-.7.2-1 .4-1 .6-1.9 1.5-2.7 2.4-4.5 4.8-9.8 12.4-11.7 18.7-.3 1.3-.7 3-.2 4.2 1.1 2.7 5.8 2.7 8.3 2.7 5.4 0 11.1-1.9 12.1-7.9v-.3c0-.2.1-.4.1-.6v-1.2c-.1-3.4-.4-6.8-1.1-10.1-.4-2-.9-4-1.7-5.9-.4-.8-1.1-2.3-2.1-2.4"/><path class="st0" d="M62.6 10.1c3.6 0 4.7 13.5 4.6 16.3 0 3.7-2 6.4-5.5 7.7-2.7.9-5.6.9-8.3.5-1.3-.2-2.9-.6-3.7-1.8-.2-.3-.4-.7-.4-1.1v-.9c.4-5 5.4-12.7 8.6-16.6.7-1.1 3.2-4 4.7-4.1m0 .7c-1.5.2-4.8 4.1-5.8 5.5-2.8 3.6-7.2 10.2-7.5 14.8v.8c0 .2.1.4.2.6.8 2 4.1 2.2 5.9 2.2 3 .1 6.4-.3 8.8-2.3 1.5-1.2 2.3-3 2.5-4.8v-.8c0-1.6-.1-3.3-.3-4.9-.4-3.1-.9-6.2-2.1-9-.3-.8-.9-2.1-1.7-2.1"/><path class="st0" d="M62.6 13.5c3 0 3.9 11.4 3.7 13.8-.1 1.5-.6 2.9-1.6 4-2 2.2-5.2 2.6-8 2.4-1.8-.1-4.8-.3-5.1-2.5-.1-.4 0-.8 0-1.2.6-4.1 4.3-9.8 6.9-13.1.8-.9 2.8-3.4 4.1-3.4m0 .7c-1.2.2-3.8 3.3-4.7 4.4-2.3 3-5.8 8.2-6.1 12 0 .4 0 .8.1 1.1.7 1.6 3.3 1.8 4.8 1.8 2.4.1 5-.2 7-1.7 1.3-1 2-2.5 2.2-4V27c0-2.4-.3-4.8-.8-7.1-.2-1.1-.5-2.2-.9-3.2-.2-.5-.4-1-.7-1.5-.2-.5-.5-1-.9-1"/><path class="st0" d="M62.6 16.9c2.4 0 3 8.5 2.9 10.3 0 1.2-.4 2.5-1.3 3.4-1.2 1.3-3.1 1.8-4.9 1.9-1.1 0-2.2 0-3.3-.3-.9-.2-1.8-.7-2-1.7-.3-2.7 2.9-7.7 4.5-10 .8-.9 2.9-3.6 4.1-3.6m0 .6s-.1 0-.2.1c-.3.1-.5.3-.7.5l-.9.9c-2.4 2.5-5.1 6.4-6.2 9.8-.2.7-.5 1.8 0 2.5.7 1 2.4 1 3.5 1.1 2.1 0 4.4-.3 5.9-1.9.9-.9 1.2-2.2 1.1-3.5-.1-1.7-.3-3.4-.6-5.1-.2-.8-.4-1.7-.7-2.5-.2-.6-.7-1.8-1.2-1.9z"/><path class="st0" d="M62.6 20.3c1.5 0 1.9 4.1 2 5.2.1.6.1 1.2.1 1.8 0 .6-.1 1.3-.4 1.9-.9 1.8-3.1 2.2-4.9 2.1-.9-.1-2.6-.2-2.8-1.3-.3-1.9 2-5.5 3.1-7.1.6-.7 2-2.6 2.9-2.6m0 .6c-.2 0-.4.2-.6.4-.7.6-1.3 1.3-1.8 2-1.1 1.4-2.1 2.9-2.9 4.6-.1.3-.2.6-.3.8-.1.5-.3 1.2 0 1.7.5.7 1.7.7 2.5.7 1.4 0 3.1-.2 4.1-1.3.4-.5.7-1.1.7-1.7.1-.8 0-1.6-.1-2.5-.2-1.2-.4-2.4-.8-3.5-.2-.4-.5-1.2-.8-1.2"/><path class="st0" d="M62.6 23.6c1.2 0 1.3 3.4 1.3 4.3 0 1.2-.9 1.9-2 2.1-.5.1-1.1 0-1.6 0-.6-.1-1.2-.3-1.1-1 0-.4.2-.7.3-1 .4-1 .9-1.9 1.5-2.8.2-.4 1-1.5 1.6-1.6m0 .6c-.9.4-3.8 4.3-3.2 5.2.3.4.9.4 1.4.4.9.1 2.1-.2 2.5-1.1.1-.2.2-.5.1-.8 0-.9-.3-3.1-.8-3.7M53.9 10.7c2 2.1-1.2 7.4-2.4 9.4-2.9 4.7-6.3 9-10.1 12.9-1.5 1.6-3.3 3-5.4 3.7-6 2.2-12.1-1.4-16.3-5.6-2-2.1-4.7-5.1-5.3-8.1-.3-1.8.4-3.2 1.8-4.4 6.1-5.2 19.8-8 27.8-8.8 2.3-.2 8.3-.7 9.9.9m-.5.5c-1.1-1-4.6-.9-6.1-.9-8.6.2-20.8 2.5-28.3 6.6-1.4.8-2.8 1.7-3.8 3-.3.4-.5.9-.6 1.5-.6 3 2.4 6.3 4.3 8.4 3.3 3.5 7.4 6.7 12.3 7.2 3.3.3 6.4-.9 8.8-3.1 1.2-1.1 2.3-2.3 3.4-3.5 2.1-2.5 4.1-5 5.9-7.7 1.2-1.8 2.3-3.7 3.2-5.6.4-1 .8-2 1.1-3 .3-1 .4-2.2-.2-2.9"/><path class="st0" d="M51.5 12.9c2.2 2.3-2.3 8.6-3.6 10.8-2.3 3.3-4.8 6.4-7.5 9.2-.2.2-.5.5-.8.7-5.5 4.9-12 2.9-17-1.7-1.1-1-2.1-2-3-3.1-.9-1.1-1.8-2.3-2.4-3.6-.7-1.7-.7-3.4.6-4.8 4.9-4.9 18.1-7.6 25-8.3 2-.1 7.3-.5 8.7.8m-.5.5c-1-.8-4-.8-5.3-.8-7.6.3-18.2 2.2-24.9 5.8-1.3.8-3 1.8-3.7 3.2-.8 2 .5 4.2 1.7 5.8 1.2 1.5 2.5 2.9 3.9 4.2 4.5 4 10.4 6.3 15.7 2.3.6-.4 1.1-.9 1.6-1.4.7-.8 1.5-1.6 2.2-2.4 2.2-2.5 4.2-5.2 6-8 1-1.6 1.9-3.3 2.6-5 .4-.9 1-2.8.2-3.7"/><path class="st0" d="M49.1 15.2c1.2 1.2.1 3.7-.6 5.1-2.4 4.5-5.6 8.6-9.1 12.2l-.9.9C34.6 36.6 30 36 26 33.2c-1.5-1.1-2.9-2.4-4.1-3.8-1.8-2-4.3-5.3-1.9-7.7 4.2-4.2 15.7-6.6 21.6-7.2 1.7-.1 6.3-.5 7.5.7m-.4.5c-.2-.2-.6-.3-1-.4-1.2-.3-2.4-.3-3.6-.3-6.6.2-15.7 1.9-21.5 5-1.1.7-2.6 1.6-3.2 2.8-1.1 2.6 2.2 6 4 7.8 3.1 3.1 7.6 5.8 12 4.1 1.2-.5 2.4-1.2 3.3-2.1 2.6-2.5 4.8-5.4 6.8-8.4 1.1-1.7 2.2-3.5 2.9-5.4.4-.8.9-2.4.3-3.1"/><path class="st0" d="M46.8 17.4c.8.9.3 2.4 0 3.3-.7 1.6-1.6 3.1-2.6 4.6-1.6 2.3-3.4 4.5-5.3 6.5-.4.4-.8.7-1.2 1.1-3.3 2.6-7.1 2-10.4-.3-1.4-1-2.7-2.3-3.8-3.6-1-1.2-2.4-3-2-4.7.1-.4.3-.8.5-1.1.2-.2.4-.5.6-.7 3.8-3.3 12.7-5.2 17.8-5.7 1.4 0 5.3-.4 6.4.6m-.5.5c-.2-.2-.5-.3-.8-.3-.3-.1-.7-.1-1-.2-.7-.1-1.4-.1-2.1-.1-5.3.1-16 2-20 5.5-.4.4-.8.9-.9 1.5-.3 1.6 1.1 3.4 2.1 4.5 2.8 3.2 7.1 6.6 11.5 5 1-.4 2-1 2.8-1.8 2.1-2.1 4-4.5 5.7-7 .9-1.4 1.8-2.9 2.5-4.5.3-.7.7-2 .2-2.6"/><path class="st0" d="M44.4 19.7c2.1 2.1-5.3 10.8-7.1 12.4-1.1 1-2.5 1.6-3.9 1.7-2.9.1-5.5-1.8-7.4-3.9-1.2-1.3-3.1-3.5-1.9-5.3.2-.2.4-.5.6-.6 3.1-2.7 10.4-4.2 14.5-4.6 1.2-.3 4.3-.6 5.2.3m-.5.4c-1-.8-5.1-.3-6.4-.2-3.7.5-9.8 1.7-12.7 4.1l-.6.6c-1.2 1.6.8 3.9 1.9 5 1.7 1.7 3.7 3.4 6.1 3.7 1.6.2 3.2-.3 4.4-1.3l.6-.6c1.7-1.7 3.2-3.6 4.5-5.6.6-.9 1.2-1.9 1.7-2.9l.6-1.5c.1-.4.2-.9-.1-1.3"/><path class="st0" d="M42 21.9c1.7 1.7-3.7 7.9-5 9.1-.6.6-1.4 1.2-2.2 1.5-2.2.8-4.5-.3-6.1-1.8-.6-.6-1.2-1.2-1.8-1.9-.6-.8-1.3-2.1-.6-3.1 1.6-2.2 7.6-3.5 10.3-3.9 1.2-.2 4.6-.7 5.4.1m-.4.5c-.8-.6-3.8-.2-4.9-.1-1.7.2-3.4.5-5.1 1-1.2.3-2.5.8-3.6 1.4-.7.4-1.6.9-1.7 1.7-.2 1.2 1 2.5 1.7 3.3 1.3 1.4 2.9 2.6 4.9 2.8 1.5.1 2.9-.6 3.9-1.7 1.2-1.3 2.3-2.6 3.2-4.1.5-.7.9-1.5 1.3-2.2.1-.5.6-1.7.3-2.1"/><path class="st0" d="M39.6 24.2c.8.8-.6 2.9-1.1 3.7-.7 1-1.5 2-2.4 2.8-.2.2-.5.4-.7.6-2.1 1.4-4.4.1-5.8-1.6-.6-.7-1.7-1.9-1-2.9 1.2-1.5 5.3-2.5 7.2-2.8.8-.1 3.2-.4 3.8.2m-.4.4c-.2-.1-.4-.1-.7-.2-.9-.1-1.8 0-2.7.1-1.2.1-2.4.4-3.5.7-.9.2-1.7.5-2.5.9-.5.3-1.1.6-1.2 1.2-.1.8.7 1.7 1.2 2.3.8.9 1.8 1.6 3 1.9.8.2 1.7 0 2.4-.5l.6-.6c.4-.4.8-.9 1.2-1.4.7-.9 1.4-1.9 1.9-3 .2-.4.5-1.1.3-1.4"/><path class="st0" d="M37.2 26.4c.8.8-1.4 3.3-2 3.8-1.1 1.1-2.4.8-3.4-.2-.3-.2-.5-.5-.7-.8-.3-.3-.6-.9-.3-1.3.4-.5 1.5-.9 2.1-1.1.8-.2 3.7-1 4.3-.4m-.4.4c-.9-.3-5.7.3-6 1.5-.1.4.4.9.7 1.3.6.7 1.6 1.4 2.6 1 .3-.1.5-.3.7-.5.7-.7 2-2.4 2-3.3M98.7 30.6h-8.6v-6h6.5c.4 0 .6-.2.6-.5V24c0-.3-.2-.5-.6-.5h-6.5v-5.6h8.5c.3 0 .5-.2.5-.5v-.1c0-.3-.2-.5-.6-.5h-9c-.4 0-.7.3-.7.8V31c0 .4.3.8.7.8h9.1c.4 0 .6-.2.6-.5v-.1c.1-.4-.2-.6-.5-.6M106.4 21.6c2.4 0 3.4 1.3 3.8 2.4 0 .1.1.1.1.1.2 0 .7-.2.7-.6 0-.4-.3-1-.8-1.6-.6-.6-1.8-1.4-3.8-1.4-3.3 0-5.6 2.4-5.6 5.7 0 3.3 2.4 5.8 5.6 5.8 2.1 0 3.3-.9 3.8-1.4.6-.6.9-1.3.9-1.6 0-.2-.1-.3-.2-.4-.2-.1-.4-.2-.5-.2-.1 0-.1 0-.1.1-.4 1.1-1.5 2.4-3.8 2.4-2.5 0-4.4-2-4.4-4.7-.1-2.7 1.8-4.6 4.3-4.6M123.2 26.3c0 2.7-1.8 4.6-4.4 4.6-2.5 0-4.4-2-4.4-4.7 0-2.6 1.9-4.6 4.4-4.6 2.6 0 4.4 2 4.4 4.7zm-4.4-5.8c-3.3 0-5.6 2.4-5.6 5.7s2.3 5.7 5.5 5.8h.1c1.4 0 2.8-.6 3.9-1.6 1.1-1.1 1.7-2.5 1.8-4 0-1.7-.5-3.2-1.6-4.3-1.1-1-2.5-1.6-4.1-1.6M127.9 16c-.2 0-.4.1-.4.2v15.1c0 .4.2.6.5.6h.1c.4 0 .6-.2.6-.6V17.2c0-.8-.3-1.2-.8-1.2zM133.3 20.7h-.1c-.4 0-.5.2-.5.6v10c0 .4.2.6.5.6h.1c.4 0 .6-.2.6-.6v-10c-.1-.4-.3-.6-.6-.6M147.1 26.2c0 2.8-1.7 4.7-4.2 4.7-2.3 0-4.1-1.7-4.1-3.9v-2.5c.7-1.9 2.2-2.9 4.2-2.9 2.3 0 4.1 2 4.1 4.6m-4-5.7c-1.8 0-3.3.8-4.2 2.3v-5.7c0-.8-.3-1.2-.8-1.2-.2 0-.4.1-.4.2v15.1c0 .4.2.6.6.6h.1c.3 0 .5-.2.5-.6v-1.5c.9 1.7 2.8 2.3 4.2 2.3 3.1 0 5.3-2.4 5.3-5.8s-2.3-5.7-5.3-5.7M155.3 20.5c-1.5 0-2.4.8-2.9 2.3v-1c0-.8-.3-1.2-.8-1.2-.2 0-.4.1-.4.2v10.4c0 .4.2.6.6.6h.1c.4 0 .6-.2.6-.6v-4.7c0-3.1 1-4.8 2.8-4.8.5 0 1 .1 1.2.4h.2c.1-.1.3-.3.3-.6-.2-.6-.8-1-1.7-1M160 20.7h-.1c-.4 0-.5.2-.5.6v10c0 .4.2.6.5.6h.1c.4 0 .6-.2.6-.6v-10c0-.4-.2-.6-.6-.6M173.1 20.7h-.1c-.4 0-.5.2-.5.6v7.1c-.7 1.6-2.1 2.5-3.8 2.5-2.1 0-3.3-1.4-3.3-3.8v-5.8c0-.4-.2-.6-.6-.6h-.1c-.4 0-.5.2-.5.6v5.8c0 3.1 1.6 4.9 4.4 4.9 1.6 0 3-.8 3.9-2.1v.8c0 .8.2 1.2.8 1.2.2 0 .5-.1.5-.2V21.2c-.2-.3-.3-.5-.7-.5M189.7 20.5c-1.7 0-3.2.9-3.9 2.5-.6-1.6-1.9-2.5-3.8-2.5-1.5 0-2.8.8-3.6 2.1v-.7c0-.8-.3-1.2-.8-1.2-.2 0-.4.1-.6.2v10.4c.1.4.3.6.7.6h.1c.4 0 .6-.2.6-.6v-7.1c.6-1.5 1.9-2.4 3.4-2.4 2 0 3.1 1.2 3.1 3.4v6.2c0 .4.2.6.5.6h.1c.4 0 .6-.2.6-.6v-7.1c.5-1.5 1.9-2.5 3.4-2.5 2 0 3.1 1.3 3.1 3.7v5.9c0 .4.2.6.6.6h.1c.4 0 .5-.2.5-.6v-6c.1-3.2-1.4-4.9-4.1-4.9M133.2 16.5c-.6 0-.9.3-.9.9 0 .5.3.8.8.8.6 0 .9-.3.9-.8.1-.6-.2-.9-.8-.9M160 16.5c-.6 0-.9.3-.9.9 0 .5.3.8.8.8.6 0 .9-.3.9-.8 0-.6-.2-.9-.8-.9"/></svg>