<svg id="Calque_1" data-name="Calque 1" xmlns="http://www.w3.org/2000/svg" width="217.5" height="45.6"><defs><style>.cls-1{stroke-width:0}</style></defs><path class="cls-1" d="M60.3 18.6c2.7 0 3.9 2.1 4.2 4.2H56c.4-2.6 2.1-4.2 4.3-4.2m8.5 5c0-4.2-3-8.7-8.4-8.7-4.9 0-8.7 4-8.7 9.2v.1c0 5.3 3.8 9.2 9.1 9.2 2.5 0 4.6-.8 6.4-2.4.4-.4.6-.9.6-1.4 0-1-.8-1.8-1.8-1.8-.5 0-.8.2-1.1.4-1.2 1-2.5 1.5-4 1.5-2.5 0-4.3-1.5-4.8-4h10.6c1.2 0 2.1-.9 2.1-2.1M73.9 8.5c-1.2 0-2.2 1-2.2 2.2V31c0 1.2 1 2.2 2.2 2.2s2.2-1 2.2-2.2V10.6c0-1.2-1-2.1-2.2-2.1M88.3 18.6c2.7 0 3.9 2.1 4.2 4.2H84c.4-2.6 2.1-4.2 4.3-4.2m8.4 5c0-4.2-3-8.7-8.4-8.7-4.9 0-8.7 4-8.7 9.2v.1c0 5.3 3.8 9.2 9.1 9.2 2.5 0 4.6-.8 6.4-2.4.4-.4.6-.9.6-1.4 0-1-.8-1.8-1.8-1.8-.5 0-.8.2-1.1.4-1.2 1-2.5 1.5-4 1.5-2.5 0-4.3-1.5-4.8-4h10.6c1.2 0 2.1-.9 2.1-2.1M113.5 27.5c-.6 0-1.1.3-1.2.5-1.2 1-2.4 1.5-3.7 1.5-2.8 0-5-2.3-5-5.4V24c0-3 2.1-5.3 4.8-5.3 1.7 0 2.7.7 3.6 1.4.2.1.7.4 1.3.4 1.1 0 2-.9 2-2 0-.7-.4-1.2-.7-1.5-1.7-1.5-3.7-2.2-6.2-2.2-5.2 0-9.2 4.1-9.2 9.3v.1c0 5.1 4 9.2 9.2 9.2 2.6 0 4.6-.8 6.4-2.5.4-.3.6-.8.6-1.4 0-1.1-.9-2-1.9-2M127 29.3h-.3c-.2 0-.4.1-.7.1-1.3 0-1.9-.6-1.9-2v-8.3h2.9c1.1 0 1.9-.9 1.9-1.9 0-1.1-.9-1.9-1.9-1.9h-2.9v-2.8c0-1.2-1-2.2-2.2-2.2s-2.2 1-2.2 2.2v2.8h-.5c-1.1 0-1.9.8-1.9 1.9s.8 1.9 1.9 1.9h.5V28c0 3.5 1.7 5.3 5.2 5.3 1 0 1.8-.1 2.8-.5.6-.2 1.2-.9 1.2-1.7 0-1-.9-1.8-1.9-1.8M140.8 15c-1.5 0-3.1 1.2-4.2 3.1v-.9c0-1.2-1-2.2-2.2-2.2s-2.2 1-2.2 2.2V31c0 1.2 1 2.2 2.2 2.2s2.2-1 2.2-2.2v-5.1c0-3.7 1.6-6.1 4.6-6.6 1.1-.2 1.7-1 1.7-2.1 0-1.3-.8-2.2-2.1-2.2M147.6 24.1c0-3.1 2.1-5.3 5-5.3s5.1 2.3 5.1 5.4v.1c0 3.1-2.1 5.3-5.1 5.3-2.7-.1-5-2.4-5-5.5Zm5.1-9.2c-5.3 0-9.5 4.1-9.5 9.3v.1c0 5.1 4.1 9.2 9.4 9.2s9.5-4.1 9.5-9.2v-.1c.1-5.3-4.1-9.3-9.4-9.3M176 20.4c0 1.2-.9 1.8-2.8 1.8h-3.6v-3.6h3.8c1.7 0 2.6.6 2.6 1.8Zm-1.7 9.2h-4.6v-3.8h4.5c1.9 0 2.8.6 2.8 1.9v.1c0 1.5-1.5 1.8-2.7 1.8m3.7-5.9c1.5-.9 2.2-2.2 2.2-3.9 0-1.3-.4-2.3-1.3-3.2-1.1-1.1-2.8-1.7-4.9-1.7h-6.5c-1.2 0-2.1.9-2.1 2.1v14.2c0 1.2.9 2.1 2.1 2.1h6.7c4.4 0 7-1.9 7-5.1v-.1c0-2.1-1-3.5-3.2-4.4M193.4 25.4h-4.6l2.3-5.4 2.3 5.4Zm6.6 5.1-6.3-14.1c-.5-1.1-1.3-1.6-2.4-1.6h-.2c-1.1 0-2 .6-2.4 1.6l-6.3 14.1c-.1.3-.2.6-.2.9 0 1.1.9 2 2 2 .9 0 1.6-.5 1.9-1.3l1.2-2.9h7.7l1.2 2.7c.4.9 1.1 1.4 2 1.4 1.1 0 2-.9 2-2 0-.2 0-.5-.2-.8M215.4 27.8c-.5 0-.9.2-1.3.5-1.2 1-2.3 1.4-3.8 1.4-2.9 0-5.1-2.4-5.1-5.5v-.1c0-3.1 2.2-5.5 5.1-5.5 1.3 0 2.4.4 3.6 1.3.3.2.7.4 1.3.4 1.1 0 2.1-.9 2.1-2.1 0-.8-.4-1.4-.8-1.7-1.7-1.3-3.6-1.9-6.1-1.9-5.4 0-9.5 4.1-9.5 9.4 0 5.3 4 9.4 9.4 9.4 2.7 0 4.7-.7 6.5-2.3.5-.4.7-.9.7-1.5-.1-.9-1-1.8-2.1-1.8M14 28.3c-1.3-1.6-2.1-3.3-2.1-5 1.6-.1 4.2.3 6.1 1.9 1.9 1.6 2.8 3.9 2.8 7-2.6-.4-5.1-1.8-6.8-3.9M22.8 0C10.2 0 0 10.2 0 22.8s10.2 22.8 22.8 22.8c1.1 0 2.1-.9 2.1-2.2v-7.1c3.7-.4 7.4-2.4 9.9-5.3s3.5-6.4 2.9-9.7c-.1-.7-.6-1.3-1.3-1.5-1.5-.5-3.8-.7-6.3 0v-7.5c0-1.1-.9-2-2-2s-2 .9-2 2v10.4c0 .3.1.7.2 1 .5 1 1.7 1.3 2.7.8 1.7-.9 3.5-1.2 4.8-1.1 0 1.7-.8 3.5-2.1 5-1.8 2.1-4.3 3.5-6.9 3.9V32c0-5.1-2.2-8.2-4.2-9.8-.5-.4-1-.8-1.6-1.1v-8.8c0-1.1-.9-2-2-2s-2 .9-2 2v7.3c-2.2-.4-4.3-.3-5.6.2-.7.2-1.2.8-1.4 1.5-.6 3.3.4 6.7 2.9 9.7 2.5 2.9 6.2 4.9 9.9 5.3v5.1c-9.4-1-16.8-9-16.8-18.6C4 12.4 12.4 4 22.8 4s18.8 8.4 18.8 18.8c0 7-3.9 13.4-10.1 16.6-1 .5-1.4 1.7-.9 2.7s1.7 1.4 2.7.9c7.6-3.9 12.2-11.7 12.2-20.2C45.5 10.2 35.3 0 22.8 0"/></svg>