<?xml version="1.0" encoding="utf-8"?>
<!-- Generator: Adobe Illustrator 21.1.0, SVG Export Plug-In . SVG Version: 6.00 Build 0)  -->
<svg version="1.1" id="Calque_1" xmlns="http://www.w3.org/2000/svg" xmlns:xlink="http://www.w3.org/1999/xlink" x="0px" y="0px"
	 viewBox="0 0 217.4 45.5" style="enable-background:new 0 0 217.4 45.5;" xml:space="preserve">
<style type="text/css">
	.st0{fill:#FFFFFF;}
</style>
<path class="st0" d="M60.3,18.6c2.7,0,3.9,2.1,4.2,4.2H56C56.4,20.2,58.1,18.6,60.3,18.6 M68.8,23.6c0-4.2-3-8.7-8.4-8.7
	c-4.9,0-8.7,4-8.7,9.2v0.1c0,5.3,3.8,9.2,9.1,9.2c2.5,0,4.6-0.8,6.4-2.4c0.4-0.4,0.6-0.9,0.6-1.4c0-1-0.8-1.8-1.8-1.8
	c-0.5,0-0.8,0.2-1.1,0.4c-1.2,1-2.5,1.5-4,1.5c-2.5,0-4.3-1.5-4.8-4h10.6C67.9,25.7,68.8,24.8,68.8,23.6"/>
<path class="st0" d="M73.9,8.5c-1.2,0-2.2,1-2.2,2.2V31c0,1.2,1,2.2,2.2,2.2c1.2,0,2.2-1,2.2-2.2V10.6C76.1,9.4,75.1,8.5,73.9,8.5"
	/>
<path class="st0" d="M88.3,18.6c2.7,0,3.9,2.1,4.2,4.2H84C84.4,20.2,86.1,18.6,88.3,18.6 M96.7,23.6c0-4.2-3-8.7-8.4-8.7
	c-4.9,0-8.7,4-8.7,9.2v0.1c0,5.3,3.8,9.2,9.1,9.2c2.5,0,4.6-0.8,6.4-2.4c0.4-0.4,0.6-0.9,0.6-1.4c0-1-0.8-1.8-1.8-1.8
	c-0.5,0-0.8,0.2-1.1,0.4c-1.2,1-2.5,1.5-4,1.5c-2.5,0-4.3-1.5-4.8-4h10.6C95.8,25.7,96.7,24.8,96.7,23.6"/>
<path class="st0" d="M113.5,27.5c-0.6,0-1.1,0.3-1.2,0.5c-1.2,1-2.4,1.5-3.7,1.5c-2.8,0-5-2.3-5-5.4v-0.1c0-3,2.1-5.3,4.8-5.3
	c1.7,0,2.7,0.7,3.6,1.4c0.2,0.1,0.7,0.4,1.3,0.4c1.1,0,2-0.9,2-2c0-0.7-0.4-1.2-0.7-1.5c-1.7-1.5-3.7-2.2-6.2-2.2
	c-5.2,0-9.2,4.1-9.2,9.3v0.1c0,5.1,4,9.2,9.2,9.2c2.6,0,4.6-0.8,6.4-2.5c0.4-0.3,0.6-0.8,0.6-1.4C115.4,28.4,114.5,27.5,113.5,27.5"
	/>
<path class="st0" d="M127,29.3c-0.1,0-0.1,0-0.3,0c-0.2,0-0.4,0.1-0.7,0.1c-1.3,0-1.9-0.6-1.9-2v-8.3h2.9c1.1,0,1.9-0.9,1.9-1.9
	c0-1.1-0.9-1.9-1.9-1.9h-2.9v-2.8c0-1.2-1-2.2-2.2-2.2c-1.2,0-2.2,1-2.2,2.2v2.8h-0.5c-1.1,0-1.9,0.8-1.9,1.9c0,1.1,0.8,1.9,1.9,1.9
	h0.5V28c0,3.5,1.7,5.3,5.2,5.3c1,0,1.8-0.1,2.8-0.5c0.6-0.2,1.2-0.9,1.2-1.7C128.9,30.1,128,29.3,127,29.3"/>
<path class="st0" d="M140.8,15c-1.5,0-3.1,1.2-4.2,3.1v-0.9c0-1.2-1-2.2-2.2-2.2c-1.2,0-2.2,1-2.2,2.2V31c0,1.2,1,2.2,2.2,2.2
	c1.2,0,2.2-1,2.2-2.2v-5.1c0-3.7,1.6-6.1,4.6-6.6c1.1-0.2,1.7-1,1.7-2.1C142.9,15.9,142.1,15,140.8,15"/>
<path class="st0" d="M147.6,24.1c0-3.1,2.1-5.3,5-5.3c2.9,0,5.1,2.3,5.1,5.4v0.1c0,3.1-2.1,5.3-5.1,5.3
	C149.9,29.5,147.6,27.2,147.6,24.1L147.6,24.1z M152.7,14.9c-5.3,0-9.5,4.1-9.5,9.3v0.1c0,5.1,4.1,9.2,9.4,9.2
	c5.3,0,9.5-4.1,9.5-9.2v-0.1C162.2,18.9,158,14.9,152.7,14.9"/>
<path class="st0" d="M176,20.4c0,1.2-0.9,1.8-2.8,1.8h-3.6v-3.6h3.8C175.1,18.6,176,19.2,176,20.4L176,20.4z M174.3,29.6h-4.6v-3.8
	h4.5c1.9,0,2.8,0.6,2.8,1.9v0.1C177,29.3,175.5,29.6,174.3,29.6 M178,23.7c1.5-0.9,2.2-2.2,2.2-3.9v0c0-1.3-0.4-2.3-1.3-3.2
	c-1.1-1.1-2.8-1.7-4.9-1.7h-6.5c-1.2,0-2.1,0.9-2.1,2.1v14.2c0,1.2,0.9,2.1,2.1,2.1h6.7c4.4,0,7-1.9,7-5.1v-0.1
	C181.2,26,180.2,24.6,178,23.7"/>
<path class="st0" d="M193.4,25.4h-4.6l2.3-5.4L193.4,25.4z M200,30.5l-6.3-14.1c-0.5-1.1-1.3-1.6-2.4-1.6h-0.2c-1.1,0-2,0.6-2.4,1.6
	l-6.3,14.1c-0.1,0.3-0.2,0.6-0.2,0.9c0,1.1,0.9,2,2,2c0.9,0,1.6-0.5,1.9-1.3l1.2-2.9h7.7l1.2,2.7c0.4,0.9,1.1,1.4,2,1.4
	c1.1,0,2-0.9,2-2C200.2,31.1,200.2,30.8,200,30.5"/>
<path class="st0" d="M215.4,27.8c-0.5,0-0.9,0.2-1.3,0.5c-1.2,1-2.3,1.4-3.8,1.4c-2.9,0-5.1-2.4-5.1-5.5v-0.1c0-3.1,2.2-5.5,5.1-5.5
	c1.3,0,2.4,0.4,3.6,1.3c0.3,0.2,0.7,0.4,1.3,0.4c1.1,0,2.1-0.9,2.1-2.1c0-0.8-0.4-1.4-0.8-1.7c-1.7-1.3-3.6-1.9-6.1-1.9
	c-5.4,0-9.5,4.1-9.5,9.4v0c0,5.3,4,9.4,9.4,9.4c2.7,0,4.7-0.7,6.5-2.3c0.5-0.4,0.7-0.9,0.7-1.5C217.4,28.7,216.5,27.8,215.4,27.8"/>
<path class="st0" d="M14,28.3c-1.3-1.6-2.1-3.3-2.1-5c1.6-0.1,4.2,0.3,6.1,1.9c1.9,1.6,2.8,3.9,2.8,7C18.2,31.8,15.7,30.4,14,28.3
	 M22.8,0C10.2,0,0,10.2,0,22.8c0,12.6,10.2,22.8,22.8,22.8c1.1,0,2.1-0.9,2.1-2.2v-7.1c3.7-0.4,7.4-2.4,9.9-5.3
	c2.5-2.9,3.5-6.4,2.9-9.7c-0.1-0.7-0.6-1.3-1.3-1.5c-1.5-0.5-3.8-0.7-6.3,0v-7.5c0-1.1-0.9-2-2-2s-2,0.9-2,2v9.7c0,0.1,0,0.5,0,0.7
	c0,0.3,0.1,0.7,0.2,1c0.5,1,1.7,1.3,2.7,0.8c1.7-0.9,3.5-1.2,4.8-1.1c0,1.7-0.8,3.5-2.1,5c-1.8,2.1-4.3,3.5-6.9,3.9
	c0-0.1,0-0.2,0-0.3c0-5.1-2.2-8.2-4.2-9.8c-0.5-0.4-1-0.8-1.6-1.1v-8.8c0-1.1-0.9-2-2-2c-1.1,0-2,0.9-2,2v7.3
	c-2.2-0.4-4.3-0.3-5.6,0.2C8.7,20,8.2,20.6,8,21.3C7.4,24.6,8.4,28,10.9,31c2.5,2.9,6.2,4.9,9.9,5.3v5.1c-9.4-1-16.8-9-16.8-18.6
	C4,12.4,12.4,4,22.8,4c10.3,0,18.8,8.4,18.8,18.8c0,7-3.9,13.4-10.1,16.6c-1,0.5-1.4,1.7-0.9,2.7c0.5,1,1.7,1.4,2.7,0.9
	c7.6-3.9,12.2-11.7,12.2-20.2C45.5,10.2,35.3,0,22.8,0"/>
</svg>
