<svg width="152" height="46" fill="none" xmlns="http://www.w3.org/2000/svg"><path d="M23.098 23h6.39v13h-6.39V23ZM36.196 23h6.39v13h-6.39V23ZM48.336 10h.639v26h-.64V10ZM10 10h6.39v26H10V10Z" fill="#2E4433"/><path d="M42.585 10v6.341H10V10h32.585ZM60.936 26.614c-.744 0-1.385-.141-1.924-.424a2.977 2.977 0 0 1-1.239-1.225c-.287-.534-.43-1.174-.43-1.918 0-.715.144-1.34.435-1.874.29-.534.7-.95 1.23-1.247.53-.298 1.154-.446 1.874-.446.526 0 1.003.08 1.43.243.426.162.79.398 1.093.707.302.306.535.679.699 1.117.163.438.245.932.245 1.482v.576h-6.226v-1.369h3.92a.95.95 0 0 0-.154-.522.98.98 0 0 0-.395-.356 1.168 1.168 0 0 0-.558-.13c-.203 0-.389.043-.558.13-.17.084-.306.201-.408.351a.985.985 0 0 0-.16.527v1.477c0 .223.048.42.142.595.093.174.228.31.403.41.176.099.388.148.636.148.172 0 .33-.024.472-.072.145-.048.269-.117.372-.207a.842.842 0 0 0 .227-.333h2.287c-.079.48-.265.898-.559 1.252-.293.351-.682.625-1.166.82-.48.192-1.043.288-1.688.288ZM65.37 26.488V19.57h2.379v1.315h.072a2.02 2.02 0 0 1 .744-1.027c.351-.252.769-.378 1.253-.378.49 0 .912.129 1.266.387.354.255.567.595.64 1.018h.072a1.76 1.76 0 0 1 .754-1.018c.384-.258.835-.387 1.352-.387.668 0 1.21.213 1.624.64.418.426.627.993.627 1.702v4.666h-2.505v-4.036c0-.303-.077-.54-.232-.711-.154-.174-.361-.261-.621-.261a.77.77 0 0 0-.613.26c-.148.172-.222.41-.222.712v4.036h-2.396v-4.036c0-.303-.077-.54-.232-.711-.154-.174-.361-.261-.621-.261a.818.818 0 0 0-.445.117.783.783 0 0 0-.29.337c-.067.144-.1.317-.1.518v4.036H65.37ZM77.388 29.082V19.57h2.487v1.207h.054c.091-.234.224-.449.4-.644.175-.198.393-.356.653-.473.26-.12.563-.18.908-.18.46 0 .897.121 1.311.365.418.243.756.626 1.017 1.148.263.523.394 1.201.394 2.036 0 .799-.125 1.46-.376 1.986-.248.526-.581.917-.999 1.175-.414.259-.87.388-1.365.388-.327 0-.62-.053-.876-.158a2.024 2.024 0 0 1-.654-.437 2.02 2.02 0 0 1-.413-.63h-.036v3.729h-2.505Zm2.45-6.053c0 .336.044.627.132.874.09.243.218.432.381.567a.927.927 0 0 0 .595.198c.23 0 .425-.064.585-.193.163-.133.288-.32.372-.563.088-.247.132-.54.132-.883 0-.343-.044-.635-.132-.878a1.187 1.187 0 0 0-.372-.563.89.89 0 0 0-.585-.199.927.927 0 0 0-.595.199c-.163.129-.29.316-.38.563a2.598 2.598 0 0 0-.133.878ZM89.02 26.614c-.757 0-1.404-.149-1.942-.446a3.077 3.077 0 0 1-1.24-1.252c-.287-.538-.43-1.16-.43-1.87 0-.708.143-1.33.43-1.864.288-.537.701-.955 1.24-1.252.538-.3 1.185-.45 1.942-.45.756 0 1.403.15 1.942.45.538.297.951.715 1.239 1.252.287.535.43 1.156.43 1.865 0 .708-.143 1.331-.43 1.869-.288.534-.7.952-1.24 1.252-.538.297-1.185.446-1.941.446Zm.018-1.838c.212 0 .395-.07.549-.211.154-.142.274-.343.358-.604.085-.261.128-.572.128-.932a3.01 3.01 0 0 0-.128-.933c-.084-.26-.204-.462-.358-.603a.786.786 0 0 0-.55-.212.843.843 0 0 0-.575.212c-.16.141-.283.342-.368.604a3.01 3.01 0 0 0-.127.932c0 .36.042.67.127.932.085.261.207.463.368.604.16.14.352.211.576.211ZM94.758 26.488l-1.743-6.918h2.505l.799 4.215h.054l.89-4.215h2.432l.926 4.18h.054l.762-4.18h2.505l-1.742 6.918h-2.705l-.98-3.711h-.073l-.98 3.71h-2.704ZM107.92 26.614c-.744 0-1.386-.141-1.924-.424a2.972 2.972 0 0 1-1.239-1.225c-.287-.534-.431-1.174-.431-1.918 0-.715.145-1.34.435-1.874.291-.534.701-.95 1.23-1.247.53-.298 1.154-.446 1.874-.446.527 0 1.003.08 1.43.243.426.162.791.398 1.093.707a3.1 3.1 0 0 1 .699 1.117c.164.438.245.932.245 1.482v.576h-6.226v-1.369h3.921a.985.985 0 0 0-.549-.878 1.166 1.166 0 0 0-.558-.13 1.2 1.2 0 0 0-.558.13c-.17.084-.306.201-.409.351a.983.983 0 0 0-.159.527v1.477c0 .223.047.42.141.595.094.174.228.31.404.41.175.099.387.148.635.148.173 0 .33-.024.472-.072.145-.048.269-.117.372-.207a.837.837 0 0 0 .227-.333h2.287c-.078.48-.264.898-.558 1.252-.293.351-.682.625-1.166.82-.481.192-1.044.288-1.688.288ZM112.354 26.488V19.57h2.433v1.315h.072c.127-.486.328-.842.604-1.067.278-.226.603-.338.975-.338.109 0 .217.009.323.027.109.015.213.037.313.067v2.122a2.252 2.252 0 0 0-.459-.095 4.142 4.142 0 0 0-.467-.031c-.245 0-.466.055-.663.166a1.182 1.182 0 0 0-.458.46 1.361 1.361 0 0 0-.168.689v3.603h-2.505ZM118.458 26.632c-.351 0-.652-.122-.903-.365a1.201 1.201 0 0 1-.368-.896 1.17 1.17 0 0 1 .368-.878c.251-.244.552-.365.903-.365.333 0 .626.121.88.365.257.243.387.536.39.878a1.206 1.206 0 0 1-.186.64 1.36 1.36 0 0 1-.463.454c-.19.111-.397.167-.621.167ZM124.357 26.632c-.672 0-1.251-.147-1.738-.442a2.97 2.97 0 0 1-1.121-1.242c-.26-.535-.39-1.157-.39-1.865 0-.709.13-1.333.39-1.874a3.06 3.06 0 0 1 1.098-1.27c.472-.306 1.023-.46 1.652-.46.363 0 .722.06 1.075.18.354.121.677.316.967.586.29.268.522.622.694 1.063.173.442.259.985.259 1.63v.451h-5.373v-.919h4.284c0-.39-.079-.738-.236-1.045a1.765 1.765 0 0 0-.663-.725 1.865 1.865 0 0 0-1.007-.265c-.427 0-.796.105-1.107.315a2.08 2.08 0 0 0-.713.81c-.166.334-.249.691-.249 1.073v.612c0 .522.091.965.272 1.329.185.36.44.635.767.824.327.186.706.28 1.139.28.281 0 .535-.04.762-.118.23-.081.428-.201.595-.36a1.63 1.63 0 0 0 .385-.604l1.035.288a2.276 2.276 0 0 1-.549.92 2.679 2.679 0 0 1-.953.612 3.555 3.555 0 0 1-1.275.216ZM131.704 26.632c-.654 0-1.216-.153-1.688-.46a2.998 2.998 0 0 1-1.089-1.265c-.255-.538-.382-1.152-.382-1.842 0-.703.13-1.323.391-1.86.263-.54.629-.963 1.098-1.266.472-.306 1.022-.46 1.652-.46.49 0 .931.09 1.325.271.393.18.715.432.966.757.251.324.407.702.468 1.135h-1.071a1.652 1.652 0 0 0-.545-.838c-.278-.246-.653-.37-1.125-.37-.418 0-.784.109-1.098.325a2.11 2.11 0 0 0-.731.905c-.173.387-.259.842-.259 1.365 0 .534.085 1 .254 1.396.173.396.415.704.726.923.315.22.684.33 1.108.33.278 0 .531-.049.757-.145a1.57 1.57 0 0 0 .577-.414c.157-.18.269-.397.336-.649h1.071a2.459 2.459 0 0 1-1.389 1.878c-.387.19-.838.284-1.352.284ZM138.842 26.632c-.63 0-1.182-.149-1.657-.446a3.034 3.034 0 0 1-1.107-1.247c-.263-.535-.395-1.16-.395-1.874 0-.72.132-1.35.395-1.887a3.029 3.029 0 0 1 1.107-1.252c.475-.298 1.027-.446 1.657-.446.629 0 1.179.148 1.651.446.475.297.844.714 1.108 1.252.266.537.399 1.166.399 1.887 0 .714-.133 1.339-.399 1.873-.264.535-.633.95-1.108 1.248-.472.297-1.022.446-1.651.446Zm0-.955c.478 0 .871-.122 1.18-.365.308-.243.536-.563.685-.959.148-.396.222-.826.222-1.288 0-.463-.074-.893-.222-1.293a2.189 2.189 0 0 0-.685-.968c-.309-.246-.702-.37-1.18-.37s-.872.124-1.18.37a2.173 2.173 0 0 0-.685.968c-.149.4-.223.83-.223 1.293 0 .462.074.892.223 1.288.148.396.376.716.685.96.308.242.702.364 1.18.364Z" fill="#2E4433"/></svg>