<svg xmlns="http://www.w3.org/2000/svg" width="347.158" height="120.098"><path d="M160.805 120.098c-29.34 0-51.75-16.46-58.484-42.955l-.079-.31 8.192-12.973.217 2.142c1.288 12.685 6.684 23.452 15.604 31.137 8.976 7.733 20.923 11.82 34.55 11.82a59.075 59.075 0 0 0 18.131-2.725l1.95-.628-8.584 13.594-.334.051a74.046 74.046 0 0 1-11.163.847ZM211.245 57.52l-.177-2.222c-1.044-13.005-6.339-24.066-15.313-31.988-9.02-7.961-21.105-12.17-34.95-12.17a59.528 59.528 0 0 0-17.065 2.407l-1.899.568L150.285.741l.342-.047A74.51 74.51 0 0 1 160.805 0c29.81 0 52.32 16.843 58.74 43.956l.072.303ZM91.418 118.608H5.92a5.548 5.548 0 0 1-5.92-5.92V7.41A5.548 5.548 0 0 1 5.92 1.49h84.752l-6.767 10.123H10.978v42.861h56.77l-.01 10.111-56.76.004v43.904l72.623.002ZM341.087 119.413c-2.253 0-3.967-.902-5.729-3.018L256.046 19.08v100.327h-10.769V7.273c0-4.125 2.27-6.588 6.071-6.588a6.94 6.94 0 0 1 5.924 3.048l79.117 96.773V.698h10.768v112.3c0 3.957-2.326 6.415-6.07 6.415Z" style="fill:#231f20"/></svg>