<svg xmlns="http://www.w3.org/2000/svg" width="262" height="44" fill="none"><g clip-path="url(#a)" fill="#000"><path d="M244.112 32.934c-.515-1.276-.772-3.028-.772-5.252 0-2.225.257-3.964.772-5.222.515-1.256 1.349-1.884 2.502-1.884 1.154 0 1.988.628 2.502 1.884.515 1.257.773 2.997.773 5.222 0 2.224-.258 3.976-.773 5.252-.516 1.278-1.35 1.916-2.502 1.916-1.151 0-1.987-.638-2.502-1.916Zm8.991 9.856c1.895-.803 3.501-1.916 4.819-3.336 1.318-1.422 2.327-3.14 3.028-5.16.7-2.018 1.05-4.221 1.05-6.612s-.35-4.634-1.05-6.612c-.701-1.978-1.71-3.686-3.028-5.128-1.319-1.441-2.924-2.553-4.819-3.336-1.895-.782-4.057-1.175-6.487-1.175-2.43 0-4.594.392-6.487 1.175-1.895.783-3.501 1.895-4.82 3.336-1.319 1.443-2.327 3.151-3.027 5.128-.702 1.978-1.05 4.182-1.05 6.612 0 2.43.348 4.594 1.05 6.612.7 2.02 1.709 3.738 3.027 5.16 1.319 1.421 2.925 2.533 4.82 3.336 1.894.803 4.056 1.206 6.487 1.206s4.592-.401 6.487-1.206Zm-43.499-15.108c0-4.82 1.153-7.229 3.461-7.229.577 0 1.059.134 1.452.402.392.269.689.568.896.896v11.925c-.207.33-.504.629-.896.895-.391.269-.875.401-1.452.401-2.308 0-3.461-2.43-3.461-7.29Zm5.809 15.57h12.111V.742h-12.111v20.081a24.398 24.398 0 0 0-.865-3.552c-.371-1.133-.865-2.132-1.483-2.997a7.115 7.115 0 0 0-2.286-2.07c-.907-.515-1.998-.773-3.275-.773-1.606 0-3.027.392-4.262 1.175-1.237.783-2.277 1.895-3.121 3.336-.844 1.443-1.493 3.151-1.947 5.128-.453 1.978-.68 4.182-.68 6.612 0 2.43.227 4.645.68 6.643.454 1.998 1.103 3.718 1.947 5.16.844 1.443 1.884 2.554 3.121 3.336 1.236.781 2.656 1.175 4.262 1.175 1.277 0 2.368-.258 3.275-.773a7.088 7.088 0 0 0 2.286-2.07c.618-.865 1.112-1.864 1.483-2.997.37-1.133.658-2.317.865-3.552v8.65-.002Zm-37.629-7.538c-.494-.453-.741-1.052-.741-1.792 0-.823.216-1.43.647-1.822.434-.391 1.061-.792 1.884-1.205l.68-.247c.453-.207.803-.38 1.052-.526.246-.143.453-.297.618-.464v6.117a4.058 4.058 0 0 1-.896.432c-.351.123-.772.187-1.267.187-.825 0-1.483-.227-1.978-.68m1.142 6.271c1.298-1.338 2.296-3.037 2.997-5.098v6.364h12.111V23.17c0-2.018-.36-3.77-1.08-5.252a9.582 9.582 0 0 0-3.059-3.646c-1.32-.947-2.915-1.658-4.788-2.133-1.875-.473-3.965-.71-6.272-.71-1.566 0-3.007.123-4.324.37-1.32.248-2.502.556-3.554.926-1.049.37-1.947.773-2.687 1.206a21.76 21.76 0 0 0-1.791 1.142v8.157c.947-.742 2.234-1.41 3.862-2.009 1.626-.596 3.615-.895 5.963-.895 2.183 0 3.666.288 4.449.864.782.577 1.175 1.235 1.175 1.978 0 .617-.185 1.103-.557 1.453-.37.35-1.153.649-2.348.895l-3.892.927c-1.607.37-3.028.803-4.264 1.296-1.237.495-2.267 1.114-3.09 1.854a7.358 7.358 0 0 0-1.884 2.656c-.433 1.03-.649 2.246-.649 3.646 0 2.554.742 4.541 2.225 5.963 1.483 1.421 3.459 2.132 5.932 2.132 2.473 0 4.232-.67 5.53-2.009m-19.061 1.236c1.276-.35 2.101-.627 2.471-.834v-8.403c-.288.083-.741.185-1.36.308-.618.124-1.381.187-2.286.187-2.431 0-4.304-.618-5.622-1.853-1.32-1.237-1.978-2.883-1.978-4.944s.658-3.646 1.978-4.881c1.318-1.236 3.191-1.853 5.622-1.853.907 0 1.668.052 2.286.154.619.103 1.072.217 1.36.34v-8.403c-.371-.205-1.205-.495-2.502-.865-1.298-.371-2.997-.556-5.098-.556-2.513 0-4.748.413-6.705 1.236-1.956.825-3.604 1.947-4.942 3.367-1.34 1.422-2.359 3.111-3.059 5.067-.701 1.957-1.051 4.089-1.051 6.395 0 2.307.35 4.502 1.051 6.457.7 1.956 1.73 3.646 3.09 5.067 1.359 1.422 3.027 2.533 5.004 3.336 1.978.803 4.222 1.206 6.735 1.206 2.06 0 3.728-.176 5.004-.526m-43.87.03h12.111V24.53a7.21 7.21 0 0 1 2.379-1.299c.885-.288 2.049-.433 3.49-.433.823 0 1.514.03 2.07.092.557.062.958.134 1.206.216V12.05a5.8 5.8 0 0 0-.896-.248c-.391-.081-.917-.123-1.575-.123-1.69 0-2.894.547-3.615 1.637-.722 1.092-1.351 2.79-1.884 5.097l-1.175 5.314V12.173h-12.111v31.08-.002Zm-16.683 0h12.112V12.174H99.314v31.08-.002Zm0-33.922h12.112V.742H99.314V9.33v-.002ZM78.74 35.712c-.495-.453-.742-1.051-.742-1.791 0-.823.218-1.43.65-1.822.432-.392 1.06-.793 1.883-1.206l.68-.247a12.4 12.4 0 0 0 1.051-.525c.247-.144.454-.298.619-.464v6.117a4.068 4.068 0 0 1-.896.432c-.35.123-.772.186-1.266.186-.825 0-1.483-.227-1.978-.68m1.143 6.272c1.298-1.339 2.295-3.037 2.997-5.099v6.364h12.11V23.171c0-2.018-.36-3.77-1.082-5.252a9.576 9.576 0 0 0-3.058-3.646c-1.32-.947-2.915-1.658-4.788-2.133-1.875-.473-3.966-.71-6.272-.71-1.566 0-3.008.123-4.324.37-1.32.248-2.502.556-3.554.926-1.05.37-1.947.773-2.687 1.206a21.64 21.64 0 0 0-1.791 1.142v8.157c.948-.742 2.234-1.41 3.862-2.009 1.626-.596 3.615-.895 5.963-.895 2.183 0 3.666.288 4.449.864.781.577 1.175 1.235 1.175 1.978 0 .617-.185 1.103-.557 1.453-.371.35-1.153.649-2.348.895l-3.892.927c-1.607.37-3.028.803-4.263 1.296-1.236.495-2.266 1.114-3.09 1.854a7.356 7.356 0 0 0-1.883 2.656c-.432 1.03-.648 2.246-.648 3.646 0 2.554.742 4.541 2.225 5.963 1.483 1.421 3.46 2.132 5.932 2.132 2.473 0 4.232-.67 5.53-2.009M59.902 43.25V20.823h4.696v-8.65h-4.696v-.247c0-2.265 1.175-3.4 3.521-3.4.577 0 1.03.022 1.36.063.33.041.618.103.865.186V.742c-.371-.124-1.113-.28-2.225-.465-1.111-.185-2.39-.279-3.83-.279-7.87 0-11.802 3.955-11.802 11.863v.31h-3.584v8.65h3.584v22.43h12.111v-.002ZM34.656 43.215l-.009-8.943-8.943.01v2.004l5.778-.006-.98.98c-2.476 2.437-5.569 3.856-8.71 3.995-3.187.141-6.224-1.081-8.545-3.44a12.657 12.657 0 0 1-2.84-4.43c.707.061 1.431.067 2.168.018 3.682-.245 7.295-1.865 9.916-4.445.746-.733 2.567-2.711 3.35-5.2.799-2.534.285-4.823-1.485-6.621-1.438-1.46-3.11-2.202-4.974-2.202h-.024c-3.874.013-7.15 3.28-7.383 3.517A14.592 14.592 0 0 0 7.6 28.798c-.005.66.032 1.314.112 1.958-1.176-.441-2.21-1.092-3.035-1.93C.64 24.725 1.247 18.433 6.153 13.528c3.018-3.019 6.832-6.743 8.83-8.687l.02 5.62 2.005-.007-.033-8.943-8.943.032.008 2.004 5.419-.02c-2.034 1.98-5.76 5.62-8.723 8.583-2.858 2.86-4.486 6.145-4.71 9.5-.216 3.234.928 6.297 3.22 8.626 1.299 1.318 2.998 2.262 4.923 2.77a14.59 14.59 0 0 0 3.65 6.217c2.582 2.623 5.927 4.048 9.476 4.048.194 0 .39-.005.586-.012 3.635-.16 7.196-1.782 10.031-4.574l.734-.734.006 5.27h2.004v-.005ZM9.601 28.816a12.606 12.606 0 0 1 3.787-8.941l.015-.015c.028-.03 2.883-2.914 5.97-2.919h.009c1.325 0 2.485.524 3.547 1.604 3.484 3.54-1.287 8.438-1.844 8.986-2.283 2.248-5.434 3.66-8.644 3.872-.902.06-1.78.025-2.618-.101a12.794 12.794 0 0 1-.222-2.485Z"/></g><defs><clipPath id="a"><path fill="#fff" d="M0 0h262v43.994H0z"/></clipPath></defs></svg>