<svg width="84" height="19" fill="none" xmlns="http://www.w3.org/2000/svg"><path d="M0 .219h16.73v3.403H5.086v3.904h10.908v3.403H5.087v7.158H0V.22ZM31.41 14.41h-8.6l-1.521 3.679h-5.48L24.042.219h6.136l8.233 17.868h-5.48l-1.52-3.678Zm-4.3-10.336-2.937 7.083h5.874L27.11 4.074ZM39.832.125h13.609c5.192 0 6.057 3.029 6.057 4.855 0 2.177-.918 3.578-3.042 4.305v.05c2.23.326 2.57 3.028 2.57 4.78 0 .875.079 2.978.97 3.879h-5.559c-.472-.826-.498-1.552-.498-3.428 0-2.503-1.127-3.13-2.7-3.13h-6.32v6.558h-5.087V.125Zm5.087 7.909h6.739c1.127 0 2.438-.602 2.438-2.278 0-1.777-1.468-2.227-2.7-2.227h-6.477v4.506-.001ZM72.507 0C82.275 0 83.8 5.534 83.8 9.152c0 3.618-1.526 9.152-11.293 9.152-9.766 0-11.292-5.534-11.292-9.152C61.215 5.534 62.74 0 72.507 0Zm0 15.002c4.477 0 6.054-3.155 6.054-5.85 0-2.694-1.576-5.85-6.054-5.85-4.477 0-6.053 3.156-6.053 5.85 0 2.695 1.576 5.85 6.053 5.85Z" fill="#343741"/></svg>