<svg width="800" height="104" fill="none" xmlns="http://www.w3.org/2000/svg"><g clip-path="url(#a)" fill="#0E0E0E"><path d="M800 15.65V0H705.51v42.89h-.01v15.64h.01v42.89H800V85.77h-78.84V58.53h59.05V42.89h-59.05V15.65H800ZM616.12 0l-49.5 56.64L517.12 0h-15.65v101.42h15.64V23.78l49.51 56.64v-.01.01l49.5-56.64v77.64h15.65V0h-15.65ZM94.49 15.75V.1H15.65V0H0v101.42h15.65V58.53h59.07V42.89H15.65V15.75h78.84ZM238.18 101.42h17.42L206.09 0H187.9l-49.51 101.42h17.42l13.29-27.24h55.77l13.29 27.24h.02Zm-61.43-42.88L197 17.04l20.25 41.5h-40.5ZM427.41 0h-15.65v56.67c0 4.85-.06 31.45-42.65 31.45-42.59 0-42.66-26.6-42.66-31.45V0H310.8v56.67c.02 31.31 26.11 47.1 58.3 47.1s58.28-15.8 58.3-47.1V0h.01Z"/></g><defs><clipPath id="a"><path fill="#fff" d="M0 0h800v103.77H0z"/></clipPath></defs></svg>