<svg width="319" height="70" fill="none" xmlns="http://www.w3.org/2000/svg"><path d="M0 0v69.765h89.658V0H0Zm71.886 52.004H58.398V36.883c0-1.873-1.519-2.257-3.389-2.257l-1.837.224.095 11.17h1.567v5.968H39.507v-5.889h1.742V25.714l2.014-2.016H36.839a3.392 3.392 0 0 0-3.389 3.392v.736h5.05v6.8h-5.05v11.441h1.79v5.969H19.913v-5.969h1.742V36.69l2.014-2.016h-5.961v-6.896h3.947v-3.2c0-3.76 3.053-6.8 6.809-6.8l24.724.031v10.017h.063c1.774-.752 4.06-1.2 6.553-1.2 4.443 0 8.215 1.424 9.605 3.408.543.736.847 1.696.847 2.896v13.09h1.646v5.984h-.016ZM104.681 32.482h-3.212v-5.008h3.228v-1.776c0-2.112.479-3.76 1.438-4.913a5.942 5.942 0 0 1 1.87-1.68 9.203 9.203 0 0 1 2.605-1.008 15.655 15.655 0 0 1 3.101-.384 24.32 24.32 0 0 1 3.388.144v5.537c-.735-.032-1.391-.032-1.966.032-.575.048-1.055.176-1.438.368a2.02 2.02 0 0 0-.895.896c-.208.4-.32.944-.32 1.616v1.2h4.619v5.008h-4.619v19.65h-7.799V32.481Zm14.927-14.785h7.847v6.353h-7.847v-6.353Zm0 9.777h7.847v24.658h-7.847V27.474ZM130.939 27.474h7.512v3.856h.143c.864-1.472 1.822-2.56 2.893-3.232 1.055-.672 2.334-1.008 3.852-1.008.735 0 1.246.064 1.534.192v6.736h-.192c-2.397-.352-4.315.064-5.753 1.232-1.423 1.169-2.142 3.105-2.142 5.809v11.073h-7.847V27.474ZM148.184 27.474h7.511v3.52h.144a9.431 9.431 0 0 1 2.956-3.088c1.199-.768 2.701-1.152 4.491-1.152 1.631 0 3.037.384 4.204 1.152 1.166.768 2.077 1.824 2.717 3.184h.095c.959-1.504 2.094-2.608 3.389-3.296 1.294-.688 2.748-1.04 4.347-1.04 1.374 0 2.605.224 3.659.672 1.055.448 1.934 1.088 2.621 1.904.688.816 1.215 1.808 1.567 2.96.351 1.152.527 2.432.527 3.809v16.033h-7.847V37.49c0-1.344-.288-2.385-.847-3.105-.559-.72-1.438-1.088-2.621-1.088-1.247 0-2.206.464-2.893 1.392-.671.928-1.007 2.129-1.007 3.617v13.825h-7.847V37.49c0-1.344-.287-2.385-.847-3.105-.559-.72-1.438-1.088-2.621-1.088-1.214 0-2.173.464-2.86 1.392-.688.928-1.039 2.129-1.039 3.617v13.825h-7.847V27.474h.048ZM189.736 17.697h7.847v12.817h.144c.895-1.184 1.902-2.112 3.037-2.768 1.119-.656 2.557-.992 4.283-.992 1.342 0 2.557.24 3.612.704a7.99 7.99 0 0 1 2.701 1.92c.735.816 1.294 1.792 1.678 2.944.383 1.136.575 2.4.575 3.776v16.034h-7.847v-14.45c0-1.312-.319-2.368-.959-3.184-.639-.8-1.598-1.2-2.892-1.2-1.311 0-2.366.48-3.149 1.44-.783.96-1.183 2.209-1.183 3.76v13.634h-7.847V17.697ZM228.764 52.9c-1.982 0-3.788-.336-5.418-.992-1.614-.657-3.005-1.569-4.155-2.753a12.229 12.229 0 0 1-2.669-4.144c-.624-1.584-.943-3.312-.943-5.184 0-1.856.319-3.584.943-5.185a12.075 12.075 0 0 1 2.669-4.144c1.15-1.168 2.541-2.08 4.155-2.752 1.614-.656 3.42-.992 5.418-.992 1.982 0 3.788.336 5.418.992 1.614.656 3.004 1.568 4.139 2.752 1.135 1.168 2.014 2.56 2.653 4.144.639 1.584.943 3.313.943 5.185 0 1.856-.32 3.584-.943 5.184-.623 1.584-1.502 2.976-2.653 4.144-1.135 1.168-2.525 2.08-4.139 2.752-1.63.657-3.436.993-5.418.993Zm-.048-5.585c1.726 0 3.037-.688 3.916-2.048s1.326-3.168 1.326-5.424c0-2.24-.447-4.065-1.326-5.44-.879-1.377-2.19-2.065-3.916-2.065s-3.037.688-3.9 2.064c-.863 1.377-1.294 3.2-1.294 5.44s.431 4.049 1.294 5.425c.863 1.36 2.158 2.048 3.9 2.048ZM252.529 52.852c-2.861 0-5.018-.848-6.473-2.529-1.454-1.68-2.189-3.904-2.189-6.672V27.474h7.799v14.545c0 1.344.304 2.384.911 3.104.607.72 1.534 1.088 2.797 1.088 1.342 0 2.413-.464 3.18-1.376.767-.912 1.151-2.112 1.151-3.584V27.474h7.847v24.658h-7.512v-3.04h-.143c-.895 1.215-1.918 2.144-3.053 2.8-1.151.64-2.589.96-4.315.96ZM281.504 52.9c-3.628 0-6.489-.785-8.614-2.337-2.11-1.552-3.244-3.696-3.372-6.432h7.415c.16 1.216.624 2.128 1.391 2.752.767.608 1.806.912 3.132.912 1.183 0 2.126-.208 2.813-.624.687-.416 1.039-1.024 1.039-1.824 0-.544-.176-.992-.528-1.328-.351-.336-.815-.608-1.39-.816a10.462 10.462 0 0 0-1.998-.48 48.085 48.085 0 0 1-2.333-.416 47.406 47.406 0 0 1-3.181-.704 9.804 9.804 0 0 1-2.86-1.232 6.126 6.126 0 0 1-2.046-2.192c-.511-.913-.767-2.097-.767-3.537 0-1.28.288-2.416.847-3.424a7.362 7.362 0 0 1 2.285-2.48c.959-.656 2.094-1.152 3.389-1.488a16.311 16.311 0 0 1 4.107-.512c3.5 0 6.169.704 8.039 2.112 1.854 1.408 2.892 3.344 3.084 5.776h-7.208c-.159-1.12-.591-1.888-1.278-2.288-.687-.4-1.582-.608-2.669-.608-.959 0-1.774.192-2.429.56-.656.368-.991.944-.991 1.712 0 .448.16.8.479 1.056.32.256.751.48 1.295.656.543.176 1.182.336 1.902.464.719.128 1.47.256 2.237.385 1.087.191 2.19.431 3.292.703 1.103.273 2.11.705 3.037 1.28a6.811 6.811 0 0 1 2.237 2.337c.576.976.863 2.256.863 3.824 0 1.344-.287 2.544-.847 3.568-.559 1.024-1.342 1.872-2.333 2.56-.991.672-2.174 1.184-3.564 1.536-1.39.352-2.877.529-4.475.529ZM306.564 52.852c-2.014 0-3.852-.336-5.482-.992-1.63-.657-3.021-1.569-4.139-2.753-1.119-1.168-1.982-2.56-2.606-4.16-.607-1.6-.91-3.344-.91-5.2 0-1.824.303-3.537.91-5.137.608-1.584 1.471-2.976 2.606-4.144 1.118-1.168 2.461-2.08 3.995-2.752 1.534-.656 3.26-.992 5.146-.992 1.758 0 3.34.272 4.731.816a11.8 11.8 0 0 1 3.676 2.256c1.47 1.344 2.573 3.056 3.292 5.136.719 2.065 1.071 4.353 1.039 6.865h-17.708c.255 1.664.831 2.992 1.726 3.952s2.157 1.44 3.804 1.44c1.022 0 1.869-.224 2.557-.656.687-.432 1.182-1.04 1.534-1.808h7.655a9.128 9.128 0 0 1-1.438 3.2 10.062 10.062 0 0 1-2.701 2.624 11.652 11.652 0 0 1-3.436 1.68c-1.263.433-2.685.625-4.251.625Zm4.331-15.697c-.16-1.473-.656-2.657-1.487-3.52-.831-.865-1.885-1.297-3.18-1.297-1.502 0-2.669.432-3.468 1.296-.799.864-1.327 2.032-1.582 3.52h9.717Z" fill="#000"/></svg>