<svg version="1.1" id="Laag_1" xmlns="http://www.w3.org/2000/svg" x="0" y="0" viewBox="0 0 225.7 32.7" width="225.7" height="32.7" style="enable-background:new 0 0 225.7 32.7" xml:space="preserve"><style>.st0{fill:#2b2825}</style><path class="st0" d="M35.6 16.6c0 1.6-.7 2.4-2.2 2.4H5.1v11.5c0 1.4-.7 2.1-2.1 2.1-1.5 0-2.3-.1-2.5-.2-.9-.3-1.3-.9-1.3-1.9V7.9c0-2.6 1.7-4.6 5-5.9C6.7.9 9.5.4 12.6.4H17c1.4 0 2.1.9 2.1 2.7 0 1.4-.7 2.1-2.1 2.1-7.9 0-11.9 1-11.9 2.9v6.1h28.2c1.5 0 2.3.8 2.3 2.4M63.9 30.6c0 1.4-.7 2.1-2.1 2.1h-8.3c-4.3 0-7.7-.4-10.1-1.2-3.7-1.3-5.6-3.7-5.6-7.4V2.4c0-1.4.7-2.1 2.1-2.1 1.3 0 2.2.1 2.5.2.8.2 1.3.9 1.3 1.9v21.7c0 1.7 1.4 2.8 4.1 3.3.9.2 2.9.3 6.1.3h8c1.3.1 2 1 2 2.9M189.4 2.3c0 .3-.1.7-.2 1l-12.8 27c-.8 1.6-2 2.4-3.7 2.4-1.6 0-2.8-.7-3.5-2.2L159.1 8.6l-10.5 21.8c-.6 1.3-1.8 1.9-3.5 1.9-1.8 0-3-.7-3.6-2.1L128.7 3.3c-.2-.3-.2-.6-.2-.9 0-.7.4-1.3 1.1-1.7.6-.4 1.3-.5 2.1-.5 1.3 0 2.1.4 2.6 1.3l10.9 23.1 10.4-22.2c.7-1.6 1.9-2.4 3.6-2.4.6 0 1.2.2 1.9.7.7.4 1.2.9 1.5 1.5l10.5 22.4 10.7-23.1c.4-.9 1.3-1.3 2.8-1.3.7 0 1.4.2 2 .5.5.4.8.9.8 1.6"/><linearGradient id="SVGID_1_" gradientUnits="userSpaceOnUse" x1="60.79" y1="16.55" x2="132.716" y2="16.55"><stop offset="0" style="stop-color:#3f3c9d"/><stop offset=".999" style="stop-color:#00b459"/></linearGradient><path d="M127.8 11.1c-.5-2.2-1.8-4.6-4-6.8-2.1-2.2-5.3-4-9.1-4-2.1 0-4.3.5-6.6 1.7-6.5 3.3-10.4 7.8-12.3 10.6-.9-1.3-2.1-2.9-3.6-4.5-1.7-1.8-3.7-3.7-6-5.2S81.1.4 78.1.4c-1.2 0-2.5.2-3.7.6-4.3 1.3-7.3 3.9-8.9 6.8-1.7 2.9-2.1 6-2.1 8.6 0 2.3.3 4.2.7 5.6.5 2.2 1.8 4.6 4 6.8 2.1 2.2 5.3 4 9.1 4 2.1 0 4.3-.5 6.6-1.7 6.5-3.3 10.4-7.8 12.3-10.6.9 1.3 2.1 2.9 3.6 4.5 1.7 1.8 3.7 3.7 6 5.2s5.1 2.5 8.1 2.5c1.2 0 2.5-.2 3.7-.6 4.3-1.3 7.3-3.9 8.9-6.8 1.7-2.9 2.1-6 2.1-8.6-.1-2.3-.4-4.2-.7-5.6M81.5 26.5c-1.7.8-3.1 1.1-4.4 1.1-2.3 0-4.1-1-5.6-2.5s-2.4-3.4-2.7-4.4c-.3-1.1-.5-2.7-.5-4.5 0-2.1.4-4.3 1.5-6.1s2.8-3.4 6.1-4.5c.8-.2 1.5-.3 2.2-.3 1.8 0 3.6.7 5.4 1.8 2.7 1.7 5.2 4.4 6.9 6.7.9 1.1 1.6 2.2 2 2.9-1.2 2.1-4.6 6.7-10.9 9.8m40.5-3.7c-1.1 1.8-2.8 3.4-6.1 4.5-.8.2-1.5.3-2.2.3-1.8 0-3.6-.7-5.4-1.8-2.7-1.7-5.2-4.4-6.9-6.7-.9-1.1-1.6-2.2-2-2.9 1.3-2.1 4.7-6.7 11-9.9 1.7-.8 3.1-1.1 4.4-1.1 2.3 0 4.1 1 5.6 2.5s2.4 3.4 2.7 4.4c.3 1.1.5 2.7.5 4.5-.1 2.2-.5 4.4-1.6 6.2" style="fill:url(#SVGID_1_)"/><path class="st0" d="M222.8 27.8h-33.3v-5.7c0-2 2.7-3.1 8.2-3.1H211c6.7 0 11-1.5 12.8-4.6.7-1.2 1.1-3.3 1.1-6.3 0-2-.9-3.8-2.8-5.2-1.5-1.2-3.5-1.9-5.8-2.3-.7-.1-2-.2-3.8-.3-1.4-.1-3.3-.1-5.5-.1h-4.4c-3 0-5.8.5-8.4 1.6-3.1 1.3-4.8 3.1-4.9 5.5 0 0 0 .6.8.9.7.3 4.8 1.1 5.3-.8.8-1.5 4.6-2.3 11.3-2.3 3.1 0 5.3.1 6.6.2 3.9.4 5.9 1.4 5.9 2.9V11c0 1.2-1.1 2.1-3.3 2.7-1.8.4-3.5.5-4.9.5h-13.1c-1.2 0-2.4.1-3.5.2s-2.1.3-3.1.5c-5 1.2-7.6 3.6-7.6 7.3v8.4c0 1.4.7 2.1 2.1 2.1h37.1c1.4 0 2.1-.8 2.1-2.4-.1-1.7-.8-2.5-2.2-2.5"/></svg>