<svg xmlns="http://www.w3.org/2000/svg" fill="none" height="96" width="600"><g clip-path="url(#a)" fill="#212121"><path d="M56.578.462 53.84 8.913h-.56c-3.297-3.697-5.968-6.074-8.54-6.074-3.89 0-6.528 4.094-8.44 12.71l-1.88 9.111h12.134l-2.275 3.698H33.564l-9.858 46.481C20.574 89.43 10.452 94.845.033 96v-.561c7.386-1.816 11.177-7.89 13.254-17.728l10.518-49.32h-5.011l.296-1.057 5.506-2.64C27.96 8.351 37.818 0 50.973 0c1.813 0 3.791.198 5.605.462ZM39.994 55.692c0-15.747 11.078-32.154 26.245-32.154 10.814 0 18.002 7.692 18.002 19.94 0 16.307-11.276 32.054-26.146 32.054-10.814 0-18.1-7.593-18.1-19.84Zm34.487-17.365c0-7.956-2.274-13.469-7.78-13.469-10.518 0-16.882 22.283-16.882 35.852 0 7.89 2.275 13.469 7.781 13.469 10.518 0 16.881-22.284 16.881-35.852ZM126.905 24.297l-4.253 9.771h-.561c-1.154-.56-2.077-.759-3.231-.759-9.759 0-16.485 19.84-21.035 41.068h-9.76l8.243-39.285c.462-2.179.956-4.556-.56-4.556-1.22 0-3.495 2.278-6.726 6.273l-.462-.364c4.088-8.055 9.199-12.907 13.848-12.907 5.308 0 5.11 5.315 3.89 10.927l-3.693 17.265c4.847-15.45 11.639-28.192 20.277-28.192 1.319 0 2.737.099 4.089.759h-.066ZM160.007 28.358l-7.187 34.068c-.66 3.136-.858 6.537 1.813 6.537s7.385-3.4 13.551-11.654l.461.364c-5.605 10.233-13.056 17.826-19.98 17.826-5.506 0-7.385-4.853-5.77-12.61l7.386-34.532h-5.012l.297-1.056 1.418-.561c5.209-2.377 10.32-5.876 16.122-15.186h.561l-2.737 13.073h15.068l-2.275 3.698h-13.65l-.066.033ZM219.157 60.71c-4.814 9.31-10.221 14.79-15.365 14.79-5.407 0-5.506-5.216-4.154-10.928l5.407-24c1.22-5.216 2.176-10.432-1.615-10.432-7.122 0-19.156 20.666-24.069 44.204h-9.858l12.99-61.865c1.22-5.975.297-8.055-2.934-8.913l.198-.562L194.594.198h.395l-11.572 54.735c6.627-18.025 16.122-31.395 26.046-31.395 7.683 0 7.683 7.956 5.408 17.827l-5.21 22.58c-.461 1.98-1.055 4.556.462 4.556 1.319 0 4.352-2.476 8.539-8.154l.462.363h.033ZM231.751 49.98c-.363 2.378-.659 4.854-.659 7.297 0 8.814 3.132 12.71 8.242 12.71 5.507 0 11.474-4.16 16.684-10.532l.56.364c-7.023 11.092-14.309 15.746-21.892 15.746-8.144 0-13.848-5.216-13.848-16.11 0-14.525 10.056-35.95 29.739-35.95 7.584 0 11.276 3.037 11.276 7.692 0 8.616-11.638 13.37-30.135 18.784h.033Zm.297-1.584c14.606-5.216 21.332-10.53 21.332-18.024 0-3.038-1.055-5.415-4.253-5.415-6.726 0-14.31 10.993-17.046 23.44h-.033ZM280.811 48.198c0-21.722 14.573-44.203 39.4-44.203 9.199 0 16.288 3.235 19.98 5.513l-2.176 12.71h-.56c-2.737-10.234-8.045-16.903-16.881-16.903-18.2 0-28.981 28.094-28.981 47.802 0 12.248 4.813 20.864 15.067 20.864 9.463 0 17.541-7.593 24.53-18.586h.561l-4.913 15.186c-4.846 2.178-11.375 4.753-19.419 4.753-17.244 0-26.641-10.63-26.641-27.136h.033Z"/><path d="m367.656 24.1-2.275 9.87h-.56c-2.275-1.915-5.308-3.037-7.583-3.037-1.88 0-3.99.858-6.43 3.994v29.414c0 6.075.297 9.31 4.155 9.31v.561h-18.2v-.561c3.89 0 4.154-3.235 4.154-9.31V37.205c0-6.074-1.615-7.79-4.813-8.913v-.561l14.309-4.16h.362v10.135c3.99-5.975 8.045-10.333 13.09-10.333 1.22 0 2.473.198 3.791.76v-.034ZM407.848 62.526c-3.495 6.173-9.397 12.809-19.618 12.809-13.254 0-20.837-11.29-20.837-25.222 0-15.384 10.056-26.74 23.013-26.74 10.518 0 17.903 7.296 17.343 19.345h-30.037c-.099.958-.099 1.981-.099 2.938 0 13.932 4.814 24.199 15.365 24.199 6.165 0 11.276-3.335 14.309-7.692l.561.363Zm-29.971-21.36h20.277c.759-10.068-1.516-16.505-8.242-16.505-7.122 0-11.079 7.691-12.035 16.506ZM452.951 68.402c-1.516 2.938-4.912 6.932-10.056 6.932-5.407 0-6.528-4.556-6.726-8.055-3.692 4.754-9.396 8.055-14.771 8.055-6.528 0-11.078-4.093-11.078-10.069 0-6.932 5.21-11.653 16.585-14.888l8.803-2.476v-6.735c0-2.74 0-12.907-9.397-12.907-6.264 0-10.88 4.357-13.749 9.87l-.56-.297c1.912-6.272 8.045-14.525 18.958-14.525 9.561 0 14.507 6.371 14.507 15.846v24c0 3.895.099 7.031 3.033 7.031 1.979 0 3.33-1.42 3.891-2.179l.56.397Zm-17.243-1.915V49.22l-5.605 1.882c-7.946 2.74-10.221 5.612-10.221 11.191 0 5.018 3.033 8.154 7.121 8.154 3.133 0 6.43-1.98 8.705-3.994v.033ZM485.098 66.223c-4.451 5.678-10.419 9.111-15.727 9.111-7.287 0-11.474-3.895-11.474-12.512v-34.53h-4.913v-1.156l1.319-.561c5.506-2.377 9.364-6.372 12.892-15.186h.56v13.073h16.584l-1.417 3.797h-15.167v33.97c0 5.314 2.473 8.054 7.122 8.054 3.396 0 7.023-2.08 9.66-4.456l.561.396Z"/><path d="M484.175 49.519c0-15.747 9.858-26.18 23.508-26.18 13.65 0 23.31 9.872 23.31 25.817 0 15.944-9.858 26.178-23.508 26.178-13.65 0-23.31-9.87-23.31-25.815Zm36.202-.198c0-13.47-4.155-24.66-12.892-24.66-8.737 0-12.694 10.63-12.694 24.66s4.155 24.66 12.892 24.66c8.737 0 12.694-10.63 12.694-24.66ZM565.875 24.1l-2.275 9.87h-.56c-2.275-1.915-5.309-3.037-7.584-3.037-1.879 0-3.989.858-6.429 3.994v29.414c0 6.075.297 9.31 4.154 9.31v.561h-18.199v-.561c3.89 0 4.154-3.235 4.154-9.31V37.205c0-6.074-1.616-7.79-4.814-8.913v-.561l14.31-4.16h.362v10.135c3.99-5.975 8.045-10.333 13.09-10.333 1.219 0 2.472.198 3.791.76v-.034ZM567.887 72.462l-.758-12.511h.56c3.693 8.154 7.946 14.03 15.629 14.03 5.308 0 10.122-2.74 10.122-8.814 0-5.514-3.99-7.494-10.98-11.29l-3.692-1.981c-4.649-2.476-10.419-5.778-10.419-14.13 0-9.012 7.122-14.426 16.386-14.426 3.792 0 9.298.858 12.991 2.64v10.433h-.561c-2.637-7.032-7.385-11.753-13.551-11.753-5.209 0-8.704 3.335-8.704 8.055 0 5.315 4.253 7.791 8.539 10.07l3.594 1.88c6.429 3.401 12.991 6.438 12.991 15.286 0 9.375-7.386 15.383-18.2 15.383-4.847 0-10.419-1.155-13.914-2.839l-.033-.033Z"/></g><defs><clipPath id="a"><path fill="#fff" d="M0 0h600v96H0z"/></clipPath></defs></svg>