<svg width="200" height="48" viewBox="0 0 200 48" fill="none" xmlns="http://www.w3.org/2000/svg">
<path d="M8.57972 30.8705H4.29005C3.21035 30.8705 2.6558 30.3177 2.6558 29.5906C2.77253 28.8634 3.29768 28.2236 3.99807 28.0199C4.26064 28.0199 5.13599 28.5726 6.77023 28.5726C10.0675 28.5726 12.1396 25.9257 12.1396 22.9587C12.1396 20.3408 10.7973 19.2646 10.7973 19.2646L12.5189 18.7991C12.7524 18.7701 12.8691 18.4791 12.8691 18.2757V17.4902C12.8691 17.1701 12.6065 16.9084 12.2854 16.9084H6.74112C3.50203 16.9084 1.34264 19.439 1.34264 22.6677C1.31353 23.8603 1.66373 25.0239 2.30561 26.0418C2.21857 26.0421 0.000661917 27.293 0.000661917 29.7943C-0.0284483 31.2486 0.905115 32.5285 2.3059 32.9647V33.081C2.07243 33.2847 0.496699 34.2153 0.496699 36.2514C0.496699 38.4329 2.33501 40.7308 6.82874 40.7308C11.0017 40.7308 13.4819 38.2292 13.4819 35.2625C13.4819 32.3539 11.3228 30.8705 8.57972 30.8705ZM6.88726 19.4973C8.4921 19.4973 9.5718 20.8353 9.5718 22.697C9.5718 24.5587 8.4921 25.8967 6.88726 25.8967H6.85815C5.2533 25.8967 4.08598 24.5877 4.08598 22.697C4.08598 20.8062 5.28241 19.4973 6.88726 19.4973ZM6.88726 38.0841C4.96133 38.0841 3.61906 37.0662 3.61906 35.6699C3.61906 34.1283 5.16568 33.6048 5.34063 33.5465C6.24509 33.4884 7.20805 33.4884 8.11279 33.4884C10.1555 33.4884 10.4765 34.8847 10.4765 35.4082C10.4765 37.0372 8.78408 38.0841 6.88726 38.0841ZM19.6393 29.5325V18.2466C19.6393 17.9266 19.9018 17.6648 20.2229 17.6648H21.1859C21.3902 17.6939 21.5943 17.8102 21.711 17.9849L22.0612 18.9738C22.9366 17.8685 24.3082 17.2577 25.7087 17.2868C26.8761 17.2868 28.3351 17.5775 27.9849 18.363L27.2262 19.7883C27.1095 20.05 26.8178 20.1954 26.555 20.1084C26.5259 20.1084 26.4967 20.0794 26.4967 20.0794C26.2051 19.934 25.8549 19.8757 25.5338 19.8466C24.3959 19.8466 23.3162 20.4284 22.7325 21.4173V29.5325C22.7325 30.0853 22.3823 30.1433 21.8863 30.1433H20.3105C19.9603 30.1143 19.6687 29.8526 19.6393 29.5325ZM38.5484 17.1994C34.8132 17.1994 32.3036 20.3408 32.3036 23.8603C32.3036 27.6998 34.8132 30.5795 38.5775 30.5795C40.2408 30.6085 41.8748 30.085 43.1879 29.0668C43.5672 28.7761 43.4796 28.514 43.2462 28.2813L42.3708 27.0307C42.1373 26.7106 41.9039 26.827 41.5246 27.0597C40.7075 27.6415 39.7445 27.9906 38.7524 28.0486C36.7389 28.0486 35.2799 26.2742 35.1631 24.4418H43.6255C43.9171 24.4418 44.18 24.18 44.18 23.889C44.2091 23.5983 44.2382 23.3072 44.2382 23.0165C44.2673 19.7587 41.7872 17.1991 38.5481 17.1991L38.5484 17.1994ZM35.3384 22.4643C35.5427 20.8936 36.9141 19.701 38.519 19.73C40.0365 19.759 41.2911 20.9516 41.3787 22.4643H35.3384ZM54.8311 29.7943L49.4035 18.4794C49.2577 18.2176 49.3453 17.8685 49.637 17.7232C49.7246 17.6651 49.8414 17.6358 49.9287 17.6651H51.9714C52.2048 17.6942 52.3798 17.8105 52.4965 18.0142L56.3484 26.3621H56.3775L60.1126 18.0142C60.2293 17.7815 60.4919 17.6361 60.7839 17.6651H62.564C62.8556 17.6361 63.1185 17.8395 63.1767 18.1306C63.2058 18.2469 63.1767 18.3633 63.0891 18.4796L55.1519 35.6992C55.0643 35.9029 54.8602 36.0483 54.6268 36.0773H52.7594C52.4383 36.1063 52.1757 35.8736 52.1466 35.5539C52.1466 35.4375 52.1757 35.3211 52.2342 35.2338L54.8314 29.7946L54.8311 29.7943ZM75.8996 17.2868C74.4988 17.2577 73.1566 17.7812 72.1354 18.7121L71.8143 17.9266C71.6976 17.7522 71.4932 17.6358 71.2892 17.6358H70.3262C70.0051 17.6358 69.7425 17.9266 69.7425 18.2466V35.4662C69.7425 35.7863 70.0051 36.048 70.3262 36.077H72.1645C72.4856 36.1351 72.7773 35.9026 72.8064 35.5826V29.7069C73.7111 30.2304 74.7032 30.4924 75.7535 30.4924C79.1093 30.4924 81.7939 27.7581 81.7939 23.8896C81.7939 20.1374 79.2843 17.2868 75.8993 17.2868H75.8996ZM75.3745 27.9909C74.3824 27.9909 73.4485 27.6418 72.6608 27.031L72.6026 27.06V21.9698C73.011 20.7192 74.1783 19.8464 75.4915 19.8464C77.5924 19.8464 78.8764 21.7371 78.8764 23.9476C78.8764 26.1581 77.4171 27.9909 75.3745 27.9909ZM93.5832 17.2287C92.1242 17.1997 90.6652 17.4614 89.3229 17.9559C89.0312 18.0432 88.856 18.334 88.9436 18.654V18.6831L89.1771 19.8466C89.2647 20.2247 89.4688 20.5158 89.8189 20.3994C90.9569 19.9923 92.1242 19.7886 93.3206 19.7596C94.9255 19.7596 95.3048 20.6321 95.2756 22.7846C94.4585 22.5809 93.6123 22.4646 92.7661 22.4646C89.6146 22.4646 87.9221 23.9772 87.9221 26.2458V26.3621C87.9221 29.0671 89.4979 30.5798 91.8031 30.5798C93.233 30.6088 94.6335 30.0563 95.655 29.0671L95.9466 29.8816C96.0343 30.0853 96.2383 30.2017 96.4427 30.2017H97.2598C97.5809 30.1726 97.8143 29.9109 97.8143 29.5909V23.0464C97.8143 19.6432 97.4641 17.2287 93.5832 17.2287ZM95.2465 26.6239C94.8672 27.4384 93.6708 28.4563 92.3867 28.4563C91.2194 28.4563 90.4608 27.5254 90.4608 26.3038V26.1874C90.4608 24.8785 91.5114 24.0933 93.0286 24.0933C93.7872 24.0933 94.5461 24.2677 95.2462 24.5877V26.6239H95.2465ZM105.547 18.2466C105.547 17.9266 105.81 17.6648 106.131 17.6648H106.919C107.123 17.6939 107.327 17.8102 107.444 17.9849L107.794 18.9738C108.67 17.8685 110.041 17.2577 111.442 17.2868C112.609 17.2868 114.068 17.5775 113.718 18.363L112.959 19.7883C112.842 20.05 112.551 20.1954 112.288 20.1084C112.259 20.1084 112.23 20.0794 112.23 20.0794C111.909 19.934 111.588 19.8757 111.238 19.8466C110.1 19.8466 109.02 20.4284 108.436 21.4173V29.5325C108.436 30.0853 108.086 30.1433 107.59 30.1433H106.014C105.693 30.1433 105.518 29.8816 105.518 29.5615L105.547 18.2466H105.547ZM119.612 29.5615V18.2466C119.612 17.9266 119.875 17.6648 120.196 17.6648H120.984C121.188 17.6939 121.392 17.8102 121.509 17.9849L121.859 18.9738C122.735 17.8685 124.106 17.2577 125.507 17.2868C126.674 17.2868 128.133 17.5775 127.783 18.363L127.024 19.7883C126.966 19.9337 126.849 20.0501 126.703 20.1084C126.557 20.1664 126.412 20.1374 126.265 20.0794C125.944 19.934 125.624 19.8757 125.273 19.8466C124.135 19.8466 123.056 20.4284 122.443 21.4173V29.5325C122.443 30.0853 122.093 30.1433 121.597 30.1433H120.021C119.788 30.1433 119.613 29.8816 119.613 29.5615H119.612ZM138.113 17.2868C134.64 17.2868 132.072 20.1374 132.072 23.8606C132.072 27.6711 134.64 30.5214 138.113 30.5214C141.556 30.5214 144.153 27.6418 144.153 23.8606C144.153 20.1374 141.585 17.2868 138.113 17.2868ZM138.113 27.9909C136.158 27.9909 134.611 26.1294 134.611 23.8606C134.611 21.6501 136.158 19.8466 138.113 19.8466C140.068 19.8466 141.614 21.6501 141.614 23.8606C141.614 26.1294 140.068 27.9909 138.113 27.9909ZM151.623 27.002V20.1374H150.281C149.96 20.1374 149.697 19.8757 149.697 19.5556V18.2176C149.697 17.8976 149.96 17.6358 150.281 17.6358H151.652V16.2979C151.682 15.9778 151.944 15.7451 152.236 15.7161H153.958C154.279 15.7161 154.512 15.9778 154.512 16.2979V17.6358H155.855C156 17.6358 156.176 17.6939 156.292 17.7812C156.409 17.8976 156.467 18.0429 156.467 18.1883V19.5263C156.438 19.8464 156.176 20.1081 155.855 20.1081H154.541V26.6236C154.541 27.7288 154.95 27.9325 155.533 27.9325C156.175 27.9325 157.051 27.5544 157.459 27.3507C157.868 27.147 158.043 27.3507 158.189 27.6415L158.743 28.9505C158.918 29.2705 158.772 29.5032 158.481 29.6196C157.313 30.114 156.088 30.4051 154.833 30.4631C152.324 30.5214 151.594 29.1544 151.623 27.002Z" fill="white"/>
<path d="M196.032 41.045L200 46.5426L181.704 33.3079L196.032 41.045ZM183.747 36.7111L195.798 47.8806H199.096L183.747 36.7111Z" fill="white"/>
<path d="M167.143 8.84569L167.639 6.37315L170.148 7.88581L167.143 8.84569ZM170.994 1.28298L169.594 2.27188L167.959 4.97685L170.994 6.78026L170.994 1.28298ZM182.958 12.9179L177.998 14.5177L176.334 19.2007L188.357 23.7091L182.958 12.9179ZM175.722 20.597L193.639 35.9552L193.901 34.3261L188.999 25.5998L175.722 20.597ZM175.284 22.0223L182.637 32.0283L193.989 38.282L175.284 22.0223Z" fill="white"/>
<path d="M175.664 10.9689H182.9V6.60587L175.664 10.9689ZM175.284 0.1194L172.162 0.991943V3.02807L175.138 5.58766L172.308 7.62379L175.43 9.4272L182.988 5.09321L181.938 2.76634L178.64 0.1194H175.284ZM172.395 12.2198L172.687 14.314L180.975 12.2198H172.395ZM171.491 15.914L170.878 18.1245L175.284 14.9248L171.491 15.914ZM171.111 19.8989L172.658 25.3091L175.985 15.8849L171.112 19.8989H171.111ZM173.504 26.7344L179.866 30.5156L174.701 23.5057L173.504 26.7344ZM171.462 8.58396L172.045 10.9692H175.401L171.462 8.58396Z" fill="white"/>
</svg>