<svg id="Layer_1" data-name="Layer 1" xmlns="http://www.w3.org/2000/svg" width="200" height="47.76"><defs><style>.cls-1{stroke-width:0}</style></defs><path class="cls-1" d="M8.58 30.75H4.29c-1.08 0-1.63-.55-1.63-1.28.12-.73.64-1.37 1.34-1.57.26 0 1.14.55 2.77.55 3.3 0 5.37-2.65 5.37-5.61 0-2.62-1.34-3.69-1.34-3.69l1.72-.47c.23-.03.35-.32.35-.52v-.79a.58.58 0 0 0-.58-.58H6.75c-3.24 0-5.4 2.53-5.4 5.76-.03 1.19.32 2.36.96 3.37-.09 0-2.3 1.25-2.3 3.75-.03 1.45.9 2.73 2.31 3.17v.12c-.23.2-1.81 1.13-1.81 3.17 0 2.18 1.84 4.48 6.33 4.48 4.17 0 6.65-2.5 6.65-5.47s-2.16-4.39-4.9-4.39ZM6.89 19.38c1.6 0 2.68 1.34 2.68 3.2s-1.08 3.2-2.68 3.2h-.03c-1.6 0-2.77-1.31-2.77-3.2s1.2-3.2 2.8-3.2Zm0 18.58c-1.93 0-3.27-1.02-3.27-2.41 0-1.54 1.55-2.07 1.72-2.12.9-.06 1.87-.06 2.77-.06 2.04 0 2.36 1.4 2.36 1.92 0 1.63-1.69 2.68-3.59 2.68Zm12.75-8.55V18.12c0-.32.26-.58.58-.58h.96c.2.03.41.15.53.32l.35.99c.88-1.11 2.25-1.72 3.65-1.69 1.17 0 2.63.29 2.28 1.08l-.76 1.43c-.12.26-.41.41-.67.32-.03 0-.06-.03-.06-.03-.29-.15-.64-.2-.96-.23-1.14 0-2.22.58-2.8 1.57v8.12c0 .55-.35.61-.85.61h-1.58c-.35-.03-.64-.29-.67-.61Zm18.91-12.33c-3.74 0-6.24 3.14-6.24 6.66 0 3.84 2.51 6.72 6.27 6.72 1.66.03 3.3-.49 4.61-1.51.38-.29.29-.55.06-.79l-.88-1.25c-.23-.32-.47-.2-.85.03-.82.58-1.78.93-2.77.99-2.01 0-3.47-1.77-3.59-3.61h8.46c.29 0 .55-.26.55-.55.03-.29.06-.58.06-.87.03-3.26-2.45-5.82-5.69-5.82Zm-3.21 5.26c.2-1.57 1.58-2.76 3.18-2.73 1.52.03 2.77 1.22 2.86 2.73h-6.04Zm19.49 7.33L49.4 18.36a.549.549 0 0 1 .23-.76c.09-.06.2-.09.29-.06h2.04c.23.03.41.15.53.35l3.85 8.35h.03l3.74-8.35c.12-.23.38-.38.67-.35h1.78c.29-.03.55.17.61.47.03.12 0 .23-.09.35l-7.94 17.22a.67.67 0 0 1-.53.38h-1.87c-.32.03-.58-.2-.61-.52 0-.12.03-.23.09-.32l2.6-5.44Zm21.07-12.5c-1.4-.03-2.74.49-3.76 1.43l-.32-.79a.669.669 0 0 0-.53-.29h-.96c-.32 0-.58.29-.58.61v17.22c0 .32.26.58.58.61h1.84c.32.06.61-.17.64-.49v-5.88c.9.52 1.9.79 2.95.79 3.36 0 6.04-2.73 6.04-6.6s-2.51-6.6-5.89-6.6Zm-.53 10.7c-.99 0-1.93-.35-2.71-.96l-.06.03v-5.09c.41-1.25 1.58-2.12 2.89-2.12 2.1 0 3.38 1.89 3.38 4.1s-1.46 4.04-3.5 4.04Zm18.21-10.76c-1.46-.03-2.92.23-4.26.73a.56.56 0 0 0-.38.7v.03l.23 1.16c.09.38.29.67.64.55 1.14-.41 2.31-.61 3.5-.64 1.6 0 1.98.87 1.95 3.02-.82-.2-1.66-.32-2.51-.32-3.15 0-4.84 1.51-4.84 3.78v.12c0 2.7 1.58 4.22 3.88 4.22 1.43.03 2.83-.52 3.85-1.51l.29.81c.09.2.29.32.5.32h.82c.32-.03.55-.29.55-.61v-6.54c0-3.4-.35-5.82-4.23-5.82Zm1.67 9.39c-.38.81-1.58 1.83-2.86 1.83-1.17 0-1.93-.93-1.93-2.15v-.12c0-1.31 1.05-2.09 2.57-2.09.76 0 1.52.17 2.22.49v2.04Zm10.3-8.37c0-.32.26-.58.58-.58h.79c.2.03.41.15.53.32l.35.99c.88-1.11 2.25-1.72 3.65-1.69 1.17 0 2.63.29 2.28 1.08l-.76 1.43c-.12.26-.41.41-.67.32-.03 0-.06-.03-.06-.03-.32-.15-.64-.2-.99-.23-1.14 0-2.22.58-2.8 1.57v8.12c0 .55-.35.61-.85.61h-1.58c-.32 0-.5-.26-.5-.58l.03-11.31Zm14.06 11.31V18.13c0-.32.26-.58.58-.58h.79c.2.03.41.15.53.32l.35.99c.88-1.11 2.25-1.72 3.65-1.69 1.17 0 2.63.29 2.28 1.08l-.76 1.43a.59.59 0 0 1-.32.32c-.15.06-.29.03-.44-.03-.32-.15-.64-.2-.99-.23-1.14 0-2.22.58-2.83 1.57v8.12c0 .55-.35.61-.85.61h-1.58c-.23 0-.41-.26-.41-.58Zm18.5-12.27c-3.47 0-6.04 2.85-6.04 6.57s2.57 6.66 6.04 6.66 6.04-2.88 6.04-6.66-2.57-6.57-6.04-6.57Zm0 10.7c-1.96 0-3.5-1.86-3.5-4.13s1.55-4.01 3.5-4.01 3.5 1.8 3.5 4.01-1.55 4.13-3.5 4.13Zm13.51-.99v-6.86h-1.34a.58.58 0 0 1-.58-.58V18.1c0-.32.26-.58.58-.58h1.37v-1.34a.65.65 0 0 1 .58-.58h1.72c.32 0 .55.26.55.58v1.34h1.34c.15 0 .32.06.44.15.12.12.17.26.17.41v1.34c-.03.32-.29.58-.61.58h-1.31v6.52c0 1.11.41 1.31.99 1.31.64 0 1.52-.38 1.93-.58.41-.2.58 0 .73.29l.55 1.31c.18.32.03.55-.26.67-1.17.49-2.39.79-3.65.84-2.51.06-3.24-1.31-3.21-3.46ZM196.03 40.93l3.97 5.5-18.3-13.23 14.33 7.74Zm-12.28-4.34 12.05 11.17h3.3l-15.35-11.17ZM167.14 8.73l.5-2.47 2.51 1.51-3 .96Zm3.85-7.57-1.4.99-1.63 2.7 3.04 1.8V1.16Zm11.97 11.64L178 14.4l-1.66 4.68 12.02 4.51-5.4-10.79Zm-7.24 7.68 17.92 15.36.26-1.63-4.9-8.73-13.28-5Zm-.44 1.42 7.35 10.01 11.35 6.25-18.71-16.26ZM175.66 10.85h7.24V6.49l-7.24 4.36ZM175.28 0l-3.12.87v2.04l2.98 2.56-2.83 2.04 3.12 1.8 7.56-4.33-1.05-2.33-3.3-2.65h-3.36Zm-2.88 12.1.29 2.09 8.29-2.09h-8.58Zm-.91 3.69-.61 2.21 4.41-3.2-3.79.99Zm-.38 3.99 1.55 5.41 3.33-9.42-4.87 4.01Zm2.39 6.83 6.36 3.78-5.16-7.01-1.2 3.23Zm-2.04-18.15.58 2.39h3.36l-3.94-2.39Z"/></svg>