<svg width="4177" height="734" fill="none" xmlns="http://www.w3.org/2000/svg"><path d="M358.7 688.2V408.5H93.8v279.7H0V45.5h93.8v277.1h264.9V45.5h93.8v642.7h-93.8ZM1000.6 688.2l-71.2-189.3h-231l-71.2 189.3h-99L772.3 45.5h84.2l244.1 642.7h-100Zm-185-521.1h-1.7l-82.5 245.8h165.9l-81.7-245.8ZM1764 688.2V145.4h-2.6l-216.3 542.8h-56.4l-217.1-542.8h-1.7v542.8h-93.8V45.5h147.6l192.8 492.4 193.7-492.4h147.6v642.7H1764ZM2575.2 688.2V145.4h-2.6l-216.3 542.8h-56.5l-217.1-542.8h-1.7v542.8h-93.8V45.5h147.6l192.9 492.4 193.7-492.4H2669v642.7h-93.8ZM4176.8 700.3c-56.5 0-105.1-12.2-161.5-49.5-59.9 33-119 49.5-190.2 49.5-177.2-.9-324-156.3-324-328.3 0-198.9 150.3-338.7 326.6-338.7 189.3 0 335.2 145.9 335.2 333.5 0 80.8-24.3 151.1-79 224.1 27.8 16.5 52.1 22.6 86 22.6h6.9v86.8Zm-107.7-333.5c0-129.4-104.2-247.5-231-247.5-142.4 0-243.2 117.2-243.2 248.4 0 23.4 1.7 41.7 8.7 66 39.1-15.6 80.8-20 121.6-20 91.2 0 184.1 40 282.3 120.7 42.5-52.9 61.6-102.4 61.6-167.6Zm-352.7 132.9c-24.3 0-46.9 1.7-73.8 14.8 45.2 62.5 118.1 99.9 191.9 99.9 37.3 0 66.9-6.9 97.3-28.7-80.7-59.9-145.9-86-215.4-86ZM3053.5 0v32.5c-156.4 14.2-282.4 136.4-302.5 291.1l40.7-56.5 43.4 60.3c17.3-110.9 106.2-197.3 218.4-210.7V149L3157 74.5 3053.5 0Zm279.4 406.3c-17.3 110.9-106.2 197.3-218.4 210.7v-32.4L3011 659.1l103.5 74.5v-32.4c156.4-14.2 282.4-136.4 302.5-291.1l-40.7 56.5-43.4-60.3Z" fill="#000"/><path d="m3127.3 33.9 56.5 40.7-60.3 43.4c110.9 17.3 197.3 106.2 210.7 218.4h-32.5l74.5 103.5 74.5-103.5h-32.4C3404.2 179.9 3282 54 3127.3 33.9ZM3040.7 700.1l-56.5-40.7 60.3-43.4c-110.9-17.3-197.3-106.2-210.7-218.4h32.4l-74.5-103.5-74.5 103.5h32.4c14.2 156.5 136.4 282.5 291.1 302.5Z" fill="#000"/></svg>