<svg width="292" height="66" fill="none" xmlns="http://www.w3.org/2000/svg"><path d="M29.639 64.088c-1.048 0-2.096-.303-2.994-.806L4.895 50.595c-1.846-1.057-2.993-3.12-2.993-5.235V19.987c0-2.165 1.147-4.179 2.993-5.236l21.75-12.687c.898-.554 1.946-.805 2.994-.805 1.047 0 2.095.302 2.993.805l21.75 12.687c1.846 1.057 2.993 3.121 2.993 5.236v25.322c0 2.165-1.147 4.179-2.993 5.236l-21.75 12.687c-.898.553-1.946.805-2.993.805v.05Z" fill="#335CF6"/><path d="M29.532 57.295 8.342 44.977a.721.721 0 0 1 0-1.246l6.395-3.691s.477-.144.716 0l18.136 10.497a.724.724 0 0 0 1.098-.623V43.49c0-.24-.143-.48-.382-.623L19.844 34.48a.721.721 0 0 1 0-1.246l6.92-3.979s.477-.144.716 0l12.6 7.286a.724.724 0 0 0 1.098-.623v-6.52c0-.239-.143-.478-.382-.622l-9.545-5.512a.721.721 0 0 1 0-1.247l9.545-5.464s.477-.143.716 0l9.45 5.464s.382.384.382.624v22.048c0 .24-.143.48-.382.623L30.248 57.343s-.477.144-.716 0v-.048Z" fill="#fff"/><path d="M83.161 53.975v-41.48h6.271v41.48h-6.27ZM95.701 53.974v-29.38h6.025l.098 4.345c.988-1.63 2.371-2.864 4.099-3.753 1.778-.889 3.605-1.284 5.58-1.284 3.456 0 6.222 1.086 8.345 3.21 2.123 2.173 3.21 5.382 3.21 9.629v17.233h-6.271V37.483c0-2.618-.593-4.642-1.828-6.123-1.185-1.482-2.962-2.173-5.283-2.173s-4.247.79-5.679 2.42c-1.383 1.58-2.123 3.802-2.123 6.616v15.752h-6.271.098ZM139.701 53.974c-2.913 0-5.184-.69-6.715-2.123-1.531-1.432-2.321-3.753-2.321-7.012V29.828h-4.444v-5.284h4.444v-7.11h6.271v7.11h7.456v5.284h-7.456v15.011c0 1.482.346 2.519.988 3.012.691.494 1.728.79 3.16.79h3.308v5.334h-4.691ZM161.677 54.665c-2.913 0-5.481-.642-7.703-1.975-2.222-1.284-3.95-3.11-5.185-5.432-1.234-2.32-1.876-4.987-1.876-8 0-3.011.642-5.826 1.876-8.098 1.235-2.271 2.963-4.098 5.185-5.382 2.222-1.284 4.79-1.926 7.753-1.926 2.962 0 5.333.642 7.456 1.877a13.332 13.332 0 0 1 4.987 5.086c1.235 2.173 1.827 4.592 1.827 7.308v1.383c0 .395-.049.889-.148 1.432h-22.566a10.363 10.363 0 0 0 1.234 4.395c.691 1.283 1.679 2.271 2.864 3.012 1.185.74 2.617 1.086 4.197 1.086 1.729 0 3.21-.395 4.395-1.136 1.185-.79 2.074-1.876 2.716-3.308h6.518c-.494 1.778-1.382 3.407-2.567 4.84-1.186 1.48-2.716 2.616-4.543 3.505-1.827.889-3.951 1.284-6.37 1.284l-.05.05Zm-8.345-18.172h16.295c-.098-2.27-.888-4.098-2.469-5.431-1.58-1.334-3.407-1.975-5.58-1.975-1.975 0-3.752.592-5.382 1.827-1.63 1.234-2.568 3.061-2.864 5.58ZM180.093 53.975v-41.48h6.272v41.48h-6.272ZM191.946 53.975v-41.48h6.271v41.48h-6.271ZM207.353 19.409c-1.185 0-2.173-.395-3.012-1.235-.79-.79-1.235-1.778-1.235-2.913 0-1.136.395-2.173 1.235-2.963.839-.79 1.827-1.185 3.012-1.185s2.173.395 3.012 1.185c.84.79 1.235 1.778 1.235 2.963s-.395 2.123-1.235 2.913a4.174 4.174 0 0 1-3.012 1.235Zm-3.111 34.566V24.592h6.271v29.381h-6.271ZM233.03 54.666c-2.222 0-4.198-.444-6.025-1.284a10.776 10.776 0 0 1-4.296-3.852l-.247 4.445h-6.024v-41.48h6.271v16.592a11.717 11.717 0 0 1 4.148-3.753c1.728-.987 3.802-1.432 6.173-1.432 2.864 0 5.382.692 7.456 2.025 2.074 1.333 3.704 3.21 4.839 5.53 1.136 2.321 1.729 4.889 1.729 7.802 0 2.914-.593 5.482-1.729 7.852a13.658 13.658 0 0 1-4.839 5.58c-2.074 1.382-4.592 2.024-7.456 2.024v-.05Zm-1.334-5.481c1.778 0 3.358-.445 4.691-1.284a8.526 8.526 0 0 0 3.161-3.556c.79-1.53 1.136-3.21 1.136-5.135 0-1.926-.396-3.703-1.136-5.185-.79-1.481-1.827-2.617-3.21-3.456-1.383-.84-2.913-1.235-4.642-1.235-1.728 0-3.308.395-4.641 1.235-1.334.839-2.371 1.975-3.161 3.506-.79 1.48-1.135 3.21-1.135 5.135 0 1.926.395 3.605 1.135 5.086.79 1.482 1.827 2.667 3.161 3.506 1.333.84 2.864 1.284 4.641 1.284v.099ZM254.952 19.409c-1.185 0-2.172-.395-3.012-1.235-.79-.79-1.234-1.778-1.234-2.913 0-1.136.395-2.173 1.234-2.963.84-.79 1.827-1.185 3.012-1.185s2.173.395 3.012 1.185c.84.79 1.235 1.777 1.235 2.963 0 1.185-.395 2.123-1.235 2.913a4.174 4.174 0 0 1-3.012 1.235Zm-3.16 34.565v-29.38h6.271v29.38h-6.271ZM263.989 53.974v-29.38h6.024l.099 4.345c.988-1.63 2.37-2.864 4.099-3.753 1.777-.889 3.604-1.284 5.579-1.284 3.457 0 6.222 1.086 8.346 3.21 2.123 2.172 3.209 5.382 3.209 9.629v17.233h-6.271V37.481c0-2.617-.592-4.641-1.827-6.123-1.185-1.481-2.963-2.172-5.284-2.172-2.32 0-4.246.79-5.678 2.42-1.383 1.58-2.124 3.801-2.124 6.616v15.752h-6.271.099Z" fill="#18343A"/></svg>