<svg data-name="Group 12836" xmlns="http://www.w3.org/2000/svg" width="2336" height="742"><path data-name="Rectangle 3763" fill="none" d="M0 0h2336v742H0z"/><g data-name="keylight" style="isolation:isolate"><g data-name="Group 13063" style="isolation:isolate"><path data-name="Path 24472" d="M56.001 346.257v-29.094l155.169 75.719V417.5L56.001 493.966v-29.468l126.448-59.685Z" fill="#33d463"/></g><g data-name="Group 13064" style="isolation:isolate" fill="#333"><path data-name="Path 24473" d="M246.15 498.813V231h27.975v158.152l29.094-1.492 53.34-75.347h31.705l-60.8 85.791 63.411 100.709H359.17l-55.578-86.535-29.467 1.119v85.416Z"/><path data-name="Path 24474" d="m557.607 474.569.746 22.007s-42.522 5.969-72.735 5.969c-55.577 0-73.855-32.452-73.855-95.862 0-70.871 30.587-98.1 77.958-98.1 49.609 0 74.973 26.11 74.973 87.282l-1.492 21.261H440.111c0 39.911 12.31 60.8 48.864 60.8 27.975 0 68.632-3.357 68.632-3.357Zm-20.888-79.822c0-46.252-14.174-62.664-47-62.664-31.705 0-49.61 17.531-49.983 62.664Z"/><path data-name="Path 24475" d="m615.422 312.313 46.625 162.256h12.31l47-162.256h27.977l-77.589 269.308h-27.974l24.244-82.808h-27.6l-52.968-186.5Z"/><path data-name="Path 24476" d="M787.37 231h27.975v267.813H787.37Z"/><path data-name="Path 24477" d="M871.291 237.713h27.975v32.451h-27.975Zm0 74.6h27.975v186.5h-27.975Z"/><path data-name="Path 24478" d="M944.77 530.146c0-21.634 10.07-31.705 29.467-46.252-6.714-4.476-10.444-14.174-10.444-25.737 0-7.087 12.682-29.467 12.682-29.467-15.666-7.087-29.468-22.007-29.468-56.323 0-45.879 28.349-63.783 69.752-63.783 18.65 0 38.792 4.848 38.792 4.848l55.2-1.492v23.873l-35.435-.745c7.087 7.087 12.31 17.53 12.31 37.3 0 48.49-24.246 63.037-71.99 63.037a157.255 157.255 0 0 1-18.277-1.492s-6.714 16.412-6.714 21.261c0 14.92 2.984 17.158 45.133 17.158 52.967 0 71.989 10.444 71.989 54.831 0 42.149-30.213 59.307-82.806 59.307-58.927-.001-80.191-13.057-80.191-56.324Zm48.49-35.062c-15.666 11.563-20.888 18.277-20.888 32.824 0 25.737 10.817 35.062 52.966 35.062 37.3 0 54.085-10.071 54.085-34.689 0-28.348-11.936-31.332-45.878-31.332-13.056 0-40.285-1.865-40.285-1.865Zm66.394-122.717c0-29.467-11.563-41.03-42.895-41.03-29.094 0-41.776 11.563-41.776 41.03s12.682 40.657 41.776 40.657c31.332 0 42.895-11.19 42.895-40.657Z"/><path data-name="Path 24479" d="M1144.695 498.813V231h27.975v91.758s29.839-14.174 57.442-14.174c51.1 0 63.037 25.364 63.037 91.758v98.471h-27.976v-97.725c0-49.237-5.594-67.513-39.91-67.513-26.483 0-52.593 11.189-52.593 11.189v154.049Z"/><path data-name="Path 24480" d="M1381.175 336.558v89.148c0 40.657 2.612 52.22 26.857 52.22 10.443 0 33.2-2.238 33.2-2.238l1.865 23.126s-24.991 4.1-38.046 4.1c-38.418 0-51.474-14.547-51.474-68.259v-98.1h-26.483v-24.242h26.483v-57.068h27.6v57.068h59.307v24.245Z"/></g><g data-name="Group 13065" style="isolation:isolate"><path data-name="Path 24481" d="m1565.064 234.729 24.991 9.325-105.186 259.982-24.991-8.952Z" fill="#33d463"/></g></g></svg>