<?xml version="1.0" encoding="UTF-8"?>
<svg id="Layer_1" data-name="Layer 1" xmlns="http://www.w3.org/2000/svg" viewBox="0 0 197.53 50.8" width="197.53" heighty="50.8">
  <defs>
    <style>
      .cls-1 {
        stroke-width: 0px;
      }
    </style>
  </defs>
  <path class="cls-1" d="M102.81,36.2h-15.27V14.55h15.14v2.34h-12.63v7.26h12.25v2.32h-12.25v7.41h12.77v2.34Z"/>
  <path class="cls-1" d="M122.51,16.47l-13.25,17.38h13.3v2.35h-16.61v-1.92l13.27-17.38h-12.55v-2.35h15.82v1.92h.02Z"/>
  <path class="cls-1" d="M142.25,16.47l-13.25,17.38h13.3v2.35h-16.61v-1.92l13.27-17.38h-13.12v-2.35h16.41v1.92Z"/>
  <path class="cls-1" d="M160.47,36.2h-15.05V14.55h2.5v19.3h12.57v2.35h-.02Z"/>
  <path class="cls-1" d="M178.87,36.2h-15.27V14.55h15.13v2.34h-12.63v7.26h12.25v2.32h-12.25v7.41h12.77v2.34Z"/>
  <path class="cls-1" d="M190.21,26.46c2.2,0,4.05-.58,5.34-1.63,1.29-1.05,1.98-2.55,1.98-4.34,0-1.9-.64-3.37-1.9-4.39-1.26-1.02-3.11-1.53-5.46-1.53h-8.2v21.65h2.5v-19.33h5.66c3.14,0,4.8,1.25,4.8,3.6s-1.66,3.65-4.8,3.65h-3.04v2.32l7.44,9.74h2.97l-7.43-9.74h.12Z"/>
  <path class="cls-1" d="M70.57,14.56h-2.5v21.65h2.5V14.56Z"/>
  <path class="cls-1" d="M76.11,25.31l8.2-10.74h-2.97l-7.32,9.59v2.32l7.44,9.74h2.97l-8.32-10.91Z"/>
  <path class="cls-1" d="M49.17,46.24c-6.3-6.57-15.34-16-19.02-19.84h16.82c.37.68,1.09,1.13,1.93,1.13,1.21,0,2.2-.97,2.2-2.19s-.97-2.19-2.2-2.19c-.84,0-1.56.47-1.93,1.13h-16.73c3.71-3.87,12.67-13.23,18.97-19.8.76.2,1.6,0,2.17-.6.84-.87.81-2.25-.08-3.09-.87-.83-2.27-.8-3.11.08-.57.6-.74,1.43-.5,2.17-7.32,7.66-18.26,19.07-20.33,21.22h-.76V4.1c.69-.37,1.14-1.08,1.14-1.92,0-1.2-.97-2.19-2.2-2.19s-2.18,1-2.18,2.2c0,.83.47,1.55,1.14,1.92v20.24H4.13c-.37-.68-1.09-1.13-1.93-1.13-1.21,0-2.2.98-2.2,2.19s.99,2.19,2.2,2.19c.84,0,1.56-.47,1.93-1.13h20.38v20.24c-.69.37-1.14,1.08-1.14,1.92,0,1.2.97,2.19,2.2,2.19s2.2-.97,2.2-2.19c0-.83-.47-1.55-1.14-1.92v-20.27h.69c1.86,1.95,13,13.58,20.38,21.27-.24.73-.07,1.57.5,2.17.84.87,2.22.9,3.11.07.89-.83.91-2.2.07-3.09-.62-.6-1.44-.8-2.2-.6Z"/>
</svg>