<?xml version="1.0" encoding="UTF-8"?>
<svg xmlns="http://www.w3.org/2000/svg" width="200" height="53" viewBox="0 0 200 53" fill="none"><path d="M103.813 37.5688H88.5435V15.915H103.679V18.2506H91.0464V25.5074H103.292V27.8263H91.0464V35.2333H103.813V37.5688Z" fill="white"/><path d="M123.517 17.8335L110.264 35.2166H123.568V37.5688H106.954V35.6503L120.225 18.2673H107.677V15.915H123.501V17.8335H123.517Z" fill="white"/><path d="M143.255 17.8335L130.002 35.2166H143.306V37.5688H126.692V35.6503L139.963 18.2673H126.844V15.915H143.255V17.8335Z" fill="white"/><path d="M161.481 37.5688H146.43V15.915H148.933V35.2166H161.498V37.5688H161.481Z" fill="white"/><path d="M179.875 37.5688H164.606V15.915H179.741V18.2506H167.109V25.5074H179.355V27.8263H167.109V35.2333H179.875V37.5688Z" fill="white"/><path d="M191.214 27.8245C193.415 27.8245 195.263 27.2406 196.556 26.1896C197.85 25.1386 198.538 23.6372 198.538 21.8522C198.538 19.9504 197.9 18.4823 196.64 17.4647C195.38 16.4471 193.532 15.9299 191.181 15.9299H185.335H182.983V37.5837H185.486V18.2488H191.147C194.288 18.2488 195.951 19.5 195.951 21.8522C195.951 24.2711 194.288 25.5056 191.147 25.5056H188.107V27.8245L195.548 37.567H198.522L191.097 27.8245H191.214Z" fill="white"/><path d="M71.5771 15.9329H69.0742V37.5866H71.5771V15.9329Z" fill="white"/><path d="M77.1203 26.6734L85.3178 15.9299H82.3446L75.0205 25.5223V27.8412L82.4621 37.5837H85.4354L77.1203 26.6734Z" fill="white"/><path d="M50.1759 47.6115C43.8766 41.0387 34.8391 31.6131 31.1603 27.7762H47.9754C48.3449 28.4601 49.0672 28.9106 49.9072 28.9106C51.1166 28.9106 52.1077 27.943 52.1077 26.7252C52.1077 25.524 51.1334 24.5398 49.9072 24.5398C49.0672 24.5398 48.3449 25.0069 47.9754 25.6742H31.2443C34.9567 21.8039 43.9102 12.445 50.2095 5.87217C50.9654 6.07236 51.8054 5.87217 52.3765 5.2716C53.2164 4.40412 53.1828 3.01948 52.2925 2.18536C51.419 1.35124 50.0247 1.3846 49.1848 2.26877C48.6137 2.86934 48.4457 3.70346 48.6809 4.43748C41.3568 12.0947 30.4212 23.5055 28.355 25.6575H27.5991V5.47179C28.2878 5.10478 28.7414 4.38743 28.7414 3.55331C28.7414 2.35218 27.7671 1.36792 26.5408 1.36792C25.3145 1.36792 24.357 2.36886 24.357 3.57C24.357 4.40412 24.8274 5.12146 25.4993 5.48847V25.7242H5.13982C4.77025 25.0403 4.04793 24.5898 3.20802 24.5898C1.99854 24.5898 1.00745 25.5741 1.00745 26.7752C1.00745 27.9764 1.99854 28.9606 3.20802 28.9606C4.04793 28.9606 4.77025 28.4935 5.13982 27.8262H25.5161V48.062C24.8274 48.429 24.3738 49.1463 24.3738 49.9804C24.3738 51.1816 25.3481 52.1658 26.5744 52.1658C27.8007 52.1658 28.775 51.1983 28.775 49.9804C28.775 49.1463 28.3046 48.429 27.6327 48.062V27.7929H28.3214C30.186 29.7447 41.3232 41.3723 48.6977 49.0629C48.4625 49.7969 48.6305 50.6311 49.2016 51.2316C50.0415 52.0991 51.419 52.1325 52.3093 51.2984C53.1996 50.4642 53.2164 49.0963 52.3765 48.2121C51.755 47.6115 50.9319 47.4114 50.1759 47.6115Z" fill="white"/></svg>