<svg width="126" height="36" fill="none" xmlns="http://www.w3.org/2000/svg"><path d="M27.765 8.078c-.323.468-.484 1.081-.484 1.84-.002 6.306-.001 12.614.003 18.92 0 .474.178.977.534 1.511-1.445.971-3.107 1.725-4.986 2.263-4.595 1.314-9.035 1.24-13.32-.22-1.602-.545-3.084-1.541-4.447-2.988-3.083-3.272-4.963-7.6-5.061-12.09C-.108 12.27 2.417 7.605 6.782 5.04c1.356-.796 2.851-1.183 4.529-1.728 4.245-1.383 8.288-1.093 12.129.87 1.726.882 3.167 2.18 4.325 3.896Z" fill="#3C94D7"/><path d="M11.651 18.41a.2.2 0 0 1-.154-.073.187.187 0 0 1-.037-.164c.54-2.125 1.071-4.222 1.594-6.29.066-.262.142-.467.227-.614a.163.163 0 0 1 .124-.08l1.262-.14c.233-.025.367.076.4.303a50.66 50.66 0 0 0 1.288 6.122.26.26 0 0 1-.027.2.268.268 0 0 1-.163.123c-1.477.39-2.981.595-4.514.612Z" fill="#DE6868"/><path d="M20.828 19.591c.477.025.881-.3.904-.728.022-.426-.346-.793-.823-.818-.477-.025-.882.301-.904.728-.022.427.346.793.823.818ZM6.243 20.363c.481-.016.858-.383.843-.818-.015-.435-.417-.774-.898-.757-.48.017-.858.383-.842.818.015.435.417.774.897.757ZM14.32 24.29c1.012-.171 1.456-.872 1.118-1.86a.258.258 0 0 1 .205-.336c.202-.03.36.146.417.336.513 1.668-1.104 2.79-2.639 2.47-.912-.19-1.543-.71-1.896-1.565-.082-.201-.092-.382-.032-.544a.25.25 0 0 1 .468.006c.413 1.192 1.199 1.69 2.359 1.493Z" fill="#2E2E61"/><path fill-rule="evenodd" clip-rule="evenodd" d="M46.204 17.172c0-.486.01-.846.031-1.078.043-.254.138-.54.286-.856.296-.55 1.12-.825 2.473-.825 1.014 0 1.733.18 2.156.54.36.295.55.75.57 1.363.022.211.032.518.032.92v11.096c0 .487-.02.857-.063 1.11-.021.233-.116.508-.285.825-.275.55-1.09.824-2.442.824-1.332 0-2.145-.285-2.441-.856a3.491 3.491 0 0 1-.286-.825 13.715 13.715 0 0 1-.031-1.11V17.173Zm5.2-5.866c-.149.296-.423.507-.825.634-.401.127-.94.19-1.617.19-.655 0-1.184-.063-1.585-.19-.402-.127-.687-.348-.856-.666a3.493 3.493 0 0 1-.286-.824 14.455 14.455 0 0 1-.031-1.11c0-.486.01-.845.031-1.078.043-.253.138-.528.286-.824.296-.57 1.12-.856 2.473-.856 1.331 0 2.135.285 2.41.856.169.317.264.602.285.856.042.233.063.592.063 1.078 0 .486-.02.856-.063 1.11-.021.232-.116.507-.285.824Zm42.802 4.788c-.02.232-.031.592-.031 1.078V28.3c0 .507.01.877.031 1.11.043.232.138.507.286.824.296.57 1.11.856 2.441.856 1.353 0 2.167-.275 2.441-.825.17-.316.265-.591.286-.824.042-.253.063-.623.063-1.11V17.236c0-.401-.01-.708-.031-.92-.021-.612-.212-1.067-.571-1.363-.423-.359-1.141-.539-2.156-.539-1.353 0-2.177.275-2.473.825a3.378 3.378 0 0 0-.286.856Zm4.344-4.154c.402-.127.677-.338.825-.634.169-.317.264-.592.285-.824.042-.254.063-.624.063-1.11 0-.486-.02-.845-.063-1.078-.021-.254-.116-.539-.285-.856-.275-.57-1.079-.856-2.41-.856-1.353 0-2.177.285-2.473.856-.148.296-.243.57-.286.824-.02.233-.031.592-.031 1.078 0 .486.01.856.031 1.11.043.232.138.507.286.824.169.318.454.54.856.666.401.127.93.19 1.585.19.677 0 1.216-.063 1.617-.19Zm19.211 13.539h-9.766v-3.203h6.214c.74 0 1.29-.063 1.649-.19.803-.253 1.205-1.12 1.205-2.6 0-1.352-.285-2.177-.856-2.473-.317-.169-.602-.264-.856-.285-.233-.042-.592-.064-1.078-.064h-6.278v-3.202h9.734c.74 0 1.289-.063 1.649-.19.782-.254 1.173-1.12 1.173-2.6 0-1.353-.286-2.177-.856-2.473-.317-.17-.603-.264-.856-.285-.233-.043-.592-.064-1.078-.064h-12.493c-1.12 0-1.881.2-2.283.603-.401.38-.602 1.11-.602 2.187V28.27c0 .74.063 1.279.19 1.617.254.803 1.12 1.205 2.6 1.205h12.556c.74 0 1.289-.064 1.649-.19.782-.254 1.173-1.12 1.173-2.6 0-1.353-.286-2.177-.856-2.473-.317-.17-.603-.265-.856-.286-.233-.042-.592-.063-1.078-.063Zm-41.85 2.346c-.549-.676-.824-1.279-.824-1.807 0-.55.455-1.268 1.364-2.156.528-.507 1.088-.761 1.68-.761.592 0 1.416.528 2.473 1.585.296.36.719.708 1.268 1.047.55.317 1.057.475 1.522.475 1.966 0 2.949-.803 2.949-2.41 0-.486-.275-.887-.824-1.204-.529-.339-1.195-.582-1.998-.73-.803-.148-1.67-.38-2.6-.697-.93-.338-1.797-.73-2.6-1.173-.803-.444-1.48-1.142-2.029-2.093-.528-.972-.793-2.135-.793-3.488 0-1.86.687-3.477 2.061-4.85 1.395-1.396 3.287-2.093 5.676-2.093 1.268 0 2.42.169 3.456.507 1.057.317 1.786.645 2.188.983l.792.602c.655.613.983 1.131.983 1.554 0 .423-.254 1.004-.76 1.744-.72 1.057-1.46 1.585-2.22 1.585-.444 0-.994-.211-1.65-.634a4.692 4.692 0 0 1-.38-.317 3.86 3.86 0 0 0-.475-.412c-.444-.275-1.015-.413-1.712-.413-.677 0-1.248.17-1.712.508-.444.317-.666.771-.666 1.363 0 .57.264 1.036.792 1.395.55.36 1.226.603 2.03.73.803.126 1.68.327 2.631.602.951.254 1.829.57 2.632.951.803.38 1.469 1.046 1.997 1.998.55.93.825 2.082.825 3.456s-.275 2.589-.825 3.646c-.55 1.036-1.268 1.839-2.156 2.41-1.712 1.12-3.54 1.68-5.485 1.68a11.1 11.1 0 0 1-2.822-.349c-.888-.253-1.606-.56-2.156-.92-1.12-.676-1.902-1.33-2.346-1.965l-.285-.349ZM63.1 7.85l-5.865-.032c-1.353 0-2.177.286-2.473.856-.17.318-.275.592-.317.825a13.67 13.67 0 0 0-.032 1.11v17.628c0 .91.127 1.586.38 2.03.317.528 1.12.792 2.41.792h5.802c3.234 0 5.982-1.152 8.244-3.456 2.283-2.304 3.424-5.062 3.424-8.275 0-3.234-1.162-5.95-3.487-8.149-2.326-2.22-5.02-3.329-8.086-3.329Zm4.122 15.917c-1.226 1.12-2.6 1.68-4.122 1.68h-3.075V13.462h3.044c1.606 0 3.001.581 4.185 1.744 1.205 1.141 1.807 2.568 1.807 4.28 0 1.712-.613 3.14-1.839 4.28ZM43.468 26.43c-1.353-1.564-3.646-3.9-6.88-7.007l1.268-1.205c2.579-2.473 4.481-4.418 5.707-5.834.634-.74.951-1.374.951-1.902 0-.55-.422-1.184-1.268-1.903-.846-.74-1.543-1.11-2.093-1.11s-1.194.434-1.934 1.3a611.793 611.793 0 0 1-6.975 7.959v-6.056c0-.74-.053-1.29-.159-1.649-.274-.782-1.152-1.173-2.631-1.173-1.353 0-2.178.285-2.473.856-.17.317-.275.603-.318.856-.02.233-.031.592-.031 1.078V28.27c0 .74.063 1.279.19 1.617.254.803 1.12 1.205 2.6 1.205 1.353 0 2.177-.285 2.473-.856.17-.317.264-.592.286-.825.042-.232.063-.602.063-1.11v-6.182l6.975 7.958c.761.888 1.406 1.332 1.934 1.332.55 0 1.248-.36 2.093-1.078.846-.74 1.268-1.374 1.268-1.902 0-.55-.349-1.216-1.046-1.998Z" fill="#2E2E61"/></svg>