<svg xmlns="http://www.w3.org/2000/svg" data-name="Layer 2" width="463" height="190.4" class="header-logo uk-svg"><g data-name="Layer 1"><path d="M4.6 172.4c.1 2.3 2.5 4.7 6 4.7s5.4-1.9 5.7-4c.2-2.6-2-4-4.8-4.6l-3.8-.9c-6.4-1.7-7.4-5.2-7.4-7.7 0-4.9 4.6-8.2 9.9-8.2 5.5 0 9.8 3.3 9.8 8.5h-4.6c0-2.6-2.2-4.3-5.3-4.3-2.8 0-5.2 1.6-5.2 4 0 1 .4 2.8 4 3.7l3.9 1c6 1.5 8.6 4.7 8.1 8.8-.4 4.5-4.5 7.7-10.3 7.7-6.2 0-10.6-4-10.6-8.7h4.6Zm23.9-21.7c1.7 0 3 1.2 3 2.7s-1.3 2.7-3 2.7-3-1.1-3-2.7 1.4-2.7 3-2.7Zm2.2 10.6h-4.4v19.4h4.4v-19.4Zm25.1 9v10.4h-4.5v-10.9c0-3-1.7-4.7-4.1-4.7-2.7 0-5.2 1.4-5.2 5.2v10.4h-4.5v-19.4H42v2.9c1.4-2.7 4.8-3.3 6.4-3.3 3.3 0 5.3 1.4 6.5 3.8 1.9-3.3 5-3.8 6.8-3.8 5 0 7.9 3 7.9 8.6v11.2H65v-10.8c0-3-1.7-4.8-4.3-4.8-3 0-5 2-5 5.2Zm24.8-6.1c1.3-2.1 4-3.3 6.8-3.3 5.5 0 10.2 4 10.2 10.1s-4.6 10.1-10.2 10.1c-2.7 0-5.5-1-6.8-3.2v12.2h-4.5v-28.8h4.5v2.9ZM87 177c3.4 0 6.1-2.3 6.1-6s-2.7-6-6.1-6-6.2 2.3-6.2 6 3 6 6.2 6Zm16-26.3h4.6v30H103v-30Zm17.1 39.5h-4.7l4.4-10.4-8-18.5h4.7l5.7 13.3 5.8-13.3h4.8L120 190.2Zm28.1-9.5V152h11.7c8.5 0 13.5 6.2 13.5 14.3s-5 14.3-13.5 14.3h-11.7Zm4.6-4h7c6 0 9-4.6 9-10.3s-3-10.2-9-10.2h-7v20.4Zm24.9-5.7c0-6.2 4.9-10.1 10.7-10.1s10.7 3.9 10.7 10-5 10.2-10.7 10.2-10.7-4-10.7-10.2Zm16.9 0c0-3.7-2.8-6-6.2-6s-6.2 2.3-6.2 6 2.8 6 6.2 6 6.2-2.4 6.2-6Zm12.1-20.3c1.7 0 3 1.2 3 2.7s-1.3 2.7-3 2.7-3-1.1-3-2.7 1.4-2.7 3-2.7Zm2.3 10.6h-4.5v19.4h4.5v-19.4Zm11.2 19.4h-4.5v-19.4h4.5v2.9c1.2-2.2 4-3.3 6.3-3.3 4.9 0 7.7 3 7.7 8.5v11.3h-4.5v-10.8c0-3-1.6-4.8-4.3-4.8s-5.2 1.3-5.2 5.2v10.4Zm29.7 5.7c4.2 0 6.8-2.2 6.8-7.7v-1c-1.2 2.2-4.1 3.4-6.9 3.4-5.5 0-10.3-4-10.3-10s4.8-10.2 10.3-10.2c2.8 0 5.7 1.1 7 3.2v-2.8h4.3v16.5c0 9-4.3 12.6-11.2 12.6-4 0-7.5-2-9.4-5.5l3.7-1.8c1 2 3.5 3.3 5.7 3.3Zm.4-21.4c-3.4 0-6.2 2.5-6.2 6s2.8 6 6.2 6c3.1 0 6.3-2.2 6.3-6s-2.9-6-6.3-6Zm56.5-13h4.1l3.7 28.7H310l-2.6-20.4-8.9 17.2h-3.9l-8.9-17.2-2.6 20.4h-4.6l3.7-28.6h4l10.3 20.4 10.3-20.4Zm12 19c0-6.2 4.9-10.1 10.6-10.1s10.8 3.9 10.8 10-5 10.2-10.8 10.2-10.6-4-10.6-10.2Zm16.8 0c0-3.7-2.8-6-6.2-6s-6.1 2.3-6.1 6 2.8 6 6.1 6 6.2-2.4 6.2-6Zm14.4 9.7h-4.4v-19.4h4.5v4.4c1-3.4 3-4.8 5.6-4.8a8 8 0 0 1 3.6.7l-.7 4a6.8 6.8 0 0 0-3-.7c-3.9 0-5.5 3.7-5.5 8.8v7Zm32.4-8.2h-16.2c.4 3 3 4.9 6.2 4.9 2.3 0 4.5-1 5.6-2.8l3.7 1.5c-1.8 3.4-5.6 5-9.5 5-5.8 0-10.5-4-10.5-10.2s4.7-10 10.5-10 10.2 3.9 10.2 10v1.6Zm-4.4-3.1c-.4-3-2.7-4.8-5.8-4.8s-5.6 1.8-6 4.8H378Z" style="fill:#00b1b0"/><path d="M154.3 51.3h28.3c5.6 0 11.1.5 16.5 2.2 6.4 1.9 12.1 5.1 16.7 10.1a35 35 0 0 1 7.8 14.2 48.9 48.9 0 0 1-2.3 33 33.4 33.4 0 0 1-14.7 15.3 44.2 44.2 0 0 1-14.8 4.6c-3 .5-6.1.7-9.2.7h-28.3V51.3Zm8.8 8.1v63.9h.3l22.8-.1c3-.1 6-.6 9-1.4a26.7 26.7 0 0 0 19.4-17.7A41.6 41.6 0 0 0 215 80c-1-4-3-7.5-5.6-10.6a27 27 0 0 0-11.7-7.8c-4.5-1.5-9-2.2-13.7-2.2h-21Zm155.9 32c0 4.2-.6 8.4-1.8 12.5a39.1 39.1 0 0 1-29.7 27.8c-4.8 1.1-9.6 1.4-14.6 1.1a44 44 0 0 1-13.8-3 38.7 38.7 0 0 1-22.6-22.9 43.8 43.8 0 0 1 1.9-35.4c3.6-7 8.9-12.5 15.7-16.3a43.2 43.2 0 0 1 15.7-5.1c4.1-.5 8.3-.6 12.5 0 6.6.7 12.7 2.7 18.3 6.3A38.5 38.5 0 0 1 316 75.3c2.4 6 2.9 11.2 3 16.1Zm-76.5-.2c0 3.2.4 6.3 1.2 9.4a31.5 31.5 0 0 0 29.2 24.1c4.4.4 8.6.1 12.9-1a31.2 31.2 0 0 0 19.3-14 37.8 37.8 0 0 0 4-27.6 31.2 31.2 0 0 0-11.7-17.7 38 38 0 0 0-32.6-4.9 31 31 0 0 0-16.2 11.8c-4.2 6-6 12.7-6 19.9Zm84.7 17.8h8.7l.4 2.8c1 5.2 4 8.8 8.8 11 4 1.9 8.4 2.3 12.8 2.1 3 0 6-.5 8.8-1.6a15 15 0 0 0 9.5-9c1.3-3.5 1.4-7-.2-10.6-.7-1.7-2-3-3.6-4a24 24 0 0 0-8.8-3.3l-12.5-2.2c-4.3-.8-8.5-1.7-12.4-3.7-4-2.1-7-5.2-8.5-9.6a24 24 0 0 1 .9-16.7c1.4-3.5 3.8-6.4 6.8-8.7 3.5-2.7 7.5-4.2 11.8-5 3.4-.7 6.9-.8 10.4-.5 4.9.4 9.5 1.6 13.7 4.3 4 2.6 7 6.2 8.8 10.7 1 2.6 1.4 5.2 1.5 8h-8.3l-.7-3.7c-1.4-4.9-4.6-8-9.1-9.8a26.3 26.3 0 0 0-21.5 1.5c-3.7 2.3-6 5.7-6.6 10a13 13 0 0 0 .7 7.1 10 10 0 0 0 4 4.5c2.6 1.7 5.5 2.6 8.6 3.2l13 2.3c4.1.8 8.1 1.8 11.9 3.7 4.9 2.5 8 6.4 9.1 11.8 1 5.2.6 10.3-1.6 15.2-1.7 4-4.6 7.1-8.3 9.5-3.8 2.4-8 3.7-12.4 4.3-6 .9-12.2.6-18-1.2-4-1.2-7.6-3-10.6-6a21.6 21.6 0 0 1-6.5-12.2l-.6-4.2Zm-196-57.7h8.6v48.2c0 4.7-.5 9.4-2.1 13.8a28.3 28.3 0 0 1-19.2 18 44 44 0 0 1-23 .3 27.3 27.3 0 0 1-19.9-16.9c-1.2-3-2-6.2-2.3-9.4l-.3-7v-47h8.8v48c0 3.6.3 7.2 1.5 10.7a20 20 0 0 0 11.1 12.5 28 28 0 0 0 10.3 2.3c4.2.2 8.3-.2 12.2-1.6a20 20 0 0 0 9.9-7.3c2.4-3.5 3.7-7.4 4.1-11.6.2-1.7.3-3.5.3-5.3V51.3Zm-66.5 79.3-5.6-5.4-18.3-18-16.5-15.9c-.4-.4-.4-.6 0-1l3.3-3.2 14.9-14.4 21-20.6c.1-.1.4-.2.3-.5 0-.2-.4 0-.5 0h-10c-.5 0-.8 0-1.1.4l-6 6-19 18.6L15.7 88l-.3.3H15v5.1l.4.2 2.6 2.5 24 23.6 11.1 11c.3.2.6.4 1 .4H65c.1-.3-.1-.4-.3-.6ZM11.8 52.8V52c0-.4-.1-.6-.6-.6H3V131h7.8q1 0 1-1V52.7Z" style="fill:#155e98"/><path d="M402.7 10.3h49.9v49.9h-49.9z" style="fill:#8fd4d5" transform="rotate(-45 427.7 35.3)"/><path d="m463 35.3-35.3 35.3-35.3-35.3L427.7 0v35.3H463z" style="fill:#1c75bc;fill-rule:evenodd"/></g></svg>