<svg id="Landbell_Group_Logo_-_Dark_Grey" data-name="Landbell Group Logo - Dark Grey" xmlns="http://www.w3.org/2000/svg" width="225" height="73.996" viewBox="0 0 225 73.996">
  <g id="LB_Group_RGB" transform="translate(-2.3 -8.599)">
    <g id="Gruppe_350" data-name="Gruppe 350" transform="translate(2.3 8.599)">
      <path id="Pfad_1513" data-name="Pfad 1513" d="M49.358,82.893l8.848,8.848A29.329,29.329,0,0,1,10.493,82.5H2.3A37.016,37.016,0,0,0,63.646,97.247l8.913,8.913V82.893h-23.2Z" transform="translate(-2.3 -34.065)" fill="#404040"/>
      <path id="Pfad_1514" data-name="Pfad 1514" d="M25.7,33.7l-8.913-8.848A29.3,29.3,0,0,1,64.5,34.16h8.193A37.074,37.074,0,0,0,11.348,19.348L2.5,10.5V33.7H25.7Z" transform="translate(-2.369 -8.599)" fill="#404040"/>
      <rect id="Rechteck_707" data-name="Rechteck 707" width="22.874" height="22.874" transform="translate(23.791 25.627)" fill="#404040"/>
      <path id="Pfad_1515" data-name="Pfad 1515" d="M135.9,23.9h4.26V43.628h9.569v3.539H135.9Z" transform="translate(-48.338 -13.872)" fill="#404040"/>
      <path id="Pfad_1516" data-name="Pfad 1516" d="M173.083,50.372l-.262-1.835h-.131a6.3,6.3,0,0,1-4.981,2.228,4.98,4.98,0,0,1-5.309-4.981c0-4.26,3.736-6.357,9.962-6.357v-.262c0-1.114-.459-2.949-3.408-2.949a8.926,8.926,0,0,0-4.522,1.245l-.852-2.753a11.812,11.812,0,0,1,6.1-1.507c5.374,0,6.947,3.408,6.947,7.078v6.1a24.364,24.364,0,0,0,.262,4.063h-3.8Zm-.59-8.258c-3.015-.066-5.9.59-5.9,3.146a2.237,2.237,0,0,0,2.425,2.425,3.5,3.5,0,0,0,3.343-2.294,2.388,2.388,0,0,0,.131-.918Z" transform="translate(-57.47 -17.076)" fill="#404040"/>
      <path id="Pfad_1517" data-name="Pfad 1517" d="M193.531,38.574c0-1.9-.066-3.539-.131-4.981h3.736l.2,2.491h.131a6.065,6.065,0,0,1,5.374-2.884c2.949,0,5.964,1.9,5.964,7.209v9.962h-4.26v-9.5c0-2.425-.918-4.26-3.211-4.26a3.559,3.559,0,0,0-3.343,2.491,4.658,4.658,0,0,0-.2,1.376v9.9h-4.26Z" transform="translate(-68.152 -17.076)" fill="#404040"/>
      <path id="Pfad_1518" data-name="Pfad 1518" d="M241.347,22V41.793c0,1.7.066,3.6.131,4.719h-3.8l-.2-2.687h-.066a6.052,6.052,0,0,1-5.505,3.015c-4,0-7.209-3.408-7.209-8.586-.066-5.636,3.474-8.979,7.537-8.979a5.315,5.315,0,0,1,4.719,2.228h.066V22Zm-4.26,14.681a6.456,6.456,0,0,0-.131-1.114,3.743,3.743,0,0,0-3.67-3.015c-2.753,0-4.26,2.425-4.26,5.571,0,3.08,1.507,5.309,4.195,5.309a3.763,3.763,0,0,0,3.67-3.015,3.83,3.83,0,0,0,.131-1.245V36.681Z" transform="translate(-78.938 -13.217)" fill="#404040"/>
      <path id="Pfad_1519" data-name="Pfad 1519" d="M259.4,46.512c.066-1.114.131-3.015.131-4.719V22h4.26V32.028h.066a6.074,6.074,0,0,1,5.374-2.687c4.129,0,7.013,3.408,7.013,8.52,0,6.03-3.8,9.045-7.6,9.045a5.818,5.818,0,0,1-5.309-2.884h-.066l-.2,2.491Zm4.391-6.947a4.458,4.458,0,0,0,.131.983,3.916,3.916,0,0,0,3.736,2.949c2.687,0,4.26-2.163,4.26-5.505,0-2.949-1.442-5.374-4.26-5.374a3.95,3.95,0,0,0-3.736,3.08,5.771,5.771,0,0,0-.131,1.114Z" transform="translate(-90.896 -13.217)" fill="#404040"/>
      <path id="Pfad_1520" data-name="Pfad 1520" d="M295.529,43.128c.131,3.015,2.491,4.326,5.178,4.326a11.66,11.66,0,0,0,4.653-.786l.59,2.949a15.851,15.851,0,0,1-5.9,1.049c-5.44,0-8.651-3.343-8.651-8.52,0-4.653,2.818-9.045,8.193-9.045,5.44,0,7.275,4.457,7.275,8.193a10.206,10.206,0,0,1-.131,1.77H295.529Zm7.406-3.015c.066-1.573-.655-4.129-3.474-4.129-2.622,0-3.736,2.359-3.932,4.129Z" transform="translate(-101.923 -17.042)" fill="#404040"/>
      <path id="Pfad_1521" data-name="Pfad 1521" d="M322.9,22h4.26V46.512H322.9Z" transform="translate(-112.778 -13.217)" fill="#404040"/>
      <path id="Pfad_1522" data-name="Pfad 1522" d="M339.1,22h4.26V46.512H339.1Z" transform="translate(-118.36 -13.217)" fill="#404040"/>
      <path id="Pfad_1523" data-name="Pfad 1523" d="M153.959,92.015a23.982,23.982,0,0,1-7.472,1.311c-3.932,0-6.882-.983-9.11-3.08a11.607,11.607,0,0,1-3.277-8.586c0-7.341,5.243-12.059,12.977-12.059a15.026,15.026,0,0,1,6.161,1.114l-.918,3.408a12.914,12.914,0,0,0-5.309-.983c-4.981,0-8.455,2.949-8.455,8.324,0,5.309,3.277,8.455,8.061,8.455a8.472,8.472,0,0,0,3.211-.459V83.626H145.7V80.283h8.193V92.015Z" transform="translate(-47.718 -29.62)" fill="#404040"/>
      <path id="Pfad_1524" data-name="Pfad 1524" d="M171.831,85.033c0-2.294-.066-3.932-.131-5.44h3.67L175.5,82.8h.131a5.1,5.1,0,0,1,4.588-3.6,4.459,4.459,0,0,1,.983.131v4a6.032,6.032,0,0,0-1.245-.131,3.76,3.76,0,0,0-3.8,3.211,8.067,8.067,0,0,0-.131,1.311v8.717h-4.26v-11.4Z" transform="translate(-60.675 -32.928)" fill="#404040"/>
      <path id="Pfad_1525" data-name="Pfad 1525" d="M206.706,87.851c0,6.161-4.326,8.913-8.651,8.913-4.784,0-8.455-3.277-8.455-8.651,0-5.505,3.6-8.913,8.717-8.913C203.363,79.2,206.706,82.739,206.706,87.851Zm-12.715.2c0,3.277,1.573,5.7,4.195,5.7,2.425,0,4.129-2.359,4.129-5.768,0-2.622-1.18-5.636-4.064-5.636C195.236,82.346,193.991,85.23,193.991,88.048Z" transform="translate(-66.843 -32.928)" fill="#404040"/>
      <path id="Pfad_1526" data-name="Pfad 1526" d="M237.04,91.6c0,2.032.066,3.67.131,5.047h-3.736l-.2-2.556h-.066a6.1,6.1,0,0,1-5.374,2.949c-3.08,0-5.9-1.835-5.9-7.341V79.8h4.26v9.176c0,2.818.918,4.588,3.146,4.588a3.57,3.57,0,0,0,3.277-2.294,4.238,4.238,0,0,0,.262-1.311V79.8h4.26V91.6Z" transform="translate(-77.973 -33.135)" fill="#404040"/>
      <path id="Pfad_1527" data-name="Pfad 1527" d="M253.031,85.3c0-2.228-.066-4-.131-5.571h3.736l.2,2.622h.066a6.533,6.533,0,0,1,5.768-2.949c3.867,0,7.078,3.343,7.078,8.586,0,6.1-3.8,8.979-7.668,8.979a5.578,5.578,0,0,1-4.719-2.228h-.066v8.717h-4.26V85.3Zm4.195,4.129a7.221,7.221,0,0,0,.131,1.18,3.858,3.858,0,0,0,3.736,2.949c2.687,0,4.26-2.228,4.26-5.571,0-2.949-1.442-5.374-4.195-5.374a3.9,3.9,0,0,0-3.8,3.146,2.969,2.969,0,0,0-.2,1.049v2.622Z" transform="translate(-88.656 -32.997)" fill="#404040"/>
    </g>
  </g>
</svg>
