<?xml version="1.0" encoding="UTF-8"?>
<svg id="Layer_1" data-name="Layer 1" xmlns="http://www.w3.org/2000/svg" xmlns:xlink="http://www.w3.org/1999/xlink" viewBox="0 0 654.34 222.8">
  <defs>
    <style>
      .cls-1, .cls-2, .cls-3 {
        stroke-width: 0px;
      }

      .cls-2 {
        fill: none;
      }

      .cls-4 {
        clip-path: url(#clippath);
      }

      .cls-3 {
        fill: #b4d2c1;
      }
    </style>
    <clipPath id="clippath">
      <rect class="cls-2" width="654.34" height="222.8"/>
    </clipPath>
  </defs>
  <g class="cls-4">
    <g>
      <path class="cls-3" d="M33.37,137.78c19.31,13.52,44.64,20.97,71.3,20.97v-40.64c-34.11,0-99.76-18.11-99.76-38.74s65.65-38.73,99.76-38.73V0c-26.66,0-51.99,7.45-71.3,20.97C12.16,35.82,0,57.11,0,79.38s12.16,43.56,33.37,58.41Z"/>
      <path class="cls-3" d="M175.97,85.03c-19.31-13.52-44.64-20.97-71.3-20.97v40.64c34.11,0,99.76,18.1,99.76,38.73s-65.64,38.73-99.76,38.73v40.64c26.66,0,51.99-7.45,71.3-20.97,21.21-14.85,33.37-36.14,33.37-58.4s-12.16-43.56-33.37-58.41Z"/>
      <path class="cls-1" d="M590.63,118.78c2.92-12.32,11.35-19.78,22.7-19.78s18.8,7.46,21.24,19.78h-43.93ZM614.95,173.73c20.26,0,34.69-11.19,39.07-29.67h-18.64c-2.92,8.59-10.38,13.46-20.26,13.46-14.59,0-23.99-10.21-25.29-25.29h64.52v-4.54c-.49-27.88-16.7-44.9-41.01-44.9s-42.64,17.51-42.64,45.88c0,26.26,18,45.07,44.26,45.07M496.61,118.78c2.92-12.32,11.35-19.78,22.69-19.78s18.8,7.46,21.24,19.78h-43.93ZM520.93,173.73c20.27,0,34.69-11.18,39.07-29.67h-18.64c-2.92,8.59-10.38,13.46-20.26,13.46-14.59,0-23.99-10.21-25.29-25.29h64.52v-4.54c-.49-27.88-16.7-44.9-41.01-44.9s-42.63,17.51-42.63,45.88c0,26.26,17.99,45.07,44.26,45.07M465.17,171.3v-17.02h-46.85l46.2-51.39v-17.51h-65.98v16.86h44.58l-46.04,51.55v17.51h68.09,0ZM380.87,85.39h-19.13v85.91h19.13v-85.91ZM371.31,73.87c7.13,0,12.32-5.51,12.32-12.48s-5.19-12.32-12.32-12.32-12.32,5.35-12.32,12.32,5.35,12.48,12.32,12.48ZM346.67,171.3v-17.51h-57.87V57.83h-19.45v113.48h77.32Z"/>
    </g>
  </g>
</svg>