<svg aria-hidden="true" fill="currentColor" display="block" viewBox="0 0 1557 187.09" width="1557" height="187.09" xmlns="http://www.w3.org/2000/svg"><path d="M0 3.09h55.91v136.37h87.25V184H0ZM157.23 93.67q0-44.29 24.68-69T250.65 0q45.18 0 69.61 24.25t24.43 67.94q0 31.71-10.67 52a76.1 76.1 0 0 1-30.85 31.59q-20.19 11.3-50.3 11.29-30.62 0-50.66-9.74t-32.52-30.86q-12.46-21.09-12.46-52.8Zm55.91.25q0 27.39 10.18 39.37t27.7 12q18 0 27.89-11.73t9.88-42.08q0-25.54-10.31-37.33t-28-11.79q-16.92 0-27.15 12t-10.19 39.56ZM477.39 154.14h-63.46L405.1 184H348L416 3.09h61L545 184h-58.55ZM465.8 115l-20-65-19.76 65ZM563.14 3.09h52.2l68.12 100.09V3.09h52.7V184h-52.7l-67.75-99.33V184h-52.57ZM773.56 3.09h55.9V66.4h61.09V3.09h56.15V184h-56.15v-73.17h-61.09V184h-55.9ZM971.76 93.67q0-44.29 24.68-69T1065.18 0q45.16 0 69.61 24.25t24.43 67.94q0 31.71-10.67 52a76 76 0 0 1-30.86 31.59q-20.18 11.3-50.29 11.29-30.6 0-50.66-9.74t-32.52-30.86q-12.45-21.09-12.46-52.8Zm55.9.25q0 27.39 10.19 39.37t27.7 12q18 0 27.89-11.73t9.88-42.08q0-25.54-10.31-37.33t-28-11.79q-16.9 0-27.15 12t-10.2 39.56ZM1177.26 93.67q0-44.29 24.68-69T1270.68 0q45.16 0 69.61 24.25t24.43 67.94q0 31.71-10.67 52a76.12 76.12 0 0 1-30.86 31.59q-20.18 11.3-50.29 11.29-30.62 0-50.66-9.74t-32.52-30.86q-12.46-21.09-12.46-52.8Zm55.9.25q0 27.39 10.18 39.37t27.71 12q18 0 27.89-11.73t9.88-42.08q0-25.54-10.31-37.33t-28-11.79q-16.92 0-27.15 12t-10.2 39.56ZM1390.52 3.09h83q24.56 0 39.68 6.66a64.6 64.6 0 0 1 25 19.13 79.24 79.24 0 0 1 14.32 29 134.64 134.64 0 0 1 4.48 35.05q0 29-6.6 45a74.65 74.65 0 0 1-18.33 26.79q-11.73 10.78-25.18 14.37-18.39 5-33.32 4.94h-83Zm55.9 41v98.85h13.7q17.52 0 24.93-3.88t11.6-13.58q4.18-9.69 4.2-31.41 0-28.76-9.38-39.37t-31.1-10.61Z"/></svg>