<svg width="86" height="25" fill="none" xmlns="http://www.w3.org/2000/svg"><path d="m.91 12.492.007 11.591 6.829.008 6.826.005V16.787H8.835l-.016-1.902c-.01-1.045-.018-4.48-.018-7.633 0-3.154-.007-5.872-.017-6.04L8.768.905H.905l.004 11.588ZM24.487.512l-.405.038c-.174.015-.514.06-.756.1-2.964.494-5.417 2.118-6.93 4.589-.48.779-.82 1.532-1.13 2.478-.688 2.114-.878 4.833-.508 7.334.774 5.24 4.027 8.69 8.806 9.343.602.083.99.106 1.695.106 1.02 0 1.787-.078 2.663-.28a9.848 9.848 0 0 0 3.969-1.887c.357-.286 1.154-1.083 1.438-1.437 1.551-1.95 2.404-4.383 2.602-7.408.032-.52.017-2.339-.026-2.749-.099-.93-.195-1.515-.382-2.266-.506-2.038-1.415-3.702-2.759-5.043C31.05 1.716 28.815.732 26.173.522a22.25 22.25 0 0 0-1.686-.01Zm1.324 7.332c1.509.263 2.511 1.484 2.815 3.426.055.354.08 1.482.04 1.918-.116 1.287-.501 2.286-1.144 2.974-.655.7-1.653 1.05-2.647.925-1.57-.197-2.613-1.457-2.88-3.477a10.793 10.793 0 0 1-.041-1.75c.106-1.391.503-2.438 1.187-3.146.119-.127.293-.286.385-.355.323-.245.774-.44 1.181-.513.266-.048.833-.05 1.104-.002Z" fill="#000"/><path d="M35.948 12.5v11.608H43.263V8.07l.856.013c.749.01.883.017 1.098.065.582.127.932.306 1.273.648.393.392.61.872.74 1.61.04.246.045.676.05 6.984l.008 6.72 3.564-.006 3.56-.007.008-8.015.005-8.012.881.013c.767.01.909.017 1.12.065 1.148.25 1.753.921 1.991 2.203.043.228.046.615.035 6.998l-.007 6.76h7.396v-7.19c0-4.557-.01-7.321-.025-7.554-.152-2.185-.818-4.014-1.97-5.41a9.372 9.372 0 0 0-.468-.506C62.018 2.075 60.166 1.243 57.88.98c-.615-.07-1.237-.088-3.194-.088H52.73v2.01c0 1.96 0 2.01-.048 2.01-.03 0-.074-.042-.12-.12a6.918 6.918 0 0 0-.652-.906c-1.36-1.586-3.488-2.514-6.546-2.853-1.103-.124-1.817-.139-5.84-.141h-3.576V12.5Z" fill="#000"/><path d="M71.579.852c0 .015.792 1.09 1.762 2.392a210.023 210.023 0 0 1 1.751 2.378c-.005.005-.19.02-.413.038-1.088.076-1.984.24-2.883.53-3.085 1-5.117 3.286-5.748 6.462-.268 1.351-.276 2.982-.025 4.44.322 1.853 1.099 3.396 2.28 4.524 1.42 1.358 3.407 2.175 5.972 2.455.93.101 1.323.11 4.366.094 2.786-.015 6.358-.06 6.424-.081.022-.01.03-1.72.03-8.442V7.21L83.08 4.064A405.987 405.987 0 0 0 81.025.872C80.99.832 80.731.83 76.282.83c-2.929 0-4.703.01-4.703.023Zm5.191 10.473c.924.187 1.688.779 2.124 1.644.144.286.233.549.309.895.075.349.08 1.13.012 1.457-.195.903-.676 1.636-1.364 2.084-.56.361-1.05.505-1.729.505-.688 0-1.24-.166-1.81-.548a3.767 3.767 0 0 1-.802-.802c-.405-.604-.575-1.179-.575-1.935 0-.61.094-1.05.327-1.548.623-1.332 2.053-2.046 3.508-1.752Z" fill="#000"/></svg>