<svg width="107" height="34" fill="none" xmlns="http://www.w3.org/2000/svg"><path d="M29.477 16.738c0 7.036-5.703 12.739-12.739 12.739C9.703 29.477 4 23.774 4 16.738 4 9.703 9.703 4 16.738 4c7.036 0 12.739 5.703 12.739 12.738Z" stroke="#2B33FF" stroke-width="7.304"/><path d="M44.117 27.855h5.118V7.027h-5.118v20.828Zm15.58.476c6.308 0 8.54-3.927 8.54-7.915 0-3.987-2.232-7.914-8.54-7.914-6.308 0-8.51 3.927-8.51 7.914 0 4.017 2.202 7.915 8.51 7.915Zm-3.392-7.915c0-2.975.952-3.927 3.392-3.927s3.392.952 3.392 3.927c0 2.976-.952 3.928-3.392 3.928s-3.392-.952-3.392-3.928Zm21.72 7.915c6.308 0 8.54-3.927 8.54-7.915 0-3.987-2.232-7.914-8.54-7.914-6.308 0-8.51 3.927-8.51 7.914 0 4.017 2.202 7.915 8.51 7.915Zm-3.392-7.915c0-2.975.953-3.927 3.392-3.927 2.44 0 3.392.952 3.392 3.927 0 2.976-.952 3.928-3.392 3.928s-3.392-.952-3.392-3.928Zm24.1-7.914c-2.53 0-4.226.922-5.237 2.5v-2.024h-5.118v20.828h5.118v-8.034c1.011 1.607 2.707 2.56 5.236 2.56 4.88 0 6.814-3.75 6.814-7.886 0-4.284-1.934-7.944-6.814-7.944Zm-1.726 11.842c-2.619 0-3.511-1.28-3.511-3.928 0-2.648.892-3.927 3.51-3.927 2.53 0 3.422 1.16 3.422 3.927 0 2.768-.892 3.928-3.421 3.928Z" fill="#000"/></svg>