<svg xmlns="http://www.w3.org/2000/svg" width="160" height="60" viewBox="0 0 160 60" style="enable-background:new 0 0 160 60" xml:space="preserve"><path d="M50.4 41.2c-1.9-1.2-3.5-2.8-4.5-4.8-3.5 8.8-13.5 13.1-22.3 9.6S10.5 32.5 14 23.7 27.4 10.5 36.2 14c4.3 1.7 7.7 5.1 9.5 9.4 1.1-2 2.6-3.6 4.5-4.8-1-1.9-2.4-3.7-3.9-5.2l2.1-5-3.7-2.7-4.1 3.5c-2.2-1.1-4.6-1.9-7.1-2.3l-1.3-5.3h-4.6l-1.3 5.3c-2.5.4-4.9 1.2-7.1 2.3l-4.1-3.5-3.7 2.7 2.1 5c-1.8 1.8-3.3 3.8-4.4 6.1L3.6 19l-1.4 4.4 4.7 2.8c-.4 2.5-.4 5 0 7.5l-4.7 2.8L3.6 41l5.4-.5c1.1 2.2 2.6 4.3 4.4 6.1l-2.1 5 3.7 2.7 4.1-3.5c2.2 1.1 4.6 1.9 7.1 2.3l1.3 5.3h4.6l1.3-5.3c2.5-.4 4.9-1.2 7.1-2.3l4.1 3.5 3.7-2.7-2.1-5c1.7-1.6 3.1-3.4 4.2-5.4z" style="fill:#004ea8"/><path d="M17.5 21.8h4.3V24c1.1-1.6 2.9-2.5 4.9-2.5 2.6 0 4.2 1.1 5.1 2.9 1.2-1.8 3.2-2.9 5.4-2.9 4.7 0 6.1 3.2 6.1 7.4v9.4h-4.4v-8.9c0-2.2-.5-3.8-2.9-3.8-2.2 0-3.4 1.8-3.4 3.9v8.7h-4.4v-8.8c0-2.2-.5-3.8-2.9-3.8S22 27.5 22 29.7v8.5h-4.5V21.8zM46.7 30c0-4.8 2.9-8.6 7.5-8.6 2-.1 3.9.8 5.2 2.3v-2h4.3v16.5h-4.3v-2c-1.3 1.5-3.2 2.4-5.2 2.3-4.6.1-7.5-3.7-7.5-8.5zm12.5 0c0-2.6-1.7-4.5-3.9-4.5-2.3 0-4.1 1.9-4.1 4.2v.2c0 2.6 1.7 4.5 4.1 4.5s3.9-1.8 3.9-4.4zM67 30c0-4.8 3.9-8.6 8.7-8.6h.1c2.2 0 4.3.7 5.9 2.1L79 26.6c-.9-.8-2-1.2-3.1-1.1-2.5 0-4.5 2.1-4.4 4.6 0 2.5 2.1 4.5 4.6 4.4 1.3 0 2.6-.5 3.6-1.4l2.4 3.3c-1.7 1.4-3.9 2.2-6.2 2.2-4.8.1-8.7-3.7-8.8-8.4-.1-.1-.1-.2-.1-.2zM84.7 16.5h4.4v7.3c1.2-1.6 3.1-2.5 5.1-2.4 4.3 0 5.9 2.7 5.9 7.3v9.5h-4.4v-8.9c0-2.4-.7-3.7-2.9-3.7-2.3 0-3.6 1.9-3.6 4.3v8.4h-4.4V16.5zM103.6 17.1c0-1.5 1.2-2.6 2.6-2.6s2.6 1.2 2.6 2.6c0 1.5-1.2 2.6-2.6 2.6-1.4 0-2.6-1.1-2.6-2.6zm.4 4.7h4.4v16.5H104V21.8zM112.6 21.8h4.4V24c1.2-1.7 3.2-2.6 5.2-2.5 4.4 0 5.9 2.8 5.9 7.3v9.5h-4.4v-9c0-2.4-.6-3.7-2.9-3.7s-3.7 1.8-3.7 4.3v8.3h-4.4l-.1-16.4zM131.6 17.1c0-1.5 1.2-2.6 2.6-2.6s2.6 1.2 2.6 2.6c0 1.5-1.2 2.6-2.6 2.6-1.5 0-2.6-1.1-2.6-2.6zm.4 4.7h4.4v16.5H132V21.8zM139.7 30c-.1-4.9 3.7-8.9 8.6-9.1s8.9 3.7 9.1 8.6-3.7 8.9-8.6 9.1h-.3c-4.8.1-8.7-3.7-8.8-8.5V30zm13.1 0c-.1-2.4-2.1-4.3-4.5-4.2s-4.3 2.1-4.2 4.5c.1 2.3 2 4.2 4.3 4.2 2.4 0 4.3-1.9 4.3-4.3.1-.1.1-.1.1-.2z"/></svg>