<svg width="100" height="48" viewBox="0 0 173 144"
    xmlns="http://www.w3.org/2000/svg" class="navigation-container__svg-icon">
    <path d="M89.842 57.608h22.15a3.35 3.35 0 0 1 3.342 3.338v50.912a3.35 3.35 0 0 0 3.341 3.338h22.15a3.34 3.34 0 0 1 3.342 3.339v22.127a3.35 3.35 0 0 0 3.342 3.338h22.15a3.35 3.35 0 0 0 3.341-3.338v-22.127a3.35 3.35 0 0 0-3.341-3.339h-22.15a3.34 3.34 0 0 1-3.342-3.338V3.338A3.35 3.35 0 0 0 140.825 0h-22.15a3.35 3.35 0 0 0-3.341 3.338v22.127a3.35 3.35 0 0 1-3.342 3.339h-22.15a3.35 3.35 0 0 0-3.342 3.338V54.27v-.005a3.34 3.34 0 0 1-3.342 3.339v.005h-22.15l.005-.005a3.34 3.34 0 0 1-3.341-3.339l-.005.005V32.142a3.35 3.35 0 0 0-3.342-3.338h-22.15a3.35 3.35 0 0 1-3.342-3.339V3.338A3.35 3.35 0 0 0 25.492 0H3.342A3.35 3.35 0 0 0 0 3.338v137.29a3.35 3.35 0 0 0 3.342 3.338h22.15a3.35 3.35 0 0 0 3.341-3.338V60.946a3.35 3.35 0 0 1 3.342-3.338h22.15a3.34 3.34 0 0 1 3.342 3.338v22.127a3.35 3.35 0 0 0 3.342 3.338h22.15a3.35 3.35 0 0 0 3.341-3.338V60.946a3.34 3.34 0 0 1 3.342-3.338" fill="#398684" fill-rule="evenodd"></path>
</svg>