<svg width="212" height="42" fill="none" xmlns="http://www.w3.org/2000/svg"><path d="M67.632 20.556 58.119 9.37h-2.453v23.26h3.53V16.48l8.399 10 8.51-10.37v16.482h3.53V9.37h-2.453l-9.55 11.186Zm30.917-3.482a8.15 8.15 0 0 0-5.388-1.926c-1.486 0-2.936.37-4.199 1.111a9.097 9.097 0 0 0-3.084 12.556c.743 1.26 1.82 2.296 3.047 3.074 1.3.74 2.787 1.111 4.31 1.111a7.863 7.863 0 0 0 5.277-1.926v1.556h3.345V15.518h-3.345v1.556h.037Zm-.111 10.185a5.992 5.992 0 0 1-4.72 2.445c-3.084.037-5.648-2.408-5.685-5.482v-.148c0-3 2.192-5.63 5.537-5.63 1.932 0 3.716.926 4.905 2.445l-.037 6.37Zm25.195-11.74h-4.906l-7.172 6.592V9.371H108.1V32.63h3.455v-8.37l8.51 8.37h4.608l-9.662-9.408 8.622-7.704Zm10.367-.37c-4.868 0-8.361 3.777-8.361 8.925 0 5.148 3.865 8.926 8.882 8.926 3.493 0 5.945-1.556 7.246-3.222L139.5 27.63c-.966 1.11-2.378 2.333-4.942 2.333-2.936 0-5.388-2.26-5.537-5.185h13.229c.037-.26.037-.482.037-.741 0-5.037-3.493-8.889-8.287-8.889Zm-4.682 6.74a5.005 5.005 0 0 1 4.831-3.704c2.192.074 4.05 1.593 4.534 3.704h-9.365Zm35.711.444c-1.709-.444-3.084-.851-3.084-2 0-1.333 1.412-2.148 3.121-2.148a6.285 6.285 0 0 1 3.679 1.334l1.821-2.482a8.672 8.672 0 0 0-5.723-1.889c-3.084 0-6.354 1.667-6.354 5.334 0 2.407 1.858 3.703 3.939 4.407 2.527.852 5.388.963 5.388 2.926 0 1.333-1.486 2.148-3.01 2.148a8.296 8.296 0 0 1-5.091-1.889l-1.783 2.556c1.969 1.592 4.422 2.407 6.949 2.37 3.344 0 6.391-2 6.391-5.26.037-3.518-3.53-4.74-6.243-5.407Zm9.253 10.297h3.456V15.518h-3.456V32.63Zm1.71-24.186c-1.264 0-2.267 1-2.267 2.26v.037c-.037 1.222.966 2.222 2.192 2.259h.075c1.263.037 2.266-.963 2.304-2.222v-.037a2.288 2.288 0 0 0-2.304-2.297c.037 0 .037 0 0 0Zm11.259 2.334h-3.493v15.666c0 1.852.372 3.408 1.375 4.556 1.115 1.222 2.713 2 4.868 2a9.59 9.59 0 0 0 2.713-.37l-.706-3.112a8.278 8.278 0 0 1-1.895.223c-.929 0-1.896-.334-2.379-.926-.446-.519-.52-1.26-.52-2.185v-8h5.5v-3.111h-5.5l.037-4.741ZM212 24.074c0-5.074-3.456-8.926-8.25-8.926-4.868 0-8.361 3.778-8.361 8.926S199.254 33 204.271 33c3.493 0 5.945-1.556 7.246-3.222l-2.267-2.148c-1.003 1.11-2.378 2.333-4.942 2.333-2.936 0-5.388-2.26-5.537-5.185H212a2.244 2.244 0 0 1 0-.704Zm-12.969-2.185a5.005 5.005 0 0 1 4.831-3.704c2.192.074 4.05 1.593 4.533 3.704h-9.364Zm-48.643-4.407v-1.963h-3.344v17.11h3.456V21.297c.929-1.63 2.861-2.889 4.645-2.889h.297v-3.259c-2.49.037-4.236 1.185-5.054 2.334ZM42.14 9.296h-9.29V.037h-4.237v7.482L21.07 0l-7.58 7.556V.037h-4.2v9.26H0v4.221h7.506L0 21l7.47 7.444H0v4.186h9.29v9.259h4.2v-7.445L21.032 42l7.58-7.556v7.482h4.2v-9.26h9.29v-4.222h-7.47L42.103 21l-7.507-7.518h7.544V9.296ZM36.083 21 21.07 36 6.02 20.963 21.033 6l15.05 15Z" fill="#000"/></svg>