<svg xmlns="http://www.w3.org/2000/svg" id="Layer_1" data-name="Layer 1" viewBox="34.93 438.12 1015.95 203.77" width="1015" height="203"><defs><style>.cls-1{fill:#4a9f6d}.cls-2{fill:#76c091}.cls-3{fill:none;stroke:#231f20;stroke-miterlimit:10}</style></defs><path class="cls-3" d="m181.753 500.283-.179-.358M181.999 499.925h-.425"/><path class="cls-2" d="M372.047 641.847H323.26a8.239 8.239 0 0 1-7.361-4.54l-30.196-60.096c-3.05-6.069-11.72-6.048-14.74.036-9.935 20.008-19.87 40.017-29.803 60.026a8.239 8.239 0 0 1-7.38 4.574h-52.189a8.239 8.239 0 0 1-7.36-4.539l-30.205-60.099c-3.05-6.068-11.72-6.047-14.74.036l-29.803 60.028a8.239 8.239 0 0 1-7.379 4.574H43.175c-6.114 0-10.098-6.425-7.38-11.902 30.99-62.418 61.977-124.836 92.966-187.255 3.02-6.084 11.692-6.104 14.74-.035l56.532 112.528c3.049 6.07 11.72 6.049 14.74-.035l55.83-112.457c3.021-6.084 11.693-6.105 14.742-.035l94.064 187.255c2.752 5.478-1.231 11.936-7.362 11.936Z"/><path class="cls-1" d="M335.143 560.899c-1.78 0-3.55-.009-5.33-.009-.075.009-.158.009-.242.009l-54.743-.125a5.896 5.896 0 0 1-5.297-3.318l-26.295-54.036c-1.904-3.925.957-8.499 5.323-8.499h5.555l49.113.008h5.571c1.722 0 3.294.965 4.059 2.503 9.197 18.304 18.386 36.598 27.583 54.901 1.98 3.942-.89 8.574-5.297 8.566ZM80.198 555.111c-3.337-.002-5.513-3.505-4.028-6.494l10.792-21.733 15.091-30.398a4.492 4.492 0 0 1 4.027-2.495h60.432c1.7 0 3.256.96 4.02 2.479l26.22 52.187c1.504 2.993-.672 6.52-4.021 6.518l-112.533-.064ZM263.687 577.23c3.353.009 5.531 3.533 4.04 6.536l-26.567 53.507a8.233 8.233 0 0 1-7.377 4.574h-52.19c-.143.021-3.217.428-5.2-2.009-1.954-2.402-.986-5.282-.931-5.436l27.129-54.808a4.524 4.524 0 0 1 4.067-2.518l57.03.154ZM372.049 641.847H323.26a8.259 8.259 0 0 1-3.63-.842c-1.55-.761-2.614-1.892-3.104-2.65-1.917-2.97.169-7.665.932-9.33 2.735-5.966 12.668-25.834 26.749-53.053 1.712-3.31 6.456-3.285 8.13.046l27.071 53.895a7.501 7.501 0 0 1 1.007 3.577c.041 2.097-.838 3.588-1.275 4.308-.403.664-1.52 2.448-3.807 3.423a7.93 7.93 0 0 1-3.284.626Z"/><path class="cls-2" d="M421.59 586.384c-1.239 0-2.25-.422-3.036-1.266-.788-.842-1.18-1.826-1.18-2.951v-79.274c0-1.236.392-2.248 1.18-3.037.785-.785 1.797-1.18 3.036-1.18h18.385c1.235 0 2.247.395 3.036 1.18.785.789 1.18 1.8 1.18 3.037v5.734c2.248-3.036 5.397-5.706 9.445-8.012 4.049-2.303 8.827-3.513 14.338-3.626 13.042-.337 21.982 4.499 26.817 14.505 2.586-4.272 6.268-7.758 11.048-10.457 4.778-2.7 10.036-4.048 15.77-4.048 5.846 0 11.103 1.323 15.77 3.964 4.665 2.643 8.405 6.691 11.218 12.143 2.809 5.456 4.216 12.51 4.216 21.169v47.902c0 1.125-.395 2.11-1.18 2.951-.789.844-1.8 1.266-3.036 1.266H529.03c-1.238 0-2.277-.422-3.12-1.266-.843-.842-1.265-1.826-1.265-2.951v-46.722c0-3.935-.565-7.055-1.687-9.361-1.126-2.303-2.643-3.964-4.554-4.976-1.914-1.012-4.106-1.517-6.578-1.517-2.024 0-4.022.505-5.988 1.517-1.968 1.012-3.542 2.673-4.722 4.976-1.181 2.306-1.771 5.426-1.771 9.361v46.722c0 1.125-.396 2.11-1.181 2.951-.788.844-1.8 1.266-3.036 1.266h-19.566c-1.238 0-2.25-.422-3.036-1.266-.788-.842-1.18-1.826-1.18-2.951v-46.722c0-3.935-.62-7.055-1.856-9.361-1.238-2.303-2.812-3.964-4.722-4.976-1.913-1.012-3.993-1.517-6.241-1.517-2.137 0-4.19.505-6.157 1.517-1.968 1.012-3.541 2.673-4.722 4.976-1.181 2.306-1.771 5.371-1.771 9.193v46.89c0 1.125-.422 2.11-1.265 2.951-.844.844-1.83 1.266-2.952 1.266h-20.07ZM598.181 588.07c-6.072 0-11.498-1.153-16.276-3.458-4.78-2.303-8.576-5.424-11.385-9.36-2.812-3.936-4.216-8.377-4.216-13.326 0-7.982 3.26-14.308 9.782-18.975 6.52-4.665 15.18-7.843 25.975-9.53l21.083-3.205v-2.361c0-4.047-.843-7.14-2.53-9.276-1.687-2.136-4.78-3.205-9.276-3.205-3.15 0-5.71.619-7.674 1.855-1.97 1.239-3.516 2.925-4.64 5.06-1.011 1.463-2.418 2.193-4.215 2.193h-18.891c-1.24 0-2.193-.364-2.868-1.097-.675-.73-.957-1.602-.843-2.614 0-2.024.759-4.356 2.277-7 1.518-2.64 3.85-5.255 7-7.842 3.146-2.586 7.194-4.724 12.144-6.41 4.946-1.687 10.963-2.53 18.046-2.53 7.196 0 13.38.843 18.555 2.53 5.17 1.686 9.387 4.048 12.65 7.084 3.26 3.036 5.65 6.607 7.168 10.71 1.518 4.106 2.277 8.631 2.277 13.578v51.276c0 1.125-.422 2.11-1.265 2.951-.844.844-1.83 1.266-2.951 1.266H628.54c-1.238 0-2.25-.422-3.036-1.266-.787-.842-1.18-1.826-1.18-2.951v-5.904c-1.462 2.138-3.431 4.107-5.903 5.904-2.475 1.8-5.371 3.234-8.687 4.3-3.318 1.068-7.168 1.603-11.554 1.603Zm7.928-19.228c3.26 0 6.211-.701 8.855-2.109 2.64-1.404 4.722-3.597 6.24-6.577 1.518-2.978 2.278-6.717 2.278-11.218v-2.361l-14.337 2.53c-5.287.901-9.137 2.277-11.554 4.133-2.42 1.855-3.627 4.021-3.627 6.495 0 1.912.562 3.542 1.688 4.89 1.122 1.35 2.614 2.39 4.469 3.12 1.855.733 3.85 1.097 5.988 1.097ZM675.6 586.384c-1.238 0-2.25-.422-3.036-1.266-.788-.842-1.18-1.826-1.18-2.951v-79.274c0-1.236.392-2.248 1.18-3.037.785-.785 1.798-1.18 3.036-1.18h19.397c1.236 0 2.277.395 3.12 1.18.843.789 1.265 1.8 1.265 3.037v6.408c2.809-3.483 6.578-6.408 11.3-8.77 4.723-2.361 10.29-3.542 16.699-3.542 6.52 0 12.284 1.463 17.288 4.385 5.002 2.926 8.94 7.198 11.807 12.819 2.868 5.624 4.3 12.595 4.3 20.915v47.059c0 1.125-.395 2.11-1.18 2.951-.787.844-1.8 1.266-3.036 1.266h-21.252c-1.125 0-2.108-.422-2.952-1.266-.843-.842-1.265-1.826-1.265-2.951V536.12c0-5.284-1.264-9.36-3.795-12.229-2.53-2.867-6.27-4.3-11.216-4.3-4.612 0-8.294 1.433-11.047 4.3-2.758 2.868-4.133 6.945-4.133 12.229v46.047c0 1.125-.422 2.11-1.265 2.951-.843.844-1.829 1.266-2.952 1.266H675.6ZM812.05 588.07c-6.41 0-12.118-1.463-17.12-4.386-5.004-2.921-8.913-7.223-11.723-12.903-2.81-5.676-4.216-12.62-4.216-20.831v-47.057c0-1.236.393-2.248 1.181-3.037.786-.785 1.798-1.18 3.035-1.18h21.084c1.236 0 2.278.395 3.12 1.18.844.789 1.266 1.8 1.266 3.037v46.045c0 11.023 4.891 16.532 14.674 16.532 4.609 0 8.29-1.435 11.048-4.303 2.753-2.866 4.131-6.94 4.131-12.229v-46.045c0-1.236.393-2.248 1.181-3.037.786-.785 1.798-1.18 3.036-1.18h21.084c1.236 0 2.248.395 3.036 1.18.786.789 1.18 1.8 1.18 3.037v79.274c0 1.125-.394 2.11-1.18 2.951-.788.844-1.8 1.266-3.036 1.266h-19.566c-1.125 0-2.108-.422-2.952-1.266-.843-.842-1.264-1.826-1.264-2.951v-6.41c-2.925 4.048-6.72 7.113-11.386 9.193-4.667 2.079-10.203 3.12-16.613 3.12ZM902.118 586.384c-1.126 0-2.109-.422-2.952-1.266-.844-.842-1.265-1.826-1.265-2.951V520.77h-12.819c-1.239 0-2.25-.392-3.036-1.18-.788-.786-1.181-1.798-1.181-3.037v-13.661c0-1.236.393-2.248 1.18-3.037.786-.785 1.798-1.18 3.037-1.18h12.819v-5.397c0-7.646 1.489-13.803 4.469-18.47 2.978-4.665 7.224-8.038 12.734-10.12 5.51-2.08 12.087-3.12 19.734-3.12h13.157c1.236 0 2.248.395 3.036 1.18.785.788 1.18 1.8 1.18 3.036v13.663c0 1.238-.395 2.25-1.18 3.035-.788.788-1.8 1.181-3.036 1.181h-11.807c-3.824 0-6.493.902-8.012 2.7-1.517 1.799-2.277 4.384-2.277 7.758v4.554h20.41c1.235 0 2.247.395 3.035 1.18.786.789 1.18 1.8 1.18 3.037v13.661c0 1.24-.394 2.251-1.18 3.037-.788.788-1.8 1.18-3.036 1.18H925.9v61.396c0 1.125-.395 2.11-1.18 2.951-.788.844-1.8 1.266-3.036 1.266h-19.565ZM979.028 618.43c-1.012 0-1.855-.337-2.53-1.012-.674-.673-1.011-1.518-1.011-2.529 0-.227.026-.535.084-.927.055-.397.194-.818.421-1.266l13.156-31.71-32.384-76.576c-.337-.785-.506-1.46-.506-2.024a5.564 5.564 0 0 1 1.35-2.614c.674-.73 1.517-1.096 2.53-1.096h19.228c1.46 0 2.556.366 3.29 1.096.729.732 1.264 1.547 1.601 2.445l19.228 49.083 19.734-49.083a9.333 9.333 0 0 1 1.772-2.445c.73-.73 1.826-1.096 3.288-1.096h18.891c1.012 0 1.882.366 2.614 1.096.73.732 1.096 1.547 1.096 2.445 0 .565-.167 1.295-.505 2.193l-47.733 110.48c-.337.897-.901 1.712-1.687 2.444-.788.73-1.913 1.097-3.374 1.097h-18.553Z"/></svg>