<svg xmlns="http://www.w3.org/2000/svg" id="Layer_2" data-name="Layer 2" viewBox="0 0 1178.29 379.63" width="1178.29" height="379.63"><defs><filter id="drop-shadow-1" filterUnits="userSpaceOnUse"><feOffset/><feGaussianBlur result="blur" stdDeviation="14"/><feFlood flood-color="#231f20" flood-opacity=".9"/><feComposite in2="blur" operator="in"/><feComposite in="SourceGraphic"/></filter><style>.cls-1,.cls-2{fill:#fff}.cls-2{fill-rule:evenodd}</style></defs><g id="Layer_2-2" data-name="Layer 2"><path d="M925.87 0h4.81v311.95h-4.81zm9.22 0h2.41v311.95h-2.41zm6.42 0h4.81v311.95h-4.81zm149.54 0h4.81v311.95h-4.81zm-40.67 0h2.41v311.95h-2.41zm8.18 0h2.41v311.95h-2.41zm81.68 0h4.81v311.95h-4.81zm-14.55 0h7.22v311.95h-7.22zm-19.86 0h3.61v311.95h-3.61zm11.28 0h2.41v311.95h-2.41zm-52.3 0h4.81v311.95h-4.81zm9.13 0h2.41v311.95h-2.41zm8.4 0h2.41v311.95h-2.41zm-81.91 0h2.41v311.95h-2.41zm29.86 0h4.81v311.95h-4.81zm-16.19 0h4.81v311.95h-4.81zm-34.27 0h2.41v311.95h-2.41zm5.89 0h9.63v311.95h-9.63zm38.35 0h2.41v311.95h-2.41zm14.86 0h2.41v311.95h-2.41zm-84.84 0h4.81v311.95h-4.81zm14.38 0h4.81v311.95h-4.81zM655.18 0h4.81v311.95h-4.81zm9.22 0h2.41v311.95h-2.41zm5.94 0h5.77v311.95h-5.77zm199.49 0h9.63v311.95h-9.63zm-86.06 0h4.81v311.95h-4.81zm10.48 0h6.74v311.95h-6.74zm110.02 0h4.81v311.95h-4.81zm-15.19 0h2.41v311.95h-2.41zm3.97 0h3.61v311.95h-3.61zm-51.26 0h2.41v311.95h-2.41zm-12.93 0h7.22v311.95h-7.22zm83.48 0h2.41v311.95h-2.41zm-51.48 0h2.41v311.95h-2.41zM707.43 0h4.81v311.95h-4.81zm45.7 0h7.22v311.95h-7.22zm-11.38 0h4.81v311.95h-4.81zm34.87 0h2.41v311.95h-2.41zM721.3 0h9.63v311.95h-9.63zm85.98 0h2.41v311.95h-2.41zM692.94 0h4.81v311.95h-4.81zm121.78 0h2.41v311.95h-2.41zM684.6 0h2.41v311.95h-2.41zM400.66 0h4.81v311.95h-4.81zm9.22 0h2.41v311.95h-2.41zm5.94 0h5.77v311.95h-5.77zm170.11 0h7.22v311.95h-7.22zm-159.6 0h2.41v311.95h-2.41zm109.51 0h6.74v311.95h-6.74zm100.49 0h4.81v311.95h-4.81zm-14.55 0H629v311.95h-7.22zm-23.37 0h3.61v311.95h-3.61zm10.68 0h3.61v311.95h-3.61zm-63.46 0h2.41v311.95h-2.41zm12.53 0h4.81v311.95h-4.81zm11.87 0h2.41v311.95h-2.41zm7.79 0h3.61v311.95h-3.61zm-79.21 0h7.22v311.95h-7.22zm-11.38 0h4.81v311.95h-4.81zm-6.42 0h2.41v311.95h-2.41zm-17.34 0h9.63v311.95h-9.63zm50.13 0h2.41v311.95h-2.41zm-75.18 0h4.81v311.95h-4.81zm81.66 0h2.41v311.95h-2.41zm-73.21 0h2.41v311.95h-2.41zM148.02 0h4.81v311.95h-4.81zm9.2 0h2.41v311.95h-2.41zm5.95 0h5.77v311.95h-5.77zm15.98 0h2.41v311.95h-2.41zm93.56 0h4.81v311.95h-4.81zm10.48 0h6.74v311.95h-6.74zm100.49 0h4.81v311.95h-4.81zm-14.55 0h7.22v311.95h-7.22zm-23.37 0h3.61v311.95h-3.61zm10.68 0h3.61v311.95h-3.61zm-63.46 0h2.41v311.95h-2.41zm10.12 0h9.63v311.95h-9.63zm21.47 0h4.81v311.95h-4.81zM200.26 0h4.81v311.95h-4.81zm45.7 0h7.22v311.95h-7.22zm-11.38 0h4.81v311.95h-4.81zm-6.43 0h2.41v311.95h-2.41zm-17.33 0h9.63v311.95h-9.63zm50.13 0h2.41v311.95h-2.41zm-75.18 0h4.81v311.95h-4.81zm150.3 0h2.41v311.95h-2.41zM87.32 0h7.22v311.95h-7.22zm1061.56 0h2.41v311.95h-2.41zm22.19 0h7.22v311.95h-7.22zM26.75 0h4.81v311.95h-4.81zm15.89 0h6.74v311.95h-6.74zm95.08 0h4.81v311.95h-4.81zm-14.55 0h7.22v311.95h-7.22zM99.81 0h3.61v311.95h-3.61zm10.68 0h3.61v311.95h-3.61zM52.82 0h2.41v311.95h-2.41zm11.76.19h4.81v311.95h-4.81zM76.07 0h3.61v311.95h-3.61zM0 0h7.22v311.95H0zm14.99 0h2.41v311.95h-2.41zm6.48 0h2.41v311.95h-2.41zm1142.16 0h2.41v311.95h-2.41zM646.96 0h2.41v311.95h-2.41zm315.52 0h2.41v311.95h-2.41zm-78.36 0h2.41v311.95h-2.41zm-28.41 0h2.41v311.95h-2.41zm-89.63 0h2.41v311.95h-2.41zM36.38 0h2.41v311.95h-2.41zm1118.33 0h3.85v311.95h-3.85z" style="fill:#cccccb"/><path d="M5.35 358.16h265.03v4.81H5.35zm901.76-.85h265.03v4.81H907.11zM338.68 377.1c0 .34-.02.63-.06.89-.04.25-.1.46-.2.63-.09.17-.2.29-.32.37-.12.08-.26.11-.41.11H320.2c-.43 0-.84-.15-1.23-.44-.39-.29-.58-.8-.58-1.53v-32.5c0-.73.19-1.24.58-1.53.38-.29.79-.44 1.23-.44h17.29c.15 0 .29.04.41.11s.22.2.3.37c.07.17.14.38.18.63.05.25.07.57.07.94 0 .34-.02.63-.07.89-.05.25-.11.46-.18.62-.08.16-.17.28-.3.35-.12.08-.26.11-.41.11h-14.25v11.43h12.22c.15 0 .29.04.41.13s.23.2.31.35.15.36.18.62c.04.26.06.57.06.93 0 .34-.02.63-.06.87-.04.24-.1.44-.18.59-.08.15-.19.26-.31.32-.12.07-.26.1-.41.1h-12.22v13.04h14.45c.15 0 .29.04.41.11.12.08.23.19.32.35.09.16.16.37.2.62.04.25.06.57.06.94Zm89.52.25c.24.41.39.74.44.99.05.24-.01.44-.18.58s-.45.23-.83.28c-.38.05-.9.07-1.53.07-.6 0-1.07-.01-1.41-.04-.34-.03-.61-.08-.8-.16-.2-.07-.35-.16-.45-.27-.1-.1-.19-.24-.27-.41l-8.11-14.5-8.2 14.5c-.09.17-.2.31-.31.42s-.27.2-.46.27-.46.11-.8.14c-.34.03-.79.04-1.35.04-.62 0-1.11-.02-1.46-.07-.36-.05-.61-.14-.75-.28s-.19-.33-.14-.58c.05-.24.19-.57.44-.99l9.94-16.76-9.49-16.19c-.23-.41-.37-.75-.44-1s-.02-.45.13-.59c.15-.14.41-.23.79-.27.38-.04.89-.06 1.55-.06.56 0 1.02.01 1.38.04.36.03.64.08.85.14.21.07.36.16.45.28.09.12.2.26.31.41l7.83 13.63 7.77-13.63c.09-.15.19-.29.28-.41.09-.12.23-.22.41-.28.18-.07.43-.11.75-.14.32-.03.75-.04 1.3-.04.58 0 1.06.02 1.42.07s.63.14.79.27c.16.13.22.32.18.58-.04.25-.17.59-.39 1l-9.46 16.08 9.86 16.87Zm87.55-24.02c0 1.82-.3 3.46-.9 4.93-.6 1.46-1.46 2.71-2.58 3.75-1.12 1.03-2.49 1.83-4.11 2.39s-3.56.84-5.82.84h-4.14v13.12c0 .15-.04.28-.13.39s-.22.2-.39.27c-.18.07-.42.12-.73.17-.31.05-.7.07-1.17.07s-.86-.02-1.17-.07c-.31-.05-.56-.1-.75-.17-.19-.07-.32-.15-.39-.27a.639.639 0 0 1-.11-.39v-33.63c0-.75.2-1.29.59-1.61.39-.32.83-.48 1.32-.48h7.8c.79 0 1.54.03 2.27.1.72.07 1.58.21 2.56.42s1.99.62 3.01 1.21 1.89 1.32 2.61 2.18c.71.86 1.26 1.86 1.65 3 .38 1.14.58 2.39.58 3.76Zm-5.1.39c0-1.48-.28-2.72-.83-3.72-.55-.99-1.24-1.74-2.06-2.22-.82-.49-1.66-.8-2.53-.93s-1.72-.2-2.55-.2h-4.48v14.62h4.36c1.46 0 2.68-.19 3.65-.56.97-.38 1.78-.9 2.44-1.56.66-.67 1.15-1.46 1.49-2.39.34-.93.51-1.94.51-3.03Zm95.23 24.64c0 .15-.03.28-.08.39s-.18.21-.37.28c-.19.07-.45.13-.79.17-.34.04-.79.06-1.35.06-.49 0-.89-.02-1.2-.06-.31-.04-.56-.1-.75-.18-.19-.08-.33-.2-.44-.35-.1-.15-.19-.34-.27-.56l-3.35-8.59c-.39-.98-.8-1.87-1.23-2.69s-.93-1.52-1.51-2.11a6.218 6.218 0 0 0-2.06-1.38c-.79-.33-1.74-.49-2.84-.49h-3.24v15.52c0 .15-.04.28-.13.39s-.22.2-.39.27c-.18.07-.42.12-.73.17-.31.05-.7.07-1.17.07s-.86-.02-1.17-.07c-.31-.05-.56-.1-.75-.17-.19-.07-.32-.15-.39-.27a.639.639 0 0 1-.11-.39v-33.74c0-.73.19-1.24.58-1.53.38-.29.79-.44 1.23-.44h7.74c.92 0 1.68.02 2.29.07.61.05 1.16.1 1.65.15 1.41.24 2.65.63 3.73 1.15 1.08.53 1.99 1.19 2.72 2 .73.81 1.28 1.73 1.65 2.77s.55 2.19.55 3.45-.16 2.31-.49 3.28c-.33.97-.8 1.82-1.42 2.56a9.49 9.49 0 0 1-2.23 1.93c-.86.54-1.83 1-2.9 1.38.6.26 1.15.6 1.63 1 .49.4.94.89 1.37 1.45.42.56.82 1.21 1.2 1.94s.75 1.56 1.13 2.48l3.27 8.03c.26.68.43 1.15.51 1.42.07.27.11.48.11.63Zm-7.29-25.6c0-1.43-.32-2.63-.96-3.62-.64-.99-1.71-1.69-3.21-2.13-.47-.13-1-.23-1.59-.28s-1.37-.08-2.32-.08h-4.08v12.28h4.73c1.28 0 2.38-.15 3.31-.46.93-.31 1.7-.74 2.32-1.3.62-.55 1.07-1.21 1.37-1.96.29-.75.44-1.57.44-2.45Zm93.01 24.34c0 .34-.02.63-.06.89-.04.25-.1.46-.2.63-.09.17-.2.29-.32.37-.12.08-.26.11-.41.11h-17.49c-.43 0-.84-.15-1.23-.44-.38-.29-.58-.8-.58-1.53v-32.5c0-.73.19-1.24.58-1.53s.79-.44 1.23-.44h17.29c.15 0 .29.04.41.11.12.08.22.2.29.37s.14.38.18.63.07.57.07.94c0 .34-.02.63-.07.89s-.11.46-.18.62c-.08.16-.17.28-.29.35-.12.08-.26.11-.41.11h-14.25v11.43h12.22c.15 0 .29.04.41.13s.23.2.31.35c.08.15.15.36.18.62.04.26.06.57.06.93 0 .34-.02.63-.06.87-.04.24-.1.44-.18.59-.08.15-.19.26-.31.32-.12.07-.26.1-.41.1h-12.22v13.04h14.45c.15 0 .29.04.41.11.12.08.23.19.32.35.09.16.16.37.2.62.04.25.06.57.06.94Zm85.32-8.23c0 1.71-.32 3.23-.94 4.56a9.795 9.795 0 0 1-2.62 3.39c-1.12.93-2.43 1.63-3.94 2.1-1.51.47-3.14.7-4.89.7-1.22 0-2.35-.1-3.39-.31s-1.97-.46-2.79-.76c-.82-.3-1.5-.61-2.06-.93-.55-.32-.94-.59-1.16-.82-.22-.23-.38-.51-.48-.86-.1-.35-.15-.81-.15-1.39 0-.41.02-.76.06-1.03.04-.27.09-.49.17-.66.08-.17.17-.29.28-.35.11-.07.24-.1.39-.1.26 0 .63.16 1.11.48.48.32 1.09.67 1.84 1.04.75.38 1.66.73 2.72 1.06 1.06.33 2.29.49 3.68.49 1.05 0 2.01-.14 2.89-.42.87-.28 1.62-.68 2.25-1.2.63-.52 1.11-1.15 1.45-1.9s.51-1.61.51-2.56c0-1.03-.24-1.92-.7-2.65a7.085 7.085 0 0 0-1.86-1.93c-.77-.55-1.65-1.06-2.63-1.52l-3.03-1.41c-1.03-.48-2.04-1.01-3.01-1.59-.98-.58-1.85-1.27-2.62-2.06a9.584 9.584 0 0 1-1.87-2.77c-.48-1.06-.72-2.33-.72-3.82s.28-2.88.83-4.07a8.341 8.341 0 0 1 2.31-3c.99-.81 2.16-1.42 3.52-1.84 1.36-.42 2.83-.63 4.41-.63.81 0 1.62.07 2.44.21.82.14 1.59.33 2.31.56.72.23 1.37.5 1.93.79.56.29.93.53 1.11.7.18.18.3.32.35.42.06.1.1.23.14.39.04.16.07.35.08.58.02.23.03.52.03.87 0 .34-.01.64-.04.9s-.07.48-.13.66c-.06.18-.14.31-.24.39s-.22.13-.35.13c-.21 0-.53-.13-.97-.39-.44-.26-.98-.56-1.62-.89-.64-.33-1.39-.63-2.27-.9-.87-.27-1.85-.41-2.94-.41-1.01 0-1.9.14-2.65.41-.75.27-1.37.63-1.86 1.08-.49.45-.85.99-1.1 1.6s-.37 1.28-.37 1.97c0 1.01.23 1.89.7 2.62.47.73 1.09 1.38 1.87 1.94s1.67 1.08 2.66 1.55c1 .47 2.01.94 3.04 1.42 1.03.48 2.05 1 3.04 1.58s1.88 1.25 2.66 2.03c.78.78 1.41 1.7 1.89 2.76.48 1.06.72 2.31.72 3.76Zm84.93 0c0 1.71-.32 3.23-.94 4.56a9.795 9.795 0 0 1-2.62 3.39c-1.12.93-2.43 1.63-3.94 2.1-1.51.47-3.14.7-4.89.7-1.22 0-2.35-.1-3.39-.31s-1.97-.46-2.79-.76c-.82-.3-1.5-.61-2.06-.93-.55-.32-.94-.59-1.16-.82-.22-.23-.38-.51-.48-.86-.1-.35-.15-.81-.15-1.39 0-.41.02-.76.06-1.03.04-.27.09-.49.17-.66.08-.17.17-.29.28-.35.11-.07.24-.1.39-.1.26 0 .63.16 1.11.48.48.32 1.09.67 1.84 1.04.75.38 1.66.73 2.72 1.06 1.06.33 2.29.49 3.68.49 1.05 0 2.01-.14 2.89-.42.87-.28 1.62-.68 2.25-1.2.63-.52 1.11-1.15 1.45-1.9s.51-1.61.51-2.56c0-1.03-.24-1.92-.7-2.65a7.085 7.085 0 0 0-1.86-1.93c-.77-.55-1.65-1.06-2.63-1.52l-3.03-1.41c-1.03-.48-2.04-1.01-3.01-1.59-.98-.58-1.85-1.27-2.62-2.06a9.584 9.584 0 0 1-1.87-2.77c-.48-1.06-.72-2.33-.72-3.82s.28-2.88.83-4.07a8.341 8.341 0 0 1 2.31-3c.99-.81 2.16-1.42 3.52-1.84 1.36-.42 2.83-.63 4.41-.63.81 0 1.62.07 2.44.21.82.14 1.59.33 2.31.56.72.23 1.37.5 1.93.79.56.29.93.53 1.11.7.18.18.3.32.35.42.06.1.1.23.14.39.04.16.07.35.08.58.02.23.03.52.03.87 0 .34-.01.64-.04.9s-.07.48-.13.66c-.06.18-.14.31-.24.39s-.22.13-.35.13c-.21 0-.53-.13-.97-.39-.44-.26-.98-.56-1.62-.89-.64-.33-1.39-.63-2.27-.9-.87-.27-1.85-.41-2.94-.41-1.01 0-1.9.14-2.65.41-.75.27-1.37.63-1.86 1.08-.49.45-.85.99-1.1 1.6s-.37 1.28-.37 1.97c0 1.01.23 1.89.7 2.62.47.73 1.09 1.38 1.87 1.94s1.67 1.08 2.66 1.55c1 .47 2.01.94 3.04 1.42 1.03.48 2.05 1 3.04 1.58s1.88 1.25 2.66 2.03c.78.78 1.41 1.7 1.89 2.76.48 1.06.72 2.31.72 3.76Z" class="cls-1"/><g style="filter:url(#drop-shadow-1)"><g id="hYObb7.tif"><path d="M938.04 106.8c-.8 4.73-1.34 9.53-2.44 14.18-2.41 10.82-7.39 20.73-14.42 28.7l-4.51-5c19.15-23 20.6-57.86-.11-83.15l4.66-4.63c1.34 1.65 2.89 3.31 4.17 5.21 6.85 9.92 10.99 21.81 11.96 34.26.17 1.14.4 2.26.71 3.37l-.02 7.07Zm-115.42-7.09c.78-4.71 1.34-9.53 2.4-14.18 2.45-11 7.54-21.06 14.71-29.12l3.73 5.74c-20.34 24.8-18.63 59.8.5 82.66l-4.79 4.59c-7.67-8.9-12.85-20.09-14.9-32.2-.65-3.43-1.08-6.9-1.6-10.33l-.06-7.17Zm14.99 129.96h-6.03c7.3-18.6 15.66-39.26 22.82-57.45s14.25-36.14 21.36-54.14c-7.86-7.03-10.02-12.4-7.92-19.16 1.82-6.39 7.19-10.71 13.22-10.64 5.7.77 10.44 5.26 12.01 11.39 1.69 6.7-.93 12.67-8.23 18.18l44.05 111.84h-6.17c-2.1-1.49-27.94-15.97-39.37-21.7a7.269 7.269 0 0 0-6.02 0c-11.12 5.48-37.2 19.94-39.73 21.68Zm21.34-43.07c6.97 3.68 13.32 7.09 19.72 10.33.87.48 1.88.56 2.81.23 6.59-3.35 13.04-6.84 20.21-10.58-7.06-5.83-13.56-11.24-20.13-16.53-.87-.45-1.88-.4-2.7.14-6.46 5.33-12.87 10.66-19.91 16.41Zm21.4-61.99c-2.4 6.1-9.41 25.56-9.41 25.56a62.36 62.36 0 0 0 7.79 8.27c1.43 1.22 1.75 1.07 2.96 0 2.94-2.62 8.6-8.27 8.6-8.27s-6.52-16.7-9.96-25.56h.02Zm-26.63 67.53-9.85 25.05 28.5-15.09-18.64-9.96Zm63.05 24.92c-3.56-9.05-6.67-16.9-9.83-24.92l-18.63 9.9 28.46 15.02Zm-36.45-121.3c-3.44-.28-6.43 2.58-6.68 6.39-.03.46-.02.92.03 1.38-.19 4.08 2.63 7.56 6.31 7.78 3.68.22 6.82-2.92 7.01-7 .01-.26.01-.52 0-.78.43-3.76-1.98-7.19-5.37-7.66-.44-.06-.88-.07-1.32-.03l.02-.08Zm-19.56 78.53h2.14c4.25-3.49 7.17-6.2 11.81-10.06l-7.6-6.2-6.35 16.26Zm32.78-16.35-7.45 6.36 12.18 9.98h1.68l-6.41-16.35Z" class="cls-2"/><path d="m850.97 69.21 4.41 4.94c-6.69 8.45-10.58 17.87-10.54 29.18.11 10.78 3.9 21.12 10.6 28.93l-4.32 4.92c-16.24-15.79-16.33-50.88-.15-67.97Zm54.52 4.67 4.08-4.32c14.9 13.89 17.64 48.89 0 67.74l-4.06-4.92c14.03-23.08 14.03-34.01-.02-58.5Z" class="cls-2"/><path d="M861.21 125.4c-10.41-11.41-10.47-31.89 0-44.04l3.91 5.62c-7.77 10.77-7.71 22.11.56 33.6l-4.47 4.81Zm38.18-.23-4.12-5.27c8.01-11.16 8.1-22.5 0-33.72l4.28-4.92c10.23 10.41 10.36 31.64-.17 43.91Z" class="cls-2"/></g><path d="M639.05 75.58h-71.77v22.06h27.4v132.51h26.23V97.64h27.42V75.58h-9.28zm-464.93.09h-37.15l-17.98 109.76h-.5L99.06 75.67H61.91v154.57l23.2-.09.11-109.2h.48l19.34 109.2h25.26l18.07-110.74h.48l-.09 110.74h25.26l.1-154.48zM701 75.54h-38.63v154.5h26.22v-57.99h12.4c11.35 0 20.17-2.53 26.56-7.38 8.38-6.37 12.53-16.77 12.53-30.8v-20.11c.02-24.73-12.86-38.21-39.09-38.21Zm-12.4 22.08H701c8.34 0 12.92 3.52 12.92 14.56v23.21c0 11.04-4.52 14.56-12.92 14.56h-12.4V97.61Zm-421.45 81.81L249.19 75.47H210.8l-21.3 123.4-5.41 31.17h23.99L212.6 202h32.28l4.54 28.04h26.45l-8.73-50.61Zm-38.76-76.56h.48l12.4 78.22h-25.23l12.35-78.22Zm550.1 105.73V76.11H751.7v154.57h70.92V208.6h-44.13zm-411.78 2.78v-23.86c0-13.62-3.08-23.9-11.94-29.91a27.593 27.593 0 0 0-5.54-2.83v-.44c11.68-5.08 17.16-15.23 17.16-31.13v-12.1c.05-4.53-.49-9.03-1.61-13.34-4-14.86-15.76-22.2-37.26-22.2h-39.49v154.45h26.22v-62.83h9.06c11.92 0 17.16 5.29 17.16 19.65v24.29c0 12.58.96 15.02 2.38 19h26.7c-2.62-5.75-2.86-11.27-2.86-18.77Zm-52.45-66.25V97.67h12.64c9.23 0 13.34 4.85 13.34 15.9v15.25c0 12.35-5.96 16.33-15.74 16.33l-10.24-.02Zm123.93-8.22 11.86-22.43 20.62-38.9h-26.23l-17.4 34.39-16.46 32.51h-.46v-66.9h-26.23v154.57h26.23v-47.48l8.1-14.13 25.5 61.61h26.95l-36.49-85.69 4.01-7.55zm592.07-8.65v-14.68c0-24.18-13.34-38-39.11-38s-39.11 13.8-39.11 38v78.61c0 3.32.29 6.63.89 9.87 3.3 18.01 16.22 28.13 38.22 28.13 16.09 0 27.35-5.41 33.53-15.37 3.83-6.56 5.78-14.53 5.54-22.64V172.1h-24.77v21.58c0 10.79-5.24 14.68-13.58 14.68s-13.58-3.89-13.58-14.68v-81.62c0-10.79 5.24-14.91 13.58-14.91s13.58 4.09 13.58 14.91v16.1l24.8.09Zm-521.45-10.12v-20.5h45.29V75.58h-71.51v154.57h71.51v-22.08h-45.29v-45.28h35.99v-22.08h-35.99v-22.57zm604.92-20.01V76.11h-72.09v154.02h72.09v-21.99h-45.38v-45.12h36.68v-21.99h-36.68v-42.9h45.38z" class="cls-1"/></g></g></svg>