<svg data-name="Layer 1" xmlns="http://www.w3.org/2000/svg" viewBox="0 0 3646.77 459" width="3646.77" height="459"><path d="M223.2 450 52.8 78 24 319.2a304.31 304.31 0 0 0-1.8 32.4 195.08 195.08 0 0 0 3.9 40.2q3.9 18.6 9.6 29.1a112.07 112.07 0 0 0 10.8 16.8c3.39 4.2 6.5 6.7 9.3 7.5a1.92 1.92 0 0 1 1.8 1.2 5.49 5.49 0 0 1 .6 2.4v1.2H0L49.2 30h46.2L255 379.8 415.2 30h34.2l49.8 420h-56.4L399.6 87 234 450ZM906.6 145.2q46.8 0 75.3 22.2t28.5 54q0 37.8-41.1 72.3t-121.5 52.5q57.6-23.4 84.9-55.5t27.3-65.1q0-29.39-19.2-49.5T893.4 156q-39.6 0-60 29.1T813 259.2q0 66 37.8 123.3t94.8 57.3a104.34 104.34 0 0 0 49.2-12.3q23.4-12.28 37.8-29.4a204.33 204.33 0 0 0 23.1-33q8.68-15.89 9.9-25.5-4.81 45.6-47.1 82.5T919.8 459q-75.6 0-116.7-46.2T762 301.2q0-75 42.9-115.5t101.7-40.5ZM1305 450V150h51.6v300Zm225.6-53.4v-60q-.6-71.4-4.8-95.4-14.4-87-84.6-87-56.4 0-79.2 25.8 12-18 35.7-27a136.64 136.64 0 0 1 48.9-9 194.8 194.8 0 0 1 40.5 3.9 169.4 169.4 0 0 1 31.5 9.6 71.69 71.69 0 0 1 23.7 16.8 219.64 219.64 0 0 1 17.1 20.1q6.6 9 11.1 25.2t6.9 26.4q2.38 10.22 3.6 29.4t1.2 28.5v90.9q0 45 24 45 16.79 0 36-19.2a62.61 62.61 0 0 1-25.2 24.3 70.24 70.24 0 0 1-33.6 8.7q-22.2 0-37.5-14.4t-15.31-42.6ZM1995 152.4q-40.21 0-61.5 35.4t-21.3 87.6q0 64.8 30 116.7t78.6 51.9q55.18 0 76.8-39-21.6 54-97.8 54-36.61 0-65.1-13.5t-45.3-36.3a165.69 165.69 0 0 1-25.2-50.1 195.49 195.49 0 0 1-8.4-57.9q0-65.38 36.6-111.6t107.4-46.2q71.39 0 105.6 44.4V0h51.6v450h-51.6V281.4q-9-54-38.4-91.5t-72-37.5ZM2567.38 152.4q-40.2 0-61.5 35.4t-21.3 87.6q0 64.8 30 116.7t78.6 51.9q55.2 0 76.8-39-21.6 54-97.8 54-36.6 0-65.1-13.5t-45.3-36.3a166.15 166.15 0 0 1-25.2-50.1 195.49 195.49 0 0 1-8.4-57.9q0-65.38 36.6-111.6t107.4-46.2q71.4 0 105.6 44.4V0h51.6v450h-51.6V281.4q-9-54-38.4-91.5t-72-37.5ZM3023.37 121.8q21-10.8 21-25.8 0-9.59-9.6-15t-22.2-1.8q-1.8-18 8.1-27.9a33 33 0 0 1 24.3-9.9q13.8 0 22.5 8.4a28 28 0 0 1 8.7 21q0 15.61-13.2 29.7t-39.6 21.3Zm-4.2 28.2h51.6v300h-51.6ZM3487.77 145.2q46.8 0 75.3 22.2t28.5 54q0 37.8-41.1 72.3T3429 346.2q57.6-23.4 84.9-55.5t27.3-65.1q0-29.39-19.2-49.5t-47.4-20.1q-39.6 0-60 29.1t-20.4 74.1q0 66 37.8 123.3t94.8 57.3a104.34 104.34 0 0 0 49.2-12.3q23.4-12.28 37.8-29.4a204.33 204.33 0 0 0 23.1-33q8.68-15.89 9.9-25.5-4.82 45.6-47.1 82.5T3501 459q-75.6 0-116.7-46.2t-41.1-111.6q0-75 42.9-115.5t101.67-40.5Z"/></svg>