<svg width="164" height="50" xmlns="http://www.w3.org/2000/svg"><path d="M45.102 0h-9.957c-.753 0-1.453.43-1.776 1.076l-9.957 19.645-9.903-19.59A1.952 1.952 0 0 0 11.733 0H1.83C.807 0 0 .807 0 1.83v46.34C0 49.193.807 50 1.83 50h11.41c1.023 0 1.83-.807 1.83-1.83V33.315l3.445 6.782c.322.592.915.969 1.614.969h6.674c.7 0 1.292-.377 1.615-.97l3.444-6.78V48.17c0 1.023.808 1.83 1.83 1.83h11.41c1.023 0 1.83-.807 1.83-1.83V1.83C46.878.807 46.071 0 45.102 0ZM7.59 39.935l5.813-7.696v14.693l-5.813-6.997Zm1.937-23.089 3.391 11.356L2.26 21.744l7.266-4.898Zm0-3.444L2.368 1.614h8.934L9.527 13.402Zm-.592 1.99-7.32 4.899V3.445l7.32 11.948ZM2.153 23.52l10.926 6.62-6.19 8.18-4.736-14.8Zm3.552 16.146-4.09 2.96V26.912l4.09 12.755ZM14.64 28.58l-3.39-11.41 10.764 5.544-7.374 5.866Zm23.736 3.606-4.844-2.69 2.368-10.927 8.88-1.076-6.404 14.693Zm-2.368-15.178-.485-13.562 9.15 12.486-8.665 1.077Zm-3.822 11.518-7.212-5.759 9.257-3.66-2.045 9.42Zm1.292 2.745 4.306 2.368-4.306 11.733v-14.1Zm5.328 4.09 5.705 12.971H34.015l4.79-12.97Zm1.238-1.076 5.22.915v10.926l-5.22-11.84Zm5.22-.646-5.435-.968 5.436-12.326v13.294Zm0-31.808V14.1L36.169 1.615h8.934c.054 0 .162.107.162.215ZM33.962 3.552l.485 13.832-9.365 3.714 8.88-17.546Zm-12.379 17.17-10.764-5.544 1.83-12.11 8.934 17.653ZM1.615 48.17v-3.66l4.844-3.498 6.081 7.32H1.776c-.054 0-.161-.054-.161-.162ZM15.23 30.086l6.89-5.49-2.907 13.348-3.983-7.858Zm11.734 9.257c-.054.054-.108.108-.162.108h-6.297l3.39-15.554 7.75 6.19-4.681 9.256ZM74.004 32.777V22.228l-.107-.054-3.983 8.343h-1.776l-3.983-8.343-.108.054v10.55h-2.422v-15.07h2.853l4.575 9.58 4.52-9.58h2.853v15.07h-2.422ZM85.307 33.1c-1.023 0-1.992-.215-2.799-.646a4.92 4.92 0 0 1-1.991-1.937c-.485-.861-.754-1.938-.754-3.23 0-1.184.215-2.206.646-3.121a4.94 4.94 0 0 1 1.884-2.045c.807-.485 1.722-.7 2.798-.7 1.077 0 1.992.215 2.692.7.753.484 1.291 1.076 1.668 1.883.377.808.538 1.669.538 2.584 0 .592-.054 1.076-.107 1.4h-7.697v.107c.27 2.099 1.4 3.121 3.39 3.121a5.615 5.615 0 0 0 3.338-1.076l.969 1.56c-1.184.862-2.745 1.4-4.575 1.4Zm-.108-9.903c-.861 0-1.507.27-2.045.807-.538.538-.807 1.292-.915 2.315v.107h5.597v-.054c-.053-.968-.269-1.722-.7-2.26-.484-.646-1.076-.915-1.937-.915ZM96.77 33.1c-1.883 0-2.744-.861-2.744-2.691v-6.674H92.25V21.69h1.776v-1.507l1.13-1.4h1.292v2.907h2.745v2.045h-2.745v6.136c0 .7.323 1.076.969 1.076.43 0 .915-.107 1.453-.269l.592 1.722c-.861.431-1.722.7-2.691.7ZM120.183 33.1c-1.292 0-2.368-.484-3.122-1.453v-.054h-.161l-.431 1.184h-1.56v-15.93h2.421v6.027h.162c.377-.484.861-.807 1.399-1.076.538-.27 1.131-.377 1.776-.377.915 0 1.669.215 2.369.646.699.43 1.237 1.076 1.614 1.937s.592 1.884.592 3.068c0 1.238-.215 2.314-.646 3.23-.43.914-1.022 1.614-1.776 2.098-.753.431-1.614.7-2.637.7Zm-.161-9.58c-1.023 0-1.884.484-2.692 1.507v4.79c.592.807 1.454 1.184 2.53 1.184.861 0 1.615-.377 2.153-1.076.538-.7.807-1.669.807-2.853 0-1.13-.269-1.991-.753-2.637a2.695 2.695 0 0 0-2.045-.915ZM133.369 33.1c-.969 0-1.937-.215-2.745-.646-.861-.43-1.507-1.076-2.045-1.937-.484-.861-.753-1.992-.753-3.283 0-1.292.269-2.369.753-3.284a4.738 4.738 0 0 1 2.045-1.937 6.056 6.056 0 0 1 2.745-.646c.969 0 1.938.215 2.745.646.861.43 1.507 1.076 2.045 1.938.485.86.754 1.99.754 3.283 0 1.291-.269 2.368-.754 3.283a4.734 4.734 0 0 1-2.045 1.937c-.807.43-1.776.646-2.745.646Zm0-9.58c-.969 0-1.722.323-2.26.969-.538.646-.808 1.56-.808 2.745 0 1.184.27 2.099.808 2.744.538.646 1.345.97 2.26.97.969 0 1.722-.324 2.261-.97.538-.645.807-1.56.807-2.744 0-1.185-.269-2.1-.807-2.745-.539-.646-1.292-.97-2.261-.97ZM144.51 16.846h-2.422v15.931h2.422v-15.93ZM148.439 32.777V21.69h2.422v11.033h-2.422v.054Zm1.184-12.756c-.43 0-.753-.107-1.076-.322-.269-.216-.431-.592-.431-1.023 0-.484.162-.807.431-1.023a1.733 1.733 0 0 1 1.076-.376c.431 0 .808.107 1.077.376.269.216.43.592.43 1.023 0 .43-.161.807-.43 1.023-.269.161-.646.322-1.077.322ZM159.634 33.1c-1.076 0-1.991-.215-2.853-.7a4.866 4.866 0 0 1-1.991-2.045c-.484-.915-.753-1.937-.753-3.175 0-1.184.269-2.26.753-3.122.484-.861 1.184-1.56 1.991-1.991.808-.43 1.777-.7 2.799-.7.754 0 1.507.108 2.153.323a4.922 4.922 0 0 1 1.722.969l-.968 1.668c-.377-.269-.808-.538-1.185-.646-.43-.161-.914-.215-1.453-.215-.968 0-1.776.323-2.422.969-.592.646-.915 1.56-.915 2.745 0 1.184.323 2.099.915 2.799.646.7 1.454 1.022 2.422 1.022 1.023 0 1.938-.323 2.799-1.023l1.076 1.561a6.209 6.209 0 0 1-1.722 1.077 5.824 5.824 0 0 1-2.368.484ZM105.059 33.154c-1.022 0-1.937-.27-2.637-.861-.7-.592-1.076-1.4-1.076-2.422 0-1.184.484-2.153 1.237-2.691.862-.592 1.938-.861 3.176-.861.807 0 1.615.107 2.476.269h.107v-1.023c0-1.453-.807-2.207-2.475-2.207-1.023 0-2.046.323-3.014 1.023l-.915-1.507c.592-.484 1.237-.807 1.937-1.076.754-.27 1.561-.377 2.368-.377 1.507 0 2.638.377 3.391 1.023.754.7 1.13 1.722 1.13 3.014v4.79c0 .753.431.915.754.915h.484l-.161 1.56c-.269.216-.7.323-1.292.323-1.076 0-1.668-.484-1.884-1.453l-.054-.161-.107.107c-.861 1.077-1.992 1.615-3.445 1.615Zm1.023-5.328c-.7 0-1.292.161-1.722.43-.485.323-.7 1.023-.7 1.507 0 .538.215.969.592 1.238.377.27.807.377 1.345.377.592 0 1.131-.162 1.615-.43.484-.27.915-.647 1.184-1.131v-1.669h-.054c-.269-.053-.646-.16-1.076-.215-.377-.107-.807-.107-1.184-.107Z" fill="#B52451"/></svg>