<svg class="metycle-logo" xmlns="http://www.w3.org/2000/svg" width="136" height="45" fill="none"><path d="M36.988 36.375a17.833 17.833 0 0 1-11.322 4.033c-9.89 0-17.908-8.018-17.908-17.908S15.776 4.592 25.666 4.592 43.574 12.61 43.574 22.5c0 2.255-.417 4.413-1.178 6.401H47.2c.603-2.029.926-4.177.926-6.401C48.126 10.096 38.07.04 25.666.04 13.262.04 3.207 10.097 3.207 22.5c0 12.404 10.055 22.46 22.46 22.46 5.615 0 10.75-2.062 14.688-5.47l.256-.226-3.623-2.889Z" fill="#255659"/><path d="m44.245 31.534-1.212 9.084a.314.314 0 0 1-.365.267l-7.398-5.652a.313.313 0 0 1 .072-.537l8.474-3.492a.312.312 0 0 1 .429.33Z" fill="#70F3DC"/><path d="M38.34 20.799v8.095h-4.457v-6.88c0-2.074-.835-2.998-2.707-2.998-1.632 0-3.28 1.135-3.28 3.672v6.206H23.44v-6.88c0-1.02-.207-1.754-.633-2.242-.444-.509-1.13-.756-2.098-.756-1.621 0-3.256 1.135-3.256 3.672v6.206h-4.457V15.348h4.458l-.041 3.347c.384-1.038.95-1.867 1.688-2.47.931-.76 2.122-1.147 3.539-1.147 1.538 0 2.756.377 3.62 1.119.744.641 1.245 1.572 1.491 2.772.354-1.133.969-2.072 1.794-2.734.957-.768 2.156-1.157 3.563-1.157 1.798 0 3.15.521 4.021 1.55.804.949 1.211 2.352 1.211 4.17ZM62.41 23.954c-.37 0-.718.216-.91.565-.4.728-1.474 1.081-3.283 1.081-2.364 0-3.601-.86-3.884-2.702h10.275c.57 0 1.035-.484 1.035-1.079v-.134c0-2.237-.627-3.96-1.863-5.121-1.282-1.204-3.234-1.814-5.802-1.814-5.113 0-8.166 2.683-8.166 7.178 0 1.932.617 3.571 1.784 4.741 1.435 1.438 3.662 2.167 6.62 2.167 2.471 0 4.368-.47 5.637-1.394a4.286 4.286 0 0 0 1.319-1.522c.281-.553.44-1.177.471-1.855l.005-.111H62.41Zm-7.966-3.894c.396-1.414 1.546-2.074 3.603-2.074 2.083 0 3.216.716 3.288 2.074h-6.891Zm7 .107v.034-.034ZM73.13 19.338v4.153c0 .37.287.672.638.672h4.524v4.613h-5.623c-2.195 0-3.981-1.866-3.981-4.161v-4.092h-.014v-1.185c0-.359-.277-.65-.617-.65h-1.553V15.02h1.918c.517 0 .705-.25.8-1.067l.226-1.956h3.683v2.372c0 .36.276.65.617.65h4.544v3.668h-4.544c-.34 0-.617.292-.617.651ZM96.464 14.784l-6.873 15.79c-.798 1.833-2.559 3.018-4.486 3.018h-4.6V28.98h4.494c.157 0 .296-.08.382-.218a.502.502 0 0 0 .024-.49L78.82 14.783h5.102l4.337 9.008c.004.009.01.008.014 0l3.81-9.008h4.38ZM110.464 22.82v.106c0 1.675-.598 3.094-1.729 4.105-1.34 1.197-3.377 1.805-6.055 1.805-1.346 0-2.557-.206-3.6-.613a6.611 6.611 0 0 1-2.433-1.61c-1.16-1.228-1.8-2.93-1.8-4.793 0-.974.17-1.893.505-2.733a6.331 6.331 0 0 1 1.513-2.253c1.427-1.364 3.511-2.084 6.029-2.084 2.376 0 4.235.52 5.528 1.548 1.122.891 1.799 2.175 1.957 3.713a.774.774 0 0 1-.192.598.705.705 0 0 1-.527.237h-3.222l-.002-.104a2.049 2.049 0 0 0-.777-1.59c-.601-.487-1.491-.735-2.646-.735-2.357 0-3.708 1.23-3.708 3.376 0 2.176 1.283 3.375 3.613 3.375 1.954 0 3.196-.633 3.498-1.782a.737.737 0 0 1 .701-.566h3.347ZM115.817 9.46h-4.458v19.106h4.458V9.459ZM129.242 23.954c-.37 0-.718.216-.91.565-.4.727-1.474 1.081-3.283 1.081-2.364 0-3.601-.86-3.884-2.702h10.275c.571 0 1.035-.484 1.035-1.08v-.133c0-2.238-.627-3.96-1.863-5.121-1.282-1.204-3.234-1.814-5.802-1.814-5.113 0-8.165 2.683-8.165 7.178 0 1.932.616 3.571 1.783 4.74 1.435 1.439 3.662 2.168 6.621 2.168 2.47 0 4.367-.47 5.636-1.394a4.28 4.28 0 0 0 1.319-1.523c.281-.552.44-1.176.471-1.854l.005-.111h-3.238Zm-7.966-3.894c.396-1.414 1.546-2.075 3.603-2.075 2.083 0 3.216.717 3.288 2.075h-6.891Zm7.001.107v.033-.034Z" fill="#255659"/></svg>