<?xml version="1.0" encoding="UTF-8"?>
<!-- Generator: Adobe Illustrator 26.0.2, SVG Export Plug-In . SVG Version: 6.00 Build 0)  -->
<svg version="1.1" id="Layer_1" xmlns="http://www.w3.org/2000/svg" xmlns:xlink="http://www.w3.org/1999/xlink" x="0px" y="0px" viewBox="0 0 277 139" style="enable-background:new 0 0 277 139;" xml:space="preserve">
<g id="Layer_2_00000121268803842162554770000006480932079337025726_">
	<g id="Layer_2_copy_6">
		<path d="M106,62.6c0-15,11-26,26.3-26s26.3,11,26.3,26s-11,26-26.3,26S106,77.6,106,62.6z M145.9,62.6c0-9-5.5-15.1-13.6-15.1    s-13.6,6.1-13.6,15.1s5.4,15.1,13.6,15.1C140.5,77.7,145.9,71.6,145.9,62.6z"/>
		<path d="M168.1,17h12.6v70.8h-12.6V17z"/>
		<path d="M19,37.4v50.4h12.6V37.4H19z M78.5,36.6c-2.9,0-5.8,0.6-8.4,1.8v10c1.4-0.7,3-1.1,4.6-1.1c5.9,0,9.2,3.8,9.2,9.8v30.7    h12.6V53.6C96.5,43.7,89.4,36.6,78.5,36.6z M61.8,46.1L61.8,46.1c-2.3-6.1-7.7-9.5-15.7-9.5c-2.9-0.1-5.8,0.7-8.4,2.1v9.7    c1.4-0.7,3-1.1,4.6-1.1c5.8,0,9,3.8,9,9.8v30.7H64v-7.2l0,0C64,59.5,63.8,51,61.8,46.1z"/>
		<path d="M250.4,47.5c-4.6-6.7-12.4-10.9-21.8-10.9c-0.3,0-0.6,0-0.9,0c-14.8,0.4-25.4,11.3-25.4,26c0,0.3,0,6.4,0,9H215    c0-2.9,0-8.8,0-9c0-9,5.4-15.1,13.6-15.1s13.6,6.1,13.6,15.1s-5.4,15-13.5,15.1h-0.1c-2.7,0.1-5.4,0.4-8.1,0.9    c-1.6,0.2-3,0.2-3.9-0.5c-0.1-0.1-0.3-0.2-0.4-0.4h-8.8c-1.4,0-2.9,0.1-4.3,0.3c0.7,2.6,2.2,4.9,4.3,6.5    c4.7,3.6,12.2,4.1,21.1,4.1c0,0,0.1,0,0.1,0c1.4,0,2.8-0.1,4.2-0.3h0.2l1-0.2c12.4-2.3,20.8-12.4,20.8-25.5    C254.9,57.2,253.4,52,250.4,47.5z M216.2,77.7h-7.9c2.9,0,5.7,0.1,8.3,0.4C216.4,77.9,216.3,77.8,216.2,77.7z"/>
		<path d="M203.1,78l-1.2,0.3c-0.4,0.1-0.9,0.2-1.3,0.3l-0.2,0c-11.5,2.8-19.3,12.5-19.3,25.1c0,15,11,26,26.3,26s26.3-11,26.3-26    c0-0.2,0-6.7,0-9H221c0,2.1,0,8.8,0,9c0,9-5.5,15.1-13.6,15.1s-13.6-6.1-13.6-15.1s5.4-15.1,13.6-15.1l0,0c5,0,9-1.2,11.4,0h9.8    c0,0,0.1,0,0.1,0c1.4,0,2.8-0.1,4.2-0.3c-0.7-2.5-2.1-4.7-4.2-6.3c-2.4-1.8-5.2-2.9-8.2-3.3c-1.2-0.2-2.5-0.4-3.9-0.5    c-2.6-0.2-5.3-0.3-8.3-0.3h-0.9"/>
		<path d="M228.6,77.7v10.9c0,0-0.1,0-0.1,0h-21.1V77.7H228.6z"/>
		<rect x="227.6" y="36.6" width="27.2" height="10.9"/>
	</g>
</g>
</svg>