<svg xmlns="http://www.w3.org/2000/svg" width="277" height="139" style="enable-background:new 0 0 277 139" xml:space="preserve"><path d="M106 62.6c0-15 11-26 26.3-26s26.3 11 26.3 26-11 26-26.3 26-26.3-11-26.3-26zm39.9 0c0-9-5.5-15.1-13.6-15.1s-13.6 6.1-13.6 15.1 5.4 15.1 13.6 15.1 13.6-6.1 13.6-15.1zM168.1 17h12.6v70.8h-12.6V17zM19 37.4v50.4h12.6V37.4H19zm59.5-.8c-2.9 0-5.8.6-8.4 1.8v10c1.4-.7 3-1.1 4.6-1.1 5.9 0 9.2 3.8 9.2 9.8v30.7h12.6V53.6c0-9.9-7.1-17-18-17zm-16.7 9.5c-2.3-6.1-7.7-9.5-15.7-9.5-2.9-.1-5.8.7-8.4 2.1v9.7c1.4-.7 3-1.1 4.6-1.1 5.8 0 9 3.8 9 9.8v30.7H64v-7.2c0-21.1-.2-29.6-2.2-34.5zM250.4 47.5c-4.6-6.7-12.4-10.9-21.8-10.9h-.9c-14.8.4-25.4 11.3-25.4 26v9H215v-9c0-9 5.4-15.1 13.6-15.1s13.6 6.1 13.6 15.1-5.4 15-13.5 15.1h-.1c-2.7.1-5.4.4-8.1.9-1.6.2-3 .2-3.9-.5-.1-.1-.3-.2-.4-.4h-8.8c-1.4 0-2.9.1-4.3.3.7 2.6 2.2 4.9 4.3 6.5 4.7 3.6 12.2 4.1 21.1 4.1h.1c1.4 0 2.8-.1 4.2-.3h.2l1-.2c12.4-2.3 20.8-12.4 20.8-25.5.1-5.4-1.4-10.6-4.4-15.1zm-34.2 30.2h-7.9c2.9 0 5.7.1 8.3.4l-.4-.4z"/><path d="m203.1 78-1.2.3c-.4.1-.9.2-1.3.3h-.2c-11.5 2.8-19.3 12.5-19.3 25.1 0 15 11 26 26.3 26s26.3-11 26.3-26v-9H221v9c0 9-5.5 15.1-13.6 15.1s-13.6-6.1-13.6-15.1 5.4-15.1 13.6-15.1c5 0 9-1.2 11.4 0h9.9c1.4 0 2.8-.1 4.2-.3-.7-2.5-2.1-4.7-4.2-6.3-2.4-1.8-5.2-2.9-8.2-3.3-1.2-.2-2.5-.4-3.9-.5-2.6-.2-5.3-.3-8.3-.3h-.9"/><path d="M228.6 77.7v10.9H207.4V77.7h21.2zM227.6 36.6h27.2v10.9h-27.2z"/></svg>