<svg id="Layer_2" data-name="Layer 2" xmlns="http://www.w3.org/2000/svg" viewBox="0 0 345.65 220.34" width="345.65" height="220.34"><defs><style>.cls-1{stroke-width:0}</style></defs><g id="Layer_1-2" data-name="Layer 1"><path class="cls-1" d="M88.76 148.01c0-29.59.32-66.43.84-86.39h-.26c-4 30.21-13.63 62.07-21.17 112.49H42.83c-5.62-45.23-15.34-80.65-19.31-112.49H23c.52 20.3 1.33 59.69 1.33 89.63v22.86H0V0h40c6.77 44.25 13.76 93.86 16.1 118.25h.26C59.2 93.55 68.63 41.75 75.6 0h38.66v174.11H88.75v-26.1ZM156.05 0v132.43c0 12.72 4.16 19.95 14.55 19.95s14.09-8.13 14.09-19.92V0h26.88v131.91c0 27.47-12.42 44.74-41.47 44.74s-40.91-14.97-40.91-44.64V0h26.85ZM226.52 0h37.25c36.94 0 45.92 19.14 45.92 51.45v66.76c0 26.62-4.57 55.89-45.97 55.89h-37.19V0Zm26.85 151.25h8.61c17.65 0 20.36-11.36 20.36-29.39V49.34c0-16.01-2.82-26.25-20.52-26.25h-8.44v128.16ZM0 216.56l3.49-3.89c1.44 1.58 2.84 2.52 4.61 2.52 2.09 0 3.38-1.26 3.38-4.18v-16.23h5.69v16.49c0 2.99-.86 5.22-2.38 6.73-1.55 1.55-3.82 2.34-6.55 2.34-3.92 0-6.52-1.73-8.24-3.78ZM77.58 194.78h19.01v4.93h-13.5v5.11h11.88v4.93H83.09v5.29h13.68v4.93H77.58v-25.2ZM165.09 194.6h5.11l10.8 25.38h-5.8l-2.3-5.65h-10.65l-2.3 5.65h-5.65l10.8-25.38Zm5.84 14.83-3.35-8.17-3.35 8.17h6.69ZM239.65 194.78h5.11l11.81 15.51v-15.51h5.47v25.2h-4.72l-12.2-16.02v16.02h-5.47v-25.2ZM321.45 216.31l3.28-3.92c2.27 1.87 4.64 3.06 7.52 3.06 2.27 0 3.64-.9 3.64-2.38V213c0-1.4-.86-2.12-5.08-3.2-5.08-1.3-8.35-2.7-8.35-7.7v-.07c0-4.57 3.67-7.59 8.82-7.59 3.67 0 6.8 1.15 9.36 3.2l-2.88 4.18c-2.23-1.55-4.43-2.48-6.55-2.48s-3.24.97-3.24 2.2v.07c0 1.66 1.08 2.2 5.44 3.31 5.11 1.33 7.99 3.17 7.99 7.56v.07c0 5-3.82 7.81-9.25 7.81-3.82 0-7.67-1.33-10.69-4.03ZM345.65 158.4c-.75-7.15-6.79-12.73-14.14-12.73s-13.39 5.58-14.14 12.73h28.28ZM345.65 161.38h-28.28c.75 7.15 6.79 12.73 14.14 12.73s13.39-5.58 14.14-12.73Z"/></g></svg>