<svg version="1.1" id="Livello_1" xmlns="http://www.w3.org/2000/svg" x="0" y="0" viewBox="0 0 149.17 32.02" width="149.17" height="32.02" style="enable-background:new 0 0 149.17 32.02" xml:space="preserve"><style>.st0{fill:#e59500}</style><switch><g><path class="st0" d="M14.02 15.36v3.26c0 .75-.39 1.46-1.06 1.83l-1.57.91c-.72.43-.95 1.36-.49 2.07.45.66 1.34.84 2.03.45l1.53-.88a5.07 5.07 0 0 0 2.53-4.37l-.03-10.5c0-1.29.69-2.47 1.8-3.11.56-.31 1.17-.47 1.8-.47 1.99 0 3.61 1.6 3.61 3.57v.68c0 .79.42 1.52 1.11 1.91l1.87 1.07V8.2c0-1.19-.32-2.31-.88-3.27-1.14-1.96-3.28-3.3-5.7-3.29-1.15 0-2.29.3-3.27.88-2.04 1.16-3.28 3.35-3.28 5.69v7.15z"/><path class="st0" d="m18.82 26.57 5.81-3.34c.01 0 .01-.01.02-.01.83-.45 1.84-.42 2.66.05l1.01.58c.72.42 1.62.18 2.03-.53.41-.71.17-1.6-.55-2.01l-1.57-.9c-1.57-.9-3.51-.9-5.08.01L14 25.67c-1.11.65-2.5.65-3.61 0-.54-.31-1.01-.76-1.32-1.3-1-1.7-.42-3.89 1.3-4.89l.45-.26c.68-.39 1.1-1.12 1.1-1.9v-1.97c-.03.02-.05.03-.08.05l-2.95 1.7a6.444 6.444 0 0 0-2.38 2.4 6.64 6.64 0 0 0-.88 3.31c0 1.12.29 2.24.88 3.28a6.261 6.261 0 0 0 2.4 2.39 6.563 6.563 0 0 0 6.57-.01l3.34-1.9z"/><path class="st0" d="m32.33 17.12-2.96-1.71-6.21-3.55a2.19 2.19 0 0 1-1.11-1.91V8.09c-.01-.81-.66-1.47-1.48-1.47-.8.01-1.47.65-1.47 1.47V9.9c0 1.8.98 3.46 2.55 4.37l9.18 5.25c1.11.64 1.82 1.82 1.82 3.1.01.62-.16 1.25-.47 1.79-.99 1.7-3.25 2.3-5.02 1.25-.74-.42-1.64-.42-2.38 0l-1.97 1.12 2.96 1.71c1.05.59 2.18.88 3.29.87 2.27 0 4.47-1.18 5.69-3.26.58-1 .88-2.14.87-3.29 0-2.33-1.26-4.52-3.29-5.69"/><path d="M132.59 18.35v-.05c0-2.1 1.7-3.75 3.77-3.75h.02c2.05 0 3.75 1.65 3.75 3.75v.05c0 2.07-1.65 3.75-3.75 3.75h-.02c-2.09 0-3.77-1.68-3.77-3.75m10.23 3.23V6.72h-2.68v7.08c-1-1.02-2.4-1.7-4.12-1.7H136a6.18 6.18 0 0 0-6.2 6.2v.05c0 3.4 2.75 6.2 6.2 6.2h.02c1.91 0 3.4-.82 4.43-2.03l.54 1.68h2.68l-.85-2.62zm-25.61-3.23v-.05c0-2.1 1.7-3.75 3.77-3.75h.02c2.05 0 3.75 1.65 3.75 3.75v.05c0 2.07-1.65 3.75-3.75 3.75h-.02c-2.09 0-3.77-1.68-3.77-3.75m3.4 6.19h.02c1.91 0 3.4-.82 4.43-2.03l.54 1.68h2.68l-.84-2.61v-9.13h-2.68v1.35c-1-1.02-2.4-1.7-4.12-1.7h-.02a6.18 6.18 0 0 0-6.2 6.2v.05c0 3.4 2.74 6.19 6.19 6.19m-16.77-.35v-6.45c0-1.98 1.12-3.28 2.84-3.28h.02c1.75 0 2.87 1.3 2.87 3.28v6.45h2.68v-6.45c0-3.42-1.96-5.64-4.99-5.64h-.02c-1.42 0-2.59.54-3.4 1.44V6.72h-2.68v17.47h2.68zm-5.2-11.74h-4.66V9.94H91.3v2.52h-2.05v2.4h2.05v5.31c0 2 1.14 4.38 4.24 4.38h.02c1.89 0 3.24-1.05 4.12-2.42l-2-1.42c-.61.93-1.28 1.4-2.05 1.4h-.02c-.84 0-1.63-.63-1.63-1.84v-5.4h4.66v-2.42zm-18.03 7.9-2.07 1.47c1.12 1.68 2.94 2.73 5.17 2.73h.02c2.66 0 4.5-1.51 4.5-3.45 0-1.47-.89-2.61-2.96-3.4l-2.4-.91c-.7-.28-1.09-.7-1.09-1.19 0-.63.61-1.12 1.63-1.12h.02c1.05 0 1.89.63 2.42 1.35l2.14-1.49c-1-1.28-2.52-2.24-4.57-2.24h-.02c-2.56 0-4.38 1.42-4.38 3.35 0 1.37.75 2.75 2.96 3.59l2.21.84c.91.35 1.3.68 1.3 1.26 0 .56-.65 1.02-1.77 1.02h-.02c-1.3.01-2.39-.83-3.09-1.81m-6.93-7.9v6.45c0 1.98-1.12 3.28-2.84 3.28h-.02c-1.75 0-2.87-1.3-2.87-3.28v-6.45h-2.68v6.45c0 3.42 1.96 5.64 4.99 5.64h.02c1.65 0 2.94-.7 3.75-1.89l.49 1.54h2.68l-.84-2.61v-9.13h-2.68zM45.42 24.19h2.63V13.08l4.54 11.11h2.7l4.43-11.11v11.11h2.63V7.89h-3.33l-5.08 12.77-5.19-12.77h-3.33v16.3z" style="fill:#121212"/></g></switch></svg>