<svg version="1.1" id="Calque_1" xmlns="http://www.w3.org/2000/svg" x="0" y="0" viewBox="0 0 599 189" width="599" height="189" style="enable-background:new 0 0 599 189" xml:space="preserve"><style>.st0{fill:#808b94}.st1{fill-rule:evenodd;clip-rule:evenodd;fill:#003d6a}</style><path class="st0" d="M104.186 119.11c2.768-6.446 9.243-15.056 19.895-14.882.002.004-.002-.005 0 0 4.558.152 6.141.72 4.4 5.816-.243.71-.508 1.393-.891 1.984-1.495 2.942-5.094 7.236-7.781 11.232-4.057 6.032-8.49 12.139-12.518 15.847l-.074.066a2.81 2.81 0 0 1-4.55-2.48 2.788 2.788 0 0 1 .706-1.58l-.004-.005c2.87-2.896 11.354-13.697 11.354-13.697 5.185-6.52 9.54-11.4 9.113-12.314-1.102-2.357-13.782 2.034-15.216 13.12l-.47 1.312-1.35.348c-14.512 3.729-22.92 9.215-24.99 16.307-2.282 7.813.952 11.871 2.238 13.375l-.001.001a2.471 2.471 0 0 1-2.16 4.028 2.448 2.448 0 0 1-1.21-.478l-.007.008-.033-.035a2.475 2.475 0 0 1-.498-.517l-.042-.045c-2.57-3.774-5.679-9.8-3.356-17.793 2.549-8.778 11.78-15.377 27.445-19.618zM30.63 119.11c-2.768-6.446-9.242-15.056-19.894-14.882-.002.004.002-.005 0 0-4.558.152-6.141.72-4.4 5.816.243.71.507 1.393.89 1.984 1.495 2.942 5.095 7.236 7.782 11.232 4.057 6.032 8.489 12.139 12.518 15.847l.073.066a2.81 2.81 0 0 0 4.55-2.48 2.788 2.788 0 0 0-.705-1.58l.004-.005c-2.87-2.896-11.354-13.697-11.354-13.697-5.185-6.52-9.54-11.4-9.113-12.314 1.101-2.357 13.782 2.034 15.215 13.12l.47 1.312 1.35.348c14.513 3.729 22.92 9.215 24.99 16.307 2.282 7.813-.951 11.871-2.237 13.375v.001a2.471 2.471 0 0 0 2.16 4.028 2.448 2.448 0 0 0 1.21-.478l.007.008.033-.035c.192-.147.357-.322.498-.517l.043-.045c2.57-3.774 5.679-9.8 3.355-17.793-2.549-8.778-11.78-15.377-27.444-19.618zM284.46 93.381c0 36.507-28.703 64.048-64.052 64.048-35.345 0-64.044-27.54-64.044-64.048 0-35.2 29.02-64.048 64.044-64.048 35.015 0 64.052 28.848 64.052 64.048m-15.242 0c0-26.56-20.107-48.806-48.81-48.806-28.699 0-48.802 22.246-48.802 48.806 0 27.521 22.379 48.806 48.802 48.806 26.431 0 48.81-21.285 48.81-48.806M314.571 154.283h-15.25V31.928h17.526c37.64 0 49.324 12.983 49.324 35.377 0 25.8-19.632 35.7-42.843 35.7h-8.757v51.278zm0-64.905h4.865c15.576 0 32.462-2.927 32.462-22.394 0-19.15-18.177-21.422-33.266-21.422h-4.06v43.816zM412.583 154.281h-15.254V45.886h-29.053v-13.96h73.356v13.96h-29.049zM453.633 31.928h65.721v13.959h-50.471v34.232h49.011v13.959h-49.011v46.245h50.471v13.959h-65.721zM553.431 140.325h37.155v13.955h-52.405V31.93h15.25z"/><path class="st1" d="m41.966 30.052 2.639 4.912a20.457 20.457 0 0 1 7.443 2.898l5.347-1.992 4.328 4.541-2.364 5.525a20.445 20.445 0 0 1 2.058 6.934l5.378 3.231-.853 6.216-6.436 1.772a20.674 20.674 0 0 1-3.573 5.173l.905 6.804-5.39 3.209-5.7-4.148a20.72 20.72 0 0 1-2.902.468c-.994.088-1.975.102-2.942.05l-4.882 5.083-5.871-2.213-.305-6.858a20.56 20.56 0 0 1-4.422-4.466l-6.65-.613-1.93-5.97 4.727-4.124c-.162-2.495.132-4.92.81-7.19l-3.297-5.023 3.463-5.23 5.616 1.022a20.43 20.43 0 0 1 6.818-4.159l1.736-5.299 6.25-.553zm.436 40.53c8.514-.753 14.807-8.267 14.053-16.78-.754-8.515-8.265-14.808-16.78-14.054-8.516.752-14.809 8.265-14.055 16.78.752 8.516 8.266 14.808 16.782 14.055zM125.435 50.686l-2.19 5.129a20.457 20.457 0 0 1 2.384 7.623l4.895 2.933-.845 6.216-5.792 1.603a20.445 20.445 0 0 1-4.132 5.937l.835 6.218-5.389 3.216-5.402-3.922c-2.061.468-4.178.612-6.272.44l-4.75 4.954-5.871-2.207-.32-7.042a20.72 20.72 0 0 1-2.177-1.974 20.678 20.678 0 0 1-1.875-2.268l-7.02-.64-1.936-5.967 5.166-4.52a20.56 20.56 0 0 1 .727-6.243L81.8 54.594l3.458-5.235 6.173 1.118a20.437 20.437 0 0 1 6.123-3.856l1.863-5.712 6.249-.56 2.707 5.025a20.43 20.43 0 0 1 7.506 2.729l5.222-1.953 4.335 4.536zM94.047 76.333c5.905 6.18 15.703 6.404 21.883.5 6.18-5.906 6.406-15.702.501-21.882-5.905-6.183-15.703-6.407-21.883-.502-6.183 5.905-6.407 15.702-.5 21.884zM48.193 82.992l5.454 1.162a20.457 20.457 0 0 1 7.022-3.807l1.936-5.367 6.263-.367 2.687 5.375a20.445 20.445 0 0 1 6.622 2.912l5.94-2.015 4.193 4.669-2.809 6.056a20.673 20.673 0 0 1 1.638 6.07l5.776 3.707-1.036 6.187-6.848 1.668a20.677 20.677 0 0 1-3.383 4.793l.723 7.011-5.484 3.05-5.429-4.2a20.56 20.56 0 0 1-6.266.487l-4.767 4.678-5.803-2.386-.09-6.273a20.438 20.438 0 0 1-4.963-5.267l-5.963-.73-1.753-6.023 4.41-3.624a20.43 20.43 0 0 1 1.234-7.89l-2.921-4.75 3.617-5.126zm31.208 25.866c4.928-6.984 3.262-16.642-3.722-21.57-6.983-4.929-16.64-3.265-21.569 3.719-4.93 6.985-3.265 16.643 3.719 21.571 6.985 4.93 16.642 3.265 21.572-3.72z"/><path class="st0" d="M567.747 31.868h9.002v1.242h-3.799v11.218h-1.368V33.11h-3.835v-1.242zM578.51 31.868h2.504l3.529 10.533 3.528-10.533h2.503v12.46h-1.386V33.345h-.252l-3.619 10.533h-1.549l-3.619-10.533h-.252v10.983h-1.386v-12.46z"/></svg>