<svg xmlns="http://www.w3.org/2000/svg" width="197" height="90" fill="none"><g clip-path="url(#a)"><path d="M150.397 23.719a25.076 25.076 0 0 1 15.651 7.271 25.14 25.14 0 0 1 7.263 15.671.235.235 0 0 0 .232.214.237.237 0 0 0 .236-.236V23.25H150.42a.24.24 0 0 0-.167.07.234.234 0 0 0 .144.4Z" fill="#FAA818"/><path d="M120.972 60.375a.373.373 0 0 1-.375-.375V45.495c0-2.651.82-4.732 2.442-6.18 1.622-1.447 3.925-2.19 6.835-2.19 1.534-.06 3.063.195 4.494.75 1.057.469 1.592 1.181 1.592 2.123a2.599 2.599 0 0 1-.374 1.327.95.95 0 0 1-.832.476c-.12 0-.239-.02-.352-.06-.333-.12-.689-.232-1.052-.334a10.025 10.025 0 0 0-2.648-.326c-3.701 0-5.573 1.98-5.573 5.888V60a.377.377 0 0 1-.375.375h-3.782Zm-33.258-.24a14.319 14.319 0 0 0 2.064-.593 9.439 9.439 0 0 0 1.542-.75.907.907 0 0 0 .308-1.245l-.836-1.38a.98.98 0 0 0-.707-.495h-.101a.957.957 0 0 0-.375.076c-.21.09-.446.18-.7.273a7.43 7.43 0 0 1-2.532.424 6.693 6.693 0 0 1-1.622-.191 3.592 3.592 0 0 1-1.423-.686 3.274 3.274 0 0 1-.97-1.313 5.257 5.257 0 0 1-.337-2.033v-9.577a.75.75 0 0 1 .749-.75h4.307a2.073 2.073 0 0 0 2.058-2.117 2.08 2.08 0 0 0-.302-1.04 1.873 1.873 0 0 0-1.629-.95H82.77a.749.749 0 0 1-.749-.75V33a1.876 1.876 0 0 0-1.873-1.875H79.4A1.871 1.871 0 0 0 77.527 33v20.25c0 2.126.651 3.859 1.932 5.156 1.281 1.298 3.218 1.954 5.757 1.954.838.01 1.675-.065 2.498-.225Zm72.208-11.385c0 2.3-.681 4.547-1.956 6.459a11.614 11.614 0 0 1-5.211 4.281 11.595 11.595 0 0 1-12.653-2.52 11.634 11.634 0 0 1 1.76-17.886 11.599 11.599 0 0 1 14.66 1.446 11.633 11.633 0 0 1 3.4 8.22Zm-4.307 0a7.315 7.315 0 0 0-4.508-6.756 7.297 7.297 0 0 0-7.959 1.585 7.313 7.313 0 0 0-1.583 7.97 7.304 7.304 0 0 0 6.747 4.514c1.937 0 3.794-.77 5.164-2.142a7.315 7.315 0 0 0 2.139-5.171Zm-39.138 0c0 2.3-.681 4.547-1.956 6.459a11.614 11.614 0 0 1-5.211 4.281 11.595 11.595 0 0 1-12.653-2.52 11.63 11.63 0 0 1-2.516-12.669 11.622 11.622 0 0 1 4.276-5.217 11.6 11.6 0 0 1 14.66 1.446 11.633 11.633 0 0 1 3.4 8.22Zm-4.307 0a7.312 7.312 0 0 0-4.508-6.756 7.297 7.297 0 0 0-7.96 1.585 7.316 7.316 0 0 0 5.165 12.483c1.937 0 3.795-.77 5.164-2.141a7.315 7.315 0 0 0 2.139-5.171Zm-65.729 0c0 2.3-.68 4.547-1.956 6.459a11.614 11.614 0 0 1-5.211 4.281 11.596 11.596 0 0 1-12.653-2.52 11.63 11.63 0 0 1-2.516-12.669 11.621 11.621 0 0 1 4.276-5.217 11.6 11.6 0 0 1 14.66 1.446 11.633 11.633 0 0 1 3.4 8.22Zm-4.307 0a7.319 7.319 0 0 0-4.508-6.756 7.296 7.296 0 0 0-7.96 1.585 7.315 7.315 0 0 0-1.582 7.97 7.31 7.31 0 0 0 6.747 4.514c1.937 0 3.794-.77 5.164-2.142a7.317 7.317 0 0 0 2.14-5.171Zm31.213 1.204a11.635 11.635 0 0 1-2.204 5.696 11.597 11.597 0 0 1-16.462 2.283V66a.376.376 0 0 1-.375.375h-3.745a.374.374 0 0 1-.374-.375V48.176a10.757 10.757 0 0 1 1.602-5.745 10.739 10.739 0 0 1 4.416-4.005c9.097-4.324 18.022 2.73 17.142 11.528ZM69.1 48.75a7.319 7.319 0 0 0-4.508-6.756 7.296 7.296 0 0 0-7.96 1.585 7.315 7.315 0 0 0-1.583 7.97 7.31 7.31 0 0 0 6.748 4.514c1.937 0 3.794-.77 5.164-2.142A7.317 7.317 0 0 0 69.1 48.75ZM170.447 55.028a2.801 2.801 0 0 0-2.636 1.688 2.815 2.815 0 0 0 1.999 3.87 2.802 2.802 0 0 0 2.899-1.18 2.81 2.81 0 0 0 .48-1.565 2.785 2.785 0 0 0-2.742-2.813Zm2.247 2.813a2.249 2.249 0 0 1-3.858 1.5 2.253 2.253 0 0 1-.458-2.444 2.25 2.25 0 0 1 2.069-1.374 2.282 2.282 0 0 1 2.247 2.318Z" fill="#373737"/><path d="m170.784 58.143.652.994a.21.21 0 0 1 .029.097.187.187 0 0 1-.274.162.175.175 0 0 1-.066-.06l-.749-1.16h-.611v1.073a.19.19 0 0 1-.374 0v-2.625a.273.273 0 0 1 .273-.274h.951a.884.884 0 0 1 .896.555.89.89 0 0 1 .063.368.844.844 0 0 1-.79.87Zm-1.015-1.474v1.17h.801a.587.587 0 0 0 .414-.998.587.587 0 0 0-.414-.172h-.801Z" fill="#373737"/></g><defs><clipPath id="a"><path fill="#fff" d="M0 0h197v90H0z"/></clipPath></defs></svg>