<svg xmlns="http://www.w3.org/2000/svg" id="Calque_1" x="0" y="0" viewBox="0 0 808.5 177" width="808" height="177" style="enable-background:new 0 0 808.5 177" xml:space="preserve"><style>.st0{fill:#494cf3}</style><path class="st0" d="M227 73.9c15.7 0 27-10.8 27-26S242.7 22 227 22c-15.6 0-27 10.7-27 25.9s11.4 26 27 26zm0-41.8c8.6 0 15.1 6.2 15.1 15.8 0 9.7-6.4 15.8-15.1 15.8-8.5 0-15-6.2-15-15.8 0-9.7 6.4-15.8 15-15.8zM276.7 30v-7.4h-11.3v50.7h11.9V48.7C277.3 38.4 283 33 292 33c.9 0 1.7.1 2.8.3V22c-8.5 0-14.7 2.7-18.1 8zM304.7 22.6h11.9v50.7h-11.9zM310.7 14.2c4.5 0 7.6-3.2 7.6-7.4 0-3.9-3.2-6.8-7.6-6.8-4.4 0-7.6 3.1-7.6 7.1 0 4 3.3 7.1 7.6 7.1zM382.4 65.5v-43h-11.3v6.7c-4.2-5-10.4-7.3-17.5-7.3-14.5 0-25.6 9.7-25.6 24.4s11.1 24.6 25.6 24.6c6.8 0 12.8-2.2 17-6.7v2.7c0 10.2-4.9 15.4-16.1 15.4-7 0-14.2-2.4-18.7-6.1l-5.3 8.9c5.8 4.7 15.2 7.2 24.7 7.2 17.6 0 27.2-8.4 27.2-26.8zm-27-4.6c-9 0-15.5-5.9-15.5-14.5 0-8.5 6.4-14.3 15.5-14.3 8.9 0 15.4 5.8 15.4 14.3 0 8.6-6.5 14.5-15.4 14.5zM429.2 67.1v6.2h11.2V43.5c0-14.6-8.4-21.5-23-21.5-8.2 0-16 2.1-21.4 6.3l4.6 8.6c3.8-3.1 9.7-5 15.4-5 8.4 0 12.6 4.1 12.6 11v.8h-13.1c-15.4 0-21.1 6.6-21.1 15.1 0 8.8 7.3 15.2 18.9 15.2 7.5-.1 13-2.6 15.9-6.9zM406 58.2c0-3.7 2.2-6.7 10.2-6.7h12.2v5.9c-2 5.2-7 7.9-12.8 7.9-6 0-9.6-2.8-9.6-7.1zM528.4 45.7v27.5h11.9v-29c0-15.3-8.5-22.2-20.8-22.2-8.1 0-14.9 3.2-19 8.4-3.5-5.7-9.7-8.4-17.1-8.4-6.9 0-12.8 2.5-16.6 7v-6.5h-11.3v50.7h11.9V47.5c0-10.1 5.3-15.2 13.2-15.2 7.2 0 11.4 4.4 11.4 13.4v27.5h11.9V47.5c0-10.1 5.4-15.2 13.2-15.2 7.1 0 11.3 4.4 11.3 13.4zM555.4 22.6h11.9v50.7h-11.9zM561.4 14.2c4.5 0 7.6-3.2 7.6-7.4 0-3.9-3.2-6.8-7.6-6.8-4.4 0-7.6 3.1-7.6 7.1 0 4 3.2 7.1 7.6 7.1zM264 107.4c-8.1 0-14.9 3.2-19 8.4-3.5-5.7-9.7-8.4-17.1-8.4-6.9 0-12.8 2.5-16.6 7v-6.5H200v50.7h11.9v-25.7c0-10.1 5.3-15.2 13.2-15.2 7.2 0 11.4 4.4 11.4 13.4v27.5h11.9v-25.7c0-10.1 5.4-15.2 13.2-15.2 7.2 0 11.4 4.4 11.4 13.4v27.5h11.9v-29c-.2-15.3-8.7-22.2-20.9-22.2zM319.3 107.4c-8.2 0-16 2.1-21.4 6.3l4.6 8.6c3.8-3.1 9.7-5 15.4-5 8.4 0 12.6 4.1 12.6 11v.8h-13.1c-15.4 0-21.1 6.6-21.1 15.1 0 8.8 7.3 15.2 18.9 15.2 7.6 0 13.1-2.5 15.9-6.8v6.2h11.2v-29.7c0-14.8-8.4-21.7-23-21.7zm11.2 35.3c-2 5.2-7 7.9-12.8 7.9-6.1 0-9.7-2.8-9.7-7 0-3.7 2.2-6.7 10.2-6.7h12.2v5.8zM368.8 115.3v-7.4h-11.3v50.7h11.9V134c0-10.3 5.7-15.7 14.7-15.7.9 0 1.7.1 2.8.3v-11.3c-8.6.1-14.7 2.7-18.1 8zM449.2 107.9H435l-24.6 22.8V88.2h-11.9v70.4h11.9v-13.4l8.8-8.3 17.6 21.7h14.4L428 129.2zM478.8 107.4c-15.1 0-26.2 10.8-26.2 25.9 0 15.1 11 26 28 26 8.7 0 15.8-2.8 20.4-8.3l-6.4-7.3c-3.6 3.7-8.1 5.5-13.8 5.5-8.8 0-15-4.7-16.4-12.1h39.7c.1-1.1.2-2.6.2-3.5.1-15.9-10.7-26.2-25.5-26.2zm-14.4 21.8c1.1-7.4 6.7-12.3 14.4-12.3 7.8 0 13.4 5 14.3 12.3h-28.7zM536.2 149.5c-4.6 0-7-2.7-7-7.6v-24.1h13.6v-9.5h-13.6V96.7h-11.9v11.6H509v9.5h8.3v24.4c0 11.2 6.4 17.1 17.5 17.1 4.3 0 8.5-1.1 11.4-3.4l-3.3-8.4c-1.8 1.3-4.2 2-6.7 2zM584.1 107.4c-6.9 0-12.8 2.4-16.8 7.2V108H556v69h11.9v-24.6c4.1 4.6 9.8 6.8 16.2 6.8 14.8 0 25.7-10.2 25.7-26 0-15.6-11-25.8-25.7-25.8zm-1.4 41.7c-8.5 0-15.1-6.2-15.1-15.8 0-9.7 6.5-15.8 15.1-15.8 8.5 0 15 6.2 15 15.8 0 9.6-6.4 15.8-15 15.8zM621 88.2h11.9v70.4H621zM667.8 107.4c-8.2 0-16 2.1-21.4 6.3l4.6 8.6c3.8-3.1 9.7-5 15.4-5 8.4 0 12.6 4.1 12.6 11v.8h-13.1c-15.4 0-21.1 6.6-21.1 15.1 0 8.8 7.3 15.2 18.9 15.2 7.6 0 13.1-2.5 15.9-6.8v6.2h11.2v-29.7c0-14.8-8.4-21.7-23-21.7zm11.2 35.3c-2 5.2-7 7.9-12.8 7.9-6.1 0-9.7-2.8-9.7-7 0-3.7 2.2-6.7 10.2-6.7H679v5.8zM729.6 117.4c5 0 9.6 2.2 12.6 7l9.1-5.3c-3.9-7.7-11.8-11.8-21.6-11.8-16 0-27.4 10.7-27.4 25.9s11.4 26 27.4 26c9.9 0 17.7-4.3 21.6-11.9l-9.1-5.3c-3 4.8-7.6 7-12.6 7-8.7 0-15.4-6-15.4-15.8.1-9.7 6.7-15.8 15.4-15.8zM808.5 133.5c0-15.8-10.8-26.2-25.6-26.2-15.1 0-26.2 10.8-26.2 25.9 0 15.1 11 26 28 26 8.7 0 15.8-2.8 20.4-8.3l-6.4-7.3c-3.6 3.7-8.1 5.5-13.8 5.5-8.8 0-15-4.7-16.4-12.1h39.7c.2-1.1.3-2.5.3-3.5zm-40.1-4.3c1.1-7.4 6.7-12.3 14.4-12.3 7.8 0 13.4 5 14.3 12.3h-28.7zM48.8 84c1.6 2.8 4.7 4.6 7.9 4.6h9.6L29.5 24.8l-4.8 8.3c-1.6 2.8-1.6 6.3 0 9.1L48.8 84zM19.5 84c1.6 2.8 4.7 4.6 7.9 4.6H37L14.8 50.2 10 58.5c-1.6 2.8-1.6 6.3 0 9.1L19.5 84zM68.9 109.4l4.8-8.3H0l4.8 8.3c1.6 2.8 4.7 4.6 7.9 4.6H61c3.2 0 6.2-1.8 7.9-4.6zM54.2 134.9l4.8-8.3H14.7l4.8 8.3c1.6 2.8 4.7 4.6 7.9 4.6h18.9c3.2-.1 6.3-1.8 7.9-4.6zM93 109.3l-4.8-8.3-36.8 63.8H61c3.3 0 6.3-1.8 7.9-4.6L93 118.5c1.6-2.8 1.6-6.3 0-9.2zM102.9 126.5l-22.2 38.4h9.6c3.3 0 6.3-1.8 7.9-4.6l9.4-16.4c1.6-2.8 1.6-6.3 0-9.1l-4.7-8.3zM112.9 93c-1.6-2.8-4.7-4.6-7.9-4.6h-9.6l36.8 63.8 4.8-8.3c1.6-2.8 1.6-6.3 0-9.1L112.9 93zM142.3 93c-1.6-2.8-4.7-4.6-7.9-4.6h-9.6l22.2 38.4 4.8-8.3c1.6-2.8 1.6-6.3 0-9.1L142.3 93zM92.9 67.6l-4.8 8.3h73.7l-4.8-8.3c-1.6-2.8-4.7-4.6-7.9-4.6h-48.2c-3.4 0-6.4 1.7-8 4.6zM107.5 42.1l-4.8 8.3H147l-4.8-8.3c-1.6-2.8-4.7-4.6-7.9-4.6h-18.9a9.6 9.6 0 0 0-7.9 4.6zM68.7 67.6l4.8 8.3 36.8-63.8h-9.6c-3.3 0-6.3 1.8-7.9 4.6L68.7 58.5c-1.6 2.8-1.6 6.3 0 9.1zM58.9 50.5 81 12.1h-9.6c-3.3 0-6.3 1.8-7.9 4.6l-9.4 16.4c-1.6 2.8-1.6 6.3 0 9.1l4.8 8.3z"/></svg>