<svg width="173" height="63" fill="none" xmlns="http://www.w3.org/2000/svg"><g clip-path="url(#a)" fill-rule="evenodd" clip-rule="evenodd" fill="#000"><path d="M87.624 28.598c-.53 0-1.29.528-1.853 1.124l-.794 6.595c.263.1.894.167 1.224.167 1.687 0 2.91-2.056 2.91-5.27 0-1.889-.725-2.616-1.487-2.616Zm-1.522 12.325c-.563 0-1.16-.033-1.457-.132l-.264 2.384H86.3c1.29 0 1.788 1.128 1.788 1.989 0 .863-.497 1.989-1.788 1.989h-7.876c-1.223 0-1.72-1.093-1.72-1.99 0-.891.497-1.988 1.72-1.988h.464L80.41 27.9c-.331.033-.397.033-.496.033-1.225 0-1.721-1.092-1.721-1.988 0-.894.496-1.954 1.721-1.99l6.354-.164-.332 2.22c1.257-1.458 2.647-2.452 4.17-2.452 2.017 0 4.499 1.989 4.499 6.959 0 6.295-3.474 10.405-8.503 10.405ZM103.748 27.669c-1.258 0-2.48 1.424-2.879 3.614 1.853-.4 4.036-1.196 4.036-2.586 0-.564-.363-1.028-1.157-1.028Zm-2.879 7.223v.364c0 .796.53 1.425 1.787 1.425 2.152 0 4.302-1.789 5.658-1.789 1.159 0 1.722.83 1.722 1.857 0 .86-.597 1.756-1.456 2.32-1.556 1.025-3.706 1.986-6.918 1.986-3.374 0-6.055-1.853-6.055-6.824 0-7.225 4.667-10.803 9.001-10.803 3.342 0 5.494 1.69 5.494 4.506 0 3.313-2.317 5.47-9.233 6.958ZM118.977 27.669c-1.258 0-2.481 1.424-2.878 3.614 1.851-.4 4.036-1.196 4.036-2.586 0-.564-.365-1.028-1.158-1.028Zm-2.878 7.223v.364c0 .796.529 1.425 1.786 1.425 2.151 0 4.302-1.789 5.659-1.789 1.158 0 1.721.83 1.721 1.857 0 .86-.598 1.756-1.457 2.32-1.555 1.025-3.706 1.986-6.916 1.986-3.375 0-6.056-1.853-6.056-6.824 0-7.225 4.667-10.803 9-10.803 3.343 0 5.495 1.69 5.495 4.506 0 3.313-2.318 5.47-9.232 6.958ZM134.239 36.548c1.291 0 1.787 1.129 1.787 1.99 0 .86-.496 1.988-1.787 1.988h-7.08c-1.225 0-1.721-1.092-1.721-1.989 0-.893.496-1.989 1.721-1.989h.396l.861-8.648c-.331.033-.431.033-.496.033-1.226 0-1.72-1.092-1.72-1.988 0-.894.494-1.954 1.72-1.99l6.519-.164-.497 3.215c.926-1.855 2.646-3.447 4.4-3.447 1.292 0 2.483.696 2.483 2.65 0 1.956-1.159 2.752-2.151 2.752-.432 0-.629-.033-1.125-.033-1.192 0-2.812.862-3.806 2.054l-.661 5.566h1.157Z"/><path d="M148.477 28.598c-.53 0-1.291.528-1.853 1.124l-.795 6.595c.266.1.894.167 1.225.167 1.687 0 2.911-2.056 2.911-5.27 0-1.889-.727-2.616-1.488-2.616Zm-1.689-2.586c1.259-1.46 2.648-2.453 4.17-2.453 2.02 0 4.5 1.989 4.5 6.959 0 6.295-3.474 10.405-8.504 10.405-3.308 0-5.657-.994-6.782-2.254l1.885-17.563c-.363.033-.43.033-.496.033-1.224 0-1.721-1.092-1.721-1.986 0-.896.497-1.955 1.721-1.988l6.519-.168-1.292 9.015Z"/><path d="M167.809 40.194c-3.473 4.374-9.034 7.49-12.64 7.49-1.623 0-2.648-.863-2.648-2.288 0-1.59 1.324-2.22 2.449-2.616 1.853-.662 2.845-1.061 3.773-1.625L157.684 28.1c-.398.031-.498.031-.563.031-1.059 0-1.622-1.092-1.622-1.987 0-.896.496-1.921 1.722-2.022l6.189-.432.528 13.886c1.721-2.221 3.012-6.462 3.012-8.252 0-1.028-.596-1.523-1.027-1.724-.663-.296-1.123-.928-1.123-1.853 0-1.228.923-2.122 2.646-2.122 2.548 0 5.162 1.326 5.162 4.671 0 3.382-1.523 7.788-4.799 11.897ZM24.9 37.407a2.67 2.67 0 0 1 .234-.924c.134-.298.322-.578.565-.84.202-.215.436-.399.689-.553.138-.084.29-.176.458-.173.2.002.41.18.318.389-.09.2-.322.288-.49.405a2.312 2.312 0 0 0-.831 1.025c.08-.037.17-.071.272-.1.216-.062.417-.08.6-.053.185.026.347.083.49.17.142.09.262.204.36.344.096.139.167.288.211.447.05.172.069.346.055.523a1.267 1.267 0 0 1-.146.497 1.347 1.347 0 0 1-.349.419c-.15.125-.336.218-.557.28a1.517 1.517 0 0 1-.69.056 1.365 1.365 0 0 1-.528-.207 1.365 1.365 0 0 1-.365-.363 1.414 1.414 0 0 1-.198-.41 2.648 2.648 0 0 1-.098-.932Zm10.625-.001c.021-.317.098-.625.234-.923.134-.3.322-.58.564-.84.203-.216.437-.4.689-.554.139-.085.292-.176.46-.173.2.002.409.181.316.389-.089.2-.32.288-.49.405a2.331 2.331 0 0 0-.831 1.025c.08-.038.171-.07.272-.099.217-.063.417-.08.601-.054.185.026.348.083.49.171.142.089.262.203.359.343.097.139.167.289.213.448.05.171.067.346.052.522a1.245 1.245 0 0 1-.144.497 1.41 1.41 0 0 1-.348.42 1.548 1.548 0 0 1-.558.28 1.54 1.54 0 0 1-.69.055 1.348 1.348 0 0 1-.892-.57 1.442 1.442 0 0 1-.201-.409 2.746 2.746 0 0 1-.096-.933Zm3.32 3.802c1.273-3.318 1.917-5.744 2.18-6.844H21.446l3.31 6.77c2.244-.618 8.03-1.827 14.089.074Z"/><path d="M35.06 47.057h-.378c-.396.652-1.51 1.127-2.84 1.127-1.33 0-2.444-.475-2.841-1.127h-.377a.8.8 0 0 1 0-1.601h6.435a.8.8 0 1 1 0 1.601Zm8.153-12.027h-.02l-.016.062c-.085.353-.201.799-.35 1.329-.433 1.548-1.148 3.813-2.276 6.626l-.41 1.023-1.03-.385c-7.2-2.69-14.49-.151-14.562-.125l-.948.338-4.662-9.534h-.172c-.132.527-.19 1.173-.179 1.914a15.946 15.946 0 0 0 .166 2.036c.046.31.091.61.137.902.357 2.322.72 4.12 1.568 6.126.719 1.699 1.78 3.806 3.633 5.046 1.3.87 3.098 1.391 5.498 1.59 1.25.105 2.521.117 3.776.032 2.031-.134 4.602-.445 6.466-1.658 2.88-1.876 4.132-6.272 4.341-9.762.02-.32.042-.85.062-1.46.047-1.342.082-3.104.041-4.117l-1.063.017Z"/><path d="M46.32 39.994c-.016.309-.03.613-.051.95-.119 1.96-.854 8.585-5.364 11.52-2.302 1.498-5.242 1.867-7.546 2.02a27.988 27.988 0 0 1-4.111-.034c-2.793-.233-4.942-.875-6.568-1.966-2.348-1.573-3.614-4.055-4.454-6.042-.914-2.163-1.322-4.115-1.69-6.454-1.828-.109-3.284-1.521-3.284-3.258 0-1.618 1.268-2.942 2.918-3.206-.144-.456-.071-1.02.285-1.638L29.839 9.487c.854-1.483 2.254-1.483 3.11 0l13.382 22.4c.349.603.428 1.158.297 1.607 1.712.215 3.044 1.576 3.044 3.236 0 1.759-1.491 3.188-3.352 3.264ZM31.455 0C14.11 0 0 14.132 0 31.503c0 17.37 14.11 31.503 31.455 31.503 17.344 0 31.454-14.133 31.454-31.503S48.8 0 31.455 0Z"/><path d="M46.429 35.054c.04.712.045 1.657.003 2.914.83-.1 1.474-.712 1.474-1.456 0-.746-.646-1.359-1.477-1.458ZM16.124 35.12c-.67.2-1.157.745-1.157 1.392 0 .667.519 1.227 1.223 1.41-.116-1.037-.138-1.971-.066-2.802Z"/></g><defs><clipPath id="a"><path fill="#000" d="M0 0h173v63H0z"/></clipPath></defs></svg>