<svg xmlns="http://www.w3.org/2000/svg" viewBox="0 0 305.3 73.7">
    <g>
        <path id="Text" fill="#000" d="M99,41.5v9.2H92.6V23.1h9.8a15.1,15.1,0,0,1,5,.7,11.7,11.7,0,0,1,3.5,1.9,7.22,7.22,0,0,1,2,2.9,10.46,10.46,0,0,1,.6,3.6,9.52,9.52,0,0,1-.7,3.8,7.55,7.55,0,0,1-2,3,9.05,9.05,0,0,1-3.5,1.9,15.1,15.1,0,0,1-5,.7H99Zm0-4.8h3.3a4.59,4.59,0,0,0,3.6-1.2,4.86,4.86,0,0,0,1.1-3.3,4.67,4.67,0,0,0-.3-1.7,3,3,0,0,0-.9-1.3,3.77,3.77,0,0,0-1.5-.9,6.65,6.65,0,0,0-2.1-.3H98.9v8.7Zm26.1,8.9h10.2v5.1H118.7V23.1h6.4ZM166,50.7h-5a2.12,2.12,0,0,1-1.4-.4,1.69,1.69,0,0,1-.7-1l-1.6-4.8H146.8l-1.6,4.8a2.29,2.29,0,0,1-.7,1,2,2,0,0,1-1.3.4h-5l10.7-27.6h6.6ZM148.3,40.2h7.6l-2.5-7.6a16.19,16.19,0,0,1-.6-1.7,17.23,17.23,0,0,0-.7-2.1q-.3,1.2-.6,2.1a16.19,16.19,0,0,1-.6,1.7Zm37.3-11.5a4.35,4.35,0,0,1-.6.7,1.08,1.08,0,0,1-.8.2,1.61,1.61,0,0,1-.9-.3,10.91,10.91,0,0,0-1.1-.6,11.64,11.64,0,0,0-1.5-.6,5.41,5.41,0,0,0-1.9-.3,4.14,4.14,0,0,0-2.7.8,2.58,2.58,0,0,0-.9,2.1,2.17,2.17,0,0,0,.5,1.4,3.39,3.39,0,0,0,1.4.9,9.33,9.33,0,0,0,2,.7c.7.2,1.5.5,2.3.7a22.88,22.88,0,0,1,2.3,1,9,9,0,0,1,2,1.4,7.71,7.71,0,0,1,1.4,2.1,6.74,6.74,0,0,1,.5,3,8.57,8.57,0,0,1-.7,3.6,8.12,8.12,0,0,1-1.9,2.9,9.75,9.75,0,0,1-3.1,2,10.88,10.88,0,0,1-4.2.7,11.53,11.53,0,0,1-2.6-.3,19.73,19.73,0,0,1-2.6-.7,25.57,25.57,0,0,1-2.4-1.1,7,7,0,0,1-1.9-1.5l1.9-3a1.7,1.7,0,0,1,.6-.6,2.35,2.35,0,0,1,.8-.2,1.5,1.5,0,0,1,1.1.4c.4.2.8.5,1.3.8a6.71,6.71,0,0,0,1.7.8,7.19,7.19,0,0,0,2.2.4,4.14,4.14,0,0,0,2.7-.8,3,3,0,0,0,1-2.4,2.77,2.77,0,0,0-.5-1.6,5,5,0,0,0-1.4-1,9.33,9.33,0,0,0-2-.7c-.7-.2-1.5-.4-2.3-.7A21.85,21.85,0,0,1,173,38a9,9,0,0,1-2-1.4,6.92,6.92,0,0,1-1.4-2.2,8.19,8.19,0,0,1-.5-3.3,8,8,0,0,1,.6-3,6.77,6.77,0,0,1,1.8-2.6,7.53,7.53,0,0,1,3-1.8,10.19,10.19,0,0,1,4-.7,21.05,21.05,0,0,1,2.5.2,8.65,8.65,0,0,1,2.3.6c.7.3,1.4.6,2,.9s1.2.8,1.7,1.2Zm27.1-5.6v5.1h-7.8V50.8h-6.4V28.2h-7.8V23.1Zm20,5.6a4.35,4.35,0,0,1-.6.7,1.08,1.08,0,0,1-.8.2,1.61,1.61,0,0,1-.9-.3,10.91,10.91,0,0,0-1.1-.6,11.64,11.64,0,0,0-1.5-.6,5.41,5.41,0,0,0-1.9-.3,4.14,4.14,0,0,0-2.7.8,2.58,2.58,0,0,0-.9,2.1,2.17,2.17,0,0,0,.5,1.4,3.39,3.39,0,0,0,1.4.9,9.33,9.33,0,0,0,2,.7c.7.2,1.5.5,2.3.7a22.88,22.88,0,0,1,2.3,1,9,9,0,0,1,2,1.4,7.71,7.71,0,0,1,1.4,2.1,6.74,6.74,0,0,1,.5,3,8.57,8.57,0,0,1-.7,3.6,8.12,8.12,0,0,1-1.9,2.9,9.75,9.75,0,0,1-3.1,2,10.88,10.88,0,0,1-4.2.7,11.53,11.53,0,0,1-2.6-.3,19.73,19.73,0,0,1-2.6-.7,25.57,25.57,0,0,1-2.4-1.1,7,7,0,0,1-1.9-1.5l1.9-3a1.7,1.7,0,0,1,.6-.6,2.35,2.35,0,0,1,.8-.2,1.5,1.5,0,0,1,1.1.4c.4.2.8.5,1.3.8a6.71,6.71,0,0,0,1.7.8,7.19,7.19,0,0,0,2.2.4,4.14,4.14,0,0,0,2.7-.8,3,3,0,0,0,1-2.4,2.77,2.77,0,0,0-.5-1.6,5,5,0,0,0-1.4-1,9.33,9.33,0,0,0-2-.7c-.7-.2-1.5-.4-2.3-.7a21.85,21.85,0,0,1-2.3-.9,9,9,0,0,1-2-1.4,6.92,6.92,0,0,1-1.4-2.2,8.19,8.19,0,0,1-.5-3.3,8,8,0,0,1,.6-3,6.77,6.77,0,0,1,1.8-2.6,7.53,7.53,0,0,1,3-1.8,10.19,10.19,0,0,1,4-.7,21.05,21.05,0,0,1,2.5.2,8.65,8.65,0,0,1,2.3.6c.7.3,1.4.6,2,.9s1.2.8,1.7,1.2Zm31.2,22h-6.5V39H246.2V50.7h-6.5V23.1h6.5V34.7h11.2V23.1h6.5Zm13.4,0h-6.5V23.1h6.5Zm13.5-9.2v9.2h-6.4V23.1h9.8a15.1,15.1,0,0,1,5,.7,11.7,11.7,0,0,1,3.5,1.9,7.22,7.22,0,0,1,2,2.9,10.46,10.46,0,0,1,.6,3.6,9.52,9.52,0,0,1-.7,3.8,7.55,7.55,0,0,1-2,3,9.05,9.05,0,0,1-3.5,1.9,15.1,15.1,0,0,1-5,.7h-3.3Zm0-4.8h3.3a4.59,4.59,0,0,0,3.6-1.2,4.86,4.86,0,0,0,1.1-3.3,4.67,4.67,0,0,0-.3-1.7,3,3,0,0,0-.9-1.3,3.77,3.77,0,0,0-1.5-.9A6.65,6.65,0,0,0,294,28h-3.3v8.7Z"></path>
        <path fill="#00416e" d="M11.9,46.6V27.5A4.36,4.36,0,0,1,14,23.8l16.3-9.4a4.15,4.15,0,0,1,4.3,0L51.2,24l11.9-6.9L34.6.6a4.15,4.15,0,0,0-4.3,0L2.1,16.9A4.36,4.36,0,0,0,0,20.6V53.5Z"></path>
        <path fill="#37ba24" d="M53.1,27.2V46.3A4.36,4.36,0,0,1,51,50L34.7,59.4a4.15,4.15,0,0,1-4.3,0L13.8,49.8,1.9,56.7,30.4,73.1a4.15,4.15,0,0,0,4.3,0L62.9,56.8A4.36,4.36,0,0,0,65,53.1V20.3Z"></path>
    </g>
</svg>