<svg xmlns="http://www.w3.org/2000/svg" data-name="Layer 2" width="543.518" height="161.97"><g data-name="Spacing Guide"><g fill="#3ab6c6"><path d="M141.331 114.56v18.24h-11.655V82.319h11.655v4.238c2.876-3.481 6.66-5.146 10.823-5.146 9.158 0 16.044 6.812 16.044 19.148 0 12.412-6.887 19.224-16.044 19.224-4.087 0-7.795-1.589-10.823-5.222Zm14.985-14.001c0-5.449-3.481-8.855-8.022-8.855-2.498 0-5.525 1.362-6.963 3.33v11.125c1.438 1.892 4.465 3.33 6.963 3.33 4.541 0 8.022-3.406 8.022-8.931ZM174.254 118.874V68.393h11.655v50.481h-11.655ZM215.956 118.874v-3.633c-2.271 2.725-6.66 4.541-11.354 4.541-5.6 0-12.562-3.784-12.562-12.034 0-8.855 6.963-11.731 12.562-11.731 4.844 0 9.158 1.514 11.354 4.238v-4.39c0-3.179-2.725-5.298-7.418-5.298-3.633 0-7.416 1.362-10.368 3.86l-4.163-7.341c4.693-4.011 10.975-5.676 16.575-5.676 8.779 0 17.028 3.254 17.028 14.607v22.856h-11.654Zm0-9.385v-3.254c-1.211-1.665-3.936-2.573-6.51-2.573-3.103 0-5.827 1.362-5.827 4.238s2.725 4.238 5.827 4.238c2.574 0 5.299-.908 6.51-2.649ZM232.986 114.182l4.844-8.022c2.725 2.422 8.553 4.844 12.867 4.844 3.48 0 4.919-1.135 4.919-2.8 0-4.768-21.267-.076-21.267-14.758 0-6.433 5.524-12.034 15.666-12.034 6.131 0 11.353 1.968 15.288 4.844l-4.466 7.72c-2.194-2.119-6.357-4.011-10.746-4.011-2.725 0-4.617 1.135-4.617 2.649 0 4.238 21.268.076 21.268 15.061 0 6.963-6.131 12.109-16.65 12.109-6.51 0-13.245-2.195-17.105-5.601ZM275.143 109.035V92.46h-6.055V82.318h6.055v-9.99h11.579v9.99h7.418V92.46h-7.418v13.32c0 2.119 1.211 3.708 3.255 3.708 1.286 0 2.573-.454 2.952-.908l2.27 8.779c-1.438 1.362-4.313 2.422-8.627 2.422-7.418 0-11.429-3.708-11.429-10.747ZM299.134 72.329c0-3.708 2.952-6.66 6.66-6.66s6.66 2.952 6.66 6.66-2.951 6.736-6.66 6.736-6.66-3.027-6.66-6.736Zm.833 46.545V82.319h11.655v36.555h-11.655ZM317.677 100.559c0-11.428 8.553-19.148 19.98-19.148 7.871 0 12.791 3.481 14.985 6.736l-7.568 7.039c-1.438-2.119-3.784-3.481-6.888-3.481-4.844 0-8.552 3.33-8.552 8.855s3.708 8.931 8.552 8.931c3.104 0 5.449-1.514 6.888-3.557l7.568 7.114c-2.194 3.179-7.114 6.736-14.985 6.736-11.428 0-19.98-7.72-19.98-19.224ZM357.942 118.874V68.393h11.655v18.24c2.876-3.633 6.812-5.222 10.822-5.222 9.082 0 16.121 7.19 16.121 19.148 0 12.412-7.114 19.224-16.121 19.224-4.086 0-7.795-1.665-10.822-5.146v4.238h-11.655Zm18.618-9.385c4.617 0 8.098-3.406 8.098-8.931 0-5.449-3.48-8.855-8.098-8.855-2.498 0-5.525 1.362-6.963 3.33v11.201c1.438 1.968 4.465 3.254 6.963 3.254ZM424.241 118.874v-3.633c-2.27 2.725-6.66 4.541-11.352 4.541-5.602 0-12.564-3.784-12.564-12.034 0-8.855 6.963-11.731 12.564-11.731 4.844 0 9.157 1.514 11.352 4.238v-4.39c0-3.179-2.725-5.298-7.416-5.298-3.633 0-7.418 1.362-10.369 3.86l-4.162-7.341c4.691-4.011 10.974-5.676 16.574-5.676 8.779 0 17.029 3.254 17.029 14.607v22.856h-11.656Zm0-9.385v-3.254c-1.211-1.665-3.936-2.573-6.508-2.573-3.104 0-5.828 1.362-5.828 4.238s2.725 4.238 5.828 4.238c2.572 0 5.297-.908 6.508-2.649ZM467.609 118.874V97.758c0-4.465-2.346-6.055-5.979-6.055-3.481 0-5.752 1.892-7.114 3.557v23.613h-11.655V82.318h11.655v4.465c2.194-2.573 6.509-5.374 12.64-5.374 8.324 0 12.109 4.844 12.109 11.58v25.884h-11.656ZM509.387 118.874l-8.022-12.942-3.481 4.163v8.779h-11.655V68.393h11.655v28.533l11.126-14.607h14.076l-13.471 16.65 14.152 19.905h-14.38Z"/></g><path d="M543.518 68.419c0 4.374-3.348 7.807-7.745 7.807-4.332 0-7.746-3.433-7.746-7.807a7.73 7.73 0 0 1 7.746-7.74c4.397 0 7.745 3.432 7.745 7.74m-13.587 0c0 3.432 2.495 6.192 5.907 6.192 3.283 0 5.776-2.759 5.776-6.124 0-3.432-2.429-6.192-5.776-6.192-3.413-.068-5.907 2.759-5.907 6.124m4.661 4.038h-1.773v-7.74c.656-.134 1.641-.202 2.888-.202 1.444 0 2.1.202 2.626.538.394.336.722.942.722 1.682 0 .875-.656 1.48-1.576 1.817v.067c.722.269 1.181.875 1.379 1.884.263 1.212.394 1.682.525 1.952h-1.904c-.197-.27-.394-1.01-.59-1.885-.132-.875-.591-1.211-1.575-1.211h-.854v3.096h.132Zm.065-4.375h.854c.985 0 1.772-.337 1.772-1.144 0-.673-.525-1.211-1.641-1.211-.459 0-.788.067-.985.067v2.288Z" fill="#3cb6c6" data-name="Vector Smart Object"/><path d="M107.329 89.597c-2.584-2.526-2.616-5.893-.732-9.026 4.716-7.847 2.272-19.518-6.053-24.112-.558-.263-1.37-.046-1.379.845-.109 10.627-7.238 19.388-19.436 19.634-27.058.544-42.314 20.677-33.327 45.976.154.433.799.357.79-.103-.367-18.702 12.837-32.1 35.399-30.089 12.694 1.132 22.151 8.427 25.54 22.159.3 1.003 1.305 1.152 1.734.178 3.199-7.262 5.794-17.321-2.535-25.461Z" fill="#90d0e4"/><path d="M81.597 115.101c.055-.468.712-.526.854-.077 3.961 12.549-3.818 25.447-16.604 28.95-12.302 3.37-30.271.636-38.603-9.723-7.262-9.987-4.633-23.103-9.018-34.121-2.178-5.562-5.274-11.238-10.268-14.757-1.777-1.231-3.651-2.305-5.689-3.064-7.01-3.183 4.128-9.296 7.789-9.733 9.485-1.393 19.825 4.206 19.873 14.371.032 5.599.357 11.184 1.258 16.72 1.241 7.67 5.13 14.562 10.087 20.539 13.668 16.483 37.516 14.965 40.323-9.105Z" fill="#97cb54"/><path d="M87.762 121.74c.01-.459.619-.621.845-.222 7.011 12.351-1.294 30.915-13.468 37.208-16.845 8.934-37.139-1.868-46.401-16.797-.154-.248.141-.521.384-.359l.005.003c8.48 6.166 24.632 9.978 37.173 6.43 11.677-3.304 21.184-13.005 21.461-26.263Z" fill="#3ab6c6"/><path d="M76.054 119.254c0 6.984-5.825 12.606-12.88 12.275-6.295-.295-11.401-5.408-11.686-11.703-.319-7.048 5.3-12.86 12.278-12.86 1.01 0 1.991.122 2.931.352.407.1.49.644.123.847a5.91 5.91 0 0 0-3.043 5.544c.179 2.955 2.578 5.355 5.533 5.534a5.913 5.913 0 0 0 5.546-3.044c.203-.366.747-.283.847.123.23.939.352 1.921.352 2.932Z" fill="#90d0e4"/><path d="M54.938 78.407c-.015.672-.095 1.75 1.192.726 3.741-2.977 7.953-4.909 13.118-5.234 1.611-.102 2.817-.84 3.597-2.099.509-.821.745-1.782.746-2.748l.028-58.576c.187-13.794-17.927-14.051-18.114-.256-.269 19.844-.188 61.656-.188 61.656-.067 2.032-.198 3.644-.379 6.532ZM50.312 27.263v52.963c-.025 1.706-1.439 3.635-2.545 4.888-6.447 7.302-9.239 16.717-7.838 28.631.057.486-.586.693-.798.252-4.373-9.09-4.351-22.202-4.629-32.147-.225-18.195-.054-36.392-.082-54.587 0-10.942 15.893-10.942 15.893 0Z" fill="#97cb54"/><path d="M58.405 104.606c-.465.151-.8-.448-.426-.762 9.737-8.161 25.498-9.682 36.089-2.509 11.845 8.022 14.798 21.865 10.404 34.726-3.638 10.649-11.94 19.432-22.39 23.229-.513.186-.901-.482-.482-.831 2.186-1.821 4.325-3.42 6.075-5.793 7.612-9.125 9.593-22.396 5.333-33.449-5.564-13.241-21.395-18.89-34.604-14.611Z" fill="#3ab6c6"/><path d="M77.236 72.724c4.842-.046 8.799-1.775 12.324-5.095 2.36-2.223 4.568-4.739 4.871-7.12.803-10.785.396-33.386.396-33.386 0-10.755-16.229-10.755-16.229 0-.028 11.458.04 24.111 0 35.569-.011 3.265-.534 6.9-1.841 9.402-.105.351.058.631.48.631Z" fill="#97cb54"/></g></svg>