<svg xmlns="http://www.w3.org/2000/svg" width="253.758" height="56.152"><defs><clipPath id="a"><path data-name="Rectangle 50" fill="#1875f0" d="M0 0h253.758v56.152H0z"/></clipPath></defs><g data-name="Group 560" clip-path="url(#a)"><path data-name="Path 1515" d="M21.389 29.872h-1.44a3.6 3.6 0 0 1-3.6-3.6v-1.438a3.6 3.6 0 0 1 3.6-3.6h1.44a3.6 3.6 0 0 1 3.6 3.6v1.44a3.6 3.6 0 0 1-3.6 3.6" fill="#000"/><path data-name="Path 1516" d="M44.834 29.872h-1.44a3.6 3.6 0 0 1-3.6-3.6v-1.438a3.6 3.6 0 0 1 3.6-3.6h1.44a3.6 3.6 0 0 1 3.6 3.6v1.44a3.6 3.6 0 0 1-3.6 3.6" fill="#000"/><path data-name="Path 1517" d="M33.111 29.872h-1.439a3.6 3.6 0 0 1-3.6-3.6v-1.438a3.6 3.6 0 0 1 3.6-3.6h1.44a3.6 3.6 0 0 1 3.6 3.6v1.44a3.6 3.6 0 0 1-3.6 3.6" fill="#000"/><path data-name="Path 1518" d="M54.705 0H10.077A10.077 10.077 0 0 0 0 10.077v30.232a10.077 10.077 0 0 0 10.077 10.077h38.15v5.766l8.638-9.717-8.638-9.717v5.751h-35.99a4.319 4.319 0 0 1-4.319-4.319V12.237a4.319 4.319 0 0 1 4.319-4.319h40.309a4.319 4.319 0 0 1 4.319 4.319V46.55a10.077 10.077 0 0 0 7.918-9.84V10.077A10.077 10.077 0 0 0 54.705 0" fill="#1875f0"/><path data-name="Path 1519" d="M248.641 14.237v.79h-1.276v3.131h-1.021v-3.131h-1.282v-.79Z" fill="#000"/><path data-name="Path 1520" d="M253.758 14.237v3.921h-.9v-1.8l.03-1.2h-.012l-.967 3h-.823l-.967-3h-.012l.03 1.2v1.8h-.908v-3.921h1.454l.618 1.995.219.831h.012l.226-.825.611-2Z" fill="#000"/><path data-name="Path 1521" d="M82.695 14.402a10.092 10.092 0 0 1 4.2.791 5.863 5.863 0 0 1 2.648 2.283 6.814 6.814 0 0 1 .913 3.623 6.809 6.809 0 0 1-.913 3.623 5.859 5.859 0 0 1-2.648 2.283 10.069 10.069 0 0 1-4.2.792h-3.988v6.7H73.47V14.402Zm-.822 9.468a3.847 3.847 0 0 0 2.481-.685 2.539 2.539 0 0 0 .837-2.086 2.536 2.536 0 0 0-.837-2.085 3.847 3.847 0 0 0-2.481-.685h-3.166v5.541Z" fill="#000"/><path data-name="Path 1522" d="M98.556 12.819v16.5a2.355 2.355 0 0 0 .335 1.431 1.349 1.349 0 0 0 1.126.426 3.948 3.948 0 0 0 .762-.06q.3-.062.731-.183l-.335 3.1a5 5 0 0 1-1.432.548 7.387 7.387 0 0 1-1.735.213 4.757 4.757 0 0 1-3.531-1.126 5.155 5.155 0 0 1-1.1-3.685V12.819Z" fill="#000"/><path data-name="Path 1523" d="M109.79 34.8a11.872 11.872 0 0 1-4.247-.746 8.558 8.558 0 0 1-3.273-2.146l2.436-2.862a6.427 6.427 0 0 0 2.04 1.63 5.937 5.937 0 0 0 2.8.654 4.088 4.088 0 0 0 1.583-.259.889.889 0 0 0 .609-.868.856.856 0 0 0-.3-.685 3.154 3.154 0 0 0-1.218-.472l-2.1-.4a8.463 8.463 0 0 1-4.11-1.72 3.916 3.916 0 0 1-1.218-3 4.119 4.119 0 0 1 .777-2.374 5.634 5.634 0 0 1 2.375-1.858 9.727 9.727 0 0 1 4.034-.73 11.466 11.466 0 0 1 4.079.669 6.684 6.684 0 0 1 2.832 1.949l-2.5 2.8a4.714 4.714 0 0 0-1.887-1.446 5.847 5.847 0 0 0-2.344-.5 4.608 4.608 0 0 0-1.2.137 1.573 1.573 0 0 0-.746.4.823.823 0 0 0 .137 1.279 3.762 3.762 0 0 0 1.416.5l2.771.548a5.915 5.915 0 0 1 3.379 1.553 3.9 3.9 0 0 1 1.035 2.74 4.689 4.689 0 0 1-.791 2.633 5.232 5.232 0 0 1-2.375 1.888 10.093 10.093 0 0 1-3.988.685" fill="#000"/><path data-name="Path 1524" d="M129.516 14.402a8.383 8.383 0 0 1 5.586 1.69 5.59 5.59 0 0 1 1.995 4.49 5.7 5.7 0 0 1-1.979 4.689 8.592 8.592 0 0 1-5.571 1.613l-.487.274h-3.988v7.336h-5.145V14.402Zm-.731 9.042a3.606 3.606 0 0 0 2.283-.609 2.348 2.348 0 0 0 .762-1.949 2.309 2.309 0 0 0-.762-1.918 3.6 3.6 0 0 0-2.283-.61h-3.714v5.086Zm3.075 1.1 6.426 9.95h-5.784l-5.145-8.8Z" fill="#000"/><path data-name="Path 1525" d="M147.724 34.8a9.387 9.387 0 0 1-4.338-.944 6.648 6.648 0 0 1-2.831-2.694 8.566 8.566 0 0 1-.99-4.277 8.57 8.57 0 0 1 .99-4.277 6.694 6.694 0 0 1 2.8-2.695 8.868 8.868 0 0 1 4.155-.943 8.308 8.308 0 0 1 4.08.929 6.433 6.433 0 0 1 2.572 2.557 7.591 7.591 0 0 1 .9 3.729q0 .579-.03 1.111a8.617 8.617 0 0 1-.091.9h-12.058v-2.8h9.8l-2.5.974a5.016 5.016 0 0 0-.654-2.8 2.27 2.27 0 0 0-2.025-.974 2.92 2.92 0 0 0-1.659.456 2.773 2.773 0 0 0-1.035 1.416 7.347 7.347 0 0 0-.351 2.481 6.218 6.218 0 0 0 .4 2.436 2.753 2.753 0 0 0 1.126 1.339 3.438 3.438 0 0 0 1.766.427 3.278 3.278 0 0 0 1.842-.457 2.731 2.731 0 0 0 1.02-1.278l4.14 1.4a4.823 4.823 0 0 1-1.476 2.177 7.082 7.082 0 0 1-2.481 1.355 10.041 10.041 0 0 1-3.075.457" fill="#000"/><path data-name="Path 1526" d="M168.67 22.957h-12.328v-3.684h12.33Zm-4.536-8.525v14.644a2 2 0 0 0 .533 1.567 2.147 2.147 0 0 0 1.477.473 4.215 4.215 0 0 0 1.263-.168 2.963 2.963 0 0 0 .959-.5l.548 3.2a5.753 5.753 0 0 1-1.918.853 9.328 9.328 0 0 1-2.375.3 8.333 8.333 0 0 1-3-.487 3.912 3.912 0 0 1-1.948-1.553 5.337 5.337 0 0 1-.715-2.832V15.863Z" fill="#000"/><path data-name="Path 1527" d="M176.22 34.797a6.535 6.535 0 0 1-2.725-.533 3.963 3.963 0 0 1-1.841-1.72 6.285 6.285 0 0 1-.67-3.105V19.273h5.176v8.95a2.847 2.847 0 0 0 .578 2.04 2.222 2.222 0 0 0 1.644.579 2.728 2.728 0 0 0 1.035-.2 2.27 2.27 0 0 0 .852-.609 2.809 2.809 0 0 0 .564-1.066 5.333 5.333 0 0 0 .2-1.537v-8.157h5.175v15.224h-4.628l-.153-2.861a5.13 5.13 0 0 1-2.04 2.39 6.1 6.1 0 0 1-3.166.776" fill="#000"/><path data-name="Path 1528" d="M189.92 34.495V19.273h4.566l.213 3.287a5.731 5.731 0 0 1 1.72-2.649 4.415 4.415 0 0 1 2.907-.943 4.615 4.615 0 0 1 .99.091 2.1 2.1 0 0 1 .654.243l-.517 4.261a3.742 3.742 0 0 0-.776-.2 7.371 7.371 0 0 0-1.142-.076 3.765 3.765 0 0 0-1.705.4 3.06 3.06 0 0 0-1.263 1.172 3.722 3.722 0 0 0-.472 1.964v7.672Z" fill="#000"/><path data-name="Path 1529" d="M203.01 34.495V19.273h4.628l.274 5.236-.579-.579a6.847 6.847 0 0 1 1.08-2.74 5.027 5.027 0 0 1 1.949-1.659 6 6 0 0 1 2.634-.563 5.909 5.909 0 0 1 2.755.608 4.426 4.426 0 0 1 1.841 1.8 6.009 6.009 0 0 1 .67 2.984v10.135h-5.175v-8.768a3.081 3.081 0 0 0-.609-2.193 2.106 2.106 0 0 0-1.553-.608 2.813 2.813 0 0 0-1.371.35 2.4 2.4 0 0 0-1 1.111 4.756 4.756 0 0 0-.366 2.04v8.068Z" fill="#000"/><path data-name="Rectangle 49" fill="#000" d="M222.19 14.402h5.237v20.093h-5.237z"/><path data-name="Path 1530" d="M242.406 22.957h-12.33v-3.684h12.33Zm-4.537-8.525v14.644a2 2 0 0 0 .533 1.567 2.147 2.147 0 0 0 1.477.473 4.214 4.214 0 0 0 1.263-.168 2.962 2.962 0 0 0 .959-.5l.548 3.2a5.754 5.754 0 0 1-1.918.853 9.328 9.328 0 0 1-2.375.3 8.333 8.333 0 0 1-3-.487 3.911 3.911 0 0 1-1.948-1.553 5.337 5.337 0 0 1-.716-2.832V15.863Z" fill="#000"/></g></svg>