<svg width="154" height="38" viewBox="0 0 154 38" fill="none" xmlns="http://www.w3.org/2000/svg">
    <path d="M47.0477 16.5185V10.932H49.9779C52.1204 10.932 53.034 12.0112 53.034 13.7252C53.034 15.4392 52.1204 16.5185 49.9779 16.5185H47.0477V16.5185ZM58.5164 13.7252C58.5164 9.63064 55.8067 6.55176 50.3875 6.55176H41.6602V28.8339H47.0477V20.8353H50.3875C56.0272 20.8353 58.5164 17.4072 58.5164 13.7252Z" fill="black"/>
    <path d="M76.9537 19.9782C76.9537 14.3602 72.9838 10.8687 67.8168 10.8687C62.6811 10.8687 58.6797 14.3602 58.6797 19.9782C58.6797 25.5963 62.5864 29.0879 67.7536 29.0879C72.9208 29.0879 76.9537 25.5964 76.9537 19.9782H76.9537ZM64.1618 19.9782C64.1618 16.9629 65.8633 15.5663 67.8168 15.5663C69.7071 15.5663 71.4716 16.9629 71.4716 19.9782C71.4716 22.962 69.6757 24.3903 67.7536 24.3903C65.8003 24.3903 64.1618 22.9619 64.1618 19.9782H64.1618Z" fill="black"/>
    <path d="M78.4453 28.834H83.833V5.3457H78.4453V28.834Z" fill="black"/>
    <path d="M113.054 24.2314C111.857 24.2314 111.416 23.7871 111.416 22.7397V15.6297H114.945V11.1225H111.416V6.80566H106.028V11.1225H98.9217L94.8888 22.2L90.8245 11.1225H84.8066L91.9588 28.2308L87.9259 37.2453H93.7232L102.848 15.6297H106.028V22.6762C106.028 27.2787 108.58 28.8339 112.235 28.8339H114.976V24.2314H113.054Z" fill="black"/>
    <path d="M115.535 20.2004C115.535 25.7869 118.969 29.342 123.254 29.342C125.869 29.342 127.728 28.1358 128.705 26.5804V29.0879H134.093V11.3765H128.705V13.884C127.76 12.3287 125.901 11.1226 123.286 11.1226C118.969 11.1226 115.535 14.6141 115.535 20.2004ZM128.705 20.2323C128.705 23.0573 126.909 24.6124 124.861 24.6124C122.845 24.6124 121.017 23.0253 121.017 20.2004C121.017 17.3754 122.845 15.852 124.861 15.852C126.909 15.852 128.705 17.4073 128.705 20.2323Z" fill="black"/>
    <path d="M135.443 19.9465C135.443 25.533 138.878 29.0879 143.194 29.0879C145.778 29.0879 147.637 27.85 148.613 26.2949V28.8023C148.613 31.786 147.006 32.8652 144.959 32.8652C143.1 32.8652 141.776 32.0082 141.43 30.675H136.105C136.578 34.8966 139.98 37.5628 145.211 37.5628C151.291 37.5628 154.001 33.5317 154.001 28.8023V11.1226H148.613V13.6301C147.668 12.0431 145.778 10.8687 143.194 10.8687C138.878 10.8687 135.443 14.3602 135.443 19.9465ZM148.613 19.9782C148.613 22.8032 146.817 24.3586 144.77 24.3586C142.753 24.3586 140.926 22.7715 140.926 19.9465C140.926 17.1216 142.753 15.5981 144.77 15.5981C146.817 15.5981 148.613 17.1534 148.613 19.9782Z" fill="black"/>
    <path d="M16.2598 6.5824V0H8.12986H4.87795C2.18393 0 0 2.20016 0 4.91419V8.19031V16.3807H6.52618V6.5824H16.2598Z" fill="#03DCCA"/>
    <path d="M6.52622 19.002H0V27.1923V30.4683C0 33.1823 2.18393 35.3825 4.87796 35.3825H8.12992H16.2599V28.8261H6.52622V19.002Z" fill="#03DCCA"/>
    <path d="M28.6067 16.3806H35.1329V8.19025V4.91419C35.1329 2.20016 32.949 0 30.255 0H27.003H18.873V6.58235H28.6067V16.3806Z" fill="#03DCCA"/>
    <path d="M18.873 28.8262V35.3826H27.003H30.2549C32.9489 35.3826 35.1328 33.1825 35.1328 30.4684V27.1923V19.002H28.6067V28.8262H18.8731H18.873Z" fill="#03DCCA"/>
</svg>