<?xml version="1.0" encoding="UTF-8"?>
<svg id="Layer_1" data-name="Layer 1" xmlns="http://www.w3.org/2000/svg" viewBox="0 0 116 62.74" width="116" height="62.74">
  <defs>
    <style>
      .cls-1 {
        stroke-width: 0px;
      }
    </style>
  </defs>
  <path class="cls-1" d="M5.85,62.74H0v-19.39c-.04-5.17.49-10.32,1.58-15.37,1.69-7.52,4.64-13.45,8.78-17.62C14.53,6.22,20.45,3.27,27.97,1.58,33.02.49,38.18-.04,43.34,0h6.28v6.29c.05,5.17-.48,10.32-1.57,15.37-1.69,7.52-4.64,13.45-8.78,17.61-6.32,6.27-16.51,10.02-27.25,10.02v-5.83c4.31,0,8.59-.72,12.68-2.11,3.9-1.27,7.47-3.4,10.45-6.22,2.64-2.67,8.76-10.79,8.65-28.83v-.47h-.92c-17.72,0-25.74,6.03-28.37,8.65-2.64,2.62-8.76,10.82-8.66,28.86v19.41Z"/>
  <path class="cls-1" d="M74.61,32.34c0,2.62-.82,4.63-2.46,6.01-1.64,1.39-3.97,2.08-7.01,2.1h-2.21v8.66h-5.16v-24.35h7.77c2.96,0,5.2.64,6.74,1.91,1.55,1.28,2.32,3.17,2.32,5.68ZM62.96,36.22h1.69c1.26.09,2.52-.24,3.57-.94.4-.33.71-.75.92-1.23.2-.48.29-1,.26-1.51.04-.49-.03-.97-.2-1.43s-.44-.87-.78-1.21c-.9-.65-2-.96-3.11-.87h-2.34v7.19Z"/>
  <path class="cls-1" d="M83.7,39.77v9.35h-5.16v-24.35h7.07c3.31,0,5.76.6,7.37,1.81,1.6,1.21,2.4,3.04,2.38,5.49.02,1.37-.39,2.7-1.18,3.82-.85,1.17-2.01,2.07-3.35,2.62,3.67,5.46,6.05,9,7.16,10.64h-5.73l-5.83-9.37h-2.73ZM83.7,35.57h1.64c1.26.09,2.52-.19,3.62-.82.39-.29.71-.68.91-1.13.2-.45.29-.94.25-1.43.04-.48-.04-.96-.25-1.39-.21-.43-.53-.8-.93-1.06-1.14-.57-2.42-.82-3.69-.74h-1.56l.02,6.57Z"/>
  <path class="cls-1" d="M108.39,49.45c-3,0-5.34-.82-7.03-2.46-1.69-1.64-2.53-3.99-2.53-7.03s.82-5.53,2.34-7.23c.83-.87,1.84-1.54,2.96-1.98,1.12-.44,2.32-.63,3.52-.57,1.12-.07,2.25.09,3.31.48,1.06.39,2.02.99,2.84,1.76.76.84,1.35,1.82,1.72,2.89.38,1.07.54,2.2.47,3.33v2.46h-12c-.02,1.24.43,2.44,1.26,3.36.45.42.98.75,1.56.96.58.21,1.19.3,1.81.26,1.07,0,2.13-.12,3.18-.35,1.08-.26,2.13-.64,3.13-1.12v3.94c-.9.45-1.86.78-2.85.99-1.21.23-2.44.34-3.67.33ZM107.69,33.75c-.47-.02-.94.06-1.38.23-.44.18-.83.45-1.16.79-.66.83-1.03,1.85-1.05,2.91h7.13c.04-1.06-.31-2.1-.98-2.91-.33-.34-.73-.61-1.17-.79-.44-.18-.92-.26-1.39-.23ZM104.76,28.44v-.45c1.42-1.58,2.73-3.26,3.92-5.02h5.73v.37c-.58.58-1.56,1.44-2.95,2.58-1.39,1.13-2.48,1.98-3.27,2.54l-3.42-.02Z"/>
</svg>