<svg version="1.1" id="Capa_1" xmlns="http://www.w3.org/2000/svg" x="0" y="0" viewBox="0 0 156 32" width="156" height="32" style="enable-background:new 0 0 156 32" xml:space="preserve"><style>.st0{fill:#538c3a}.st1{fill:#90b54b}</style><path class="st0" d="M15.7 32.2c6 0 11.2-3.3 13.9-8.3h-.9c-1.9-.1-3.2-.8-3.4-.9-1.7-.9-2.6-2.2-3-2.8l2-2.6 1.2 1.5c.3.3.8.9 1.7 1.3 1.8.8 3.4.2 3.9 0 .3-1.3.5-2.6.5-4 0-1.5-.2-2.9-.6-4.3-.2-.1-.4-.2-.6-.2-1.8-.5-3.7.1-4.9 1.5-1.9 2.5-3.8 4.9-5.6 7.4-.9 1.1-2 2-3.3 2.5-.7.3-1.4.5-2.3.5-.6 0-3.2.2-5.6-1.7-.9-.8-1.5-1.6-2-2.4-.6-1.1-.9-2.4-.9-3.6 0-.3 0-.6.1-.9.2-.9.6-2.5 1.8-3.9 2.2-2.5 5.3-2.6 5.8-2.6 3.3 0 5.4 2 5.7 2.4l.6-.7.7 3.8-3.8.3.7-.9c-1.2-1.5-3.1-2.1-4.8-1.7-1.9.5-3.3 2.2-3.5 4.2v.6c.1.6.3 1.7 1.3 2.7 1.2 1.3 3.1 1.6 4.6 1.2.6-.2 1.1-.4 1.5-.7.4-.3.8-.7 1.1-1.1l5.3-7c.8-1 1.8-1.9 3-2.4.1-.1.5-.3 1-.4.4-.1.8-.2 1.2-.2.3 0 .6-.1.8-.1h.5c-2.7-4.8-7.8-8-13.7-8C7 .7-.1 7.8-.1 16.5c0 8.6 7.1 15.7 15.8 15.7"/><path class="st1" d="M50.6 8.8c-.8-.2-1.7-.3-2.6 0-.4.1-.9.3-1.3.5s-.7.5-1 .8l-.3.3V8.9h-3.2v14.4h3.2v-7.2c0-1.4.3-2.5.9-3.2.6-.7 1.5-1 2.7-1 .2 0 .4 0 .6.1.2 0 .4.1.6.1l.4.1.1-3.4h-.1zM65.5 16.2c0-.9-.1-1.8-.4-2.7-.3-.9-.7-1.7-1.2-2.4-.6-.7-1.3-1.3-2.2-1.8-.9-.4-2-.7-3.2-.7-1.1 0-2.1.2-3 .6-.9.4-1.7.9-2.4 1.6-.7.7-1.2 1.5-1.5 2.4-.4.9-.6 1.9-.6 3s.2 2.1.5 3c.3.9.8 1.7 1.5 2.4.6.7 1.4 1.2 2.3 1.6.9.4 2 .6 3.1.6 2.7 0 4.9-1 6.4-2.9l.2-.2-2.4-1.9-.2.2c-.5.6-1 1.1-1.6 1.4-.6.3-1.2.5-2 .5-.6 0-1.1-.1-1.7-.3-.5-.2-1-.4-1.4-.8-.4-.3-.7-.7-1-1.2-.2-.4-.3-.8-.3-1.2h11.1v-1.2zm-11-1.5c0-.3.1-.7.3-1 .2-.4.5-.9.8-1.2.3-.4.8-.7 1.3-.9 1-.5 2.4-.4 3.3-.1.5.2.8.4 1.1.8.3.3.5.7.7 1.2.1.4.2.8.2 1.2h-7.7z"/><path class="st0" d="M77.6 19.2c-.4.5-.9.8-1.4 1.1-.5.2-1.1.4-1.8.4-.6 0-1.2-.1-1.7-.3-.5-.2-.9-.5-1.3-.9-.4-.5-.6-1-.8-1.5-.2-.5-.3-1.1-.3-1.7 0-.6.1-1.2.3-1.8.2-.6.4-1.1.8-1.5.3-.4.7-.8 1.2-1 .5-.2 1.1-.4 1.8-.4s1.3.1 1.8.4c.5.2 1 .6 1.5 1.1l.2.2 2.4-2.2-.2-.2c-.7-.8-1.6-1.3-2.5-1.7-2-.8-4.3-.7-6.1 0-.9.4-1.7.9-2.4 1.6-.7.7-1.2 1.5-1.5 2.4-.4.9-.5 2-.5 3.1s.2 2.1.5 3c.4.9.9 1.7 1.6 2.4.7.7 1.5 1.2 2.4 1.5.9.4 1.9.5 3 .5 1 0 2-.2 3-.5.9-.3 1.8-.9 2.5-1.7l.2-.2-2.5-2.3-.2.2zM84.2 4.5c-.7-.7-1.9-.7-2.7 0-.4.4-.5.8-.5 1.3s.2 1 .6 1.3c.4.4.8.6 1.3.6s1-.2 1.3-.6c.4-.4.6-.8.6-1.3s-.2-.9-.6-1.3zM81.2 8.9h3.2v14.4h-3.2zM95.9 8.8c-.8-.2-1.7-.3-2.6 0-.4.1-.9.3-1.3.5s-.7.5-1 .8l-.3.3V8.9h-3.2v14.4h3.2v-7.2c0-1.4.3-2.5.9-3.2.6-.7 1.5-1 2.7-1 .2 0 .4 0 .6.1.2 0 .4.1.6.1l.4.1.1-3.4h-.1zM107.2 19.2c-.4.5-.9.8-1.4 1.1-.5.2-1.1.4-1.8.4-.6 0-1.2-.1-1.7-.3-.5-.2-.9-.5-1.3-.9s-.6-.9-.8-1.4c-.2-.5-.3-1.1-.3-1.7 0-.6.1-1.2.3-1.8.2-.6.4-1.1.8-1.5.3-.4.7-.8 1.2-1 .5-.2 1.1-.4 1.8-.4s1.3.1 1.8.4c.5.2 1 .6 1.5 1.1l.2.2 2.4-2.2-.2-.2c-.7-.8-1.6-1.3-2.5-1.7-2-.8-4.3-.7-6.1 0-.9.4-1.7.9-2.4 1.6-.7.7-1.2 1.5-1.5 2.4-.4.9-.5 2-.5 3.1s.2 2.1.5 3c.4.9.9 1.7 1.6 2.4.7.7 1.5 1.2 2.4 1.5.9.4 1.9.5 3 .5 1 0 2-.2 3-.5.9-.3 1.8-.9 2.5-1.7l.2-.2-2.3-2.3-.4.1zM120.3 8.9v7.4c0 .8-.1 1.4-.3 2-.2.5-.4 1-.8 1.3-.3.3-.7.6-1.1.8-.8.3-1.7.3-2.5.1-.3-.1-.6-.3-.9-.5-.3-.3-.5-.6-.6-1-.2-.4-.2-.9-.2-1.5V8.9h-3.2v9.2c0 1 .1 1.8.4 2.5.3.7.7 1.3 1.2 1.8s1.1.8 1.7 1c.6.2 1.3.3 2 .3 1.1 0 2.1-.2 3-.7.6-.3 1-.7 1.3-1.1v1.5h3.2V8.9h-3.2zM126.5.7h3.2v22.7h-3.2zM144.8 23c0-.4-.1-.7-.1-1.2v-8.4c0-.6-.1-1.3-.4-1.8-.2-.6-.6-1.1-1.1-1.6-.5-.5-1.1-.8-1.9-1.1-1.5-.5-3.7-.6-5.7.1-1 .4-1.9.9-2.7 1.6l-.2.2 2 2 .2-.2c.2-.2.5-.4.7-.6.2-.2.5-.3.8-.5.3-.1.6-.3 1-.3.4-.1.8-.1 1.3-.1s1 .1 1.4.2c.4.1.7.4.9.6.2.3.4.5.6.9.1.3.2.6.2.9v.3H140c-1.1 0-2.1.1-3 .3-1 .2-1.8.5-2.5.9s-1.3.9-1.7 1.6c-.4.6-.6 1.5-.6 2.4 0 .7.1 1.4.4 1.9.3.6.6 1 1.1 1.4.5.4 1 .7 1.6.8.6.2 1.3.3 1.9.3 1.1 0 2.1-.2 2.9-.6.6-.3 1.2-.8 1.7-1.4 0 .4 0 .9.1 1.3v.3h2.9V23zm-3.2-6.3v.6c0 .4-.1.9-.2 1.3s-.3.8-.6 1.2c-.3.4-.7.6-1.1.9-.5.2-1 .3-1.7.3-.9 0-1.5-.2-2-.5s-.7-.8-.7-1.5c0-.5.1-.8.4-1.1.3-.3.7-.6 1.2-.7.5-.2 1.1-.3 1.7-.4.7-.1 1.3-.1 1.9-.1h1.1zM155.7 8.8c-.8-.2-1.7-.3-2.6 0-.4.1-.9.3-1.3.5s-.7.5-1 .8l-.3.3V8.9h-3.2v14.4h3.2v-7.2c0-1.4.3-2.5.9-3.2.6-.7 1.5-1 2.7-1 .2 0 .4 0 .6.1.2 0 .4.1.6.1l.4.1.1-3.4h-.1z"/></svg>