<svg width="197" height="37" xmlns="http://www.w3.org/2000/svg"><path d="M186.365 28.792c.211 0 .411.047.604.135.188.088.357.215.496.377.142.162.254.354.338.573.085.22.127.454.127.704 0 .25-.035.473-.111.692-.074.22-.174.412-.304.577a1.383 1.383 0 0 1-.47.389 1.35 1.35 0 0 1-.615.138h-2.515v-3.585h2.45Zm.061-.973h-3.6v8.631h1.096v-3.1h2.577c.381 0 .727-.077 1.039-.23a2.55 2.55 0 0 0 .804-.62c.223-.258.396-.554.515-.888.123-.331.181-.677.181-1.035 0-.358-.066-.673-.196-1.004a3.1 3.1 0 0 0-.543-.888 2.6 2.6 0 0 0-.827-.631 2.338 2.338 0 0 0-1.05-.238m-21.811 4.315c0-.423.069-.835.208-1.239.138-.403.334-.765.588-1.08.254-.316.565-.573.931-.766a2.57 2.57 0 0 1 1.238-.292c.462 0 .835.092 1.196.28.362.185.673.435.935.747.265.311.465.673.608 1.08a3.866 3.866 0 0 1 .015 2.497c-.135.404-.327.769-.585 1.088-.253.32-.565.581-.93.777a2.577 2.577 0 0 1-1.239.296c-.461 0-.85-.092-1.215-.277a2.924 2.924 0 0 1-.939-.753 3.665 3.665 0 0 1-.603-1.089 3.805 3.805 0 0 1-.212-1.27m-.796-1.653a4.46 4.46 0 0 0-.312 1.654c0 .577.096 1.088.293 1.615.196.527.469.996.827 1.404.357.412.784.739 1.28.985a3.7 3.7 0 0 0 1.662.373c.611 0 1.123-.12 1.623-.358a4.09 4.09 0 0 0 1.288-.961c.362-.4.647-.866.85-1.393a4.508 4.508 0 0 0 .02-3.25 4.587 4.587 0 0 0-.827-1.404 4.304 4.304 0 0 0-1.277-1.003 3.575 3.575 0 0 0-1.654-.385 3.64 3.64 0 0 0-1.623.358c-.5.238-.931.561-1.296.965-.366.404-.65.873-.858 1.4m-4.346-1.688c.211 0 .411.046.604.138.188.092.357.223.5.389.142.165.254.357.338.569.085.215.127.446.127.688 0 .242-.038.462-.108.681-.073.22-.173.412-.303.577a1.5 1.5 0 0 1-.47.396c-.18.096-.388.146-.615.146h-2.615V28.79h2.542Zm.061-.974h-3.696v8.631h1.093v-3.1h2.284l1.969 3.1h1.239l-2.092-3.307c.276-.074.523-.189.746-.354a2.44 2.44 0 0 0 .573-.585c.157-.227.281-.48.365-.758.085-.28.127-.569.127-.869 0-.338-.065-.673-.196-1.004a3.119 3.119 0 0 0-.542-.888 2.62 2.62 0 0 0-.827-.63 2.349 2.349 0 0 0-1.054-.24m-12.035 1.247c-.357.4-.634.861-.838 1.384a4.525 4.525 0 0 0-.304 1.658c0 .58.104 1.104.311 1.63.208.528.489.997.847 1.405.357.407.78.738 1.269.992.492.25 1.023.377 1.6.377.988 0 1.865-.412 2.627-1.227v1.165h.923V32.14h-2.785v.826h1.862v1.193c-.754.907-1.6 1.361-2.543 1.361-.43 0-.826-.088-1.192-.269a2.94 2.94 0 0 1-.95-.734 3.643 3.643 0 0 1-.861-2.389c0-.438.069-.862.207-1.27.139-.407.331-.768.585-1.08.25-.312.554-.562.911-.754a2.473 2.473 0 0 1 1.193-.284c.534 0 1.015.123 1.446.365.431.242.773.615 1.035 1.12l.838-.585a3.473 3.473 0 0 0-1.235-1.362c-.538-.35-1.227-.523-2.061-.523a3.68 3.68 0 0 0-1.604.354 4.021 4.021 0 0 0-1.277.954m27.008 4.365a5.98 5.98 0 0 1-.127-1.246v-4.365h-1.096v4.365c0 .55.065 1.088.188 1.611.127.523.331.985.619 1.385.289.4.666.723 1.139.965.469.243 1.05.366 1.738.366.689 0 1.231-.116 1.696-.346.466-.231.843-.547 1.135-.943.292-.396.504-.857.639-1.38.134-.523.2-1.077.2-1.658v-4.365h-1.097v4.365c0 .415-.042.82-.123 1.223-.08.4-.219.758-.419 1.07-.2.31-.461.565-.796.76-.331.197-.75.293-1.25.293s-.908-.096-1.235-.285a2.254 2.254 0 0 1-.788-.746 3.166 3.166 0 0 1-.427-1.065M194.039 11.801c-.335 0-.646-.054-.931-.165a2.28 2.28 0 0 1-.742-.466 2.08 2.08 0 0 1-.485-.703 2.234 2.234 0 0 1-.173-.885c0-.32.058-.608.173-.877.116-.27.277-.504.485-.704.208-.2.458-.354.742-.461.285-.108.596-.166.931-.166.335 0 .65.054.935.166.288.111.538.265.75.461.211.2.38.431.5.704.119.27.177.562.177.877 0 .315-.062.615-.177.885-.12.269-.285.503-.5.703-.212.2-.466.358-.75.466-.289.111-.6.165-.935.165Zm.008-.35c.365 0 .696-.08.992-.238.296-.158.527-.381.7-.658.169-.28.254-.6.254-.961 0-.262-.05-.504-.146-.731a1.791 1.791 0 0 0-.408-.593 1.89 1.89 0 0 0-.619-.4 2.056 2.056 0 0 0-.777-.146 1.97 1.97 0 0 0-1.389.543 1.83 1.83 0 0 0-.4.588c-.096.223-.142.47-.142.73a1.831 1.831 0 0 0 1.154 1.724c.235.096.496.142.777.142h.004ZM193.02 8.24h1.211a.79.79 0 0 1 .454.134.985.985 0 0 1 .312.343.87.87 0 0 1 .057.738.966.966 0 0 1-.157.265.847.847 0 0 1-.227.193l.608.984h-.77l-.534-.854h-.258v.854h-.696V8.24Zm1.146 1.238a.263.263 0 0 0 .192-.077c.05-.05.073-.134.073-.254 0-.119-.027-.207-.084-.257a.274.274 0 0 0-.193-.073h-.438v.657h.45v.004ZM99.244 13.825v-.012c0-.438-.05-.87-.139-1.285a6.103 6.103 0 0 0-.407-1.215 6.47 6.47 0 0 0-.885-1.408c-.046-.053-.092-.111-.139-.165a6.93 6.93 0 0 0-1.807-1.45 7.408 7.408 0 0 0-3.6-.923 7.407 7.407 0 0 0-3.593.92 7.005 7.005 0 0 0-1.307.945 7.005 7.005 0 0 0-1.308-.946 7.386 7.386 0 0 0-3.6-.923c-1.32 0-2.546.339-3.596.92a6.854 6.854 0 0 0-1.815 1.457 4.919 4.919 0 0 0-.135.162c-.354.427-.654.9-.885 1.4a5.997 5.997 0 0 0-.542 2.223v8.338a2.079 2.079 0 0 0 4.142 0h.004V13.736c.081-1.227 1.312-2.2 2.823-2.2 1.512 0 2.785 1.008 2.827 2.266v.011c0 .05 0 .096.004.146v7.901h.004a2.075 2.075 0 0 0 4.135 0v-.09l.003-.16v-7.616l.004-.196v-.066c.081-1.227 1.312-2.2 2.823-2.2 1.512 0 2.789 1.008 2.831 2.266v.065l.004 6.173v1.824h.004a2.073 2.073 0 0 0 2.069 1.907 2.073 2.073 0 0 0 2.07-1.908h.003v-8.046l.008.012ZM126.046 13.825v-.012c0-.438-.05-.87-.142-1.285a6.143 6.143 0 0 0-.408-1.215 6.472 6.472 0 0 0-.885-1.408c-.046-.053-.092-.111-.138-.165a6.928 6.928 0 0 0-1.808-1.45 7.387 7.387 0 0 0-3.6-.923 7.411 7.411 0 0 0-3.596.92 7.027 7.027 0 0 0-1.308.945 7.09 7.09 0 0 0-1.303-.946 7.387 7.387 0 0 0-3.6-.923c-1.32 0-2.547.339-3.593.92a6.862 6.862 0 0 0-1.815 1.457c-.046.054-.092.108-.135.162a6.38 6.38 0 0 0-.884 1.4 6.078 6.078 0 0 0-.543 2.223v8.338a2.082 2.082 0 0 0 2.073 1.908 2.073 2.073 0 0 0 2.07-1.908h.003V13.736c.081-1.227 1.312-2.2 2.824-2.2 1.511 0 2.788 1.008 2.83 2.266v.011c0 .05 0 .096.004.146v7.901h.004a2.073 2.073 0 0 0 2.069 1.907 2.08 2.08 0 0 0 2.069-1.908v-.088l.004-.162v-7.615l.004-.196v-.066c.081-1.227 1.316-2.2 2.823-2.2 1.508 0 2.789 1.008 2.827 2.266v.065l.004 6.173v1.824h.004a2.072 2.072 0 0 0 2.069 1.907 2.072 2.072 0 0 0 2.069-1.908h.004v-8.046l.004.012ZM156.165 7.367h-.146a.947.947 0 0 0-.147.011c-1.965.127-3.834 1.154-4.603 3.024V9.44a2.073 2.073 0 0 0-2.074-2.077c-1.146 0-2.076.93-2.076 2.077v.08l.003 12.093v.25h.004a2.076 2.076 0 0 0 4.139 0h.004V15.81c0-3.011 3.003-4.057 4.815-4.265h.035c.042 0 .084 0 .126-.004.058 0 .116-.008.174-.015a2.093 2.093 0 0 0 1.796-2.07 2.088 2.088 0 0 0-2.05-2.088ZM48.575 11.532c.923 0 1.773.316 2.45.835l.05.042.1.073c.342.247.758.389 1.208.389a2.086 2.086 0 0 0 1.327-3.693 8.157 8.157 0 0 0-5.139-1.815 8.181 8.181 0 0 0-6.48 3.177l-.02.023a8.16 8.16 0 0 0-1.704 5.004 8.204 8.204 0 0 0 13.316 6.415c.477-.38.784-.969.784-1.627 0-1.15-.934-2.084-2.084-2.084-.492 0-.946.173-1.3.457a4.02 4.02 0 0 1-2.508.877 4.038 4.038 0 0 1-4.038-4.038c0-.873.28-1.677.75-2.335a4.034 4.034 0 0 1 3.288-1.704M166.673 11.532c.924 0 1.774.316 2.45.835l.05.042.1.073c.343.247.758.389 1.208.389 1.15 0 2.085-.935 2.085-2.085 0-.646-.296-1.223-.758-1.608a8.157 8.157 0 0 0-5.138-1.815 8.181 8.181 0 0 0-6.481 3.177l-.019.023c-.077.1-.15.2-.223.3a8.204 8.204 0 0 0 11.83 11.12c.477-.381.785-.97.785-1.628a2.081 2.081 0 0 0-3.385-1.627 4.018 4.018 0 0 1-2.507.877 4.038 4.038 0 0 1-4.039-4.038c0-.873.281-1.677.75-2.335a4.035 4.035 0 0 1 3.289-1.704M67.304 18.705a3.915 3.915 0 0 1-2.708 1.097c-2.23 0-4.038-1.893-4.038-4.231 0-1.246.515-2.362 1.33-3.135a3.922 3.922 0 0 1 2.708-1.096c2.231 0 4.039 1.892 4.039 4.23a4.303 4.303 0 0 1-1.33 3.132M64.595 7.367c-2.05 0-3.923.754-5.361 1.996a8.204 8.204 0 0 0 5.361 14.412c2.05 0 3.923-.754 5.362-2l.011-.012h.008l.008-.015a8.185 8.185 0 0 0 2.815-6.181 8.204 8.204 0 0 0-8.204-8.204M133.094 13.532c.223-1.342 1.396-2.77 3.423-2.77h.042c2.216.02 3.227 1.343 3.393 2.77h-6.858Zm3.612-6.158h-.25c-2.785 0-5.412 1.585-6.727 4.243a8.419 8.419 0 0 0-.943 3.911c0 1.873.593 3.592 1.573 4.923 1.547 2.146 4.085 3.327 6.727 3.327 2.643 0 4.8-1.034 6.035-2.534.273-.32.442-.727.442-1.177 0-.543-.242-1.027-.627-1.362l-.08-.065c-.266-.2-.62-.316-1.023-.297-.447.024-.95.216-1.466.666-.088.08-.177.154-.269.223-.146.115-.289.22-.431.308a4.118 4.118 0 0 1-1.704.627l-.219.023h-.061a4.252 4.252 0 0 1-.316.011c-1.977 0-4.096-1.346-4.369-3.242h9.15l.031-.004a1.966 1.966 0 0 0 1.896-1.958v-.046c0-4.377-3.023-7.461-7.373-7.565M8.387 6.126l-.042.008-.1.03-.139.047c-1.873.596-3.438 2.046-3.734 4.046l-.216-.854-.015-.08A2.08 2.08 0 0 0 .106 10.33l.023.076 2.927 11.735.016.08.023.077.023.085h.004a2.075 2.075 0 0 0 2.469 1.35 2.08 2.08 0 0 0 1.546-2.354h.004l-.02-.084-.015-.081-.023-.077-1.404-5.631c-.727-2.923 1.931-4.665 3.639-5.304l.034-.008.12-.038c.054-.02.111-.038.161-.058a2.089 2.089 0 0 0-1.25-3.973M20.323 9.5l-3.361.839c-.112-1.354.685-3.027 2.654-3.516l.042-.007c2.154-.52 3.454.519 3.962 1.865l-3.293.82h-.004Zm-1.35-6.011c-.046.011-.092.019-.142.03h-.004l-.1.023c-2.7.674-4.865 2.85-5.5 5.747a8.43 8.43 0 0 0 .031 4.023c.454 1.815 1.442 3.338 2.72 4.392 2.019 1.712 4.769 2.238 7.33 1.6 2.512-.627 4.408-2.165 5.242-3.92.189-.376.254-.81.143-1.25a1.8 1.8 0 0 0-.935-1.168l-.092-.043a1.543 1.543 0 0 0-1.066-.038c-.427.13-.869.438-1.257 1-.07.1-.139.192-.208.28-.115.147-.227.281-.346.404a4.028 4.028 0 0 1-1.5 1.016c-.07.027-.139.05-.208.073l-.058.02c-.1.03-.2.06-.3.084-1.919.48-4.3-.316-5.023-2.089l3.454-.861 5.385-1.343.038-.011.031-.012a1.972 1.972 0 0 0 1.366-2.357l-.012-.039v-.008c-1.058-4.246-4.738-6.507-8.985-5.557M178.816 13.532c.223-1.342 1.396-2.77 3.423-2.77h.043c2.215.02 3.227 1.343 3.392 2.77h-6.858Zm3.612-6.158h-.25c-2.785 0-5.412 1.585-6.727 4.243a8.418 8.418 0 0 0-.942 3.911c0 1.873.592 3.592 1.573 4.923 1.546 2.146 4.084 3.327 6.727 3.327 2.642 0 4.8-1.034 6.034-2.534.273-.32.442-.727.442-1.177 0-.543-.242-1.027-.623-1.362l-.08-.065c-.266-.2-.62-.316-1.023-.297-.447.024-.95.216-1.466.666-.088.08-.177.154-.269.223-.146.115-.289.22-.431.308a4.118 4.118 0 0 1-1.923.65h-.061a4.252 4.252 0 0 1-.316.011c-1.977 0-4.096-1.346-4.369-3.242h9.15l.031-.004a1.966 1.966 0 0 0 1.896-1.958v-.046c0-4.377-3.023-7.461-7.373-7.565" fill="#101010"/><path d="M35.007 21.843a2.552 2.552 0 0 1-3.092 1.858 2.554 2.554 0 0 1-1.858-3.093 2.552 2.552 0 0 1 3.092-1.857 2.552 2.552 0 0 1 1.858 3.092ZM33.75 16.371a2.078 2.078 0 0 1-1.509-2.508L35.18 2.08A2.076 2.076 0 0 1 37.684.57a2.078 2.078 0 0 1 1.507 2.508l-2.938 11.784a2.078 2.078 0 0 1-2.508 1.508" fill="#206C71"/></svg>