<svg width="144" height="26" viewBox="0 0 144 26" fill="none" xmlns="http://www.w3.org/2000/svg">
<path d="M40.0007 8.12199C42.9315 6.34392 46.8268 7.19189 48.8699 9.97161H51.525C49.1587 5.35817 43.3104 3.50591 38.8639 6.19553C37.0859 7.22368 35.382 9.26939 34.0703 10.8964C33.1084 12.0783 32.1306 13.2336 31.1395 14.3943C29.9365 15.7828 28.8129 17.1475 27.6682 18.5519C25.3734 21.4774 22.6891 23.8623 18.7884 22.8209C13.5761 21.3687 11.8431 14.3572 14.9382 10.1862C17.3602 6.63541 22.5566 6.13193 25.5085 9.31179C23.5238 11.588 20.964 14.5188 18.8467 16.9461H21.8199C24.0008 14.4473 26.3936 11.7099 28.434 9.36479C25.5085 4.90769 19.7954 3.49001 15.3701 6.63011C9.98555 10.385 9.75501 19.1561 14.8825 23.2369C17.4132 25.378 21.1203 25.9133 24.1385 24.5645L24.1226 24.5565C26.6109 23.5019 28.4287 21.162 30.1008 19.1243C31.9106 16.9116 33.8159 14.7546 35.6258 12.5446C36.903 10.9706 38.3445 9.11835 40.0007 8.12199Z" fill="#00330A" stroke="#00330A"/>
<path d="M3.46173 8.50909L3.15435 5.31599H1V24.9012H3.50148V13.9731C3.44054 9.03641 5.93142 6.38124 9.734 7.35639V5.16229C7.21661 4.30638 4.34149 5.80886 3.46173 8.50909Z" fill="#00330A" stroke="#00330A"/>
<path d="M68.531 16.7427C68.531 20.5903 66.4137 23.052 62.9901 23.052C59.8739 23.052 58.064 21.0514 58.064 17.7046V5.31641H55.5625V18.1683C55.5625 22.5168 58.1779 25.2859 62.219 25.2859C65.1047 25.2859 67.3359 24.0166 68.5681 21.7456L68.8755 24.9017H71.0298V5.31641H68.5284V16.7427H68.531Z" fill="#00330A" stroke="#00330A"/>
<path d="M78.7625 8.50909L78.4551 5.31599H76.3008V24.9012H78.8023V13.9731C78.7413 9.03641 81.2322 6.38124 85.0348 7.35639V5.16229C82.5174 4.30638 79.6449 5.80886 78.7625 8.50909Z" fill="#00330A" stroke="#00330A"/>
<path d="M102.889 9.04691C101.427 6.39173 98.7714 4.96875 95.7718 4.96875C90.6549 4.96875 86.9609 9.12376 86.9609 15.1257C86.9609 21.1277 90.6549 25.2827 95.7718 25.2827C98.8509 25.2827 101.466 23.7829 102.929 21.0509L103.236 24.8985H105.354V5.31589H103.199L102.889 9.04691ZM96.2726 23.0515C92.2713 23.0515 89.5393 19.8584 89.5393 15.1257C89.428 4.49972 103.07 4.50237 102.966 15.1257C102.966 19.8213 100.234 23.0515 96.2726 23.0515Z" fill="#00330A" stroke="#00330A"/>
<path d="M142.001 18.5493H139.104C136.81 21.4747 134.128 23.8596 130.225 22.8182C125.01 21.3661 123.279 14.3545 126.374 10.1836C128.796 6.63278 133.995 6.1293 136.945 9.30916C135.069 11.4609 132.557 14.3413 130.283 16.9435H133.253C135.723 14.116 137.917 11.6013 139.868 9.36215C136.942 4.90771 131.229 3.48738 126.804 6.62748C121.419 10.3824 121.189 19.1535 126.316 23.2343C128.847 25.3754 132.554 25.9106 135.572 24.5619L135.556 24.5539C138.283 23.388 140.151 20.7593 142.001 18.5493Z" fill="#00330A" stroke="#00330A"/>
<path d="M116.635 5.316V0.697266H113.925V5.316H113.721H109.502V7.50745H113.721H113.925V24.8986H116.635V7.50745H116.839H121.058V5.316H116.839H116.635Z" fill="#00330A" stroke="#00330A"/>
<path d="M45.1834 22.8183C41.8684 23.7431 39.1152 22.0021 37.051 19.4344C37.051 19.4344 37.0483 19.4344 37.0483 19.4317L33.4551 15.123V18.7136L35.5644 21.133C35.5644 21.133 35.5644 21.133 35.567 21.1356C36.4839 22.1956 37.7664 23.4304 38.8608 24.0478C43.3206 26.7428 49.1821 24.8719 51.5378 20.24H48.888C47.9261 21.5066 46.6197 22.4182 45.1834 22.8183Z" fill="#00330A" stroke="#00330A"/>
</svg>