<svg xmlns="http://www.w3.org/2000/svg" viewBox="0 0 803.5 135.5" width="803.5" height="135.5" xml:space="preserve" fill="#000"><path d="M35 28.5v11.9c-17.9 0-23.1 14.1-23.1 30.8v37.4H0V30.5h11.7v13.1A24.3 24.3 0 0 1 35 28.5zm678.2 0v11.9c-17.9 0-23.1 14.1-23.1 30.8v37.4h-11.9V30.5h11.7v13.1a24.3 24.3 0 0 1 23.3-15.1zm49.6 0c-23.3 0-40.9 17.4-40.9 41s17.3 41 40.7 41 40.9-17.6 40.9-41-17.1-41-40.7-41zm-.2 71.3c-16.7 0-28.5-12.6-28.5-30.2s11.7-30.2 28.5-30.2 28.8 12.9 28.8 30.2-11.9 30.2-28.8 30.2zM586 69.9c0-24.9 17.1-41.3 37.9-41.3 23 0 37.1 16.5 37.1 40 0 .4 0 2.1-.2 3.6h-62.7c.2 17.4 11.9 27.9 28.1 27.9 13.2 0 20.6-6.9 24.3-12.2l7.8 5.7a36.4 36.4 0 0 1-32.3 17c-23.7 0-40.1-16.7-40-40.7zm12.7-6.6h50c-.8-16.2-12-24.5-24.9-24.5s-24.2 9.7-25.1 24.5zm-57.2-34.8c18.2 0 27.7 13.5 27.7 31.2v48.8h-11.9V59.3c0-12.5-8-20-18.5-20-12 0-20.4 8.9-20.4 21.8v47.5h-11.9V0h11.9v41.8a26.3 26.3 0 0 1 23.1-13.3z"/><g fill="#adef2f"><path d="M483.9 69.3c0-24.6-14-41-37.7-41-21.5 0-38.2 17.1-38.2 41.5a39 39 0 0 0 40.7 40.9c18.6 0 29-10.7 32.8-17.1l-10.8-8.1c-3 4.4-9.8 11-21.6 11-14 0-24-9-24.3-23h59l.1-4.2zm-58.6-7.2c1.1-12.3 9.8-20.1 21-20.1 11.3 0 20.3 7.2 20.9 20.1h-41.9zM375.7 0h16.4v108.6h-16.4zM360.4 37.9l-5 13.8a30 30 0 0 0-20.7-8.6c-14.9 0-24.8 11.4-24.8 26.3S320.7 96 335.3 96c10.1 0 17.1-5.7 20.4-8.7l4.7 13.5a39.2 39.2 0 0 1-26 9.8c-23.9 0-41-17.6-41-41.2s17.6-41.2 40.9-41.2c12.9.1 21.6 5.8 26.1 9.7zm-115.7 97.6h-15.8l11.1-28.2-31.1-77.1h17.6l21.2 57.1 20.9-57.1h17.1l-41 105.3zm-42.8-97.6-5 13.8a30 30 0 0 0-20.7-8.6c-14.9 0-24.8 11.4-24.8 26.3S162.2 96 176.8 96c10.1 0 17.1-5.7 20.4-8.7l4.7 13.5a39.2 39.2 0 0 1-26 9.8c-23.9 0-41-17.6-41-41.2s17.6-41.2 40.9-41.2c12.8.1 21.5 5.8 26.1 9.7z"/></g><path d="M42.4 69.9c0-24.9 17.1-41.3 37.9-41.3 23 0 37.1 16.5 37.1 40 0 .4 0 2.1-.2 3.6H54.5c.2 17.4 11.9 27.9 28.1 27.9 13.2 0 20.6-6.9 24.3-12.2l7.8 5.7a36.4 36.4 0 0 1-32.3 17c-23.7 0-40-16.7-40-40.7zm12.7-6.6h50c-.8-16.2-12-24.5-24.9-24.5S56 48.5 55.1 63.3z"/></svg>