<svg width="140" height="30" viewBox="0 0 123 26" fill="#1f2323" xmlns="http://www.w3.org/2000/svg"><path d="M1.72 7.975.744 13.52a.168.168 0 0 0 .138.195l3.282.578 4.402-2.54a.538.538 0 0 1 .736.196l.288.498.526-2.993a.168.168 0 0 0-.137-.196l-8.063-1.42a.17.17 0 0 0-.196.138Z"/><path d="m4.387 21.863 2.887-1.667 1.738-4.777a.54.54 0 0 1 .691-.323l.54.196-.224-.389-.663-1.15-.632-1.094a.172.172 0 0 0-.23-.061l-7.09 4.1a.172.172 0 0 0-.062.23L4.156 21.8c.049.082.152.11.23.062ZM25.928 7.975a.17.17 0 0 0-.196-.137l-3.282.577-3.265 3.897a.54.54 0 0 1-.76.066l-.44-.371.08.44.23 1.309.22 1.244a.17.17 0 0 0 .195.137l8.063-1.423a.17.17 0 0 0 .137-.195l-.982-5.544Z"/><path d="M11.714 17.94a.536.536 0 0 1 .323-.69l.54-.197-2.856-1.037a.172.172 0 0 0-.216.1l-1.29 3.535-.374 1.025-1.14 3.13a.172.172 0 0 0 .099.217l5.289 1.924a.172.172 0 0 0 .216-.1l1.142-3.13-1.733-4.777Z"/><path d="m19.803 20.678-4.402-2.54a.535.535 0 0 1-.196-.735l.289-.499-2.856 1.038a.17.17 0 0 0-.1.217l2.801 7.694a.17.17 0 0 0 .217.1l5.289-1.925a.167.167 0 0 0 .1-.216l-1.142-3.134Z"/><path d="m26.244 16.695-2.887-1.667-5.004.884a.541.541 0 0 1-.626-.437l-.1-.567-1.518 2.633a.166.166 0 0 0 .062.23l7.09 4.093a.17.17 0 0 0 .23-.062l2.814-4.877a.171.171 0 0 0-.061-.23Zm-7.521-5.181a.169.169 0 0 0 .237-.021l2.42-2.883.7-.835 2.141-2.554a.168.168 0 0 0-.02-.237l-4.313-3.619a.168.168 0 0 0-.237.021l-2.142 2.553v5.083c0 .3-.24.54-.54.54h-.576l2.33 1.952Zm-8.146-2.856a.54.54 0 0 1 .437.625l-.1.567 2.327-1.952a.169.169 0 0 0 .02-.237L8 1.386a.168.168 0 0 0-.237-.02L3.449 4.983a.168.168 0 0 0-.02.237l2.14 2.554 5.008.883Z"/><path d="m13.824 7.239.285.34a.54.54 0 0 1-.065.76l-.44.37h3.038a.169.169 0 0 0 .168-.168V.352a.169.169 0 0 0-.168-.168h-5.633a.169.169 0 0 0-.168.168v3.333l2.983 3.554Zm30.693-.69-.886 1.86c-.059-.028-.688-.544-1.946-.544-1.945 0-3.546 1.773-3.546 4.488v7.863h-2.172V6.206h1.828l.316 1.858c.657-1.171 2-2.257 3.832-2.257 1.63-.004 2.46.684 2.574.742Zm6.977 14.064c-4.289 0-6.976-3.344-6.976-7.406 0-4.032 2.945-7.406 6.949-7.406 3.918.027 6.574 2.773 6.574 7.062v.945H46.662c.114 2.773 2.031 4.945 4.832 4.945 2.23 0 3.774-1.285 4.23-2.715l1.915.602c-.711 2.055-2.77 3.973-6.145 3.973Zm4.516-8.606c-.172-2.43-1.973-4.344-4.516-4.344-2.773 0-4.46 1.973-4.804 4.344h9.32Zm10.41 8.606c-4.288 0-6.976-3.344-6.976-7.406 0-4.032 2.945-7.406 6.95-7.406 3.917.027 6.574 2.773 6.574 7.062v.945h-11.38c.114 2.773 2.032 4.945 4.833 4.945 2.23 0 3.773-1.285 4.23-2.715l1.915.602c-.715 2.055-2.774 3.973-6.145 3.973Zm4.517-8.606c-.172-2.43-1.973-4.344-4.516-4.344-2.774 0-4.461 1.973-4.805 4.344h9.32ZM76.483.203v8.035c1.03-1.371 2.629-2.43 4.917-2.43 4.489 0 6.66 3.746 6.66 7.375 0 3.602-2.429 7.406-6.66 7.406-2.457 0-4.058-1.144-4.976-2.43l-.285 2.059H74.31V.203h2.171Zm4.69 18.44c2.802 0 4.72-2.315 4.72-5.46 0-3.172-1.915-5.433-4.72-5.433-2.831 0-4.718 2.289-4.718 5.433 0 3.145 1.887 5.46 4.719 5.46Zm15.297 1.97c-4.288 0-6.976-3.344-6.976-7.406 0-4.032 2.945-7.406 6.95-7.406 3.917.027 6.574 2.773 6.574 7.062v.945h-11.38c.114 2.773 2.032 4.945 4.833 4.945 2.23 0 3.773-1.285 4.23-2.715l1.915.602c-.715 2.055-2.774 3.973-6.145 3.973Zm4.517-8.606c-.172-2.43-1.973-4.344-4.516-4.344-2.774 0-4.461 1.973-4.805 4.344h9.321ZM104.419.203h2.172v20.011h-2.172V.204Zm10.723 20.41c-4.601 0-7.148-3.746-7.148-7.406 0-3.688 2.66-7.406 7.148-7.406 4.574 0 7.203 3.715 7.203 7.406 0 3.66-2.629 7.405-7.203 7.405Zm0-1.973c2.973 0 5.032-2.371 5.032-5.433 0-3.086-2.059-5.434-5.032-5.434-2.945 0-4.976 2.344-4.976 5.434 0 3.058 2.031 5.433 4.976 5.433Z"/></svg>