<svg version="1.0" height="40" viewBox="0 0 67.5 30" width="90" xmlns="http://www.w3.org/2000/svg"><defs><clipPath id="a"><path d="M6 6.79h11V20H6Zm0 0"/></clipPath><clipPath id="b"><path d="M2.152 10H13v10H2.152Zm0 0"/></clipPath></defs><path d="M23.964 16.296h-5.969c.05.742.332 1.34.844 1.797.52.46 1.176.687 1.968.687.438 0 .836-.078 1.204-.234.375-.164.695-.399.968-.703l.547.625c-.312.375-.71.664-1.187.86-.469.198-.992.296-1.563.296-.742 0-1.39-.156-1.953-.469a3.418 3.418 0 0 1-1.328-1.297c-.313-.55-.469-1.175-.469-1.875 0-.687.149-1.304.453-1.859.301-.55.72-.984 1.25-1.297a3.447 3.447 0 0 1 1.782-.469c.664 0 1.257.157 1.78.47.532.312.942.745 1.235 1.296.301.543.453 1.164.453 1.86Zm-3.453-3.11c-.688 0-1.266.227-1.735.672-.46.438-.719 1.012-.781 1.72h5.062c-.062-.708-.328-1.282-.796-1.72-.47-.445-1.055-.671-1.75-.671ZM28.305 10.233c-.418 0-.734.118-.953.344-.21.219-.312.555-.312 1v.844h2.203v.812H27.07v6.329h-.969v-6.329h-1.265v-.812h1.265v-.89c0-.645.188-1.157.563-1.532.383-.383.922-.578 1.61-.578.269 0 .53.043.78.125.25.074.461.183.641.328l-.328.719c-.281-.239-.637-.36-1.063-.36ZM36.986 12.42v7.142h-.921v-1.297c-.25.43-.602.761-1.047 1-.45.242-.953.359-1.516.359-.937 0-1.68-.258-2.219-.781-.53-.52-.797-1.281-.797-2.281V12.42h.954v4.047c0 .75.187 1.324.562 1.719.375.386.906.578 1.594.578.75 0 1.336-.227 1.765-.688.438-.457.657-1.094.657-1.906v-3.75ZM40.609 13.812a2.326 2.326 0 0 1 1.015-1.079c.446-.25 1-.375 1.657-.375v.938h-.22c-.76 0-1.355.23-1.78.687-.418.461-.625 1.106-.625 1.938v3.64h-.97v-7.14h.923ZM48.82 12.358c.663 0 1.269.157 1.812.47.539.304.96.73 1.265 1.28.313.555.47 1.18.47 1.875 0 .711-.157 1.34-.47 1.891a3.312 3.312 0 0 1-1.265 1.297 3.64 3.64 0 0 1-1.813.453c-.605 0-1.148-.125-1.625-.375a2.917 2.917 0 0 1-1.14-1.094v1.407h-.922V9.483h.968v4.297c.29-.468.672-.82 1.141-1.062.469-.239.992-.36 1.578-.36Zm-.079 6.422c.5 0 .953-.113 1.36-.343.406-.239.722-.567.953-.985.238-.426.359-.914.359-1.469 0-.539-.121-1.02-.36-1.437a2.436 2.436 0 0 0-.953-.984 2.638 2.638 0 0 0-1.359-.36c-.5 0-.953.121-1.36.36-.406.23-.726.558-.952.984-.23.418-.344.898-.344 1.437 0 .555.113 1.043.344 1.47.226.417.546.745.953.984.406.23.86.343 1.36.343ZM54.338 9.483h.968v10.079h-.968ZM63.99 12.42l-3.563 8c-.292.665-.632 1.142-1.015 1.423-.375.281-.828.422-1.36.422-.355 0-.683-.059-.984-.172a2.046 2.046 0 0 1-.766-.485l.454-.718c.363.363.796.547 1.296.547.333 0 .614-.094.844-.282.227-.18.442-.484.64-.922l.313-.687-3.187-7.125h1l2.687 6.062 2.688-6.062Zm0 0"/><g clip-path="url(#a)"><path d="M12.637 15.574c1.199 0 2.289-.488 3.086-1.293A4.346 4.346 0 0 0 17 11.18c0-1.207-.488-2.301-1.277-3.102a4.321 4.321 0 0 0-3.086-1.289H6.53v1.75h6.106c.715 0 1.37.297 1.851.774.477.484.774 1.14.774 1.863 0 .73-.297 1.386-.774 1.863a2.586 2.586 0 0 1-1.851.785H6.535v1.746H9.63l3.812 4.41h2.297l-3.808-4.406Zm0 0"/></g><g clip-path="url(#b)"><path d="M7.113 18.238c-.883 0-1.683-.36-2.265-.953a3.21 3.21 0 0 1-.95-2.289c0-.879.36-1.691.95-2.273a3.154 3.154 0 0 1 2.265-.957h5.067v-1.758H7.12a4.887 4.887 0 0 0-3.5 1.476 4.93 4.93 0 0 0-1.469 3.512c0 1.379.559 2.629 1.47 3.527A4.907 4.907 0 0 0 7.121 20h3.054v-.012l-1.508-1.746H7.113Zm0 0"/></g></svg>