<svg width="109" height="32" fill="none" xmlns="http://www.w3.org/2000/svg"><g clip-path="url(#a)" fill="#332E80"><path fill-rule="evenodd" clip-rule="evenodd" d="M27.447 17.055h-.001c.064-.344.085-.645.085-.988 0-3.785-2.808-6.58-6.603-6.58-3.794 0-6.603 2.881-6.603 6.58 0 3.697 2.873 6.58 6.668 6.58 2.123 0 4.095-.84 5.467-2.582l-2.55-1.849c-.687.882-1.694 1.42-2.83 1.42-1.672 0-3.002-1.055-3.43-2.581H27.447Zm-3.173-2.387c-.472-1.42-1.736-2.28-3.28-2.28-1.544 0-2.787.882-3.26 2.28h6.54Z"/><path d="m9.433 11.223-.129-1.48H6.29v12.645h3.299v-9.345c1.239.339 3.724.487 4.888-3.192-2.94-.936-4.367.244-5.043 1.372Z"/><path fill-rule="evenodd" clip-rule="evenodd" d="M.113 16c0 8.822 7.156 16 15.951 16 8.796 0 15.951-7.178 15.951-16S24.86 0 16.065 0C7.268 0 .112 7.178.112 16Zm1.98 0c0-7.727 6.267-14.013 13.971-14.013S30.034 8.273 30.034 16s-6.266 14.013-13.97 14.013c-7.704 0-13.97-6.286-13.97-14.013ZM79.346 16.066c0 3.806-2.765 6.58-6.367 6.58-1.587 0-2.83-.56-3.687-1.463v1.204h-3.13V4.982h3.301v5.771c.88-.795 2.08-1.269 3.516-1.269 3.602 0 6.367 2.796 6.367 6.58v.002ZM76.002 16c0-2.021-1.458-3.484-3.387-3.484-1.93 0-3.408 1.463-3.408 3.484s1.479 3.505 3.408 3.505c1.93 0 3.388-1.463 3.388-3.505Z"/><path d="M38.436 9.781h1.694v2.882h-1.694v9.725h-3.259v-9.725h-1.222V9.781h1.222V8.79c0-2.99 1.822-3.806 4.244-3.806h1.308v2.945h-1.2c-.794 0-1.094.28-1.094 1.053v.8ZM53.442 9.744H50.097v7.505c0 1.42-.922 2.28-2.208 2.28-1.287 0-2.101-.84-2.101-2.28V9.744h-3.323v8.085c0 2.946 1.95 4.817 4.716 4.817 1.244 0 2.359-.43 3.066-1.269v1.01h3.195V9.745ZM94.025 17.055h.002-.002Z"/><path fill-rule="evenodd" clip-rule="evenodd" d="M94.111 16.067c0 .343-.021.644-.086.988H84.23c.43 1.526 1.759 2.58 3.43 2.58 1.136 0 2.144-.537 2.83-1.419l2.55 1.85c-1.372 1.74-3.343 2.58-5.466 2.58-3.795 0-6.668-2.882-6.668-6.58 0-3.697 2.808-6.58 6.603-6.58s6.603 2.796 6.603 6.58Zm-6.538-3.679c1.545 0 2.809.86 3.28 2.28h-6.538c.472-1.398 1.715-2.28 3.258-2.28ZM105.564 4.983h3.323v17.405h-3.151v-1.205c-.858.904-2.101 1.463-3.687 1.463-3.602 0-6.368-2.774-6.368-6.58 0-3.805 2.766-6.58 6.368-6.58 1.436 0 2.658.474 3.515 1.27V4.983ZM105.822 16c0-2.021-1.458-3.484-3.409-3.484-1.95 0-3.387 1.463-3.387 3.484s1.479 3.505 3.387 3.505 3.409-1.463 3.409-3.505Z"/><path d="m59.523 9.744.128 1.479c.677-1.128 2.103-2.308 5.044-1.372-1.164 3.68-3.65 3.53-4.888 3.192v9.345h-3.3V9.744h3.016Z"/></g><defs><clipPath id="a"><path fill="#fff" d="M0 0h109v32H0z"/></clipPath></defs></svg>