<svg xmlns="http://www.w3.org/2000/svg" viewBox="0 0 1360 407" width="1360" height="407" class="h-7 pt-0.5 md:h-10 md:pt-0"><path d="M1272.48 264.465c48.03 5.674 78.87 31.421 78.87 68.952 0 43.641-43.18 73.317-102.22 73.317-57.72 0-101.79-28.803-111.04-75.499h56.84c3.97 19.639 24.68 31.858 53.76 31.858s50.23-11.783 50.23-31.421c0-19.639-20.27-33.603-57.72-33.603-19.83 0-44.07 3.927-65.22 9.164v-37.094c35.25-4.801 63.45-14.402 84.16-27.058q-11.895 2.619-26.43 2.619c-53.76 0-89.45-29.676-89.45-75.498 0-48.005 40.1-80.736 100.02-80.736 30.85 0 55.96 8.729 73.59 23.13 4.4-12.219 3.08-30.549 0-44.514h40.97c4.41 25.312-3.96 53.242-22.03 68.516 4.85 9.601 7.49 20.948 7.49 32.731 0 37.967-25.99 72.007-71.82 95.136m-75.79-93.391c0 23.13 18.95 38.404 47.59 38.404s47.59-15.274 47.59-38.404c0-23.129-18.51-38.403-47.59-38.403-28.2 0-47.59 15.274-47.59 38.403M1046.03 89.03c70.94 0 70.94 69.389 70.94 102.119v122.194h-50.23V192.459c0-24.876 0-60.225-38.78-60.225-33.485 0-56.838 29.676-56.838 74.19v106.919h-50.231V95.14h50.231v40.149c14.541-28.802 41.418-46.259 74.908-46.259M854.627 63.715c-18.066 0-32.166-13.965-32.166-31.857 0-17.893 14.1-31.858 32.166-31.858s32.166 13.965 32.166 31.858c0 17.892-14.101 31.857-32.166 31.857m24.675 249.625H829.07V95.137h50.232zm-177.566-48.437 55.96-169.762h52.435l-78.873 218.203h-59.925L592.901 95.141h53.316zM548.663 63.715c-18.066 0-32.166-13.965-32.166-31.857 0-17.893 14.1-31.858 32.166-31.858s32.166 13.965 32.166 31.858c0 17.892-14.1 31.857-32.166 31.857m24.675 249.625h-50.232V95.137h50.232zm-94.027.001h-50.232V7.856h50.232zm-135.95-68.95h54.638c-12.778 45.823-51.994 75.062-107.073 75.062-68.737 0-112.36-45.823-112.36-115.212 0-69.388 44.063-115.21 113.682-115.21 77.551 0 117.648 57.605 96.498 129.175H231.882c4.407 36.222 24.675 57.606 59.926 57.606 24.675 0 44.062-11.346 51.553-31.421m-51.994-113.466c-33.047 0-53.316 18.329-58.603 51.933h108.394c3.084-31.422-14.981-51.933-49.791-51.933M110.597 89.03c34.81 0 57.282 26.185 57.282 62.843 0 15.71-3.966 31.421-10.575 44.513h-52.435c7.491-12.219 11.016-24.002 11.016-34.04 0-17.456-9.694-29.239-25.116-29.239-23.794 0-40.538 29.24-40.538 73.317v106.919H0V95.14h50.232v37.094c11.897-27.057 33.047-43.204 60.365-43.204"/></svg>