<svg xmlns="http://www.w3.org/2000/svg" width="414.35" height="105.52" viewBox="0 0 414.35 105.52"><g fill="#231f20"><path d="m165.43 72.93-7.12-10.63h-5.74v10.63h-7.31v-33.2h15.18c7.83 0 12.52 4.13 12.52 10.96v.09c0 5.36-2.89 8.73-7.12 10.29l8.11 11.86h-8.54Zm.14-21.87c0-3.13-2.18-4.74-5.74-4.74h-7.26v9.54h7.4c3.56 0 5.6-1.9 5.6-4.7v-.1ZM189.06 72.93v-33.2h25.05v6.5h-17.79v6.74h15.65v6.5h-15.65v6.97h18.03v6.5h-25.28ZM253.62 72.93l-16.08-21.11v21.11h-7.21v-33.2h6.74l15.56 20.45V39.73h7.21v33.21h-6.21ZM277.29 72.93v-33.2h25.05v6.5h-17.79v6.74h15.66v6.5h-15.66v6.97h18.03v6.5h-25.29ZM355 73.17h-6.36l-7.5-21.73-7.5 21.73h-6.36l-11.34-33.45h7.83l6.88 22.49 7.45-22.58h6.26l7.45 22.58 6.88-22.49h7.64l-11.34 33.45ZM394.19 72.93h-12.95v-33.2h12.95c10.44 0 17.65 7.16 17.65 16.51v.09c0 9.35-7.21 16.6-17.65 16.6Zm10.01-16.6c0-5.88-4.03-10.01-10.01-10.01h-5.64v20.02h5.64c5.98 0 10.01-4.03 10.01-9.92v-.09Z"/></g><path d="M105.52 52.75c0 29.15-23.63 52.77-52.76 52.77S0 81.9 0 52.75 23.62 0 52.76 0s52.76 23.63 52.76 52.75" fill="#0065ef"/><path d="M78.88 51.69v-1.38c0-11.25-9.15-20.41-20.4-20.41h-9.72c-5.2-.04-10.12-.03-13.78 3.62-2.38 2.38-3.54 5.72-3.54 10.22v30.44h13.14V43.74c0-.23.01-.44.02-.62 1.08-.09 2.73-.09 4.13-.09h9.75c4 0 7.27 3.27 7.27 7.27v1.38c0 3.22-2.11 5.92-5.01 6.88l-7.88-7.89v23.6h23.59l-6.04-6.04c5.13-3.71 8.48-9.73 8.48-16.54" fill="#fff"/></svg>