<svg xmlns="http://www.w3.org/2000/svg" width="314.05" height="50" viewBox="0 0 942.16 150" class="max-w-full"><g data-name="Layer 1"><path class="cls-1" d="M295.41 123.3h-17.52c-1.31 0-2.22-.65-2.22-1.7l-1.31-22.88c-.52-10.33-9.67-11.9-19.74-12.16l-17.52-.52v35.3c0 1.18-.91 1.96-2.09 1.96h-17.38c-1.18 0-2.09-.79-2.09-1.96V28.79c0-1.18 1.05-2.09 2.22-2.09h44.97c20.39 0 33.07 6.41 33.07 26.8 0 13.73-5.49 21.57-22.35 23.53v3.66c14.9.79 22.35 4.32 23.14 22.35l.79 18.17c0 .78-1.05 2.09-1.96 2.09Zm-37.26-81.7H237.1v31.11l18.69-.92c11.37-.52 17.91-3.53 17.91-14.77 0-10.59-4.05-15.42-15.56-15.42ZM373.59 94.15c0 1.7-.65 3.4-3.14 3.4h-42.22c0 5.49 1.83 8.63 5.62 11.11 3.27 1.96 7.71 2.88 14.12 2.88 7.97 0 14.64-2.09 18.04-3.01.13-.13.26-.13.39-.13.91 0 1.7.65 2.09 2.09l1.7 7.19c.13.39.13.65.13.79 0 1.18-.65 1.83-1.44 2.22-4.18 1.7-13.2 4.31-24.31 4.31-25.49 0-36.34-9.41-36.34-35.69s7.58-36.34 32.94-36.34c12.94 0 21.05 3.01 26.01 8.89 4.84 5.88 6.53 14.51 6.53 26.01 0 1.57-.13 4.44-.13 6.27Zm-19.73-9.54c0-3.53-.26-6.41-.79-9.28-1.57-6.8-5.1-9.02-11.63-9.02-8.23 0-11.24 2.61-12.42 8.5-.65 3.27-.65 6.67-.78 10.59h25.62v-.79ZM445.8 123.3h-15.95c-1.31 0-2.22-.79-2.22-1.96V75.98c0-7.19-2.88-9.54-8.89-9.54s-13.2 1.7-13.2 1.7v53.2c0 1.18-.78 1.96-2.09 1.96H387.5c-1.31 0-2.09-.79-2.09-1.96V64.35c0-4.97 3.27-6.54 10.85-8.37 6.54-1.57 16.86-3.01 25.1-3.01 16.6 0 26.54 3.92 26.54 20.26v48.11c0 1.18-.91 1.96-2.09 1.96ZM524.34 94.15c0 1.7-.65 3.4-3.14 3.4h-42.22c0 5.49 1.83 8.63 5.62 11.11 3.27 1.96 7.71 2.88 14.12 2.88 7.97 0 14.64-2.09 18.04-3.01.13-.13.26-.13.39-.13.91 0 1.7.65 2.09 2.09l1.7 7.19c.13.39.13.65.13.79 0 1.18-.65 1.83-1.44 2.22-4.18 1.7-13.2 4.31-24.31 4.31-25.49 0-36.34-9.41-36.34-35.69s7.58-36.34 32.94-36.34c12.94 0 21.05 3.01 26.01 8.89 4.84 5.88 6.53 14.51 6.53 26.01 0 1.57-.13 4.44-.13 6.27Zm-19.74-9.54c0-3.53-.26-6.41-.79-9.28-1.57-6.8-5.1-9.02-11.63-9.02-8.23 0-11.24 2.61-12.42 8.5-.65 3.27-.65 6.67-.78 10.59h25.62v-.79ZM627.65 121.21c-.26 1.18-1.05 2.09-2.35 2.09h-27.45c-1.31 0-2.22-.91-2.48-2.09l-9.02-48.24h-.13l-9.41 48.24c-.13 1.18-1.05 2.09-2.35 2.09h-27.45c-1.31 0-2.09-.91-2.35-2.09l-13.99-63.27v-.79c0-1.44.78-2.48 2.35-2.48h15.03c1.7 0 2.61.39 3.01 2.22l8.89 53.86h3.53l8.5-50.46c.26-1.31 1.18-2.09 2.48-2.09h24.71c1.31 0 2.22.78 2.48 2.09l8.76 50.46h3.53l8.1-53.86c.26-1.83 1.31-2.22 2.88-2.22h14.25c1.57 0 2.48 1.05 2.48 2.48v.79l-13.99 63.27ZM693 121.21c0 .52-.52 1.18-1.05 1.31-2.88.91-8.5 2.48-15.95 2.48-12.94 0-19.08-5.62-19.08-18.17v-71.9c0-1.05.65-1.44 1.57-1.57l7.06-1.83h.39c.91 0 1.31.91 1.31 1.7v21.44h21.96c1.18 0 1.96.79 1.96 1.96v4.44c0 1.18-.78 1.96-1.96 1.96h-21.96v44.84c0 7.19 3.92 8.76 10.72 8.76 4.05 0 9.28-1.05 12.03-1.7h.39c.65 0 1.18.39 1.44 1.18l1.18 4.84v.26ZM759.27 94.02c-.13.65-1.05 1.7-1.7 1.7H709.6c0 7.19 1.31 11.24 4.05 14.64 3.79 4.84 10.2 6.27 19.35 6.27 8.11 0 13.07-1.57 19.22-3.27.26-.13.52-.26.78-.26.52 0 1.05.39 1.31 1.18l1.44 4.97v.52c0 .65-.52 1.05-1.31 1.44-5.23 2.09-13.85 3.79-22.48 3.79-25.62 0-33.2-11.9-33.2-35.95 0-22.09 4.44-36.08 30.33-36.08 13.73 0 21.7 4.18 26.01 11.63 3.4 5.88 4.18 13.99 4.18 23.01v6.41Zm-12.42-21.7c-2.35-8.37-7.45-11.11-18.04-11.11s-15.56 2.74-17.78 11.11c-1.31 4.84-1.44 9.94-1.57 14.77l38.96-.13c-.13-4.97-.39-9.8-1.57-14.64ZM822.89 119.9c0 1.18-.91 1.44-1.31 1.7-3.27 1.44-12.42 3.4-20.13 3.4-24.44 0-30.85-11.5-30.85-35.95s6.41-36.08 30.85-36.08c7.71 0 16.86 1.96 20.13 3.4.39.26 1.31.52 1.31 1.7 0 .26-.13.52-.13.65l-.92 4.44c-.26 1.05-.65 1.57-1.57 1.57-.13 0-.39-.13-.79-.13-2.74-.78-10.59-3.14-17.52-3.14-15.69 0-20.65 6.67-20.65 27.45s4.97 27.58 20.65 27.58c6.93 0 14.77-2.09 17.52-2.88.39 0 .65-.13.79-.13.91 0 1.31.52 1.57 1.57l.92 4.18c0 .26.13.39.13.65ZM890.41 123.3H884c-1.18 0-1.96-.79-1.96-1.96V72.97c0-8.63-3.27-11.63-12.42-11.63-12.16 0-24.45 3.66-24.45 3.66v56.34c0 1.18-.65 1.96-1.83 1.96h-6.54c-1.18 0-1.96-.79-1.96-1.96V28.4c0-1.05.65-1.44 1.57-1.57l7.06-1.83h.39c.91 0 1.31.91 1.31 1.7v22.61l-1.31 7.58c7.19-2.09 18.43-3.92 26.01-3.92 15.56 0 22.48 4.84 22.48 18.82v49.54c0 1.18-.65 1.96-1.96 1.96ZM15.19 68.21l6.46-11.2h61.42l26.45-45.82H76.36l-20.2 34.99H43.24L69.9 0h48.74l5.13 8.89-32.5 56.29-5.24 3.03H15.19zM97.88 150 67.17 96.8l-10.8.01-42.11-.01 16.58 28.73 40.4-.01 6.46 11.19-50.1.01-3.22-.01L0 94.5l5.14-8.89 64.99.01 5.25 3.03L110.8 150H97.88zM130.9 150 98.4 93.7v-6.05l35.42-61.36 6.47 11.2-30.71 53.19 26.45 45.82 16.58-28.72-20.2-34.99 6.46-11.19 25.05 43.38 1.62 2.81L141.17 150H130.9zM928.42 123.3c-10.85 0-13.77-4.43-13.77-13.74s2.92-13.85 13.77-13.85 13.74 4.51 13.74 13.85-2.88 13.74-13.74 13.74Zm8.72-22.79c-1.69-1.62-4.4-2.38-8.76-2.38s-7.03.76-8.73 2.34c-1.91 1.84-2.49 4.8-2.49 9.09s.58 7.21 2.49 9.05c1.66 1.59 4.4 2.27 8.73 2.27s7.07-.68 8.76-2.31c1.91-1.8 2.49-4.76 2.49-9.05s-.58-7.17-2.49-9.01Zm-2.41 16.63h-1.77c-.32 0-.47-.11-.47-.43l-.22-3.03c-.11-1.8-1.05-2.49-3.5-2.6l-3.61-.18v5.7c0 .32-.25.54-.54.54h-1.55c-.36 0-.54-.36-.54-.54v-14.21c0-.36.29-.72.68-.72h6.56c3.14 0 5.05 1.19 5.05 4.51 0 2.13-.87 3.06-3.21 3.5v.5c.72.11 1.48.22 2.09.68.69.5 1.19 1.33 1.26 2.96l.14 2.85c0 .22-.14.47-.4.47Zm-4.76-13.09h-4.8v4.87l3.82-.14c2.2-.07 3.17-.36 3.17-2.34 0-1.66-.54-2.38-2.2-2.38Z"/></g></svg>