<svg xmlns="http://www.w3.org/2000/svg" width="80" height="80" viewBox="0 0 80 80"><path d="M0 80h80V0H0Z" fill="#ff6729" fill-rule="evenodd"/><path d="m40 11.251-8.037 11.5-5.088-3.551 8.037-11.5ZM50 11.251l-8.037 11.5-5.088-3.551 8.037-11.5ZM60 11.251l-8.037 11.5-5.088-3.551 8.037-11.5ZM23.058 32.542h-3.992v4.2h3.84a2.85 2.85 0 0 0 1.722-.506 1.849 1.849 0 0 0 .786-1.584 1.918 1.918 0 0 0-.676-1.541 2.514 2.514 0 0 0-1.68-.569Zm5.868 13.27h-3.558a3 3 0 0 1-.315-.848 6.716 6.716 0 0 1-.119-1.441V42.4a3.7 3.7 0 0 0-.436-2.069 2.282 2.282 0 0 0-1.964-.748h-3.468v6.228h-3.272V29.77h7.722a5.776 5.776 0 0 1 3.6 1.078 3.948 3.948 0 0 1 1.549 3.323 4.74 4.74 0 0 1-.633 2.387 3.405 3.405 0 0 1-1.788 1.552 2.744 2.744 0 0 1 1.456 1.122 5.658 5.658 0 0 1 .567 2.905v.968a7.716 7.716 0 0 0 .1 1.375 1.247 1.247 0 0 0 .557.826ZM42.188 45.812H30.235V29.77h11.538v2.794h-8.31v3.411h7.612v2.773h-7.612v4.115h8.725ZM56.039 45.812h-3.381L46.18 34.787v11.025h-3.229V29.77h3.4l6.479 11.046V29.77h3.206ZM69.891 32.674h-4.712v13.138h-3.294V32.674H57.2v-2.9h12.7ZM31.805 64.142h-3.076V51.181L25.5 64.142h-3.38l-3.272-12.961v12.961h-3.054V48.1h4.865l3.135 12.152L26.911 48.1h4.894ZM42.973 58.178l-2.247-6.865-2.2 6.865Zm5.388 5.964h-3.446l-1.069-3.3h-6.173l-1.069 3.3h-3.425L38.851 48.1H42.6ZM62.409 64.142h-3.381l-6.479-11.025v11.025h-3.228V48.1h3.4L59.2 59.146V48.1h3.207Z" fill="#fefefe" fill-rule="evenodd"/></svg>