<svg width="157" height="20" xmlns="http://www.w3.org/2000/svg" aria-label="Reskinned logo"><path d="M47.067 15.64c-2.296 2.601-4.92 4.17-8.248 4.17-3.327 0-5.952-1.569-8.247-4.17l2.225-2.39c1.874 1.593 3.492 2.6 6.022 2.6 2.53 0 4.148-1.007 5.997-2.53l2.251 2.32zM4.85 7.474h2.67c1.22 0 1.969-.632 1.969-1.64 0-.914-.749-1.546-1.969-1.546H4.85v3.186zm4.405 8.576-4.077-4.827h-.327v4.827H0V.352h8.576c3.398 0 5.67 2.154 5.67 5.365 0 2.483-1.383 4.358-3.632 5.131l4.452 5.202H9.255zm19.464 0H16.066V.352h12.535v4.006h-7.684v2.038h7.052v3.609h-7.052v2.038h7.802zM61.446 4.568l-4.71.96c-.351-1.498-1.452-1.85-2.202-1.85-.844 0-1.453.399-1.453 1.078 0 .375.141.727.774.867l3.116.797c2.975.749 4.593 2.131 4.593 4.685 0 3.82-3.68 5.297-6.82 5.297-3.936 0-6.864-1.946-7.31-4.898l4.92-.914c.352 1.383 1.218 1.969 2.461 1.969.89 0 1.616-.352 1.616-1.078 0-.376-.187-.703-.89-.89l-3.234-.798c-2.81-.68-4.356-2.085-4.356-4.592C47.95 1.78 50.855 0 54.534 0c3.772 0 6.35 1.616 6.912 4.568M72.711 16.05l-4.03-5.343h-.726v5.343h-4.85V.352h4.85v5.763h.539L72.805.352h5.67l-5.857 7.895 6.303 7.803zm6.952 0h4.85V.35h-4.85zm22.42 0h-3.96l-6.841-7.568v7.568h-4.85V.352h3.982l6.842 7.872V.352h4.827zm17.566 0h-3.96l-6.842-7.568v7.568h-4.85V.352h3.983l6.842 7.872V.352h4.827zm14.566 0h-12.651V.352h12.535v4.006h-7.686v2.038h7.052v3.609h-7.052v2.038h7.802zm8.123-4.03c2.438 0 4.054-1.57 4.054-3.82s-1.616-3.818-4.054-3.818h-1.593v7.638h1.593zm.4-11.669c5.13 0 8.552 3.21 8.552 7.849 0 4.64-3.421 7.85-8.553 7.85h-6.842V.351h6.842zm9.252.857v2.314h-.72V1.208h-.955V.573h2.63v.635zm4.694 2.314h-.704v-1.57l-.826 1.57h-.335l-.832-1.58v1.58h-.703V.574h.712l.99 1.87.99-1.87h.708z" fill-rule="evenodd"/></svg>