<svg width="104" height="42" xmlns="http://www.w3.org/2000/svg"><path d="M73.132 39.9h-2.3v-2.186h2.183c1.012 0 1.518.37 1.518 1.112 0 .716-.467 1.075-1.401 1.075Zm-2.3-6.253h1.613c.458 0 .8.078 1.03.235.228.158.343.41.343.76 0 .653-.468.98-1.402.98h-1.584v-1.975Zm4.11 2.882c.462-.196.821-.478 1.077-.846.255-.368.383-.805.383-1.31 0-.889-.31-1.554-.927-1.996-.618-.442-1.504-.663-2.657-.663H68.32v10.119h5.182c1.183 0 2.097-.24 2.742-.717s.968-1.138.968-1.984c0-1.41-.757-2.278-2.27-2.603Zm-16.327.808c0 .734-.192 1.31-.574 1.73-.382.42-.938.63-1.668.63-.715 0-1.26-.207-1.635-.623-.375-.415-.562-.994-.562-1.737v-5.623h-2.511v5.775c0 .882.179 1.659.536 2.332.358.673.895 1.204 1.614 1.594.717.39 1.57.585 2.558.585.749 0 1.428-.121 2.037-.363.61-.242 1.11-.57 1.498-.985.39-.414.689-.892.9-1.435a4.717 4.717 0 0 0 .318-1.728v-5.775h-2.511v5.623Zm-17.889-5.623h-2.51v10.119h7.563V39.66h-5.053v-7.947Zm-11.662 7.63c-.506.221-1.04.331-1.598.331-.833 0-1.495-.254-1.986-.762-.491-.509-.737-1.216-.737-2.122 0-.915.239-1.63.719-2.146.48-.515 1.115-.774 1.909-.774.627 0 1.096.175 1.405.524.31.348.468.84.478 1.474l2.308-.48c-.03-1.195-.405-2.131-1.125-2.807-.72-.676-1.73-1.013-3.03-1.013-.75 0-1.445.118-2.087.356a4.888 4.888 0 0 0-1.667 1.017 4.54 4.54 0 0 0-1.1 1.652c-.263.661-.395 1.393-.395 2.197 0 .8.132 1.527.395 2.183.265.657.63 1.202 1.097 1.638a4.889 4.889 0 0 0 1.667 1.01c.644.237 1.34.356 2.09.356.799 0 1.57-.156 2.314-.468.745-.313 1.363-.701 1.855-1.166l-1.168-1.86c-.39.354-.838.64-1.344.86ZM92.45 14.787c-1.493-1.608-3.61-2.633-5.978-2.633-2.725 0-5.128 1.348-6.611 3.397-.662-1.117-1.012-2.389-1.012-3.837 0-2.097.673-3.837 2.019-5.217 1.346-1.38 3.044-2.07 5.094-2.07 2.08 0 3.784.69 5.108 2.07 1.325 1.38 1.989 3.12 1.989 5.217a7.75 7.75 0 0 1-.61 3.073Zm-6.488 4.2a7.243 7.243 0 0 1-2.958-.602 3.962 3.962 0 0 1 3.468-2.062c1.329 0 2.5.658 3.222 1.657-1.074.655-2.31 1.007-3.732 1.007Zm14.367.166c-.358.684-.925 1.148-1.514 1.238-.812.122-1.824-.557-2.343-1.074-.35-.348-.623-.622-.864-.867.184-.266.375-.527.54-.813 1.014-1.771 1.52-3.746 1.52-5.923 0-1.65-.3-3.2-.899-4.65-.6-1.45-1.417-2.692-2.452-3.723C93.28 2.308 92.034 1.493 90.58.896 89.124.298 87.569 0 85.91 0c-2.19 0-4.177.505-5.959 1.516a10.92 10.92 0 0 0-4.196 4.203c-1.012 1.792-1.52 3.79-1.52 5.994 0 2.177.508 4.152 1.52 5.923a10.954 10.954 0 0 0 4.196 4.166c1.782 1.008 3.769 1.512 5.96 1.512 2.211 0 4.218-.504 6.016-1.512.24-.134.454-.293.68-.44.252.253.536.539.9.901 1.457 1.45 3.157 2.22 4.869 2.22.287 0 .575-.024.864-.067 1.93-.296 3.604-1.547 4.59-3.433l-3.503-1.831Zm-32.23-6.831c-.994-.99-2.532-1.781-4.615-2.375L59.265 8.74c-.882-.25-1.512-.533-1.893-.85-.38-.316-.57-.768-.57-1.356 0-.687.335-1.226 1.004-1.618.671-.393 1.698-.59 3.083-.59 1.217 0 2.474.18 3.766.538 1.293.357 2.363.813 3.212 1.366L69.2 1.87c-.935-.5-2.14-.925-3.617-1.278a19.469 19.469 0 0 0-4.53-.528c-1.525 0-2.877.18-4.054.536-1.178.359-2.13.855-2.854 1.49a6.39 6.39 0 0 0-1.642 2.18 6.38 6.38 0 0 0-.557 2.66c0 1.54.442 2.825 1.326 3.855.882 1.03 2.179 1.768 3.891 2.213l4.318 1.147c1.111.316 1.932.65 2.46 1.002.527.353.791.823.791 1.41 0 .76-.376 1.372-1.127 1.833-.753.462-1.805.693-3.157.693a12.01 12.01 0 0 1-3.784-.62c-1.248-.412-2.33-.915-3.247-1.512l-1.11 4.44c.87.49 2.051.937 3.538 1.344 1.49.407 2.991.61 4.505.61 2.737 0 4.961-.661 6.673-1.984 1.71-1.325 2.566-3.049 2.566-5.175 0-1.588-.497-2.877-1.49-3.866Zm-40.307 10.7h18.02v-4.068H32.27v-5.499h11.086V9.387H32.272V4.722H45.81V.655H27.791V23.02Zm-17.27-11.828H4.693V4.425h5.828c1.099 0 1.986.295 2.66.887.675.59 1.012 1.429 1.012 2.513 0 1.03-.34 1.85-1.02 2.457-.68.608-1.563.911-2.652.911Zm7.856 8.028c-.335-.065-.673-.228-1.027-.44-.352-.212-.66-.404-.927-.572-.266-.169-.6-.432-1-.791-.401-.36-.702-.634-.902-.826-.2-.19-.522-.505-.968-.946-.444-.441-.743-.738-.894-.89 1.853-.293 3.381-1.076 4.586-2.35 1.204-1.275 1.805-2.834 1.805-4.678 0-1.074-.172-2.039-.516-2.896-.341-.857-.802-1.56-1.379-2.106a7.482 7.482 0 0 0-2.047-1.367 10.167 10.167 0 0 0-2.449-.774A15.03 15.03 0 0 0 9.991.358H0V23.02h4.693v-8.167h2.285c.479.348 1.074.904 1.786 1.668a553.61 553.61 0 0 0 2.1 2.245c.69.732 1.441 1.457 2.25 2.172.81.715 1.689 1.296 2.638 1.74.952.445 1.902.668 2.86.668 1.373 0 2.523-.16 3.26-.457l.026-3.62c-1.58.159-2.39.173-3.521-.048Z" fill="#1BCBAC" fill-rule="evenodd"/></svg>