<svg id="Layer_1" data-name="Layer 1" xmlns="http://www.w3.org/2000/svg" viewBox="0 0 588.89 141.88" width="588" height="141"><defs><style>.cls-1{stroke-width:0}</style></defs><path d="M125.09 0H16.78C7.51 0 0 7.51 0 16.78v108.31c0 9.27 7.51 16.78 16.78 16.78h108.31c9.27 0 16.78-7.51 16.78-16.78V16.78c0-9.27-7.51-16.78-16.78-16.78ZM36.5 86.45H25.23v.94c0 1.32-1.59 1.98-2.53 1.05L10.14 75.88c-.58-.58-.58-1.51 0-2.09L22.7 61.23c.93-.93 2.53-.27 2.53 1.05v1.15H36.5v23.03Zm81.54 38.39H93.46c-1.13 0-2.17-.63-2.69-1.64L71.88 86.45h-4.02V63.42h6.11c4.81 0 8.24-1.05 10.27-3.16 2.03-2.11 3.05-4.78 3.05-8.02s-.96-5.77-2.89-7.29c-1.93-1.51-5.08-2.27-9.47-2.27h-8.99v79.12c0 1.67-1.35 3.03-3.03 3.03H41.48c-1.67 0-3.03-1.35-3.03-3.03V22.23c0-2.86 2.32-5.18 5.18-5.18h32.71c13.59 0 23.55 2.88 29.87 8.65 6.31 5.77 9.47 14.15 9.47 25.15 0 14.63-5.78 24.56-17.33 29.79l22.32 39.7c1.13 2.02-.32 4.51-2.64 4.51Z" style="fill:#058c42;stroke-width:0"/><path class="cls-1" d="M186.13 85.35h-6.97v31.18h-17.85v-82.3h27.64c9.95 0 17.2 2.1 21.77 6.3 4.56 4.2 6.85 10.33 6.85 18.4 0 11.33-4.73 18.96-14.19 22.87l19.93 34.73h-20.42l-16.75-31.18Zm-6.97-14.92h7.34c4.73 0 8.03-1 9.91-3 1.87-2 2.81-4.5 2.81-7.52s-.9-5.38-2.69-6.85c-1.79-1.47-4.65-2.2-8.56-2.2h-8.8v19.57ZM254.55 58.93c4.24 0 8.07.63 11.5 1.9 3.42 1.26 6.32 3.3 8.68 6.11 2.36 2.81 4.12 6.46 5.26 10.95 1.14 4.48 1.59 9.99 1.34 16.51l-38.03.25c.9 2.85 2.49 4.97 4.77 6.36 2.28 1.39 5.05 2.08 8.32 2.08 4.24 0 7.89-.59 10.95-1.77 3.06-1.18 5.52-2.51 7.4-3.97l5.01 13.82c-2.04 1.79-5.42 3.45-10.15 4.95-4.73 1.51-10.15 2.26-16.26 2.26-4 0-7.77-.55-11.31-1.65-3.55-1.1-6.65-2.85-9.29-5.26-2.65-2.4-4.75-5.44-6.3-9.11-1.55-3.67-2.32-8.07-2.32-13.21s.81-9.6 2.45-13.39c1.63-3.79 3.81-6.93 6.54-9.42s5.95-4.34 9.66-5.56c3.71-1.22 7.64-1.83 11.8-1.83Zm-.61 15.9c-2.53 0-4.81.71-6.85 2.14-2.04 1.43-3.42 3.69-4.16 6.79l21.03-.12c-.57-3.1-1.71-5.34-3.42-6.73-1.71-1.38-3.91-2.08-6.6-2.08ZM327.52 114.09c-1.88 1.39-4.34 2.45-7.4 3.18-3.06.73-6.42 1.1-10.09 1.1-6.6 0-11.39-1.79-14.37-5.38-2.98-3.59-4.46-9.5-4.46-17.73V75.57h-6.11v-14.8h6.11V40.35h17.85v20.3h14.43V75.2l-14.43.12v18.47c0 3.26.49 5.58 1.47 6.97.98 1.39 2.61 2.08 4.89 2.08 1.55 0 3-.26 4.34-.79a19.46 19.46 0 0 0 3.97-2.14l3.79 14.19ZM358.08 118.36c-8.15 0-14.59-2.24-19.32-6.73-4.73-4.48-7.09-11.78-7.09-21.89V60.76h17.73l.12 30.57c.08 4.32.9 7.32 2.45 8.99 1.55 1.67 3.59 2.51 6.12 2.51s4.44-.83 5.99-2.51c1.55-1.67 2.36-4.67 2.45-8.99l.12-30.57h17.73v28.98c0 10.11-2.34 17.41-7.03 21.89s-11.11 6.73-19.26 6.73ZM410.52 70.06c1.64-3.42 3.99-6.13 7.05-8.13 3.06-2 6.91-2.91 11.56-2.75v17.24c-5.3-.9-9.32.04-12.05 2.81-2.73 2.77-4.14 6.97-4.22 12.6l-.12 24.7h-17.85V60.77h15.64v9.29ZM469.63 58.93c2.93 0 5.61.35 8.01 1.04 2.41.69 4.48 1.96 6.24 3.79 1.75 1.83 3.12 4.32 4.1 7.46.98 3.14 1.47 7.2 1.47 12.17v33.14H471.6l-.12-30.82c-.08-4.56-.85-7.58-2.31-9.05-1.46-1.47-3.4-2.2-5.83-2.2-2.75 0-5.06.9-6.92 2.69-1.86 1.79-2.83 4.89-2.91 9.29l-.12 30.08h-17.85V60.76h15.76v7.58c1.71-2.93 4.1-5.24 7.16-6.91 3.06-1.67 6.79-2.51 11.2-2.51ZM559.91 60.77v55.76h-17.73v-6.6c-1.96 2.28-4.48 4.22-7.58 5.81-3.1 1.59-6.85 2.38-11.25 2.38-3.83 0-7.36-.67-10.58-2.02-3.22-1.35-5.99-3.28-8.32-5.81-2.32-2.53-4.12-5.6-5.38-9.23-1.26-3.63-1.9-7.72-1.9-12.29s.65-8.8 1.96-12.47c1.3-3.67 3.16-6.79 5.56-9.36 2.4-2.57 5.3-4.52 8.68-5.87 3.38-1.34 7.11-2.02 11.19-2.02 4.4 0 8.19.82 11.37 2.45 3.18 1.63 5.71 3.87 7.58 6.73v-7.46h16.39Zm-19.57 27.64c0-4.24-1.18-7.46-3.55-9.66s-5.3-3.3-8.8-3.3-6.69 1.14-9.05 3.42c-2.37 2.28-3.55 5.5-3.55 9.66-.08 4.32 1.08 7.6 3.49 9.84 2.4 2.24 5.44 3.36 9.11 3.36 3.26 0 6.13-1.04 8.62-3.12 2.49-2.08 3.73-5.24 3.73-9.48v-.73ZM571.04 25.18h17.85v91.35h-17.85V25.18Z"/></svg>