<?xml version="1.0" encoding="UTF-8"?>
<svg xmlns="http://www.w3.org/2000/svg" xmlns:xlink="http://www.w3.org/1999/xlink" version="1.1" id="Layer_1" x="0px" y="0px" viewBox="0 0 730.7 167.6" style="enable-background:new 0 0 730.7 167.6;" xml:space="preserve"> <style type="text/css"> .st0{fill:#222E3C;} </style> <g id="a"> </g> <g id="b"> <g id="c"> <path class="st0" d="M116.7,2.4L96,15.3c-1.3,0.8-2.9,0.8-4.2,0L71.1,2.4c-5.2-3.2-11.8-3.2-17,0l-46.5,29C2.9,34.4,0,39.5,0,45.1 v58c0,5.6,2.9,10.7,7.6,13.6l77.8,48.5c5.2,3.2,11.8,3.2,17,0l77.8-48.5c4.7-2.9,7.6-8.1,7.6-13.6v-58c0-5.5-2.9-10.7-7.6-13.6 l-46.5-29C128.5-0.8,121.9-0.8,116.7,2.4z M31.3,118l-16-10c-2.4-1.5-3.8-4-3.8-6.8V47c0-2.8,1.4-5.3,3.8-6.8l43.1-26.9 c2.6-1.6,5.9-1.6,8.5,0L83,23.4L38.9,51c-4.7,2.9-7.6,8.1-7.6,13.6C31.3,64.6,31.3,118,31.3,118z M141.2,127.5l-43.1,26.9 c-2.6,1.6-5.9,1.6-8.5,0l-43.1-26.9c-2.3-1.5-3.8-4.1-3.8-6.8V66.5c0-2.8,1.4-5.3,3.8-6.8l43.1-26.9c2.6-1.6,5.9-1.6,8.5,0 l43.1,26.9c2.4,1.5,3.8,4,3.8,6.8v54.2C145,123.4,143.6,126,141.2,127.5z M172.5,108l-16,10V64.6c0-5.5-2.9-10.7-7.6-13.6 l-44.2-27.5l16.2-10.1c2.6-1.6,5.9-1.6,8.5,0l43.1,26.9c2.4,1.5,3.8,4,3.8,6.8v54.2C176.3,103.9,174.9,106.5,172.5,108L172.5,108z M113.7,83.8v19.6c0,1.4-0.7,2.7-1.9,3.4L96,116.6c-1.3,0.8-2.9,0.8-4.2,0L76,106.8c-1.2-0.7-1.9-2-1.9-3.4V83.8 c0-1.4,0.7-2.7,1.9-3.4l15.8-9.8c1.3-0.8,2.9-0.8,4.2,0l15.8,9.8C113,81.1,113.7,82.4,113.7,83.8z M236.1,129.9 c-0.9,0-1.7-0.3-2.4-1s-1-1.4-1-2.4V35.6c0-1,0.3-1.9,0.8-2.5c0.6-0.7,1.5-1,2.5-1h36.2c11.4,0,20.2,2.7,26.7,8 c6.5,5.3,9.8,12.9,9.8,22.6c0,6.8-1.7,12.5-5,17.2c-3.3,4.6-7.8,7.9-13.7,9.9l20.4,35.6c0.3,0.6,0.4,1.1,0.4,1.5 c0,0.8-0.3,1.5-1,2.1c-0.6,0.6-1.2,0.8-2,0.8h-12.7c-1.5,0-2.6-0.3-3.5-1c-0.8-0.6-1.4-1.6-2.1-2.8l-18-33.1h-19.4v33.5 c0,0.9-0.3,1.7-1,2.4c-0.6,0.6-1.4,1-2.4,1L236.1,129.9L236.1,129.9z M271.8,77.2c5.6,0,9.8-1.3,12.6-3.8 c2.9-2.5,4.3-6.2,4.3-10.9s-1.4-8.4-4.3-11c-2.8-2.6-7-3.9-12.6-3.9h-19.7v29.6L271.8,77.2L271.8,77.2z M322.9,129.9 c-0.9,0-1.7-0.3-2.4-1s-1-1.4-1-2.4V34.1c0-1,0.3-1.8,1-2.4c0.6-0.6,1.4-1,2.4-1h12.4c1,0,1.8,0.3,2.4,1c0.6,0.6,1,1.3,1,2.4v31.8 c5.6-6.7,13.1-10.1,22.6-10.1c8.6,0,15.4,2.8,20.5,8.5c5.1,5.6,7.7,13.2,7.7,22.9v39.2c0,0.9-0.3,1.7-1,2.4c-0.6,0.6-1.4,1-2.4,1 h-12.6c-0.9,0-1.7-0.3-2.4-1s-1-1.4-1-2.4V88.1c0-5.5-1.4-9.7-4-12.7c-2.6-3.1-6.4-4.6-11.5-4.6s-8.9,1.5-11.7,4.6 c-2.9,3.1-4.3,7.3-4.3,12.7v38.4c0,0.9-0.3,1.7-1,2.4c-0.6,0.6-1.4,1-2.4,1H322.9L322.9,129.9z M433,131.3 c-10.3,0-18.6-3-24.7-8.9c-6-6.1-9.3-14.5-9.6-25.4l-0.1-3.5l0.1-3.5c0.5-10.6,3.7-18.9,9.8-25c6.1-6,14.3-9.1,24.6-9.1 c11,0,19.5,3.3,25.4,10.1c6,6.7,9.1,15.6,9.1,26.8v2.9c0,0.9-0.3,1.7-1,2.4c-0.6,0.7-1.5,1-2.5,1h-46.4v1.1 c0.2,5.1,1.6,9.4,4.2,13c2.7,3.4,6.4,5.2,11,5.2c5.5,0,9.9-2.1,13.3-6.4c0.8-1,1.5-1.7,2-2c0.6-0.3,1.4-0.4,2.4-0.4h12 c0.8,0,1.5,0.3,2.1,0.8c0.6,0.5,1,1.1,1,1.8c0,2.2-1.4,4.9-4,8c-2.6,3-6.4,5.6-11.3,7.8C445.2,130.2,439.5,131.3,433,131.3 L433,131.3z M448.5,87.3v-0.4c0-5.5-1.4-9.9-4.2-13.3c-2.7-3.3-6.5-5-11.3-5s-8.6,1.7-11.3,5s-4,7.8-4,13.3v0.4H448.5L448.5,87.3z M497.8,131.3c-4.8,0-9.1-0.9-13.1-2.8c-3.9-2-7-4.6-9.4-7.8c-2.2-3.3-3.4-6.8-3.4-10.8c0-6.3,2.6-11.4,7.7-15.4 c5.1-3.9,12.1-6.6,21.1-8l19.1-2.8v-2.9c0-4.1-1-7.2-3.1-9.2s-5.4-3.1-9.9-3.1c-3.1,0-5.6,0.6-7.5,1.8c-1.9,1.1-3.4,2.2-4.5,3.3 c-1.1,1.2-1.9,2-2.2,2.4c-0.4,1.1-1.1,1.7-2.1,1.7h-10.8c-0.8,0-1.6-0.3-2.2-0.8c-0.6-0.6-0.8-1.3-0.8-2.2c0.1-2.3,1.2-5,3.4-8 c2.2-3,5.6-5.5,10.2-7.7c4.6-2.1,10.1-3.2,16.8-3.2c11,0,19,2.5,24,7.4c5,4.9,7.5,11.4,7.5,19.4v43.9c0,0.9-0.3,1.7-1,2.4 c-0.6,0.6-1.3,1-2.4,1H524c-0.9,0-1.7-0.3-2.4-1s-1-1.4-1-2.4v-5.4c-2,3-5,5.4-8.8,7.4C508.1,130.4,503.4,131.3,497.8,131.3 L497.8,131.3z M502.6,118c5.1,0,9.3-1.7,12.6-5s4.9-8.2,4.9-14.7v-2.9l-14,2.2c-5.4,0.8-9.5,2.2-12.3,4.1c-2.7,1.9-4,4.1-4,6.8 c0,3,1.3,5.3,3.8,7C496,117.2,499,118,502.6,118L502.6,118z M554.4,156.4c-0.9,0-1.7-0.3-2.4-1c-0.7-0.6-1-1.4-1-2.4V60.6 c0-1,0.3-1.8,1-2.4c0.7-0.7,1.4-1,2.4-1h11c1,0,1.8,0.3,2.4,1c0.7,0.6,1,1.3,1,2.4v5.6c5.2-6.9,12.7-10.3,22.3-10.3 s16.6,3,21.7,8.9c5,5.9,7.7,13.8,8.1,23.9c0.1,1.1,0.1,2.8,0.1,4.9s0,3.9-0.1,5c-0.4,9.8-3.1,17.7-8.1,23.8 c-5,6-12.2,8.9-21.7,8.9s-16.6-3.3-21.5-9.9v31.7c0,1-0.3,1.8-1,2.4c-0.6,0.6-1.3,1-2.4,1L554.4,156.4L554.4,156.4z M586,116.3 c10.1,0,15.4-6.2,16.1-18.6c0.1-0.9,0.1-2.3,0.1-4.2s0-3.3-0.1-4.2c-0.7-12.4-6-18.6-16.1-18.6c-5.4,0-9.4,1.7-12,5.2 c-2.6,3.4-4,7.7-4.3,12.7l-0.1,5.3l0.1,5.4c0.2,4.7,1.6,8.7,4.3,12C576.8,114.7,580.8,116.3,586,116.3L586,116.3z M634.7,129.9 c-0.9,0-1.7-0.3-2.4-1s-1-1.4-1-2.4V34.1c0-1,0.3-1.8,1-2.4c0.7-0.6,1.4-1,2.4-1h11.6c1,0,1.8,0.3,2.4,1c0.7,0.6,1,1.3,1,2.4v92.5 c0,0.9-0.3,1.7-1,2.4c-0.6,0.6-1.3,1-2.4,1H634.7z M675.7,156.4c-0.8,0-1.4-0.3-2-0.8s-0.8-1.2-0.8-2c0-0.8,0.2-1.6,0.6-2.2 l10.9-25.8l-26.8-63.3c-0.4-0.8-0.6-1.5-0.6-2c0.1-0.8,0.4-1.5,1-2.1c0.6-0.7,1.3-1,2.1-1h11.3c1.8,0,3,0.9,3.8,2.7l18.6,45.7 l19.1-45.7c0.7-1.8,2-2.7,3.8-2.7h11.2c0.7,0,1.4,0.3,2,0.8c0.7,0.6,1,1.2,1,2c0,0.7-0.2,1.4-0.6,2.2l-39.5,91.5 c-0.8,1.8-2.1,2.6-3.9,2.6L675.7,156.4L675.7,156.4z"/> </g> </g> </svg>