<svg xmlns="http://www.w3.org/2000/svg" width="730.7" height="167.6" style="enable-background:new 0 0 730.7 167.6" xml:space="preserve"><path d="M116.7 2.4 96 15.3c-1.3.8-2.9.8-4.2 0L71.1 2.4c-5.2-3.2-11.8-3.2-17 0l-46.5 29C2.9 34.4 0 39.5 0 45.1v58c0 5.6 2.9 10.7 7.6 13.6l77.8 48.5c5.2 3.2 11.8 3.2 17 0l77.8-48.5c4.7-2.9 7.6-8.1 7.6-13.6v-58c0-5.5-2.9-10.7-7.6-13.6l-46.5-29c-5.2-3.3-11.8-3.3-17-.1zM31.3 118l-16-10c-2.4-1.5-3.8-4-3.8-6.8V47c0-2.8 1.4-5.3 3.8-6.8l43.1-26.9c2.6-1.6 5.9-1.6 8.5 0L83 23.4 38.9 51c-4.7 2.9-7.6 8.1-7.6 13.6V118zm109.9 9.5-43.1 26.9c-2.6 1.6-5.9 1.6-8.5 0l-43.1-26.9c-2.3-1.5-3.8-4.1-3.8-6.8V66.5c0-2.8 1.4-5.3 3.8-6.8l43.1-26.9c2.6-1.6 5.9-1.6 8.5 0l43.1 26.9c2.4 1.5 3.8 4 3.8 6.8v54.2c0 2.7-1.4 5.3-3.8 6.8zm31.3-19.5-16 10V64.6c0-5.5-2.9-10.7-7.6-13.6l-44.2-27.5 16.2-10.1c2.6-1.6 5.9-1.6 8.5 0l43.1 26.9c2.4 1.5 3.8 4 3.8 6.8v54.2c0 2.6-1.4 5.2-3.8 6.7zm-58.8-24.2v19.6c0 1.4-.7 2.7-1.9 3.4L96 116.6c-1.3.8-2.9.8-4.2 0L76 106.8c-1.2-.7-1.9-2-1.9-3.4V83.8c0-1.4.7-2.7 1.9-3.4l15.8-9.8c1.3-.8 2.9-.8 4.2 0l15.8 9.8c1.2.7 1.9 2 1.9 3.4zm122.4 46.1c-.9 0-1.7-.3-2.4-1s-1-1.4-1-2.4V35.6c0-1 .3-1.9.8-2.5.6-.7 1.5-1 2.5-1h36.2c11.4 0 20.2 2.7 26.7 8s9.8 12.9 9.8 22.6c0 6.8-1.7 12.5-5 17.2-3.3 4.6-7.8 7.9-13.7 9.9l20.4 35.6c.3.6.4 1.1.4 1.5 0 .8-.3 1.5-1 2.1-.6.6-1.2.8-2 .8h-12.7c-1.5 0-2.6-.3-3.5-1-.8-.6-1.4-1.6-2.1-2.8l-18-33.1h-19.4v33.5c0 .9-.3 1.7-1 2.4-.6.6-1.4 1-2.4 1l-12.6.1zm35.7-52.7c5.6 0 9.8-1.3 12.6-3.8 2.9-2.5 4.3-6.2 4.3-10.9s-1.4-8.4-4.3-11c-2.8-2.6-7-3.9-12.6-3.9h-19.7v29.6h19.7zm51.1 52.7c-.9 0-1.7-.3-2.4-1s-1-1.4-1-2.4V34.1c0-1 .3-1.8 1-2.4.6-.6 1.4-1 2.4-1h12.4c1 0 1.8.3 2.4 1 .6.6 1 1.3 1 2.4v31.8c5.6-6.7 13.1-10.1 22.6-10.1 8.6 0 15.4 2.8 20.5 8.5 5.1 5.6 7.7 13.2 7.7 22.9v39.2c0 .9-.3 1.7-1 2.4-.6.6-1.4 1-2.4 1h-12.6c-.9 0-1.7-.3-2.4-1s-1-1.4-1-2.4V88.1c0-5.5-1.4-9.7-4-12.7-2.6-3.1-6.4-4.6-11.5-4.6s-8.9 1.5-11.7 4.6c-2.9 3.1-4.3 7.3-4.3 12.7v38.4c0 .9-.3 1.7-1 2.4-.6.6-1.4 1-2.4 1h-12.3zm110.1 1.4c-10.3 0-18.6-3-24.7-8.9-6-6.1-9.3-14.5-9.6-25.4l-.1-3.5.1-3.5c.5-10.6 3.7-18.9 9.8-25 6.1-6 14.3-9.1 24.6-9.1 11 0 19.5 3.3 25.4 10.1 6 6.7 9.1 15.6 9.1 26.8v2.9c0 .9-.3 1.7-1 2.4-.6.7-1.5 1-2.5 1h-46.4v1.1c.2 5.1 1.6 9.4 4.2 13 2.7 3.4 6.4 5.2 11 5.2 5.5 0 9.9-2.1 13.3-6.4.8-1 1.5-1.7 2-2 .6-.3 1.4-.4 2.4-.4h12c.8 0 1.5.3 2.1.8.6.5 1 1.1 1 1.8 0 2.2-1.4 4.9-4 8-2.6 3-6.4 5.6-11.3 7.8-5.2 2.2-10.9 3.3-17.4 3.3zm15.5-44v-.4c0-5.5-1.4-9.9-4.2-13.3-2.7-3.3-6.5-5-11.3-5s-8.6 1.7-11.3 5-4 7.8-4 13.3v.4h30.8zm49.3 44c-4.8 0-9.1-.9-13.1-2.8-3.9-2-7-4.6-9.4-7.8-2.2-3.3-3.4-6.8-3.4-10.8 0-6.3 2.6-11.4 7.7-15.4 5.1-3.9 12.1-6.6 21.1-8l19.1-2.8v-2.9c0-4.1-1-7.2-3.1-9.2s-5.4-3.1-9.9-3.1c-3.1 0-5.6.6-7.5 1.8-1.9 1.1-3.4 2.2-4.5 3.3-1.1 1.2-1.9 2-2.2 2.4-.4 1.1-1.1 1.7-2.1 1.7h-10.8c-.8 0-1.6-.3-2.2-.8-.6-.6-.8-1.3-.8-2.2.1-2.3 1.2-5 3.4-8s5.6-5.5 10.2-7.7c4.6-2.1 10.1-3.2 16.8-3.2 11 0 19 2.5 24 7.4s7.5 11.4 7.5 19.4v43.9c0 .9-.3 1.7-1 2.4-.6.6-1.3 1-2.4 1H524c-.9 0-1.7-.3-2.4-1s-1-1.4-1-2.4v-5.4c-2 3-5 5.4-8.8 7.4-3.7 1.9-8.4 2.8-14 2.8zm4.8-13.3c5.1 0 9.3-1.7 12.6-5s4.9-8.2 4.9-14.7v-2.9l-14 2.2c-5.4.8-9.5 2.2-12.3 4.1-2.7 1.9-4 4.1-4 6.8 0 3 1.3 5.3 3.8 7 2.4 1.7 5.4 2.5 9 2.5zm51.8 38.4c-.9 0-1.7-.3-2.4-1-.7-.6-1-1.4-1-2.4V60.6c0-1 .3-1.8 1-2.4.7-.7 1.4-1 2.4-1h11c1 0 1.8.3 2.4 1 .7.6 1 1.3 1 2.4v5.6c5.2-6.9 12.7-10.3 22.3-10.3s16.6 3 21.7 8.9c5 5.9 7.7 13.8 8.1 23.9.1 1.1.1 2.8.1 4.9s0 3.9-.1 5c-.4 9.8-3.1 17.7-8.1 23.8-5 6-12.2 8.9-21.7 8.9s-16.6-3.3-21.5-9.9v31.7c0 1-.3 1.8-1 2.4-.6.6-1.3 1-2.4 1l-11.8-.1zm31.6-40.1c10.1 0 15.4-6.2 16.1-18.6.1-.9.1-2.3.1-4.2s0-3.3-.1-4.2c-.7-12.4-6-18.6-16.1-18.6-5.4 0-9.4 1.7-12 5.2-2.6 3.4-4 7.7-4.3 12.7l-.1 5.3.1 5.4c.2 4.7 1.6 8.7 4.3 12 2.8 3.4 6.8 5 12 5zm48.7 13.6c-.9 0-1.7-.3-2.4-1s-1-1.4-1-2.4V34.1c0-1 .3-1.8 1-2.4.7-.6 1.4-1 2.4-1h11.6c1 0 1.8.3 2.4 1 .7.6 1 1.3 1 2.4v92.5c0 .9-.3 1.7-1 2.4-.6.6-1.3 1-2.4 1h-11.6zm41 26.5c-.8 0-1.4-.3-2-.8s-.8-1.2-.8-2 .2-1.6.6-2.2l10.9-25.8-26.8-63.3c-.4-.8-.6-1.5-.6-2 .1-.8.4-1.5 1-2.1.6-.7 1.3-1 2.1-1h11.3c1.8 0 3 .9 3.8 2.7l18.6 45.7 19.1-45.7c.7-1.8 2-2.7 3.8-2.7h11.2c.7 0 1.4.3 2 .8.7.6 1 1.2 1 2 0 .7-.2 1.4-.6 2.2l-39.5 91.5c-.8 1.8-2.1 2.6-3.9 2.6l-11.2.1z" style="fill:#222e3c"/></svg>