<svg width="259" height="58" fill="none" xmlns="http://www.w3.org/2000/svg"><g clip-path="url(#a)"><path d="M79.933 47.375h1.343v-5.988h-1.828l-1.353 2.944-.549 1.408h-.1l-.558-1.408-1.408-2.944h-1.81v5.988h1.335v-3.044l-.046-.933h.091l.348.933 1.252 2.688h1.628l1.252-2.688.348-.933h.1l-.045.933v3.044Zm7.405-5.702c-.485-.256-1.061-.384-1.747-.384-.685 0-1.225.128-1.71.384a2.68 2.68 0 0 0-1.115 1.07c-.256.466-.393 1.005-.393 1.627 0 .622.128 1.17.393 1.628.256.466.631.822 1.116 1.07.484.255 1.06.383 1.71.383.648 0 1.26-.128 1.746-.384a2.678 2.678 0 0 0 1.115-1.07c.265-.466.393-1.005.393-1.627 0-.622-.128-1.17-.393-1.627a2.625 2.625 0 0 0-1.115-1.07Zm-.101 3.758a1.11 1.11 0 0 1-.585.567c-.265.118-.622.173-1.06.173-.44 0-.787-.055-1.043-.173a1.124 1.124 0 0 1-.576-.567c-.119-.265-.183-.613-.183-1.052 0-.439.055-.804.183-1.06.119-.256.31-.448.576-.567.265-.119.612-.174 1.042-.174.43 0 .796.055 1.06.174.266.119.458.302.586.567.128.265.183.612.183 1.06 0 .448-.064.796-.183 1.052Zm4.133 1.947h1.544c.64 0 1.198-.12 1.664-.357a2.615 2.615 0 0 0 1.088-1.024c.256-.439.384-.987.384-1.609s-.128-1.161-.384-1.609a2.559 2.559 0 0 0-1.088-1.024c-.466-.238-1.024-.357-1.664-.357h-2.889v5.989h1.344v-.01Zm1.544-4.782c.412 0 .741.046.988.146.247.101.43.275.548.53.12.257.174.622.174 1.107s-.055.841-.174 1.106a.991.991 0 0 1-.548.54c-.247.1-.576.146-.988.146H91.37v-3.575h1.545Zm9.319-.003v-1.206h-5.065v5.988h5.065v-1.207h-3.73v-1.206h3.602v-1.198h-3.602v-1.17h3.73Zm4.44-1.203h-3.31v5.988h1.344v-2.176h.887c.229 0 .421.018.558.055a.76.76 0 0 1 .347.192c.092.091.174.21.256.365l.823 1.555h1.554l-.868-1.61a2.704 2.704 0 0 0-.366-.53c-.128-.146-.329-.247-.603-.32v-.073a2.48 2.48 0 0 0 .941-.265 1.45 1.45 0 0 0 .567-.558c.128-.228.192-.512.192-.84a1.78 1.78 0 0 0-.265-.98c-.174-.273-.439-.474-.786-.612-.348-.137-.768-.21-1.262-.21l-.009.018Zm.686 2.642c-.147.11-.384.164-.695.164h-1.957v-1.6h1.957c.32 0 .548.055.695.174.146.119.219.32.219.622 0 .32-.073.53-.219.64Zm6.302.188-2.149-2.833h-1.426v5.988h1.344v-2.889l-.055-1.097h.091l.759 1.124 2.204 2.862h1.435v-5.988h-1.344v2.889l.064 1.207h-.1l-.823-1.262Zm9.406.156.421-1.718h.1l.421 1.718.887 3h1.993l1.426-5.99h-1.463l-.731 3.393-.201 1.316h-.101l-.274-1.316-.997-3.392h-1.993l-.996 3.392-.284 1.316h-.091l-.21-1.316-.723-3.392h-1.499l1.408 5.988h1.993l.914-2.999Zm7.909 1.674h2.989l.567 1.325h1.536l-2.633-5.988h-1.911l-2.624 5.988h1.5l.567-1.326h.009Zm1.088-2.515.365-.932h.101l.366.932.557 1.308h-1.956l.567-1.308Zm9.479.742c-.265-.164-.621-.274-1.069-.347l-1.683-.265a1.68 1.68 0 0 1-.402-.11.476.476 0 0 1-.219-.174.518.518 0 0 1-.073-.283c0-.128.036-.238.118-.32.074-.082.211-.146.384-.192.183-.046.43-.064.759-.064.402 0 .704.027.924.082.21.055.365.147.438.265.083.12.119.275.119.467v.128h1.353v-.055c0-.42-.1-.786-.292-1.106a1.933 1.933 0 0 0-.887-.741c-.393-.174-.905-.265-1.518-.265-.502 0-.932.055-1.28.164-.347.11-.63.247-.841.421a1.58 1.58 0 0 0-.466.594c-.101.22-.146.448-.146.668 0 .329.073.603.21.832.137.228.329.411.585.548.256.137.558.238.914.293l1.683.237c.301.055.521.12.64.21.118.092.182.22.182.403a.47.47 0 0 1-.109.32c-.073.082-.201.146-.393.183a4.7 4.7 0 0 1-.823.055c-.402 0-.713-.028-.933-.083-.219-.054-.365-.137-.439-.246a.813.813 0 0 1-.118-.448v-.165h-1.344v.055c0 .466.109.85.329 1.17.219.32.539.549.969.704.43.155.932.238 1.536.238.631 0 1.143-.083 1.536-.256.393-.174.676-.402.859-.686a1.63 1.63 0 0 0 .265-.905c0-.274-.064-.53-.183-.759-.118-.228-.31-.42-.576-.585l-.009.018Zm3.823-2.89h-2.231v1.206h2.231v4.782h1.344v-4.782h2.221v-1.206h-3.565Zm5.914 5.988h3.73v-1.207h-3.73v-1.206h3.593v-1.198h-3.593v-1.17h3.73v-1.207h-5.065v5.988h1.335Zm9.271-1.002v-1.435h1.427V43.83h-1.427v-1.444H159.4v1.444h-1.418v1.106h1.418v1.436h1.151Zm4.5 1.005h1.344v-2.176h.887c.228 0 .42.018.557.055.137.036.256.1.348.192.091.091.173.21.256.365l.823 1.555h1.554l-.869-1.61a2.702 2.702 0 0 0-.365-.53c-.128-.146-.33-.247-.604-.32v-.073a2.48 2.48 0 0 0 .942-.265 1.45 1.45 0 0 0 .567-.558c.128-.228.192-.512.192-.84a1.78 1.78 0 0 0-.266-.98c-.173-.273-.438-.474-.786-.612-.347-.137-.768-.21-1.261-.21h-3.31v5.988l-.009.019Zm1.344-4.782h1.956c.32 0 .549.055.695.174.146.119.22.32.22.622 0 .32-.074.53-.22.64-.146.11-.384.164-.695.164h-1.956v-1.6Zm10.44-.003v-1.206h-5.065v5.988h5.065v-1.207h-3.722v-1.206h3.594v-1.198h-3.594v-1.17h3.722Zm7.26 1.291v-.137c0-.512-.128-.95-.375-1.316-.247-.366-.604-.64-1.061-.842-.457-.2-.996-.292-1.627-.292s-1.225.128-1.701.384a2.66 2.66 0 0 0-1.106 1.07c-.256.466-.393 1.005-.393 1.627 0 .622.128 1.17.393 1.627.256.467.631.823 1.106 1.07.476.256 1.052.384 1.701.384s1.17-.1 1.627-.293c.457-.2.805-.475 1.061-.84.247-.366.375-.805.375-1.308v-.137h-1.491v.137c0 .393-.118.686-.365.878-.238.192-.631.283-1.18.283-.438 0-.786-.055-1.051-.174a1.092 1.092 0 0 1-.576-.567c-.119-.265-.183-.612-.183-1.05 0-.44.055-.805.183-1.061.119-.256.311-.448.576-.567.265-.12.613-.174 1.051-.174.54 0 .933.091 1.18.283.237.192.365.485.365.878v.137h1.491Zm3.308 1.507v1.984h1.353v-1.984l2.697-4.004h-1.663l-1.143 1.746-.503.804h-.092l-.502-.804-1.143-1.746h-1.655l2.651 4.004Zm10.961-1.507v-.137c0-.512-.128-.95-.375-1.316-.246-.366-.603-.64-1.06-.842-.457-.2-.997-.292-1.628-.292-.63 0-1.225.128-1.7.384a2.65 2.65 0 0 0-1.106 1.07c-.256.466-.393 1.005-.393 1.627 0 .622.128 1.17.393 1.627.256.467.631.823 1.106 1.07.475.256 1.051.384 1.7.384.65 0 1.171-.1 1.628-.293.457-.2.804-.475 1.06-.84.247-.366.375-.805.375-1.308v-.137h-1.49v.137c0 .393-.119.686-.366.878-.237.192-.631.283-1.179.283-.439 0-.786-.055-1.052-.174a1.087 1.087 0 0 1-.575-.567c-.119-.265-.183-.612-.183-1.05 0-.44.055-.805.183-1.061a1.12 1.12 0 0 1 .575-.567c.266-.12.613-.174 1.052-.174.539 0 .932.091 1.179.283.238.192.366.485.366.878v.137h1.49Zm1.116-2.497v5.988h4.901v-1.207h-3.566v-4.781h-1.335Zm7.315 0h-1.344v5.988h1.344v-5.988Zm3.364 3.127 2.212 2.861h1.427v-5.988h-1.344v2.889l.064 1.207h-.092l-.832-1.262-2.139-2.834h-1.435v5.988h1.343v-2.889l-.054-1.097h.091l.759 1.124Zm11.155 2.861v-3.163h-3.374v.997h2.021c-.009.228-.055.42-.147.557-.1.156-.292.265-.557.33-.265.063-.64.09-1.116.09-.438 0-.786-.054-1.051-.173a1.092 1.092 0 0 1-.576-.567c-.119-.265-.183-.612-.183-1.051 0-.439.064-.805.192-1.06a1.16 1.16 0 0 1 .594-.568c.275-.118.631-.173 1.088-.173.576 0 .988.082 1.235.247.246.164.374.43.374.777v.073h1.491v-.073c0-.485-.128-.896-.375-1.235a2.385 2.385 0 0 0-1.061-.795c-.457-.183-.996-.283-1.627-.283-.686 0-1.28.128-1.774.384a2.84 2.84 0 0 0-1.152 1.07c-.265.466-.402 1.005-.402 1.627 0 .621.119 1.17.357 1.627a2.46 2.46 0 0 0 1.024 1.07c.448.256.969.384 1.581.384.439 0 .796-.064 1.088-.183.293-.119.521-.283.686-.494.164-.21.283-.448.356-.704h.074v1.29h1.243-.009ZM76.66 27.11h1.856c.594 0 1.06.045 1.398.137.339.09.613.246.823.466.21.228.412.54.604.941l1.929 3.95h5.23l-2.003-4.05a6.894 6.894 0 0 0-.996-1.527c-.366-.411-.96-.722-1.792-.923v-.238c1.023-.128 1.865-.384 2.505-.759.64-.375 1.115-.877 1.408-1.49.301-.622.448-1.353.448-2.203 0-1.061-.247-1.957-.732-2.688-.493-.732-1.216-1.29-2.176-1.674-.96-.383-2.157-.575-3.593-.575h-9.417v16.136h4.526V27.12l-.018-.01Zm0-6.574h4.845c.659 0 1.125.1 1.399.31.274.211.411.632.411 1.28 0 .695-.137 1.134-.411 1.326-.274.192-.74.293-1.399.293H76.66v-3.21Zm17.644 11.28c1.344.686 2.944 1.024 4.81 1.024 1.864 0 3.556-.338 4.9-1.024 1.344-.686 2.368-1.646 3.072-2.89.704-1.242 1.06-2.705 1.06-4.397 0-1.691-.356-3.154-1.06-4.397-.704-1.244-1.728-2.204-3.072-2.89-1.344-.685-2.972-1.023-4.9-1.023-1.93 0-3.466.338-4.81 1.024-1.344.685-2.368 1.645-3.072 2.889-.704 1.243-1.06 2.706-1.06 4.397 0 1.692.356 3.154 1.06 4.398.704 1.243 1.728 2.212 3.072 2.889Zm1.033-9.755c.229-.567.65-.96 1.244-1.18.594-.219 1.435-.329 2.532-.329s1.939.11 2.551.33c.613.219 1.042.612 1.289 1.179.247.567.375 1.39.375 2.468 0 1.08-.128 1.884-.375 2.46a2.079 2.079 0 0 1-1.289 1.188c-.612.22-1.463.33-2.55.33-1.089 0-1.939-.11-2.533-.33a2.05 2.05 0 0 1-1.244-1.188c-.228-.576-.347-1.4-.347-2.46s.119-1.901.347-2.468Zm19.858 7.551h7.662l1.225 2.99h5.202l-6.985-16.137h-6.482l-6.958 16.137h5.084l1.252-2.99Zm3.685-9.06h.31l1.061 2.724.933 2.267h-4.288l.951-2.267 1.033-2.724Zm16.649 12.051h3.639c1.783 0 3.328-.32 4.626-.951 1.299-.63 2.304-1.554 3.008-2.761.704-1.207 1.061-2.66 1.061-4.361 0-1.7-.357-3.154-1.061-4.361-.704-1.207-1.709-2.121-3.008-2.761-1.298-.631-2.843-.951-4.626-.951h-8.164v16.137h4.525v.009Zm3.639-12.068c.96 0 1.728.082 2.286.237.558.165.96.522 1.207 1.088.237.558.365 1.454.365 2.67s-.118 2.094-.365 2.66c-.238.567-.64.933-1.207 1.098-.567.164-1.326.237-2.286.237h-3.639v-8h3.639v.01Zm16.109 6.575h1.856c.594 0 1.06.045 1.399.137.338.09.612.246.822.466.211.228.412.54.604.941l1.929 3.95h5.229l-2.002-4.05a6.89 6.89 0 0 0-.996-1.527c-.366-.411-.96-.722-1.792-.923v-.238c1.024-.128 1.865-.384 2.505-.759.64-.375 1.115-.877 1.408-1.49.301-.622.448-1.353.448-2.203 0-1.061-.247-1.957-.732-2.688-.493-.732-1.216-1.29-2.176-1.674-.96-.383-2.157-.575-3.593-.575h-9.416v16.136h4.525V27.12l-.018-.01Zm0-6.574h4.845c.659 0 1.125.1 1.399.31.274.211.412.632.412 1.28 0 .695-.138 1.134-.412 1.326-.274.192-.74.293-1.399.293h-4.845v-3.21Zm17.261 11.453c1.216.567 2.761.86 4.636.86 1.874 0 3.428-.284 4.635-.86 1.216-.567 2.112-1.38 2.706-2.432.594-1.051.887-2.295.887-3.721v-9.371h-4.526v9.005c0 .768-.1 1.372-.292 1.81-.192.43-.558.741-1.088.915-.53.174-1.307.265-2.341.265-1.033 0-1.782-.091-2.322-.265-.539-.174-.905-.485-1.097-.915-.192-.43-.292-1.033-.292-1.81v-9.005h-4.526v9.371c0 1.426.302 2.67.896 3.721.594 1.051 1.499 1.865 2.706 2.432h.018Zm20.195-5.705-.192-3.081h.31l2.048 3.181 4.773 6.218h4.818V16.465h-4.535V22.7l.22 3.52h-.311l-2.359-3.712-4.48-6.043h-4.818v16.137h4.526v-6.318Zm18.687 0-.192-3.081h.32l2.039 3.181 4.772 6.218h4.818V16.465h-4.525V22.7l.219 3.52h-.32l-2.358-3.712-4.48-6.043h-4.818v16.137h4.525v-6.318Zm15.635-9.819h-1.225v16.137h14.336v-4.078h-9.81v-2.02h9.444v-4.042h-9.444v-1.929h9.81v-4.068h-13.111Zm28.946 10.562c-.366-.411-.96-.722-1.792-.923v-.238c1.024-.128 1.865-.384 2.505-.759.64-.375 1.115-.877 1.408-1.49.301-.622.448-1.353.448-2.203 0-1.061-.247-1.957-.732-2.688-.494-.732-1.216-1.29-2.176-1.674-.96-.383-2.157-.575-3.593-.575h-9.417v16.136h4.526V27.12h1.856c.594 0 1.06.045 1.399.137.338.091.612.247.823.466.21.229.411.54.603.942l1.929 3.95h5.23l-2.003-4.051a6.89 6.89 0 0 0-.996-1.527l-.018-.009Zm-2.588-3.575c-.274.192-.74.293-1.399.293h-4.845v-3.2h4.845c.659 0 1.125.1 1.399.31.274.211.412.632.412 1.28 0 .696-.138 1.134-.412 1.326v-.009Z" fill="#000"/><path d="M1.307 49.67h8.585L1.307 34.239v15.433Z" fill="#0FF"/><path d="M9.92 23.662v-.228H0v.228h9.92Zm.458-3.632L.732 17.7c-.046.173-.082.347-.119.511l9.637 2.332c.036-.174.082-.348.128-.512Zm1.241-3.07-8.85-4.48-.384.741 8.85 4.48c.119-.256.247-.494.384-.74Zm1.921-2.662L5.925 7.953c-.247.284-.494.576-.732.869l7.616 6.345c.238-.302.476-.585.732-.869Zm2.495-2.118-6.016-7.89c-.393.273-.777.566-1.152.868l6.016 7.88c.366-.301.759-.594 1.161-.859h-.009Zm2.936-1.473-4.096-9.05a24.53 24.53 0 0 0-1.6.703l4.087 9.042a13.854 13.854 0 0 1 1.6-.695h.01Zm3.256-.733L20.335.219c-.686.091-1.353.22-2.02.365l1.883 9.737a14.819 14.819 0 0 1 2.02-.356l.01.009Zm3.463.11.466-9.947A24.94 24.94 0 0 0 23.806 0l-.456 9.92h.21c.731 0 1.444.055 2.14.164h-.01Zm6.035-8.631a21.517 21.517 0 0 0-2.542-.777l-2.761 9.535c.878.192 1.728.458 2.532.814l2.77-9.572Zm.082 11.247 4.882-8.694a22.251 22.251 0 0 0-2.56-1.49l-4.863 8.658c.905.42 1.755.932 2.541 1.527Z" fill="#000"/><path d="M47.094 22.802a23.85 23.85 0 0 0-.493-4.15l-6.41.932 6.044-2.414a23.64 23.64 0 0 0-1.353-3.63l-6.866 2.744 6.089-4.243A23.337 23.337 0 0 0 42.12 9.07l-7.058 4.919 5.814-6.4a23.046 23.046 0 0 0-2.377-2.25l-6.683 7.36c3.264 2.496 5.385 6.428 5.385 10.844 0 3.273-1.197 6.482-3.355 8.95-2.386 2.743-5.595 4.178-9.17 4.626-5.266.659-9.984-1.39-14.802-3.209 0 0 14.153 23.88 14.326 23.972.165.083.357 0 .54 0h10.55c-2.432-3.73-4.863-7.478-7.295-11.209a23.792 23.792 0 0 0 13.576-7.972l.083-.082a23.781 23.781 0 0 0 2.825-4.242l.21-.412a23.382 23.382 0 0 0 1.682-4.489l-3.63-1.234 3.84.357a23.07 23.07 0 0 0 .54-4.453l-5.678-.53 5.678-.832-.028.018Z" fill="#000"/></g><defs><clipPath id="a"><path fill="#000" d="M0 0h259v57.927H0z"/></clipPath></defs></svg>