<svg width="151" height="25" fill="none" xmlns="http://www.w3.org/2000/svg"><path d="M19.003 18.116c-1.34-.781-2.698-1.57-4.097-2.386-2.54 1.478-5.028 2.93-7.52 4.375-1.081.627-2.037.518-2.698-.292-.645-.789-.585-1.736.17-2.664.044-.053.071-.121.062-.105v-4.946c-.86.52-1.664.933-2.39 1.461C.88 14.758.042 16.434.001 18.464c-.098 4.841 4.994 7.886 9.237 5.501 3.218-1.808 6.386-3.706 9.578-5.562.1-.059.212-.107.187-.287Z" fill="#00A599"/><path d="M21.741 24.874c2.591-.55 4.432-2.513 4.875-5.18.407-2.441-.765-4.976-2.969-6.28-3.135-1.854-6.292-3.674-9.442-5.507-.111-.064-.22-.202-.377-.083v4.81c.958.558 1.901 1.111 2.846 1.663 1.604.935 3.221 1.853 4.809 2.812.844.511 1.146 1.425.85 2.298-.293.86-1.127 1.373-2.08 1.28-.188-.019-.374-.043-.56-.065l-4.176 2.441c1.28.69 2.334 1.519 3.673 1.796a6.15 6.15 0 0 0 2.551.015Z" fill="#00A599"/><path d="m7.352 17.609 4.075-2.37v-.805c0-2.605-.004-5.21.002-7.812.003-1.265.608-2.116 1.611-2.302.99-.182 1.786.36 2.256 1.537.017.042.057.075.116.147l4.14 2.4c0-.861.015-1.591-.002-2.32C19.474 2.68 16.697-.03 13.324 0c-3.375.032-6.093 2.787-6.1 6.202a2628.4 2628.4 0 0 0 .004 10.752c0 .2-.084.425.124.655Z" fill="#00A599"/><path d="M84.268 16.297c-.669.164-1.348.083-2.024.088-1.348.011-2.695.004-4.073.004v-3.044c2.028.062 4.03-.129 6.022.114.882.106 1.303.62 1.313 1.382.01.794-.367 1.243-1.238 1.456Zm-6.102-7.585c.152-.19.36-.12.544-.12 1.476-.006 2.952-.006 4.426-.003.412.002.82.026 1.21.184.487.197.698.552.689 1.077-.01.528-.23.883-.733 1.043a1.948 1.948 0 0 1-.564.115c-1.833.01-3.666.006-5.574.006V8.712h.002Zm8.38 3.344c.848-.844 1.1-1.347 1.148-2.211.104-1.927-.888-3.122-3.005-3.386-3.03-.379-6.078-.076-9.138-.18v12.397c2.814 0 5.57.01 8.325-.008a5.517 5.517 0 0 0 2.25-.496c1.791-.81 2.54-2.76 1.75-4.57-.277-.638-.72-1.14-1.33-1.546ZM41.718 11.692v-3.11c1.936.055 3.839-.116 5.734.107.927.11 1.293.579 1.29 1.443-.004.873-.347 1.286-1.304 1.424-1.874.27-3.758.05-5.72.136Zm6.8 2.02c2.084-.615 3.03-1.937 2.875-4.012-.152-2.015-1.154-2.995-3.371-3.296-.24-.033-.48-.076-.72-.076-2.659-.014-5.32-.024-7.979-.03-.086 0-.172.049-.236.067v12.292h2.6v-4.672h3.49c1.182 1.61 2.325 3.17 3.429 4.678h3.283c-1.236-1.658-2.413-3.241-3.607-4.844.112-.051.172-.088.236-.107ZM148.515 6.322v8.45c-2.713-2.952-5.262-5.725-7.741-8.426h-2.681v12.296h2.538V9.967l8.01 8.68H151V6.323h-2.485ZM127.243 16.53a6.631 6.631 0 0 1-3.153-.172c-1.76-.536-2.688-1.88-2.692-3.854-.004-1.956.936-3.318 2.677-3.872a7.169 7.169 0 0 1 1.934-.312c.432.05.866.075 1.293.154 2.137.394 3.335 1.846 3.331 4.017-.003 2.222-1.212 3.649-3.39 4.038Zm1.846-10.069c-1.62-.527-3.281-.568-4.95-.305-3.325.526-5.208 2.688-5.415 6.192-.174 2.964 1.645 5.488 4.557 6.306.89.25 1.803.34 2.803.335a10.01 10.01 0 0 0 2.581-.313c2.785-.705 4.556-2.983 4.64-5.955.082-3.05-1.469-5.364-4.216-6.26ZM106.883 16.528c-1.804-.379-3.022-1.746-3.143-3.526-.148-2.2.742-3.73 2.529-4.34 2.372-.812 4.459-.165 5.789 1.789h2.569c-.465-1.943-1.564-3.252-3.377-3.921-1.655-.61-3.369-.653-5.082-.335-2.507.465-4.375 1.772-4.937 4.392-.586 2.735-.13 5.25 2.203 7.083 2.408 1.891 7.181 1.775 9.552-.164 1.062-.87 1.614-2.013 1.802-3.399h-2.567c-1.084 2.118-2.897 2.934-5.338 2.421ZM69.594 6.337h-2.548v.83c-.01 2.209.024 4.418-.05 6.624-.054 1.563-.905 2.438-2.43 2.724a7.227 7.227 0 0 1-2.523.039c-1.85-.3-2.699-1.278-2.706-3.17-.01-2.038.002-4.076-.006-6.113-.002-.307.004-.956.004-.949h-2.619c0 2.673-.075 5.269.022 7.86.086 2.311 1.462 3.888 3.688 4.477a10.84 10.84 0 0 0 5.03.116c2.665-.56 4.055-2.089 4.18-4.818.113-2.493.035-4.995.037-7.493-.002-.04-.048-.077-.08-.127ZM95.868 6.35h-2.527v12.32h2.527V6.35Z" fill="#042228"/></svg>