<?xml version="1.0" encoding="UTF-8"?>
<svg id="Layer_1" xmlns="http://www.w3.org/2000/svg" viewBox="0 0 83.27 25.56"><defs><style>.cls-1{fill:#fff;}</style></defs><g><path class="cls-1" d="m10.32,0c-.81,0-1.47.66-1.47,1.48v9.46c.01.81.67,1.47,1.49,1.47s1.47-.66,1.47-1.48V1.47C11.79.66,11.13,0,10.32,0Z"/><path class="cls-1" d="m20.64,12.89c-.14-3.74-3.13-6.84-7.03-8v2.97c2.34.98,4.16,2.91,4.25,5.15.24,4.52-2.21,5.6-4.38,6.64-.24.12-.48.23-.7.34-1.05.54-1.9,1.22-2.53,1.88-.64-.66-1.5-1.33-2.56-1.88l-.27-.13c-2.11-1.07-4.72-2.39-4.64-6.67.01-.06.02-.12.02-.19.08-2.29,1.8-4.27,4.22-5.22v-2.94C3.12,5.94.27,8.99.03,12.69c-.01.07-.02.14-.03.22-.22,6.21,3.93,8.31,6.16,9.44l.26.13c1.19.61,2.81,2.18,3.53,2.92.2.21.54.2.73,0,.69-.75,2.25-2.34,3.37-2.92.2-.1.41-.2.63-.31,2.27-1.09,6.28-2.92,5.95-9.27Z"/></g><path class="cls-1" d="m32.16,20.57c-1.97,0-4.15-.77-5.69-2.02l-.34-.28,1.51-2.14.39.29c1.37,1.02,2.83,1.57,4.23,1.57,1.12,0,2.24-.5,2.23-1.6v-.05c0-.87-.98-1.3-2.91-1.84-1.97-.56-4.66-1.32-4.66-4.13v-.05c0-2.48,2.01-4.21,4.91-4.21,1.67,0,3.52.56,4.95,1.51l.38.25-1.36,2.27-.41-.26c-1.17-.75-2.48-1.18-3.6-1.18-1.23,0-2.06.57-2.06,1.43v.05c0,.88,1.45,1.31,2.98,1.78h.05c1.69.52,4.52,1.37,4.53,4.19v.05c0,1.33-.52,2.45-1.52,3.25-.91.73-2.19,1.13-3.59,1.14h0Z"/><path class="cls-1" d="m44.44,20.58c-2.65,0-5.33-1.55-5.34-4.53v-.05c0-1.48.6-2.69,1.74-3.52,1.05-.76,2.54-1.17,4.3-1.17,1.52,0,2.64.19,3.54.41-.08-2.41-1.89-2.93-3.41-2.93-1.56,0-2.73.44-3.77.92l-.46.21-.91-2.47.4-.18c1.22-.56,2.76-1.13,4.94-1.13,1.98,0,3.5.53,4.55,1.57.98.98,1.48,2.37,1.48,4.14v8.44s-2.8,0-2.8,0v-1.25c-.93.82-2.29,1.53-4.25,1.53h0Zm.91-6.89c-2.12,0-3.34.82-3.34,2.23v.05c0,1.46,1.46,2.13,2.81,2.13,1.08,0,2.07-.32,2.79-.89.71-.56,1.1-1.34,1.1-2.17v-.9c-1.12-.29-2.22-.44-3.35-.44v-.47l-.02.47Z"/><path class="cls-1" d="m60.61,24.37c-2.29,0-4.37-.64-6.18-1.89l1.43-2.28c1.43,1.04,3.03,1.57,4.74,1.57,1.33,0,2.41-.37,3.14-1.05.76-.72,1.14-1.77,1.14-3.13v-.27c-1.31,1.32-2.84,1.96-4.65,1.96-3.25,0-6.6-2.46-6.61-6.57v-.05c0-4.15,3.35-6.63,6.59-6.63,1.81,0,3.36.62,4.63,1.84v-1.57s2.88,0,2.88,0v11.24c.02,2.09-.59,3.75-1.78,4.95-1.23,1.23-3.06,1.88-5.3,1.88h-.02Zm-.03-15.69c-2.34,0-4.04,1.65-4.04,3.93v.05c0,2.26,1.74,3.97,4.05,3.97,2.08,0,4.33-1.51,4.33-3.95v-.05c0-2.47-2.2-3.94-4.32-3.94v-.47.47Z"/><path class="cls-1" d="m76.97,20.57c-3.97,0-6.97-3.12-6.98-7.25v-.05c0-4.07,2.95-7.26,6.72-7.26,3.86,0,6.55,3.02,6.56,7.35,0,.26,0,.43-.03.68l-.05.42h-10.23c.41,2.14,1.95,3.48,4.05,3.48,1.49,0,2.66-.53,3.78-1.7l1.9,1.72c-1.61,1.8-3.38,2.61-5.72,2.61h0Zm-.31-11.99c-1.84,0-3.3,1.42-3.69,3.51h7.33c-.3-1.78-1.38-3.51-3.63-3.51v-.47.47Z"/></svg>