<svg width="138" height="32" viewBox="0 0 138 32" xmlns="http://www.w3.org/2000/svg">
    <defs>
        <linearGradient id="a" x1="3.6" x2="19.3" y1="17.7" y2="12.2" gradientUnits="userSpaceOnUse">
            <stop offset="0" stop-color="#16492c" stop-opacity="0"></stop>
            <stop offset="1" stop-color="#0e5b3d"></stop>
        </linearGradient>
        <linearGradient id="b" x1="18.7" x2="13.2" y1="9.3" y2="20" gradientUnits="userSpaceOnUse">
            <stop offset="0" stop-color="#16492c" stop-opacity="0"></stop>
            <stop offset="1" stop-color="#0e5b3d"></stop>
        </linearGradient>
        <linearGradient id="c" x1="8.3" x2="3.3" y1="4.6" y2="28.8" gradientUnits="userSpaceOnUse">
            <stop offset="0" stop-color="#16492c" stop-opacity="0"></stop>
            <stop offset="1" stop-color="#0e5b3d"></stop>
        </linearGradient>
        <linearGradient id="d" x1="17" x2="9.3" y1="21.9" y2="8.3" gradientUnits="userSpaceOnUse">
            <stop offset="0" stop-color="#16492c" stop-opacity="0"></stop>
            <stop offset="1" stop-color="#0e5b3d"></stop>
        </linearGradient>
    </defs>
    <path fill="#333" d="M38.9 22.6l.7-1.4c0-.2.3-.3.4-.2.8.6 1.7 1 2.4 1.3 1 .3 2 .5 3.1.5 1.3 0 2.2-.2 2.9-.6.6-.4 1-1 1-1.9a2 2 0 0 0-.8-1.5c-.4-.4-1-.7-2.1-1l-2.8-.6a5.8 5.8 0 0 1-3.3-1.8c-.7-.8-1-2-1-3.1a4 4 0 0 1 1.7-3A7.3 7.3 0 0 1 45.7 8c1.1 0 2.3.2 3.3.6a7 7 0 0 1 2.4 1.4c.1 0 .1.3 0 .4l-.6 1.4c0 .1-.3.2-.5 0a7.6 7.6 0 0 0-4.6-1.6c-1.2 0-2.1.2-2.7.7-.7.4-1 1-1 1.8 0 .7.2 1.2.6 1.6.4.4 1 .6 2 .9l2.7.6c1.6.4 2.7 1 3.4 1.6.8.8 1.2 1.7 1.2 2.9 0 1.4-.6 2.5-1.8 3.3a8 8 0 0 1-4.7 1.3c-2.7 0-4.8-.7-6.5-2v-.3zM58.8 23.8c-1.2-.6-2-1.6-2.8-2.9-.6-1.2-1-2.7-1-4.4s.4-3.1 1-4.4a7.3 7.3 0 0 1 2.8-3 8 8 0 0 1 4.3-1c1.1 0 2.2.1 3.2.5a7 7 0 0 1 2.4 1.4c.1 0 .1.3 0 .4l-.6 1.4c0 .2-.3.2-.5.1-.7-.5-1.4-1-2.1-1.2-.8-.3-1.6-.4-2.4-.4a5 5 0 0 0-4 1.6 6.9 6.9 0 0 0-1.4 4.6c0 2 .5 3.5 1.4 4.6 1 1.1 2.3 1.6 4 1.6.8 0 1.6-.1 2.3-.4a9.5 9.5 0 0 0 2.2-1.3c.2 0 .3 0 .4.2l.7 1.4v.3a8.2 8.2 0 0 1-2.5 1.4 9.4 9.4 0 0 1-3.3.6c-1.6 0-3-.3-4.1-1zM81.4 8.5v1.8l-.4.2-1.4-.1c-1.6 0-2.8.5-3.6 1.4-.7 1-1.1 2.2-1.1 3.6v9.3h-2.7V13c0-1.6 0-3-.2-4.2 0-.2 0-.3.3-.3h1.9c.1 0 .3 0 .3.3l.2 2.7c.4-1.1 1-2 2-2.5a6 6 0 0 1 3.1-1l1.3.2c.2 0 .3.1.3.3zM90.6 22.7c-1.7 0-2.9-.5-3.8-1.6-.9-1-1.3-2.6-1.3-4.6 0-1.9.4-3.5 1.3-4.6a4.6 4.6 0 0 1 3.8-1.6c1.6 0 2.9.5 3.7 1.6.8 1 1.3 2.6 1.3 4.6S95 20 94.3 21c-.9 1-2.1 1.6-3.7 1.6zM98 8.4h-2c-.2 0-.3.1-.3.3v2.5a5.5 5.5 0 0 0-2.2-2.3c-1-.6-2.1-.9-3.4-.9a6.8 6.8 0 0 0-6.4 4c-.7 1.4-1 2.9-1 4.5 0 1.7.3 3.2 1 4.4a6.4 6.4 0 0 0 2.5 3c1 .7 2.4 1 3.8 1 1.3 0 2.4-.3 3.4-.8 1-.6 1.7-1.4 2.2-2.4v2.7c0 .2.1.3.3.3h2c.2 0 .3-.1.3-.3V8.7c0-.2-.1-.3-.2-.3zM111 22.7c-1.6 0-2.9-.5-3.7-1.6-.9-1-1.3-2.6-1.3-4.6s.4-3.6 1.3-4.6c.9-1 2.1-1.6 3.7-1.6s2.9.5 3.8 1.6a7 7 0 0 1 1.3 4.6c0 2-.4 3.5-1.3 4.6-.9 1-2.1 1.6-3.8 1.6zm.5-14.6c-1.4 0-2.5.3-3.5 1-1 .5-1.7 1.4-2.2 2.5l-.2-2.8c0-.2-.1-.3-.3-.3h-2s-.2 0-.2.3c.2 1.2.2 2.6.2 4.2v18.3c0 .2.1.3.3.3h2c.3 0 .4 0 .4-.3v-9.6a5.4 5.4 0 0 0 2.2 2.4c1 .5 2 .8 3.4.8s2.7-.4 3.8-1c1.1-.7 2-1.7 2.6-3 .6-1.2.9-2.7.9-4.4 0-1.6-.3-3.1-1-4.4a7.2 7.2 0 0 0-2.5-3c-1.1-.7-2.4-1-3.9-1zM129.7 22.7c-1.6 0-3-.6-3.8-1.6-.8-1-1.3-2.6-1.3-4.7a7 7 0 0 1 1.4-4.6c.9-1 2.1-1.6 3.8-1.6 1.6 0 2.8.5 3.7 1.6a7 7 0 0 1 1.4 4.6c0 2-.5 3.6-1.3 4.7-1 1-2.2 1.6-3.9 1.6zm0 2.2a8.2 8.2 0 0 0 4.1-1c1.2-.8 2.1-1.7 2.7-3a10 10 0 0 0 1-4.5 10 10 0 0 0-1-4.4 6.6 6.6 0 0 0-2.7-3c-1.1-.7-2.5-1-4-1a8.2 8.2 0 0 0-4 1c-1.2.7-2.2 1.7-2.8 3a10 10 0 0 0-1 4.4c0 1.8.4 3.2 1 4.5a6.6 6.6 0 0 0 2.7 3c1.2.7 2.6 1 4 1z"></path>
    <g>
        <path fill="#349b62" d="M19 13.9l-4.1-7.1a5.3 5.3 0 0 0-7.4-2l-1.4 1a13.9 13.9 0 0 0-4.8 14.6 4 4 0 0 1-1 3.5c-.2.3-.2.7 0 .9 1.1.7 3.5 2.1 6.2 3.4h.1l.7.4.3.1h-.2.2l-.2-.1-.6-.4-.1-.2c-.1 0-.2 0-.3-.2a5.7 5.7 0 0 1-1-6.7l3.9-6.7.2-.5c1.2-2.1 3.5-3 5.7-2.7 1.5.3 3 1.3 3.8 2.7z"></path>
        <path fill="url(#a)" d="M19 13.9l-4.1-7.1a5.3 5.3 0 0 0-7.4-2l-1.4 1a13.8 13.8 0 0 0-4.8 14.6 4 4 0 0 1-1 3.5c-.2.3-.2.7 0 .9 1.1.7 3.5 2.1 6.2 3.4h.1l.7.4.3.1h-.2.2l-.2-.1-.6-.4-.1-.2c-.1 0-.2 0-.3-.2a5.7 5.7 0 0 1-1-6.7l3.9-6.7.2-.5c1.2-2.1 3.5-3 5.7-2.7 1.5.3 3 1.3 3.8 2.7z"></path>
        <path fill="#43b96b" d="M27.6 15A13.9 13.9 0 0 0 26 9.8 13.3 13.3 0 0 0 18 3.6 4 4 0 0 1 15.7.8c0-.3-.4-.5-.7-.4a42 42 0 0 0-6.2 3.5h.1l-.4.2.3-.2a7 7 0 0 0-1 .7l-.4.3a5.3 5.3 0 0 1 7.5 2l4 7c1.2 2.2 1 4.7-.5 6.4a5.6 5.6 0 0 1-3.6 2h-.5 8.1a5 5 0 0 0 2.3-.5 5.4 5.4 0 0 0 3-5V15z"></path>
        <path fill="url(#b)" d="M27.6 15A13.9 13.9 0 0 0 26 9.8 13.3 13.3 0 0 0 18 3.6 4 4 0 0 1 15.7.8c0-.3-.4-.5-.7-.4a42 42 0 0 0-6.2 3.5l-1.4 1v-.1a5.3 5.3 0 0 1 7.5 2l4 7.1c1.2 2.1 1 4.6-.5 6.3a5.6 5.6 0 0 1-3.6 2h-.5 8.1a5 5 0 0 0 2.3-.5 5.4 5.4 0 0 0 3-4.9V15z"></path>
        <path fill="url(#c)" d="M8.8 3.9l-1 .7"></path>
        <path fill="#277c56" d="M27.8 17.9V17.5v-.8.2a5.4 5.4 0 0 1-3.2 4.9 5 5 0 0 1-2.3.5h-8A5.4 5.4 0 0 1 9 18.6c-.4-1.3-.4-2.8.2-4.2l-3.8 6.7a5.6 5.6 0 0 0 1.2 7l.2.1.5.3 1.6.8a13.6 13.6 0 0 0 5.2 1.1c3.8 0 7.1-1.5 9.6-4 1-.8 2.3-1.1 3.5-.8.4 0 .7-.1.7-.5 0-1.3.2-4.2-.2-7.2z"></path>
        <g>
            <path fill="url(#d)" d="M27.8 17.9V17.5v-.8.2a5.4 5.4 0 0 1-3.2 4.9 5 5 0 0 1-2.3.5h-8A5.4 5.4 0 0 1 9 18.6c-.4-1.3-.4-2.8.2-4.2l-3.8 6.7a5.6 5.6 0 0 0 1.2 7l.2.1.5.3 1.6.8a13.6 13.6 0 0 0 5.2 1.1c3.8 0 7.1-1.5 9.6-4 1-.8 2.3-1.1 3.5-.8.4 0 .7-.1.7-.5 0-1.3.2-4.2-.2-7.2z"></path>
        </g>
    </g>
</svg>