<svg xmlns="http://www.w3.org/2000/svg" width="117" height="24" fill="none" viewBox="0 0 166 40"><path fill="#1A1A1A" d="M91.24 14.77a6.8 6.8 0 0 1 6.79 5.66 10 10 0 0 1-.67 6.25 7 7 0 0 1-2.47 2.75 7 7 0 0 1-3.65 1.02q-.77 0-1.48-.16a6 6 0 0 1-2.34-1.16 5 5 0 0 1-.8-.87v7.24h-3.6V15.2h3.6v1.76a5 5 0 0 1 1.85-1.57 6 6 0 0 1 2.77-.62M73 14.74a8 8 0 0 1 4.02 1.03q.86.48 1.54 1.19a7.5 7.5 0 0 1 1.91 3.45q.26 1.02.26 2.17 0 1.14-.26 2.18a7.7 7.7 0 0 1-1.9 3.47q-.68.7-1.54 1.2A8 8 0 0 1 73 30.45a8.4 8.4 0 0 1-4.03-1.02 7 7 0 0 1-2.7-2.78 8.96 8.96 0 0 1 0-8.13 7 7 0 0 1 4.57-3.51q1.01-.27 2.16-.27m57.1 0a8 8 0 0 1 4.02 1.03q.86.48 1.54 1.19a7.5 7.5 0 0 1 1.9 3.45q.27 1.02.27 2.17 0 1.14-.26 2.18a7.7 7.7 0 0 1-1.9 3.47q-.68.7-1.55 1.2a8 8 0 0 1-4.02 1.02 8.4 8.4 0 0 1-4.03-1.02 7 7 0 0 1-2.7-2.78 8 8 0 0 1-.74-1.9 9 9 0 0 1 .73-6.22 7 7 0 0 1 4.58-3.52q1.01-.27 2.16-.27M39.76 8.68a11 11 0 0 1 2.83.4 8 8 0 0 1 2.46 1.32 7 7 0 0 1 1.81 2.34l-2.92 1.96a6 6 0 0 0-1.05-1.56 4 4 0 0 0-2.27-1.12 5 5 0 0 0-1.75 0 3 3 0 0 0-1.39.56 2 2 0 0 0-.79 1.07q-.1.34-.11.73a2.4 2.4 0 0 0 .78 1.81q.39.36.93.62.54.29 1.24.48l2.02.63q1.3.39 2.4.9 1.1.54 1.88 1.27.8.75 1.23 1.75.43 1.02.43 2.4 0 .99-.27 1.84a5.4 5.4 0 0 1-1.9 2.73q-.67.53-1.5.9a9 9 0 0 1-3.82.74q-1.37 0-2.6-.32a8.08 8.08 0 0 1-5.58-4.69l2.93-1.86q.45.93 1 1.6a5.6 5.6 0 0 0 6.15 1.7q.38-.16.68-.4a2.3 2.3 0 0 0 .84-1.2q.12-.39.12-.82 0-.64-.21-1.11a2.5 2.5 0 0 0-.66-.87 4 4 0 0 0-1.07-.67q-.64-.3-1.48-.54l-2-.61a13 13 0 0 1-2.18-.88 7 7 0 0 1-1.74-1.26 5.5 5.5 0 0 1-1.58-3.98 5.4 5.4 0 0 1 2.1-4.28 7.4 7.4 0 0 1 3.16-1.4 9 9 0 0 1 1.88-.18m121.71 6.52h4.3v3.08h-4.31v6.38q0 .74.18 1.23a1.7 1.7 0 0 0 1.32 1.15 4 4 0 0 0 1.48.1 11 11 0 0 0 1.25-.15v3a8 8 0 0 1-1.28.18 10 10 0 0 1-1.24.06q-1.16 0-2.12-.24l-.24-.07a3.89 3.89 0 0 1-2.55-2.33 7 7 0 0 1-.4-2.47v-6.84h-2.72V15.2h2.72v-4.5h3.61zM108.4 8.25a15 15 0 0 1 2.17.15v3.07l-.46-.06-.94-.07a16 16 0 0 0-1.22.04 3 3 0 0 0-.7.15q-.33.11-.59.3-.26.2-.44.5-.19.28-.29.69t-.1.93v1.25h4.74v3.08h-4.75v11.74h-3.6V18.28h-2.66V15.2h2.66v-1.45q0-1 .23-1.82.23-.8.63-1.41.4-.62.98-1.05.58-.45 1.26-.7.68-.27 1.47-.4.78-.12 1.61-.12m12.89 6.68v3.74q-.69-.12-1.31-.1-.64.02-1.21.2-.58.16-1.07.5-.48.33-.82.83t-.54 1.16q-.2.65-.2 1.48v7.28h-3.59V15.2h3.6v2.39a4 4 0 0 1 1-1.35q.63-.52 1.32-.85t1.43-.42q.74-.09 1.39-.04m-68 1.9a4.6 4.6 0 0 1 1.78-1.5 6 6 0 0 1 2.63-.56q1.26 0 2.24.4t1.67 1.18q.68.78 1.03 1.89.36 1.11.36 2.54v9.24h-3.6v-8.3q0-.96-.2-1.7-.2-.73-.58-1.21a2.3 2.3 0 0 0-.96-.72 3 3 0 0 0-1.32-.24q-.74 0-1.3.24-.6.23-.97.72-.4.48-.59 1.21-.2.75-.2 1.7v8.3H49.7V9.12h3.6zm94.7-2.06q1.24 0 2.23.4t1.67 1.18q.68.78 1.03 1.89.36 1.11.36 2.54v9.24h-3.59v-8.3q0-.96-.2-1.7-.2-.73-.58-1.21a2.3 2.3 0 0 0-.95-.72 3 3 0 0 0-1.32-.24q-.74 0-1.32.24-.57.23-.96.72-.4.48-.59 1.21-.2.75-.2 1.7v8.3h-3.59V15.2h3.6v1.64a4.6 4.6 0 0 1 2.98-1.93q.66-.15 1.42-.14m-57.54 3.1a4 4 0 0 0-2.1.58 4 4 0 0 0-1.44 1.62q-.25.51-.4 1.16a6.5 6.5 0 0 0 .4 3.9 4 4 0 0 0 1.44 1.64q.44.28.99.43a4 4 0 0 0 2.21 0l.26-.09a3.7 3.7 0 0 0 2.17-1.98q.25-.53.4-1.16a6.7 6.7 0 0 0-.4-3.9 4 4 0 0 0-1.44-1.62 4 4 0 0 0-2.1-.57M73 17.86a4 4 0 0 0-2.16.61q-.45.3-.8.72a5 5 0 0 0-.97 2.08 7 7 0 0 0 .37 3.81q.24.52.6.94a3.6 3.6 0 0 0 1.8 1.16 4.3 4.3 0 0 0 2.31 0l.26-.08a3.7 3.7 0 0 0 2.14-2.02 5.5 5.5 0 0 0 .52-2.48 6 6 0 0 0-.52-2.47 4 4 0 0 0-.6-.94 3.5 3.5 0 0 0-1.8-1.17q-.54-.16-1.15-.16m57.1 0a4 4 0 0 0-2.16.61q-.45.3-.8.72a5 5 0 0 0-.97 2.08 7 7 0 0 0 .37 3.81q.24.52.6.94a3.6 3.6 0 0 0 1.8 1.16 4.3 4.3 0 0 0 2.3 0 4 4 0 0 0 1.81-1.16q.36-.43.6-.94a5.5 5.5 0 0 0 .52-2.48 6 6 0 0 0-.52-2.47 4 4 0 0 0-.6-.94 3.5 3.5 0 0 0-1.8-1.17q-.54-.16-1.15-.16"/><path fill="#00D26E" d="M2.13 40a2.2 2.2 0 0 1-1.5-.62 2.2 2.2 0 0 1-.63-1.5 2.2 2.2 0 0 1 .62-1.51 2 2 0 0 1 .47-.35A17.87 17.87 0 0 0 6.32 9.27 2.13 2.13 0 0 1 8.45 6 17.9 17.9 0 0 0 24.4.66l.04-.04a2.2 2.2 0 0 1 1.5-.62 2.2 2.2 0 0 1 1.51.62 2 2 0 0 1 .58 1.08 2.2 2.2 0 0 1-.58 1.93 2 2 0 0 1-.46.35 17.87 17.87 0 0 0-5.24 26.75 2.2 2.2 0 0 1 .32 1.61 2.2 2.2 0 0 1-1.25 1.54 2 2 0 0 1-1.2.13 17.9 17.9 0 0 0-16 5.37 2.2 2.2 0 0 1-1.5.62"/></svg>