<svg viewBox="0 0 140 30" width="140" height="30" fill="#fff" xmlns="http://www.w3.org/2000/svg"><path d="M123.7 25.761c-6.188 0-10.297-4.697-10.297-10.761 0-6.069 4.109-10.761 10.297-10.761 6.146 0 10.255 4.656 10.255 10.761 0 6.105-4.109 10.761-10.255 10.761Zm0 4.239c8.927 0 15.193-6.606 15.193-15S132.627 0 123.7 0c-8.969 0-15.235 6.564-15.235 15s6.271 15 15.235 15Zm-46.74-8.019c0 5.193 3.65 8.019 8.26 8.019 4.485 0 8.26-3.076 8.26-7.398V.412h-4.692v22.065c0 2.325-1.453 3.613-3.568 3.613-2.078 0-3.567-1.33-3.567-3.697v-5.652H76.96v5.24Zm-28.105 3.78c-6.188 0-10.297-4.697-10.297-10.761 0-6.069 4.11-10.761 10.297-10.761C55.001 4.239 59.11 8.895 59.11 15c0 6.105-4.109 10.761-10.255 10.761Zm0 4.239c8.927 0 15.193-6.606 15.193-15S57.782 0 48.855 0C39.886 0 33.62 6.564 33.62 15s6.271 15 15.235 15ZM0 21.648C.542 26.715 4.484 30 10.255 30c6.021 0 9.84-3.571 9.84-8.394 0-3.78-2.407-6.898-7.225-8.31L8.719 12.09C6.063 11.345 4.9 10.01 4.9 8.102c0-2.367 1.828-4.155 5.021-4.155 3.031 0 4.98 1.58 5.396 4.447h4.896C19.714 3.284 15.604 0 9.959 0 4.02 0 .16 3.78.16 8.31c0 3.822 2.698 6.732 6.933 7.936l4.11 1.205c3.114.87 4.15 2.533 4.15 4.447 0 2.45-1.744 4.155-5.104 4.155-3.198 0-4.896-1.621-5.354-4.405H0Z" fill="CurrentColor"/></svg>