<svg id="Layer_2" data-name="Layer 2" xmlns="http://www.w3.org/2000/svg" viewBox="0 0 1360 246.27" width="1360" height="246.27"><defs><style>.cls-1{fill:#202603;stroke-width:0}</style></defs><g id="Layer_1-2" data-name="Layer 1"><path class="cls-1" d="m302.18 164.51.21-2.35c.21-2.35 2.35-4.28 4.28-4.28h25.04c3 0 4.71 1.71 4.28 4.28l-.43 1.93c-1.5 8.13 4.92 16.05 17.55 16.05 11.13 0 18.84-6.64 18.84-16.27 0-5.35-2.14-9.85-12.84-15.63l-15.2-8.35c-11.13-6.21-23.12-17.55-23.12-37.89 0-28.47 19.48-47.09 50.94-47.09s50.52 22.9 48.8 42.6l-.43 2.78c-.21 2.57-2.35 4.28-4.07 4.28h-24.19c-3.64 0-4.71-2.35-4.49-4.28l.21-2.35c.86-7.06-5.99-12.42-16.27-12.42s-16.7 5.35-16.7 13.91c0 5.78 3 10.27 10.7 14.34l16.05 8.78c15.2 8.13 24.4 19.48 24.4 38.96 0 27.4-19.26 49.23-53.94 49.23s-52.44-21.41-49.66-46.24ZM425.24 169l13.91-65.07c.43-2.35 2.78-4.28 5.14-4.28h22.48c2.35 0 3.85 1.93 3.42 4.28l-13.27 62.29c-1.71 7.71 2.35 13.49 11.77 13.49 7.71 0 13.91-4.71 15.84-13.49l13.49-62.29c.43-2.35 2.78-4.28 5.14-4.28h22.26c2.35 0 3.85 1.93 3.42 4.28l-21.19 99.53c-.43 2.35-3 4.28-5.35 4.28h-15.63c-5.78 0-3.21-6.21-8.13-6.21s-9.85 9.2-25.9 9.2c-21.62 0-32.11-19.48-27.4-41.74ZM524.09 241.99l28.9-138.06c.43-2.35 3-4.28 5.14-4.28h14.13c4.71 0 3.21 4.92 7.06 4.92 4.92 0 9.85-7.92 26.76-7.92 10.27 0 19.69 5.35 25.47 14.13 4.07 6.21 6.42 14.13 6.42 23.12 0 18.41-4.92 47.31-17.98 62.29-7.92 8.99-18.41 14.56-32.11 14.56-14.56 0-17.98-6.21-22.05-6.21-1.93 0-3.64 1.28-4.28 4.5L554.7 242c-.43 2.35-3 4.28-5.14 4.28H527.3c-2.35 0-3.64-1.93-3.21-4.28Zm49.45-68.07c2.35 3.42 6.21 5.78 12.2 5.78 5.57 0 9.63-1.71 12.63-6.42 4.92-7.06 8.56-23.76 8.56-31.25 0-3-.64-5.57-1.93-7.92-2.35-3.85-6.42-6.64-12.84-6.64-5.57 0-9.42 1.93-12.41 6.42-4.92 7.06-8.56 23.76-8.56 31.47 0 3.21.86 6.21 2.35 8.56ZM652.16 167.72c0-39.6 17.98-71.06 54.37-71.06s46.88 27.83 41.1 55.44l-1.93 7.92c-.43 2.35-2.78 4.5-5.35 4.5h-56.72c-1.5 0-2.78.86-3 3-1.5 12.84 6.64 18.19 15.41 18.19 7.49 0 12.84-2.35 15.41-7.92 1.93-3 4.07-3.85 6.64-3.85h19.26c3 0 3.64 2.35 2.57 5.14-8.13 22.05-23.12 31.68-44.74 31.68-26.33 0-43.02-16.7-43.02-43.02Zm35.53-26.76h30.61c1.71 0 3-.86 3.21-2.78.43-10.27-5.99-17.34-15.84-17.34-12.41 0-19.05 8.99-19.69 18.19 0 1.28.86 1.93 1.71 1.93ZM756.4 203.46l21.19-99.53c.43-2.35 2.78-4.28 5.14-4.28h15.63c1.93 0 3.85 1.07 3.85 4.07 0 4.28.21 7.71 3.64 7.71 4.71 0 9.2-11.77 26.97-11.77h7.92c2.35 0 3.85 1.93 3.42 4.28l-5.14 23.33c-.43 2.35-2.78 4.28-5.14 4.28h-7.28c-15.2 0-25.47 6.42-29.11 24.4l-10.06 47.52c-.43 2.35-2.78 4.28-5.14 4.28h-22.48c-2.35 0-3.85-1.93-3.42-4.28ZM854.2 197.04c-6.42-7.28-10.06-16.91-10.06-28.9 0-17.34 6.64-45.16 20.98-59.29 7.92-7.71 18.84-12.2 33.82-12.2 25.47 0 42.6 16.48 41.74 41.31-.21 2.78-2.14 4.28-4.07 4.28h-22.69c-2.14 0-3.21-1.07-3.21-3.42 0-8.13-5.57-11.77-14.13-11.77-5.57 0-9.63 1.93-12.42 5.99-5.35 7.92-8.99 25.69-8.99 32.96 0 3.21.86 5.99 2.35 8.35 2.14 3.64 6.21 5.99 11.99 5.99 8.78 0 12.84-4.71 15.2-12.2.43-1.93 2.14-3.21 4.71-3.21h22.48c1.71 0 3.21 1.5 2.78 3.64-5.14 28.47-22.26 42.17-47.31 42.17-13.7 0-25.47-4.92-33.18-13.7ZM1063.69 197.04c-6.42-7.28-10.06-16.91-10.06-28.9 0-17.34 6.64-45.16 20.98-59.29 7.92-7.71 18.84-12.2 33.82-12.2 25.47 0 42.6 16.48 41.74 41.31-.21 2.78-2.14 4.28-4.07 4.28h-22.69c-2.14 0-3.21-1.07-3.21-3.42 0-8.13-5.57-11.77-14.13-11.77-5.57 0-9.63 1.93-12.42 5.99-5.35 7.92-8.99 25.69-8.99 32.96 0 3.21.86 5.99 2.35 8.35 2.14 3.64 6.21 5.99 11.99 5.99 8.78 0 12.84-4.71 15.2-12.2.43-1.93 2.14-3.21 4.71-3.21h22.47c1.71 0 3.21 1.5 2.78 3.64-5.14 28.47-22.26 42.17-47.31 42.17-13.7 0-25.47-4.92-33.18-13.7ZM1156.16 203.46l30.39-143.41c.64-2.35 2.78-4.28 5.14-4.28h22.48c2.35 0 4.07 1.93 3.42 4.28l-30.39 143.41c-.64 2.35-2.78 4.28-5.14 4.28h-22.47c-2.35 0-3.85-1.93-3.42-4.28ZM1216.8 167.72c0-39.6 17.98-71.06 54.37-71.06s46.88 27.83 41.1 55.44l-1.93 7.92c-.43 2.35-2.78 4.5-5.35 4.5h-56.72c-1.5 0-2.78.86-3 3-1.5 12.84 6.64 18.19 15.41 18.19 7.49 0 12.84-2.35 15.41-7.92 1.93-3 4.07-3.85 6.64-3.85h19.26c3 0 3.64 2.35 2.57 5.14-8.13 22.05-23.12 31.68-44.74 31.68-26.33 0-43.02-16.7-43.02-43.02Zm35.53-26.76h30.61c1.71 0 3-.86 3.21-2.78.43-10.27-5.99-17.34-15.84-17.34-12.42 0-19.05 8.99-19.69 18.19 0 1.28.86 1.93 1.71 1.93ZM1332.55 191.31v-10.27c0-.54.25-.79.79-.81H1340.9c1.12 0 2.24.1 3.31.47 2.48.85 4.22 2.45 4.84 5.06.48 2.03.02 3.85-1.37 5.43-.6.68-1.27 1.26-2.01 1.78-.72.49-.73.56-.33 1.32 1.21 2.27 2.41 4.54 3.61 6.82.1.19.17.41.2.63.03.31-.17.55-.48.61-.08.02-.16.03-.24.02-1.22 0-2.43 0-3.65-.01-.47 0-.79-.23-1.01-.66-1.21-2.35-2.45-4.69-3.66-7.04-.14-.27-.31-.39-.62-.37-.49.02-.98 0-1.48 0-.34 0-.42.09-.42.43 0 2.27-.01 4.54 0 6.82 0 .65-.37.83-.82.84h-3.41c-.17 0-.34-.06-.5-.13a.517.517 0 0 1-.32-.53V191.33Zm10.79-2.57c.75-.73.83-1.93.17-2.73-.57-.69-1.34-1.02-2.21-1.05-1.08-.04-2.16-.02-3.24-.02-.37 0-.47.09-.47.46V189.21c0 .33.08.41.41.41"/><path class="cls-1" d="M1340.3 211.08c-10.86 0-19.7-8.84-19.7-19.7s8.84-19.7 19.7-19.7 19.7 8.84 19.7 19.7-8.84 19.7-19.7 19.7Zm0-35.29c-8.59 0-15.59 6.99-15.59 15.59s6.99 15.59 15.59 15.59 15.59-6.99 15.59-15.59-6.99-15.59-15.59-15.59ZM263.31 141.64l18.35-36.7c1.05-2.1-.48-4.57-2.82-4.57h-15.85c-1.49 0-2.75-1.06-3.04-2.53C248.78 42.06 199.63 0 140.57 0 87.29 0 42.02 34.19 25.45 81.82c-.71 2.04.85 4.2 3.02 4.2H96.2c1.59 0 2.89-1.08 3.35-2.6 5.74-19.22 23.52-33.25 44.61-33.25 24.63 0 44.8 22.4 46.48 46.88.12 1.79-1.39 3.3-3.19 3.3h-27.44c-2.35 0-3.87 2.47-2.82 4.57l18.35 36.7a3.147 3.147 0 0 0 2.82 1.74h82.13c1.2 0 2.29-.68 2.82-1.74Z"/><path class="cls-1" d="M18.69 102.11.34 138.81c-1.05 2.1.48 4.57 2.82 4.57h15.85c1.49 0 2.75 1.06 3.04 2.53 11.17 55.78 60.32 97.84 119.38 97.84 53.28 0 98.55-34.19 115.12-81.82.71-2.04-.85-4.2-3.02-4.2H185.8c-1.59 0-2.89 1.08-3.35 2.6-5.74 19.22-23.52 33.25-44.61 33.25-24.63 0-44.8-22.4-46.48-46.88-.12-1.79 1.39-3.3 3.19-3.3h27.44c2.35 0 3.87-2.47 2.82-4.57l-18.35-36.7a3.147 3.147 0 0 0-2.82-1.74H21.51c-1.2 0-2.29.68-2.82 1.74ZM985.62 167.93c.69-1.38-.31-3.01-1.86-3.01h-14.09c-2.62 0-4.87-1.86-5.37-4.43l-10.61-54.63c-.43-3.21 1.71-6.21 5.35-6.21h22.69c1.93 0 3 .64 3.42 3.21l8.13 50.09c.21 1.93 2.57 1.93 3.42 0l27.61-50.09c1.28-2.57 2.78-3.21 4.71-3.21h24.83c3.85 0 4.71 3 2.78 6.21l-78.34 137.21c-1.5 2.35-2.78 3.21-4.71 3.21h-23.97c-2.78 0-4.28-3-2.57-5.57l38.56-72.78Z"/></g></svg>