<svg width="189px" height="42px" viewBox="0 0 189 42" version="1.1"
    xmlns="http://www.w3.org/2000/svg"
    xmlns:xlink="http://www.w3.org/1999/xlink">
    <title>superfy Logo-Pos</title>
    <g id="Homepage-UI" stroke="none" stroke-width="1" fill="none" fill-rule="evenodd">
        <g id="Homepage_UI_T01_Final" transform="translate(-130.000000, -88.000000)" fill-rule="nonzero">
            <g id="Group-42" transform="translate(-587.893330, 0.000000)">
                <g id="Group-8" transform="translate(0.000000, 88.000000)">
                    <g id="superfy-Logo-Pos" transform="translate(717.893330, 0.000000)">
                        <g id="Group" transform="translate(0.000000, 4.349341)" fill="#3CD5AF">
                            <path d="M33.6241566,15.0329487 C15.6621246,13.9443958 2.70787108,32.0264692 2.70787108,32.0264692 C2.70787108,32.0264692 12.3935745,33.8407241 21.5994908,33.1452597 C35.4833319,32.117182 40.0113233,15.4260373 33.6241566,15.0329487" id="Path"></path>
                            <path d="M2.76784447,17.9055189 C20.6998898,19.417398 34.0439704,1.66793791 34.0439704,1.66793791 C34.0439704,1.66793791 24.4182404,-0.388217598 15.1523507,0.0653461165 C1.26850958,0.760810479 -3.61932218,17.3612424 2.76784447,17.9055189" id="Path"></path>
                        </g>
                        <g id="Group" transform="translate(44.807883, 0.000000)" fill="#1A428A">
                            <path d="M1.02085936,30.4190065 C0.151245119,30.0561555 -0.238581954,29.0280778 0.151245119,28.1209503 C0.541072192,27.2138229 1.53063322,26.8207343 2.43023416,27.2440605 C7.04818564,30.4794816 13.4353523,29.6328294 13.4953257,26.4578834 C13.5253124,24.9762419 11.6361504,23.7062635 8.63748063,23.0410367 C1.74054011,21.4082073 0.691005681,18.0820734 0.870925869,16.0259179 C1.11081945,12.699784 4.61926311,10.3714903 9.0273077,10.5831533 C11.5162036,10.6436285 13.5253124,11.3390929 15.354501,12.488121 C16.2241152,12.9114471 16.6139423,13.9395248 16.1941285,14.7861771 C15.7743147,15.663067 14.754767,16.0561555 13.8851528,15.6328294 C9.68701506,12.7300216 4.82916999,14.1511879 4.61926311,16.3282937 C4.46932962,17.1144708 5.12903697,18.9287257 9.32717468,19.8358531 C16.2541019,21.5593952 17.3036363,24.5831533 17.3036363,26.4578834 C17.3036363,29.4816415 14.754767,32.6565875 9.0572944,32.7473002 C5.45889065,32.8077754 2.46022086,31.2656587 1.02085936,30.4190065 L1.02085936,30.4190065 Z" id="Path"></path>
                            <path d="M24.0506434,12.3066955 L24.0506434,22.9805616 C24.0506434,26.336933 26.7794329,29.0885529 30.1679297,29.0885529 C33.5564266,29.0885529 36.195256,26.336933 36.195256,22.9805616 L36.195256,12.3066955 C36.195256,11.2786177 36.9749102,10.5226782 37.9944579,10.5226782 C39.0140056,10.5226782 39.7636731,11.2786177 39.7636731,12.3066955 L39.7636731,22.9805616 C39.7636731,28.3023758 35.4156019,32.6263499 30.1979164,32.6263499 C24.980231,32.6263499 20.5721864,28.3023758 20.5721864,22.9805616 L20.5721864,12.3066955 C20.5721864,11.2786177 21.3518405,10.5226782 22.3414016,10.5226782 C23.3309626,10.5226782 24.0506434,11.2786177 24.0506434,12.3066955 L24.0506434,12.3066955 Z" id="Path"></path>
                            <path d="M65.6122067,21.5896328 C65.6122067,27.7580994 60.6943882,32.6868251 54.6070885,32.6868251 C51.6084187,32.6868251 48.8796292,31.4773218 46.8705205,29.4514039 L46.8705205,40.2764579 C46.8705205,41.2440605 46.120853,42 45.2512388,42 C44.3816245,42 43.6319571,41.2440605 43.6319571,40.2764579 L43.6319571,21.5896328 C43.6319571,15.511879 48.5797622,10.5226782 54.6070885,10.5226782 C60.6344148,10.5226782 65.6122067,15.5421166 65.6122067,21.5896328 L65.6122067,21.5896328 Z M62.103763,21.5896328 C62.103763,17.4470842 58.7752395,14.0302376 54.6070885,14.0302376 C50.4389375,14.0302376 47.1104141,17.4470842 47.1104141,21.5896328 C47.1104141,25.7321814 50.4989109,29.2095032 54.6070885,29.2095032 C58.7152661,29.2095032 62.103763,25.7926566 62.103763,21.5896328 Z" id="Shape"></path>
                            <path d="M87.9822833,22.8596112 L71.6995063,22.9200864 C72.2692536,26.4276458 74.9380697,28.8466523 78.686407,29.2699784 C80.8154625,29.511879 83.544252,29.3606911 86.1830814,27.0323974 C87.022709,26.699784 87.9822833,26.7904968 88.3721104,27.637149 C88.7919241,28.4233261 88.3721104,29.3606911 87.5324828,29.8142549 C85.4034273,31.9611231 82.1948506,32.9892009 78.2366065,32.5658747 C72.2392669,31.9913607 68.1310893,27.2742981 68.1310893,21.5593952 C68.1310893,15.4816415 72.9889343,10.5831533 79.0462473,10.5831533 C85.1035603,10.5831533 89.6915251,15.2397408 89.6915251,21.1360691 C89.6915251,21.9827214 89.0318177,22.6781857 88.2521636,22.8293737 C88.1622035,22.8596112 88.0722434,22.8596112 87.9822833,22.8596112 L87.9822833,22.8596112 Z M71.6695196,20.2894168 L86.1530947,20.2894168 C85.7932544,16.600432 82.8245713,13.7883369 79.0162606,13.7883369 C75.20795,13.7883369 72.2392669,16.4190065 71.6695196,20.2894168 L71.6695196,20.2894168 Z" id="Shape"></path>
                            <path d="M112.331482,10.6738661 L118.778622,10.6738661 C119.648236,10.6738661 120.397904,11.3693305 120.397904,12.3066955 C120.397904,13.2440605 119.648236,14 118.778622,14 L112.331482,14 L112.331482,30.9028078 C112.331482,31.8704104 111.551828,32.6868251 110.562267,32.6868251 C109.572706,32.6868251 108.793052,31.9006479 108.793052,30.9028078 L108.793052,11.1576674 C108.793052,3.14470842 114.310604,0 119.198436,0 L119.88813,0 C120.847704,0 121.657345,0.786177106 121.657345,1.78401728 C121.657345,2.78185745 120.877691,3.56803456 119.88813,3.56803456 L119.198436,3.56803456 C115.360139,3.53779698 112.511402,6.0475162 112.331482,10.6738661 L112.331482,10.6738661 Z" id="Path"></path>
                            <path d="M96.4085454,21.0151188 L96.4085454,30.8725702 C96.4085454,31.8401728 95.6288913,32.6565875 94.6393302,32.6565875 C93.6497692,32.6565875 92.8701151,31.8704104 92.8701151,30.8725702 L92.8701151,21.4989201 C92.8701151,13.4557235 98.3876675,10.3412527 103.275499,10.3412527 L103.965193,10.3412527 C104.924768,10.3412527 105.734408,11.1274298 105.734408,12.12527 C105.734408,13.1231102 104.954754,13.9092873 103.965193,13.9092873 L103.275499,13.9092873 C99.4372019,13.8790497 96.5884656,16.3887689 96.4085454,21.0151188 L96.4085454,21.0151188 Z" id="Path"></path>
                            <path d="M144.027422,13.1835853 L132.51253,39.7321814 C132.182676,40.3974082 131.582942,40.8207343 130.953221,40.8207343 C130.623368,40.8207343 130.413461,40.7904968 130.173567,40.6695464 C129.303953,40.2462203 128.914126,39.1274298 129.303953,38.2807775 L132.392583,31.1447084 L124.296174,13.2440605 C123.876361,12.3066955 124.236201,11.2483801 125.075829,10.825054 C126.005416,10.4017279 127.024964,10.7645788 127.444778,11.6717063 L134.251758,26.7904968 L140.818845,11.7019438 C141.238659,10.825054 142.258207,10.4017279 143.187794,10.825054 C144.027422,11.187905 144.447235,12.2764579 144.027422,13.1835853 L144.027422,13.1835853 Z" id="Path"></path>
                        </g>
                    </g>
                </g>
            </g>
        </g>
    </g>
</svg>