<svg xmlns="http://www.w3.org/2000/svg" width="360" height="40.1" style="enable-background:new 0 0 360 40.1" xml:space="preserve"><style>.st0{fill:#020203}</style><path class="st0" d="M11.9 8.2H0V.7h32.7v7.4H20.8v31.1H12v-31zM76.4.7v38.5h-8.8V23.7H49.2v15.6h-8.8V.7h8.8v15.2h18.4V.7h8.8zM117 .7v7.9H98V16h13.1v7.8H98v7.6h19.9v7.9H89.2V.7H117zM177.2 15.4h-9c-.9-4.6-4.2-7.1-9.2-7.1-6.2 0-10.1 4.4-10.1 11.8 0 7.3 4 11.7 10.1 11.7 4.9 0 8.2-2.3 9.2-6.9h9.1c-1.4 9.6-7.1 15.2-18.3 15.2-12.2 0-19.2-8.3-19.2-20C139.9 8.2 146.9 0 159 0c11 0 17.2 5.4 18.2 15.4zM185.9.7h8.8v38.5h-8.8V.7zM225 25.8h-8.7v13.5h-8.8V.7h18.1c9.8 0 14.3 5.1 14.3 12.4 0 5.1-2.4 8.9-6.6 11l9.6 15.1h-10.1L225 25.8zm-8.7-7.5h8.6c3.8 0 6-1.4 6-5.1 0-3-2.2-4.6-6-4.6h-8.6v9.7zM271.5 18.5l17.7 20.7h-11.3l-17.1-20v20H252V.7h8.8V19L278.7.7h10.5l-17.7 17.8zM323.7.7v7.9h-19V16h13.1v7.8h-13.1v7.6h19.9v7.9h-28.7V.7h27.8zM333.4.7h8.8v30.9H360v7.6h-26.6V.7z"/></svg>