<svg xmlns="http://www.w3.org/2000/svg" width="110" height="25" aria-labelledby="thredup-logo-icon" viewBox="0 0 1565.86 372.6"><desc>ThredUp | An Online Consignment &amp; Thrift Store</desc><path d="M595.16 219.33c37-6.85 62-24.52 60.68-78.29-1.67-70.18-45.2-84-124.43-84h-69.32V368.4h68.13V244.46h16c23.23 0 33.11 12.56 34.6 42 2 37.47 3.45 70 7.81 81.92h70.77c-7.32-14.14-7.91-41.08-10-82.44-2.63-52.77-13.14-58.54-54.24-66.61m-52.6-27.58h-12.34v-82h12.34c35.29 0 45.67 13.56 45.67 39.45 0 36.18-12.17 42.55-45.67 42.55M4.2 109.71h54V368.4h68.43V109.71h55.51V57H4.2Zm338.41 75.4H281V57h-68.39v311.4H281V237.82h61.57V368.4h73.73V57h-73.69Zm417.82 50h64.48v-52.56h-64.48v-72.84h83.77V57H692v311.4h152.39v-52.71h-84ZM950.1 57h-68v311.4h68c101.09 0 131.75-55.83 131.75-152.41v-6.58C1081.85 104.9 1052.43 57 950.1 57m14.22 257.62h-13.83V110.78h13.83c42.1 0 51.36 32.46 51.38 99.65-.02 66.16-9.28 104.19-51.38 104.19M1443.45 4.2h-79.39v311.4h68.72V213.68h10.67c81.56 0 118.22-35.89 118.22-105 0-67.06-37.93-104.48-118.22-104.48M1442.3 161h-9.52V56.5h9.49c35.81 0 52.76 13.51 52.76 52.69S1478.11 161 1442.3 161M1253 211.6c0 35.16-4.76 52.3-30.74 52.3-26.31 0-30.75-17.14-30.75-52.3V4.2h-70.68v199.3c0 78.42 19.55 116.75 101.43 116.75s101.41-38.33 101.41-116.75V4.2H1253Z"/></svg>