<svg width="1291" height="355" fill="none" xmlns="http://www.w3.org/2000/svg"><g clip-path="url(#a)"><path d="M255.673 283.297h-42.93a4.162 4.162 0 0 1-2.913-1.259 4.162 4.162 0 0 1-1.183-2.946V20.7a4.17 4.17 0 0 1 4.156-4.17h42.928a4.165 4.165 0 0 1 4.156 4.17v76.334a4.168 4.168 0 0 0 2.486 3.804 4.156 4.156 0 0 0 4.481-.744c13.46-12.014 31.039-18.9 52.078-18.9 40.852 0 68.703 26.377 68.703 73.935v123.963a4.167 4.167 0 0 1-4.168 4.17h-42.976a4.172 4.172 0 0 1-4.168-4.17V171.467c0-27.501-12.255-44.594-37.131-44.594-21.914 0-39.363 15.983-39.363 45.704v106.515c.003.55-.1 1.095-.306 1.605a4.161 4.161 0 0 1-3.85 2.6ZM459.538 283.3H416.62a4.167 4.167 0 0 1-4.168-4.17V89.063a4.166 4.166 0 0 1 4.168-4.17h38.785a4.166 4.166 0 0 1 4.168 4.17v20.897a4.145 4.145 0 0 0 7.344 2.646 80.993 80.993 0 0 1 66.413-28.753 4.136 4.136 0 0 1 3.848 4.159v43.707a4.173 4.173 0 0 1-2.782 3.927 4.176 4.176 0 0 1-1.681.231c-41.324-2.611-69.058 8.895-69.058 51.231v91.987a4.163 4.163 0 0 1-1.191 2.953 4.165 4.165 0 0 1-2.928 1.252ZM548.37 279.093V89.062c0-1.106.438-2.167 1.219-2.949a4.173 4.173 0 0 1 2.949-1.221h42.916c1.106 0 2.166.44 2.947 1.221a4.174 4.174 0 0 1 1.221 2.949v190.031a4.168 4.168 0 0 1-4.168 4.17h-42.916a4.176 4.176 0 0 1-2.949-1.221 4.175 4.175 0 0 1-1.219-2.949Zm53.436-240.637a27.81 27.81 0 0 0-17.156-25.69 27.783 27.783 0 0 0-30.29 6.028 27.822 27.822 0 0 0-7.606 14.237 27.829 27.829 0 0 0 1.583 16.066 27.79 27.79 0 0 0 45.33 9.022 27.822 27.822 0 0 0 8.139-19.663ZM647.854 279.093V133.277a4.166 4.166 0 0 0-4.168-4.17h-31.405a4.166 4.166 0 0 1-4.168-4.158V89.061a4.17 4.17 0 0 1 4.168-4.17h31.405a4.165 4.165 0 0 0 4.168-4.157v-6.615c0-39.384 21.535-61.675 62.752-61.675a82.607 82.607 0 0 1 29.34 4.89 4.09 4.09 0 0 1 1.899 1.527 4.09 4.09 0 0 1 .698 2.336v32.39a4.137 4.137 0 0 1-1.571 3.271 4.148 4.148 0 0 1-3.541.782 61.997 61.997 0 0 0-14.569-1.725c-14.168 0-23.766 5.576-23.766 19.326v5.493a4.186 4.186 0 0 0 1.252 2.97 4.177 4.177 0 0 0 2.997 1.188h43.684a4.152 4.152 0 0 1 3.843 2.575c.209.505.315 1.047.313 1.594v35.888a4.155 4.155 0 0 1-4.156 4.122h-43.684a4.17 4.17 0 0 0-4.168 4.17v145.852a4.166 4.166 0 0 1-4.156 4.17h-42.964a4.154 4.154 0 0 1-2.969-1.21 4.153 4.153 0 0 1-1.234-2.96Z" fill="#2DBF82"/><path d="M841.742 287.007c-40.851 0-66.837-23.402-66.837-67.984v-85.748a4.168 4.168 0 0 0-4.168-4.17h-31.405a4.168 4.168 0 0 1-4.168-4.158V89.06a4.165 4.165 0 0 1 4.168-4.17h31.405a4.167 4.167 0 0 0 4.168-4.158V30.351a4.166 4.166 0 0 1 4.156-4.159h42.928a4.166 4.166 0 0 1 4.156 4.159v50.381a4.17 4.17 0 0 0 4.168 4.158h48.49a4.148 4.148 0 0 1 2.943 1.222 4.174 4.174 0 0 1 1.213 2.948v35.887a4.157 4.157 0 0 1-4.156 4.158h-48.49a4.166 4.166 0 0 0-4.168 4.17v73.853c0 23.035 10.401 32.32 29.34 32.32a55.74 55.74 0 0 0 20.401-3.698 4.134 4.134 0 0 1 5.129 1.972c.31.595.47 1.256.468 1.926v35.817a4.18 4.18 0 0 1-2.362 3.78c-11.771 5.482-23.105 7.762-37.379 7.762ZM901.909 279.093V89.061a4.17 4.17 0 0 1 4.155-4.17h42.929a4.168 4.168 0 0 1 4.156 4.17v190.032a4.171 4.171 0 0 1-4.156 4.17h-42.929a4.17 4.17 0 0 1-4.155-4.17ZM955.322 38.42c0-5.5-1.629-10.876-4.685-15.449a27.785 27.785 0 0 0-42.761-4.214 27.823 27.823 0 0 0-6.025 30.305 27.788 27.788 0 0 0 45.318 9.034 27.818 27.818 0 0 0 8.153-19.64v-.036ZM1001.43 279.093V133.277c0-1.106-.44-2.167-1.22-2.949a4.186 4.186 0 0 0-2.952-1.221h-31.405a4.155 4.155 0 0 1-4.156-4.158V89.061a4.154 4.154 0 0 1 1.212-2.947 4.163 4.163 0 0 1 2.944-1.223h31.405a4.165 4.165 0 0 0 2.942-1.217 4.21 4.21 0 0 0 1.23-2.94v-6.616c0-39.383 21.53-61.674 62.75-61.674 10-.158 19.94 1.5 29.35 4.89a4.126 4.126 0 0 1 2.59 3.863v32.39c0 .63-.14 1.25-.41 1.817a4.172 4.172 0 0 1-1.17 1.454 4.138 4.138 0 0 1-3.54.782 61.96 61.96 0 0 0-14.57-1.725c-14.17 0-23.76 5.575-23.76 19.325v5.494a4.158 4.158 0 0 0 4.16 4.157h43.69c1.1 0 2.16.44 2.95 1.222a4.177 4.177 0 0 1 1.22 2.948l2.81 33.439c0 1.104 8.68 1.559 3.5 4.5-.78.779-1.26 2.107-2.36 2.107h-51.81c-1.1 0-2.16.439-2.94 1.221a4.178 4.178 0 0 0-1.22 2.949v145.816c0 .547-.11 1.089-.32 1.595-.21.505-.51.965-.9 1.352a4.04 4.04 0 0 1-1.35.905c-.5.21-1.04.318-1.59.318h-42.92c-1.1 0-2.16-.44-2.94-1.221a4.138 4.138 0 0 1-1.22-2.949Z" fill="#2DBF82"/><path d="M1191.97 355h-46.75a4.18 4.18 0 0 1-1.94-.473 4.18 4.18 0 0 1-2.2-3.182c-.08-.67 0-1.35.24-1.98l25.16-66.73a4.09 4.09 0 0 0 0-3l-74.77-189.004a4.232 4.232 0 0 1-.27-1.992c.08-.676.32-1.324.7-1.886a4.09 4.09 0 0 1 1.5-1.342 4.095 4.095 0 0 1 1.94-.486h46.66c.86.001 1.69.264 2.39.755a4.1 4.1 0 0 1 1.53 1.986l44.33 122.049c.29.812.83 1.51 1.54 2.002a4.166 4.166 0 0 0 4.82-.059c.7-.506 1.22-1.22 1.5-2.038l40.9-121.895c.27-.828.8-1.548 1.51-2.058.71-.511 1.56-.787 2.43-.789h42.72c.67.001 1.32.162 1.91.47.6.308 1.11.755 1.49 1.301.39.547.63 1.177.72 1.84a4.23 4.23 0 0 1-.2 1.965l-93.94 261.781c-.29.81-.82 1.508-1.52 2.003-.7.495-1.54.76-2.4.762ZM1229.38 352.873V337.34h-6.07v-3.662h16.16v3.662h-6.01v15.533h-4.08ZM1243.85 340.115v12.758h-3.47v-19.195h4.89l5.58 14.175 5.55-14.175h4.87v19.195h-3.71V340.01l-5.05 12.863h-3.55l-5.11-12.758ZM79.778 120.622v96.865c0 45.466 26.518 69.34 68.171 69.34 14.558 0 26.116-2.362 38.112-7.927a4.26 4.26 0 0 0 2.42-3.85v-36.548a4.22 4.22 0 0 0-.486-1.994 4.214 4.214 0 0 0-3.292-2.236 4.219 4.219 0 0 0-2.031.283 56.96 56.96 0 0 1-20.744 3.745c-19.315 0-29.918-9.45-29.918-32.97v-79.57h53.732a4.253 4.253 0 0 0 4.252-4.24V84.9a4.255 4.255 0 0 0-4.252-4.253h-69.859" fill="#2DBF82"/><path d="M132.045 35.111v90.651H35.089a34.223 34.223 0 0 1-24.728-10.646 34.261 34.261 0 0 1-9.393-25.24c.885-18.37 16.706-32.498 35.1-32.498h27.64V34.19A34.272 34.272 0 0 1 74.637 9.165 34.237 34.237 0 0 1 100.38.087c18.017 1.287 31.665 16.95 31.665 35.024Z" fill="#A7E0B8"/><path d="M716.297 105h-9.995v1.5h9.995V105Z" fill="#2DBF82"/></g><defs><clipPath id="a"><path fill="#fff" d="M0 0h1291v355H0z"/></clipPath></defs></svg>