<svg xmlns="http://www.w3.org/2000/svg" viewBox="0 0 218 42" width="218" height="42" class="h-8 w-28 md:h-auto md:w-auto">
    <g>
        <g id="Layer_1">
            <g>
                <path fill="#000" d="M184.9,31.9c-4-.6-3.8-4.8-3.8-8v-6.9h6.9c.5,0,1-.4,1-1v-7.4c0-.5-.4-1-1-1h-6.9V1c0-.5-.4-1-1-1h-8.3c-.5,0-1,.4-1,1v21.8c0,4.2-.2,8.8,1.9,12.6,2.3,4.1,7,6,11.6,6h6.6c.6,0,1-.4,1-1v-7.3c0-.5-.4-1-1-1-2,0-4.2,0-6.1-.2"></path>
                <path fill="#000" d="M210.3,31.9c-4-.6-3.8-4.8-3.8-8v-6.9h6.9c.5,0,1-.4,1-1v-7.4c0-.5-.4-1-1-1h-6.9V1c0-.5-.4-1-1-1h-8.3c-.5,0-1,.4-1,1v21.8c0,4.2-.2,8.8,1.9,12.6,2.3,4.1,7,6,11.6,6h6.6c.5,0,1-.4,1-1v-7.3c0-.5-.4-1-1-1-2,0-4.2,0-6.1-.2"></path>
                <path fill="#000" d="M148.6,32.7c-4.5,0-8.1-3.6-8.1-8.1s3.6-8.1,8.1-8.1,8.1,3.6,8.1,8.1-3.6,8.1-8.1,8.1ZM148.6,7.6c-9.4,0-17,7.6-17,17s7.6,17,17,17,17-7.6,17-17-7.6-17-17-17Z"></path>
                <path fill="#000" d="M109.3,32.7c-4.5,0-8.1-3.6-8.1-8.1s3.6-8.1,8.1-8.1,8.1,3.6,8.1,8.1c0,4.4-3.6,8-8.1,8.1ZM116.1,1v8.1c-11.5-5.1-24.7,4.2-23.8,16.8.8,11.9,14,19.4,24.6,14,5.7-2.9,9.3-8.8,9.3-15.2V1c0-.6-.4-1-1-1h-8.1c-.5,0-1,.4-1,1Z"></path>
                <path fill="#000" d="M59.3,14v3.8h11.2c2.2,0,2.8-1,2.6-2.2-.2-.9-.8-1.6-2.6-1.6h-11.2ZM71,20.7l6.2,4c.2.2.3.5.2.7h0c0,.2-.2.2-.4.2h-2.8c0,0-.2,0-.3,0l-7.4-4.9h-7.2v4.5c0,.3-.2.5-.5.5h-2.2c-.3,0-.5-.2-.5-.5v-13.6c0-.3.2-.5.5-.5h14.1c3.6,0,5.3,1.8,5.7,4.1.5,3-.9,5.5-5.3,5.6h0ZM51.8,11h-18.6c-.3,0-.5.2-.5.5v13.6c0,.3.2.5.5.5h18.6c.3,0,.5-.2.5-.5v-1.9c0-.3-.2-.5-.5-.5h-15.9v-3.1h13.9c.3,0,.5-.2.5-.5v-1.6c0-.3-.2-.5-.5-.5h-13.9v-3.1h15.9c.3,0,.5-.2.5-.5v-1.9c0-.3-.2-.5-.5-.5h0ZM26.3,11h2.2c.3,0,.5.2.5.5v13.6c0,.3-.2.5-.5.5h-2.2c-.3,0-.5-.2-.5-.5v-13.6c0-.3.2-.5.5-.5ZM.5,11h21.1c.3,0,.5.2.5.5v1.9c0,.3-.2.5-.5.5h-8.9v11.2c0,.3-.2.5-.5.5h-2.2c-.3,0-.5-.2-.5-.5v-11.2H.5c-.3,0-.5-.2-.5-.5v-1.9c0-.3.2-.5.5-.5"></path>
                <path fill="#000" d="M18.1,32c-.3,0-.5,0-.7-.3-.2-.2-.3-.4-.3-.6s0-.5.3-.6c.2-.2.4-.3.7-.3s.5,0,.7.3c.2.2.3.4.3.6s0,.5-.3.6c-.2.2-.4.3-.7.3ZM18.9,32.5v5.4h-1.7v-5.4h1.7ZM22.3,38c-.5,0-.9,0-1.3-.2-.4-.2-.7-.4-.9-.7-.2-.3-.3-.6-.4-1h1.6c0,.2.1.3.3.5.2.1.3.2.6.2s.4,0,.5-.1c.1,0,.2-.2.2-.3s0-.3-.2-.3c-.2,0-.4-.2-.8-.3-.4,0-.7-.2-1-.3-.3-.1-.5-.3-.7-.5-.2-.2-.3-.5-.3-.9s0-.6.3-.8c.2-.3.4-.5.8-.6.3-.1.7-.2,1.2-.2.7,0,1.2.2,1.6.5.4.3.6.8.7,1.3h-1.5c0-.2-.1-.3-.3-.4-.1-.1-.3-.2-.5-.2s-.3,0-.4.1c-.1,0-.2.2-.2.3s0,.3.2.3c.2,0,.4.2.8.2.4.1.7.2,1,.3.3,0,.5.3.7.5.2.2.3.5.3.9,0,.3,0,.6-.3.9-.2.2-.4.4-.8.6-.3.1-.7.2-1.2.2ZM29.2,33.3c.2-.3.4-.5.7-.6.3-.2.6-.2,1-.2s.9.1,1.2.3c.4.2.6.5.9,1,.2.4.3.9.3,1.5s-.1,1-.3,1.5c-.2.4-.5.7-.9,1-.4.2-.8.3-1.2.3s-.7,0-1-.2c-.3-.2-.5-.4-.7-.6v.8h-1.7v-7.2h1.7v2.5ZM31.6,35.2c0-.4-.1-.7-.3-1-.2-.2-.5-.4-.8-.4s-.6.1-.8.4c-.2.2-.3.6-.3,1s.1.7.3,1c.2.2.5.4.8.4s.6-.1.8-.4c.2-.2.3-.6.3-1ZM39.3,35.2c0,.2,0,.3,0,.5h-3.8c0,.3.1.6.3.8.2.2.4.3.7.3.4,0,.7-.2.9-.5h1.8c0,.4-.3.7-.5,1-.2.3-.5.5-.9.7-.4.2-.8.2-1.2.2s-1-.1-1.4-.3c-.4-.2-.7-.5-1-1s-.3-.9-.3-1.5.1-1.1.3-1.5c.2-.4.6-.7,1-1,.4-.2.9-.3,1.4-.3s1,.1,1.4.3c.4.2.7.5,1,.9.2.4.3.9.3,1.4ZM37.6,34.7c0-.3,0-.5-.3-.7-.2-.2-.4-.3-.7-.3s-.5,0-.7.2c-.2.2-.3.4-.3.7h2.1ZM39.8,35.3c0-.6.1-1.1.3-1.5.2-.4.6-.7,1-1,.4-.2.9-.3,1.4-.3s1.2.2,1.7.5c.5.4.8.9.9,1.5h-1.8c-.1-.4-.4-.6-.9-.6s-.5.1-.7.4c-.2.2-.3.6-.3,1s0,.8.3,1c.2.2.4.3.7.3s.7-.2.9-.6h1.8c-.1.6-.4,1.1-.9,1.5-.5.4-1,.5-1.7.5s-1-.1-1.4-.3c-.4-.2-.7-.5-1-1-.2-.4-.3-.9-.3-1.5ZM48.5,38c-.5,0-1-.1-1.4-.3-.4-.2-.8-.5-1-1-.2-.4-.4-.9-.4-1.5s.1-1,.4-1.5c.2-.4.6-.8,1-1,.4-.2.9-.3,1.4-.3s1,.1,1.4.3c.4.2.8.6,1,1,.2.4.4.9.4,1.5s-.1,1-.4,1.5c-.2.4-.6.7-1,1-.4.2-.9.3-1.4.3ZM48.5,36.6c.3,0,.6-.1.8-.3.2-.2.3-.6.3-1s-.1-.8-.3-1c-.2-.2-.5-.3-.8-.3s-.6.1-.8.3c-.2.2-.3.6-.3,1s.1.8.3,1c.2.2.5.3.8.3ZM59.1,32.5c.7,0,1.2.2,1.6.6.4.4.6,1,.6,1.7v3.2h-1.6v-2.9c0-.3,0-.6-.3-.8-.2-.2-.4-.3-.8-.3s-.6,0-.8.3c-.2.2-.3.5-.3.8v2.9h-1.6v-2.9c0-.3,0-.6-.3-.8-.2-.2-.4-.3-.8-.3s-.6,0-.8.3c-.2.2-.3.5-.3.8v2.9h-1.7v-5.4h1.7v.7c.2-.2.4-.4.7-.5.3-.1.6-.2.9-.2s.8,0,1.1.3c.3.2.6.4.8.7.2-.3.4-.5.8-.7.3-.2.7-.3,1.1-.3ZM63.3,32c-.3,0-.5,0-.7-.3-.2-.2-.3-.4-.3-.6s0-.5.3-.6c.2-.2.4-.3.7-.3s.5,0,.7.3c.2.2.3.4.3.6s0,.5-.3.6c-.2.2-.4.3-.7.3ZM64.1,32.5v5.4h-1.7v-5.4h1.7ZM68.6,32.5c.6,0,1.1.2,1.5.6.4.4.6,1,.6,1.7v3.2h-1.6v-2.9c0-.4,0-.6-.3-.8-.2-.2-.4-.3-.8-.3s-.6.1-.8.3c-.2.2-.3.5-.3.8v2.9h-1.7v-5.4h1.7v.7c.2-.2.4-.4.7-.6.3-.1.6-.2,1-.2ZM73.9,32.5c.4,0,.7,0,1,.2.3.2.5.4.7.6v-.8h1.7v5.4c0,.5-.1.9-.3,1.3-.2.4-.5.7-.9,1-.4.2-.9.4-1.5.4s-1.5-.2-1.9-.6c-.5-.4-.8-.9-.9-1.5h1.6c0,.2.2.4.4.5.2.1.4.2.7.2s.6-.1.8-.3c.2-.2.3-.5.3-.9v-.8c-.2.3-.4.5-.7.6-.3.2-.6.2-1,.2s-.9-.1-1.2-.3c-.4-.2-.6-.6-.9-1-.2-.4-.3-.9-.3-1.5s.1-1,.3-1.5c.2-.4.5-.7.9-1,.4-.2.8-.3,1.2-.3ZM75.6,35.3c0-.4-.1-.7-.3-1-.2-.2-.5-.4-.8-.4s-.6.1-.8.4c-.2.2-.3.6-.3,1s.1.7.3,1c.2.2.5.4.8.4s.6-.1.8-.4c.2-.2.3-.6.3-1Z"></path>
            </g>
        </g>
    </g>
</svg>