<svg xmlns="http://www.w3.org/2000/svg" width="587" height="119"><g fill="none" fill-rule="evenodd"><path d="M197.94 31.75H174V22.3h57.96v9.45h-23.94v64.89h-10.08V31.75Zm32.655 15.12h9.45v7.665h.21c.63-1.33 1.47-2.537 2.52-3.622a16.877 16.877 0 0 1 3.517-2.783 18.583 18.583 0 0 1 4.253-1.838c1.54-.455 3.08-.682 4.62-.682s2.94.21 4.2.63l-.42 10.185c-.77-.21-1.54-.385-2.31-.525s-1.54-.21-2.31-.21c-4.62 0-8.155 1.295-10.605 3.885-2.45 2.59-3.675 6.615-3.675 12.075v24.99h-9.45V46.87Zm39.06 6.09c2.66-2.45 5.74-4.287 9.24-5.513 3.5-1.225 7-1.837 10.5-1.837 3.64 0 6.772.455 9.398 1.365 2.625.91 4.777 2.135 6.457 3.675 1.68 1.54 2.922 3.307 3.728 5.303a16.542 16.542 0 0 1 1.207 6.247v25.41c0 1.75.035 3.36.105 4.83.07 1.47.175 2.87.315 4.2h-8.4c-.21-2.52-.315-5.04-.315-7.56h-.21c-2.1 3.22-4.585 5.495-7.455 6.825S288.03 97.9 284.25 97.9c-2.31 0-4.515-.315-6.615-.945-2.1-.63-3.937-1.575-5.512-2.835a13.534 13.534 0 0 1-3.728-4.672c-.91-1.856-1.365-4.008-1.365-6.458 0-3.22.717-5.915 2.153-8.085 1.435-2.17 3.394-3.937 5.88-5.302 2.485-1.366 5.39-2.345 8.714-2.94 3.326-.596 6.878-.893 10.658-.893h6.93v-2.1c0-1.26-.245-2.52-.735-3.78a10.206 10.206 0 0 0-2.205-3.413c-.98-1.015-2.205-1.82-3.675-2.414-1.47-.596-3.22-.893-5.25-.893-1.82 0-3.412.175-4.777.525-1.366.35-2.608.787-3.728 1.313a16.363 16.363 0 0 0-3.045 1.837c-.91.7-1.785 1.365-2.625 1.995l-5.67-5.88Zm26.67 19.74c-2.24 0-4.532.122-6.877.367-2.346.246-4.48.718-6.405 1.418-1.926.7-3.5 1.68-4.726 2.94-1.225 1.26-1.837 2.87-1.837 4.83 0 2.87.962 4.935 2.887 6.195 1.926 1.26 4.533 1.89 7.823 1.89 2.59 0 4.795-.437 6.615-1.313 1.82-.875 3.29-2.012 4.41-3.412a13.225 13.225 0 0 0 2.415-4.672c.49-1.716.735-3.413.735-5.093V72.7h-5.04Zm76.49 23.94h-9.45V89.5h-.21c-1.82 2.66-4.322 4.725-7.507 6.195-3.186 1.47-6.458 2.205-9.818 2.205-3.85 0-7.332-.665-10.447-1.995-3.116-1.33-5.775-3.185-7.98-5.565-2.206-2.38-3.903-5.145-5.093-8.295-1.19-3.15-1.785-6.58-1.785-10.29 0-3.71.595-7.157 1.785-10.342 1.19-3.186 2.887-5.95 5.092-8.295 2.206-2.346 4.865-4.183 7.98-5.513 3.116-1.33 6.598-1.995 10.448-1.995 3.57 0 6.93.752 10.08 2.258 3.15 1.505 5.565 3.552 7.245 6.142h.21V17.26h9.45v79.38Zm-25.83-7.56c2.52 0 4.795-.437 6.825-1.313 2.03-.875 3.745-2.064 5.145-3.57 1.4-1.505 2.485-3.324 3.255-5.46.77-2.135 1.155-4.462 1.155-6.982 0-2.52-.385-4.847-1.155-6.983-.77-2.135-1.855-3.954-3.255-5.46-1.4-1.505-3.115-2.694-5.145-3.57-2.03-.875-4.305-1.312-6.825-1.312-2.52 0-4.795.437-6.825 1.313-2.03.875-3.745 2.064-5.145 3.57-1.4 1.505-2.485 3.324-3.255 5.46-.77 2.135-1.155 4.462-1.155 6.982 0 2.52.385 4.847 1.155 6.983.77 2.135 1.855 3.954 3.255 5.46 1.4 1.505 3.115 2.694 5.145 3.57 2.03.875 4.305 1.312 6.825 1.312Zm47.25-13.86c0 2.17.472 4.147 1.417 5.933a14.76 14.76 0 0 0 3.728 4.567c1.54 1.26 3.325 2.24 5.355 2.94 2.03.7 4.13 1.05 6.3 1.05 2.94 0 5.495-.682 7.665-2.047 2.17-1.366 4.165-3.168 5.985-5.408l7.14 5.46c-5.25 6.79-12.6 10.185-22.05 10.185-3.92 0-7.472-.665-10.657-1.995-3.186-1.33-5.88-3.167-8.085-5.513-2.206-2.345-3.903-5.11-5.093-8.294-1.19-3.186-1.785-6.633-1.785-10.343s.647-7.157 1.943-10.342c1.295-3.186 3.08-5.95 5.354-8.295 2.276-2.346 4.988-4.183 8.138-5.513 3.15-1.33 6.58-1.995 10.29-1.995 4.41 0 8.137.77 11.183 2.31 3.045 1.54 5.547 3.552 7.507 6.038 1.96 2.485 3.377 5.284 4.252 8.4a34.976 34.976 0 0 1 1.313 9.502v3.36h-39.9Zm29.82-7.56c-.07-2.1-.402-4.025-.998-5.775-.595-1.75-1.487-3.272-2.677-4.567-1.19-1.296-2.677-2.31-4.462-3.045-1.786-.736-3.868-1.103-6.248-1.103-2.31 0-4.427.437-6.353 1.313-1.925.875-3.552 2.012-4.882 3.412a15.76 15.76 0 0 0-3.098 4.672c-.735 1.716-1.102 3.413-1.102 5.093h29.82Zm25.095-12.6h-10.71v-8.19h10.71V35.74c0-6.65 1.277-11.602 3.833-14.858C455.538 17.628 459.93 16 466.16 16c1.05 0 2.152.035 3.307.105 1.156.07 2.398.28 3.728.63l-1.05 8.4c-.91-.35-1.785-.595-2.625-.735-.84-.14-1.75-.21-2.73-.21-1.75 0-3.15.262-4.2.787a5.92 5.92 0 0 0-2.467 2.258c-.596.98-.98 2.152-1.156 3.518-.175 1.365-.262 2.922-.262 4.672V46.87h11.235v8.19H458.6v41.58h-9.45V55.06Zm37.955 16.695c0 2.52.385 4.847 1.155 6.983.77 2.135 1.855 3.954 3.255 5.46 1.4 1.505 3.115 2.694 5.145 3.57 2.03.875 4.305 1.312 6.825 1.312 2.52 0 4.795-.437 6.825-1.313 2.03-.875 3.745-2.064 5.145-3.57 1.4-1.505 2.485-3.324 3.255-5.46.77-2.135 1.155-4.462 1.155-6.982 0-2.52-.385-4.847-1.155-6.983-.77-2.135-1.855-3.954-3.255-5.46-1.4-1.505-3.115-2.694-5.145-3.57-2.03-.875-4.305-1.312-6.825-1.312-2.52 0-4.795.437-6.825 1.313-2.03.875-3.745 2.064-5.145 3.57-1.4 1.505-2.485 3.324-3.255 5.46-.77 2.135-1.155 4.462-1.155 6.982Zm-10.08 0c0-3.64.682-7.035 2.048-10.185 1.365-3.15 3.237-5.915 5.617-8.295s5.18-4.252 8.4-5.617c3.22-1.366 6.685-2.048 10.395-2.048s7.175.682 10.395 2.047c3.22 1.366 6.02 3.238 8.4 5.618 2.38 2.38 4.252 5.145 5.618 8.295 1.365 3.15 2.047 6.545 2.047 10.185 0 3.64-.682 7.052-2.048 10.238-1.365 3.185-3.237 5.95-5.617 8.294-2.38 2.346-5.18 4.2-8.4 5.566-3.22 1.365-6.685 2.047-10.395 2.047s-7.175-.682-10.395-2.047c-3.22-1.366-6.02-3.22-8.4-5.566-2.38-2.345-4.252-5.11-5.618-8.294-1.365-3.186-2.047-6.598-2.047-10.238Zm76.435-1.68L535.82 46.87H548l12.075 17.64 11.865-17.64h11.445l-17.01 23.205 20.16 26.565h-12.18l-14.7-20.895-14.7 20.895H533.3l20.16-26.565Z" fill="#1B1B1B" fill-rule="nonzero"/><path d="M63.507 114.506c2.922-19.599 8.976-34.37 18.164-44.314 9.187-9.944 19.109-15.84 29.765-17.686l11.071 31c-11.819-1.355-22.804.28-32.955 4.906-10.152 4.625-18.834 13.323-26.045 26.094Z" fill="#FFF"/><path d="M63.507 114.506c-2.921-19.599-8.976-34.37-18.163-44.314-9.187-9.944-19.11-15.84-29.766-17.686l-11.07 31c11.818-1.355 22.803.28 32.955 4.906 10.152 4.625 18.833 13.323 26.044 26.094Z" fill="#FFF"/><path d="M63.507 114.506c-5.589-35.03-21.589-55.697-48-62l48-24 47.922 24c-26.368 6.303-42.342 26.97-47.922 62ZM15.507 52.506v-48l48 24zM111.43 52.506v-48l-47.923 24z" fill="#E84F27"/><g fill="#1B1B1B" fill-rule="nonzero"><path d="M87.686 84.317c8.85-4.033 18.29-5.95 28.276-5.758l-7.426-20.795c-8.262 2.285-16.104 7.411-23.56 15.481-5.047 5.463-9.112 12.597-12.169 21.42 4.557-4.45 9.515-7.905 14.879-10.348Zm-28.63 29.525c3.045-20.423 9.438-36.02 19.31-46.704 9.822-10.632 20.606-17.04 32.302-19.066a4.5 4.5 0 0 1 5.006 2.92l11.071 31c1.121 3.139-1.44 6.364-4.75 5.985-11.02-1.264-21.183.249-30.578 4.53-9.214 4.198-17.22 12.218-23.991 24.211-2.454 4.347-9.105 2.061-8.37-2.876Z"/><path d="M39.327 84.317c-8.85-4.033-18.291-5.95-28.277-5.758l7.427-20.795c8.261 2.285 16.103 7.411 23.56 15.481 5.047 5.463 9.112 12.597 12.168 21.42-4.556-4.45-9.515-7.905-14.878-10.348Zm28.629 29.525c-3.045-20.423-9.437-36.02-19.309-46.704-9.823-10.632-20.607-17.04-32.302-19.066a4.5 4.5 0 0 0-5.007 2.92l-11.07 31c-1.121 3.139 1.439 6.364 4.75 5.985 11.02-1.264 21.182.249 30.577 4.53 9.215 4.198 17.22 12.218 23.992 24.211 2.454 4.347 9.105 2.061 8.369-2.876Z"/><path d="M99.67 51.65 63.507 33.538 27.282 51.65c17.275 7.393 29.367 21.88 36.222 43.166C70.348 73.53 82.42 59.043 99.67 51.65Zm-40.606 63.565C53.74 81.85 38.93 62.723 14.463 56.883c-4.087-.976-4.726-6.523-.968-8.402l48-24a4.5 4.5 0 0 1 4.027.001l47.922 24c3.755 1.88 3.116 7.424-.969 8.4-24.424 5.84-39.209 24.967-44.524 58.332-.805 5.055-8.08 5.056-8.887 0Z"/><path d="M53.445 28.506 20.007 11.787v33.438l33.438-16.72Zm-42.438 24v-48c0-3.345 3.52-5.521 6.513-4.025l48 24c3.317 1.658 3.317 6.391 0 8.05l-48 24c-2.992 1.496-6.513-.68-6.513-4.025Z"/><path d="m73.556 28.506 33.373-16.714V45.22L73.556 28.506Zm42.373 24v-48c0-3.347-3.523-5.522-6.515-4.024l-47.922 24c-3.313 1.66-3.313 6.388 0 8.047l47.922 24c2.992 1.499 6.515-.677 6.515-4.023Z"/></g></g></svg>