<svg viewBox="0 0 429.24 202.24" width="429.24" height="202.24" xml:space="preserve" xmlns="http://www.w3.org/2000/svg" xmlns:xlink="http://www.w3.org/1999/xlink"><style>.st0{fill:#ffab4d}.st2{opacity:.39;fill:#70a7a4}.st3{fill:#46b9b5}.st4{fill:#7dc8c4}</style><path class="st0" d="M182.99 48.42c0-1.25.06-2.46.19-3.65s.43-2.25.91-3.17c.48-.93 1.19-1.67 2.15-2.24s2.27-.85 3.96-.85c1.68 0 3 .28 3.98.85.97.57 1.7 1.31 2.17 2.24.48.93.78 1.98.89 3.17.12 1.19.17 2.4.17 3.65v34.26c.09 1.28.35 2.41.78 3.39.17.44.4.86.69 1.26.29.41.63.77 1.02 1.09s.85.57 1.39.76 1.15.28 1.85.28 1.32-.09 1.87-.28 1.02-.44 1.41-.76.73-.68 1.02-1.09c.29-.4.52-.83.7-1.26.43-.98.68-2.11.74-3.39V48.42c0-1.25.06-2.46.17-3.65.12-1.19.41-2.25.89-3.17.48-.93 1.2-1.67 2.15-2.24.96-.57 2.29-.85 4-.85 1.68 0 3 .28 3.96.85s1.67 1.31 2.15 2.24.78 1.98.91 3.17.2 2.4.2 3.65v33.13c0 3.01-.49 5.65-1.46 7.91s-2.35 4.15-4.13 5.67-3.91 2.66-6.39 3.44c-2.48.77-5.21 1.15-8.2 1.15-3.01 0-5.75-.4-8.22-1.2-2.46-.8-4.59-1.96-6.37-3.5s-3.16-3.43-4.13-5.69-1.45-4.85-1.45-7.78V48.42zM246.63 53.81c.03 1.22.38 2.31 1.06 3.28s1.58 1.89 2.7 2.76 2.38 1.72 3.8 2.54c1.42.83 2.88 1.7 4.37 2.61s2.95 1.91 4.37 2.98 2.7 2.29 3.83 3.65 2.04 2.9 2.74 4.61c.69 1.71 1.07 3.65 1.13 5.82v.35c0 2.38-.29 4.45-.87 6.21-.58 1.77-1.35 3.29-2.3 4.57-.96 1.27-2.07 2.33-3.35 3.15-1.28.83-2.62 1.49-4.02 1.98-1.41.49-2.83.84-4.26 1.04s-2.79.32-4.06.35h-.44c-2.46 0-4.62-.25-6.48-.74s-3.45-1.15-4.78-1.98-2.44-1.77-3.33-2.85a15.36 15.36 0 0 1-2.11-3.33c-.52-1.15-.9-2.28-1.13-3.41s-.35-2.19-.35-3.18c0-1.02.17-1.9.52-2.65s.8-1.37 1.37-1.85 1.22-.83 1.96-1.06 1.52-.35 2.33-.35c.75 0 1.53.12 2.33.35s1.52.58 2.17 1.06 1.19 1.09 1.61 1.83.65 1.6.67 2.59c.06 2.17.55 3.66 1.48 4.45.93.8 2.26 1.2 4 1.2.87-.03 1.67-.13 2.41-.33.74-.19 1.37-.52 1.89-1s.93-1.11 1.24-1.91c.3-.8.46-1.8.46-3.02 0-1.51-.34-2.87-1.02-4.09s-1.57-2.35-2.68-3.39c-1.1-1.04-2.36-2.03-3.78-2.98-1.42-.94-2.87-1.88-4.35-2.83-1.48-.94-2.92-1.92-4.32-2.95-1.41-1.03-2.68-2.15-3.81-3.37s-2.04-2.57-2.72-4.05-1.04-3.16-1.06-5.04v-.7c.03-3.1.44-5.68 1.24-7.74s1.97-3.69 3.52-4.91 3.46-2.08 5.72-2.59 4.85-.76 7.78-.76h1.13c2.67 0 4.93.29 6.78.87s3.4 1.32 4.63 2.22 2.2 1.91 2.91 3.04 1.24 2.25 1.59 3.35.57 2.13.65 3.09c.08.95.13 1.72.13 2.3 0 .87-.16 1.66-.5 2.37s-.78 1.31-1.35 1.8c-.56.49-1.23.88-2 1.15-.77.28-1.6.41-2.5.41-.69 0-1.39-.14-2.09-.41-.7-.28-1.32-.63-1.87-1.07s-1-.93-1.35-1.5-.52-1.14-.52-1.72c0-2.38-.43-4.03-1.28-4.96-.86-.93-2.11-1.39-3.76-1.39-.78 0-1.54.04-2.28.13s-1.39.32-1.96.72c-.56.39-1.02.99-1.35 1.8-.32.86-.49 2-.49 3.48zM303.06 38.51c1.16 0 2.33.04 3.52.13s2.26.33 3.22.74c.96.4 1.74 1.02 2.35 1.85.61.82.91 1.98.91 3.45 0 1.48-.3 2.63-.91 3.46-.6.82-1.39 1.44-2.35 1.85-.96.4-2.03.65-3.22.74-1.19.08-2.36.13-3.52.13h-10.35v11.83h5.47c1.16 0 2.33.04 3.5.11s2.22.3 3.13.7c.91.39 1.66.99 2.24 1.78.58.8.87 1.91.87 3.32 0 1.45-.29 2.57-.87 3.35s-1.33 1.37-2.24 1.76-1.96.62-3.13.7c-1.17.07-2.34.11-3.5.11h-5.47v12.52h10.35c1.16 0 2.33.04 3.52.13s2.26.33 3.22.72 1.74 1 2.35 1.83.91 1.96.91 3.41c0 1.51-.31 2.68-.93 3.52s-1.41 1.46-2.37 1.87-2.03.65-3.22.74-2.35.13-3.48.13h-17.04c-1.62 0-2.88-.29-3.76-.87a5.017 5.017 0 0 1-1.93-2.28c-.41-.94-.65-2.01-.72-3.2s-.11-2.4-.11-3.65V48.5c0-1.25.03-2.46.11-3.65.07-1.19.31-2.25.72-3.19.4-.94 1.05-1.7 1.93-2.28s2.14-.87 3.76-.87h17.04zM341.31 38.51c2.63 0 5.09.33 7.37 1s4.26 1.66 5.96 2.98c1.69 1.32 3.03 2.97 4 4.94s1.45 4.27 1.45 6.91v26.95c0 2.26-.25 4.26-.74 5.98s-1.14 3.22-1.93 4.48c-.8 1.26-1.7 2.33-2.72 3.22-1.02.88-2.04 1.6-3.09 2.15-2.49 1.34-5.32 2.09-8.48 2.26H328.7c-1.65 0-2.93-.28-3.83-.85-.9-.56-1.55-1.32-1.96-2.26-.4-.94-.64-2.01-.71-3.2-.08-1.19-.11-2.42-.11-3.69V48.42c0-1.25.03-2.46.11-3.65.07-1.19.31-2.25.71-3.17.4-.93 1.06-1.67 1.96-2.24s2.17-.85 3.83-.85h12.61zm-6 10.17v40.34h5.65c1.25-.06 2.36-.35 3.35-.87.41-.2.81-.48 1.22-.83.4-.35.77-.76 1.09-1.24s.57-1.05.76-1.72.28-1.43.28-2.3V56.42c0-.96-.1-1.81-.28-2.54-.19-.74-.44-1.39-.76-1.94s-.68-1.01-1.09-1.39-.81-.68-1.22-.91c-.99-.55-2.1-.87-3.35-.96h-5.65zM373.48 52.59c0-2.11.31-4.06.93-5.85.62-1.78 1.56-3.3 2.8-4.56 1.25-1.26 2.81-2.25 4.7-2.95 1.88-.71 4.08-1.06 6.61-1.06 2.12 0 4.12.36 6.02 1.06 1.9.71 3.55 1.73 4.95 3.06 1.41 1.33 2.52 2.94 3.35 4.83s1.24 4 1.24 6.35c0 2.52-.72 5.06-2.15 7.61s-3.82 4.97-7.15 7.26l5.82 6.78 2.26-2.7c.96-1.19 1.96-2.21 3.02-3.07 1.06-.85 2.2-1.28 3.41-1.28 1.13 0 2.32.49 3.57 1.48.78.7 1.34 1.38 1.67 2.04.34.67.5 1.35.5 2.04 0 1.1-.32 2.17-.96 3.22s-1.39 2.09-2.26 3.13l-3.57 4.35 3.05 3.56c.87 1.04 1.62 2.1 2.26 3.18.64 1.07.96 2.13.96 3.17 0 .61-.17 1.24-.52 1.89s-.87 1.27-1.57 1.85c-.58.49-1.17.86-1.78 1.11s-1.21.37-1.78.37c-1.13 0-2.29-.52-3.48-1.56s-2.67-2.69-4.44-4.96c-.64.84-1.41 1.66-2.33 2.44-.91.78-1.96 1.47-3.15 2.06s-2.5 1.07-3.93 1.41c-1.44.35-2.99.52-4.67.52-2.93 0-5.54-.46-7.82-1.39-2.29-.93-4.23-2.19-5.8-3.78-1.58-1.6-2.79-3.46-3.63-5.61s-1.26-4.43-1.26-6.87c0-1.65.3-3.28.89-4.87s1.39-3.1 2.39-4.52 2.16-2.71 3.5-3.87c1.33-1.16 2.72-2.13 4.17-2.91-.7-1.04-1.39-2.01-2.09-2.91-.69-.9-1.32-1.83-1.87-2.8s-1-2.03-1.35-3.2c-.34-1.17-.51-2.51-.51-4.05zm12.08 20.87c-.58.47-1.15 1-1.7 1.61s-1.04 1.28-1.48 2c-.43.72-.78 1.48-1.04 2.26s-.39 1.58-.39 2.39c0 1.27.19 2.32.56 3.13.38.81.85 1.46 1.41 1.94s1.17.81 1.8 1c.64.19 1.2.28 1.69.28.81 0 1.52-.09 2.13-.28s1.17-.47 1.69-.85 1.04-.84 1.56-1.39 1.1-1.19 1.74-1.91l-7.97-10.18zm2.96-25.56c-.64 0-1.19.15-1.67.45-.47.31-.88.7-1.21 1.18s-.59 1.02-.76 1.63c-.18.61-.26 1.23-.26 1.87 0 .18.02.44.06.81.04.36.2.86.48 1.5.27.64.7 1.42 1.28 2.35s1.42 2.04 2.52 3.35c.78-.46 1.47-1.01 2.06-1.63.6-.62 1.1-1.28 1.5-1.98s.71-1.41.91-2.15.31-1.46.31-2.15c0-.72-.11-1.4-.33-2.02s-.54-1.17-.98-1.65c-.43-.48-.98-.85-1.63-1.13-.65-.3-1.41-.43-2.28-.43zM184.55 120.42c0-1.25.06-2.46.18-3.65s.4-2.25.85-3.19 1.11-1.7 1.98-2.28 2.07-.87 3.61-.87c1.65 0 2.94.29 3.87.87s1.61 1.34 2.04 2.28.7 2.01.8 3.19c.1 1.19.15 2.41.15 3.65v38.09h8.52c1.19 0 2.37.06 3.52.17 1.16.11 2.2.39 3.11.83a5.35 5.35 0 0 1 2.2 1.91c.55.84.82 1.99.82 3.43 0 1.48-.27 2.65-.82 3.5s-1.28 1.5-2.2 1.93c-.91.43-1.95.71-3.11.82-1.16.12-2.33.18-3.52.18H194.2c-1.54 0-2.9-.06-4.09-.18-1.19-.11-2.2-.39-3.02-.82a4.355 4.355 0 0 1-1.89-1.93c-.43-.86-.65-2.02-.65-3.5v-44.43zM223.42 127.64c0-2.78.4-5.15 1.21-7.11s1.85-3.59 3.11-4.89c1.26-1.31 2.65-2.33 4.17-3.07s3-1.3 4.44-1.67c1.43-.38 2.73-.61 3.89-.7 1.16-.08 2.01-.13 2.57-.13h1.48c.55 0 1.41.05 2.56.13 1.16.09 2.45.32 3.87.7s2.89.93 4.41 1.67 2.9 1.76 4.13 3.07c1.23 1.3 2.24 2.93 3.04 4.89s1.19 4.33 1.19 7.11v26c0 2.87-.4 5.3-1.19 7.31-.8 2-1.81 3.66-3.04 5-1.23 1.33-2.61 2.39-4.13 3.15-1.52.77-2.99 1.34-4.41 1.72s-2.71.61-3.87.7c-1.16.08-2.01.13-2.56.13h-1.48c-.55 0-1.41-.04-2.57-.13s-2.46-.32-3.89-.7c-1.44-.38-2.91-.95-4.44-1.72-1.52-.77-2.91-1.82-4.17-3.15s-2.3-3-3.11-5-1.21-4.44-1.21-7.31v-26zm14.43 27.65c.06 1.07.31 2.01.74 2.82.37.72.95 1.38 1.72 1.96s1.86.87 3.28.87c1.39 0 2.46-.29 3.22-.87.75-.58 1.32-1.23 1.7-1.96.4-.81.65-1.75.74-2.82v-28.35c-.09-1.04-.33-1.99-.74-2.82-.38-.7-.94-1.34-1.7-1.94-.75-.6-1.83-.89-3.22-.89-1.42 0-2.51.3-3.28.89-.77.6-1.34 1.24-1.72 1.94-.43.84-.68 1.78-.74 2.82v28.35zM304.62 110.42c.84 0 1.65.14 2.44.43.78.29 1.47.68 2.06 1.17.6.49 1.07 1.08 1.41 1.76.35.68.52 1.41.52 2.2 0 .38-.02.73-.07 1.06-.04.34-.1.63-.15.89-.09.32-.16.6-.21.82-1.97 7.74-4.03 15.63-6.17 23.68-2.15 8.04-4.2 15.92-6.17 23.63a8.96 8.96 0 0 1-1.74 2.61c-.61.67-1.4 1.27-2.37 1.8-.97.54-2.18.81-3.63.81h-1.39c-1.45 0-2.66-.27-3.65-.81s-1.78-1.14-2.39-1.8a8.15 8.15 0 0 1-1.69-2.61l-12.34-47.3c-.09-.23-.16-.5-.22-.82-.14-.58-.22-1.23-.22-1.96 0-.78.16-1.52.5-2.2.33-.68.79-1.27 1.37-1.76s1.26-.89 2.04-1.17c.78-.29 1.62-.43 2.52-.43 1.39 0 2.51.3 3.37.91s1.53 1.29 2.02 2.04c.55.87.96 1.85 1.22 2.96.34 1.39.72 2.96 1.13 4.71.41 1.76.81 3.57 1.22 5.46.4 1.88.82 3.8 1.23 5.76.42 1.96.82 3.85 1.2 5.67.9 4.29 1.8 8.68 2.69 13.17h1.39c.99-4.49 1.94-8.88 2.87-13.17.38-1.83.78-3.72 1.19-5.67.42-1.96.83-3.88 1.24-5.76s.8-3.7 1.17-5.46c.38-1.75.71-3.33 1-4.71.29-1.1.71-2.09 1.26-2.96.49-.75 1.16-1.43 2-2.04.84-.6 1.96-.91 3.35-.91zM341.05 110.42c1.16 0 2.33.04 3.52.13s2.26.33 3.22.74c.96.4 1.74 1.02 2.35 1.85s.91 1.98.91 3.46-.3 2.63-.91 3.46c-.61.82-1.39 1.44-2.35 1.84-.95.41-2.03.65-3.22.74-1.19.08-2.36.13-3.52.13H330.7v11.82h5.47c1.16 0 2.33.03 3.5.11s2.22.3 3.13.7c.91.39 1.66.99 2.24 1.78.58.8.87 1.91.87 3.33 0 1.45-.29 2.56-.87 3.34-.58.79-1.32 1.37-2.24 1.76-.91.39-1.96.62-3.13.7-1.17.07-2.34.11-3.5.11h-5.47v12.52h10.35c1.16 0 2.33.04 3.52.13s2.26.33 3.22.72 1.74 1 2.35 1.82c.61.83.91 1.96.91 3.41 0 1.51-.31 2.68-.93 3.52s-1.41 1.46-2.37 1.87c-.95.4-2.03.65-3.21.74-1.19.09-2.35.13-3.48.13h-17.04c-1.62 0-2.88-.29-3.76-.87s-1.53-1.34-1.93-2.28c-.41-.94-.65-2-.72-3.2-.07-1.19-.11-2.41-.11-3.65v-40.87c0-1.25.03-2.46.11-3.65.07-1.19.31-2.25.72-3.19.4-.94 1.05-1.7 1.93-2.28s2.14-.87 3.76-.87h17.03zM379.3 110.42c2.64 0 5.09.33 7.37 1 2.27.67 4.26 1.66 5.95 2.98s3.03 2.96 4 4.93 1.45 4.27 1.45 6.91v26.95c0 2.26-.25 4.25-.74 5.98-.49 1.72-1.14 3.22-1.93 4.48-.8 1.26-1.7 2.33-2.72 3.22s-2.04 1.6-3.09 2.15c-2.49 1.33-5.32 2.09-8.48 2.26H366.7c-1.65 0-2.93-.28-3.83-.85s-1.55-1.32-1.96-2.26-.64-2.01-.72-3.2-.11-2.42-.11-3.69v-40.95c0-1.25.03-2.46.11-3.65.07-1.19.31-2.24.72-3.17.4-.93 1.06-1.67 1.96-2.24s2.17-.85 3.83-.85h12.6zm-5.99 10.17v40.35h5.65c1.24-.06 2.36-.35 3.35-.87.41-.2.81-.48 1.22-.83.4-.35.77-.76 1.09-1.24s.57-1.05.76-1.72.28-1.43.28-2.3v-25.65c0-.96-.1-1.8-.28-2.54-.19-.74-.44-1.38-.76-1.93s-.68-1.01-1.09-1.39c-.4-.38-.81-.68-1.22-.91-.99-.55-2.1-.87-3.35-.96h-5.65z"/><defs><path id="b" d="m110.42 117.92 26.41 17.76 1.53 1.14c-2.74 3.83-17.57 27.22-24.68 32.3-3.08 2.21-6.97 2.42-10.67 1.87-6.66-.99-15.52-3.62-20.84-7.95-1.62-1.32-1.66-3.2-2.7-4.34 2.96-3.46 17.16-20.11 30.95-40.78"/></defs><clipPath id="a"><use xlink:href="#b"/></clipPath><path d="m116.41 168.79 21.42-32.9-11.68-7.69c-.09-.05-.19-.09-.28-.15l-15-10.09-28.98 42.92c.54.62 1.35 1.59 2.46 2.9 1.82 2.16 3.11 3.62 3.88 4.35.77.74 1.98 1.83 3.62 3.26s3.21 2.46 4.71 3.08 3.08 1.05 4.75 1.27c2.31.25 4.62.01 6.93-.73 1.63-.51 7.57-6.3 8.17-6.22z" style="clip-path:url(#a);fill:#46b9b5"/><path class="st2" d="m86.76 153.67-4.87 7.22 1.47 3.81 2.77 1.21 2.41.97 2.03.82 2.05.75c-.01 0-5.09-5.17-5.86-14.78z"/><path class="st0" d="M51.07 141.97c-2.42-5.23-2.31-11.75 3.2-15.04 0 0 3.94-3.21 9.18-.28 0 0 3.77-8.31 11.73-8.03 7.28.26 8.33 7.68 8.36 13.22.05 9.06-.29 18.27 2.34 27.06.35 1.16 2.17 7.8 3.29 8.22-10.77-4.08-27.98-12.4-35.6-21.24a17.5 17.5 0 0 1-2.5-3.91z"/><path class="st3" d="M60.15 104.04 40.48 64.53c-.67.14-2.14.43-4.45.85-2.78.51-4.68.92-5.7 1.22-1.02.31-2.56.82-4.62 1.53-2.05.72-3.72 1.57-5.01 2.57-1.28 1-2.43 2.17-3.45 3.51-1.36 1.88-2.29 4.01-2.79 6.38-.35 1.68-.35 3.23.01 4.67L31 118.57l12.06-5.98c.09-.06.17-.12.27-.17l16.82-8.38z"/><path class="st2" d="M43.51 70.63c-.95-.1-14.57-1.5-26.38 3.72 0 0-2.26 3.47-2.75 6.37 0 0 16.3-6.85 32.43-3.46l-3.3-6.63z"/><path class="st4" d="M95.87 54.8 79.83 30.6v8.19l-36.28.01-1.27.15c-1.05.16-2.3.71-3.75 1.64-1.45.94-2.57 2.21-3.35 3.82L17.13 74.35l1.73-.63c1.13-.47 2.96-.95 5.49-1.42 2.54-.48 5.45-.9 8.76-1.26 2.46-.27 5.57-.29 9.02-.27.05-.01.19-.02.25-.02h37.44v8.31L95.87 54.8z"/><path class="st3" d="m99.67 69.84 44.13-.07c.17-.66.57-2.11 1.21-4.37.78-2.72 1.25-4.6 1.44-5.65.18-1.05.4-2.66.68-4.82.27-2.16.24-4.03-.08-5.63-.32-1.59-.86-3.14-1.61-4.64-1.08-2.06-2.57-3.84-4.48-5.34-1.35-1.06-2.74-1.75-4.18-2.07l-37.18.03.01 13.46c.01.1.03.21.03.32l.03 18.78z"/><path class="st2" d="M136.99 69.78c.51-.8 7.81-12.38 8.38-25.29 0 0-2.1-3.57-4.48-5.29 0 0-1.1 17.64-11.3 30.59l7.4-.01z"/><path class="st4" d="M166.12 78.65c-.2-1.72-.84-3.29-1.93-4.7l-18.81-29.46-.2 1.84c-.07 1.22-.46 3.07-1.16 5.55s-1.62 5.29-2.76 8.41c-.85 2.32-2.22 5.12-3.76 8.2-.01.05-.07.18-.1.23l-16.63 33.55-7.44-3.69 14.6 25.14 28.8-3.63-7.34-3.64 16.1-32.51.43-1.21c.32-1 .39-2.36.2-4.08z"/></svg>