<svg xmlns="http://www.w3.org/2000/svg" fill="none" viewBox="0 0 361 120" width="361" height="120" class="menu_logo__sKGcz" style="width:240px"><path fill="#11EDD2" d="m23.626.176 7.086 92.146h1.519L39.152.176h23.626l-13.16 118.141H12.665L0 .177zM152.819 0v97.714h19.412v20.591h-43.026V0h23.626zm36.115.176 5.568 52.66h1.519l5.568-52.66h23.79l-18.564 85.389v32.74H183.19v-32.74L165.297.176h23.637m66.934 0v90.628c0 3.26.671 5.544 2.024 6.828q2.031 1.942 4.556 1.942c1.683 0 3.178-.647 4.473-1.942s1.942-3.567 1.942-6.829V.177h23.626V89.12c0 10.348-2.731 18.083-8.181 23.204-5.462 5.121-12.855 7.676-22.19 7.676-9.334 0-16.515-2.531-21.859-7.593-5.345-5.063-8.017-12.821-8.017-23.287V.176zm68.463 0v90.628c0 3.26.671 5.544 2.025 6.828q2.03 1.942 4.555 1.942c1.683 0 3.178-.647 4.473-1.942s1.943-3.567 1.943-6.829V.177h23.625V89.12c0 10.348-2.731 18.083-8.181 23.204-5.462 5.121-12.855 7.676-22.189 7.676-9.335 0-16.504-2.531-21.849-7.593-5.344-5.063-8.016-12.821-8.016-23.287V.176h23.626zM98.882 118.305l-7.087-92.146h-1.518l-6.922 92.146H59.73L72.89.165h36.951l12.655 118.14H98.87z"/></svg>