<svg version="1.1" id="Layer_1" xmlns="http://www.w3.org/2000/svg" x="0" y="0" viewBox="0 0 1237.7 344.5" width="1237.7" height="344.5" style="enable-background:new 0 0 1237.7 344.5" xml:space="preserve"><style>.st1{fill:#fff}.st4{fill-rule:evenodd;clip-rule:evenodd;fill:#1b143d}</style><path class="st4" d="m396.3 122.8 28.5 65.5s.4.7.7 1.9c.4 1.1.7 2.2.7 3.3.4-1.1.4-2.2.7-3.3.4-1.1.7-1.9.7-1.9l28.5-65.5H474c-.4.7-1.5 3-3 6.3s-3.3 7.4-5.6 12.2c-2.2 4.8-4.8 10.4-7.4 16.3-2.6 5.9-5.6 12.2-8.1 18.5-3 6.3-5.6 12.2-8.1 18.5-2.6 5.9-5.2 11.5-7.4 16.3-2.2 4.8-4.1 8.9-5.6 12.2-1.5 3.3-2.6 5.6-3 6.3-.4-.7-1.5-3-3-6.3s-3.3-7.4-5.6-12.2c-2.2-4.8-4.8-10.4-7.4-16.3-2.6-5.9-5.6-12.2-8.1-18.5-3-6.3-5.6-12.2-8.1-18.5-2.6-5.9-5.2-11.5-7.4-16.3-2.2-4.8-4.1-8.9-5.6-12.2s-2.2-5.6-3-6.3h18.7zM525.1 225V122.8h69.6v15.5h-51.8v27.4h46.3v15.9h-46.3v27h54v15.9h-71.8v.5zM739.7 122.5v107.7c-.7-.7-2.2-2.2-4.4-4.8-2.2-2.2-5.2-4.8-8.5-8.1s-7-6.7-11.1-10.4-8.1-7.8-12.6-11.5c-4.4-4.1-8.5-7.8-12.6-11.5s-7.8-7.4-11.1-10.4c-3.3-3.3-6.3-5.9-8.5-8.1l-4.4-4.4c0-.4-.4-.7-1.1-1.5-.7-.7-1.1-1.5-1.9-2.2l.4 4.4v63.7h-17.8V117.6l4.4 4.4c2.2 2.2 5.2 4.8 8.5 8.1 3.3 3 7 6.7 11.1 10 4.1 3.7 8.1 7.4 12.6 11.1 4.4 3.7 8.5 7.4 12.6 11.5 4.1 3.7 7.8 7 11.1 10s6.3 5.6 8.5 7.8l4.4 4.4 2.6 4.1-.4-4.8v-61.8h18.2zM820 209.4c5.6 0 10.7-.7 15.2-2.2 4.8-1.5 8.5-3.7 12.2-6.7 3.3-3 5.9-6.7 7.8-10.7 1.9-4.4 3-9.3 3-14.8 0-6.3-1.1-11.8-3.3-16.3-2.2-4.4-5.2-8.1-8.5-10.7-3.3-2.6-7.4-4.8-11.5-5.9-4.4-1.1-8.5-1.9-12.2-1.9h-14.1v69.9H820v-.7zm-30-86.6h27.4c10.7 0 19.6 1.5 27 4.8 7.4 3.3 13.3 7.4 18.1 12.2s8.1 10.7 10 17c2.2 6.3 3 12.6 3 18.9 0 7.8-1.5 14.8-4.4 20.7-3 6.3-6.7 11.5-11.5 15.5-4.8 4.4-10.4 7.8-17 10-6.3 2.2-13.3 3.3-20.4 3.3h-32.6V122.8h.4zM944.7 173.9c0 4.8 1.1 9.3 3 13.7 1.9 4.1 4.4 7.8 7.8 11.1 3.3 3.3 7 5.6 11.5 7.4 4.4 1.9 9.3 2.6 14.4 2.6 4.8 0 9.6-.7 14.1-2.6 4.4-1.9 8.1-4.4 11.5-7.4 3.3-3.3 5.9-7 7.8-11.1 1.9-4.1 3-8.9 3-13.7 0-4.8-1.1-9.3-3-13.7-1.9-4.1-4.4-8.1-7.8-11.1-3.3-3.3-7-5.6-11.5-7.4-4.4-1.9-9.3-2.6-14.1-2.6-5.2 0-9.6.7-14.1 2.6-4.4 1.9-8.1 4.4-11.5 7.4-3.3 3.3-5.9 7-7.8 11.1-2.5 4.4-3.3 8.9-3.3 13.7zm-17.7 0c0-7 1.5-13.7 4.4-19.6 3-6.3 6.7-11.5 11.5-16.3 4.8-4.8 10.7-8.5 17-11.1 6.7-2.6 13.3-4.1 21.1-4.1 7.4 0 14.4 1.5 20.7 4.1 6.7 2.6 12.2 6.3 17.4 11.1 4.8 4.8 8.9 10 11.8 16.3 3 6.3 4.4 13 4.4 19.6 0 7-1.5 13.7-4.4 19.6-3 6.3-6.7 11.5-11.8 16.3-4.8 4.4-10.7 8.1-17.4 10.7-6.7 2.6-13.7 4.1-20.7 4.1-7.4 0-14.4-1.5-21.1-4.1-6.7-2.6-12.2-6.3-17-10.7-4.8-4.4-8.9-10-11.5-16.3-3-5.9-4.4-12.6-4.4-19.6zM1103.1 174.3c0 4.8 1.1 9.3 3 13.7 1.9 4.1 4.4 7.8 7.8 11.1 3.3 3.3 7 5.6 11.5 7.4s9.3 2.6 14.4 2.6c4.8 0 9.6-.7 14.1-2.6s8.1-4.4 11.5-7.4c3.3-3.3 5.9-7 7.8-11.1 1.9-4.1 3-8.9 3-13.7 0-4.8-1.1-9.3-3-13.7-1.9-4.1-4.4-8.1-7.8-11.1-3.3-3.3-7-5.6-11.5-7.4-4.4-1.9-9.3-2.6-14.1-2.6-5.2 0-9.6.7-14.1 2.6-4.4 1.9-8.1 4.4-11.5 7.4-3.3 3.3-5.9 7-7.8 11.1-2.5 4-3.3 8.9-3.3 13.7zm-17.7 0c0-7 1.5-13.7 4.4-19.6 3-5.9 6.7-11.8 11.5-16.3 4.8-4.8 10.7-8.5 17-11.1 6.7-2.6 13.7-4.1 21.1-4.1s14.4 1.5 20.7 4.1c6.7 2.6 12.2 6.3 17.4 11.1 4.8 4.8 8.9 10 11.8 16.3 3 6.3 4.4 13 4.4 19.6 0 7-1.5 13.7-4.4 20-3 6.3-6.7 11.5-11.8 16.3-4.8 4.4-10.7 8.1-17.4 10.7-6.7 2.6-13.7 4.1-20.7 4.1-7.4 0-14.4-1.5-21.1-4.1-6.7-2.6-12.2-6.3-17-10.7-4.8-4.4-8.9-10-11.5-16.3-2.6-6.3-4.4-13-4.4-20z"/><circle class="st1" cx="176.1" cy="173.9" r="153.2"/><linearGradient id="SVGID_1_" gradientUnits="userSpaceOnUse" x1="94.555" y1="1279.649" x2="234.702" y2="1147.385" gradientTransform="translate(0 -1060)"><stop offset="0" style="stop-color:#fecb40"/><stop offset=".309" style="stop-color:#f7507c"/><stop offset=".639" style="stop-color:#4852e8"/><stop offset="1" style="stop-color:#47cdae"/></linearGradient><path d="m265.3 145.8-20.7 29.6c-4.1 4.4-7 6.3-10 6.3s-5.9-1.1-9.6-3c-6.3-3.7-13.3-10.4-21.8-20.4-2.6-3-5.2-6.3-7.8-10.4-1.1-1.5-2.2-3-3.3-4.8l-2.2-3 22.2-30.7c5.9-8.5 15.9-13.7 25.9-13.7 6.7 0 13 1.9 18.1 5.2l1.1.7c8.9 6.3 13.7 16.3 13.3 25.9.3 6.8-1.5 12.7-5.2 18.3zm-89.6 106.9c-8.1 0-18.1-7-26.3-18.1l-23.7-33.3-18.4-26.3-11.1-15.9-9.6-13.3c-3.7-5.2-5.6-11.5-5.6-17.8-.4-10 4.4-20 13.3-25.9l1.1-.7c5.6-3.7 11.5-5.6 17.8-5.6 10.4 0 20 4.8 25.9 13l24.1 33.7 3 4.4c.4.7 1.1 1.5 1.5 1.9l3.3 4.8c1.5 2.2 2.6 3.7 4.1 5.6l.7.7c3.3 4.4 5.9 8.1 8.9 11.5 14.4 17.4 27.8 27.4 41.1 30.3L202 235c-7.8 10.7-17.7 17.7-26.3 17.7zm119.2-128.8c-1.1-13.7-6.7-25.9-15.9-35.2l-2.2-2.2c-1.1-.7-1.9-1.5-2.2-1.9l-.4-.4c-.7-.7-1.5-1.1-2.6-1.9l-1.1-.7c-2.6-1.9-5.2-3.3-7.8-4.4-5.9-3-12.6-4.4-19.2-5.2-1.5 0-3.3-.4-4.8-.4-10 0-19.6 2.6-28.1 7.4-7 4.1-13 9.3-17.8 15.9L176.1 118l-16.7-22.9c-4.8-6.7-10.7-11.8-17.8-15.9-8.5-4.8-18.1-7.4-28.1-7.4-1.5 0-3.3 0-4.8.4-6.7.7-13.3 2.2-19.2 5.2-2.6 1.1-5.2 2.6-7.8 4.4l-1.1.7c-1.1.7-1.9 1.1-2.6 1.9l-.4.4c-.7.4-1.5 1.1-1.9 1.5-1.1 1.1-1.9 1.9-2.6 2.2-9.3 9.3-15.2 21.5-15.9 34.8V133.7c1.1 8.5 4.1 16.7 9.6 24.1l62.9 91.4c1.5 1.9 2.6 3.7 4.1 5.2 0 .4.4.4.4.7l.7.7c11.5 12.6 26.3 20 40 20h1.5c13.7 0 28.5-7.4 40-20l.7-.7c0-.4.4-.4.4-.7 1.5-1.9 3-3.3 4.1-5.2l62.9-91.4c5.2-7.4 8.5-15.5 9.6-24.1v-7.4c1.2-.9 1.2-1.6.8-2.4z" style="fill-rule:evenodd;clip-rule:evenodd;fill:url(#SVGID_1_)"/><circle class="st1" cx="176.1" cy="173.9" r="153.2"/><linearGradient id="SVGID_00000037670749301754707970000001720190229505292450_" gradientUnits="userSpaceOnUse" x1="94.481" y1="1294.891" x2="234.628" y2="1162.627" gradientTransform="translate(0 -1060)"><stop offset="0" style="stop-color:#fecb40"/><stop offset=".309" style="stop-color:#f7507c"/><stop offset=".639" style="stop-color:#4852e8"/><stop offset="1" style="stop-color:#47cdae"/></linearGradient><path style="fill-rule:evenodd;clip-rule:evenodd;fill:url(#SVGID_00000037670749301754707970000001720190229505292450_)" d="m265.3 160.9-20.7 29.6c-4.1 4.4-7 6.3-10 6.3s-5.9-1.1-9.6-3c-6.3-3.7-13.3-10.4-21.8-20.4-2.6-3-5.2-6.3-7.8-10.4-1.1-1.5-2.2-3-3.3-4.8l-2.2-3 22.2-30.7c5.9-8.5 15.9-13.7 25.9-13.7 6.7 0 13 1.9 18.1 5.2l1.1.7c8.9 6.3 13.7 16.3 13.3 25.9.3 6.9-1.5 13.2-5.2 18.3zm-89.6 107c-8.1 0-18.1-7-26.3-18.1l-23.7-33.3-18.5-26.3-11.5-15.9-9.6-13.3c-3.7-5.2-5.6-11.5-5.6-17.8-.4-10 4.4-20 13.3-25.9l1.1-.7c5.6-3.7 11.5-5.6 17.8-5.6 10.4 0 20 4.8 25.9 13l24.1 33.7 3 4.4c.4.7 1.1 1.5 1.5 1.9l3.3 4.8c1.5 2.2 2.6 3.7 4.1 5.6l.7.7c3.3 4.4 5.9 8.1 8.9 11.5 14.4 17.4 27.8 27.4 41.1 30.3l-23.7 33.3c-7.4 10.7-17.3 17.7-25.9 17.7zm119.2-128.8c-1.1-13.7-6.7-25.9-15.9-35.2l-2.2-2.2c-1.1-.7-1.9-1.5-2.2-1.9l-.4-.4c-.7-.7-1.5-1.1-2.6-1.9l-1.1-.7c-2.6-1.9-5.2-3.3-7.8-4.4-5.9-3-12.6-4.4-19.2-5.2-1.5 0-3.3-.4-4.8-.4-10 0-19.6 2.6-28.1 7.4-7 4.1-13 9.3-17.8 15.9L176.1 133l-16.7-22.9c-4.8-6.7-10.7-11.8-17.8-15.9-8.5-4.8-18.1-7.4-28.1-7.4-1.5 0-3.3 0-4.8.4-6.7.7-13.3 2.2-19.2 5.2-2.6 1.1-5.2 2.6-7.8 4.4l-1.1.7c-1.1.7-1.9 1.1-2.6 1.9l-.4.4c-.7.4-1.5 1.1-1.9 1.5-1.1 1.1-1.9 1.9-2.6 2.2-9.3 9.3-15.2 21.5-15.9 34.8V148.7c1.1 8.5 4.1 16.7 9.6 24.1l62.9 91.4c1.5 1.9 2.6 3.7 4.1 5.2 0 .4.4.4.4.7l.7.7c11.5 12.6 26.3 20 40 20h1.5c13.7 0 28.5-7.4 40-20l.7-.7c0-.4.4-.4.4-.7 1.5-1.9 3-3.3 4.1-5.2l62.9-91.4c5.2-7.4 8.5-15.5 9.6-24.1v-7.4c1.2-.3 1.2-1.4.8-2.2z"/></svg>