<svg width="213" height="19" xmlns="http://www.w3.org/2000/svg"><g fill="#010202" fill-rule="nonzero"><path d="M206.527 6.688c.226-.228.527-.38.828-.38 1.054 0 1.58 1.824 1.58 3.648-.3.076-1.279.228-3.537.304.075-1.292.377-2.736 1.13-3.572Zm6.097 7.98c-.753.684-1.731 1.216-3.086 1.216-2.634 0-4.14-1.824-4.14-5.244h7.075c.075-.152.075-.38.075-.836 0-2.204-1.73-4.028-4.967-4.028-3.387 0-6.247 2.812-6.247 6.84 0 3.344 2.183 6.08 5.645 6.08 2.785 0 4.591-1.596 5.72-3.952l-.075-.076ZM202.764 6.384v-.076h-4.666v.076l.602.38c.602.304.978.684.978.988 0 .456-.602 2.432-.978 3.572l-.979 2.736h-.075l-2.258-6.156c-.15-.304-.15-.684-.15-.76 0-.228.15-.304.752-.456l.677-.152v-.228h-7.677v.228l.452.152c.677.152.828.228 1.204 1.14l4.667 10.64h1.129l4.14-9.652c.526-1.216.827-1.444 1.505-1.976l.677-.456ZM187.56 17.404V8.056c0-.228 0-1.368.076-2.356l-.076-.076-5.419 1.824v.076l.753.912c.226.304.226.532.226.988v8.056c0 .38-.075.456-.678.608l-.376.076v.228h6.623v-.228l-.376-.076c-.753-.228-.753-.304-.753-.684M185.302 4.788c1.43 0 2.484-1.064 2.484-2.28 0-1.216-.978-2.204-2.258-2.204-1.505 0-2.634 1.14-2.634 2.28 0 1.216 1.129 2.204 2.408 2.204M179.658 16.188c-.527 0-1.054-.076-1.355-.38-.301-.304-.452-.76-.452-1.444v-6.08h3.387l.301-1.976h-3.688l.076-3.192h-.076a81.114 81.114 0 0 1-5.946 4.864v.304h1.506v6.764c0 1.292.225 2.128.903 2.812.602.608 1.505.912 2.785.912 2.333 0 3.838-1.368 4.741-3.116l-.075-.076c-.677.38-1.43.608-2.107.608M166.26 6.384c.226 0 .301.076.452.38l1.656 3.04c.376.684.602.76.978.76.903 0 2.032-.76 2.032-2.052 0-1.596-1.806-2.66-4.29-2.66-4.14 0-6.698 3.192-6.698 6.764 0 3.268 2.107 6.08 5.72 6.08 2.333 0 4.14-1.216 5.193-3.42l-.075-.076c-.677.684-1.505 1.064-2.634 1.064-2.56 0-4.215-2.204-4.215-5.396-.075-2.888 1.054-4.484 1.881-4.484M153.014 6.688c.226-.228.527-.38.828-.38 1.053 0 1.58 1.824 1.58 3.648-.3.076-1.28.228-3.537.304.075-1.292.376-2.736 1.129-3.572Zm6.096 7.98c-.752.684-1.73 1.216-3.086 1.216-2.634 0-4.14-1.824-4.14-5.244h7.076c.075-.152.075-.38.075-.836 0-2.204-1.731-4.028-4.968-4.028-3.386 0-6.247 2.812-6.247 6.84 0 3.344 2.183 6.08 5.645 6.08 2.785 0 4.592-1.596 5.72-3.952l-.075-.076ZM146.315 17.404V2.356c0-.228 0-1.368.075-2.356h-.075l-5.419 1.748v.076l.753.912c.226.304.226.532.226.988v13.68c0 .38-.076.456-.678.608l-.376.076v.228h6.623v-.228l-.376-.076c-.678-.152-.753-.228-.753-.608M138.94 17.404V2.356c0-.228 0-1.368.074-2.356l-5.419 1.748v.076l.753.912c.226.304.226.532.226.988v13.68c0 .38-.075.456-.678.608l-.376.076v.228h6.623v-.228l-.376-.076c-.677-.152-.828-.228-.828-.608M127.95 17.404c-.15.38-.451.836-1.053.836-1.355 0-2.108-3.116-2.108-6.384 0-1.596.076-3.496.678-4.636.15-.38.451-.836 1.053-.836 1.355 0 2.108 3.116 2.108 6.384 0 1.596-.15 3.496-.677 4.636m-1.13-11.552c-2.032 0-3.612.684-4.892 1.976-.978.988-1.806 2.66-1.806 4.56 0 3.268 2.333 6.308 6.397 6.308 2.033 0 3.613-.684 4.893-1.976.978-.988 1.806-2.66 1.806-4.56 0-3.192-2.333-6.308-6.397-6.308M115.005 16.796c-.978.988-1.806 1.444-2.71 1.444-2.71 0-4.44-3.952-4.44-8.968 0-5.7 1.957-8.208 4.215-8.208.978 0 1.655.304 2.634 1.292 1.054 1.064 2.032 2.66 3.312 4.94h.225c-.075-1.748-.3-4.864-.451-6.612h-.15l-.227.304c-.15.228-.225.304-.451.304-.452 0-2.86-.684-4.667-.684-6.171 0-9.558 4.104-9.558 9.272 0 5.7 3.838 8.892 9.333 8.892 1.43 0 3.763-.456 6.02-1.52.151-.304.678-4.028.753-5.852l-.15-.076c-1.43 2.584-2.634 4.408-3.688 5.472M92.05 6.688c.225-.228.526-.38.827-.38 1.054 0 1.58 1.824 1.58 3.648-.3.076-1.279.228-3.537.304.075-1.292.376-2.736 1.13-3.572Zm6.096 7.98c-.753.684-1.732 1.216-3.086 1.216-2.635 0-4.14-1.824-4.14-5.244h7.075c.075-.152.075-.38.075-.836 0-2.204-1.73-4.028-4.967-4.028-3.387 0-6.247 2.812-6.247 6.84 0 3.344 2.183 6.08 5.645 6.08 2.785 0 4.59-1.596 5.72-3.952l-.075-.076ZM82.942 9.5c.527 0 1.58.304 2.71.912.677-.76 1.129-1.748 1.129-2.888 0-.988-.527-1.824-1.656-1.824-1.355 0-2.785 1.596-3.462 4.104l-.151-.076.075-2.128c0-.456.076-.988.15-2.052l-.074-.076-5.495 1.824v.076l.753.912c.226.228.226.532.226.988v8.056c0 .38-.076.456-.678.608l-.376.076v.228h7.15v-.228l-.828-.076c-.677-.076-.752-.152-.752-.608V10.64c.225-.608.602-1.14 1.279-1.14M74.512 17.404V8.056c0-.228 0-1.368.076-2.356h-.076l-5.419 1.748v.076l.753.912c.226.304.226.532.226.988v8.056c0 .38-.076.456-.678.608l-.376.076v.228h6.623v-.228l-.376-.076c-.677-.228-.753-.304-.753-.684M72.254 4.788c1.43 0 2.484-1.064 2.484-2.28 0-1.216-.978-2.204-2.258-2.204-1.505 0-2.634 1.14-2.634 2.28 0 1.216 1.129 2.204 2.408 2.204M62.696 16.568c-.226.152-.377.228-.753.228-.677 0-1.28-.684-1.28-1.9 0-.684.151-1.14.527-1.52.377-.38.678-.532 1.43-.988v4.18h.076Zm6.171.152c-.376.228-.602.304-.827.304-.226 0-.452-.076-.678-.228-.226-.228-.376-.532-.376-1.368V9.5c0-1.216-.15-2.128-.828-2.812-.602-.608-1.58-.912-2.86-.912-2.108 0-4.516 1.596-5.72 2.812-.678.684-.979 1.216-.979 1.672 0 .608.452.988 1.506.988.828 0 2.032-.304 2.559-.608l-.753-2.66c.301-.304.602-.38 1.054-.38.451 0 .903.076 1.129.38.376.304.526 1.14.526 2.812v1.292l-2.107.684c-2.183.76-2.935 1.064-3.462 1.672-.376.38-.602.912-.602 1.444 0 1.368.978 2.66 2.71 2.66 1.204 0 1.956-.456 3.085-1.444l.376-.304h.076c.451 1.14 1.43 1.824 2.785 1.824 1.73 0 3.01-1.216 3.462-1.9h-.076ZM54.718 17.404V8.056c0-.228 0-1.368.075-2.356l-.075-.076-5.42 1.748v.076l.753.912c.226.304.226.532.226.988v8.056c0 .38-.075.456-.677.608l-.377.076v.228h6.699v-.228l-.376-.076c-.828-.152-.828-.228-.828-.608M52.46 4.788c1.43 0 2.483-1.064 2.483-2.28 0-1.216-.978-2.204-2.257-2.204-1.506 0-2.635 1.14-2.635 2.28 0 1.216 1.13 2.204 2.409 2.204M46.815 16.188c-.527 0-1.054-.076-1.355-.38-.301-.304-.452-.76-.452-1.444v-6.08h3.387l.301-1.976h-3.688l.151-3.268h-.075a81.114 81.114 0 0 1-5.946 4.864v.304h1.505v6.764c0 1.292.226 2.128.903 2.812.602.608 1.506.912 2.785.912 2.333 0 3.839-1.368 4.742-3.116l-.075-.076c-.753.456-1.506.684-2.183.684M34.471 10.032c-1.204-.684-1.957-1.292-1.957-2.28 0-.684.452-1.292 1.355-1.292s1.656.456 3.99 3.724l.15-.076c0-.76-.075-2.964-.15-3.496-.829-.304-2.183-.76-3.84-.76-2.86 0-4.816 1.672-4.816 3.8 0 2.356 1.806 3.268 3.688 4.408 1.58.988 2.408 1.672 2.408 2.66 0 .76-.451 1.368-1.354 1.368-1.205 0-2.484-1.292-4.893-4.484l-.15.076c0 1.216.226 3.192.376 4.18 1.13.456 2.71.76 4.14.76 3.086 0 5.193-1.52 5.193-4.104 0-2.128-1.882-3.268-4.14-4.484M21.526 6.688c.226-.228.527-.38.828-.38 1.053 0 1.58 1.824 1.58 3.648-.3.076-1.28.228-3.537.304.075-1.292.376-2.736 1.129-3.572Zm6.096 7.98c-.752.684-1.73 1.216-3.086 1.216-2.634 0-4.14-1.824-4.14-5.244h7.076c.075-.152.075-.38.075-.836 0-2.204-1.731-4.028-4.967-4.028-3.387 0-6.247 2.812-6.247 6.84 0 3.344 2.182 6.08 5.644 6.08 2.785 0 4.592-1.596 5.72-3.952l-.075-.076ZM18.365 1.52l.903-.38V.988h-6.774v.152l1.054.456c1.053.456 1.28.608 1.28 1.064 0 .76-.753 3.268-.904 3.8l-2.258 7.068-3.613-9.956c-.225-.684-.3-1.14-.3-1.368 0-.304.15-.608 1.053-.76l.903-.152V.988H0v.228l.301.076c1.505.304 1.731.608 3.312 4.56l5.193 12.844h1.355l5.193-12.844c1.355-3.116 1.656-3.648 3.01-4.332"/></g></svg>