<svg width="120" height="21" xmlns="http://www.w3.org/2000/svg" class="injected-svg header_logo__img inject-me"><path d="M108.925 19.056c-.324-.205-.487-.529-.487-.973 0-.444.325-1.119.974-2.024.188-.29.49-.435.91-.435.417 0 .985.209 1.703.627.717.419 1.366.627 1.947.627 1.041 0 1.562-.204 1.562-.614 0-.324-.572-.564-1.716-.717-1.076-.154-2.144-.555-3.202-1.204-.496-.308-.906-.79-1.23-1.448-.324-.657-.486-1.438-.486-2.344 0-2.698 1.852-4.047 5.558-4.047 1.213 0 2.46.29 3.74.87.598.274.897.616.897 1.026 0 .41-.188.913-.564 1.51-.375.599-.76.898-1.152.898-.205 0-.585-.128-1.14-.385a4.257 4.257 0 0 0-1.806-.384c-1.008 0-1.511.188-1.511.563 0 .513.58.846 1.741 1 1.128.12 2.22.444 3.279.973.495.24.91.653 1.243 1.242.333.59.5 1.329.5 2.216 0 .889-.167 1.644-.5 2.268a3.242 3.242 0 0 1-1.396 1.396c-1.093.53-2.464.794-4.112.794-1.648 0-3.232-.478-4.752-1.435m-19.7-6.404c.65 0 .974-.273.974-.82 0-.393-.15-.708-.449-.948-.299-.239-.726-.359-1.28-.359-.555 0-1.107.227-1.652.68-.548.452-.82.934-.82 1.447h3.227Zm5.406-.756c0 1.05-.261 1.828-.782 2.331-.52.504-1.097.756-1.729.756h-6.071c0 .479.282.88.845 1.204.564.324 1.128.487 1.691.487.99 0 1.768-.103 2.331-.308l.282-.102c.41-.188.751-.282 1.025-.282.546 0 1.016.384 1.409 1.153.221.46.332.854.332 1.178 0 1.52-1.818 2.28-5.456 2.28-1.264 0-2.387-.218-3.369-.653-.982-.436-1.746-1.012-2.292-1.729-1.076-1.383-1.614-2.93-1.614-4.637 0-2.152.696-3.872 2.088-5.162 1.392-1.289 3.129-1.934 5.213-1.934 2.373 0 4.115.837 5.226 2.51.58.889.87 1.858.87 2.908ZM73.496 2.661c0-.393.013-.687.038-.884.026-.196.099-.422.218-.678.24-.462.905-.692 1.999-.692 1.041 0 1.69.23 1.946.692.137.256.218.486.244.691.025.205.038.504.038.897v11.86c0 .615.052 1.004.154 1.166.103.163.329.243.679.243.35 0 .585.013.704.039.12.025.265.098.436.217.341.223.512.83.512 1.82 0 1.075-.17 1.733-.512 1.972-.444.308-1.503.359-3.176.154-1.316-.171-2.17-.607-2.562-1.307-.479-.836-.718-2.168-.718-3.996V2.661Zm22.902 16.395c-.324-.205-.487-.529-.487-.973 0-.444.325-1.119.974-2.024.188-.29.49-.435.91-.435.417 0 .986.209 1.703.627.717.419 1.366.627 1.947.627 1.041 0 1.563-.204 1.563-.614 0-.324-.573-.564-1.717-.717-1.076-.154-2.144-.555-3.202-1.204-.496-.308-.906-.79-1.23-1.448-.324-.657-.486-1.438-.486-2.344 0-2.698 1.852-4.047 5.558-4.047 1.213 0 2.46.29 3.74.87.598.274.897.616.897 1.026 0 .41-.188.913-.563 1.51-.376.599-.76.898-1.153.898-.205 0-.585-.128-1.14-.385a4.257 4.257 0 0 0-1.806-.384c-1.008 0-1.511.188-1.511.563 0 .513.58.846 1.741 1 1.128.12 2.22.444 3.28.973.495.24.909.653 1.242 1.242.333.59.5 1.329.5 2.216 0 .889-.167 1.644-.5 2.268a3.24 3.24 0 0 1-1.396 1.396c-1.093.53-2.464.794-4.112.794-1.648 0-3.232-.478-4.752-1.435Zm-71.856-5.533c0 .563.221 1.072.665 1.524.445.453.982.68 1.615.68.63 0 1.156-.232 1.575-.693.418-.46.628-.969.628-1.524s-.202-1.072-.602-1.55c-.402-.478-.94-.717-1.614-.717-.675 0-1.222.24-1.64.717-.418.478-.627 1-.627 1.563m4.662-5.328c.102-.957.777-1.435 2.024-1.435.666 0 1.161.051 1.485.154.325.102.551.281.68.538.127.256.204.482.23.678.026.197.038.492.038.884v8.966c0 .393-.012.688-.038.884a2.382 2.382 0 0 1-.218.679c-.24.444-.824.666-1.755.666-.93 0-1.554-.115-1.87-.346-.316-.23-.5-.567-.55-1.012-.632.906-1.687 1.358-3.164 1.358-1.478 0-2.848-.674-4.112-2.024-1.264-1.348-1.896-2.916-1.896-4.7 0-1.785.637-3.348 1.91-4.689 1.271-1.34 2.667-2.01 4.187-2.01.58 0 1.11.102 1.589.307.478.205.81.397.999.576.187.18.341.355.46.526Zm6.609 10.861c-.325-.205-.486-.529-.486-.973 0-.444.324-1.119.973-2.024.188-.29.49-.435.91-.435.417 0 .986.209 1.703.627.717.419 1.366.627 1.947.627 1.041 0 1.562-.204 1.562-.614 0-.324-.572-.564-1.716-.717-1.076-.154-2.144-.555-3.202-1.204-.496-.308-.905-.79-1.23-1.448-.325-.657-.486-1.438-.486-2.344 0-2.698 1.852-4.047 5.558-4.047 1.213 0 2.46.29 3.74.87.598.274.897.616.897 1.026 0 .41-.188.913-.563 1.51-.376.599-.76.898-1.153.898-.205 0-.585-.128-1.14-.385a4.254 4.254 0 0 0-1.806-.384c-1.008 0-1.512.188-1.512.563 0 .513.58.846 1.742 1a9.54 9.54 0 0 1 3.28.973c.495.24.909.653 1.242 1.242.333.59.5 1.329.5 2.216 0 .889-.167 1.644-.5 2.268a3.242 3.242 0 0 1-1.396 1.396c-1.093.53-2.464.794-4.112.794-1.648 0-3.232-.478-4.752-1.435Zm19.854-7.762-1.665-.102v3.535c0 .46.072.794.217 1 .145.204.418.306.82.306.401 0 .709.014.923.039.213.025.439.106.678.243.393.223.59.794.59 1.716 0 1.076-.24 1.734-.718 1.973-.256.12-.483.192-.679.218a7.143 7.143 0 0 1-.858.038c-1.776 0-3.125-.4-4.047-1.204-.923-.802-1.384-2.16-1.384-4.073v-3.791a6.745 6.745 0 0 1-1.05.077c-.376 0-.688-.145-.935-.436-.248-.29-.372-.785-.372-1.486 0-.7.043-1.208.128-1.524.086-.316.205-.542.36-.679.272-.222.614-.333 1.024-.333l.845.103V4.275c0-.393.013-.683.039-.87.025-.189.106-.394.243-.616.222-.426.88-.64 1.973-.64 1.16 0 1.852.316 2.075.948.085.273.128.708.128 1.306v2.51a20.66 20.66 0 0 1 1.703-.102c.384 0 .675.013.871.038.196.026.423.107.68.244.443.222.665.88.665 1.972 0 1.077-.23 1.734-.692 1.973a2.38 2.38 0 0 1-.678.218 7.455 7.455 0 0 1-.884.038Zm10.759 1.358c.649 0 .973-.273.973-.82 0-.393-.15-.708-.448-.948-.299-.239-.726-.359-1.28-.359-.556 0-1.107.227-1.653.68-.547.452-.82.934-.82 1.447h3.228Zm5.405-.756c0 1.05-.26 1.828-.781 2.331-.521.504-1.098.756-1.73.756h-6.07c0 .479.281.88.845 1.204.563.324 1.127.487 1.69.487.99 0 1.768-.103 2.332-.308l.282-.102c.41-.188.75-.282 1.024-.282.546 0 1.016.384 1.41 1.153.22.46.332.854.332 1.178 0 1.52-1.819 2.28-5.456 2.28-1.265 0-2.387-.218-3.37-.653-.981-.436-1.746-1.012-2.292-1.729-1.076-1.383-1.614-2.93-1.614-4.637 0-2.152.696-3.872 2.088-5.162 1.392-1.289 3.13-1.934 5.213-1.934 2.374 0 4.116.837 5.226 2.51.58.889.871 1.858.871 2.908ZM17.906 6.862c1.093.479 1.64 1.068 1.64 1.768 0 .29-.137.756-.41 1.396-.273.64-.504 1.2-.691 1.678l-2.818 6.866c-.256.75-.684 1.28-1.281 1.588-.256.12-.581.179-.974.179s-.773-.15-1.14-.448c-.367-.299-.61-.602-.73-.91l-.205-.435c-.137-.342-.64-1.673-1.511-3.996-.171.41-.423 1.08-.756 2.01-.333.931-.547 1.512-.64 1.743-.094.23-.154.384-.18.46a2.86 2.86 0 0 1-.218.423c-.12.205-.255.385-.41.538-.41.41-.88.615-1.408.615-.53 0-.974-.15-1.332-.448-.359-.299-.598-.602-.718-.91L.256 9.552C.086 9.04 0 8.707 0 8.553c0-.683.486-1.22 1.46-1.614.547-.222.99-.333 1.332-.333.342 0 .62.073.833.218.213.145.363.29.448.435.085.146.154.295.205.449.29.683.897 2.289 1.819 4.815l1.511-4.15c.103-.34.29-.64.564-.896.495-.495.999-.743 1.511-.743.512 0 .952.137 1.32.41.367.274.618.547.755.82l.205.436c.854 2.39 1.358 3.757 1.512 4.098l1.562-4.252c.41-1.093 1.025-1.64 1.845-1.64.324 0 .666.086 1.024.256Z" fill="#585894" fill-rule="evenodd"/></svg>