<svg id="Layer_1" xmlns="http://www.w3.org/2000/svg" viewBox="0 0 2000 313.01" width="2000" height="313.01"><defs><style>.cls-1{fill:#242424;stroke-width:0}</style></defs><path class="cls-1" d="M615.52 313.01h-62.1c-12.37 0-22.73-9.37-23.96-21.68l-9.27-92.72c-.34-3.4-3.2-5.99-6.62-5.99s-6.28 2.59-6.62 5.99l-9.27 92.72c-1.23 12.31-11.59 21.68-23.96 21.68h-62.48c-13.3 0-24.08-10.78-24.08-24.08V24.08c0-13.3 10.78-24.08 24.07-24.08h62.28c12.23 0 22.51 9.16 23.92 21.3l9.5 93.11a6.653 6.653 0 0 0 13.24-.02l9.07-92.97C530.6 9.23 540.9 0 553.17 0h62.34c13.31 0 24.09 10.78 24.09 24.08v264.86c0 13.3-10.78 24.08-24.08 24.08ZM855.53 313.01H724.24c-33.24 0-60.19-26.95-60.19-60.19V60.19C664.05 26.95 691 0 724.25 0h131.29c27.22 0 49.29 22.07 49.29 49.29 0 25.07-18.82 46.15-43.73 48.98l-83.05 9.43a6.362 6.362 0 0 0-5.64 6.32c0 3.51 2.85 6.36 6.36 6.36h50.83c19.95 0 36.12 16.17 36.12 36.12 0 19.95-16.17 36.12-36.12 36.12h-57.19v12.04l88.7 10.08c24.91 2.83 43.73 23.91 43.73 48.98 0 27.22-22.07 49.29-49.29 49.29Z"/><rect class="cls-1" x="1253.96" width="84.27" height="313.01" rx="24.08" ry="24.08"/><path class="cls-1" d="M246.85 173.78 227.31 27.26C225.39 12.83 236.61 0 251.18 0H339c15.11 0 26.49 13.78 23.64 28.62l-44.91 233.54c-5.68 29.51-31.5 50.84-61.55 50.84-32.14 0-59.07-24.31-62.35-56.28l-6.11-59.49c-.74-7.22-11.25-7.23-12.01-.02l-6.3 59.69c-3.37 31.89-30.26 56.1-62.33 56.1h-.17c-30.05 0-55.88-21.33-61.55-50.84L.44 28.62C-2.41 13.78 8.96 0 24.09 0h87.82c14.55 0 25.78 12.83 23.86 27.26l-19.54 146.52c-.48 3.6 2.32 6.8 5.95 6.8h.25c2.86 0 5.33-2.02 5.89-4.83l17.21-86.05c3.43-17.16 18.5-29.51 36-29.51s32.57 12.35 36 29.51l17.21 86.05a6.007 6.007 0 0 0 5.89 4.83h.25c3.63 0 6.43-3.2 5.95-6.8ZM1473.58 221.89l-14.4-132.42a5.826 5.826 0 0 0-5.79-5.2 5.83 5.83 0 0 0-5.83 5.8l-.88 198.96c-.06 13.26-10.82 23.98-24.08 23.98h-36.21c-13.3 0-24.08-10.79-24.08-24.09l.13-264.86c.02-13.29 10.79-24.06 24.09-24.06h105.59c42.03 0 76.77 32.76 79.24 74.72l7.3 124.27c.2 3.34 3.01 5.92 6.36 5.84a6.206 6.206 0 0 0 6.04-6.2V24.08c-.01-13.3 10.77-24.08 24.06-24.08h36.27c13.3 0 24.08 10.78 24.08 24.08v187.74c0 55.89-45.31 101.2-101.2 101.2-51.99 0-95.52-39.39-100.69-91.13ZM2000 168.54v48.16c0 53.19-43.12 96.31-96.31 96.31h-107.98c-53.19 0-96.31-43.12-96.31-96.31V60.19c0-33.24 26.95-60.19 60.19-60.19h169.25c39.3 0 71.16 31.86 71.16 71.16v37.19c0 6.65-5.39 12.04-12.04 12.04h-83.9c-6.65 0-12.04-5.39-12.04-12.04V90.11c0-3.33-2.7-6.03-6.03-6.02l-78.1.15c-13.26.02-24.01 10.76-24.04 24.02l-.14 72.29c-.02 13.31 10.77 24.11 24.08 24.11h65.58c3.65 0 6.62-2.96 6.62-6.62 0-3.15-2.23-5.87-5.32-6.49l-38.92-7.78c-9.28-1.86-15.95-10-15.95-19.46 0-10.96 8.89-19.85 19.85-19.85h136.29c13.3 0 24.08 10.78 24.08 24.08ZM1209.62 226.6l-86.15-49.95c-3.84-2.23-2.26-8.1 2.18-8.1h20.16c46.43 0 84.08-37.64 84.08-84.08 0-46.37-37.55-83.99-83.92-84.08L989.22.11c-33.29-.06-60.3 26.91-60.3 60.19v228.63c0 13.3 10.78 24.08 24.08 24.08h48.16c13.3 0 24.08-10.78 24.08-24.08V175.54c0-3.86 3.13-7 7-7 3.01 0 5.68 1.93 6.64 4.78l41.07 123.22a24.08 24.08 0 0 0 22.84 16.46h79.61c26.23 0 47.5-21.27 47.5-47.5 0-15.5-7.56-30.03-20.26-38.91ZM1109.49 84.28c0 6.65-5.39 12.04-12.04 12.04h-60.19c-6.65 0-12.04-5.39-12.04-12.04 0-6.65 5.39-12.04 12.04-12.04h60.19c6.65 0 12.04 5.39 12.04 12.04Z"/></svg>