<svg width="152" height="40" fill="none" xmlns="http://www.w3.org/2000/svg" class="h-[45px] w-[172px]"><path d="M140.827 17.25c-2.208 0-3.989.786-5.33 2.153v-8.226h-5.504v23.742h5.501v-7.962c0-3.317 1.409-4.786 3.534-4.786 1.789 0 2.992 1.367 2.992 3.384v9.367h5.467v-10.53c.011-4.305-2.672-7.142-6.66-7.142ZM149.72 11.429c-1.254 0-2.28.957-2.28 2.291 0 1.323 1.026 2.28 2.28 2.28 1.254 0 2.28-.957 2.28-2.28 0-1.334-1.026-2.291-2.28-2.291Zm0 4.127a1.808 1.808 0 0 1-1.813-1.836c0-1.072.821-1.858 1.813-1.858 1.003 0 1.824.787 1.824 1.858a1.81 1.81 0 0 1-1.824 1.836Zm.992-2.258c0-.421-.342-.695-.855-.695h-.969V14.7h.456v-.673h.342l.592.673h.548l-.65-.719c.33-.102.536-.353.536-.684Zm-1.368.32v-.605h.513c.239 0 .399.114.399.297 0 .182-.16.307-.399.307h-.513ZM99.252 17.387c-2.235 0-4.023.683-5.364 1.879v-1.367h-5.501V40h5.5V33.69c1.342 1.197 3.13 1.88 5.365 1.88 4.573 0 8.424-3.658 8.424-9.092 0-5.4-3.851-9.09-8.424-9.09ZM98.115 30.92c-2.235 0-4.23-1.777-4.23-4.444 0-2.634 1.995-4.442 4.23-4.442 2.406 0 4.16 1.81 4.16 4.442.003 2.667-1.751 4.444-4.16 4.444ZM18.637 27.063 15.37 17.8h-3.885L8.218 27.03 5.398 17.8H0l5.536 17.193h4.78l3.13-9.298 3.093 9.298h4.78L26.854 17.8h-5.398l-2.82 9.263ZM39.19 17.25c-2.2 0-3.989.786-5.329 2.153v-8.226H28.36v23.742h5.502v-7.962c0-3.317 1.41-4.786 3.534-4.786 1.788 0 2.992 1.367 2.992 3.384v9.367h5.467v-10.53c.008-4.305-2.675-7.142-6.664-7.142ZM56.754 17.387c-5.227 0-9.56 3.624-9.56 9.023 0 5.435 4.333 9.057 9.56 9.057 5.123 0 9.456-3.622 9.456-9.057 0-5.4-4.333-9.023-9.456-9.023Zm0 13.465c-2.235 0-4.27-1.743-4.27-4.443 0-2.666 2.029-4.443 4.27-4.443 2.132 0 4.161 1.777 4.161 4.443 0 2.703-2.029 4.445-4.161 4.445v-.002ZM78.552 17.387c-2.235 0-4.022.683-5.364 1.879v-1.367h-5.5V40h5.5V33.69c1.342 1.197 3.13 1.88 5.364 1.88 4.574 0 8.424-3.658 8.424-9.092 0-5.4-3.85-9.09-8.424-9.09Zm-1.13 13.534c-2.236 0-4.23-1.777-4.23-4.444 0-2.634 1.995-4.442 4.23-4.442 2.407 0 4.16 1.81 4.16 4.442-.004 2.667-1.757 4.444-4.16 4.444ZM122.874 19.266c-1.341-1.196-3.129-1.88-5.364-1.88-4.573 0-8.424 3.692-8.424 9.091 0 5.435 3.851 9.093 8.424 9.093 2.235 0 4.023-.684 5.364-1.881v1.367h5.502V17.9h-5.502v1.367Zm-4.228 11.655c-2.408 0-4.162-1.777-4.162-4.444 0-2.634 1.754-4.442 4.162-4.442 2.233 0 4.228 1.81 4.228 4.442 0 2.667-1.995 4.444-4.228 4.444ZM77.157 10.57c.262 0 .514-.099.706-.277.191-.177.307-.421.324-.68l.519-7.827c.012-.079.02-.158.02-.237V1.48A1.544 1.544 0 0 0 78.247.43a1.563 1.563 0 0 0-2.154 0c-.29.276-.462.653-.48 1.051h-.019l.532 8.131c.017.26.133.504.325.681.191.178.444.277.706.276ZM82.594 11.783l5.933-5.17c.066-.044.127-.092.184-.146l.025-.028.022-.02a1.542 1.542 0 0 0-.035-2.15 1.56 1.56 0 0 0-2.164-.036l-.013-.013-5.406 6.117a1.02 1.02 0 0 0 .05 1.396 1.034 1.034 0 0 0 1.404.05ZM73.053 11.736a1.022 1.022 0 0 0 .046-1.4L67.698 4.21l-.015.013a1.562 1.562 0 0 0-2.164.035 1.542 1.542 0 0 0-.036 2.151l.022.02c.01.008.017.019.027.027.057.054.118.103.183.147l5.933 5.17a1.034 1.034 0 0 0 1.405-.037Z" fill="currentColor"/></svg>