<svg id="Layer_1" data-name="Layer 1" xmlns="http://www.w3.org/2000/svg" width="2079.969" height="448.795"><defs><style>.cls-1{fill:#000}</style></defs><path class="cls-1" d="M1067.138 158.184h47.836v199.619h-47.836ZM956.36 280.116h-.719l-32.363-121.93h-38.135l-32.723 121.93h-.724l-36.324-121.93h-51.075l71.933 199.618h29.494l37.765-129.482h.725l37.4 129.482h29.498l73.013-199.619h-51.076Zm296.369-128.762c-23.022 0-38.843 8.626-54.675 24.099v-17.269h-44.238v199.62h47.837v-94.955c0-14.745 0-37.406 8.633-49.99 7.19-10.437 20.14-17.625 32.732-17.625 35.605 0 40.28 36.32 40.28 64.018v98.551h47.835V247.028c0-23.38-2.873-49.282-18.338-67.984-14.025-16.9-38.124-27.69-60.066-27.69m776.173 6.83-36.69 121.932h-.718l-32.371-121.931h-38.124l-32.732 121.93h-.72l-36.327-121.93h-51.078l71.941 199.619h29.493l37.766-129.482h.72l37.404 129.482h29.494l73.01-199.62Zm-560.372-6.83c-23.02 0-38.843 8.625-54.675 24.099v-17.269h-44.237v199.62h47.837v-94.955c0-14.745 0-37.406 8.633-49.99 7.198-10.437 20.139-17.625 32.732-17.625 35.604 0 40.28 36.32 40.28 64.018v98.551h47.834V247.028c0-23.38-2.872-49.282-18.335-67.984-14.028-16.9-38.127-27.69-60.069-27.69m212.921 169.044c33.809 0 57.913-29.133 57.913-61.865 0-32.013-24.104-63.3-57.913-63.3s-58.624 30.568-58.624 62.942c0 33.448 24.097 62.222 58.624 62.222m0-169.043A105.536 105.536 0 0 1 1787.2 257.456c0 60.427-45.322 106.819-105.75 106.819-58.265 0-106.46-47.837-106.46-106.1 0-58.626 47.477-106.82 106.46-106.82M657.837 151.68a84.838 84.838 0 0 0-47.252-76.066 46.538 46.538 0 0 0 7.875-6.311 47.365 47.365 0 0 0 12.158-45.465 47.723 47.723 0 0 0-35.638 4.66A47.9 47.9 0 0 0 573.085 0a47.904 47.904 0 0 0-21.935 28.651 47.717 47.717 0 0 0-35.788-4.752 47.367 47.367 0 0 0 12.158 45.464 46.559 46.559 0 0 0 7.82 6.28 84.825 84.825 0 0 0-35.81 118.474h-.013l73.475 127.26 73.47-127.26h-.012a84.41 84.41 0 0 0 11.387-42.437M494.839 437.41a84.835 84.835 0 0 1-115.938-31.065l-49.003-84.876-49.003 84.876a84.878 84.878 0 0 1-147.007 0L11.386 194.16a84.871 84.871 0 1 1 147.001-84.87l49.003 84.87 49.016-84.892a84.878 84.878 0 0 1 147.006 0l122.493 212.207a84.872 84.872 0 0 1-31.066 115.936Z"/></svg>