<svg xmlns="http://www.w3.org/2000/svg" viewBox="0 0 89 65" width="89" height="65" fill="none" class="svg"><path d="M0 .482h4.673l.4 14.244 1.452-8.547h4.046l1.453 8.547.4-14.244h4.672l-1.679 19.94h-5.383L8.553 10.366l-1.48 10.056H1.678L0 .482ZM20.654 18.146c-1.139-1.862-1.708-4.424-1.708-7.693 0-3.269.569-5.825 1.708-7.677C21.792.924 23.74 0 26.494 0s4.702.93 5.841 2.792c1.139 1.862 1.708 4.427 1.708 7.693s-.57 5.825-1.708 7.677c-1.139 1.852-3.087 2.776-5.84 2.776-2.755 0-4.703-.93-5.841-2.792Zm7.564-2.124c.41-.429.698-1.081.87-1.967.17-.883.256-2.057.256-3.519 0-1.462-.086-2.703-.256-3.605-.17-.902-.46-1.57-.87-2.008-.409-.439-.982-.656-1.724-.656s-1.314.214-1.724.64c-.41.428-.697 1.08-.87 1.967-.17.883-.256 2.056-.256 3.518 0 1.462.087 2.703.256 3.605.17.902.46 1.57.87 2.009.41.438.982.655 1.724.655s1.315-.214 1.724-.64ZM37.89.482h7.977c1.404 0 2.572.275 3.506.826.93.55 1.618 1.295 2.066 2.235.444.94.668 2 .668 3.177 0 1.273-.262 2.38-.783 3.32-.522.94-1.296 1.657-2.322 2.15l3.844 8.232h-5.185l-2.904-6.893h-2.194v6.893H37.89V.482Zm8.988 8.42c.352-.445.527-1.06.527-1.84s-.166-1.366-.498-1.766c-.333-.4-.851-.598-1.552-.598h-2.792V9.57h2.677c.742 0 1.286-.224 1.638-.669ZM55.839.482h4.673v15.555h10.142v4.389H55.842V.482h-.003ZM73.786.482h6.608c2.696 0 4.619.896 5.77 2.694 1.148 1.794 1.724 4.087 1.724 6.88 0 2.792-.614 5.383-1.836 7.379-1.225 1.993-3.262 2.99-6.11 2.99H73.79V.483h-.003Zm8.661 14.116c.512-.96.768-2.444.768-4.459 0-1.88-.227-3.227-.684-4.046-.455-.816-1.206-1.225-2.252-1.225h-1.823v11.166h1.48c1.158 0 1.993-.48 2.508-1.44l.003.004ZM2.706 40.177C1.568 38.316.998 35.753.998 32.484c0-3.269.57-5.824 1.708-7.676 1.14-1.852 3.087-2.776 5.841-2.776s4.702.93 5.84 2.792c1.14 1.861 1.709 4.427 1.709 7.692 0 3.266-.57 5.825-1.708 7.677-1.139 1.852-3.087 2.776-5.84 2.776-2.755 0-4.703-.93-5.842-2.792Zm7.565-2.124c.41-.428.697-1.08.87-1.967.17-.883.256-2.057.256-3.518 0-1.462-.086-2.703-.256-3.605-.17-.902-.46-1.57-.87-2.009-.41-.438-.982-.656-1.724-.656s-1.315.215-1.724.64c-.41.429-.697 1.081-.87 1.967-.17.883-.256 2.057-.256 3.519 0 1.462.087 2.703.256 3.605.17.901.46 1.57.87 2.008.41.438.982.656 1.724.656s1.315-.214 1.724-.64ZM19.94 22.516h15.242v4.388H24.614v3.56h10.114v4.389H24.614v7.606H19.94V22.516ZM0 44.547h4.673l.4 14.243 1.452-8.546h4.046l1.453 8.546.4-14.243h4.672l-1.679 19.94h-5.383L8.553 54.431l-1.48 10.056H1.678L0 44.547ZM23.474 44.547h6.01l5.272 19.94h-4.958l-.94-4.158h-4.843l-.912 4.158h-4.871l5.242-19.94Zm4.5 11.85-1.538-6.978-1.538 6.979h3.077ZM40.737 64.161a6.652 6.652 0 0 1-2.862-2.536c-.714-1.13-1.088-2.52-1.126-4.174h4.702c.15 1.177.492 2.047 1.026 2.606.531.56 1.322.842 2.364.842.873 0 1.52-.167 1.939-.5.419-.332.627-.793.627-1.381 0-.589-.186-1.017-.557-1.34-.371-.323-.944-.598-1.724-.825l-2.364-.685c-1.861-.531-3.253-1.244-4.174-2.137-.921-.892-1.382-2.155-1.382-3.79 0-2.07.669-3.618 2.009-4.644 1.34-1.027 3.09-1.539 5.255-1.539 2.166 0 4.002.576 5.342 1.724 1.34 1.148 2.047 2.796 2.124 4.942h-4.702c-.115-.93-.41-1.59-.883-1.98-.473-.39-1.139-.585-1.993-.585-.854 0-1.449.153-1.836.454-.39.304-.585.742-.585 1.311 0 .608.217 1.069.656 1.382.435.314 1.09.614 1.963.899l2.566.796c1.708.531 2.971 1.216 3.79 2.05.816.835 1.225 2.006 1.225 3.506 0 1.385-.32 2.566-.953 3.532-.636.969-1.51 1.695-2.62 2.178-1.11.483-2.37.726-3.774.726-1.5 0-2.85-.282-4.046-.841l-.007.01ZM60.053 48.936h-6.067v-4.389h16.808v4.389h-6.067V64.49h-4.674V48.936ZM73.786 44.547h14.16v4.389h-9.487v3.275h9.03v4.388h-9.03v3.506h9.714v4.389H73.786V44.546Z" fill="currentColor"/></svg>