<svg xmlns="http://www.w3.org/2000/svg" fill="none" viewBox="0 0 167 33" width="167" height="33"><path fill="#000" d="m72.676 32.932.428-2.073c.465-2.255.93-4.51 1.398-6.761a10514.286 10514.286 0 0 0 2.78-13.441c.108-.53.225-1.06.332-1.589a.151.151 0 0 1 .053-.121.18.18 0 0 1 .132-.043h4.51a.47.47 0 0 1 .092.027l-.375 1.872c.336-.247.614-.457.906-.662a9.04 9.04 0 0 1 3.288-1.437 9.337 9.337 0 0 1 3.627-.065c2.63.456 4.383 2 5.357 4.296.706 1.724.875 3.6.487 5.41-.411 2.469-1.722 4.728-3.711 6.392a10.45 10.45 0 0 1-3.61 2.047c-1.34.441-2.764.618-4.182.519a6.97 6.97 0 0 1-2.536-.59 6.599 6.599 0 0 1-2.095-1.465l-.078-.078a.273.273 0 0 0-.058-.022.493.493 0 0 0-.05.105 2695.17 2695.17 0 0 0-.92 4.46 888.228 888.228 0 0 0-.637 3.1.174.174 0 0 1-.064.141.199.199 0 0 1-.156.046h-4.782a1.535 1.535 0 0 1-.136-.068Zm18.018-15.386c0-1.392-.258-2.32-.764-3.022a4.352 4.352 0 0 0-2.123-1.559 4.66 4.66 0 0 0-2.694-.098c-.71.17-1.376.47-1.961.882a5.319 5.319 0 0 0-1.448 1.524 5.719 5.719 0 0 0-1 2.463 5.583 5.583 0 0 0 .236 2.627 3.47 3.47 0 0 0 .886 1.466 3.8 3.8 0 0 0 1.51.913c.82.286 1.707.362 2.569.22a5.074 5.074 0 0 0 2.335-1.028 5.966 5.966 0 0 0 1.741-1.94 5.57 5.57 0 0 0 .704-2.448h.01Zm40.995-6.373.272-1.43c.044-.223.083-.456.122-.67a.162.162 0 0 1 .059-.132.19.19 0 0 1 .146-.042h4.485a.665.665 0 0 1 .102 0c-.073.365-.146.73-.224 1.1l-1.626 7.894-1.393 6.72c-.141.685-.283 1.37-.419 2.055a.16.16 0 0 1-.059.13.183.183 0 0 1-.145.039h-4.583l.38-1.904-.039-.027-.156.123a8.718 8.718 0 0 1-4.675 2.16c-2.752.36-5.167-.27-7.047-2.283a7.355 7.355 0 0 1-1.816-3.74 10.466 10.466 0 0 1 .892-6.427c.974-2.012 2.566-3.705 4.572-4.863a10.495 10.495 0 0 1 6.808-1.283 6.146 6.146 0 0 1 2.41.787 5.73 5.73 0 0 1 1.827 1.67c.033.042.069.083.107.123Zm-11.586 7.492c.049.347.073.758.171 1.16a3.71 3.71 0 0 0 .751 1.611c.38.476.873.862 1.44 1.128a4.978 4.978 0 0 0 4.578-.192c2.435-1.26 3.56-4.15 3.019-6.51a3.53 3.53 0 0 0-.747-1.632 3.864 3.864 0 0 0-1.478-1.108 4.98 4.98 0 0 0-4.242.119c-2.318 1.114-3.336 2.995-3.492 5.424Zm40.663 2.192 3.409 2.37a1.01 1.01 0 0 1-.078.118 11.17 11.17 0 0 1-3.784 2.95 10.599 10.599 0 0 1-3.55.935 11.487 11.487 0 0 1-3.896-.26c-1.667-.406-3.154-1.297-4.248-2.543a7.403 7.403 0 0 1-1.849-4.396 10.218 10.218 0 0 1 1.715-6.527c1.302-1.948 3.235-3.452 5.517-4.294a10.53 10.53 0 0 1 7.305-.191 7.334 7.334 0 0 1 3.303 2.137 6.648 6.648 0 0 1 1.601 3.45 8.827 8.827 0 0 1-.366 4.133c-.18.611-.19.607-.852.607h-13.295c.049.292.073.561.137.822.38 1.547 1.344 2.62 3.014 2.98a5.433 5.433 0 0 0 2.87-.044 5.142 5.142 0 0 0 2.39-1.49c.116-.122.228-.246.336-.373.107-.128.204-.242.321-.384Zm-8.581-4.707h9.131a.837.837 0 0 1 .112 0c.185.027.244-.055.224-.22-.034-.323-.029-.656-.087-.976-.258-1.37-1.033-2.315-2.489-2.676a5.552 5.552 0 0 0-3.302.215c-1.314.497-2.395 1.418-3.048 2.598-.214.329-.37.676-.541 1.059Zm-96.749-3.374h-8.152c.073-.36.136-.694.204-1.027.18-.881.37-1.758.54-2.639 0-.033.008-.065.023-.094a.222.222 0 0 1 .064-.076.24.24 0 0 1 .196-.045h17.532L51.86 22.733l-.224.229h9.92c-.107.493-.2.954-.297 1.41-.16.758-.331 1.516-.487 2.283 0 .03-.009.061-.023.088a.213.213 0 0 1-.06.071.23.23 0 0 1-.185.042H41.201s10.602-10.446 14.07-13.87a.855.855 0 0 1 .165-.21Zm45.297 8.309c0 .055.039.1.054.146.126.505.393.969.774 1.344.381.376.862.65 1.393.793a4.808 4.808 0 0 0 3.409-.133c.418-.16.756-.465.944-.85.188-.387.213-.825.069-1.227a1.823 1.823 0 0 0-.799-.913 10.521 10.521 0 0 0-2.274-.959 19.03 19.03 0 0 1-3.049-1.219 4.73 4.73 0 0 1-1.948-1.826 4.21 4.21 0 0 1-.428-2.78c.321-1.955 1.587-3.247 3.409-4.11a11.168 11.168 0 0 1 5.454-.876 9.856 9.856 0 0 1 3.258.717c1.12.415 2.04 1.199 2.586 2.205.139.312.261.63.365.954l-4.578 1.566a.831.831 0 0 1-.068-.123 2.213 2.213 0 0 0-.777-1.18 2.468 2.468 0 0 0-1.37-.523 3.597 3.597 0 0 0-2.406.456 1.47 1.47 0 0 0-.633.628c-.136.266-.18.565-.127.856.029.177.098.347.204.496.106.149.246.274.41.367.45.274.924.513 1.417.712.974.38 2.006.694 2.995 1.068a6.494 6.494 0 0 1 2.708 1.75c.38.445.662.956.83 1.505.167.549.216 1.123.144 1.69-.215 2.283-1.627 3.78-3.765 4.73a11.81 11.81 0 0 1-4.957.913 11.603 11.603 0 0 1-3.989-.657c-1.39-.437-2.549-1.36-3.233-2.576a9.387 9.387 0 0 1-.487-1.328.147.147 0 0 1 .001-.143.16.16 0 0 1 .052-.054.173.173 0 0 1 .073-.027l4.203-1.397a.981.981 0 0 1 .136.005Zm36.3 5.743.4-1.936 1.514-7.304 1.266-6.114 1.403-6.78c.175-.835.35-1.675.516-2.51a.209.209 0 0 1 .019-.095.238.238 0 0 1 .151-.126.253.253 0 0 1 .103-.008h4.894c-.068.352-.132.68-.2 1.014l-1.753 8.455c-.539 2.603-1.079 5.205-1.622 7.807l-1.538 7.428a.168.168 0 0 1-.054.142.183.183 0 0 1-.069.042.197.197 0 0 1-.082.008h-4.87l-.078-.023ZM73.506 8.922c-.097.457-.185.913-.283 1.37l-1.636 7.93-1.393 6.716c-.117.57-.238 1.146-.35 1.717a.155.155 0 0 1-.052.132.187.187 0 0 1-.143.046h-4.826a1.03 1.03 0 0 1-.132 0c.093-.457.18-.913.273-1.342l1.412-6.821 1.685-8.14c.103-.49.205-.978.297-1.466a.148.148 0 0 1 .059-.12.17.17 0 0 1 .136-.035h4.826a.851.851 0 0 1 .127.013Zm-.81-8.92a2.948 2.948 0 0 1 1.57.401c.47.277.842.677 1.07 1.152a2.763 2.763 0 0 1 0 2.364 3.56 3.56 0 0 1-.808 1.18c-.349.34-.767.611-1.229.798a4.025 4.025 0 0 1-2.931.036 2.765 2.765 0 0 1-1.372-1.2 2.507 2.507 0 0 1-.27-1.74A3.618 3.618 0 0 1 70.119.805a4.068 4.068 0 0 1 2.578-.803Z"/><path fill="url(#a)" fill-rule="evenodd" d="M.559 27.455h8.017c.189-.205 2.281-2.3 3.936-3.957 1.068-1.07 1.954-1.956 2.027-2.033A44303.79 44303.79 0 0 1 32.08 3.051h-8.03s-5.757 5.748-5.908 5.91C14.103 13.221.56 27.455.56 27.455Zm24.57-3.632c-.665 1.959.74 3.632 3.02 3.632 1.63-.014 3.093-.922 3.681-2.285.736-1.744-.199-3.382-2.148-3.755-1.967-.33-3.924.704-4.554 2.408Z" clip-rule="evenodd"/><defs><linearGradient id="a" x1="30.899" x2="1.11" y1="3.442" y2="27.904" gradientUnits="userSpaceOnUse"><stop offset=".361" stop-color="#FE4F15"/><stop offset="1" stop-color="#FF8E00"/></linearGradient></defs></svg>