<svg width="120" height="33" viewBox="0 0 261 60" fill="none" xmlns="http://www.w3.org/2000/svg"><path d="M19.122 36.443 9.25 31.51l10.195-20.387H0V.09h37.299L19.122 36.443ZM59.995 45.995H22.696L40.876 9.64l9.868 4.934-10.193 20.387h19.444v11.032ZM77.53 10.335v19.769c0 4.092 1.98 6.136 5.942 6.136 3.96 0 5.942-2.044 5.942-6.136v-19.77h11.691v22.03c0 4.478-1.475 7.837-4.424 10.075-2.95 2.238-7.353 3.358-13.21 3.358-5.855 0-10.259-1.12-13.208-3.358-2.95-2.238-4.425-5.597-4.425-10.075v-22.03H77.53ZM120.739 59.983h-11.691V10.319h11.691V14c2.497-3.143 5.898-4.714 10.205-4.714 2.367 0 4.574.463 6.62 1.388a16.843 16.843 0 0 1 5.329 3.778c1.507 1.594 2.68 3.466 3.52 5.619.84 2.153 1.259 4.456 1.259 6.91 0 2.454-.419 4.736-1.259 6.845-.84 2.11-2.002 3.962-3.488 5.554a16.094 16.094 0 0 1-5.265 3.747c-2.024.904-4.221 1.355-6.589 1.355-4.133 0-7.578-1.42-10.334-4.262v19.762h.002Zm14.725-33.001a7.951 7.951 0 0 0-.548-2.938 7.074 7.074 0 0 0-1.583-2.423 7.938 7.938 0 0 0-2.422-1.647 7.368 7.368 0 0 0-3.003-.613 7.298 7.298 0 0 0-2.907.582 7.225 7.225 0 0 0-2.358 1.614 8.174 8.174 0 0 0-1.614 2.422 7.178 7.178 0 0 0-.613 2.938 7.291 7.291 0 0 0 2.196 5.264 8.168 8.168 0 0 0 2.422 1.614 7.18 7.18 0 0 0 2.938.613 7.304 7.304 0 0 0 2.907-.581 7.192 7.192 0 0 0 2.358-1.614 8.364 8.364 0 0 0 1.614-2.39 6.838 6.838 0 0 0 .613-2.841ZM166.014 59.983h-11.691V10.319h11.691V14c2.496-3.143 5.898-4.714 10.204-4.714 2.368 0 4.575.463 6.621 1.388a16.854 16.854 0 0 1 5.329 3.778c1.507 1.594 2.679 3.466 3.52 5.619.84 2.153 1.259 4.456 1.259 6.91 0 2.454-.419 4.736-1.259 6.845-.841 2.11-2.002 3.962-3.489 5.554a16.08 16.08 0 0 1-5.264 3.747c-2.024.904-4.221 1.355-6.589 1.355-4.133 0-7.579-1.42-10.334-4.262v19.762h.002Zm14.727-33.001a7.952 7.952 0 0 0-.549-2.938 7.074 7.074 0 0 0-1.583-2.423 7.926 7.926 0 0 0-2.422-1.647 7.368 7.368 0 0 0-3.003-.613 7.298 7.298 0 0 0-2.907.582 7.235 7.235 0 0 0-2.358 1.614 8.193 8.193 0 0 0-1.614 2.422 7.178 7.178 0 0 0-.613 2.938 7.291 7.291 0 0 0 2.196 5.264 8.173 8.173 0 0 0 2.423 1.614c.925.41 1.905.613 2.938.613a7.302 7.302 0 0 0 2.906-.581 7.192 7.192 0 0 0 2.358-1.614 8.344 8.344 0 0 0 1.614-2.39 6.823 6.823 0 0 0 .614-2.841ZM211.29 0v45.797h-11.691V0h11.691ZM231.958 38.946 215.94 10.335h13.563l8.849 16.986 8.591-16.986h13.434L233.767 60h-13.111l11.302-21.054Z" fill="#0B5351"/></svg>